<?xml version="1.0" encoding="utf-8" ?>
<svg baseProfile="full" height="200" version="1.1" width="616" xmlns="http://www.w3.org/2000/svg" xmlns:ev="http://www.w3.org/2001/xml-events" xmlns:xlink="http://www.w3.org/1999/xlink"><defs><marker id="arrow" markerHeight="3.5" markerWidth="5" orient="auto" refX="5.0" refY="1.7"><polygon points="0,0 5,1.75 0,3.5" /></marker></defs><g style="fill:white;"><g transform="matrix(1.0, 0.0, 0.0, 1.0, 308.2392200292392, 100.0)"><g transform="matrix(68.72331430427894, 0.0, 0.0, 68.72331430427894, 0.0, 0.0)"><g><g transform="matrix(1.0, 0.0, 0.0, 1.0, -2.88581929876693, 1.1102230246251565e-16)"><g><g><g><g><g><g><g><g style="stroke: #808080;stroke-width: 9.24;" transform="matrix(0.9238795325112867, -0.3826834323650898, 0.3826834323650898, 0.9238795325112867, 0.0, 0.0)"><path d="M 1.5 -7.347880794884119e-16 L 1.5 -7.347880794884119e-16 L 1.060660171779821 1.0606601717798216 L 8.266365894244634e-16 1.5 L -1.0606601717798196 1.0606601717798227 L -1.5 9.18485099360515e-16 L -1.060660171779821 -1.0606601717798214 L -3.674868868396942e-15 -1.5 L 1.0606601717798196 -1.060660171779823 L 1.5 -1.102182119232618e-15 Z" style="vector-effect: non-scaling-stroke;" /></g><g style="stroke: #ff0000;stroke-width: 1.848;" transform="matrix(1.0, 0.0, 0.0, 1.0, 0.0, 0.0)"><circle cx="0.0" cy="0.0" r="0.0554327719506772" style="vector-effect: non-scaling-stroke" /></g></g></g><g transform="matrix(1.0, 0.0, 0.0, 1.0, 2.88581929876693, 0.0)"><g style="stroke: black;stroke-width: 1.848;" transform="matrix(1.0, 0.0, 0.0, 1.0, 0.0, 0.0)"><g /></g></g></g><g transform="matrix(1.0, 0.0, 0.0, 1.0, 5.77163859753386, 0.0)"><g><g><g style="stroke: #808080;stroke-width: 9.24;" transform="matrix(0.9238795325112867, -0.3826834323650898, 0.3826834323650898, 0.9238795325112867, 0.0, 0.0)"><path d="M 1.5 -7.347880794884119e-16 L 1.5 -7.347880794884119e-16 L 1.060660171779821 1.0606601717798216 L 8.266365894244634e-16 1.5 L -1.0606601717798196 1.0606601717798227 L -1.5 9.18485099360515e-16 L -1.060660171779821 -1.0606601717798214 L -3.674868868396942e-15 -1.5 L 1.0606601717798196 -1.060660171779823 L 1.5 -1.102182119232618e-15 Z" style="vector-effect: non-scaling-stroke;" /></g><g style="stroke: #ff0000;stroke-width: 1.848;" transform="matrix(1.0, 0.0, 0.0, 1.0, 0.0, 0.0)"><circle cx="0.0" cy="0.0" r="0.0554327719506772" style="vector-effect: non-scaling-stroke" /></g></g></g></g></g><g transform="matrix(1.0, 0.0, 0.0, 1.0, 0.0, -1.1102230246251565e-16)"><g transform="matrix(1.0, -0.0, 0.0, 1.0, 0.0, 0.0)"><g><g style="stroke: #0000ff;stroke-width: 1.848;" transform="matrix(0.0, -1.0, 1.0, 0.0, 2.88581929876693, 8.077953025135656)"><path d="M 8.077953025135656 -2.885819298766934 A 8.577953025135656 8.577953025135656 0 0 1 8.077953025135656 2.8858192987669304" fill="none" style="vector-effect: non-scaling-stroke;" /></g><g transform="matrix(1.0, 0.0, 0.0, 1.0, 5.77163859753386, 0.0)"><g transform="matrix(0.9417110354259496, 0.33642283774587306, -0.33642283774587306, 0.9417110354259496, 0.0, 0.0)"><g style="fill: #808080;stroke: black;stroke-width: 1.848;" transform="matrix(1.0, 0.0, 0.0, 1.0, 0.0, 0.0)"><g transform="matrix(0.1848, 0.0, 0.0, 0.1848, 0.0, 0.0)"><g transform="matrix(1.0, 0.0, 0.0, 1.0, -1.2, -0.0)"><g style="fill: #808080;stroke: black;stroke-width: 0.0;" transform="matrix(0.0, 1.0, -1.0, 0.0, 0.0, 0.0)"><path d="M 0.0 -0.2 L 0.0 -0.2 L 1.0 0.2 L 0.0 -1.2 L -1.0 0.2 L 0.0 -0.2 Z" style="vector-effect: non-scaling-stroke;" /></g></g></g></g></g></g></g></g></g></g><g transform="matrix(1.0, 0.0, 0.0, 1.0, 1.38581929876693, 0.5740251485476346)"><g transform="matrix(1.0, 2.4492935982947064e-16, -2.4492935982947064e-16, 1.0, 0.0, 0.0)"><g><g style="stroke: black;stroke-width: 1.848;" transform="matrix(1.0, 0.0, 0.0, 1.0, 0.0, 0.0)"><path d="M 0.0 0.0 L 0.0 0.0 L 2.900000000000001 0.0" style="vector-effect: non-scaling-stroke;" /></g><g transform="matrix(1.0, 0.0, 0.0, 1.0, 2.900000000000001, 0.0)"><g transform="matrix(1.0, -0.0, 0.0, 1.0, 0.0, 0.0)"><g style="stroke: black;stroke-width: 1.848;" transform="matrix(1.0, 0.0, 0.0, 1.0, 0.0, 0.0)"><g transform="matrix(0.1848, 0.0, 0.0, 0.1848, 0.0, 0.0)"><g transform="matrix(1.0, 0.0, 0.0, 1.0, -1.2, -0.0)"><g style="fill: #000000;stroke: black;stroke-width: 0.0;" transform="matrix(0.0, 1.0, -1.0, 0.0, 0.0, 0.0)"><path d="M 0.0 -0.2 L 0.0 -0.2 L 1.0 0.2 L 0.0 -1.2 L -1.0 0.2 L 0.0 -0.2 Z" style="vector-effect: non-scaling-stroke;" /></g></g></g></g></g></g></g></g></g></g><g transform="matrix(0, 1.0, -1.0, 0, 0.0, 0.0)"><g><g style="stroke: black;stroke-width: 1.848;" transform="matrix(1.0, 0.0, 0.0, 1.0, 0.0, 0.0)"><path d="M 0.0 0.0 L 0.0 0.0 L 1.0 0.0" style="vector-effect: non-scaling-stroke;" /></g><g transform="matrix(1.0, 0.0, 0.0, 1.0, 1.0, 0.0)"><g transform="matrix(1.0, -0.0, 0.0, 1.0, 0.0, 0.0)"><g style="stroke: black;stroke-width: 1.848;" transform="matrix(1.0, 0.0, 0.0, 1.0, 0.0, 0.0)"><g transform="matrix(0.1848, 0.0, 0.0, 0.1848, 0.0, 0.0)"><g transform="matrix(1.0, 0.0, 0.0, 1.0, -1.2, -0.0)"><g style="fill: #000000;stroke: black;stroke-width: 0.0;" transform="matrix(0.0, 1.0, -1.0, 0.0, 0.0, 0.0)"><path d="M 0.0 -0.2 L 0.0 -0.2 L 1.0 0.2 L 0.0 -1.2 L -1.0 0.2 L 0.0 -0.2 Z" style="vector-effect: non-scaling-stroke;" /></g></g></g></g></g></g></g></g></g></g><g /></g></g></g></g></svg>