<?xml version="1.0" encoding="utf-8" ?>
<svg baseProfile="full" height="200" version="1.1" width="696" xmlns="http://www.w3.org/2000/svg" xmlns:ev="http://www.w3.org/2001/xml-events" xmlns:xlink="http://www.w3.org/1999/xlink"><defs><marker id="arrow" markerHeight="3.5" markerWidth="5" orient="auto" refX="5.0" refY="1.7"><polygon points="0,0 5,1.75 0,3.5" /></marker></defs><g style="fill:white;"><g transform="matrix(1.0, 0.0, 0.0, 1.0, 348.00360486713566, 100.0)"><g transform="matrix(99.00115217315752, 0.0, 0.0, 99.00115217315752, 0.0, 0.0)"><g><g transform="matrix(1.0, 0.0, 0.0, 1.0, -2.4238795325112865, -0.03811023374435624)"><g><g><g><g><g><g><g><g style="stroke: #808080;stroke-width: 5.22;" transform="matrix(0.9238795325112867, -0.3826834323650898, 0.3826834323650898, 0.9238795325112867, 0.0, 0.0)"><path d="M 1.0 -4.898587196589413e-16 L 1.0 -4.898587196589413e-16 L 0.7071067811865472 0.7071067811865478 L 5.51091059616309e-16 1.0 L -0.7071067811865465 0.7071067811865486 L -1.0 6.123233995736766e-16 L -0.7071067811865475 -0.7071067811865477 L -2.4499125789312946e-15 -1.0 L 0.7071067811865464 -0.7071067811865487 L 1.0 -7.347880794884119e-16 Z" style="vector-effect: non-scaling-stroke;" /></g><g style="stroke: #ff0000;stroke-width: 2.088;" transform="matrix(1.0, 0.0, 0.0, 1.0, 0.0, 0.0)"><circle cx="0.0" cy="0.0" r="0.036955181300451466" style="vector-effect: non-scaling-stroke" /></g></g></g><g transform="matrix(1.0, 0.0, 0.0, 1.0, 2.4238795325112865, 0.0)"><g style="stroke: black;stroke-width: 2.088;" transform="matrix(1.0, 0.0, 0.0, 1.0, 0.0, 0.0)"><g /></g></g></g><g transform="matrix(1.0, 0.0, 0.0, 1.0, 4.847759065022573, 0.0)"><g><g><g style="stroke: #808080;stroke-width: 5.22;" transform="matrix(0.9238795325112867, -0.3826834323650898, 0.3826834323650898, 0.9238795325112867, 0.0, 0.0)"><path d="M 1.0 -4.898587196589413e-16 L 1.0 -4.898587196589413e-16 L 0.7071067811865472 0.7071067811865478 L 5.51091059616309e-16 1.0 L -0.7071067811865465 0.7071067811865486 L -1.0 6.123233995736766e-16 L -0.7071067811865475 -0.7071067811865477 L -2.4499125789312946e-15 -1.0 L 0.7071067811865464 -0.7071067811865487 L 1.0 -7.347880794884119e-16 Z" style="vector-effect: non-scaling-stroke;" /></g><g style="stroke: #ff0000;stroke-width: 2.088;" transform="matrix(1.0, 0.0, 0.0, 1.0, 0.0, 0.0)"><circle cx="0.0" cy="0.0" r="0.036955181300451466" style="vector-effect: non-scaling-stroke" /></g></g></g></g></g><g transform="matrix(1.0, 0.0, 0.0, 1.0, -1.1102230246251565e-16, -1.6653345369377348e-16)"><g transform="matrix(1.0, -0.0, 0.0, 1.0, 0.0, 0.0)"><g><g transform="matrix(1.0, 0.0, 0.0, 1.0, 0.0, 0.0)"><g style="stroke: #0000ff;stroke-width: 2.088;" transform="matrix(0.0, -1.0, 1.0, 0.0, 2.4238795325112865, 5.625191988127132)"><path d="M 5.625191988127133 -2.4238795325112847 A 6.125191988127132 6.125191988127132 0 0 1 5.625191988127132 2.4238795325112865" fill="none" style="vector-effect: non-scaling-stroke;" /></g></g><g transform="matrix(1.0, 0.0, 0.0, 1.0, 4.847759065022573, 0.0)"><g transform="matrix(0.9183699056341119, 0.3957230299408822, -0.3957230299408822, 0.9183699056341119, 0.0, 0.0)"><g style="fill: #808080;stroke: black;stroke-width: 2.088;" transform="matrix(1.0, 0.0, 0.0, 1.0, 0.0, 0.0)"><g transform="matrix(0.20879999999999999, 0.0, 0.0, 0.20879999999999999, 0.0, 0.0)"><g transform="matrix(1.0, 0.0, 0.0, 1.0, -1.2, -0.0)"><g style="fill: #808080;stroke: black;stroke-width: 0.0;" transform="matrix(0.0, 1.0, -1.0, 0.0, 0.0, 0.0)"><path d="M 0.0 -0.2 L 0.0 -0.2 L 1.0 0.2 L 0.0 -1.2 L -1.0 0.2 L 0.0 -0.2 Z" style="vector-effect: non-scaling-stroke;" /></g></g></g></g></g></g></g></g></g></g><g transform="matrix(1.0, 0.0, 0.0, 1.0, 0.9238795325112866, 0.38268343236509034)"><g transform="matrix(1.0, -3.145631903104611e-16, 3.145631903104611e-16, 1.0, 0.0, 0.0)"><g><g transform="matrix(1.0, 0.0, 0.0, 1.0, 0.0, 0.0)"><g style="stroke: black;stroke-width: 2.088;" transform="matrix(1.0, 0.0, 0.0, 1.0, 0.0, 0.0)"><path d="M 0.0 0.0 L 0.0 0.0 L 2.9 0.0" style="vector-effect: non-scaling-stroke;" /></g></g><g transform="matrix(1.0, 0.0, 0.0, 1.0, 2.9, 0.0)"><g transform="matrix(1.0, -0.0, 0.0, 1.0, 0.0, 0.0)"><g style="stroke: black;stroke-width: 2.088;" transform="matrix(1.0, 0.0, 0.0, 1.0, 0.0, 0.0)"><g transform="matrix(0.20879999999999999, 0.0, 0.0, 0.20879999999999999, 0.0, 0.0)"><g transform="matrix(1.0, 0.0, 0.0, 1.0, -1.2, -0.0)"><g style="fill: #000000;stroke: black;stroke-width: 0.0;" transform="matrix(0.0, 1.0, -1.0, 0.0, 0.0, 0.0)"><path d="M 0.0 -0.2 L 0.0 -0.2 L 1.0 0.2 L 0.0 -1.2 L -1.0 0.2 L 0.0 -0.2 Z" style="vector-effect: non-scaling-stroke;" /></g></g></g></g></g></g></g></g></g></g><g transform="matrix(0, 1.0, -1.0, 0, 0.0, 0.0)"><g><g transform="matrix(1.0, 0.0, 0.0, 1.0, 0.0, 0.0)"><g style="stroke: black;stroke-width: 2.088;" transform="matrix(1.0, 0.0, 0.0, 1.0, 0.0, 0.0)"><path d="M 0.0 0.0 L 0.0 0.0 L 1.0 0.0" style="vector-effect: non-scaling-stroke;" /></g></g><g transform="matrix(1.0, 0.0, 0.0, 1.0, 1.0, 0.0)"><g transform="matrix(1.0, -0.0, 0.0, 1.0, 0.0, 0.0)"><g style="stroke: black;stroke-width: 2.088;" transform="matrix(1.0, 0.0, 0.0, 1.0, 0.0, 0.0)"><g transform="matrix(0.20879999999999999, 0.0, 0.0, 0.20879999999999999, 0.0, 0.0)"><g transform="matrix(1.0, 0.0, 0.0, 1.0, -1.2, -0.0)"><g style="fill: #000000;stroke: black;stroke-width: 0.0;" transform="matrix(0.0, 1.0, -1.0, 0.0, 0.0, 0.0)"><path d="M 0.0 -0.2 L 0.0 -0.2 L 1.0 0.2 L 0.0 -1.2 L -1.0 0.2 L 0.0 -0.2 Z" style="vector-effect: non-scaling-stroke;" /></g></g></g></g></g></g></g></g></g></g><g /></g></g></g></g></svg>