<?xml version="1.0" encoding="utf-8" ?>
<svg baseProfile="full" height="200" version="1.1" width="553" xmlns="http://www.w3.org/2000/svg" xmlns:ev="http://www.w3.org/2001/xml-events" xmlns:xlink="http://www.w3.org/1999/xlink"><defs><marker id="arrow" markerHeight="3.5" markerWidth="5" orient="auto" refX="5.0" refY="1.7"><polygon points="0,0 5,1.75 0,3.5" /></marker></defs><g style="fill:white;"><g transform="matrix(1.0, 0.0, 0.0, 1.0, 276.5366864730179, 99.99999999999999)"><g transform="matrix(48.59472157017013, 0.0, 0.0, 48.59472157017013, 0.0, 0.0)"><g><g transform="matrix(1.0, 0.0, 0.0, 1.0, -3.4598444473145644, 1.1102230246251565e-16)"><g><g><g><g style="stroke: #808080;stroke-width: 8.295;" transform="matrix(0.9238795325112867, -0.3826834323650898, 0.3826834323650898, 0.9238795325112867, 0.0, 0.0)"><path d="M -0.75 1.810660171779821 L 0.75 1.810660171779821 L 1.8106601717798214 0.7499999999999998 L 1.8106601717798214 -0.7500000000000002 L 0.7500000000000002 -1.8106601717798214 L -0.7499999999999998 -1.8106601717798214 L -1.8106601717798212 -0.7500000000000002 L -1.8106601717798212 0.75 L -0.7500000000000002 1.8106601717798214 Z" style="vector-effect: non-scaling-stroke;" /></g><g style="stroke: #ff0000;stroke-width: 1.659;" transform="matrix(0.1, 0.0, 0.0, 0.1, 0.1, 0.0)"><path d="M 0.0 0.0 A 1.0 1.0 0.0 0 0 -1.0 -1.0 A 1.0 1.0 -90.0 0 0 -2.0 0.0 A 1.0 1.0 180.0 0 0 -1.0 1.0 A 1.0 1.0 90.0 0 0 0.0 0.0 Z" style="vector-effect: non-scaling-stroke;" /></g></g></g><g style="stroke: black;stroke-width: 1.659;" transform="matrix(1.0, 0.0, 0.0, 1.0, 3.459844447314565, 0.0)"><g /></g><g transform="matrix(1.0, 0.0, 0.0, 1.0, 6.919688894629129, 0.0)"><g><g><g style="stroke: #808080;stroke-width: 8.295;" transform="matrix(0.9238795325112867, -0.3826834323650898, 0.3826834323650898, 0.9238795325112867, 0.0, 0.0)"><path d="M -0.75 1.810660171779821 L 0.75 1.810660171779821 L 1.8106601717798214 0.7499999999999998 L 1.8106601717798214 -0.7500000000000002 L 0.7500000000000002 -1.8106601717798214 L -0.7499999999999998 -1.8106601717798214 L -1.8106601717798212 -0.7500000000000002 L -1.8106601717798212 0.75 L -0.7500000000000002 1.8106601717798214 Z" style="vector-effect: non-scaling-stroke;" /></g><g style="stroke: #ff0000;stroke-width: 1.659;" transform="matrix(0.1, 0.0, 0.0, 0.1, 0.1, 0.0)"><path d="M 0.0 0.0 A 1.0 1.0 0.0 0 0 -1.0 -1.0 A 1.0 1.0 -90.0 0 0 -2.0 0.0 A 1.0 1.0 180.0 0 0 -1.0 1.0 A 1.0 1.0 90.0 0 0 0.0 0.0 Z" style="vector-effect: non-scaling-stroke;" /></g></g></g></g><g transform="matrix(1.0, 0.0, 0.0, 1.0, 0.0, 0.0)"><g transform="matrix(1.0, -0.0, 0.0, 1.0, 0.0, 0.0)"><g><g style="stroke: #0000ff;stroke-width: 1.659;" transform="matrix(1.0, 0.0, 0.0, 1.0, 0.0, 0.0)"><path d="M 0.0 0.0 A 12.220523599613418 12.220523599613418 -90.0 0 1 6.91968889462913 0.0" style="vector-effect: non-scaling-stroke;fill:none;" /></g><g style="fill: #808080;stroke: black;stroke-width: 1.659;" transform="matrix(0.9590852228282741, 0.28311752922141675, -0.28311752922141675, 0.9590852228282741, 6.919688894629129, 0.0)"><g style="fill: #808080;stroke: black;stroke-width: 0.0;" transform="matrix(0.0, 0.1659, -0.1659, 0.0, -0.19907999999999998, 0.0)"><path d="M 0.0 -0.2 L 1.0 0.2 L 0.0 -1.2 L -1.0 0.19999999999999996 L 0.0 -0.2 Z" style="vector-effect: non-scaling-stroke;" /></g></g></g></g></g><g transform="matrix(1.0, 0.0, 0.0, 1.0, 6.919688894629129, 0.0)"><g transform="matrix(-1.0, 0, 0, -1.0, 0.0, 0.0)"><g><g style="stroke: #0000ff;stroke-width: 1.659;" transform="matrix(1.0, 0.0, 0.0, 1.0, 0.0, 0.0)"><path d="M 0.0 0.0 A 12.220523599613418 12.220523599613418 -90.0 0 1 6.91968889462913 0.0" style="vector-effect: non-scaling-stroke;fill:none;" /></g><g style="fill: #808080;stroke: black;stroke-width: 1.659;" transform="matrix(0.9590852228282741, 0.28311752922141675, -0.28311752922141675, 0.9590852228282741, 6.919688894629129, 0.0)"><g style="fill: #808080;stroke: black;stroke-width: 0.0;" transform="matrix(0.0, 0.1659, -0.1659, 0.0, -0.19907999999999998, 0.0)"><path d="M 0.0 -0.2 L 1.0 0.2 L 0.0 -1.2 L -1.0 0.19999999999999996 L 0.0 -0.2 Z" style="vector-effect: non-scaling-stroke;" /></g></g></g></g></g><g transform="matrix(1.0, 0.0, 0.0, 1.0, 1.6728318730407468, 0.6929096493834661)"><g transform="matrix(1.0, -3.4170026128214176e-16, 3.4170026128214176e-16, 1.0, 0.0, 0.0)"><g><g style="stroke: black;stroke-width: 1.659;" transform="matrix(1.0, 0.0, 0.0, 1.0, 0.0, 0.0)"><path d="M 0.0 0.0 L 3.4740251485476343 0.0" style="vector-effect: non-scaling-stroke;fill:none;" /></g><g style="stroke: black;stroke-width: 1.659;" transform="matrix(1.0, 0.0, 0.0, 1.0, 3.4740251485476343, 0.0)"><g style="fill: #000000;stroke: black;stroke-width: 0.0;" transform="matrix(0.0, 0.1659, -0.1659, 0.0, -0.19907999999999998, 0.0)"><path d="M 0.0 -0.2 L 1.0 0.2 L 0.0 -1.2 L -1.0 0.19999999999999996 L 0.0 -0.2 Z" style="vector-effect: non-scaling-stroke;" /></g></g></g></g></g><g transform="matrix(0, 1.0, -1.0, 0, 0.0, 0.0)"><g><g style="stroke: black;stroke-width: 1.659;" transform="matrix(1.0, 0.0, 0.0, 1.0, 0.0, 0.0)"><path d="M 0.0 0.0 L 1.0 0.0" style="vector-effect: non-scaling-stroke;fill:none;" /></g><g style="stroke: black;stroke-width: 1.659;" transform="matrix(1.0, 0.0, 0.0, 1.0, 1.0, 0.0)"><g style="fill: #000000;stroke: black;stroke-width: 0.0;" transform="matrix(0.0, 0.1659, -0.1659, 0.0, -0.19907999999999998, 0.0)"><path d="M 0.0 -0.2 L 1.0 0.2 L 0.0 -1.2 L -1.0 0.19999999999999996 L 0.0 -0.2 Z" style="vector-effect: non-scaling-stroke;" /></g></g></g></g></g></g><g /></g></g></g></g></svg>