<?xml version="1.0" encoding="utf-8" ?>
<svg baseProfile="full" height="200" version="1.1" width="553" xmlns="http://www.w3.org/2000/svg" xmlns:ev="http://www.w3.org/2001/xml-events" xmlns:xlink="http://www.w3.org/1999/xlink"><defs><marker id="arrow" markerHeight="3.5" markerWidth="5" orient="auto" refX="5.0" refY="1.7"><polygon points="0,0 5,1.75 0,3.5" /></marker></defs><g style="fill:white;"><g transform="matrix(48.59472157013557, 0.0, 0.0, 48.59472157013557, 95.23809523810075, 95.23809523808968)"><g><g><g><g><g><g><g><g style="stroke: #808080;stroke-width: 8.295;" transform="matrix(0.9238795325112867, -0.3826834323650898, 0.3826834323650898, 0.9238795325112867, 0.0, 0.0)"><path d="M -0.7500000000000573 1.8106601717801145 L 0.7500000000000575 1.8106601717802278 L 1.8106601717800004 0.7500000000002274 L 1.8106601717800004 -0.7500000000000004 L 0.75 -1.8106601717800004 L -0.7500000000000575 -1.8106601717800006 L -1.8106601717800004 -0.7500000000002274 L -1.8106601717800006 0.749999999999887 L -0.7500000000002274 1.810660171779773 Z" style="vector-effect: non-scaling-stroke;" /></g></g><g style="stroke: black;stroke-width: 1.659;" transform="matrix(1.0, 0.0, 0.0, 1.0, 3.459844447315845, 0.0)"><g /></g></g><g transform="matrix(1.0, 0.0, 0.0, 1.0, 6.919688894631918, 0.0)"><g><g style="stroke: #808080;stroke-width: 8.295;" transform="matrix(0.9238795325112867, -0.3826834323650898, 0.3826834323650898, 0.9238795325112867, 0.0, 0.0)"><path d="M -0.7500000000000573 1.8106601717801145 L 0.7500000000000575 1.8106601717802278 L 1.8106601717800004 0.7500000000002274 L 1.8106601717800004 -0.7500000000000004 L 0.75 -1.8106601717800004 L -0.7500000000000575 -1.8106601717800006 L -1.8106601717800004 -0.7500000000002274 L -1.8106601717800006 0.749999999999887 L -0.7500000000002274 1.810660171779773 Z" style="vector-effect: non-scaling-stroke;" /></g></g></g></g><g transform="matrix(1.0, 0.0, 0.0, 1.0, 0.0, 0.0)"><g><g style="stroke: #0000ff;stroke-width: 1.659;" transform="matrix(1.0, 0.0, 0.0, 1.0, 0.0, 0.0)"><path d="M 0.0 0.0 A 12.19713033894517 12.19713033894517 -90.0 0 1 6.919688894631918 1.988211210797912e-15" style="vector-effect: non-scaling-stroke;fill:none;" /></g><g style="fill: #808080;stroke: black;stroke-width: 1.659;" transform="matrix(1.0, 0.0, 0.0, 1.0, 6.919688894631918, 0.0)"><g style="fill: #808080;stroke: black;stroke-width: 0.0;" transform="matrix(1.0158445198927294e-17, 0.1659, -0.1659, 1.0158445198927294e-17, -0.19908000000004525, 0.0)"><path d="M 0.0 -0.2 L 1.0 0.20000000000000007 L 0.0 -1.199999999999818 L -0.9999999999999998 0.19999999999954532 L 1.1368683772161603e-13 -0.2000000000007276 Z" style="vector-effect: non-scaling-stroke;" /></g></g></g></g></g><g transform="matrix(-1.0, 1.2246467991473532e-16, -1.2246467991473532e-16, -1.0, 6.919688894631918, 0.0)"><g><g style="stroke: #0000ff;stroke-width: 1.659;" transform="matrix(1.0, 0.0, 0.0, 1.0, 0.0, 0.0)"><path d="M 0.0 0.0 A 12.19713033894517 12.19713033894517 -90.0 0 1 6.919688894631918 1.988211210797912e-15" style="vector-effect: non-scaling-stroke;fill:none;" /></g><g style="fill: #808080;stroke: black;stroke-width: 1.659;" transform="matrix(1.0, 0.0, 0.0, 1.0, 6.919688894631918, 0.0)"><g style="fill: #808080;stroke: black;stroke-width: 0.0;" transform="matrix(1.0158445198927294e-17, 0.1659, -0.1659, 1.0158445198927294e-17, -0.19908000000004525, 0.0)"><path d="M 0.0 -0.2 L 1.0 0.20000000000000007 L 0.0 -1.199999999999818 L -0.9999999999999998 0.19999999999954532 L 1.1368683772161603e-13 -0.2000000000007276 Z" style="vector-effect: non-scaling-stroke;" /></g></g></g></g></g><g transform="matrix(0.9300263741018602, 0.3674927801671031, -0.3674927801671031, 0.9300263741018602, 1.9598444473159122, 0.0)"><g><g style="stroke: black;stroke-width: 1.659;" transform="matrix(1.0, 0.0, 0.0, 1.0, 0.0, 0.0)"><path d="M 0.0 0.0 L 5.233014832085804 1.6021487160010616e-16" style="vector-effect: non-scaling-stroke;fill:none;" /></g><g style="stroke: black;stroke-width: 1.659;" transform="matrix(1.0, 0.0, 0.0, 1.0, 5.233014832085593, 0.0)"><g style="fill: #000000;stroke: black;stroke-width: 0.0;" transform="matrix(1.0158445198927294e-17, 0.1659, -0.1659, 1.0158445198927294e-17, -0.19908000000004525, 0.0)"><path d="M 0.0 -0.2 L 1.0 0.20000000000000007 L 0.0 -1.199999999999818 L -0.9999999999999998 0.19999999999954532 L 1.1368683772161603e-13 -0.2000000000007276 Z" style="vector-effect: non-scaling-stroke;" /></g></g></g></g></g><g transform="matrix(6.123233995736766e-17, 1.0, -1.0, 6.123233995736766e-17, 0.0, 0.0)"><g><g style="stroke: black;stroke-width: 1.659;" transform="matrix(1.0, 0.0, 0.0, 1.0, 0.0, 0.0)"><path d="M 0.0 0.0 L 1.0000000000000075 -1.418023854522332e-14" style="vector-effect: non-scaling-stroke;fill:none;" /></g><g style="stroke: black;stroke-width: 1.659;" transform="matrix(1.0, 0.0, 0.0, 1.0, 1.0, 0.0)"><g style="fill: #000000;stroke: black;stroke-width: 0.0;" transform="matrix(1.0158445198927294e-17, 0.1659, -0.1659, 1.0158445198927294e-17, -0.19908000000004525, 0.0)"><path d="M 0.0 -0.2 L 1.0 0.20000000000000007 L 0.0 -1.199999999999818 L -0.9999999999999998 0.19999999999954532 L 1.1368683772161603e-13 -0.2000000000007276 Z" style="vector-effect: non-scaling-stroke;" /></g></g></g></g></g></g></g></svg>