<?xml version="1.0" encoding="utf-8" ?>
<svg baseProfile="full" height="200" version="1.1" width="629" xmlns="http://www.w3.org/2000/svg" xmlns:ev="http://www.w3.org/2001/xml-events" xmlns:xlink="http://www.w3.org/1999/xlink"><defs><marker id="arrow" markerHeight="3.5" markerWidth="5" orient="auto" refX="5.0" refY="1.7"><polygon points="0,0 5,1.75 0,3.5" /></marker></defs><g style="fill:white;"><g transform="matrix(1.0, 0.0, 0.0, 1.0, 314.805029709527, 100.00000000000001)"><g transform="matrix(72.8920823552552, 0.0, 0.0, 72.8920823552552, 0.0, 0.0)"><g><g transform="matrix(1.0, 0.0, 0.0, 1.0, -2.8065629648763766, 1.1102230246251565e-16)"><g><g><g><g><g><g><g><g style="stroke: #808080;stroke-width: 9.435;" transform="matrix(0.9238795325112867, -0.3826834323650898, 0.3826834323650898, 0.9238795325112867, 1.1102230246251565e-16, 1.3065629648763764)"><path d="M 0.0 0.0 L 1.0 0.0 L 1.7071067811865475 -0.7071067811865475 L 1.7071067811865475 -1.7071067811865475 L 1.0 -2.414213562373095 L 0.0 -2.414213562373095 L -0.7071067811865477 -1.7071067811865475 L -0.7071067811865477 -0.7071067811865475 L -3.3306690738754696e-16 2.220446049250313e-16 Z" style="vector-effect: non-scaling-stroke;" /></g><g style="stroke: #ff0000;stroke-width: 1.8870000000000002;" transform="matrix(0.05226251859505506, 0.0, 0.0, 0.05226251859505506, -0.05226251859505506, 0.0)"><path d="M 0.0 0.0 A 1.0 1.0 -90.0 0 1 2.0 0.0 A 1.0 1.0 90.0 0 1 0.0 0.0 Z" style="vector-effect: non-scaling-stroke;" /></g></g></g><g style="stroke: black;stroke-width: 1.8870000000000002;" transform="matrix(1.0, 0.0, 0.0, 1.0, 2.8065629648763766, 0.0)"><g /></g></g><g transform="matrix(1.0, 0.0, 0.0, 1.0, 5.613125929752753, 0.0)"><g><g><g style="stroke: #808080;stroke-width: 9.435;" transform="matrix(0.9238795325112867, -0.3826834323650898, 0.3826834323650898, 0.9238795325112867, 1.1102230246251565e-16, 1.3065629648763764)"><path d="M 0.0 0.0 L 1.0 0.0 L 1.7071067811865475 -0.7071067811865475 L 1.7071067811865475 -1.7071067811865475 L 1.0 -2.414213562373095 L 0.0 -2.414213562373095 L -0.7071067811865477 -1.7071067811865475 L -0.7071067811865477 -0.7071067811865475 L -3.3306690738754696e-16 2.220446049250313e-16 Z" style="vector-effect: non-scaling-stroke;" /></g><g style="stroke: #ff0000;stroke-width: 1.8870000000000002;" transform="matrix(0.05226251859505506, 0.0, 0.0, 0.05226251859505506, -0.05226251859505506, 0.0)"><path d="M 0.0 0.0 A 1.0 1.0 -90.0 0 1 2.0 0.0 A 1.0 1.0 90.0 0 1 0.0 0.0 Z" style="vector-effect: non-scaling-stroke;" /></g></g></g></g></g><g transform="matrix(1.0, 0.0, 0.0, 1.0, 0.0, -1.1102230246251565e-16)"><g transform="matrix(1.0, -0.0, 0.0, 1.0, 0.0, 0.0)"><g><g style="stroke: #0000ff;stroke-width: 1.8870000000000002;" transform="matrix(1.0, 0.0, 0.0, 1.0, 0.0, 0.0)"><path d="M 0.0 0.0 A 8.126795675815668 8.126795675815668 -90.0 0 1 5.613125929752754 0.0" style="vector-effect: non-scaling-stroke;fill:none;" /></g><g style="fill: #808080;stroke: black;stroke-width: 1.8870000000000002;" transform="matrix(0.7763174674283909, 0.6303421212052779, -0.6303421212052779, 0.7763174674283909, 5.613125929752753, 0.0)"><g style="fill: #808080;stroke: black;stroke-width: 0.0;" transform="matrix(0.0, 0.18869999999999998, -0.18869999999999998, 0.0, -0.22643999999999997, 0.0)"><path d="M 0.0 -0.2 L 1.0 0.2 L 0.0 -1.2 L -1.0 0.19999999999999996 L 0.0 -0.2 Z" style="vector-effect: non-scaling-stroke;" /></g></g></g></g></g></g><g transform="matrix(1.0, 0.0, 0.0, 1.0, 1.1152212486938313, 0.461939766255644)"><g transform="matrix(1.0, -2.297454470027782e-16, 2.297454470027782e-16, 1.0, 0.0, 0.0)"><g><g style="stroke: black;stroke-width: 1.8870000000000002;" transform="matrix(1.0, 0.0, 0.0, 1.0, 0.0, 0.0)"><path d="M 0.0 0.0 L 3.28268343236509 0.0" style="vector-effect: non-scaling-stroke;fill:none;" /></g><g style="stroke: black;stroke-width: 1.8870000000000002;" transform="matrix(1.0, 0.0, 0.0, 1.0, 3.28268343236509, 0.0)"><g style="fill: #000000;stroke: black;stroke-width: 0.0;" transform="matrix(0.0, 0.18869999999999998, -0.18869999999999998, 0.0, -0.22643999999999997, 0.0)"><path d="M 0.0 -0.2 L 1.0 0.2 L 0.0 -1.2 L -1.0 0.19999999999999996 L 0.0 -0.2 Z" style="vector-effect: non-scaling-stroke;" /></g></g></g></g></g></g><g transform="matrix(0, 1.0, -1.0, 0, 0.0, 0.0)"><g><g style="stroke: black;stroke-width: 1.8870000000000002;" transform="matrix(1.0, 0.0, 0.0, 1.0, 0.0, 0.0)"><path d="M 0.0 0.0 L 1.0 0.0" style="vector-effect: non-scaling-stroke;fill:none;" /></g><g style="stroke: black;stroke-width: 1.8870000000000002;" transform="matrix(1.0, 0.0, 0.0, 1.0, 1.0, 0.0)"><g style="fill: #000000;stroke: black;stroke-width: 0.0;" transform="matrix(0.0, 0.18869999999999998, -0.18869999999999998, 0.0, -0.22643999999999997, 0.0)"><path d="M 0.0 -0.2 L 1.0 0.2 L 0.0 -1.2 L -1.0 0.19999999999999996 L 0.0 -0.2 Z" style="vector-effect: non-scaling-stroke;" /></g></g></g></g></g></g><g /></g></g></g></g></svg>