<?xml version="1.0" encoding="utf-8" ?>
<svg baseProfile="full" height="700" version="1.1" width="215" xmlns="http://www.w3.org/2000/svg" xmlns:ev="http://www.w3.org/2001/xml-events" xmlns:xlink="http://www.w3.org/1999/xlink"><defs><marker id="arrow" markerHeight="3.5" markerWidth="5" orient="auto" refX="5.0" refY="1.7"><polygon points="0,0 5,1.75 0,3.5" /></marker></defs><g style="fill:white; stroke: black; stroke-width: 0.01;" transform="scale(11.0) translate(2.1 6.300000000000001)"><g><g><g><g><g><g><g><g><g /><g transform="translate(0 0.0)"><g><g><g><g /><g transform="translate(0 0)"><g><g transform="translate(0 -3.0)"><g style="fill: #000000;" transform="scale(1)"><rect height="6" width="0.8" x="-0.4" y="-3.0" /></g></g><g transform="translate(0 -2.5)"><g><g><g><g><g style="fill: #9fb4cc;stroke: #9fb4cc;stroke-width: 0.05;" transform="scale(1)"><rect height="1" width="2" x="-1.0" y="-0.5" /></g><g transform="translate(0 0.5)"><g /></g></g><g transform="translate(0 1.0)"><g style="fill: #cccc9f;stroke: #cccc9f;stroke-width: 0.05;" transform="scale(1)"><rect height="1" width="3" x="-1.5" y="-0.5" /></g></g></g><g transform="translate(0 1.5)"><g /></g></g><g transform="translate(0 2.0)"><g style="fill: #db4105;stroke: #db4105;stroke-width: 0.05;" transform="scale(1)"><rect height="1" width="4" x="-2.0" y="-0.5" /></g></g></g></g></g></g></g><g transform="translate(7 0)"><g><g transform="translate(0 -3.0)"><g style="fill: #000000;" transform="scale(1)"><rect height="6" width="0.8" x="-0.4" y="-3.0" /></g></g><g transform="translate(0 0)"><g /></g></g></g></g><g transform="translate(14 0)"><g><g transform="translate(0 -3.0)"><g style="fill: #000000;" transform="scale(1)"><rect height="6" width="0.8" x="-0.4" y="-3.0" /></g></g><g transform="translate(0 0)"><g /></g></g></g></g></g></g><g transform="translate(0 7.5)"><g><g><g><g /><g transform="translate(0 0)"><g><g transform="translate(0 -3.0)"><g style="fill: #000000;" transform="scale(1)"><rect height="6" width="0.8" x="-0.4" y="-3.0" /></g></g><g transform="translate(0 -1.5)"><g><g><g style="fill: #cccc9f;stroke: #cccc9f;stroke-width: 0.05;" transform="scale(1)"><rect height="1" width="3" x="-1.5" y="-0.5" /></g><g transform="translate(0 0.5)"><g /></g></g><g transform="translate(0 1.0)"><g style="fill: #db4105;stroke: #db4105;stroke-width: 0.05;" transform="scale(1)"><rect height="1" width="4" x="-2.0" y="-0.5" /></g></g></g></g></g></g></g><g transform="translate(7 0)"><g><g transform="translate(0 -3.0)"><g style="fill: #000000;" transform="scale(1)"><rect height="6" width="0.8" x="-0.4" y="-3.0" /></g></g><g transform="translate(0 0)"><g /></g></g></g></g><g transform="translate(14 0)"><g><g transform="translate(0 -3.0)"><g style="fill: #000000;" transform="scale(1)"><rect height="6" width="0.8" x="-0.4" y="-3.0" /></g></g><g transform="translate(0 -0.5)"><g style="fill: #9fb4cc;stroke: #9fb4cc;stroke-width: 0.05;" transform="scale(1)"><rect height="1" width="2" x="-1.0" y="-0.5" /></g></g></g></g></g></g></g><g transform="translate(0 15.0)"><g><g><g><g /><g transform="translate(0 0)"><g><g transform="translate(0 -3.0)"><g style="fill: #000000;" transform="scale(1)"><rect height="6" width="0.8" x="-0.4" y="-3.0" /></g></g><g transform="translate(0 -0.5)"><g style="fill: #db4105;stroke: #db4105;stroke-width: 0.05;" transform="scale(1)"><rect height="1" width="4" x="-2.0" y="-0.5" /></g></g></g></g></g><g transform="translate(7 0)"><g><g transform="translate(0 -3.0)"><g style="fill: #000000;" transform="scale(1)"><rect height="6" width="0.8" x="-0.4" y="-3.0" /></g></g><g transform="translate(0 -0.5)"><g style="fill: #cccc9f;stroke: #cccc9f;stroke-width: 0.05;" transform="scale(1)"><rect height="1" width="3" x="-1.5" y="-0.5" /></g></g></g></g></g><g transform="translate(14 0)"><g><g transform="translate(0 -3.0)"><g style="fill: #000000;" transform="scale(1)"><rect height="6" width="0.8" x="-0.4" y="-3.0" /></g></g><g transform="translate(0 -0.5)"><g style="fill: #9fb4cc;stroke: #9fb4cc;stroke-width: 0.05;" transform="scale(1)"><rect height="1" width="2" x="-1.0" y="-0.5" /></g></g></g></g></g></g></g><g transform="translate(0 22.5)"><g><g><g><g /><g transform="translate(0 0)"><g><g transform="translate(0 -3.0)"><g style="fill: #000000;" transform="scale(1)"><rect height="6" width="0.8" x="-0.4" y="-3.0" /></g></g><g transform="translate(0 -0.5)"><g style="fill: #db4105;stroke: #db4105;stroke-width: 0.05;" transform="scale(1)"><rect height="1" width="4" x="-2.0" y="-0.5" /></g></g></g></g></g><g transform="translate(7 0)"><g><g transform="translate(0 -3.0)"><g style="fill: #000000;" transform="scale(1)"><rect height="6" width="0.8" x="-0.4" y="-3.0" /></g></g><g transform="translate(0 -1.5)"><g><g><g style="fill: #9fb4cc;stroke: #9fb4cc;stroke-width: 0.05;" transform="scale(1)"><rect height="1" width="2" x="-1.0" y="-0.5" /></g><g transform="translate(0 0.5)"><g /></g></g><g transform="translate(0 1.0)"><g style="fill: #cccc9f;stroke: #cccc9f;stroke-width: 0.05;" transform="scale(1)"><rect height="1" width="3" x="-1.5" y="-0.5" /></g></g></g></g></g></g></g><g transform="translate(14 0)"><g><g transform="translate(0 -3.0)"><g style="fill: #000000;" transform="scale(1)"><rect height="6" width="0.8" x="-0.4" y="-3.0" /></g></g><g transform="translate(0 0)"><g /></g></g></g></g></g></g><g transform="translate(0 30.0)"><g><g><g><g /><g transform="translate(0 0)"><g><g transform="translate(0 -3.0)"><g style="fill: #000000;" transform="scale(1)"><rect height="6" width="0.8" x="-0.4" y="-3.0" /></g></g><g transform="translate(0 0)"><g /></g></g></g></g><g transform="translate(7 0)"><g><g transform="translate(0 -3.0)"><g style="fill: #000000;" transform="scale(1)"><rect height="6" width="0.8" x="-0.4" y="-3.0" /></g></g><g transform="translate(0 -1.5)"><g><g><g style="fill: #9fb4cc;stroke: #9fb4cc;stroke-width: 0.05;" transform="scale(1)"><rect height="1" width="2" x="-1.0" y="-0.5" /></g><g transform="translate(0 0.5)"><g /></g></g><g transform="translate(0 1.0)"><g style="fill: #cccc9f;stroke: #cccc9f;stroke-width: 0.05;" transform="scale(1)"><rect height="1" width="3" x="-1.5" y="-0.5" /></g></g></g></g></g></g></g><g transform="translate(14 0)"><g><g transform="translate(0 -3.0)"><g style="fill: #000000;" transform="scale(1)"><rect height="6" width="0.8" x="-0.4" y="-3.0" /></g></g><g transform="translate(0 -0.5)"><g style="fill: #db4105;stroke: #db4105;stroke-width: 0.05;" transform="scale(1)"><rect height="1" width="4" x="-2.0" y="-0.5" /></g></g></g></g></g></g></g><g transform="translate(0 37.5)"><g><g><g><g /><g transform="translate(0 0)"><g><g transform="translate(0 -3.0)"><g style="fill: #000000;" transform="scale(1)"><rect height="6" width="0.8" x="-0.4" y="-3.0" /></g></g><g transform="translate(0 -0.5)"><g style="fill: #9fb4cc;stroke: #9fb4cc;stroke-width: 0.05;" transform="scale(1)"><rect height="1" width="2" x="-1.0" y="-0.5" /></g></g></g></g></g><g transform="translate(7 0)"><g><g transform="translate(0 -3.0)"><g style="fill: #000000;" transform="scale(1)"><rect height="6" width="0.8" x="-0.4" y="-3.0" /></g></g><g transform="translate(0 -0.5)"><g style="fill: #cccc9f;stroke: #cccc9f;stroke-width: 0.05;" transform="scale(1)"><rect height="1" width="3" x="-1.5" y="-0.5" /></g></g></g></g></g><g transform="translate(14 0)"><g><g transform="translate(0 -3.0)"><g style="fill: #000000;" transform="scale(1)"><rect height="6" width="0.8" x="-0.4" y="-3.0" /></g></g><g transform="translate(0 -0.5)"><g style="fill: #db4105;stroke: #db4105;stroke-width: 0.05;" transform="scale(1)"><rect height="1" width="4" x="-2.0" y="-0.5" /></g></g></g></g></g></g></g><g transform="translate(0 45.0)"><g><g><g><g /><g transform="translate(0 0)"><g><g transform="translate(0 -3.0)"><g style="fill: #000000;" transform="scale(1)"><rect height="6" width="0.8" x="-0.4" y="-3.0" /></g></g><g transform="translate(0 -0.5)"><g style="fill: #9fb4cc;stroke: #9fb4cc;stroke-width: 0.05;" transform="scale(1)"><rect height="1" width="2" x="-1.0" y="-0.5" /></g></g></g></g></g><g transform="translate(7 0)"><g><g transform="translate(0 -3.0)"><g style="fill: #000000;" transform="scale(1)"><rect height="6" width="0.8" x="-0.4" y="-3.0" /></g></g><g transform="translate(0 0)"><g /></g></g></g></g><g transform="translate(14 0)"><g><g transform="translate(0 -3.0)"><g style="fill: #000000;" transform="scale(1)"><rect height="6" width="0.8" x="-0.4" y="-3.0" /></g></g><g transform="translate(0 -1.5)"><g><g><g style="fill: #cccc9f;stroke: #cccc9f;stroke-width: 0.05;" transform="scale(1)"><rect height="1" width="3" x="-1.5" y="-0.5" /></g><g transform="translate(0 0.5)"><g /></g></g><g transform="translate(0 1.0)"><g style="fill: #db4105;stroke: #db4105;stroke-width: 0.05;" transform="scale(1)"><rect height="1" width="4" x="-2.0" y="-0.5" /></g></g></g></g></g></g></g></g></g><g transform="translate(0 52.5)"><g><g><g><g /><g transform="translate(0 0)"><g><g transform="translate(0 -3.0)"><g style="fill: #000000;" transform="scale(1)"><rect height="6" width="0.8" x="-0.4" y="-3.0" /></g></g><g transform="translate(0 0)"><g /></g></g></g></g><g transform="translate(7 0)"><g><g transform="translate(0 -3.0)"><g style="fill: #000000;" transform="scale(1)"><rect height="6" width="0.8" x="-0.4" y="-3.0" /></g></g><g transform="translate(0 0)"><g /></g></g></g></g><g transform="translate(14 0)"><g><g transform="translate(0 -3.0)"><g style="fill: #000000;" transform="scale(1)"><rect height="6" width="0.8" x="-0.4" y="-3.0" /></g></g><g transform="translate(0 -2.5)"><g><g><g><g><g style="fill: #9fb4cc;stroke: #9fb4cc;stroke-width: 0.05;" transform="scale(1)"><rect height="1" width="2" x="-1.0" y="-0.5" /></g><g transform="translate(0 0.5)"><g /></g></g><g transform="translate(0 1.0)"><g style="fill: #cccc9f;stroke: #cccc9f;stroke-width: 0.05;" transform="scale(1)"><rect height="1" width="3" x="-1.5" y="-0.5" /></g></g></g><g transform="translate(0 1.5)"><g /></g></g><g transform="translate(0 2.0)"><g style="fill: #db4105;stroke: #db4105;stroke-width: 0.05;" transform="scale(1)"><rect height="1" width="4" x="-2.0" y="-0.5" /></g></g></g></g></g></g></g></g></g></g></svg>