<?xml version="1.0" encoding="utf-8" ?>
<svg baseProfile="full" height="700" version="1.1" width="215" xmlns="http://www.w3.org/2000/svg" xmlns:ev="http://www.w3.org/2001/xml-events" xmlns:xlink="http://www.w3.org/1999/xlink"><defs><marker id="arrow" markerHeight="3.5" markerWidth="5" orient="auto" refX="5.0" refY="1.7"><polygon points="0,0 5,1.75 0,3.5" /></marker></defs><g style="fill:white;" /><g style="fill: rgb(0.0 0.0 0.0);stroke: rgb(0.0 0.0 0.0); stroke-width: 0.1;fill-opacity: 1.0;" transform="matrix(11.370607772207467, 0.0, 0.0, 11.370607772207467, 23.35750248566464, 16.70114869581664)"><path d="M 0.0 0.0 L 0.8000000000000062 1.8369701987210297e-16 L 0.8000000000000114 6.000000000000046 L 0.0 5.999999999999999 L 0.0 -4.440892098500626e-16 Z" style="vector-effect: non-scaling-stroke;" /></g><g style="fill: rgb(159.62352941176468 180.70588235294116 204.80000000000004);stroke: rgb(159.62352941176468 180.70588235294116 204.80000000000004); stroke-width: 0.05;fill-opacity: 1.0;" transform="matrix(11.370607772207467, 0.0, 0.0, 11.370607772207467, 16.535137822339905, 50.824342620211326)"><path d="M 0.0 0.0 L 2.000000000000015 -1.418023854522332e-14 L 2.000000000000057 0.9999999999999934 L 2.8199664825478976e-14 1.0000000000000142 L 0.0 -1.1102230246251565e-16 Z" style="vector-effect: non-scaling-stroke;" /></g><g style="fill: rgb(204.80000000000004 204.80000000000004 159.62352941176468);stroke: rgb(204.80000000000004 204.80000000000004 159.62352941176468); stroke-width: 0.05;fill-opacity: 1.0;" transform="matrix(11.370607772207467, 0.0, 0.0, 11.370607772207467, 10.849833936236493, 62.21769160796282)"><path d="M 0.0 0.0 L 3.000000000000023 -1.418023854522332e-14 L 3.0 0.9999999999999934 L 2.220446049250313e-16 1.0000000000000142 L 0.0 -1.1102230246251565e-16 Z" style="vector-effect: non-scaling-stroke;" /></g><g style="fill: rgb(219.85882352941175 65.25490196078434 5.0196078431372655);stroke: rgb(219.85882352941175 65.25490196078434 5.0196078431372655); stroke-width: 0.05;fill-opacity: 1.0;" transform="matrix(11.370607772207467, 0.0, 0.0, 11.370607772207467, 5.1645300501321145, 73.61104059571431)"><path d="M 0.0 0.0 L 4.00000000000003 -1.418023854522332e-14 L 4.000000000000114 0.9999999999999934 L 5.639932965095795e-14 1.0000000000000142 L 0.0 -1.1102230246251565e-16 Z" style="vector-effect: non-scaling-stroke;" /></g><g style="fill: rgb(0.0 0.0 0.0);stroke: rgb(0.0 0.0 0.0); stroke-width: 0.1;fill-opacity: 1.0;" transform="matrix(11.370607772207467, 0.0, 0.0, 11.370607772207467, 102.95175689111691, 16.70114869581664)"><path d="M 0.0 0.0 L 0.8000000000000062 1.8369701987210297e-16 L 0.8000000000000114 6.000000000000046 L 0.0 5.999999999999999 L 0.0 -4.440892098500626e-16 Z" style="vector-effect: non-scaling-stroke;" /></g><g style="fill: rgb(0.0 0.0 0.0);stroke: rgb(0.0 0.0 0.0); stroke-width: 0.1;fill-opacity: 1.0;" transform="matrix(11.370607772207467, 0.0, 0.0, 11.370607772207467, 182.5460112965692, 16.70114869581664)"><path d="M 0.0 0.0 L 0.8000000000000062 1.8369701987210297e-16 L 0.8000000000000114 6.000000000000046 L 0.0 5.999999999999999 L 0.0 -4.440892098500626e-16 Z" style="vector-effect: non-scaling-stroke;" /></g><g style="fill: rgb(0.0 0.0 0.0);stroke: rgb(0.0 0.0 0.0); stroke-width: 0.1;fill-opacity: 1.0;" transform="matrix(11.370607772207467, 0.0, 0.0, 11.370607772207467, 23.35750248566464, 101.98070698737266)"><path d="M 0.0 0.0 L 0.8000000000000062 1.8369701987210297e-16 L 0.8000000000000114 6.000000000000046 L 0.0 5.999999999999999 L 0.0 -4.440892098500626e-16 Z" style="vector-effect: non-scaling-stroke;" /></g><g style="fill: rgb(204.80000000000004 204.80000000000004 159.62352941176468);stroke: rgb(204.80000000000004 204.80000000000004 159.62352941176468); stroke-width: 0.05;fill-opacity: 1.0;" transform="matrix(11.370607772207467, 0.0, 0.0, 11.370607772207467, 10.849833936236493, 147.4972498995188)"><path d="M 0.0 0.0 L 3.000000000000023 -1.418023854522332e-14 L 3.0 0.9999999999999934 L 2.220446049250313e-16 1.0000000000000142 L 0.0 -1.1102230246251565e-16 Z" style="vector-effect: non-scaling-stroke;" /></g><g style="fill: rgb(219.85882352941175 65.25490196078434 5.0196078431372655);stroke: rgb(219.85882352941175 65.25490196078434 5.0196078431372655); stroke-width: 0.05;fill-opacity: 1.0;" transform="matrix(11.370607772207467, 0.0, 0.0, 11.370607772207467, 5.1645300501321145, 158.89059888727033)"><path d="M 0.0 0.0 L 4.00000000000003 -1.418023854522332e-14 L 4.000000000000114 0.9999999999999934 L 5.639932965095795e-14 1.0000000000000142 L 0.0 -1.1102230246251565e-16 Z" style="vector-effect: non-scaling-stroke;" /></g><g style="fill: rgb(0.0 0.0 0.0);stroke: rgb(0.0 0.0 0.0); stroke-width: 0.1;fill-opacity: 1.0;" transform="matrix(11.370607772207467, 0.0, 0.0, 11.370607772207467, 102.95175689111691, 101.98070698737266)"><path d="M 0.0 0.0 L 0.8000000000000062 1.8369701987210297e-16 L 0.8000000000000114 6.000000000000046 L 0.0 5.999999999999999 L 0.0 -4.440892098500626e-16 Z" style="vector-effect: non-scaling-stroke;" /></g><g style="fill: rgb(0.0 0.0 0.0);stroke: rgb(0.0 0.0 0.0); stroke-width: 0.1;fill-opacity: 1.0;" transform="matrix(11.370607772207467, 0.0, 0.0, 11.370607772207467, 182.5460112965692, 101.98070698737266)"><path d="M 0.0 0.0 L 0.8000000000000062 1.8369701987210297e-16 L 0.8000000000000114 6.000000000000046 L 0.0 5.999999999999999 L 0.0 -4.440892098500626e-16 Z" style="vector-effect: non-scaling-stroke;" /></g><g style="fill: rgb(159.62352941176468 180.70588235294116 204.80000000000004);stroke: rgb(159.62352941176468 180.70588235294116 204.80000000000004); stroke-width: 0.05;fill-opacity: 1.0;" transform="matrix(11.370607772207467, 0.0, 0.0, 11.370607772207467, 175.72364663324447, 158.89059888727033)"><path d="M 0.0 0.0 L 2.000000000000015 -1.418023854522332e-14 L 2.000000000000057 0.9999999999999934 L 2.8199664825478976e-14 1.0000000000000142 L 0.0 -1.1102230246251565e-16 Z" style="vector-effect: non-scaling-stroke;" /></g><g style="fill: rgb(0.0 0.0 0.0);stroke: rgb(0.0 0.0 0.0); stroke-width: 0.1;fill-opacity: 1.0;" transform="matrix(11.370607772207467, 0.0, 0.0, 11.370607772207467, 23.35750248566464, 187.26026527892867)"><path d="M 0.0 0.0 L 0.8000000000000062 1.8369701987210297e-16 L 0.8000000000000114 6.000000000000046 L 0.0 5.999999999999999 L 0.0 -4.440892098500626e-16 Z" style="vector-effect: non-scaling-stroke;" /></g><g style="fill: rgb(219.85882352941175 65.25490196078434 5.0196078431372655);stroke: rgb(219.85882352941175 65.25490196078434 5.0196078431372655); stroke-width: 0.05;fill-opacity: 1.0;" transform="matrix(11.370607772207467, 0.0, 0.0, 11.370607772207467, 5.1645300501321145, 244.17015717882632)"><path d="M 0.0 0.0 L 4.00000000000003 -1.418023854522332e-14 L 4.000000000000114 0.9999999999999934 L 5.639932965095795e-14 1.0000000000000142 L 0.0 -1.1102230246251565e-16 Z" style="vector-effect: non-scaling-stroke;" /></g><g style="fill: rgb(0.0 0.0 0.0);stroke: rgb(0.0 0.0 0.0); stroke-width: 0.1;fill-opacity: 1.0;" transform="matrix(11.370607772207467, 0.0, 0.0, 11.370607772207467, 102.95175689111691, 187.26026527892867)"><path d="M 0.0 0.0 L 0.8000000000000062 1.8369701987210297e-16 L 0.8000000000000114 6.000000000000046 L 0.0 5.999999999999999 L 0.0 -4.440892098500626e-16 Z" style="vector-effect: non-scaling-stroke;" /></g><g style="fill: rgb(204.80000000000004 204.80000000000004 159.62352941176468);stroke: rgb(204.80000000000004 204.80000000000004 159.62352941176468); stroke-width: 0.05;fill-opacity: 1.0;" transform="matrix(11.370607772207467, 0.0, 0.0, 11.370607772207467, 90.44408834168877, 244.17015717882487)"><path d="M 0.0 0.0 L 3.000000000000023 -1.418023854522332e-14 L 3.0 0.9999999999999934 L 2.220446049250313e-16 1.0000000000000142 L 0.0 -1.1102230246251565e-16 Z" style="vector-effect: non-scaling-stroke;" /></g><g style="fill: rgb(0.0 0.0 0.0);stroke: rgb(0.0 0.0 0.0); stroke-width: 0.1;fill-opacity: 1.0;" transform="matrix(11.370607772207467, 0.0, 0.0, 11.370607772207467, 182.5460112965692, 187.26026527892867)"><path d="M 0.0 0.0 L 0.8000000000000062 1.8369701987210297e-16 L 0.8000000000000114 6.000000000000046 L 0.0 5.999999999999999 L 0.0 -4.440892098500626e-16 Z" style="vector-effect: non-scaling-stroke;" /></g><g style="fill: rgb(159.62352941176468 180.70588235294116 204.80000000000004);stroke: rgb(159.62352941176468 180.70588235294116 204.80000000000004); stroke-width: 0.05;fill-opacity: 1.0;" transform="matrix(11.370607772207467, 0.0, 0.0, 11.370607772207467, 175.72364663324447, 244.17015717882632)"><path d="M 0.0 0.0 L 2.000000000000015 -1.418023854522332e-14 L 2.000000000000057 0.9999999999999934 L 2.8199664825478976e-14 1.0000000000000142 L 0.0 -1.1102230246251565e-16 Z" style="vector-effect: non-scaling-stroke;" /></g><g style="fill: rgb(0.0 0.0 0.0);stroke: rgb(0.0 0.0 0.0); stroke-width: 0.1;fill-opacity: 1.0;" transform="matrix(11.370607772207467, 0.0, 0.0, 11.370607772207467, 23.35750248566464, 272.53982357048466)"><path d="M 0.0 0.0 L 0.8000000000000062 1.8369701987210297e-16 L 0.8000000000000114 6.000000000000046 L 0.0 5.999999999999999 L 0.0 -4.440892098500626e-16 Z" style="vector-effect: non-scaling-stroke;" /></g><g style="fill: rgb(219.85882352941175 65.25490196078434 5.0196078431372655);stroke: rgb(219.85882352941175 65.25490196078434 5.0196078431372655); stroke-width: 0.05;fill-opacity: 1.0;" transform="matrix(11.370607772207467, 0.0, 0.0, 11.370607772207467, 5.1645300501321145, 329.44971547038233)"><path d="M 0.0 0.0 L 4.00000000000003 -1.418023854522332e-14 L 4.000000000000114 0.9999999999999934 L 5.639932965095795e-14 1.0000000000000142 L 0.0 -1.1102230246251565e-16 Z" style="vector-effect: non-scaling-stroke;" /></g><g style="fill: rgb(0.0 0.0 0.0);stroke: rgb(0.0 0.0 0.0); stroke-width: 0.1;fill-opacity: 1.0;" transform="matrix(11.370607772207467, 0.0, 0.0, 11.370607772207467, 102.95175689111691, 272.53982357048466)"><path d="M 0.0 0.0 L 0.8000000000000062 1.8369701987210297e-16 L 0.8000000000000114 6.000000000000046 L 0.0 5.999999999999999 L 0.0 -4.440892098500626e-16 Z" style="vector-effect: non-scaling-stroke;" /></g><g style="fill: rgb(159.62352941176468 180.70588235294116 204.80000000000004);stroke: rgb(159.62352941176468 180.70588235294116 204.80000000000004); stroke-width: 0.05;fill-opacity: 1.0;" transform="matrix(11.370607772207467, 0.0, 0.0, 11.370607772207467, 96.12939222779218, 318.0563664826294)"><path d="M 0.0 0.0 L 2.000000000000015 -1.418023854522332e-14 L 2.000000000000057 0.9999999999999934 L 2.8199664825478976e-14 1.0000000000000142 L 0.0 -1.1102230246251565e-16 Z" style="vector-effect: non-scaling-stroke;" /></g><g style="fill: rgb(204.80000000000004 204.80000000000004 159.62352941176468);stroke: rgb(204.80000000000004 204.80000000000004 159.62352941176468); stroke-width: 0.05;fill-opacity: 1.0;" transform="matrix(11.370607772207467, 0.0, 0.0, 11.370607772207467, 90.44408834168877, 329.44971547038085)"><path d="M 0.0 0.0 L 3.000000000000023 -1.418023854522332e-14 L 3.0 0.9999999999999934 L 2.220446049250313e-16 1.0000000000000142 L 0.0 -1.1102230246251565e-16 Z" style="vector-effect: non-scaling-stroke;" /></g><g style="fill: rgb(0.0 0.0 0.0);stroke: rgb(0.0 0.0 0.0); stroke-width: 0.1;fill-opacity: 1.0;" transform="matrix(11.370607772207467, 0.0, 0.0, 11.370607772207467, 182.5460112965692, 272.53982357048466)"><path d="M 0.0 0.0 L 0.8000000000000062 1.8369701987210297e-16 L 0.8000000000000114 6.000000000000046 L 0.0 5.999999999999999 L 0.0 -4.440892098500626e-16 Z" style="vector-effect: non-scaling-stroke;" /></g><g style="fill: rgb(0.0 0.0 0.0);stroke: rgb(0.0 0.0 0.0); stroke-width: 0.1;fill-opacity: 1.0;" transform="matrix(11.370607772207467, 0.0, 0.0, 11.370607772207467, 23.35750248566464, 357.81938186204064)"><path d="M 0.0 0.0 L 0.8000000000000062 1.8369701987210297e-16 L 0.8000000000000114 6.000000000000046 L 0.0 5.999999999999999 L 0.0 -4.440892098500626e-16 Z" style="vector-effect: non-scaling-stroke;" /></g><g style="fill: rgb(0.0 0.0 0.0);stroke: rgb(0.0 0.0 0.0); stroke-width: 0.1;fill-opacity: 1.0;" transform="matrix(11.370607772207467, 0.0, 0.0, 11.370607772207467, 102.95175689111691, 357.81938186204064)"><path d="M 0.0 0.0 L 0.8000000000000062 1.8369701987210297e-16 L 0.8000000000000114 6.000000000000046 L 0.0 5.999999999999999 L 0.0 -4.440892098500626e-16 Z" style="vector-effect: non-scaling-stroke;" /></g><g style="fill: rgb(159.62352941176468 180.70588235294116 204.80000000000004);stroke: rgb(159.62352941176468 180.70588235294116 204.80000000000004); stroke-width: 0.05;fill-opacity: 1.0;" transform="matrix(11.370607772207467, 0.0, 0.0, 11.370607772207467, 96.12939222779218, 403.3359247741854)"><path d="M 0.0 0.0 L 2.000000000000015 -1.418023854522332e-14 L 2.000000000000057 0.9999999999999934 L 2.8199664825478976e-14 1.0000000000000142 L 0.0 -1.1102230246251565e-16 Z" style="vector-effect: non-scaling-stroke;" /></g><g style="fill: rgb(204.80000000000004 204.80000000000004 159.62352941176468);stroke: rgb(204.80000000000004 204.80000000000004 159.62352941176468); stroke-width: 0.05;fill-opacity: 1.0;" transform="matrix(11.370607772207467, 0.0, 0.0, 11.370607772207467, 90.44408834168877, 414.7292737619369)"><path d="M 0.0 0.0 L 3.000000000000023 -1.418023854522332e-14 L 3.0 0.9999999999999934 L 2.220446049250313e-16 1.0000000000000142 L 0.0 -1.1102230246251565e-16 Z" style="vector-effect: non-scaling-stroke;" /></g><g style="fill: rgb(0.0 0.0 0.0);stroke: rgb(0.0 0.0 0.0); stroke-width: 0.1;fill-opacity: 1.0;" transform="matrix(11.370607772207467, 0.0, 0.0, 11.370607772207467, 182.5460112965692, 357.81938186204064)"><path d="M 0.0 0.0 L 0.8000000000000062 1.8369701987210297e-16 L 0.8000000000000114 6.000000000000046 L 0.0 5.999999999999999 L 0.0 -4.440892098500626e-16 Z" style="vector-effect: non-scaling-stroke;" /></g><g style="fill: rgb(219.85882352941175 65.25490196078434 5.0196078431372655);stroke: rgb(219.85882352941175 65.25490196078434 5.0196078431372655); stroke-width: 0.05;fill-opacity: 1.0;" transform="matrix(11.370607772207467, 0.0, 0.0, 11.370607772207467, 164.35303886103668, 414.7292737619383)"><path d="M 0.0 0.0 L 4.00000000000003 -1.418023854522332e-14 L 4.000000000000114 0.9999999999999934 L 5.639932965095795e-14 1.0000000000000142 L 0.0 -1.1102230246251565e-16 Z" style="vector-effect: non-scaling-stroke;" /></g><g style="fill: rgb(0.0 0.0 0.0);stroke: rgb(0.0 0.0 0.0); stroke-width: 0.1;fill-opacity: 1.0;" transform="matrix(11.370607772207467, 0.0, 0.0, 11.370607772207467, 23.35750248566464, 443.0989401535967)"><path d="M 0.0 0.0 L 0.8000000000000062 1.8369701987210297e-16 L 0.8000000000000114 6.000000000000046 L 0.0 5.999999999999999 L 0.0 -4.440892098500626e-16 Z" style="vector-effect: non-scaling-stroke;" /></g><g style="fill: rgb(159.62352941176468 180.70588235294116 204.80000000000004);stroke: rgb(159.62352941176468 180.70588235294116 204.80000000000004); stroke-width: 0.05;fill-opacity: 1.0;" transform="matrix(11.370607772207467, 0.0, 0.0, 11.370607772207467, 16.535137822339905, 500.00883205349436)"><path d="M 0.0 0.0 L 2.000000000000015 -1.418023854522332e-14 L 2.000000000000057 0.9999999999999934 L 2.8199664825478976e-14 1.0000000000000142 L 0.0 -1.1102230246251565e-16 Z" style="vector-effect: non-scaling-stroke;" /></g><g style="fill: rgb(0.0 0.0 0.0);stroke: rgb(0.0 0.0 0.0); stroke-width: 0.1;fill-opacity: 1.0;" transform="matrix(11.370607772207467, 0.0, 0.0, 11.370607772207467, 102.95175689111691, 443.0989401535967)"><path d="M 0.0 0.0 L 0.8000000000000062 1.8369701987210297e-16 L 0.8000000000000114 6.000000000000046 L 0.0 5.999999999999999 L 0.0 -4.440892098500626e-16 Z" style="vector-effect: non-scaling-stroke;" /></g><g style="fill: rgb(204.80000000000004 204.80000000000004 159.62352941176468);stroke: rgb(204.80000000000004 204.80000000000004 159.62352941176468); stroke-width: 0.05;fill-opacity: 1.0;" transform="matrix(11.370607772207467, 0.0, 0.0, 11.370607772207467, 90.44408834168877, 500.0088320534929)"><path d="M 0.0 0.0 L 3.000000000000023 -1.418023854522332e-14 L 3.0 0.9999999999999934 L 2.220446049250313e-16 1.0000000000000142 L 0.0 -1.1102230246251565e-16 Z" style="vector-effect: non-scaling-stroke;" /></g><g style="fill: rgb(0.0 0.0 0.0);stroke: rgb(0.0 0.0 0.0); stroke-width: 0.1;fill-opacity: 1.0;" transform="matrix(11.370607772207467, 0.0, 0.0, 11.370607772207467, 182.5460112965692, 443.0989401535967)"><path d="M 0.0 0.0 L 0.8000000000000062 1.8369701987210297e-16 L 0.8000000000000114 6.000000000000046 L 0.0 5.999999999999999 L 0.0 -4.440892098500626e-16 Z" style="vector-effect: non-scaling-stroke;" /></g><g style="fill: rgb(219.85882352941175 65.25490196078434 5.0196078431372655);stroke: rgb(219.85882352941175 65.25490196078434 5.0196078431372655); stroke-width: 0.05;fill-opacity: 1.0;" transform="matrix(11.370607772207467, 0.0, 0.0, 11.370607772207467, 164.35303886103668, 500.00883205349436)"><path d="M 0.0 0.0 L 4.00000000000003 -1.418023854522332e-14 L 4.000000000000114 0.9999999999999934 L 5.639932965095795e-14 1.0000000000000142 L 0.0 -1.1102230246251565e-16 Z" style="vector-effect: non-scaling-stroke;" /></g><g style="fill: rgb(0.0 0.0 0.0);stroke: rgb(0.0 0.0 0.0); stroke-width: 0.1;fill-opacity: 1.0;" transform="matrix(11.370607772207467, 0.0, 0.0, 11.370607772207467, 23.35750248566464, 528.3784984451527)"><path d="M 0.0 0.0 L 0.8000000000000062 1.8369701987210297e-16 L 0.8000000000000114 6.000000000000046 L 0.0 5.999999999999999 L 0.0 -4.440892098500626e-16 Z" style="vector-effect: non-scaling-stroke;" /></g><g style="fill: rgb(159.62352941176468 180.70588235294116 204.80000000000004);stroke: rgb(159.62352941176468 180.70588235294116 204.80000000000004); stroke-width: 0.05;fill-opacity: 1.0;" transform="matrix(11.370607772207467, 0.0, 0.0, 11.370607772207467, 16.535137822339905, 585.2883903450504)"><path d="M 0.0 0.0 L 2.000000000000015 -1.418023854522332e-14 L 2.000000000000057 0.9999999999999934 L 2.8199664825478976e-14 1.0000000000000142 L 0.0 -1.1102230246251565e-16 Z" style="vector-effect: non-scaling-stroke;" /></g><g style="fill: rgb(0.0 0.0 0.0);stroke: rgb(0.0 0.0 0.0); stroke-width: 0.1;fill-opacity: 1.0;" transform="matrix(11.370607772207467, 0.0, 0.0, 11.370607772207467, 102.95175689111691, 528.3784984451527)"><path d="M 0.0 0.0 L 0.8000000000000062 1.8369701987210297e-16 L 0.8000000000000114 6.000000000000046 L 0.0 5.999999999999999 L 0.0 -4.440892098500626e-16 Z" style="vector-effect: non-scaling-stroke;" /></g><g style="fill: rgb(0.0 0.0 0.0);stroke: rgb(0.0 0.0 0.0); stroke-width: 0.1;fill-opacity: 1.0;" transform="matrix(11.370607772207467, 0.0, 0.0, 11.370607772207467, 182.5460112965692, 528.3784984451527)"><path d="M 0.0 0.0 L 0.8000000000000062 1.8369701987210297e-16 L 0.8000000000000114 6.000000000000046 L 0.0 5.999999999999999 L 0.0 -4.440892098500626e-16 Z" style="vector-effect: non-scaling-stroke;" /></g><g style="fill: rgb(204.80000000000004 204.80000000000004 159.62352941176468);stroke: rgb(204.80000000000004 204.80000000000004 159.62352941176468); stroke-width: 0.05;fill-opacity: 1.0;" transform="matrix(11.370607772207467, 0.0, 0.0, 11.370607772207467, 170.03834274714103, 573.8950413572989)"><path d="M 0.0 0.0 L 3.000000000000023 -1.418023854522332e-14 L 3.0 0.9999999999999934 L 2.220446049250313e-16 1.0000000000000142 L 0.0 -1.1102230246251565e-16 Z" style="vector-effect: non-scaling-stroke;" /></g><g style="fill: rgb(219.85882352941175 65.25490196078434 5.0196078431372655);stroke: rgb(219.85882352941175 65.25490196078434 5.0196078431372655); stroke-width: 0.05;fill-opacity: 1.0;" transform="matrix(11.370607772207467, 0.0, 0.0, 11.370607772207467, 164.35303886103668, 585.2883903450504)"><path d="M 0.0 0.0 L 4.00000000000003 -1.418023854522332e-14 L 4.000000000000114 0.9999999999999934 L 5.639932965095795e-14 1.0000000000000142 L 0.0 -1.1102230246251565e-16 Z" style="vector-effect: non-scaling-stroke;" /></g><g style="fill: rgb(0.0 0.0 0.0);stroke: rgb(0.0 0.0 0.0); stroke-width: 0.1;fill-opacity: 1.0;" transform="matrix(11.370607772207467, 0.0, 0.0, 11.370607772207467, 23.35750248566464, 613.6580567367087)"><path d="M 0.0 0.0 L 0.8000000000000062 1.8369701987210297e-16 L 0.8000000000000114 6.000000000000046 L 0.0 5.999999999999999 L 0.0 -4.440892098500626e-16 Z" style="vector-effect: non-scaling-stroke;" /></g><g style="fill: rgb(0.0 0.0 0.0);stroke: rgb(0.0 0.0 0.0); stroke-width: 0.1;fill-opacity: 1.0;" transform="matrix(11.370607772207467, 0.0, 0.0, 11.370607772207467, 102.95175689111691, 613.6580567367087)"><path d="M 0.0 0.0 L 0.8000000000000062 1.8369701987210297e-16 L 0.8000000000000114 6.000000000000046 L 0.0 5.999999999999999 L 0.0 -4.440892098500626e-16 Z" style="vector-effect: non-scaling-stroke;" /></g><g style="fill: rgb(0.0 0.0 0.0);stroke: rgb(0.0 0.0 0.0); stroke-width: 0.1;fill-opacity: 1.0;" transform="matrix(11.370607772207467, 0.0, 0.0, 11.370607772207467, 182.5460112965692, 613.6580567367087)"><path d="M 0.0 0.0 L 0.8000000000000062 1.8369701987210297e-16 L 0.8000000000000114 6.000000000000046 L 0.0 5.999999999999999 L 0.0 -4.440892098500626e-16 Z" style="vector-effect: non-scaling-stroke;" /></g><g style="fill: rgb(159.62352941176468 180.70588235294116 204.80000000000004);stroke: rgb(159.62352941176468 180.70588235294116 204.80000000000004); stroke-width: 0.05;fill-opacity: 1.0;" transform="matrix(11.370607772207467, 0.0, 0.0, 11.370607772207467, 175.72364663324447, 647.7812506611034)"><path d="M 0.0 0.0 L 2.000000000000015 -1.418023854522332e-14 L 2.000000000000057 0.9999999999999934 L 2.8199664825478976e-14 1.0000000000000142 L 0.0 -1.1102230246251565e-16 Z" style="vector-effect: non-scaling-stroke;" /></g><g style="fill: rgb(204.80000000000004 204.80000000000004 159.62352941176468);stroke: rgb(204.80000000000004 204.80000000000004 159.62352941176468); stroke-width: 0.05;fill-opacity: 1.0;" transform="matrix(11.370607772207467, 0.0, 0.0, 11.370607772207467, 170.03834274714103, 659.1745996488548)"><path d="M 0.0 0.0 L 3.000000000000023 -1.418023854522332e-14 L 3.0 0.9999999999999934 L 2.220446049250313e-16 1.0000000000000142 L 0.0 -1.1102230246251565e-16 Z" style="vector-effect: non-scaling-stroke;" /></g><g style="fill: rgb(219.85882352941175 65.25490196078434 5.0196078431372655);stroke: rgb(219.85882352941175 65.25490196078434 5.0196078431372655); stroke-width: 0.05;fill-opacity: 1.0;" transform="matrix(11.370607772207467, 0.0, 0.0, 11.370607772207467, 164.35303886103668, 670.5679486366064)"><path d="M 0.0 0.0 L 4.00000000000003 -1.418023854522332e-14 L 4.000000000000114 0.9999999999999934 L 5.639932965095795e-14 1.0000000000000142 L 0.0 -1.1102230246251565e-16 Z" style="vector-effect: non-scaling-stroke;" /></g></svg>