<?xml version="1.0" encoding="utf-8" ?>
<svg baseProfile="full" height="700" version="1.1" width="215" xmlns="http://www.w3.org/2000/svg" xmlns:ev="http://www.w3.org/2001/xml-events" xmlns:xlink="http://www.w3.org/1999/xlink"><defs><marker id="arrow" markerHeight="3.5" markerWidth="5" orient="auto" refX="5.0" refY="1.7"><polygon points="0,0 5,1.75 0,3.5" /></marker></defs><g style="fill:white;"><g transform="matrix(1.0, 0.0, 0.0, 1.0, 107.50000762939453, 349.34869384765625)"><g transform="matrix(11.374456405639648, 0.0, 0.0, 11.374456405639648, 0.0, 0.0)"><g><g transform="matrix(1.0, 0.0, 0.0, 1.0, -7.0, -23.249103546142578)"><g><g transform="matrix(1.0, 0.0, 0.0, 1.0, 0.0, 0.0)"><g><g transform="matrix(1.0, 0.0, 0.0, 1.0, 0.0, 0.0)"><g><g style="fill: #000000;stroke: black;stroke-width: 2.1;" transform="matrix(1.0, 0.0, 0.0, 1.0, -0.39990234375, -6.000801086425781)"><path d="M 0.0 0.0 A 80.13702392578125 80.13702392578125 -90.0 0 1 0.7999964952468872 0.0 A 4344.46435546875 4344.46435546875 0.0 0 1 0.7998046875 5.999810218811035 A 80.13702392578125 80.13702392578125 89.99999237060547 0 1 -2.9802322387695312e-08 5.999809265136719 A 4344.46435546875 4344.46435546875 179.99998474121094 0 1 0.0 2.384185791015625e-07 Z" style="vector-effect: non-scaling-stroke;" /></g><g transform="matrix(1.0, 0.0, 0.0, 1.0, -0.0, -2.5048980712890625)"><g><g style="fill: #9fb4cc;stroke: #9fb4cc;stroke-width: 1.05;" transform="matrix(1.0, 0.0, 0.0, 1.0, -0.9999885559082031, -0.4999847412109375)"><path d="M 0.0 0.0 A 504.1830749511719 504.1830749511719 -90.0 0 1 1.999977946281433 -3.0517578125e-05 A 124.6375732421875 124.6375732421875 0.0 0 1 1.9999771118164062 0.9999639987945557 A 504.1830749511719 504.1830749511719 89.99999237060547 0 1 0.0 1.0 A 124.6375732421875 124.6375732421875 179.99998474121094 0 1 0.0 -2.9802322387695312e-08 Z" style="vector-effect: non-scaling-stroke;" /></g><g transform="matrix(1.0, 0.0, 0.0, 1.0, 0.0, 0.5009918212890625)"><g transform="matrix(-4.371138828673793e-08, -1.0, 1.0, -4.371138828673793e-08, 0.0, 0.0)"><g /></g></g><g transform="matrix(1.0, 0.0, 0.0, 1.0, 0.0, 1.0019683837890625)"><g><g style="fill: #cccc9f;stroke: #cccc9f;stroke-width: 1.05;" transform="matrix(1.0, 0.0, 0.0, 1.0, -1.4999732971191406, -0.5)"><path d="M 0.0 0.0 A 1161.1070556640625 1161.1070556640625 -90.0 0 1 2.9999494552612305 0.0 A 124.6375732421875 124.6375732421875 0.0 0 1 2.9999465942382812 0.9999945163726807 A 1161.1070556640625 1161.1070556640625 89.99999237060547 0 1 1.1920928955078125e-07 1.0 A 124.6375732421875 124.6375732421875 179.99998474121094 0 1 0.0 -2.9802322387695312e-08 Z" style="vector-effect: non-scaling-stroke;" /></g><g transform="matrix(1.0, 0.0, 0.0, 1.0, 0.0, 0.5009765625)"><g transform="matrix(-4.371138828673793e-08, -1.0, 1.0, -4.371138828673793e-08, 0.0, 0.0)"><g /></g></g><g style="fill: #db4105;stroke: #db4105;stroke-width: 1.05;" transform="matrix(1.0, 0.0, 0.0, 1.0, -1.9999542236328125, 0.501953125)"><path d="M 0.0 0.0 A 2048.00048828125 2048.00048828125 -90.0 0 1 3.999910593032837 0.0 A 124.6375732421875 124.6375732421875 0.0 0 1 3.999908447265625 0.9999945163726807 A 2048.00048828125 2048.00048828125 89.99999237060547 0 1 0.0 1.0 A 124.6375732421875 124.6375732421875 179.99998474121094 0 1 0.0 -2.9802322387695312e-08 Z" style="vector-effect: non-scaling-stroke;" /></g></g></g></g></g></g></g><g transform="matrix(1.0, 0.0, 0.0, 1.0, 7.0, 0.0)"><g><g style="fill: #000000;stroke: black;stroke-width: 2.1;" transform="matrix(1.0, 0.0, 0.0, 1.0, -0.39990234375, -6.000801086425781)"><path d="M 0.0 0.0 A 80.13702392578125 80.13702392578125 -90.0 0 1 0.7999964952468872 0.0 A 4344.46435546875 4344.46435546875 0.0 0 1 0.7998046875 5.999810218811035 A 80.13702392578125 80.13702392578125 89.99999237060547 0 1 -2.9802322387695312e-08 5.999809265136719 A 4344.46435546875 4344.46435546875 179.99998474121094 0 1 0.0 2.384185791015625e-07 Z" style="vector-effect: non-scaling-stroke;" /></g><g transform="matrix(1.0, 0.0, 0.0, 1.0, -0.0, -0.0)"><g /></g></g></g><g transform="matrix(1.0, 0.0, 0.0, 1.0, 14.0, 0.0)"><g><g style="fill: #000000;stroke: black;stroke-width: 2.1;" transform="matrix(1.0, 0.0, 0.0, 1.0, -0.39990234375, -6.000801086425781)"><path d="M 0.0 0.0 A 80.13702392578125 80.13702392578125 -90.0 0 1 0.7999964952468872 0.0 A 4344.46435546875 4344.46435546875 0.0 0 1 0.7998046875 5.999810218811035 A 80.13702392578125 80.13702392578125 89.99999237060547 0 1 -2.9802322387695312e-08 5.999809265136719 A 4344.46435546875 4344.46435546875 179.99998474121094 0 1 0.0 2.384185791015625e-07 Z" style="vector-effect: non-scaling-stroke;" /></g><g transform="matrix(1.0, 0.0, 0.0, 1.0, -0.0, -0.0)"><g /></g></g></g></g></g><g transform="matrix(1.0, 0.0, 0.0, 1.0, 0.0, 7.5)"><g><g transform="matrix(1.0, 0.0, 0.0, 1.0, 0.0, 0.0)"><g><g style="fill: #000000;stroke: black;stroke-width: 2.1;" transform="matrix(1.0, 0.0, 0.0, 1.0, -0.39990234375, -6.000801086425781)"><path d="M 0.0 0.0 A 80.13702392578125 80.13702392578125 -90.0 0 1 0.7999964952468872 0.0 A 4344.46435546875 4344.46435546875 0.0 0 1 0.7998046875 5.999810218811035 A 80.13702392578125 80.13702392578125 89.99999237060547 0 1 -2.9802322387695312e-08 5.999809265136719 A 4344.46435546875 4344.46435546875 179.99998474121094 0 1 0.0 2.384185791015625e-07 Z" style="vector-effect: non-scaling-stroke;" /></g><g transform="matrix(1.0, 0.0, 0.0, 1.0, -0.0, -1.5029296875)"><g><g style="fill: #cccc9f;stroke: #cccc9f;stroke-width: 1.05;" transform="matrix(1.0, 0.0, 0.0, 1.0, -1.4999732971191406, -0.5)"><path d="M 0.0 0.0 A 1161.1070556640625 1161.1070556640625 -90.0 0 1 2.9999494552612305 0.0 A 124.6375732421875 124.6375732421875 0.0 0 1 2.9999465942382812 0.9999945163726807 A 1161.1070556640625 1161.1070556640625 89.99999237060547 0 1 1.1920928955078125e-07 1.0 A 124.6375732421875 124.6375732421875 179.99998474121094 0 1 0.0 -2.9802322387695312e-08 Z" style="vector-effect: non-scaling-stroke;" /></g><g transform="matrix(1.0, 0.0, 0.0, 1.0, 0.0, 0.5009765625)"><g transform="matrix(-4.371138828673793e-08, -1.0, 1.0, -4.371138828673793e-08, 0.0, 0.0)"><g /></g></g><g style="fill: #db4105;stroke: #db4105;stroke-width: 1.05;" transform="matrix(1.0, 0.0, 0.0, 1.0, -1.9999542236328125, 0.501953125)"><path d="M 0.0 0.0 A 2048.00048828125 2048.00048828125 -90.0 0 1 3.999910593032837 0.0 A 124.6375732421875 124.6375732421875 0.0 0 1 3.999908447265625 0.9999945163726807 A 2048.00048828125 2048.00048828125 89.99999237060547 0 1 0.0 1.0 A 124.6375732421875 124.6375732421875 179.99998474121094 0 1 0.0 -2.9802322387695312e-08 Z" style="vector-effect: non-scaling-stroke;" /></g></g></g></g></g><g transform="matrix(1.0, 0.0, 0.0, 1.0, 7.0, 0.0)"><g><g style="fill: #000000;stroke: black;stroke-width: 2.1;" transform="matrix(1.0, 0.0, 0.0, 1.0, -0.39990234375, -6.000801086425781)"><path d="M 0.0 0.0 A 80.13702392578125 80.13702392578125 -90.0 0 1 0.7999964952468872 0.0 A 4344.46435546875 4344.46435546875 0.0 0 1 0.7998046875 5.999810218811035 A 80.13702392578125 80.13702392578125 89.99999237060547 0 1 -2.9802322387695312e-08 5.999809265136719 A 4344.46435546875 4344.46435546875 179.99998474121094 0 1 0.0 2.384185791015625e-07 Z" style="vector-effect: non-scaling-stroke;" /></g><g transform="matrix(1.0, 0.0, 0.0, 1.0, -0.0, -0.0)"><g /></g></g></g><g transform="matrix(1.0, 0.0, 0.0, 1.0, 14.0, 0.0)"><g><g style="fill: #000000;stroke: black;stroke-width: 2.1;" transform="matrix(1.0, 0.0, 0.0, 1.0, -0.39990234375, -6.000801086425781)"><path d="M 0.0 0.0 A 80.13702392578125 80.13702392578125 -90.0 0 1 0.7999964952468872 0.0 A 4344.46435546875 4344.46435546875 0.0 0 1 0.7998046875 5.999810218811035 A 80.13702392578125 80.13702392578125 89.99999237060547 0 1 -2.9802322387695312e-08 5.999809265136719 A 4344.46435546875 4344.46435546875 179.99998474121094 0 1 0.0 2.384185791015625e-07 Z" style="vector-effect: non-scaling-stroke;" /></g><g transform="matrix(1.0, 0.0, 0.0, 1.0, -0.0, -0.5009918212890625)"><g><g style="fill: #9fb4cc;stroke: #9fb4cc;stroke-width: 1.05;" transform="matrix(1.0, 0.0, 0.0, 1.0, -0.9999885559082031, -0.4999847412109375)"><path d="M 0.0 0.0 A 504.1830749511719 504.1830749511719 -90.0 0 1 1.999977946281433 -3.0517578125e-05 A 124.6375732421875 124.6375732421875 0.0 0 1 1.9999771118164062 0.9999639987945557 A 504.1830749511719 504.1830749511719 89.99999237060547 0 1 0.0 1.0 A 124.6375732421875 124.6375732421875 179.99998474121094 0 1 0.0 -2.9802322387695312e-08 Z" style="vector-effect: non-scaling-stroke;" /></g><g transform="matrix(1.0, 0.0, 0.0, 1.0, 0.0, 0.5009918212890625)"><g transform="matrix(-4.371138828673793e-08, -1.0, 1.0, -4.371138828673793e-08, 0.0, 0.0)"><g /></g></g><g transform="matrix(1.0, 0.0, 0.0, 1.0, 0.0, 0.5009918212890625)"><g /></g></g></g></g></g></g></g><g transform="matrix(1.0, 0.0, 0.0, 1.0, 0.0, 15.0)"><g><g transform="matrix(1.0, 0.0, 0.0, 1.0, 0.0, 0.0)"><g><g style="fill: #000000;stroke: black;stroke-width: 2.1;" transform="matrix(1.0, 0.0, 0.0, 1.0, -0.39990234375, -6.000801086425781)"><path d="M 0.0 0.0 A 80.13702392578125 80.13702392578125 -90.0 0 1 0.7999964952468872 0.0 A 4344.46435546875 4344.46435546875 0.0 0 1 0.7998046875 5.999810218811035 A 80.13702392578125 80.13702392578125 89.99999237060547 0 1 -2.9802322387695312e-08 5.999809265136719 A 4344.46435546875 4344.46435546875 179.99998474121094 0 1 0.0 2.384185791015625e-07 Z" style="vector-effect: non-scaling-stroke;" /></g><g transform="matrix(1.0, 0.0, 0.0, 1.0, -0.0, -0.5009765625)"><g><g style="fill: #db4105;stroke: #db4105;stroke-width: 1.05;" transform="matrix(1.0, 0.0, 0.0, 1.0, -1.9999542236328125, -0.5)"><path d="M 0.0 0.0 A 2048.00048828125 2048.00048828125 -90.0 0 1 3.999910593032837 0.0 A 124.6375732421875 124.6375732421875 0.0 0 1 3.999908447265625 0.9999945163726807 A 2048.00048828125 2048.00048828125 89.99999237060547 0 1 0.0 1.0 A 124.6375732421875 124.6375732421875 179.99998474121094 0 1 0.0 -2.9802322387695312e-08 Z" style="vector-effect: non-scaling-stroke;" /></g><g transform="matrix(1.0, 0.0, 0.0, 1.0, 0.0, 0.5009765625)"><g transform="matrix(-4.371138828673793e-08, -1.0, 1.0, -4.371138828673793e-08, 0.0, 0.0)"><g /></g></g><g transform="matrix(1.0, 0.0, 0.0, 1.0, 0.0, 0.5009765625)"><g /></g></g></g></g></g><g transform="matrix(1.0, 0.0, 0.0, 1.0, 7.0, 0.0)"><g><g style="fill: #000000;stroke: black;stroke-width: 2.1;" transform="matrix(1.0, 0.0, 0.0, 1.0, -0.39990234375, -6.000801086425781)"><path d="M 0.0 0.0 A 80.13702392578125 80.13702392578125 -90.0 0 1 0.7999964952468872 0.0 A 4344.46435546875 4344.46435546875 0.0 0 1 0.7998046875 5.999810218811035 A 80.13702392578125 80.13702392578125 89.99999237060547 0 1 -2.9802322387695312e-08 5.999809265136719 A 4344.46435546875 4344.46435546875 179.99998474121094 0 1 0.0 2.384185791015625e-07 Z" style="vector-effect: non-scaling-stroke;" /></g><g transform="matrix(1.0, 0.0, 0.0, 1.0, -0.0, -0.5009765625)"><g><g style="fill: #cccc9f;stroke: #cccc9f;stroke-width: 1.05;" transform="matrix(1.0, 0.0, 0.0, 1.0, -1.4999732971191406, -0.5)"><path d="M 0.0 0.0 A 1161.1070556640625 1161.1070556640625 -90.0 0 1 2.9999494552612305 0.0 A 124.6375732421875 124.6375732421875 0.0 0 1 2.9999465942382812 0.9999945163726807 A 1161.1070556640625 1161.1070556640625 89.99999237060547 0 1 1.1920928955078125e-07 1.0 A 124.6375732421875 124.6375732421875 179.99998474121094 0 1 0.0 -2.9802322387695312e-08 Z" style="vector-effect: non-scaling-stroke;" /></g><g transform="matrix(1.0, 0.0, 0.0, 1.0, 0.0, 0.5009765625)"><g transform="matrix(-4.371138828673793e-08, -1.0, 1.0, -4.371138828673793e-08, 0.0, 0.0)"><g /></g></g><g transform="matrix(1.0, 0.0, 0.0, 1.0, 0.0, 0.5009765625)"><g /></g></g></g></g></g><g transform="matrix(1.0, 0.0, 0.0, 1.0, 14.0, 0.0)"><g><g style="fill: #000000;stroke: black;stroke-width: 2.1;" transform="matrix(1.0, 0.0, 0.0, 1.0, -0.39990234375, -6.000801086425781)"><path d="M 0.0 0.0 A 80.13702392578125 80.13702392578125 -90.0 0 1 0.7999964952468872 0.0 A 4344.46435546875 4344.46435546875 0.0 0 1 0.7998046875 5.999810218811035 A 80.13702392578125 80.13702392578125 89.99999237060547 0 1 -2.9802322387695312e-08 5.999809265136719 A 4344.46435546875 4344.46435546875 179.99998474121094 0 1 0.0 2.384185791015625e-07 Z" style="vector-effect: non-scaling-stroke;" /></g><g transform="matrix(1.0, 0.0, 0.0, 1.0, -0.0, -0.5009918212890625)"><g><g style="fill: #9fb4cc;stroke: #9fb4cc;stroke-width: 1.05;" transform="matrix(1.0, 0.0, 0.0, 1.0, -0.9999885559082031, -0.4999847412109375)"><path d="M 0.0 0.0 A 504.1830749511719 504.1830749511719 -90.0 0 1 1.999977946281433 -3.0517578125e-05 A 124.6375732421875 124.6375732421875 0.0 0 1 1.9999771118164062 0.9999639987945557 A 504.1830749511719 504.1830749511719 89.99999237060547 0 1 0.0 1.0 A 124.6375732421875 124.6375732421875 179.99998474121094 0 1 0.0 -2.9802322387695312e-08 Z" style="vector-effect: non-scaling-stroke;" /></g><g transform="matrix(1.0, 0.0, 0.0, 1.0, 0.0, 0.5009918212890625)"><g transform="matrix(-4.371138828673793e-08, -1.0, 1.0, -4.371138828673793e-08, 0.0, 0.0)"><g /></g></g><g transform="matrix(1.0, 0.0, 0.0, 1.0, 0.0, 0.5009918212890625)"><g /></g></g></g></g></g></g></g><g transform="matrix(1.0, 0.0, 0.0, 1.0, 0.0, 22.5)"><g><g transform="matrix(1.0, 0.0, 0.0, 1.0, 0.0, 0.0)"><g><g style="fill: #000000;stroke: black;stroke-width: 2.1;" transform="matrix(1.0, 0.0, 0.0, 1.0, -0.39990234375, -6.000801086425781)"><path d="M 0.0 0.0 A 80.13702392578125 80.13702392578125 -90.0 0 1 0.7999964952468872 0.0 A 4344.46435546875 4344.46435546875 0.0 0 1 0.7998046875 5.999810218811035 A 80.13702392578125 80.13702392578125 89.99999237060547 0 1 -2.9802322387695312e-08 5.999809265136719 A 4344.46435546875 4344.46435546875 179.99998474121094 0 1 0.0 2.384185791015625e-07 Z" style="vector-effect: non-scaling-stroke;" /></g><g transform="matrix(1.0, 0.0, 0.0, 1.0, -0.0, -0.5009765625)"><g><g style="fill: #db4105;stroke: #db4105;stroke-width: 1.05;" transform="matrix(1.0, 0.0, 0.0, 1.0, -1.9999542236328125, -0.5)"><path d="M 0.0 0.0 A 2048.00048828125 2048.00048828125 -90.0 0 1 3.999910593032837 0.0 A 124.6375732421875 124.6375732421875 0.0 0 1 3.999908447265625 0.9999945163726807 A 2048.00048828125 2048.00048828125 89.99999237060547 0 1 0.0 1.0 A 124.6375732421875 124.6375732421875 179.99998474121094 0 1 0.0 -2.9802322387695312e-08 Z" style="vector-effect: non-scaling-stroke;" /></g><g transform="matrix(1.0, 0.0, 0.0, 1.0, 0.0, 0.5009765625)"><g transform="matrix(-4.371138828673793e-08, -1.0, 1.0, -4.371138828673793e-08, 0.0, 0.0)"><g /></g></g><g transform="matrix(1.0, 0.0, 0.0, 1.0, 0.0, 0.5009765625)"><g /></g></g></g></g></g><g transform="matrix(1.0, 0.0, 0.0, 1.0, 7.0, 0.0)"><g><g style="fill: #000000;stroke: black;stroke-width: 2.1;" transform="matrix(1.0, 0.0, 0.0, 1.0, -0.39990234375, -6.000801086425781)"><path d="M 0.0 0.0 A 80.13702392578125 80.13702392578125 -90.0 0 1 0.7999964952468872 0.0 A 4344.46435546875 4344.46435546875 0.0 0 1 0.7998046875 5.999810218811035 A 80.13702392578125 80.13702392578125 89.99999237060547 0 1 -2.9802322387695312e-08 5.999809265136719 A 4344.46435546875 4344.46435546875 179.99998474121094 0 1 0.0 2.384185791015625e-07 Z" style="vector-effect: non-scaling-stroke;" /></g><g transform="matrix(1.0, 0.0, 0.0, 1.0, -0.0, -1.5029449462890625)"><g><g style="fill: #9fb4cc;stroke: #9fb4cc;stroke-width: 1.05;" transform="matrix(1.0, 0.0, 0.0, 1.0, -0.9999885559082031, -0.4999847412109375)"><path d="M 0.0 0.0 A 504.1830749511719 504.1830749511719 -90.0 0 1 1.999977946281433 -3.0517578125e-05 A 124.6375732421875 124.6375732421875 0.0 0 1 1.9999771118164062 0.9999639987945557 A 504.1830749511719 504.1830749511719 89.99999237060547 0 1 0.0 1.0 A 124.6375732421875 124.6375732421875 179.99998474121094 0 1 0.0 -2.9802322387695312e-08 Z" style="vector-effect: non-scaling-stroke;" /></g><g transform="matrix(1.0, 0.0, 0.0, 1.0, 0.0, 0.5009918212890625)"><g transform="matrix(-4.371138828673793e-08, -1.0, 1.0, -4.371138828673793e-08, 0.0, 0.0)"><g /></g></g><g style="fill: #cccc9f;stroke: #cccc9f;stroke-width: 1.05;" transform="matrix(1.0, 0.0, 0.0, 1.0, -1.4999732971191406, 0.5019683837890625)"><path d="M 0.0 0.0 A 1161.1070556640625 1161.1070556640625 -90.0 0 1 2.9999494552612305 0.0 A 124.6375732421875 124.6375732421875 0.0 0 1 2.9999465942382812 0.9999945163726807 A 1161.1070556640625 1161.1070556640625 89.99999237060547 0 1 1.1920928955078125e-07 1.0 A 124.6375732421875 124.6375732421875 179.99998474121094 0 1 0.0 -2.9802322387695312e-08 Z" style="vector-effect: non-scaling-stroke;" /></g></g></g></g></g><g transform="matrix(1.0, 0.0, 0.0, 1.0, 14.0, 0.0)"><g><g style="fill: #000000;stroke: black;stroke-width: 2.1;" transform="matrix(1.0, 0.0, 0.0, 1.0, -0.39990234375, -6.000801086425781)"><path d="M 0.0 0.0 A 80.13702392578125 80.13702392578125 -90.0 0 1 0.7999964952468872 0.0 A 4344.46435546875 4344.46435546875 0.0 0 1 0.7998046875 5.999810218811035 A 80.13702392578125 80.13702392578125 89.99999237060547 0 1 -2.9802322387695312e-08 5.999809265136719 A 4344.46435546875 4344.46435546875 179.99998474121094 0 1 0.0 2.384185791015625e-07 Z" style="vector-effect: non-scaling-stroke;" /></g><g transform="matrix(1.0, 0.0, 0.0, 1.0, -0.0, -0.0)"><g /></g></g></g></g></g><g transform="matrix(1.0, 0.0, 0.0, 1.0, 0.0, 30.0)"><g><g transform="matrix(1.0, 0.0, 0.0, 1.0, 0.0, 0.0)"><g><g style="fill: #000000;stroke: black;stroke-width: 2.1;" transform="matrix(1.0, 0.0, 0.0, 1.0, -0.39990234375, -6.000801086425781)"><path d="M 0.0 0.0 A 80.13702392578125 80.13702392578125 -90.0 0 1 0.7999964952468872 0.0 A 4344.46435546875 4344.46435546875 0.0 0 1 0.7998046875 5.999810218811035 A 80.13702392578125 80.13702392578125 89.99999237060547 0 1 -2.9802322387695312e-08 5.999809265136719 A 4344.46435546875 4344.46435546875 179.99998474121094 0 1 0.0 2.384185791015625e-07 Z" style="vector-effect: non-scaling-stroke;" /></g><g transform="matrix(1.0, 0.0, 0.0, 1.0, -0.0, -0.0)"><g /></g></g></g><g transform="matrix(1.0, 0.0, 0.0, 1.0, 7.0, 0.0)"><g><g style="fill: #000000;stroke: black;stroke-width: 2.1;" transform="matrix(1.0, 0.0, 0.0, 1.0, -0.39990234375, -6.000801086425781)"><path d="M 0.0 0.0 A 80.13702392578125 80.13702392578125 -90.0 0 1 0.7999964952468872 0.0 A 4344.46435546875 4344.46435546875 0.0 0 1 0.7998046875 5.999810218811035 A 80.13702392578125 80.13702392578125 89.99999237060547 0 1 -2.9802322387695312e-08 5.999809265136719 A 4344.46435546875 4344.46435546875 179.99998474121094 0 1 0.0 2.384185791015625e-07 Z" style="vector-effect: non-scaling-stroke;" /></g><g transform="matrix(1.0, 0.0, 0.0, 1.0, -0.0, -1.5029449462890625)"><g><g style="fill: #9fb4cc;stroke: #9fb4cc;stroke-width: 1.05;" transform="matrix(1.0, 0.0, 0.0, 1.0, -0.9999885559082031, -0.4999847412109375)"><path d="M 0.0 0.0 A 504.1830749511719 504.1830749511719 -90.0 0 1 1.999977946281433 -3.0517578125e-05 A 124.6375732421875 124.6375732421875 0.0 0 1 1.9999771118164062 0.9999639987945557 A 504.1830749511719 504.1830749511719 89.99999237060547 0 1 0.0 1.0 A 124.6375732421875 124.6375732421875 179.99998474121094 0 1 0.0 -2.9802322387695312e-08 Z" style="vector-effect: non-scaling-stroke;" /></g><g transform="matrix(1.0, 0.0, 0.0, 1.0, 0.0, 0.5009918212890625)"><g transform="matrix(-4.371138828673793e-08, -1.0, 1.0, -4.371138828673793e-08, 0.0, 0.0)"><g /></g></g><g style="fill: #cccc9f;stroke: #cccc9f;stroke-width: 1.05;" transform="matrix(1.0, 0.0, 0.0, 1.0, -1.4999732971191406, 0.5019683837890625)"><path d="M 0.0 0.0 A 1161.1070556640625 1161.1070556640625 -90.0 0 1 2.9999494552612305 0.0 A 124.6375732421875 124.6375732421875 0.0 0 1 2.9999465942382812 0.9999945163726807 A 1161.1070556640625 1161.1070556640625 89.99999237060547 0 1 1.1920928955078125e-07 1.0 A 124.6375732421875 124.6375732421875 179.99998474121094 0 1 0.0 -2.9802322387695312e-08 Z" style="vector-effect: non-scaling-stroke;" /></g></g></g></g></g><g transform="matrix(1.0, 0.0, 0.0, 1.0, 14.0, 0.0)"><g><g style="fill: #000000;stroke: black;stroke-width: 2.1;" transform="matrix(1.0, 0.0, 0.0, 1.0, -0.39990234375, -6.000801086425781)"><path d="M 0.0 0.0 A 80.13702392578125 80.13702392578125 -90.0 0 1 0.7999964952468872 0.0 A 4344.46435546875 4344.46435546875 0.0 0 1 0.7998046875 5.999810218811035 A 80.13702392578125 80.13702392578125 89.99999237060547 0 1 -2.9802322387695312e-08 5.999809265136719 A 4344.46435546875 4344.46435546875 179.99998474121094 0 1 0.0 2.384185791015625e-07 Z" style="vector-effect: non-scaling-stroke;" /></g><g transform="matrix(1.0, 0.0, 0.0, 1.0, -0.0, -0.5009765625)"><g><g style="fill: #db4105;stroke: #db4105;stroke-width: 1.05;" transform="matrix(1.0, 0.0, 0.0, 1.0, -1.9999542236328125, -0.5)"><path d="M 0.0 0.0 A 2048.00048828125 2048.00048828125 -90.0 0 1 3.999910593032837 0.0 A 124.6375732421875 124.6375732421875 0.0 0 1 3.999908447265625 0.9999945163726807 A 2048.00048828125 2048.00048828125 89.99999237060547 0 1 0.0 1.0 A 124.6375732421875 124.6375732421875 179.99998474121094 0 1 0.0 -2.9802322387695312e-08 Z" style="vector-effect: non-scaling-stroke;" /></g><g transform="matrix(1.0, 0.0, 0.0, 1.0, 0.0, 0.5009765625)"><g transform="matrix(-4.371138828673793e-08, -1.0, 1.0, -4.371138828673793e-08, 0.0, 0.0)"><g /></g></g><g transform="matrix(1.0, 0.0, 0.0, 1.0, 0.0, 0.5009765625)"><g /></g></g></g></g></g></g></g><g transform="matrix(1.0, 0.0, 0.0, 1.0, 0.0, 37.5)"><g><g transform="matrix(1.0, 0.0, 0.0, 1.0, 0.0, 0.0)"><g><g style="fill: #000000;stroke: black;stroke-width: 2.1;" transform="matrix(1.0, 0.0, 0.0, 1.0, -0.39990234375, -6.000801086425781)"><path d="M 0.0 0.0 A 80.13702392578125 80.13702392578125 -90.0 0 1 0.7999964952468872 0.0 A 4344.46435546875 4344.46435546875 0.0 0 1 0.7998046875 5.999810218811035 A 80.13702392578125 80.13702392578125 89.99999237060547 0 1 -2.9802322387695312e-08 5.999809265136719 A 4344.46435546875 4344.46435546875 179.99998474121094 0 1 0.0 2.384185791015625e-07 Z" style="vector-effect: non-scaling-stroke;" /></g><g transform="matrix(1.0, 0.0, 0.0, 1.0, -0.0, -0.5009918212890625)"><g><g style="fill: #9fb4cc;stroke: #9fb4cc;stroke-width: 1.05;" transform="matrix(1.0, 0.0, 0.0, 1.0, -0.9999885559082031, -0.4999847412109375)"><path d="M 0.0 0.0 A 504.1830749511719 504.1830749511719 -90.0 0 1 1.999977946281433 -3.0517578125e-05 A 124.6375732421875 124.6375732421875 0.0 0 1 1.9999771118164062 0.9999639987945557 A 504.1830749511719 504.1830749511719 89.99999237060547 0 1 0.0 1.0 A 124.6375732421875 124.6375732421875 179.99998474121094 0 1 0.0 -2.9802322387695312e-08 Z" style="vector-effect: non-scaling-stroke;" /></g><g transform="matrix(1.0, 0.0, 0.0, 1.0, 0.0, 0.5009918212890625)"><g transform="matrix(-4.371138828673793e-08, -1.0, 1.0, -4.371138828673793e-08, 0.0, 0.0)"><g /></g></g><g transform="matrix(1.0, 0.0, 0.0, 1.0, 0.0, 0.5009918212890625)"><g /></g></g></g></g></g><g transform="matrix(1.0, 0.0, 0.0, 1.0, 7.0, 0.0)"><g><g style="fill: #000000;stroke: black;stroke-width: 2.1;" transform="matrix(1.0, 0.0, 0.0, 1.0, -0.39990234375, -6.000801086425781)"><path d="M 0.0 0.0 A 80.13702392578125 80.13702392578125 -90.0 0 1 0.7999964952468872 0.0 A 4344.46435546875 4344.46435546875 0.0 0 1 0.7998046875 5.999810218811035 A 80.13702392578125 80.13702392578125 89.99999237060547 0 1 -2.9802322387695312e-08 5.999809265136719 A 4344.46435546875 4344.46435546875 179.99998474121094 0 1 0.0 2.384185791015625e-07 Z" style="vector-effect: non-scaling-stroke;" /></g><g transform="matrix(1.0, 0.0, 0.0, 1.0, -0.0, -0.5009765625)"><g><g style="fill: #cccc9f;stroke: #cccc9f;stroke-width: 1.05;" transform="matrix(1.0, 0.0, 0.0, 1.0, -1.4999732971191406, -0.5)"><path d="M 0.0 0.0 A 1161.1070556640625 1161.1070556640625 -90.0 0 1 2.9999494552612305 0.0 A 124.6375732421875 124.6375732421875 0.0 0 1 2.9999465942382812 0.9999945163726807 A 1161.1070556640625 1161.1070556640625 89.99999237060547 0 1 1.1920928955078125e-07 1.0 A 124.6375732421875 124.6375732421875 179.99998474121094 0 1 0.0 -2.9802322387695312e-08 Z" style="vector-effect: non-scaling-stroke;" /></g><g transform="matrix(1.0, 0.0, 0.0, 1.0, 0.0, 0.5009765625)"><g transform="matrix(-4.371138828673793e-08, -1.0, 1.0, -4.371138828673793e-08, 0.0, 0.0)"><g /></g></g><g transform="matrix(1.0, 0.0, 0.0, 1.0, 0.0, 0.5009765625)"><g /></g></g></g></g></g><g transform="matrix(1.0, 0.0, 0.0, 1.0, 14.0, 0.0)"><g><g style="fill: #000000;stroke: black;stroke-width: 2.1;" transform="matrix(1.0, 0.0, 0.0, 1.0, -0.39990234375, -6.000801086425781)"><path d="M 0.0 0.0 A 80.13702392578125 80.13702392578125 -90.0 0 1 0.7999964952468872 0.0 A 4344.46435546875 4344.46435546875 0.0 0 1 0.7998046875 5.999810218811035 A 80.13702392578125 80.13702392578125 89.99999237060547 0 1 -2.9802322387695312e-08 5.999809265136719 A 4344.46435546875 4344.46435546875 179.99998474121094 0 1 0.0 2.384185791015625e-07 Z" style="vector-effect: non-scaling-stroke;" /></g><g transform="matrix(1.0, 0.0, 0.0, 1.0, -0.0, -0.5009765625)"><g><g style="fill: #db4105;stroke: #db4105;stroke-width: 1.05;" transform="matrix(1.0, 0.0, 0.0, 1.0, -1.9999542236328125, -0.5)"><path d="M 0.0 0.0 A 2048.00048828125 2048.00048828125 -90.0 0 1 3.999910593032837 0.0 A 124.6375732421875 124.6375732421875 0.0 0 1 3.999908447265625 0.9999945163726807 A 2048.00048828125 2048.00048828125 89.99999237060547 0 1 0.0 1.0 A 124.6375732421875 124.6375732421875 179.99998474121094 0 1 0.0 -2.9802322387695312e-08 Z" style="vector-effect: non-scaling-stroke;" /></g><g transform="matrix(1.0, 0.0, 0.0, 1.0, 0.0, 0.5009765625)"><g transform="matrix(-4.371138828673793e-08, -1.0, 1.0, -4.371138828673793e-08, 0.0, 0.0)"><g /></g></g><g transform="matrix(1.0, 0.0, 0.0, 1.0, 0.0, 0.5009765625)"><g /></g></g></g></g></g></g></g><g transform="matrix(1.0, 0.0, 0.0, 1.0, 0.0, 45.0)"><g><g transform="matrix(1.0, 0.0, 0.0, 1.0, 0.0, 0.0)"><g><g style="fill: #000000;stroke: black;stroke-width: 2.1;" transform="matrix(1.0, 0.0, 0.0, 1.0, -0.39990234375, -6.000801086425781)"><path d="M 0.0 0.0 A 80.13702392578125 80.13702392578125 -90.0 0 1 0.7999964952468872 0.0 A 4344.46435546875 4344.46435546875 0.0 0 1 0.7998046875 5.999810218811035 A 80.13702392578125 80.13702392578125 89.99999237060547 0 1 -2.9802322387695312e-08 5.999809265136719 A 4344.46435546875 4344.46435546875 179.99998474121094 0 1 0.0 2.384185791015625e-07 Z" style="vector-effect: non-scaling-stroke;" /></g><g transform="matrix(1.0, 0.0, 0.0, 1.0, -0.0, -0.5009918212890625)"><g><g style="fill: #9fb4cc;stroke: #9fb4cc;stroke-width: 1.05;" transform="matrix(1.0, 0.0, 0.0, 1.0, -0.9999885559082031, -0.4999847412109375)"><path d="M 0.0 0.0 A 504.1830749511719 504.1830749511719 -90.0 0 1 1.999977946281433 -3.0517578125e-05 A 124.6375732421875 124.6375732421875 0.0 0 1 1.9999771118164062 0.9999639987945557 A 504.1830749511719 504.1830749511719 89.99999237060547 0 1 0.0 1.0 A 124.6375732421875 124.6375732421875 179.99998474121094 0 1 0.0 -2.9802322387695312e-08 Z" style="vector-effect: non-scaling-stroke;" /></g><g transform="matrix(1.0, 0.0, 0.0, 1.0, 0.0, 0.5009918212890625)"><g transform="matrix(-4.371138828673793e-08, -1.0, 1.0, -4.371138828673793e-08, 0.0, 0.0)"><g /></g></g><g transform="matrix(1.0, 0.0, 0.0, 1.0, 0.0, 0.5009918212890625)"><g /></g></g></g></g></g><g transform="matrix(1.0, 0.0, 0.0, 1.0, 7.0, 0.0)"><g><g style="fill: #000000;stroke: black;stroke-width: 2.1;" transform="matrix(1.0, 0.0, 0.0, 1.0, -0.39990234375, -6.000801086425781)"><path d="M 0.0 0.0 A 80.13702392578125 80.13702392578125 -90.0 0 1 0.7999964952468872 0.0 A 4344.46435546875 4344.46435546875 0.0 0 1 0.7998046875 5.999810218811035 A 80.13702392578125 80.13702392578125 89.99999237060547 0 1 -2.9802322387695312e-08 5.999809265136719 A 4344.46435546875 4344.46435546875 179.99998474121094 0 1 0.0 2.384185791015625e-07 Z" style="vector-effect: non-scaling-stroke;" /></g><g transform="matrix(1.0, 0.0, 0.0, 1.0, -0.0, -0.0)"><g /></g></g></g><g transform="matrix(1.0, 0.0, 0.0, 1.0, 14.0, 0.0)"><g><g style="fill: #000000;stroke: black;stroke-width: 2.1;" transform="matrix(1.0, 0.0, 0.0, 1.0, -0.39990234375, -6.000801086425781)"><path d="M 0.0 0.0 A 80.13702392578125 80.13702392578125 -90.0 0 1 0.7999964952468872 0.0 A 4344.46435546875 4344.46435546875 0.0 0 1 0.7998046875 5.999810218811035 A 80.13702392578125 80.13702392578125 89.99999237060547 0 1 -2.9802322387695312e-08 5.999809265136719 A 4344.46435546875 4344.46435546875 179.99998474121094 0 1 0.0 2.384185791015625e-07 Z" style="vector-effect: non-scaling-stroke;" /></g><g transform="matrix(1.0, 0.0, 0.0, 1.0, -0.0, -1.5029296875)"><g><g style="fill: #cccc9f;stroke: #cccc9f;stroke-width: 1.05;" transform="matrix(1.0, 0.0, 0.0, 1.0, -1.4999732971191406, -0.5)"><path d="M 0.0 0.0 A 1161.1070556640625 1161.1070556640625 -90.0 0 1 2.9999494552612305 0.0 A 124.6375732421875 124.6375732421875 0.0 0 1 2.9999465942382812 0.9999945163726807 A 1161.1070556640625 1161.1070556640625 89.99999237060547 0 1 1.1920928955078125e-07 1.0 A 124.6375732421875 124.6375732421875 179.99998474121094 0 1 0.0 -2.9802322387695312e-08 Z" style="vector-effect: non-scaling-stroke;" /></g><g transform="matrix(1.0, 0.0, 0.0, 1.0, 0.0, 0.5009765625)"><g transform="matrix(-4.371138828673793e-08, -1.0, 1.0, -4.371138828673793e-08, 0.0, 0.0)"><g /></g></g><g style="fill: #db4105;stroke: #db4105;stroke-width: 1.05;" transform="matrix(1.0, 0.0, 0.0, 1.0, -1.9999542236328125, 0.501953125)"><path d="M 0.0 0.0 A 2048.00048828125 2048.00048828125 -90.0 0 1 3.999910593032837 0.0 A 124.6375732421875 124.6375732421875 0.0 0 1 3.999908447265625 0.9999945163726807 A 2048.00048828125 2048.00048828125 89.99999237060547 0 1 0.0 1.0 A 124.6375732421875 124.6375732421875 179.99998474121094 0 1 0.0 -2.9802322387695312e-08 Z" style="vector-effect: non-scaling-stroke;" /></g></g></g></g></g></g></g><g transform="matrix(1.0, 0.0, 0.0, 1.0, 0.0, 52.5)"><g><g transform="matrix(1.0, 0.0, 0.0, 1.0, 0.0, 0.0)"><g><g style="fill: #000000;stroke: black;stroke-width: 2.1;" transform="matrix(1.0, 0.0, 0.0, 1.0, -0.39990234375, -6.000801086425781)"><path d="M 0.0 0.0 A 80.13702392578125 80.13702392578125 -90.0 0 1 0.7999964952468872 0.0 A 4344.46435546875 4344.46435546875 0.0 0 1 0.7998046875 5.999810218811035 A 80.13702392578125 80.13702392578125 89.99999237060547 0 1 -2.9802322387695312e-08 5.999809265136719 A 4344.46435546875 4344.46435546875 179.99998474121094 0 1 0.0 2.384185791015625e-07 Z" style="vector-effect: non-scaling-stroke;" /></g><g transform="matrix(1.0, 0.0, 0.0, 1.0, -0.0, -0.0)"><g /></g></g></g><g transform="matrix(1.0, 0.0, 0.0, 1.0, 7.0, 0.0)"><g><g style="fill: #000000;stroke: black;stroke-width: 2.1;" transform="matrix(1.0, 0.0, 0.0, 1.0, -0.39990234375, -6.000801086425781)"><path d="M 0.0 0.0 A 80.13702392578125 80.13702392578125 -90.0 0 1 0.7999964952468872 0.0 A 4344.46435546875 4344.46435546875 0.0 0 1 0.7998046875 5.999810218811035 A 80.13702392578125 80.13702392578125 89.99999237060547 0 1 -2.9802322387695312e-08 5.999809265136719 A 4344.46435546875 4344.46435546875 179.99998474121094 0 1 0.0 2.384185791015625e-07 Z" style="vector-effect: non-scaling-stroke;" /></g><g transform="matrix(1.0, 0.0, 0.0, 1.0, -0.0, -0.0)"><g /></g></g></g><g transform="matrix(1.0, 0.0, 0.0, 1.0, 14.0, 0.0)"><g><g style="fill: #000000;stroke: black;stroke-width: 2.1;" transform="matrix(1.0, 0.0, 0.0, 1.0, -0.39990234375, -6.000801086425781)"><path d="M 0.0 0.0 A 80.13702392578125 80.13702392578125 -90.0 0 1 0.7999964952468872 0.0 A 4344.46435546875 4344.46435546875 0.0 0 1 0.7998046875 5.999810218811035 A 80.13702392578125 80.13702392578125 89.99999237060547 0 1 -2.9802322387695312e-08 5.999809265136719 A 4344.46435546875 4344.46435546875 179.99998474121094 0 1 0.0 2.384185791015625e-07 Z" style="vector-effect: non-scaling-stroke;" /></g><g transform="matrix(1.0, 0.0, 0.0, 1.0, -0.0, -2.5048980712890625)"><g><g style="fill: #9fb4cc;stroke: #9fb4cc;stroke-width: 1.05;" transform="matrix(1.0, 0.0, 0.0, 1.0, -0.9999885559082031, -0.4999847412109375)"><path d="M 0.0 0.0 A 504.1830749511719 504.1830749511719 -90.0 0 1 1.999977946281433 -3.0517578125e-05 A 124.6375732421875 124.6375732421875 0.0 0 1 1.9999771118164062 0.9999639987945557 A 504.1830749511719 504.1830749511719 89.99999237060547 0 1 0.0 1.0 A 124.6375732421875 124.6375732421875 179.99998474121094 0 1 0.0 -2.9802322387695312e-08 Z" style="vector-effect: non-scaling-stroke;" /></g><g transform="matrix(1.0, 0.0, 0.0, 1.0, 0.0, 0.5009918212890625)"><g transform="matrix(-4.371138828673793e-08, -1.0, 1.0, -4.371138828673793e-08, 0.0, 0.0)"><g /></g></g><g transform="matrix(1.0, 0.0, 0.0, 1.0, 0.0, 1.0019683837890625)"><g><g style="fill: #cccc9f;stroke: #cccc9f;stroke-width: 1.05;" transform="matrix(1.0, 0.0, 0.0, 1.0, -1.4999732971191406, -0.5)"><path d="M 0.0 0.0 A 1161.1070556640625 1161.1070556640625 -90.0 0 1 2.9999494552612305 0.0 A 124.6375732421875 124.6375732421875 0.0 0 1 2.9999465942382812 0.9999945163726807 A 1161.1070556640625 1161.1070556640625 89.99999237060547 0 1 1.1920928955078125e-07 1.0 A 124.6375732421875 124.6375732421875 179.99998474121094 0 1 0.0 -2.9802322387695312e-08 Z" style="vector-effect: non-scaling-stroke;" /></g><g transform="matrix(1.0, 0.0, 0.0, 1.0, 0.0, 0.5009765625)"><g transform="matrix(-4.371138828673793e-08, -1.0, 1.0, -4.371138828673793e-08, 0.0, 0.0)"><g /></g></g><g style="fill: #db4105;stroke: #db4105;stroke-width: 1.05;" transform="matrix(1.0, 0.0, 0.0, 1.0, -1.9999542236328125, 0.501953125)"><path d="M 0.0 0.0 A 2048.00048828125 2048.00048828125 -90.0 0 1 3.999910593032837 0.0 A 124.6375732421875 124.6375732421875 0.0 0 1 3.999908447265625 0.9999945163726807 A 2048.00048828125 2048.00048828125 89.99999237060547 0 1 0.0 1.0 A 124.6375732421875 124.6375732421875 179.99998474121094 0 1 0.0 -2.9802322387695312e-08 Z" style="vector-effect: non-scaling-stroke;" /></g></g></g></g></g></g></g></g></g></g></g><g /></g></g></g></g></svg>