<?xml version="1.0" encoding="utf-8" ?>
<svg baseProfile="full" height="700" version="1.1" width="215" xmlns="http://www.w3.org/2000/svg" xmlns:ev="http://www.w3.org/2001/xml-events" xmlns:xlink="http://www.w3.org/1999/xlink"><defs><marker id="arrow" markerHeight="3.5" markerWidth="5" orient="auto" refX="5.0" refY="1.7"><polygon points="0,0 5,1.75 0,3.5" /></marker></defs><g style="fill:white;"><g transform="matrix(11.370607772207467, 0.0, 0.0, 11.370607772207467, 22.786697975500076, 68.36009392650806)"><g><g transform="matrix(1.0, 0.0, 0.0, 1.0, 0.0, 0.0)"><g><g><g transform="matrix(1.0, 0.0, 0.0, 1.0, 0.0, 0.0)"><g><g style="fill: #000000;stroke: black;stroke-width: 2.1;" transform="matrix(1.0, 0.0, 0.0, 1.0, -0.4000000000000057, -6.005999999999858)"><path d="M 0.0 0.0 L 0.8000000000000062 1.8369701987210297e-16 L 0.8000000000000114 6.000000000000046 L 0.0 5.999999999999999 L 0.0 -4.440892098500626e-16 Z" style="vector-effect: non-scaling-stroke;" /></g><g transform="matrix(1.0, 0.0, 0.0, 1.0, -0.0, -2.5049999999998533)"><g><g style="fill: #9fb4cc;stroke: #9fb4cc;stroke-width: 1.05;" transform="matrix(1.0, 0.0, 0.0, 1.0, -1.0000000000000284, -0.5)"><path d="M 0.0 0.0 L 2.000000000000015 -1.418023854522332e-14 L 2.000000000000057 0.9999999999999934 L 2.8199664825478976e-14 1.0000000000000142 L 0.0 -1.1102230246251565e-16 Z" style="vector-effect: non-scaling-stroke;" /></g><g transform="matrix(1.0, 0.0, 0.0, 1.0, 0.0, 1.001999999999967)"><g><g style="fill: #cccc9f;stroke: #cccc9f;stroke-width: 1.05;" transform="matrix(1.0, 0.0, 0.0, 1.0, -1.5, -0.5)"><path d="M 0.0 0.0 L 3.000000000000023 -1.418023854522332e-14 L 3.0 0.9999999999999934 L 2.220446049250313e-16 1.0000000000000142 L 0.0 -1.1102230246251565e-16 Z" style="vector-effect: non-scaling-stroke;" /></g><g style="fill: #db4105;stroke: #db4105;stroke-width: 1.05;" transform="matrix(1.0, 0.0, 0.0, 1.0, -2.000000000000057, 0.5019999999999669)"><path d="M 0.0 0.0 L 4.00000000000003 -1.418023854522332e-14 L 4.000000000000114 0.9999999999999934 L 5.639932965095795e-14 1.0000000000000142 L 0.0 -1.1102230246251565e-16 Z" style="vector-effect: non-scaling-stroke;" /></g></g></g></g></g></g></g><g style="fill: #000000;stroke: black;stroke-width: 2.1;" transform="matrix(1.0, 0.0, 0.0, 1.0, 6.599999999999994, -6.005999999999858)"><path d="M 0.0 0.0 L 0.8000000000000062 1.8369701987210297e-16 L 0.8000000000000114 6.000000000000046 L 0.0 5.999999999999999 L 0.0 -4.440892098500626e-16 Z" style="vector-effect: non-scaling-stroke;" /></g></g><g style="fill: #000000;stroke: black;stroke-width: 2.1;" transform="matrix(1.0, 0.0, 0.0, 1.0, 13.599999999999994, -6.005999999999858)"><path d="M 0.0 0.0 L 0.8000000000000062 1.8369701987210297e-16 L 0.8000000000000114 6.000000000000046 L 0.0 5.999999999999999 L 0.0 -4.440892098500626e-16 Z" style="vector-effect: non-scaling-stroke;" /></g></g></g><g transform="matrix(1.0, 0.0, 0.0, 1.0, 0.0, 7.5)"><g><g><g transform="matrix(1.0, 0.0, 0.0, 1.0, 0.0, 0.0)"><g><g style="fill: #000000;stroke: black;stroke-width: 2.1;" transform="matrix(1.0, 0.0, 0.0, 1.0, -0.4000000000000057, -6.005999999999858)"><path d="M 0.0 0.0 L 0.8000000000000062 1.8369701987210297e-16 L 0.8000000000000114 6.000000000000046 L 0.0 5.999999999999999 L 0.0 -4.440892098500626e-16 Z" style="vector-effect: non-scaling-stroke;" /></g><g transform="matrix(1.0, 0.0, 0.0, 1.0, -0.0, -1.5029999999998864)"><g><g style="fill: #cccc9f;stroke: #cccc9f;stroke-width: 1.05;" transform="matrix(1.0, 0.0, 0.0, 1.0, -1.5, -0.5)"><path d="M 0.0 0.0 L 3.000000000000023 -1.418023854522332e-14 L 3.0 0.9999999999999934 L 2.220446049250313e-16 1.0000000000000142 L 0.0 -1.1102230246251565e-16 Z" style="vector-effect: non-scaling-stroke;" /></g><g style="fill: #db4105;stroke: #db4105;stroke-width: 1.05;" transform="matrix(1.0, 0.0, 0.0, 1.0, -2.000000000000057, 0.5019999999999669)"><path d="M 0.0 0.0 L 4.00000000000003 -1.418023854522332e-14 L 4.000000000000114 0.9999999999999934 L 5.639932965095795e-14 1.0000000000000142 L 0.0 -1.1102230246251565e-16 Z" style="vector-effect: non-scaling-stroke;" /></g></g></g></g></g><g style="fill: #000000;stroke: black;stroke-width: 2.1;" transform="matrix(1.0, 0.0, 0.0, 1.0, 6.599999999999994, -6.005999999999858)"><path d="M 0.0 0.0 L 0.8000000000000062 1.8369701987210297e-16 L 0.8000000000000114 6.000000000000046 L 0.0 5.999999999999999 L 0.0 -4.440892098500626e-16 Z" style="vector-effect: non-scaling-stroke;" /></g></g><g transform="matrix(1.0, 0.0, 0.0, 1.0, 14.0, 0.0)"><g><g style="fill: #000000;stroke: black;stroke-width: 2.1;" transform="matrix(1.0, 0.0, 0.0, 1.0, -0.4000000000000057, -6.005999999999858)"><path d="M 0.0 0.0 L 0.8000000000000062 1.8369701987210297e-16 L 0.8000000000000114 6.000000000000046 L 0.0 5.999999999999999 L 0.0 -4.440892098500626e-16 Z" style="vector-effect: non-scaling-stroke;" /></g><g style="fill: #9fb4cc;stroke: #9fb4cc;stroke-width: 1.05;" transform="matrix(1.0, 0.0, 0.0, 1.0, -1.0000000000000284, -1.0009999999999195)"><path d="M 0.0 0.0 L 2.000000000000015 -1.418023854522332e-14 L 2.000000000000057 0.9999999999999934 L 2.8199664825478976e-14 1.0000000000000142 L 0.0 -1.1102230246251565e-16 Z" style="vector-effect: non-scaling-stroke;" /></g></g></g></g></g><g transform="matrix(1.0, 0.0, 0.0, 1.0, 0.0, 15.0)"><g><g><g transform="matrix(1.0, 0.0, 0.0, 1.0, 0.0, 0.0)"><g><g style="fill: #000000;stroke: black;stroke-width: 2.1;" transform="matrix(1.0, 0.0, 0.0, 1.0, -0.4000000000000057, -6.005999999999858)"><path d="M 0.0 0.0 L 0.8000000000000062 1.8369701987210297e-16 L 0.8000000000000114 6.000000000000046 L 0.0 5.999999999999999 L 0.0 -4.440892098500626e-16 Z" style="vector-effect: non-scaling-stroke;" /></g><g style="fill: #db4105;stroke: #db4105;stroke-width: 1.05;" transform="matrix(1.0, 0.0, 0.0, 1.0, -2.000000000000057, -1.0009999999999195)"><path d="M 0.0 0.0 L 4.00000000000003 -1.418023854522332e-14 L 4.000000000000114 0.9999999999999934 L 5.639932965095795e-14 1.0000000000000142 L 0.0 -1.1102230246251565e-16 Z" style="vector-effect: non-scaling-stroke;" /></g></g></g><g transform="matrix(1.0, 0.0, 0.0, 1.0, 7.0, 0.0)"><g><g style="fill: #000000;stroke: black;stroke-width: 2.1;" transform="matrix(1.0, 0.0, 0.0, 1.0, -0.4000000000000057, -6.005999999999858)"><path d="M 0.0 0.0 L 0.8000000000000062 1.8369701987210297e-16 L 0.8000000000000114 6.000000000000046 L 0.0 5.999999999999999 L 0.0 -4.440892098500626e-16 Z" style="vector-effect: non-scaling-stroke;" /></g><g style="fill: #cccc9f;stroke: #cccc9f;stroke-width: 1.05;" transform="matrix(1.0, 0.0, 0.0, 1.0, -1.5, -1.0010000000000474)"><path d="M 0.0 0.0 L 3.000000000000023 -1.418023854522332e-14 L 3.0 0.9999999999999934 L 2.220446049250313e-16 1.0000000000000142 L 0.0 -1.1102230246251565e-16 Z" style="vector-effect: non-scaling-stroke;" /></g></g></g></g><g transform="matrix(1.0, 0.0, 0.0, 1.0, 14.0, 0.0)"><g><g style="fill: #000000;stroke: black;stroke-width: 2.1;" transform="matrix(1.0, 0.0, 0.0, 1.0, -0.4000000000000057, -6.005999999999858)"><path d="M 0.0 0.0 L 0.8000000000000062 1.8369701987210297e-16 L 0.8000000000000114 6.000000000000046 L 0.0 5.999999999999999 L 0.0 -4.440892098500626e-16 Z" style="vector-effect: non-scaling-stroke;" /></g><g style="fill: #9fb4cc;stroke: #9fb4cc;stroke-width: 1.05;" transform="matrix(1.0, 0.0, 0.0, 1.0, -1.0000000000000284, -1.0009999999999195)"><path d="M 0.0 0.0 L 2.000000000000015 -1.418023854522332e-14 L 2.000000000000057 0.9999999999999934 L 2.8199664825478976e-14 1.0000000000000142 L 0.0 -1.1102230246251565e-16 Z" style="vector-effect: non-scaling-stroke;" /></g></g></g></g></g><g transform="matrix(1.0, 0.0, 0.0, 1.0, 0.0, 22.5)"><g><g><g transform="matrix(1.0, 0.0, 0.0, 1.0, 0.0, 0.0)"><g><g style="fill: #000000;stroke: black;stroke-width: 2.1;" transform="matrix(1.0, 0.0, 0.0, 1.0, -0.4000000000000057, -6.005999999999858)"><path d="M 0.0 0.0 L 0.8000000000000062 1.8369701987210297e-16 L 0.8000000000000114 6.000000000000046 L 0.0 5.999999999999999 L 0.0 -4.440892098500626e-16 Z" style="vector-effect: non-scaling-stroke;" /></g><g style="fill: #db4105;stroke: #db4105;stroke-width: 1.05;" transform="matrix(1.0, 0.0, 0.0, 1.0, -2.000000000000057, -1.0009999999999195)"><path d="M 0.0 0.0 L 4.00000000000003 -1.418023854522332e-14 L 4.000000000000114 0.9999999999999934 L 5.639932965095795e-14 1.0000000000000142 L 0.0 -1.1102230246251565e-16 Z" style="vector-effect: non-scaling-stroke;" /></g></g></g><g transform="matrix(1.0, 0.0, 0.0, 1.0, 7.0, 0.0)"><g><g style="fill: #000000;stroke: black;stroke-width: 2.1;" transform="matrix(1.0, 0.0, 0.0, 1.0, -0.4000000000000057, -6.005999999999858)"><path d="M 0.0 0.0 L 0.8000000000000062 1.8369701987210297e-16 L 0.8000000000000114 6.000000000000046 L 0.0 5.999999999999999 L 0.0 -4.440892098500626e-16 Z" style="vector-effect: non-scaling-stroke;" /></g><g transform="matrix(1.0, 0.0, 0.0, 1.0, -0.0, -1.5030000000000143)"><g><g style="fill: #9fb4cc;stroke: #9fb4cc;stroke-width: 1.05;" transform="matrix(1.0, 0.0, 0.0, 1.0, -1.0000000000000284, -0.5)"><path d="M 0.0 0.0 L 2.000000000000015 -1.418023854522332e-14 L 2.000000000000057 0.9999999999999934 L 2.8199664825478976e-14 1.0000000000000142 L 0.0 -1.1102230246251565e-16 Z" style="vector-effect: non-scaling-stroke;" /></g><g style="fill: #cccc9f;stroke: #cccc9f;stroke-width: 1.05;" transform="matrix(1.0, 0.0, 0.0, 1.0, -1.5, 0.5019999999999669)"><path d="M 0.0 0.0 L 3.000000000000023 -1.418023854522332e-14 L 3.0 0.9999999999999934 L 2.220446049250313e-16 1.0000000000000142 L 0.0 -1.1102230246251565e-16 Z" style="vector-effect: non-scaling-stroke;" /></g></g></g></g></g></g><g style="fill: #000000;stroke: black;stroke-width: 2.1;" transform="matrix(1.0, 0.0, 0.0, 1.0, 13.599999999999994, -6.005999999999858)"><path d="M 0.0 0.0 L 0.8000000000000062 1.8369701987210297e-16 L 0.8000000000000114 6.000000000000046 L 0.0 5.999999999999999 L 0.0 -4.440892098500626e-16 Z" style="vector-effect: non-scaling-stroke;" /></g></g></g><g transform="matrix(1.0, 0.0, 0.0, 1.0, 0.0, 30.0)"><g><g><g style="fill: #000000;stroke: black;stroke-width: 2.1;" transform="matrix(1.0, 0.0, 0.0, 1.0, -0.4000000000000057, -6.005999999999858)"><path d="M 0.0 0.0 L 0.8000000000000062 1.8369701987210297e-16 L 0.8000000000000114 6.000000000000046 L 0.0 5.999999999999999 L 0.0 -4.440892098500626e-16 Z" style="vector-effect: non-scaling-stroke;" /></g><g transform="matrix(1.0, 0.0, 0.0, 1.0, 7.0, 0.0)"><g><g style="fill: #000000;stroke: black;stroke-width: 2.1;" transform="matrix(1.0, 0.0, 0.0, 1.0, -0.4000000000000057, -6.005999999999858)"><path d="M 0.0 0.0 L 0.8000000000000062 1.8369701987210297e-16 L 0.8000000000000114 6.000000000000046 L 0.0 5.999999999999999 L 0.0 -4.440892098500626e-16 Z" style="vector-effect: non-scaling-stroke;" /></g><g transform="matrix(1.0, 0.0, 0.0, 1.0, -0.0, -1.5030000000000143)"><g><g style="fill: #9fb4cc;stroke: #9fb4cc;stroke-width: 1.05;" transform="matrix(1.0, 0.0, 0.0, 1.0, -1.0000000000000284, -0.5)"><path d="M 0.0 0.0 L 2.000000000000015 -1.418023854522332e-14 L 2.000000000000057 0.9999999999999934 L 2.8199664825478976e-14 1.0000000000000142 L 0.0 -1.1102230246251565e-16 Z" style="vector-effect: non-scaling-stroke;" /></g><g style="fill: #cccc9f;stroke: #cccc9f;stroke-width: 1.05;" transform="matrix(1.0, 0.0, 0.0, 1.0, -1.5, 0.5019999999999669)"><path d="M 0.0 0.0 L 3.000000000000023 -1.418023854522332e-14 L 3.0 0.9999999999999934 L 2.220446049250313e-16 1.0000000000000142 L 0.0 -1.1102230246251565e-16 Z" style="vector-effect: non-scaling-stroke;" /></g></g></g></g></g></g><g transform="matrix(1.0, 0.0, 0.0, 1.0, 14.0, 0.0)"><g><g style="fill: #000000;stroke: black;stroke-width: 2.1;" transform="matrix(1.0, 0.0, 0.0, 1.0, -0.4000000000000057, -6.005999999999858)"><path d="M 0.0 0.0 L 0.8000000000000062 1.8369701987210297e-16 L 0.8000000000000114 6.000000000000046 L 0.0 5.999999999999999 L 0.0 -4.440892098500626e-16 Z" style="vector-effect: non-scaling-stroke;" /></g><g style="fill: #db4105;stroke: #db4105;stroke-width: 1.05;" transform="matrix(1.0, 0.0, 0.0, 1.0, -2.000000000000057, -1.0009999999999195)"><path d="M 0.0 0.0 L 4.00000000000003 -1.418023854522332e-14 L 4.000000000000114 0.9999999999999934 L 5.639932965095795e-14 1.0000000000000142 L 0.0 -1.1102230246251565e-16 Z" style="vector-effect: non-scaling-stroke;" /></g></g></g></g></g><g transform="matrix(1.0, 0.0, 0.0, 1.0, 0.0, 37.5)"><g><g><g transform="matrix(1.0, 0.0, 0.0, 1.0, 0.0, 0.0)"><g><g style="fill: #000000;stroke: black;stroke-width: 2.1;" transform="matrix(1.0, 0.0, 0.0, 1.0, -0.4000000000000057, -6.005999999999858)"><path d="M 0.0 0.0 L 0.8000000000000062 1.8369701987210297e-16 L 0.8000000000000114 6.000000000000046 L 0.0 5.999999999999999 L 0.0 -4.440892098500626e-16 Z" style="vector-effect: non-scaling-stroke;" /></g><g style="fill: #9fb4cc;stroke: #9fb4cc;stroke-width: 1.05;" transform="matrix(1.0, 0.0, 0.0, 1.0, -1.0000000000000284, -1.0009999999999195)"><path d="M 0.0 0.0 L 2.000000000000015 -1.418023854522332e-14 L 2.000000000000057 0.9999999999999934 L 2.8199664825478976e-14 1.0000000000000142 L 0.0 -1.1102230246251565e-16 Z" style="vector-effect: non-scaling-stroke;" /></g></g></g><g transform="matrix(1.0, 0.0, 0.0, 1.0, 7.0, 0.0)"><g><g style="fill: #000000;stroke: black;stroke-width: 2.1;" transform="matrix(1.0, 0.0, 0.0, 1.0, -0.4000000000000057, -6.005999999999858)"><path d="M 0.0 0.0 L 0.8000000000000062 1.8369701987210297e-16 L 0.8000000000000114 6.000000000000046 L 0.0 5.999999999999999 L 0.0 -4.440892098500626e-16 Z" style="vector-effect: non-scaling-stroke;" /></g><g style="fill: #cccc9f;stroke: #cccc9f;stroke-width: 1.05;" transform="matrix(1.0, 0.0, 0.0, 1.0, -1.5, -1.0010000000000474)"><path d="M 0.0 0.0 L 3.000000000000023 -1.418023854522332e-14 L 3.0 0.9999999999999934 L 2.220446049250313e-16 1.0000000000000142 L 0.0 -1.1102230246251565e-16 Z" style="vector-effect: non-scaling-stroke;" /></g></g></g></g><g transform="matrix(1.0, 0.0, 0.0, 1.0, 14.0, 0.0)"><g><g style="fill: #000000;stroke: black;stroke-width: 2.1;" transform="matrix(1.0, 0.0, 0.0, 1.0, -0.4000000000000057, -6.005999999999858)"><path d="M 0.0 0.0 L 0.8000000000000062 1.8369701987210297e-16 L 0.8000000000000114 6.000000000000046 L 0.0 5.999999999999999 L 0.0 -4.440892098500626e-16 Z" style="vector-effect: non-scaling-stroke;" /></g><g style="fill: #db4105;stroke: #db4105;stroke-width: 1.05;" transform="matrix(1.0, 0.0, 0.0, 1.0, -2.000000000000057, -1.0009999999999195)"><path d="M 0.0 0.0 L 4.00000000000003 -1.418023854522332e-14 L 4.000000000000114 0.9999999999999934 L 5.639932965095795e-14 1.0000000000000142 L 0.0 -1.1102230246251565e-16 Z" style="vector-effect: non-scaling-stroke;" /></g></g></g></g></g><g transform="matrix(1.0, 0.0, 0.0, 1.0, 0.0, 45.0)"><g><g><g transform="matrix(1.0, 0.0, 0.0, 1.0, 0.0, 0.0)"><g><g style="fill: #000000;stroke: black;stroke-width: 2.1;" transform="matrix(1.0, 0.0, 0.0, 1.0, -0.4000000000000057, -6.005999999999858)"><path d="M 0.0 0.0 L 0.8000000000000062 1.8369701987210297e-16 L 0.8000000000000114 6.000000000000046 L 0.0 5.999999999999999 L 0.0 -4.440892098500626e-16 Z" style="vector-effect: non-scaling-stroke;" /></g><g style="fill: #9fb4cc;stroke: #9fb4cc;stroke-width: 1.05;" transform="matrix(1.0, 0.0, 0.0, 1.0, -1.0000000000000284, -1.0009999999999195)"><path d="M 0.0 0.0 L 2.000000000000015 -1.418023854522332e-14 L 2.000000000000057 0.9999999999999934 L 2.8199664825478976e-14 1.0000000000000142 L 0.0 -1.1102230246251565e-16 Z" style="vector-effect: non-scaling-stroke;" /></g></g></g><g style="fill: #000000;stroke: black;stroke-width: 2.1;" transform="matrix(1.0, 0.0, 0.0, 1.0, 6.599999999999994, -6.005999999999858)"><path d="M 0.0 0.0 L 0.8000000000000062 1.8369701987210297e-16 L 0.8000000000000114 6.000000000000046 L 0.0 5.999999999999999 L 0.0 -4.440892098500626e-16 Z" style="vector-effect: non-scaling-stroke;" /></g></g><g transform="matrix(1.0, 0.0, 0.0, 1.0, 14.0, 0.0)"><g><g style="fill: #000000;stroke: black;stroke-width: 2.1;" transform="matrix(1.0, 0.0, 0.0, 1.0, -0.4000000000000057, -6.005999999999858)"><path d="M 0.0 0.0 L 0.8000000000000062 1.8369701987210297e-16 L 0.8000000000000114 6.000000000000046 L 0.0 5.999999999999999 L 0.0 -4.440892098500626e-16 Z" style="vector-effect: non-scaling-stroke;" /></g><g transform="matrix(1.0, 0.0, 0.0, 1.0, -0.0, -1.5029999999998864)"><g><g style="fill: #cccc9f;stroke: #cccc9f;stroke-width: 1.05;" transform="matrix(1.0, 0.0, 0.0, 1.0, -1.5, -0.5)"><path d="M 0.0 0.0 L 3.000000000000023 -1.418023854522332e-14 L 3.0 0.9999999999999934 L 2.220446049250313e-16 1.0000000000000142 L 0.0 -1.1102230246251565e-16 Z" style="vector-effect: non-scaling-stroke;" /></g><g style="fill: #db4105;stroke: #db4105;stroke-width: 1.05;" transform="matrix(1.0, 0.0, 0.0, 1.0, -2.000000000000057, 0.5019999999999669)"><path d="M 0.0 0.0 L 4.00000000000003 -1.418023854522332e-14 L 4.000000000000114 0.9999999999999934 L 5.639932965095795e-14 1.0000000000000142 L 0.0 -1.1102230246251565e-16 Z" style="vector-effect: non-scaling-stroke;" /></g></g></g></g></g></g></g><g transform="matrix(1.0, 0.0, 0.0, 1.0, 0.0, 52.5)"><g><g><g style="fill: #000000;stroke: black;stroke-width: 2.1;" transform="matrix(1.0, 0.0, 0.0, 1.0, -0.4000000000000057, -6.005999999999858)"><path d="M 0.0 0.0 L 0.8000000000000062 1.8369701987210297e-16 L 0.8000000000000114 6.000000000000046 L 0.0 5.999999999999999 L 0.0 -4.440892098500626e-16 Z" style="vector-effect: non-scaling-stroke;" /></g><g style="fill: #000000;stroke: black;stroke-width: 2.1;" transform="matrix(1.0, 0.0, 0.0, 1.0, 6.599999999999994, -6.005999999999858)"><path d="M 0.0 0.0 L 0.8000000000000062 1.8369701987210297e-16 L 0.8000000000000114 6.000000000000046 L 0.0 5.999999999999999 L 0.0 -4.440892098500626e-16 Z" style="vector-effect: non-scaling-stroke;" /></g></g><g transform="matrix(1.0, 0.0, 0.0, 1.0, 14.0, 0.0)"><g><g style="fill: #000000;stroke: black;stroke-width: 2.1;" transform="matrix(1.0, 0.0, 0.0, 1.0, -0.4000000000000057, -6.005999999999858)"><path d="M 0.0 0.0 L 0.8000000000000062 1.8369701987210297e-16 L 0.8000000000000114 6.000000000000046 L 0.0 5.999999999999999 L 0.0 -4.440892098500626e-16 Z" style="vector-effect: non-scaling-stroke;" /></g><g transform="matrix(1.0, 0.0, 0.0, 1.0, -0.0, -2.5049999999998533)"><g><g style="fill: #9fb4cc;stroke: #9fb4cc;stroke-width: 1.05;" transform="matrix(1.0, 0.0, 0.0, 1.0, -1.0000000000000284, -0.5)"><path d="M 0.0 0.0 L 2.000000000000015 -1.418023854522332e-14 L 2.000000000000057 0.9999999999999934 L 2.8199664825478976e-14 1.0000000000000142 L 0.0 -1.1102230246251565e-16 Z" style="vector-effect: non-scaling-stroke;" /></g><g transform="matrix(1.0, 0.0, 0.0, 1.0, 0.0, 1.001999999999967)"><g><g style="fill: #cccc9f;stroke: #cccc9f;stroke-width: 1.05;" transform="matrix(1.0, 0.0, 0.0, 1.0, -1.5, -0.5)"><path d="M 0.0 0.0 L 3.000000000000023 -1.418023854522332e-14 L 3.0 0.9999999999999934 L 2.220446049250313e-16 1.0000000000000142 L 0.0 -1.1102230246251565e-16 Z" style="vector-effect: non-scaling-stroke;" /></g><g style="fill: #db4105;stroke: #db4105;stroke-width: 1.05;" transform="matrix(1.0, 0.0, 0.0, 1.0, -2.000000000000057, 0.5019999999999669)"><path d="M 0.0 0.0 L 4.00000000000003 -1.418023854522332e-14 L 4.000000000000114 0.9999999999999934 L 5.639932965095795e-14 1.0000000000000142 L 0.0 -1.1102230246251565e-16 Z" style="vector-effect: non-scaling-stroke;" /></g></g></g></g></g></g></g></g></g></g></g></g></svg>