<?xml version="1.0" encoding="utf-8" ?>
<svg baseProfile="full" height="700" version="1.1" width="215" xmlns="http://www.w3.org/2000/svg" xmlns:ev="http://www.w3.org/2001/xml-events" xmlns:xlink="http://www.w3.org/1999/xlink"><defs><marker id="arrow" markerHeight="3.5" markerWidth="5" orient="auto" refX="5.0" refY="1.7"><polygon points="0,0 5,1.75 0,3.5" /></marker></defs><g style="fill:white;" /><g style="fill: rgb(0.0 0.0 0.0);stroke: rgb(0.0 0.0 0.0); stroke-width: 0.1;fill-opacity: 1.0;" transform="matrix(11.370607772207038, 0.0, 0.0, 11.370607772207038, 23.357502485667837, 16.701148695818745)"><path d="M 0.0 0.0 L 0.8000000000000062 0.0 L 0.8000000000000114 6.000000000000046 L 0.0 6.0 L 0.0 4.440892098500626e-16 Z" style="vector-effect: non-scaling-stroke;" /></g><g style="fill: rgb(159.62352941176468 180.70588235294116 204.80000000000004);stroke: rgb(159.62352941176468 180.70588235294116 204.80000000000004); stroke-width: 0.05;fill-opacity: 1.0;" transform="matrix(11.370607772207038, 0.0, 0.0, 11.370607772207038, 16.53513782234336, 50.82434262021275)"><path d="M 0.0 0.0 L 2.000000000000015 -1.4210854715202004e-14 L 2.000000000000057 0.9999999999999934 L 2.8199664825478976e-14 1.0000000000000142 L 0.0 -1.1102230246251565e-16 Z" style="vector-effect: non-scaling-stroke;" /></g><g style="fill: rgb(204.80000000000004 204.80000000000004 159.62352941176468);stroke: rgb(204.80000000000004 204.80000000000004 159.62352941176468); stroke-width: 0.05;fill-opacity: 1.0;" transform="matrix(11.370607772207038, 0.0, 0.0, 11.370607772207038, 10.849833936240174, 62.2176916079643)"><path d="M 0.0 0.0 L 3.000000000000023 -1.4210854715202004e-14 L 3.0 0.9999999999999934 L 0.0 1.0000000000000142 L 0.0 -1.1102230246251565e-16 Z" style="vector-effect: non-scaling-stroke;" /></g><g style="fill: rgb(219.85882352941175 65.25490196078434 5.0196078431372655);stroke: rgb(219.85882352941175 65.25490196078434 5.0196078431372655); stroke-width: 0.05;fill-opacity: 1.0;" transform="matrix(11.370607772207038, 0.0, 0.0, 11.370607772207038, 5.164530050135994, 73.6110405957159)"><path d="M 0.0 0.0 L 4.00000000000003 -1.4210854715202004e-14 L 4.000000000000114 0.9999999999999934 L 5.639932965095795e-14 1.0000000000000142 L 0.0 -1.1102230246251565e-16 Z" style="vector-effect: non-scaling-stroke;" /></g><g style="fill: rgb(0.0 0.0 0.0);stroke: rgb(0.0 0.0 0.0); stroke-width: 0.1;fill-opacity: 1.0;" transform="matrix(11.370607772207038, 0.0, 0.0, 11.370607772207038, 102.9517568911171, 16.701148695818745)"><path d="M 0.0 0.0 L 0.8000000000000062 0.0 L 0.8000000000000114 6.000000000000046 L 0.0 6.0 L 0.0 4.440892098500626e-16 Z" style="vector-effect: non-scaling-stroke;" /></g><g style="fill: rgb(0.0 0.0 0.0);stroke: rgb(0.0 0.0 0.0); stroke-width: 0.1;fill-opacity: 1.0;" transform="matrix(11.370607772207038, 0.0, 0.0, 11.370607772207038, 182.54601129656638, 16.701148695818745)"><path d="M 0.0 0.0 L 0.8000000000000062 0.0 L 0.8000000000000114 6.000000000000046 L 0.0 6.0 L 0.0 4.440892098500626e-16 Z" style="vector-effect: non-scaling-stroke;" /></g><g style="fill: rgb(0.0 0.0 0.0);stroke: rgb(0.0 0.0 0.0); stroke-width: 0.1;fill-opacity: 1.0;" transform="matrix(11.370607772207038, 0.0, 0.0, 11.370607772207038, 23.357502485667837, 101.98070698737152)"><path d="M 0.0 0.0 L 0.8000000000000062 0.0 L 0.8000000000000114 6.000000000000046 L 0.0 6.0 L 0.0 4.440892098500626e-16 Z" style="vector-effect: non-scaling-stroke;" /></g><g style="fill: rgb(204.80000000000004 204.80000000000004 159.62352941176468);stroke: rgb(204.80000000000004 204.80000000000004 159.62352941176468); stroke-width: 0.05;fill-opacity: 1.0;" transform="matrix(11.370607772207038, 0.0, 0.0, 11.370607772207038, 10.849833936240174, 147.4972498995171)"><path d="M 0.0 0.0 L 3.000000000000023 -1.4210854715202004e-14 L 3.0 0.9999999999999934 L 0.0 1.0000000000000142 L 0.0 -1.1102230246251565e-16 Z" style="vector-effect: non-scaling-stroke;" /></g><g style="fill: rgb(219.85882352941175 65.25490196078434 5.0196078431372655);stroke: rgb(219.85882352941175 65.25490196078434 5.0196078431372655); stroke-width: 0.05;fill-opacity: 1.0;" transform="matrix(11.370607772207038, 0.0, 0.0, 11.370607772207038, 5.164530050135994, 158.89059888726865)"><path d="M 0.0 0.0 L 4.00000000000003 -1.4210854715202004e-14 L 4.000000000000114 0.9999999999999934 L 5.639932965095795e-14 1.0000000000000142 L 0.0 -1.1102230246251565e-16 Z" style="vector-effect: non-scaling-stroke;" /></g><g style="fill: rgb(0.0 0.0 0.0);stroke: rgb(0.0 0.0 0.0); stroke-width: 0.1;fill-opacity: 1.0;" transform="matrix(11.370607772207038, 0.0, 0.0, 11.370607772207038, 102.9517568911171, 101.98070698737152)"><path d="M 0.0 0.0 L 0.8000000000000062 0.0 L 0.8000000000000114 6.000000000000046 L 0.0 6.0 L 0.0 4.440892098500626e-16 Z" style="vector-effect: non-scaling-stroke;" /></g><g style="fill: rgb(0.0 0.0 0.0);stroke: rgb(0.0 0.0 0.0); stroke-width: 0.1;fill-opacity: 1.0;" transform="matrix(11.370607772207038, 0.0, 0.0, 11.370607772207038, 182.54601129656638, 101.98070698737152)"><path d="M 0.0 0.0 L 0.8000000000000062 0.0 L 0.8000000000000114 6.000000000000046 L 0.0 6.0 L 0.0 4.440892098500626e-16 Z" style="vector-effect: non-scaling-stroke;" /></g><g style="fill: rgb(159.62352941176468 180.70588235294116 204.80000000000004);stroke: rgb(159.62352941176468 180.70588235294116 204.80000000000004); stroke-width: 0.05;fill-opacity: 1.0;" transform="matrix(11.370607772207038, 0.0, 0.0, 11.370607772207038, 175.72364663324188, 158.89059888726865)"><path d="M 0.0 0.0 L 2.000000000000015 -1.4210854715202004e-14 L 2.000000000000057 0.9999999999999934 L 2.8199664825478976e-14 1.0000000000000142 L 0.0 -1.1102230246251565e-16 Z" style="vector-effect: non-scaling-stroke;" /></g><g style="fill: rgb(0.0 0.0 0.0);stroke: rgb(0.0 0.0 0.0); stroke-width: 0.1;fill-opacity: 1.0;" transform="matrix(11.370607772207038, 0.0, 0.0, 11.370607772207038, 23.357502485667837, 187.2602652789243)"><path d="M 0.0 0.0 L 0.8000000000000062 0.0 L 0.8000000000000114 6.000000000000046 L 0.0 6.0 L 0.0 4.440892098500626e-16 Z" style="vector-effect: non-scaling-stroke;" /></g><g style="fill: rgb(219.85882352941175 65.25490196078434 5.0196078431372655);stroke: rgb(219.85882352941175 65.25490196078434 5.0196078431372655); stroke-width: 0.05;fill-opacity: 1.0;" transform="matrix(11.370607772207038, 0.0, 0.0, 11.370607772207038, 5.164530050135994, 244.17015717882146)"><path d="M 0.0 0.0 L 4.00000000000003 -1.4210854715202004e-14 L 4.000000000000114 0.9999999999999934 L 5.639932965095795e-14 1.0000000000000142 L 0.0 -1.1102230246251565e-16 Z" style="vector-effect: non-scaling-stroke;" /></g><g style="fill: rgb(0.0 0.0 0.0);stroke: rgb(0.0 0.0 0.0); stroke-width: 0.1;fill-opacity: 1.0;" transform="matrix(11.370607772207038, 0.0, 0.0, 11.370607772207038, 102.9517568911171, 187.2602652789243)"><path d="M 0.0 0.0 L 0.8000000000000062 0.0 L 0.8000000000000114 6.000000000000046 L 0.0 6.0 L 0.0 4.440892098500626e-16 Z" style="vector-effect: non-scaling-stroke;" /></g><g style="fill: rgb(204.80000000000004 204.80000000000004 159.62352941176468);stroke: rgb(204.80000000000004 204.80000000000004 159.62352941176468); stroke-width: 0.05;fill-opacity: 1.0;" transform="matrix(11.370607772207038, 0.0, 0.0, 11.370607772207038, 90.44408834168942, 244.17015717882146)"><path d="M 0.0 0.0 L 3.000000000000023 -1.4210854715202004e-14 L 3.0 0.9999999999999934 L 0.0 1.0000000000000142 L 0.0 -1.1102230246251565e-16 Z" style="vector-effect: non-scaling-stroke;" /></g><g style="fill: rgb(0.0 0.0 0.0);stroke: rgb(0.0 0.0 0.0); stroke-width: 0.1;fill-opacity: 1.0;" transform="matrix(11.370607772207038, 0.0, 0.0, 11.370607772207038, 182.54601129656638, 187.2602652789243)"><path d="M 0.0 0.0 L 0.8000000000000062 0.0 L 0.8000000000000114 6.000000000000046 L 0.0 6.0 L 0.0 4.440892098500626e-16 Z" style="vector-effect: non-scaling-stroke;" /></g><g style="fill: rgb(159.62352941176468 180.70588235294116 204.80000000000004);stroke: rgb(159.62352941176468 180.70588235294116 204.80000000000004); stroke-width: 0.05;fill-opacity: 1.0;" transform="matrix(11.370607772207038, 0.0, 0.0, 11.370607772207038, 175.72364663324188, 244.17015717882146)"><path d="M 0.0 0.0 L 2.000000000000015 -1.4210854715202004e-14 L 2.000000000000057 0.9999999999999934 L 2.8199664825478976e-14 1.0000000000000142 L 0.0 -1.1102230246251565e-16 Z" style="vector-effect: non-scaling-stroke;" /></g><g style="fill: rgb(0.0 0.0 0.0);stroke: rgb(0.0 0.0 0.0); stroke-width: 0.1;fill-opacity: 1.0;" transform="matrix(11.370607772207038, 0.0, 0.0, 11.370607772207038, 23.357502485667837, 272.5398235704771)"><path d="M 0.0 0.0 L 0.8000000000000062 0.0 L 0.8000000000000114 6.000000000000046 L 0.0 6.0 L 0.0 4.440892098500626e-16 Z" style="vector-effect: non-scaling-stroke;" /></g><g style="fill: rgb(219.85882352941175 65.25490196078434 5.0196078431372655);stroke: rgb(219.85882352941175 65.25490196078434 5.0196078431372655); stroke-width: 0.05;fill-opacity: 1.0;" transform="matrix(11.370607772207038, 0.0, 0.0, 11.370607772207038, 5.164530050135994, 329.44971547037426)"><path d="M 0.0 0.0 L 4.00000000000003 -1.4210854715202004e-14 L 4.000000000000114 0.9999999999999934 L 5.639932965095795e-14 1.0000000000000142 L 0.0 -1.1102230246251565e-16 Z" style="vector-effect: non-scaling-stroke;" /></g><g style="fill: rgb(0.0 0.0 0.0);stroke: rgb(0.0 0.0 0.0); stroke-width: 0.1;fill-opacity: 1.0;" transform="matrix(11.370607772207038, 0.0, 0.0, 11.370607772207038, 102.9517568911171, 272.5398235704771)"><path d="M 0.0 0.0 L 0.8000000000000062 0.0 L 0.8000000000000114 6.000000000000046 L 0.0 6.0 L 0.0 4.440892098500626e-16 Z" style="vector-effect: non-scaling-stroke;" /></g><g style="fill: rgb(159.62352941176468 180.70588235294116 204.80000000000004);stroke: rgb(159.62352941176468 180.70588235294116 204.80000000000004); stroke-width: 0.05;fill-opacity: 1.0;" transform="matrix(11.370607772207038, 0.0, 0.0, 11.370607772207038, 96.12939222779262, 318.0563664826227)"><path d="M 0.0 0.0 L 2.000000000000015 -1.4210854715202004e-14 L 2.000000000000057 0.9999999999999934 L 2.8199664825478976e-14 1.0000000000000142 L 0.0 -1.1102230246251565e-16 Z" style="vector-effect: non-scaling-stroke;" /></g><g style="fill: rgb(204.80000000000004 204.80000000000004 159.62352941176468);stroke: rgb(204.80000000000004 204.80000000000004 159.62352941176468); stroke-width: 0.05;fill-opacity: 1.0;" transform="matrix(11.370607772207038, 0.0, 0.0, 11.370607772207038, 90.44408834168942, 329.44971547037426)"><path d="M 0.0 0.0 L 3.000000000000023 -1.4210854715202004e-14 L 3.0 0.9999999999999934 L 0.0 1.0000000000000142 L 0.0 -1.1102230246251565e-16 Z" style="vector-effect: non-scaling-stroke;" /></g><g style="fill: rgb(0.0 0.0 0.0);stroke: rgb(0.0 0.0 0.0); stroke-width: 0.1;fill-opacity: 1.0;" transform="matrix(11.370607772207038, 0.0, 0.0, 11.370607772207038, 182.54601129656638, 272.5398235704771)"><path d="M 0.0 0.0 L 0.8000000000000062 0.0 L 0.8000000000000114 6.000000000000046 L 0.0 6.0 L 0.0 4.440892098500626e-16 Z" style="vector-effect: non-scaling-stroke;" /></g><g style="fill: rgb(0.0 0.0 0.0);stroke: rgb(0.0 0.0 0.0); stroke-width: 0.1;fill-opacity: 1.0;" transform="matrix(11.370607772207038, 0.0, 0.0, 11.370607772207038, 23.357502485667837, 357.81938186202984)"><path d="M 0.0 0.0 L 0.8000000000000062 0.0 L 0.8000000000000114 6.000000000000046 L 0.0 6.0 L 0.0 4.440892098500626e-16 Z" style="vector-effect: non-scaling-stroke;" /></g><g style="fill: rgb(0.0 0.0 0.0);stroke: rgb(0.0 0.0 0.0); stroke-width: 0.1;fill-opacity: 1.0;" transform="matrix(11.370607772207038, 0.0, 0.0, 11.370607772207038, 102.9517568911171, 357.81938186202984)"><path d="M 0.0 0.0 L 0.8000000000000062 0.0 L 0.8000000000000114 6.000000000000046 L 0.0 6.0 L 0.0 4.440892098500626e-16 Z" style="vector-effect: non-scaling-stroke;" /></g><g style="fill: rgb(159.62352941176468 180.70588235294116 204.80000000000004);stroke: rgb(159.62352941176468 180.70588235294116 204.80000000000004); stroke-width: 0.05;fill-opacity: 1.0;" transform="matrix(11.370607772207038, 0.0, 0.0, 11.370607772207038, 96.12939222779262, 403.33592477417545)"><path d="M 0.0 0.0 L 2.000000000000015 -1.4210854715202004e-14 L 2.000000000000057 0.9999999999999934 L 2.8199664825478976e-14 1.0000000000000142 L 0.0 -1.1102230246251565e-16 Z" style="vector-effect: non-scaling-stroke;" /></g><g style="fill: rgb(204.80000000000004 204.80000000000004 159.62352941176468);stroke: rgb(204.80000000000004 204.80000000000004 159.62352941176468); stroke-width: 0.05;fill-opacity: 1.0;" transform="matrix(11.370607772207038, 0.0, 0.0, 11.370607772207038, 90.44408834168942, 414.729273761927)"><path d="M 0.0 0.0 L 3.000000000000023 -1.4210854715202004e-14 L 3.0 0.9999999999999934 L 0.0 1.0000000000000142 L 0.0 -1.1102230246251565e-16 Z" style="vector-effect: non-scaling-stroke;" /></g><g style="fill: rgb(0.0 0.0 0.0);stroke: rgb(0.0 0.0 0.0); stroke-width: 0.1;fill-opacity: 1.0;" transform="matrix(11.370607772207038, 0.0, 0.0, 11.370607772207038, 182.54601129656638, 357.81938186202984)"><path d="M 0.0 0.0 L 0.8000000000000062 0.0 L 0.8000000000000114 6.000000000000046 L 0.0 6.0 L 0.0 4.440892098500626e-16 Z" style="vector-effect: non-scaling-stroke;" /></g><g style="fill: rgb(219.85882352941175 65.25490196078434 5.0196078431372655);stroke: rgb(219.85882352941175 65.25490196078434 5.0196078431372655); stroke-width: 0.05;fill-opacity: 1.0;" transform="matrix(11.370607772207038, 0.0, 0.0, 11.370607772207038, 164.35303886103452, 414.729273761927)"><path d="M 0.0 0.0 L 4.00000000000003 -1.4210854715202004e-14 L 4.000000000000114 0.9999999999999934 L 5.639932965095795e-14 1.0000000000000142 L 0.0 -1.1102230246251565e-16 Z" style="vector-effect: non-scaling-stroke;" /></g><g style="fill: rgb(0.0 0.0 0.0);stroke: rgb(0.0 0.0 0.0); stroke-width: 0.1;fill-opacity: 1.0;" transform="matrix(11.370607772207038, 0.0, 0.0, 11.370607772207038, 23.357502485667837, 443.09894015358265)"><path d="M 0.0 0.0 L 0.8000000000000062 0.0 L 0.8000000000000114 6.000000000000046 L 0.0 6.0 L 0.0 4.440892098500626e-16 Z" style="vector-effect: non-scaling-stroke;" /></g><g style="fill: rgb(159.62352941176468 180.70588235294116 204.80000000000004);stroke: rgb(159.62352941176468 180.70588235294116 204.80000000000004); stroke-width: 0.05;fill-opacity: 1.0;" transform="matrix(11.370607772207038, 0.0, 0.0, 11.370607772207038, 16.53513782234336, 500.0088320534798)"><path d="M 0.0 0.0 L 2.000000000000015 -1.4210854715202004e-14 L 2.000000000000057 0.9999999999999934 L 2.8199664825478976e-14 1.0000000000000142 L 0.0 -1.1102230246251565e-16 Z" style="vector-effect: non-scaling-stroke;" /></g><g style="fill: rgb(0.0 0.0 0.0);stroke: rgb(0.0 0.0 0.0); stroke-width: 0.1;fill-opacity: 1.0;" transform="matrix(11.370607772207038, 0.0, 0.0, 11.370607772207038, 102.9517568911171, 443.09894015358265)"><path d="M 0.0 0.0 L 0.8000000000000062 0.0 L 0.8000000000000114 6.000000000000046 L 0.0 6.0 L 0.0 4.440892098500626e-16 Z" style="vector-effect: non-scaling-stroke;" /></g><g style="fill: rgb(204.80000000000004 204.80000000000004 159.62352941176468);stroke: rgb(204.80000000000004 204.80000000000004 159.62352941176468); stroke-width: 0.05;fill-opacity: 1.0;" transform="matrix(11.370607772207038, 0.0, 0.0, 11.370607772207038, 90.44408834168942, 500.0088320534798)"><path d="M 0.0 0.0 L 3.000000000000023 -1.4210854715202004e-14 L 3.0 0.9999999999999934 L 0.0 1.0000000000000142 L 0.0 -1.1102230246251565e-16 Z" style="vector-effect: non-scaling-stroke;" /></g><g style="fill: rgb(0.0 0.0 0.0);stroke: rgb(0.0 0.0 0.0); stroke-width: 0.1;fill-opacity: 1.0;" transform="matrix(11.370607772207038, 0.0, 0.0, 11.370607772207038, 182.54601129656638, 443.09894015358265)"><path d="M 0.0 0.0 L 0.8000000000000062 0.0 L 0.8000000000000114 6.000000000000046 L 0.0 6.0 L 0.0 4.440892098500626e-16 Z" style="vector-effect: non-scaling-stroke;" /></g><g style="fill: rgb(219.85882352941175 65.25490196078434 5.0196078431372655);stroke: rgb(219.85882352941175 65.25490196078434 5.0196078431372655); stroke-width: 0.05;fill-opacity: 1.0;" transform="matrix(11.370607772207038, 0.0, 0.0, 11.370607772207038, 164.35303886103452, 500.0088320534798)"><path d="M 0.0 0.0 L 4.00000000000003 -1.4210854715202004e-14 L 4.000000000000114 0.9999999999999934 L 5.639932965095795e-14 1.0000000000000142 L 0.0 -1.1102230246251565e-16 Z" style="vector-effect: non-scaling-stroke;" /></g><g style="fill: rgb(0.0 0.0 0.0);stroke: rgb(0.0 0.0 0.0); stroke-width: 0.1;fill-opacity: 1.0;" transform="matrix(11.370607772207038, 0.0, 0.0, 11.370607772207038, 23.357502485667837, 528.3784984451354)"><path d="M 0.0 0.0 L 0.8000000000000062 0.0 L 0.8000000000000114 6.000000000000046 L 0.0 6.0 L 0.0 4.440892098500626e-16 Z" style="vector-effect: non-scaling-stroke;" /></g><g style="fill: rgb(159.62352941176468 180.70588235294116 204.80000000000004);stroke: rgb(159.62352941176468 180.70588235294116 204.80000000000004); stroke-width: 0.05;fill-opacity: 1.0;" transform="matrix(11.370607772207038, 0.0, 0.0, 11.370607772207038, 16.53513782234336, 585.2883903450326)"><path d="M 0.0 0.0 L 2.000000000000015 -1.4210854715202004e-14 L 2.000000000000057 0.9999999999999934 L 2.8199664825478976e-14 1.0000000000000142 L 0.0 -1.1102230246251565e-16 Z" style="vector-effect: non-scaling-stroke;" /></g><g style="fill: rgb(0.0 0.0 0.0);stroke: rgb(0.0 0.0 0.0); stroke-width: 0.1;fill-opacity: 1.0;" transform="matrix(11.370607772207038, 0.0, 0.0, 11.370607772207038, 102.9517568911171, 528.3784984451354)"><path d="M 0.0 0.0 L 0.8000000000000062 0.0 L 0.8000000000000114 6.000000000000046 L 0.0 6.0 L 0.0 4.440892098500626e-16 Z" style="vector-effect: non-scaling-stroke;" /></g><g style="fill: rgb(0.0 0.0 0.0);stroke: rgb(0.0 0.0 0.0); stroke-width: 0.1;fill-opacity: 1.0;" transform="matrix(11.370607772207038, 0.0, 0.0, 11.370607772207038, 182.54601129656638, 528.3784984451354)"><path d="M 0.0 0.0 L 0.8000000000000062 0.0 L 0.8000000000000114 6.000000000000046 L 0.0 6.0 L 0.0 4.440892098500626e-16 Z" style="vector-effect: non-scaling-stroke;" /></g><g style="fill: rgb(204.80000000000004 204.80000000000004 159.62352941176468);stroke: rgb(204.80000000000004 204.80000000000004 159.62352941176468); stroke-width: 0.05;fill-opacity: 1.0;" transform="matrix(11.370607772207038, 0.0, 0.0, 11.370607772207038, 170.0383427471387, 573.895041357281)"><path d="M 0.0 0.0 L 3.000000000000023 -1.4210854715202004e-14 L 3.0 0.9999999999999934 L 0.0 1.0000000000000142 L 0.0 -1.1102230246251565e-16 Z" style="vector-effect: non-scaling-stroke;" /></g><g style="fill: rgb(219.85882352941175 65.25490196078434 5.0196078431372655);stroke: rgb(219.85882352941175 65.25490196078434 5.0196078431372655); stroke-width: 0.05;fill-opacity: 1.0;" transform="matrix(11.370607772207038, 0.0, 0.0, 11.370607772207038, 164.35303886103452, 585.2883903450326)"><path d="M 0.0 0.0 L 4.00000000000003 -1.4210854715202004e-14 L 4.000000000000114 0.9999999999999934 L 5.639932965095795e-14 1.0000000000000142 L 0.0 -1.1102230246251565e-16 Z" style="vector-effect: non-scaling-stroke;" /></g><g style="fill: rgb(0.0 0.0 0.0);stroke: rgb(0.0 0.0 0.0); stroke-width: 0.1;fill-opacity: 1.0;" transform="matrix(11.370607772207038, 0.0, 0.0, 11.370607772207038, 23.357502485667837, 613.6580567366882)"><path d="M 0.0 0.0 L 0.8000000000000062 0.0 L 0.8000000000000114 6.000000000000046 L 0.0 6.0 L 0.0 4.440892098500626e-16 Z" style="vector-effect: non-scaling-stroke;" /></g><g style="fill: rgb(0.0 0.0 0.0);stroke: rgb(0.0 0.0 0.0); stroke-width: 0.1;fill-opacity: 1.0;" transform="matrix(11.370607772207038, 0.0, 0.0, 11.370607772207038, 102.9517568911171, 613.6580567366882)"><path d="M 0.0 0.0 L 0.8000000000000062 0.0 L 0.8000000000000114 6.000000000000046 L 0.0 6.0 L 0.0 4.440892098500626e-16 Z" style="vector-effect: non-scaling-stroke;" /></g><g style="fill: rgb(0.0 0.0 0.0);stroke: rgb(0.0 0.0 0.0); stroke-width: 0.1;fill-opacity: 1.0;" transform="matrix(11.370607772207038, 0.0, 0.0, 11.370607772207038, 182.54601129656638, 613.6580567366882)"><path d="M 0.0 0.0 L 0.8000000000000062 0.0 L 0.8000000000000114 6.000000000000046 L 0.0 6.0 L 0.0 4.440892098500626e-16 Z" style="vector-effect: non-scaling-stroke;" /></g><g style="fill: rgb(159.62352941176468 180.70588235294116 204.80000000000004);stroke: rgb(159.62352941176468 180.70588235294116 204.80000000000004); stroke-width: 0.05;fill-opacity: 1.0;" transform="matrix(11.370607772207038, 0.0, 0.0, 11.370607772207038, 175.72364663324188, 647.7812506610821)"><path d="M 0.0 0.0 L 2.000000000000015 -1.4210854715202004e-14 L 2.000000000000057 0.9999999999999934 L 2.8199664825478976e-14 1.0000000000000142 L 0.0 -1.1102230246251565e-16 Z" style="vector-effect: non-scaling-stroke;" /></g><g style="fill: rgb(204.80000000000004 204.80000000000004 159.62352941176468);stroke: rgb(204.80000000000004 204.80000000000004 159.62352941176468); stroke-width: 0.05;fill-opacity: 1.0;" transform="matrix(11.370607772207038, 0.0, 0.0, 11.370607772207038, 170.0383427471387, 659.1745996488337)"><path d="M 0.0 0.0 L 3.000000000000023 -1.4210854715202004e-14 L 3.0 0.9999999999999934 L 0.0 1.0000000000000142 L 0.0 -1.1102230246251565e-16 Z" style="vector-effect: non-scaling-stroke;" /></g><g style="fill: rgb(219.85882352941175 65.25490196078434 5.0196078431372655);stroke: rgb(219.85882352941175 65.25490196078434 5.0196078431372655); stroke-width: 0.05;fill-opacity: 1.0;" transform="matrix(11.370607772207038, 0.0, 0.0, 11.370607772207038, 164.35303886103452, 670.5679486365852)"><path d="M 0.0 0.0 L 4.00000000000003 -1.4210854715202004e-14 L 4.000000000000114 0.9999999999999934 L 5.639932965095795e-14 1.0000000000000142 L 0.0 -1.1102230246251565e-16 Z" style="vector-effect: non-scaling-stroke;" /></g></svg>