<?xml version="1.0" encoding="utf-8" ?>
<svg baseProfile="full" height="700" version="1.1" width="215" xmlns="http://www.w3.org/2000/svg" xmlns:ev="http://www.w3.org/2001/xml-events" xmlns:xlink="http://www.w3.org/1999/xlink"><defs><marker id="arrow" markerHeight="3.5" markerWidth="5" orient="auto" refX="5.0" refY="1.7"><polygon points="0,0 5,1.75 0,3.5" /></marker></defs><g style="fill:white;"><g transform="matrix(11.370630264282227, 0.0, 0.0, 11.370630264282227, 107.50000762939453, 349.2911682128906)"><g><g transform="matrix(1.0, 0.0, 0.0, 1.0, -7.0, -23.24407958984375)"><g><g transform="matrix(1.0, 0.0, 0.0, 1.0, 0.0, 0.0)"><g><g transform="matrix(1.0, 0.0, 0.0, 1.0, 0.0, 0.0)"><g><g style="fill: #000000;stroke: black;stroke-width: 2.1;" transform="matrix(1.0, 0.0, 0.0, 1.0, -0.3999977111816406, -6.00592041015625)"><path d="M 0.0 0.0 A 747.825439453125 99.7100601196289 -89.99999237060547 0 1 0.7999956607818604 6.103515625e-05 A 99.7100601196289 747.825439453125 0.0 0 1 0.7999954223632812 6.000028610229492 A 747.825439453125 99.7100601196289 90.0 0 1 -2.9802322387695312e-08 5.99993896484375 A 99.7100601196289 747.825439453125 179.9999542236328 0 1 0.0 4.76837158203125e-07 Z" style="vector-effect: non-scaling-stroke;" /></g><g transform="matrix(1.0, 0.0, 0.0, 1.0, -0.0, -2.5049781799316406)"><g><g style="fill: #9fb4cc;stroke: #9fb4cc;stroke-width: 1.05;" transform="matrix(1.0, 0.0, 0.0, 1.0, -0.9999923706054688, -0.4999961853027344)"><path d="M 0.0 0.0 A 124.6375732421875 249.275146484375 -90.0 0 1 1.9999891519546509 0.0 A 249.275146484375 124.6375732421875 0.0 0 1 1.9999847412109375 0.9999945163726807 A 124.6375732421875 249.275146484375 89.9999771118164 0 1 0.0 0.9999923706054688 A 249.275146484375 124.6375732421875 179.99998474121094 0 1 0.0 -2.9802322387695312e-08 Z" style="vector-effect: non-scaling-stroke;" /></g><g transform="matrix(-4.371138828673793e-08, -1.0, 1.0, -4.371138828673793e-08, 0.0, 0.5009956359863281)"><g /></g><g transform="matrix(1.0, 0.0, 0.0, 1.0, 0.0, 1.0019912719726562)"><g><g style="fill: #cccc9f;stroke: #cccc9f;stroke-width: 1.05;" transform="matrix(1.0, 0.0, 0.0, 1.0, -1.499969482421875, -0.4999961853027344)"><path d="M 0.0 0.0 A 124.6375732421875 373.9127197265625 -90.0 0 1 2.999983787536621 0.0 A 373.9127197265625 124.6375732421875 0.0 0 1 2.99993896484375 0.9999945163726807 A 124.6375732421875 373.9127197265625 89.99996948242188 0 1 -3.039836883544922e-05 0.9999923706054688 A 373.9127197265625 124.6375732421875 180.0 0 1 0.0 -2.9802322387695312e-08 Z" style="vector-effect: non-scaling-stroke;" /></g><g transform="matrix(-4.371138828673793e-08, -1.0, 1.0, -4.371138828673793e-08, 0.0, 0.5009956359863281)"><g /></g><g style="fill: #db4105;stroke: #db4105;stroke-width: 1.05;" transform="matrix(1.0, 0.0, 0.0, 1.0, -1.9999847412109375, 0.5019950866699219)"><path d="M 0.0 0.0 A 124.6375732421875 498.55029296875 -90.00000762939453 0 1 3.9999783039093018 0.0 A 498.55029296875 124.6375732421875 0.0 0 1 3.999969482421875 0.9999945163726807 A 124.6375732421875 498.55029296875 89.99996948242188 0 1 0.0 0.9999923706054688 A 498.55029296875 124.6375732421875 180.0 0 1 0.0 -2.9802322387695312e-08 Z" style="vector-effect: non-scaling-stroke;" /></g></g></g></g></g></g></g><g transform="matrix(1.0, 0.0, 0.0, 1.0, 7.0, 0.0)"><g><g style="fill: #000000;stroke: black;stroke-width: 2.1;" transform="matrix(1.0, 0.0, 0.0, 1.0, -0.3999977111816406, -6.00592041015625)"><path d="M 0.0 0.0 A 747.825439453125 99.7100601196289 -89.99999237060547 0 1 0.7999956607818604 6.103515625e-05 A 99.7100601196289 747.825439453125 0.0 0 1 0.7999954223632812 6.000028610229492 A 747.825439453125 99.7100601196289 90.0 0 1 -2.9802322387695312e-08 5.99993896484375 A 99.7100601196289 747.825439453125 179.9999542236328 0 1 0.0 4.76837158203125e-07 Z" style="vector-effect: non-scaling-stroke;" /></g><g transform="matrix(1.0, 0.0, 0.0, 1.0, -0.0, -0.0)"><g /></g></g></g><g transform="matrix(1.0, 0.0, 0.0, 1.0, 14.0, 0.0)"><g><g style="fill: #000000;stroke: black;stroke-width: 2.1;" transform="matrix(1.0, 0.0, 0.0, 1.0, -0.3999977111816406, -6.00592041015625)"><path d="M 0.0 0.0 A 747.825439453125 99.7100601196289 -89.99999237060547 0 1 0.7999956607818604 6.103515625e-05 A 99.7100601196289 747.825439453125 0.0 0 1 0.7999954223632812 6.000028610229492 A 747.825439453125 99.7100601196289 90.0 0 1 -2.9802322387695312e-08 5.99993896484375 A 99.7100601196289 747.825439453125 179.9999542236328 0 1 0.0 4.76837158203125e-07 Z" style="vector-effect: non-scaling-stroke;" /></g><g transform="matrix(1.0, 0.0, 0.0, 1.0, -0.0, -0.0)"><g /></g></g></g></g></g><g transform="matrix(1.0, 0.0, 0.0, 1.0, 0.0, 7.5)"><g><g transform="matrix(1.0, 0.0, 0.0, 1.0, 0.0, 0.0)"><g><g style="fill: #000000;stroke: black;stroke-width: 2.1;" transform="matrix(1.0, 0.0, 0.0, 1.0, -0.3999977111816406, -6.00592041015625)"><path d="M 0.0 0.0 A 747.825439453125 99.7100601196289 -89.99999237060547 0 1 0.7999956607818604 6.103515625e-05 A 99.7100601196289 747.825439453125 0.0 0 1 0.7999954223632812 6.000028610229492 A 747.825439453125 99.7100601196289 90.0 0 1 -2.9802322387695312e-08 5.99993896484375 A 99.7100601196289 747.825439453125 179.9999542236328 0 1 0.0 4.76837158203125e-07 Z" style="vector-effect: non-scaling-stroke;" /></g><g transform="matrix(1.0, 0.0, 0.0, 1.0, -0.0, -1.5029869079589844)"><g><g style="fill: #cccc9f;stroke: #cccc9f;stroke-width: 1.05;" transform="matrix(1.0, 0.0, 0.0, 1.0, -1.499969482421875, -0.4999961853027344)"><path d="M 0.0 0.0 A 124.6375732421875 373.9127197265625 -90.0 0 1 2.999983787536621 0.0 A 373.9127197265625 124.6375732421875 0.0 0 1 2.99993896484375 0.9999945163726807 A 124.6375732421875 373.9127197265625 89.99996948242188 0 1 -3.039836883544922e-05 0.9999923706054688 A 373.9127197265625 124.6375732421875 180.0 0 1 0.0 -2.9802322387695312e-08 Z" style="vector-effect: non-scaling-stroke;" /></g><g transform="matrix(-4.371138828673793e-08, -1.0, 1.0, -4.371138828673793e-08, 0.0, 0.5009956359863281)"><g /></g><g style="fill: #db4105;stroke: #db4105;stroke-width: 1.05;" transform="matrix(1.0, 0.0, 0.0, 1.0, -1.9999847412109375, 0.5019950866699219)"><path d="M 0.0 0.0 A 124.6375732421875 498.55029296875 -90.00000762939453 0 1 3.9999783039093018 0.0 A 498.55029296875 124.6375732421875 0.0 0 1 3.999969482421875 0.9999945163726807 A 124.6375732421875 498.55029296875 89.99996948242188 0 1 0.0 0.9999923706054688 A 498.55029296875 124.6375732421875 180.0 0 1 0.0 -2.9802322387695312e-08 Z" style="vector-effect: non-scaling-stroke;" /></g></g></g></g></g><g transform="matrix(1.0, 0.0, 0.0, 1.0, 7.0, 0.0)"><g><g style="fill: #000000;stroke: black;stroke-width: 2.1;" transform="matrix(1.0, 0.0, 0.0, 1.0, -0.3999977111816406, -6.00592041015625)"><path d="M 0.0 0.0 A 747.825439453125 99.7100601196289 -89.99999237060547 0 1 0.7999956607818604 6.103515625e-05 A 99.7100601196289 747.825439453125 0.0 0 1 0.7999954223632812 6.000028610229492 A 747.825439453125 99.7100601196289 90.0 0 1 -2.9802322387695312e-08 5.99993896484375 A 99.7100601196289 747.825439453125 179.9999542236328 0 1 0.0 4.76837158203125e-07 Z" style="vector-effect: non-scaling-stroke;" /></g><g transform="matrix(1.0, 0.0, 0.0, 1.0, -0.0, -0.0)"><g /></g></g></g><g transform="matrix(1.0, 0.0, 0.0, 1.0, 14.0, 0.0)"><g><g style="fill: #000000;stroke: black;stroke-width: 2.1;" transform="matrix(1.0, 0.0, 0.0, 1.0, -0.3999977111816406, -6.00592041015625)"><path d="M 0.0 0.0 A 747.825439453125 99.7100601196289 -89.99999237060547 0 1 0.7999956607818604 6.103515625e-05 A 99.7100601196289 747.825439453125 0.0 0 1 0.7999954223632812 6.000028610229492 A 747.825439453125 99.7100601196289 90.0 0 1 -2.9802322387695312e-08 5.99993896484375 A 99.7100601196289 747.825439453125 179.9999542236328 0 1 0.0 4.76837158203125e-07 Z" style="vector-effect: non-scaling-stroke;" /></g><g transform="matrix(1.0, 0.0, 0.0, 1.0, -0.0, -0.5009956359863281)"><g><g style="fill: #9fb4cc;stroke: #9fb4cc;stroke-width: 1.05;" transform="matrix(1.0, 0.0, 0.0, 1.0, -0.9999923706054688, -0.4999961853027344)"><path d="M 0.0 0.0 A 124.6375732421875 249.275146484375 -90.0 0 1 1.9999891519546509 0.0 A 249.275146484375 124.6375732421875 0.0 0 1 1.9999847412109375 0.9999945163726807 A 124.6375732421875 249.275146484375 89.9999771118164 0 1 0.0 0.9999923706054688 A 249.275146484375 124.6375732421875 179.99998474121094 0 1 0.0 -2.9802322387695312e-08 Z" style="vector-effect: non-scaling-stroke;" /></g><g transform="matrix(-4.371138828673793e-08, -1.0, 1.0, -4.371138828673793e-08, 0.0, 0.5009956359863281)"><g /></g><g transform="matrix(1.0, 0.0, 0.0, 1.0, 0.0, 0.5009956359863281)"><g /></g></g></g></g></g></g></g><g transform="matrix(1.0, 0.0, 0.0, 1.0, 0.0, 15.0)"><g><g transform="matrix(1.0, 0.0, 0.0, 1.0, 0.0, 0.0)"><g><g style="fill: #000000;stroke: black;stroke-width: 2.1;" transform="matrix(1.0, 0.0, 0.0, 1.0, -0.3999977111816406, -6.00592041015625)"><path d="M 0.0 0.0 A 747.825439453125 99.7100601196289 -89.99999237060547 0 1 0.7999956607818604 6.103515625e-05 A 99.7100601196289 747.825439453125 0.0 0 1 0.7999954223632812 6.000028610229492 A 747.825439453125 99.7100601196289 90.0 0 1 -2.9802322387695312e-08 5.99993896484375 A 99.7100601196289 747.825439453125 179.9999542236328 0 1 0.0 4.76837158203125e-07 Z" style="vector-effect: non-scaling-stroke;" /></g><g transform="matrix(1.0, 0.0, 0.0, 1.0, -0.0, -0.5009956359863281)"><g><g style="fill: #db4105;stroke: #db4105;stroke-width: 1.05;" transform="matrix(1.0, 0.0, 0.0, 1.0, -1.9999847412109375, -0.4999961853027344)"><path d="M 0.0 0.0 A 124.6375732421875 498.55029296875 -90.00000762939453 0 1 3.9999783039093018 0.0 A 498.55029296875 124.6375732421875 0.0 0 1 3.999969482421875 0.9999945163726807 A 124.6375732421875 498.55029296875 89.99996948242188 0 1 0.0 0.9999923706054688 A 498.55029296875 124.6375732421875 180.0 0 1 0.0 -2.9802322387695312e-08 Z" style="vector-effect: non-scaling-stroke;" /></g><g transform="matrix(-4.371138828673793e-08, -1.0, 1.0, -4.371138828673793e-08, 0.0, 0.5009956359863281)"><g /></g><g transform="matrix(1.0, 0.0, 0.0, 1.0, 0.0, 0.5009956359863281)"><g /></g></g></g></g></g><g transform="matrix(1.0, 0.0, 0.0, 1.0, 7.0, 0.0)"><g><g style="fill: #000000;stroke: black;stroke-width: 2.1;" transform="matrix(1.0, 0.0, 0.0, 1.0, -0.3999977111816406, -6.00592041015625)"><path d="M 0.0 0.0 A 747.825439453125 99.7100601196289 -89.99999237060547 0 1 0.7999956607818604 6.103515625e-05 A 99.7100601196289 747.825439453125 0.0 0 1 0.7999954223632812 6.000028610229492 A 747.825439453125 99.7100601196289 90.0 0 1 -2.9802322387695312e-08 5.99993896484375 A 99.7100601196289 747.825439453125 179.9999542236328 0 1 0.0 4.76837158203125e-07 Z" style="vector-effect: non-scaling-stroke;" /></g><g transform="matrix(1.0, 0.0, 0.0, 1.0, -0.0, -0.5009956359863281)"><g><g style="fill: #cccc9f;stroke: #cccc9f;stroke-width: 1.05;" transform="matrix(1.0, 0.0, 0.0, 1.0, -1.499969482421875, -0.4999961853027344)"><path d="M 0.0 0.0 A 124.6375732421875 373.9127197265625 -90.0 0 1 2.999983787536621 0.0 A 373.9127197265625 124.6375732421875 0.0 0 1 2.99993896484375 0.9999945163726807 A 124.6375732421875 373.9127197265625 89.99996948242188 0 1 -3.039836883544922e-05 0.9999923706054688 A 373.9127197265625 124.6375732421875 180.0 0 1 0.0 -2.9802322387695312e-08 Z" style="vector-effect: non-scaling-stroke;" /></g><g transform="matrix(-4.371138828673793e-08, -1.0, 1.0, -4.371138828673793e-08, 0.0, 0.5009956359863281)"><g /></g><g transform="matrix(1.0, 0.0, 0.0, 1.0, 0.0, 0.5009956359863281)"><g /></g></g></g></g></g><g transform="matrix(1.0, 0.0, 0.0, 1.0, 14.0, 0.0)"><g><g style="fill: #000000;stroke: black;stroke-width: 2.1;" transform="matrix(1.0, 0.0, 0.0, 1.0, -0.3999977111816406, -6.00592041015625)"><path d="M 0.0 0.0 A 747.825439453125 99.7100601196289 -89.99999237060547 0 1 0.7999956607818604 6.103515625e-05 A 99.7100601196289 747.825439453125 0.0 0 1 0.7999954223632812 6.000028610229492 A 747.825439453125 99.7100601196289 90.0 0 1 -2.9802322387695312e-08 5.99993896484375 A 99.7100601196289 747.825439453125 179.9999542236328 0 1 0.0 4.76837158203125e-07 Z" style="vector-effect: non-scaling-stroke;" /></g><g transform="matrix(1.0, 0.0, 0.0, 1.0, -0.0, -0.5009956359863281)"><g><g style="fill: #9fb4cc;stroke: #9fb4cc;stroke-width: 1.05;" transform="matrix(1.0, 0.0, 0.0, 1.0, -0.9999923706054688, -0.4999961853027344)"><path d="M 0.0 0.0 A 124.6375732421875 249.275146484375 -90.0 0 1 1.9999891519546509 0.0 A 249.275146484375 124.6375732421875 0.0 0 1 1.9999847412109375 0.9999945163726807 A 124.6375732421875 249.275146484375 89.9999771118164 0 1 0.0 0.9999923706054688 A 249.275146484375 124.6375732421875 179.99998474121094 0 1 0.0 -2.9802322387695312e-08 Z" style="vector-effect: non-scaling-stroke;" /></g><g transform="matrix(-4.371138828673793e-08, -1.0, 1.0, -4.371138828673793e-08, 0.0, 0.5009956359863281)"><g /></g><g transform="matrix(1.0, 0.0, 0.0, 1.0, 0.0, 0.5009956359863281)"><g /></g></g></g></g></g></g></g><g transform="matrix(1.0, 0.0, 0.0, 1.0, 0.0, 22.5)"><g><g transform="matrix(1.0, 0.0, 0.0, 1.0, 0.0, 0.0)"><g><g style="fill: #000000;stroke: black;stroke-width: 2.1;" transform="matrix(1.0, 0.0, 0.0, 1.0, -0.3999977111816406, -6.00592041015625)"><path d="M 0.0 0.0 A 747.825439453125 99.7100601196289 -89.99999237060547 0 1 0.7999956607818604 6.103515625e-05 A 99.7100601196289 747.825439453125 0.0 0 1 0.7999954223632812 6.000028610229492 A 747.825439453125 99.7100601196289 90.0 0 1 -2.9802322387695312e-08 5.99993896484375 A 99.7100601196289 747.825439453125 179.9999542236328 0 1 0.0 4.76837158203125e-07 Z" style="vector-effect: non-scaling-stroke;" /></g><g transform="matrix(1.0, 0.0, 0.0, 1.0, -0.0, -0.5009956359863281)"><g><g style="fill: #db4105;stroke: #db4105;stroke-width: 1.05;" transform="matrix(1.0, 0.0, 0.0, 1.0, -1.9999847412109375, -0.4999961853027344)"><path d="M 0.0 0.0 A 124.6375732421875 498.55029296875 -90.00000762939453 0 1 3.9999783039093018 0.0 A 498.55029296875 124.6375732421875 0.0 0 1 3.999969482421875 0.9999945163726807 A 124.6375732421875 498.55029296875 89.99996948242188 0 1 0.0 0.9999923706054688 A 498.55029296875 124.6375732421875 180.0 0 1 0.0 -2.9802322387695312e-08 Z" style="vector-effect: non-scaling-stroke;" /></g><g transform="matrix(-4.371138828673793e-08, -1.0, 1.0, -4.371138828673793e-08, 0.0, 0.5009956359863281)"><g /></g><g transform="matrix(1.0, 0.0, 0.0, 1.0, 0.0, 0.5009956359863281)"><g /></g></g></g></g></g><g transform="matrix(1.0, 0.0, 0.0, 1.0, 7.0, 0.0)"><g><g style="fill: #000000;stroke: black;stroke-width: 2.1;" transform="matrix(1.0, 0.0, 0.0, 1.0, -0.3999977111816406, -6.00592041015625)"><path d="M 0.0 0.0 A 747.825439453125 99.7100601196289 -89.99999237060547 0 1 0.7999956607818604 6.103515625e-05 A 99.7100601196289 747.825439453125 0.0 0 1 0.7999954223632812 6.000028610229492 A 747.825439453125 99.7100601196289 90.0 0 1 -2.9802322387695312e-08 5.99993896484375 A 99.7100601196289 747.825439453125 179.9999542236328 0 1 0.0 4.76837158203125e-07 Z" style="vector-effect: non-scaling-stroke;" /></g><g transform="matrix(1.0, 0.0, 0.0, 1.0, -0.0, -1.5029869079589844)"><g><g style="fill: #9fb4cc;stroke: #9fb4cc;stroke-width: 1.05;" transform="matrix(1.0, 0.0, 0.0, 1.0, -0.9999923706054688, -0.4999961853027344)"><path d="M 0.0 0.0 A 124.6375732421875 249.275146484375 -90.0 0 1 1.9999891519546509 0.0 A 249.275146484375 124.6375732421875 0.0 0 1 1.9999847412109375 0.9999945163726807 A 124.6375732421875 249.275146484375 89.9999771118164 0 1 0.0 0.9999923706054688 A 249.275146484375 124.6375732421875 179.99998474121094 0 1 0.0 -2.9802322387695312e-08 Z" style="vector-effect: non-scaling-stroke;" /></g><g transform="matrix(-4.371138828673793e-08, -1.0, 1.0, -4.371138828673793e-08, 0.0, 0.5009956359863281)"><g /></g><g style="fill: #cccc9f;stroke: #cccc9f;stroke-width: 1.05;" transform="matrix(1.0, 0.0, 0.0, 1.0, -1.499969482421875, 0.5019950866699219)"><path d="M 0.0 0.0 A 124.6375732421875 373.9127197265625 -90.0 0 1 2.999983787536621 0.0 A 373.9127197265625 124.6375732421875 0.0 0 1 2.99993896484375 0.9999945163726807 A 124.6375732421875 373.9127197265625 89.99996948242188 0 1 -3.039836883544922e-05 0.9999923706054688 A 373.9127197265625 124.6375732421875 180.0 0 1 0.0 -2.9802322387695312e-08 Z" style="vector-effect: non-scaling-stroke;" /></g></g></g></g></g><g transform="matrix(1.0, 0.0, 0.0, 1.0, 14.0, 0.0)"><g><g style="fill: #000000;stroke: black;stroke-width: 2.1;" transform="matrix(1.0, 0.0, 0.0, 1.0, -0.3999977111816406, -6.00592041015625)"><path d="M 0.0 0.0 A 747.825439453125 99.7100601196289 -89.99999237060547 0 1 0.7999956607818604 6.103515625e-05 A 99.7100601196289 747.825439453125 0.0 0 1 0.7999954223632812 6.000028610229492 A 747.825439453125 99.7100601196289 90.0 0 1 -2.9802322387695312e-08 5.99993896484375 A 99.7100601196289 747.825439453125 179.9999542236328 0 1 0.0 4.76837158203125e-07 Z" style="vector-effect: non-scaling-stroke;" /></g><g transform="matrix(1.0, 0.0, 0.0, 1.0, -0.0, -0.0)"><g /></g></g></g></g></g><g transform="matrix(1.0, 0.0, 0.0, 1.0, 0.0, 30.0)"><g><g transform="matrix(1.0, 0.0, 0.0, 1.0, 0.0, 0.0)"><g><g style="fill: #000000;stroke: black;stroke-width: 2.1;" transform="matrix(1.0, 0.0, 0.0, 1.0, -0.3999977111816406, -6.00592041015625)"><path d="M 0.0 0.0 A 747.825439453125 99.7100601196289 -89.99999237060547 0 1 0.7999956607818604 6.103515625e-05 A 99.7100601196289 747.825439453125 0.0 0 1 0.7999954223632812 6.000028610229492 A 747.825439453125 99.7100601196289 90.0 0 1 -2.9802322387695312e-08 5.99993896484375 A 99.7100601196289 747.825439453125 179.9999542236328 0 1 0.0 4.76837158203125e-07 Z" style="vector-effect: non-scaling-stroke;" /></g><g transform="matrix(1.0, 0.0, 0.0, 1.0, -0.0, -0.0)"><g /></g></g></g><g transform="matrix(1.0, 0.0, 0.0, 1.0, 7.0, 0.0)"><g><g style="fill: #000000;stroke: black;stroke-width: 2.1;" transform="matrix(1.0, 0.0, 0.0, 1.0, -0.3999977111816406, -6.00592041015625)"><path d="M 0.0 0.0 A 747.825439453125 99.7100601196289 -89.99999237060547 0 1 0.7999956607818604 6.103515625e-05 A 99.7100601196289 747.825439453125 0.0 0 1 0.7999954223632812 6.000028610229492 A 747.825439453125 99.7100601196289 90.0 0 1 -2.9802322387695312e-08 5.99993896484375 A 99.7100601196289 747.825439453125 179.9999542236328 0 1 0.0 4.76837158203125e-07 Z" style="vector-effect: non-scaling-stroke;" /></g><g transform="matrix(1.0, 0.0, 0.0, 1.0, -0.0, -1.5029869079589844)"><g><g style="fill: #9fb4cc;stroke: #9fb4cc;stroke-width: 1.05;" transform="matrix(1.0, 0.0, 0.0, 1.0, -0.9999923706054688, -0.4999961853027344)"><path d="M 0.0 0.0 A 124.6375732421875 249.275146484375 -90.0 0 1 1.9999891519546509 0.0 A 249.275146484375 124.6375732421875 0.0 0 1 1.9999847412109375 0.9999945163726807 A 124.6375732421875 249.275146484375 89.9999771118164 0 1 0.0 0.9999923706054688 A 249.275146484375 124.6375732421875 179.99998474121094 0 1 0.0 -2.9802322387695312e-08 Z" style="vector-effect: non-scaling-stroke;" /></g><g transform="matrix(-4.371138828673793e-08, -1.0, 1.0, -4.371138828673793e-08, 0.0, 0.5009956359863281)"><g /></g><g style="fill: #cccc9f;stroke: #cccc9f;stroke-width: 1.05;" transform="matrix(1.0, 0.0, 0.0, 1.0, -1.499969482421875, 0.5019950866699219)"><path d="M 0.0 0.0 A 124.6375732421875 373.9127197265625 -90.0 0 1 2.999983787536621 0.0 A 373.9127197265625 124.6375732421875 0.0 0 1 2.99993896484375 0.9999945163726807 A 124.6375732421875 373.9127197265625 89.99996948242188 0 1 -3.039836883544922e-05 0.9999923706054688 A 373.9127197265625 124.6375732421875 180.0 0 1 0.0 -2.9802322387695312e-08 Z" style="vector-effect: non-scaling-stroke;" /></g></g></g></g></g><g transform="matrix(1.0, 0.0, 0.0, 1.0, 14.0, 0.0)"><g><g style="fill: #000000;stroke: black;stroke-width: 2.1;" transform="matrix(1.0, 0.0, 0.0, 1.0, -0.3999977111816406, -6.00592041015625)"><path d="M 0.0 0.0 A 747.825439453125 99.7100601196289 -89.99999237060547 0 1 0.7999956607818604 6.103515625e-05 A 99.7100601196289 747.825439453125 0.0 0 1 0.7999954223632812 6.000028610229492 A 747.825439453125 99.7100601196289 90.0 0 1 -2.9802322387695312e-08 5.99993896484375 A 99.7100601196289 747.825439453125 179.9999542236328 0 1 0.0 4.76837158203125e-07 Z" style="vector-effect: non-scaling-stroke;" /></g><g transform="matrix(1.0, 0.0, 0.0, 1.0, -0.0, -0.5009956359863281)"><g><g style="fill: #db4105;stroke: #db4105;stroke-width: 1.05;" transform="matrix(1.0, 0.0, 0.0, 1.0, -1.9999847412109375, -0.4999961853027344)"><path d="M 0.0 0.0 A 124.6375732421875 498.55029296875 -90.00000762939453 0 1 3.9999783039093018 0.0 A 498.55029296875 124.6375732421875 0.0 0 1 3.999969482421875 0.9999945163726807 A 124.6375732421875 498.55029296875 89.99996948242188 0 1 0.0 0.9999923706054688 A 498.55029296875 124.6375732421875 180.0 0 1 0.0 -2.9802322387695312e-08 Z" style="vector-effect: non-scaling-stroke;" /></g><g transform="matrix(-4.371138828673793e-08, -1.0, 1.0, -4.371138828673793e-08, 0.0, 0.5009956359863281)"><g /></g><g transform="matrix(1.0, 0.0, 0.0, 1.0, 0.0, 0.5009956359863281)"><g /></g></g></g></g></g></g></g><g transform="matrix(1.0, 0.0, 0.0, 1.0, 0.0, 37.5)"><g><g transform="matrix(1.0, 0.0, 0.0, 1.0, 0.0, 0.0)"><g><g style="fill: #000000;stroke: black;stroke-width: 2.1;" transform="matrix(1.0, 0.0, 0.0, 1.0, -0.3999977111816406, -6.00592041015625)"><path d="M 0.0 0.0 A 747.825439453125 99.7100601196289 -89.99999237060547 0 1 0.7999956607818604 6.103515625e-05 A 99.7100601196289 747.825439453125 0.0 0 1 0.7999954223632812 6.000028610229492 A 747.825439453125 99.7100601196289 90.0 0 1 -2.9802322387695312e-08 5.99993896484375 A 99.7100601196289 747.825439453125 179.9999542236328 0 1 0.0 4.76837158203125e-07 Z" style="vector-effect: non-scaling-stroke;" /></g><g transform="matrix(1.0, 0.0, 0.0, 1.0, -0.0, -0.5009956359863281)"><g><g style="fill: #9fb4cc;stroke: #9fb4cc;stroke-width: 1.05;" transform="matrix(1.0, 0.0, 0.0, 1.0, -0.9999923706054688, -0.4999961853027344)"><path d="M 0.0 0.0 A 124.6375732421875 249.275146484375 -90.0 0 1 1.9999891519546509 0.0 A 249.275146484375 124.6375732421875 0.0 0 1 1.9999847412109375 0.9999945163726807 A 124.6375732421875 249.275146484375 89.9999771118164 0 1 0.0 0.9999923706054688 A 249.275146484375 124.6375732421875 179.99998474121094 0 1 0.0 -2.9802322387695312e-08 Z" style="vector-effect: non-scaling-stroke;" /></g><g transform="matrix(-4.371138828673793e-08, -1.0, 1.0, -4.371138828673793e-08, 0.0, 0.5009956359863281)"><g /></g><g transform="matrix(1.0, 0.0, 0.0, 1.0, 0.0, 0.5009956359863281)"><g /></g></g></g></g></g><g transform="matrix(1.0, 0.0, 0.0, 1.0, 7.0, 0.0)"><g><g style="fill: #000000;stroke: black;stroke-width: 2.1;" transform="matrix(1.0, 0.0, 0.0, 1.0, -0.3999977111816406, -6.00592041015625)"><path d="M 0.0 0.0 A 747.825439453125 99.7100601196289 -89.99999237060547 0 1 0.7999956607818604 6.103515625e-05 A 99.7100601196289 747.825439453125 0.0 0 1 0.7999954223632812 6.000028610229492 A 747.825439453125 99.7100601196289 90.0 0 1 -2.9802322387695312e-08 5.99993896484375 A 99.7100601196289 747.825439453125 179.9999542236328 0 1 0.0 4.76837158203125e-07 Z" style="vector-effect: non-scaling-stroke;" /></g><g transform="matrix(1.0, 0.0, 0.0, 1.0, -0.0, -0.5009956359863281)"><g><g style="fill: #cccc9f;stroke: #cccc9f;stroke-width: 1.05;" transform="matrix(1.0, 0.0, 0.0, 1.0, -1.499969482421875, -0.4999961853027344)"><path d="M 0.0 0.0 A 124.6375732421875 373.9127197265625 -90.0 0 1 2.999983787536621 0.0 A 373.9127197265625 124.6375732421875 0.0 0 1 2.99993896484375 0.9999945163726807 A 124.6375732421875 373.9127197265625 89.99996948242188 0 1 -3.039836883544922e-05 0.9999923706054688 A 373.9127197265625 124.6375732421875 180.0 0 1 0.0 -2.9802322387695312e-08 Z" style="vector-effect: non-scaling-stroke;" /></g><g transform="matrix(-4.371138828673793e-08, -1.0, 1.0, -4.371138828673793e-08, 0.0, 0.5009956359863281)"><g /></g><g transform="matrix(1.0, 0.0, 0.0, 1.0, 0.0, 0.5009956359863281)"><g /></g></g></g></g></g><g transform="matrix(1.0, 0.0, 0.0, 1.0, 14.0, 0.0)"><g><g style="fill: #000000;stroke: black;stroke-width: 2.1;" transform="matrix(1.0, 0.0, 0.0, 1.0, -0.3999977111816406, -6.00592041015625)"><path d="M 0.0 0.0 A 747.825439453125 99.7100601196289 -89.99999237060547 0 1 0.7999956607818604 6.103515625e-05 A 99.7100601196289 747.825439453125 0.0 0 1 0.7999954223632812 6.000028610229492 A 747.825439453125 99.7100601196289 90.0 0 1 -2.9802322387695312e-08 5.99993896484375 A 99.7100601196289 747.825439453125 179.9999542236328 0 1 0.0 4.76837158203125e-07 Z" style="vector-effect: non-scaling-stroke;" /></g><g transform="matrix(1.0, 0.0, 0.0, 1.0, -0.0, -0.5009956359863281)"><g><g style="fill: #db4105;stroke: #db4105;stroke-width: 1.05;" transform="matrix(1.0, 0.0, 0.0, 1.0, -1.9999847412109375, -0.4999961853027344)"><path d="M 0.0 0.0 A 124.6375732421875 498.55029296875 -90.00000762939453 0 1 3.9999783039093018 0.0 A 498.55029296875 124.6375732421875 0.0 0 1 3.999969482421875 0.9999945163726807 A 124.6375732421875 498.55029296875 89.99996948242188 0 1 0.0 0.9999923706054688 A 498.55029296875 124.6375732421875 180.0 0 1 0.0 -2.9802322387695312e-08 Z" style="vector-effect: non-scaling-stroke;" /></g><g transform="matrix(-4.371138828673793e-08, -1.0, 1.0, -4.371138828673793e-08, 0.0, 0.5009956359863281)"><g /></g><g transform="matrix(1.0, 0.0, 0.0, 1.0, 0.0, 0.5009956359863281)"><g /></g></g></g></g></g></g></g><g transform="matrix(1.0, 0.0, 0.0, 1.0, 0.0, 45.0)"><g><g transform="matrix(1.0, 0.0, 0.0, 1.0, 0.0, 0.0)"><g><g style="fill: #000000;stroke: black;stroke-width: 2.1;" transform="matrix(1.0, 0.0, 0.0, 1.0, -0.3999977111816406, -6.00592041015625)"><path d="M 0.0 0.0 A 747.825439453125 99.7100601196289 -89.99999237060547 0 1 0.7999956607818604 6.103515625e-05 A 99.7100601196289 747.825439453125 0.0 0 1 0.7999954223632812 6.000028610229492 A 747.825439453125 99.7100601196289 90.0 0 1 -2.9802322387695312e-08 5.99993896484375 A 99.7100601196289 747.825439453125 179.9999542236328 0 1 0.0 4.76837158203125e-07 Z" style="vector-effect: non-scaling-stroke;" /></g><g transform="matrix(1.0, 0.0, 0.0, 1.0, -0.0, -0.5009956359863281)"><g><g style="fill: #9fb4cc;stroke: #9fb4cc;stroke-width: 1.05;" transform="matrix(1.0, 0.0, 0.0, 1.0, -0.9999923706054688, -0.4999961853027344)"><path d="M 0.0 0.0 A 124.6375732421875 249.275146484375 -90.0 0 1 1.9999891519546509 0.0 A 249.275146484375 124.6375732421875 0.0 0 1 1.9999847412109375 0.9999945163726807 A 124.6375732421875 249.275146484375 89.9999771118164 0 1 0.0 0.9999923706054688 A 249.275146484375 124.6375732421875 179.99998474121094 0 1 0.0 -2.9802322387695312e-08 Z" style="vector-effect: non-scaling-stroke;" /></g><g transform="matrix(-4.371138828673793e-08, -1.0, 1.0, -4.371138828673793e-08, 0.0, 0.5009956359863281)"><g /></g><g transform="matrix(1.0, 0.0, 0.0, 1.0, 0.0, 0.5009956359863281)"><g /></g></g></g></g></g><g transform="matrix(1.0, 0.0, 0.0, 1.0, 7.0, 0.0)"><g><g style="fill: #000000;stroke: black;stroke-width: 2.1;" transform="matrix(1.0, 0.0, 0.0, 1.0, -0.3999977111816406, -6.00592041015625)"><path d="M 0.0 0.0 A 747.825439453125 99.7100601196289 -89.99999237060547 0 1 0.7999956607818604 6.103515625e-05 A 99.7100601196289 747.825439453125 0.0 0 1 0.7999954223632812 6.000028610229492 A 747.825439453125 99.7100601196289 90.0 0 1 -2.9802322387695312e-08 5.99993896484375 A 99.7100601196289 747.825439453125 179.9999542236328 0 1 0.0 4.76837158203125e-07 Z" style="vector-effect: non-scaling-stroke;" /></g><g transform="matrix(1.0, 0.0, 0.0, 1.0, -0.0, -0.0)"><g /></g></g></g><g transform="matrix(1.0, 0.0, 0.0, 1.0, 14.0, 0.0)"><g><g style="fill: #000000;stroke: black;stroke-width: 2.1;" transform="matrix(1.0, 0.0, 0.0, 1.0, -0.3999977111816406, -6.00592041015625)"><path d="M 0.0 0.0 A 747.825439453125 99.7100601196289 -89.99999237060547 0 1 0.7999956607818604 6.103515625e-05 A 99.7100601196289 747.825439453125 0.0 0 1 0.7999954223632812 6.000028610229492 A 747.825439453125 99.7100601196289 90.0 0 1 -2.9802322387695312e-08 5.99993896484375 A 99.7100601196289 747.825439453125 179.9999542236328 0 1 0.0 4.76837158203125e-07 Z" style="vector-effect: non-scaling-stroke;" /></g><g transform="matrix(1.0, 0.0, 0.0, 1.0, -0.0, -1.5029869079589844)"><g><g style="fill: #cccc9f;stroke: #cccc9f;stroke-width: 1.05;" transform="matrix(1.0, 0.0, 0.0, 1.0, -1.499969482421875, -0.4999961853027344)"><path d="M 0.0 0.0 A 124.6375732421875 373.9127197265625 -90.0 0 1 2.999983787536621 0.0 A 373.9127197265625 124.6375732421875 0.0 0 1 2.99993896484375 0.9999945163726807 A 124.6375732421875 373.9127197265625 89.99996948242188 0 1 -3.039836883544922e-05 0.9999923706054688 A 373.9127197265625 124.6375732421875 180.0 0 1 0.0 -2.9802322387695312e-08 Z" style="vector-effect: non-scaling-stroke;" /></g><g transform="matrix(-4.371138828673793e-08, -1.0, 1.0, -4.371138828673793e-08, 0.0, 0.5009956359863281)"><g /></g><g style="fill: #db4105;stroke: #db4105;stroke-width: 1.05;" transform="matrix(1.0, 0.0, 0.0, 1.0, -1.9999847412109375, 0.5019950866699219)"><path d="M 0.0 0.0 A 124.6375732421875 498.55029296875 -90.00000762939453 0 1 3.9999783039093018 0.0 A 498.55029296875 124.6375732421875 0.0 0 1 3.999969482421875 0.9999945163726807 A 124.6375732421875 498.55029296875 89.99996948242188 0 1 0.0 0.9999923706054688 A 498.55029296875 124.6375732421875 180.0 0 1 0.0 -2.9802322387695312e-08 Z" style="vector-effect: non-scaling-stroke;" /></g></g></g></g></g></g></g><g transform="matrix(1.0, 0.0, 0.0, 1.0, 0.0, 52.5)"><g><g transform="matrix(1.0, 0.0, 0.0, 1.0, 0.0, 0.0)"><g><g style="fill: #000000;stroke: black;stroke-width: 2.1;" transform="matrix(1.0, 0.0, 0.0, 1.0, -0.3999977111816406, -6.00592041015625)"><path d="M 0.0 0.0 A 747.825439453125 99.7100601196289 -89.99999237060547 0 1 0.7999956607818604 6.103515625e-05 A 99.7100601196289 747.825439453125 0.0 0 1 0.7999954223632812 6.000028610229492 A 747.825439453125 99.7100601196289 90.0 0 1 -2.9802322387695312e-08 5.99993896484375 A 99.7100601196289 747.825439453125 179.9999542236328 0 1 0.0 4.76837158203125e-07 Z" style="vector-effect: non-scaling-stroke;" /></g><g transform="matrix(1.0, 0.0, 0.0, 1.0, -0.0, -0.0)"><g /></g></g></g><g transform="matrix(1.0, 0.0, 0.0, 1.0, 7.0, 0.0)"><g><g style="fill: #000000;stroke: black;stroke-width: 2.1;" transform="matrix(1.0, 0.0, 0.0, 1.0, -0.3999977111816406, -6.00592041015625)"><path d="M 0.0 0.0 A 747.825439453125 99.7100601196289 -89.99999237060547 0 1 0.7999956607818604 6.103515625e-05 A 99.7100601196289 747.825439453125 0.0 0 1 0.7999954223632812 6.000028610229492 A 747.825439453125 99.7100601196289 90.0 0 1 -2.9802322387695312e-08 5.99993896484375 A 99.7100601196289 747.825439453125 179.9999542236328 0 1 0.0 4.76837158203125e-07 Z" style="vector-effect: non-scaling-stroke;" /></g><g transform="matrix(1.0, 0.0, 0.0, 1.0, -0.0, -0.0)"><g /></g></g></g><g transform="matrix(1.0, 0.0, 0.0, 1.0, 14.0, 0.0)"><g><g style="fill: #000000;stroke: black;stroke-width: 2.1;" transform="matrix(1.0, 0.0, 0.0, 1.0, -0.3999977111816406, -6.00592041015625)"><path d="M 0.0 0.0 A 747.825439453125 99.7100601196289 -89.99999237060547 0 1 0.7999956607818604 6.103515625e-05 A 99.7100601196289 747.825439453125 0.0 0 1 0.7999954223632812 6.000028610229492 A 747.825439453125 99.7100601196289 90.0 0 1 -2.9802322387695312e-08 5.99993896484375 A 99.7100601196289 747.825439453125 179.9999542236328 0 1 0.0 4.76837158203125e-07 Z" style="vector-effect: non-scaling-stroke;" /></g><g transform="matrix(1.0, 0.0, 0.0, 1.0, -0.0, -2.5049781799316406)"><g><g style="fill: #9fb4cc;stroke: #9fb4cc;stroke-width: 1.05;" transform="matrix(1.0, 0.0, 0.0, 1.0, -0.9999923706054688, -0.4999961853027344)"><path d="M 0.0 0.0 A 124.6375732421875 249.275146484375 -90.0 0 1 1.9999891519546509 0.0 A 249.275146484375 124.6375732421875 0.0 0 1 1.9999847412109375 0.9999945163726807 A 124.6375732421875 249.275146484375 89.9999771118164 0 1 0.0 0.9999923706054688 A 249.275146484375 124.6375732421875 179.99998474121094 0 1 0.0 -2.9802322387695312e-08 Z" style="vector-effect: non-scaling-stroke;" /></g><g transform="matrix(-4.371138828673793e-08, -1.0, 1.0, -4.371138828673793e-08, 0.0, 0.5009956359863281)"><g /></g><g transform="matrix(1.0, 0.0, 0.0, 1.0, 0.0, 1.0019912719726562)"><g><g style="fill: #cccc9f;stroke: #cccc9f;stroke-width: 1.05;" transform="matrix(1.0, 0.0, 0.0, 1.0, -1.499969482421875, -0.4999961853027344)"><path d="M 0.0 0.0 A 124.6375732421875 373.9127197265625 -90.0 0 1 2.999983787536621 0.0 A 373.9127197265625 124.6375732421875 0.0 0 1 2.99993896484375 0.9999945163726807 A 124.6375732421875 373.9127197265625 89.99996948242188 0 1 -3.039836883544922e-05 0.9999923706054688 A 373.9127197265625 124.6375732421875 180.0 0 1 0.0 -2.9802322387695312e-08 Z" style="vector-effect: non-scaling-stroke;" /></g><g transform="matrix(-4.371138828673793e-08, -1.0, 1.0, -4.371138828673793e-08, 0.0, 0.5009956359863281)"><g /></g><g style="fill: #db4105;stroke: #db4105;stroke-width: 1.05;" transform="matrix(1.0, 0.0, 0.0, 1.0, -1.9999847412109375, 0.5019950866699219)"><path d="M 0.0 0.0 A 124.6375732421875 498.55029296875 -90.00000762939453 0 1 3.9999783039093018 0.0 A 498.55029296875 124.6375732421875 0.0 0 1 3.999969482421875 0.9999945163726807 A 124.6375732421875 498.55029296875 89.99996948242188 0 1 0.0 0.9999923706054688 A 498.55029296875 124.6375732421875 180.0 0 1 0.0 -2.9802322387695312e-08 Z" style="vector-effect: non-scaling-stroke;" /></g></g></g></g></g></g></g></g></g></g></g><g /></g></g></g></svg>