<?xml version="1.0" encoding="utf-8" ?>
<svg baseProfile="full" height="700" version="1.1" width="215" xmlns="http://www.w3.org/2000/svg" xmlns:ev="http://www.w3.org/2001/xml-events" xmlns:xlink="http://www.w3.org/1999/xlink"><defs><marker id="arrow" markerHeight="3.5" markerWidth="5" orient="auto" refX="5.0" refY="1.7"><polygon points="0,0 5,1.75 0,3.5" /></marker></defs><g style="fill:white;"><g transform="matrix(1.0, 0.0, 0.0, 1.0, 107.50000000000001, 349.37500000000006)"><g transform="matrix(11.375661375661375, 0.0, 0.0, 11.375661375661375, 0.0, 0.0)"><g><g transform="matrix(1.0, 0.0, 0.0, 1.0, -7.0, -23.25)"><g><g><g><g transform="matrix(1.0, 0.0, 0.0, 1.0, 0.0, 0.0)"><g><g><g transform="matrix(1.0, 0.0, 0.0, 1.0, 0.0, 0.0)"><g><g style="fill: #000000;stroke: black;stroke-width: 2.1;" transform="matrix(1.0, 0.0, 0.0, 1.0, -0.4, -6.0)"><path d="M 0.0 0.0 L 0.8 0.0 L 0.8 6.0 L 0.0 6.0 L 0.0 0.0 Z" style="vector-effect: non-scaling-stroke;" /></g><g transform="matrix(1.0, 0.0, 0.0, 1.0, -0.0, -2.5)"><g><g><g style="fill: #9fb4cc;stroke: #9fb4cc;stroke-width: 1.05;" transform="matrix(1.0, 0.0, 0.0, 1.0, -1.0, -0.5)"><path d="M 0.0 0.0 L 2.0 0.0 L 2.0 1.0 L 0.0 1.0 L 0.0 0.0 Z" style="vector-effect: non-scaling-stroke;" /></g><g transform="matrix(1.0, 0.0, 0.0, 1.0, 0.0, 0.5)"><g transform="matrix(0.0, -1.0, 1.0, 0.0, 0.0, 0.0)"><g /></g></g></g><g transform="matrix(1.0, 0.0, 0.0, 1.0, 0.0, 1.0)"><g><g><g style="fill: #cccc9f;stroke: #cccc9f;stroke-width: 1.05;" transform="matrix(1.0, 0.0, 0.0, 1.0, -1.5, -0.5)"><path d="M 0.0 0.0 L 3.0 0.0 L 3.0 1.0 L 0.0 1.0 L 0.0 0.0 Z" style="vector-effect: non-scaling-stroke;" /></g><g transform="matrix(1.0, 0.0, 0.0, 1.0, 0.0, 0.5)"><g transform="matrix(0.0, -1.0, 1.0, 0.0, 0.0, 0.0)"><g /></g></g></g><g style="fill: #db4105;stroke: #db4105;stroke-width: 1.05;" transform="matrix(1.0, 0.0, 0.0, 1.0, -2.0, 0.5)"><path d="M 0.0 0.0 L 4.0 0.0 L 4.0 1.0 L 0.0 1.0 L 0.0 0.0 Z" style="vector-effect: non-scaling-stroke;" /></g></g></g></g></g></g></g><g transform="matrix(1.0, 0.0, 0.0, 1.0, 7.0, 0.0)"><g><g style="fill: #000000;stroke: black;stroke-width: 2.1;" transform="matrix(1.0, 0.0, 0.0, 1.0, -0.4, -6.0)"><path d="M 0.0 0.0 L 0.8 0.0 L 0.8 6.0 L 0.0 6.0 L 0.0 0.0 Z" style="vector-effect: non-scaling-stroke;" /></g><g transform="matrix(1.0, 0.0, 0.0, 1.0, -0.0, -0.0)"><g /></g></g></g></g><g transform="matrix(1.0, 0.0, 0.0, 1.0, 14.0, 0.0)"><g><g style="fill: #000000;stroke: black;stroke-width: 2.1;" transform="matrix(1.0, 0.0, 0.0, 1.0, -0.4, -6.0)"><path d="M 0.0 0.0 L 0.8 0.0 L 0.8 6.0 L 0.0 6.0 L 0.0 0.0 Z" style="vector-effect: non-scaling-stroke;" /></g><g transform="matrix(1.0, 0.0, 0.0, 1.0, -0.0, -0.0)"><g /></g></g></g></g></g><g transform="matrix(1.0, 0.0, 0.0, 1.0, 0.0, 7.5)"><g><g><g transform="matrix(1.0, 0.0, 0.0, 1.0, 0.0, 0.0)"><g><g style="fill: #000000;stroke: black;stroke-width: 2.1;" transform="matrix(1.0, 0.0, 0.0, 1.0, -0.4, -6.0)"><path d="M 0.0 0.0 L 0.8 0.0 L 0.8 6.0 L 0.0 6.0 L 0.0 0.0 Z" style="vector-effect: non-scaling-stroke;" /></g><g transform="matrix(1.0, 0.0, 0.0, 1.0, -0.0, -1.5)"><g><g><g style="fill: #cccc9f;stroke: #cccc9f;stroke-width: 1.05;" transform="matrix(1.0, 0.0, 0.0, 1.0, -1.5, -0.5)"><path d="M 0.0 0.0 L 3.0 0.0 L 3.0 1.0 L 0.0 1.0 L 0.0 0.0 Z" style="vector-effect: non-scaling-stroke;" /></g><g transform="matrix(1.0, 0.0, 0.0, 1.0, 0.0, 0.5)"><g transform="matrix(0.0, -1.0, 1.0, 0.0, 0.0, 0.0)"><g /></g></g></g><g style="fill: #db4105;stroke: #db4105;stroke-width: 1.05;" transform="matrix(1.0, 0.0, 0.0, 1.0, -2.0, 0.5)"><path d="M 0.0 0.0 L 4.0 0.0 L 4.0 1.0 L 0.0 1.0 L 0.0 0.0 Z" style="vector-effect: non-scaling-stroke;" /></g></g></g></g></g><g transform="matrix(1.0, 0.0, 0.0, 1.0, 7.0, 0.0)"><g><g style="fill: #000000;stroke: black;stroke-width: 2.1;" transform="matrix(1.0, 0.0, 0.0, 1.0, -0.4, -6.0)"><path d="M 0.0 0.0 L 0.8 0.0 L 0.8 6.0 L 0.0 6.0 L 0.0 0.0 Z" style="vector-effect: non-scaling-stroke;" /></g><g transform="matrix(1.0, 0.0, 0.0, 1.0, -0.0, -0.0)"><g /></g></g></g></g><g transform="matrix(1.0, 0.0, 0.0, 1.0, 14.0, 0.0)"><g><g style="fill: #000000;stroke: black;stroke-width: 2.1;" transform="matrix(1.0, 0.0, 0.0, 1.0, -0.4, -6.0)"><path d="M 0.0 0.0 L 0.8 0.0 L 0.8 6.0 L 0.0 6.0 L 0.0 0.0 Z" style="vector-effect: non-scaling-stroke;" /></g><g transform="matrix(1.0, 0.0, 0.0, 1.0, -0.0, -0.5)"><g><g><g style="fill: #9fb4cc;stroke: #9fb4cc;stroke-width: 1.05;" transform="matrix(1.0, 0.0, 0.0, 1.0, -1.0, -0.5)"><path d="M 0.0 0.0 L 2.0 0.0 L 2.0 1.0 L 0.0 1.0 L 0.0 0.0 Z" style="vector-effect: non-scaling-stroke;" /></g><g transform="matrix(1.0, 0.0, 0.0, 1.0, 0.0, 0.5)"><g transform="matrix(0.0, -1.0, 1.0, 0.0, 0.0, 0.0)"><g /></g></g></g><g transform="matrix(1.0, 0.0, 0.0, 1.0, 0.0, 0.5)"><g /></g></g></g></g></g></g></g></g><g><g transform="matrix(1.0, 0.0, 0.0, 1.0, 0.0, 15.0)"><g><g><g transform="matrix(1.0, 0.0, 0.0, 1.0, 0.0, 0.0)"><g><g style="fill: #000000;stroke: black;stroke-width: 2.1;" transform="matrix(1.0, 0.0, 0.0, 1.0, -0.4, -6.0)"><path d="M 0.0 0.0 L 0.8 0.0 L 0.8 6.0 L 0.0 6.0 L 0.0 0.0 Z" style="vector-effect: non-scaling-stroke;" /></g><g transform="matrix(1.0, 0.0, 0.0, 1.0, -0.0, -0.5)"><g><g><g style="fill: #db4105;stroke: #db4105;stroke-width: 1.05;" transform="matrix(1.0, 0.0, 0.0, 1.0, -2.0, -0.5)"><path d="M 0.0 0.0 L 4.0 0.0 L 4.0 1.0 L 0.0 1.0 L 0.0 0.0 Z" style="vector-effect: non-scaling-stroke;" /></g><g transform="matrix(1.0, 0.0, 0.0, 1.0, 0.0, 0.5)"><g transform="matrix(0.0, -1.0, 1.0, 0.0, 0.0, 0.0)"><g /></g></g></g><g transform="matrix(1.0, 0.0, 0.0, 1.0, 0.0, 0.5)"><g /></g></g></g></g></g><g transform="matrix(1.0, 0.0, 0.0, 1.0, 7.0, 0.0)"><g><g style="fill: #000000;stroke: black;stroke-width: 2.1;" transform="matrix(1.0, 0.0, 0.0, 1.0, -0.4, -6.0)"><path d="M 0.0 0.0 L 0.8 0.0 L 0.8 6.0 L 0.0 6.0 L 0.0 0.0 Z" style="vector-effect: non-scaling-stroke;" /></g><g transform="matrix(1.0, 0.0, 0.0, 1.0, -0.0, -0.5)"><g><g><g style="fill: #cccc9f;stroke: #cccc9f;stroke-width: 1.05;" transform="matrix(1.0, 0.0, 0.0, 1.0, -1.5, -0.5)"><path d="M 0.0 0.0 L 3.0 0.0 L 3.0 1.0 L 0.0 1.0 L 0.0 0.0 Z" style="vector-effect: non-scaling-stroke;" /></g><g transform="matrix(1.0, 0.0, 0.0, 1.0, 0.0, 0.5)"><g transform="matrix(0.0, -1.0, 1.0, 0.0, 0.0, 0.0)"><g /></g></g></g><g transform="matrix(1.0, 0.0, 0.0, 1.0, 0.0, 0.5)"><g /></g></g></g></g></g></g><g transform="matrix(1.0, 0.0, 0.0, 1.0, 14.0, 0.0)"><g><g style="fill: #000000;stroke: black;stroke-width: 2.1;" transform="matrix(1.0, 0.0, 0.0, 1.0, -0.4, -6.0)"><path d="M 0.0 0.0 L 0.8 0.0 L 0.8 6.0 L 0.0 6.0 L 0.0 0.0 Z" style="vector-effect: non-scaling-stroke;" /></g><g transform="matrix(1.0, 0.0, 0.0, 1.0, -0.0, -0.5)"><g><g><g style="fill: #9fb4cc;stroke: #9fb4cc;stroke-width: 1.05;" transform="matrix(1.0, 0.0, 0.0, 1.0, -1.0, -0.5)"><path d="M 0.0 0.0 L 2.0 0.0 L 2.0 1.0 L 0.0 1.0 L 0.0 0.0 Z" style="vector-effect: non-scaling-stroke;" /></g><g transform="matrix(1.0, 0.0, 0.0, 1.0, 0.0, 0.5)"><g transform="matrix(0.0, -1.0, 1.0, 0.0, 0.0, 0.0)"><g /></g></g></g><g transform="matrix(1.0, 0.0, 0.0, 1.0, 0.0, 0.5)"><g /></g></g></g></g></g></g></g><g transform="matrix(1.0, 0.0, 0.0, 1.0, 0.0, 22.5)"><g><g><g transform="matrix(1.0, 0.0, 0.0, 1.0, 0.0, 0.0)"><g><g style="fill: #000000;stroke: black;stroke-width: 2.1;" transform="matrix(1.0, 0.0, 0.0, 1.0, -0.4, -6.0)"><path d="M 0.0 0.0 L 0.8 0.0 L 0.8 6.0 L 0.0 6.0 L 0.0 0.0 Z" style="vector-effect: non-scaling-stroke;" /></g><g transform="matrix(1.0, 0.0, 0.0, 1.0, -0.0, -0.5)"><g><g><g style="fill: #db4105;stroke: #db4105;stroke-width: 1.05;" transform="matrix(1.0, 0.0, 0.0, 1.0, -2.0, -0.5)"><path d="M 0.0 0.0 L 4.0 0.0 L 4.0 1.0 L 0.0 1.0 L 0.0 0.0 Z" style="vector-effect: non-scaling-stroke;" /></g><g transform="matrix(1.0, 0.0, 0.0, 1.0, 0.0, 0.5)"><g transform="matrix(0.0, -1.0, 1.0, 0.0, 0.0, 0.0)"><g /></g></g></g><g transform="matrix(1.0, 0.0, 0.0, 1.0, 0.0, 0.5)"><g /></g></g></g></g></g><g transform="matrix(1.0, 0.0, 0.0, 1.0, 7.0, 0.0)"><g><g style="fill: #000000;stroke: black;stroke-width: 2.1;" transform="matrix(1.0, 0.0, 0.0, 1.0, -0.4, -6.0)"><path d="M 0.0 0.0 L 0.8 0.0 L 0.8 6.0 L 0.0 6.0 L 0.0 0.0 Z" style="vector-effect: non-scaling-stroke;" /></g><g transform="matrix(1.0, 0.0, 0.0, 1.0, -0.0, -1.5)"><g><g><g style="fill: #9fb4cc;stroke: #9fb4cc;stroke-width: 1.05;" transform="matrix(1.0, 0.0, 0.0, 1.0, -1.0, -0.5)"><path d="M 0.0 0.0 L 2.0 0.0 L 2.0 1.0 L 0.0 1.0 L 0.0 0.0 Z" style="vector-effect: non-scaling-stroke;" /></g><g transform="matrix(1.0, 0.0, 0.0, 1.0, 0.0, 0.5)"><g transform="matrix(0.0, -1.0, 1.0, 0.0, 0.0, 0.0)"><g /></g></g></g><g style="fill: #cccc9f;stroke: #cccc9f;stroke-width: 1.05;" transform="matrix(1.0, 0.0, 0.0, 1.0, -1.5, 0.5)"><path d="M 0.0 0.0 L 3.0 0.0 L 3.0 1.0 L 0.0 1.0 L 0.0 0.0 Z" style="vector-effect: non-scaling-stroke;" /></g></g></g></g></g></g><g transform="matrix(1.0, 0.0, 0.0, 1.0, 14.0, 0.0)"><g><g style="fill: #000000;stroke: black;stroke-width: 2.1;" transform="matrix(1.0, 0.0, 0.0, 1.0, -0.4, -6.0)"><path d="M 0.0 0.0 L 0.8 0.0 L 0.8 6.0 L 0.0 6.0 L 0.0 0.0 Z" style="vector-effect: non-scaling-stroke;" /></g><g transform="matrix(1.0, 0.0, 0.0, 1.0, -0.0, -0.0)"><g /></g></g></g></g></g></g></g><g><g><g transform="matrix(1.0, 0.0, 0.0, 1.0, 0.0, 30.0)"><g><g><g transform="matrix(1.0, 0.0, 0.0, 1.0, 0.0, 0.0)"><g><g style="fill: #000000;stroke: black;stroke-width: 2.1;" transform="matrix(1.0, 0.0, 0.0, 1.0, -0.4, -6.0)"><path d="M 0.0 0.0 L 0.8 0.0 L 0.8 6.0 L 0.0 6.0 L 0.0 0.0 Z" style="vector-effect: non-scaling-stroke;" /></g><g transform="matrix(1.0, 0.0, 0.0, 1.0, -0.0, -0.0)"><g /></g></g></g><g transform="matrix(1.0, 0.0, 0.0, 1.0, 7.0, 0.0)"><g><g style="fill: #000000;stroke: black;stroke-width: 2.1;" transform="matrix(1.0, 0.0, 0.0, 1.0, -0.4, -6.0)"><path d="M 0.0 0.0 L 0.8 0.0 L 0.8 6.0 L 0.0 6.0 L 0.0 0.0 Z" style="vector-effect: non-scaling-stroke;" /></g><g transform="matrix(1.0, 0.0, 0.0, 1.0, -0.0, -1.5)"><g><g><g style="fill: #9fb4cc;stroke: #9fb4cc;stroke-width: 1.05;" transform="matrix(1.0, 0.0, 0.0, 1.0, -1.0, -0.5)"><path d="M 0.0 0.0 L 2.0 0.0 L 2.0 1.0 L 0.0 1.0 L 0.0 0.0 Z" style="vector-effect: non-scaling-stroke;" /></g><g transform="matrix(1.0, 0.0, 0.0, 1.0, 0.0, 0.5)"><g transform="matrix(0.0, -1.0, 1.0, 0.0, 0.0, 0.0)"><g /></g></g></g><g style="fill: #cccc9f;stroke: #cccc9f;stroke-width: 1.05;" transform="matrix(1.0, 0.0, 0.0, 1.0, -1.5, 0.5)"><path d="M 0.0 0.0 L 3.0 0.0 L 3.0 1.0 L 0.0 1.0 L 0.0 0.0 Z" style="vector-effect: non-scaling-stroke;" /></g></g></g></g></g></g><g transform="matrix(1.0, 0.0, 0.0, 1.0, 14.0, 0.0)"><g><g style="fill: #000000;stroke: black;stroke-width: 2.1;" transform="matrix(1.0, 0.0, 0.0, 1.0, -0.4, -6.0)"><path d="M 0.0 0.0 L 0.8 0.0 L 0.8 6.0 L 0.0 6.0 L 0.0 0.0 Z" style="vector-effect: non-scaling-stroke;" /></g><g transform="matrix(1.0, 0.0, 0.0, 1.0, -0.0, -0.5)"><g><g><g style="fill: #db4105;stroke: #db4105;stroke-width: 1.05;" transform="matrix(1.0, 0.0, 0.0, 1.0, -2.0, -0.5)"><path d="M 0.0 0.0 L 4.0 0.0 L 4.0 1.0 L 0.0 1.0 L 0.0 0.0 Z" style="vector-effect: non-scaling-stroke;" /></g><g transform="matrix(1.0, 0.0, 0.0, 1.0, 0.0, 0.5)"><g transform="matrix(0.0, -1.0, 1.0, 0.0, 0.0, 0.0)"><g /></g></g></g><g transform="matrix(1.0, 0.0, 0.0, 1.0, 0.0, 0.5)"><g /></g></g></g></g></g></g></g><g transform="matrix(1.0, 0.0, 0.0, 1.0, 0.0, 37.5)"><g><g><g transform="matrix(1.0, 0.0, 0.0, 1.0, 0.0, 0.0)"><g><g style="fill: #000000;stroke: black;stroke-width: 2.1;" transform="matrix(1.0, 0.0, 0.0, 1.0, -0.4, -6.0)"><path d="M 0.0 0.0 L 0.8 0.0 L 0.8 6.0 L 0.0 6.0 L 0.0 0.0 Z" style="vector-effect: non-scaling-stroke;" /></g><g transform="matrix(1.0, 0.0, 0.0, 1.0, -0.0, -0.5)"><g><g><g style="fill: #9fb4cc;stroke: #9fb4cc;stroke-width: 1.05;" transform="matrix(1.0, 0.0, 0.0, 1.0, -1.0, -0.5)"><path d="M 0.0 0.0 L 2.0 0.0 L 2.0 1.0 L 0.0 1.0 L 0.0 0.0 Z" style="vector-effect: non-scaling-stroke;" /></g><g transform="matrix(1.0, 0.0, 0.0, 1.0, 0.0, 0.5)"><g transform="matrix(0.0, -1.0, 1.0, 0.0, 0.0, 0.0)"><g /></g></g></g><g transform="matrix(1.0, 0.0, 0.0, 1.0, 0.0, 0.5)"><g /></g></g></g></g></g><g transform="matrix(1.0, 0.0, 0.0, 1.0, 7.0, 0.0)"><g><g style="fill: #000000;stroke: black;stroke-width: 2.1;" transform="matrix(1.0, 0.0, 0.0, 1.0, -0.4, -6.0)"><path d="M 0.0 0.0 L 0.8 0.0 L 0.8 6.0 L 0.0 6.0 L 0.0 0.0 Z" style="vector-effect: non-scaling-stroke;" /></g><g transform="matrix(1.0, 0.0, 0.0, 1.0, -0.0, -0.5)"><g><g><g style="fill: #cccc9f;stroke: #cccc9f;stroke-width: 1.05;" transform="matrix(1.0, 0.0, 0.0, 1.0, -1.5, -0.5)"><path d="M 0.0 0.0 L 3.0 0.0 L 3.0 1.0 L 0.0 1.0 L 0.0 0.0 Z" style="vector-effect: non-scaling-stroke;" /></g><g transform="matrix(1.0, 0.0, 0.0, 1.0, 0.0, 0.5)"><g transform="matrix(0.0, -1.0, 1.0, 0.0, 0.0, 0.0)"><g /></g></g></g><g transform="matrix(1.0, 0.0, 0.0, 1.0, 0.0, 0.5)"><g /></g></g></g></g></g></g><g transform="matrix(1.0, 0.0, 0.0, 1.0, 14.0, 0.0)"><g><g style="fill: #000000;stroke: black;stroke-width: 2.1;" transform="matrix(1.0, 0.0, 0.0, 1.0, -0.4, -6.0)"><path d="M 0.0 0.0 L 0.8 0.0 L 0.8 6.0 L 0.0 6.0 L 0.0 0.0 Z" style="vector-effect: non-scaling-stroke;" /></g><g transform="matrix(1.0, 0.0, 0.0, 1.0, -0.0, -0.5)"><g><g><g style="fill: #db4105;stroke: #db4105;stroke-width: 1.05;" transform="matrix(1.0, 0.0, 0.0, 1.0, -2.0, -0.5)"><path d="M 0.0 0.0 L 4.0 0.0 L 4.0 1.0 L 0.0 1.0 L 0.0 0.0 Z" style="vector-effect: non-scaling-stroke;" /></g><g transform="matrix(1.0, 0.0, 0.0, 1.0, 0.0, 0.5)"><g transform="matrix(0.0, -1.0, 1.0, 0.0, 0.0, 0.0)"><g /></g></g></g><g transform="matrix(1.0, 0.0, 0.0, 1.0, 0.0, 0.5)"><g /></g></g></g></g></g></g></g></g><g><g transform="matrix(1.0, 0.0, 0.0, 1.0, 0.0, 45.0)"><g><g><g transform="matrix(1.0, 0.0, 0.0, 1.0, 0.0, 0.0)"><g><g style="fill: #000000;stroke: black;stroke-width: 2.1;" transform="matrix(1.0, 0.0, 0.0, 1.0, -0.4, -6.0)"><path d="M 0.0 0.0 L 0.8 0.0 L 0.8 6.0 L 0.0 6.0 L 0.0 0.0 Z" style="vector-effect: non-scaling-stroke;" /></g><g transform="matrix(1.0, 0.0, 0.0, 1.0, -0.0, -0.5)"><g><g><g style="fill: #9fb4cc;stroke: #9fb4cc;stroke-width: 1.05;" transform="matrix(1.0, 0.0, 0.0, 1.0, -1.0, -0.5)"><path d="M 0.0 0.0 L 2.0 0.0 L 2.0 1.0 L 0.0 1.0 L 0.0 0.0 Z" style="vector-effect: non-scaling-stroke;" /></g><g transform="matrix(1.0, 0.0, 0.0, 1.0, 0.0, 0.5)"><g transform="matrix(0.0, -1.0, 1.0, 0.0, 0.0, 0.0)"><g /></g></g></g><g transform="matrix(1.0, 0.0, 0.0, 1.0, 0.0, 0.5)"><g /></g></g></g></g></g><g transform="matrix(1.0, 0.0, 0.0, 1.0, 7.0, 0.0)"><g><g style="fill: #000000;stroke: black;stroke-width: 2.1;" transform="matrix(1.0, 0.0, 0.0, 1.0, -0.4, -6.0)"><path d="M 0.0 0.0 L 0.8 0.0 L 0.8 6.0 L 0.0 6.0 L 0.0 0.0 Z" style="vector-effect: non-scaling-stroke;" /></g><g transform="matrix(1.0, 0.0, 0.0, 1.0, -0.0, -0.0)"><g /></g></g></g></g><g transform="matrix(1.0, 0.0, 0.0, 1.0, 14.0, 0.0)"><g><g style="fill: #000000;stroke: black;stroke-width: 2.1;" transform="matrix(1.0, 0.0, 0.0, 1.0, -0.4, -6.0)"><path d="M 0.0 0.0 L 0.8 0.0 L 0.8 6.0 L 0.0 6.0 L 0.0 0.0 Z" style="vector-effect: non-scaling-stroke;" /></g><g transform="matrix(1.0, 0.0, 0.0, 1.0, -0.0, -1.5)"><g><g><g style="fill: #cccc9f;stroke: #cccc9f;stroke-width: 1.05;" transform="matrix(1.0, 0.0, 0.0, 1.0, -1.5, -0.5)"><path d="M 0.0 0.0 L 3.0 0.0 L 3.0 1.0 L 0.0 1.0 L 0.0 0.0 Z" style="vector-effect: non-scaling-stroke;" /></g><g transform="matrix(1.0, 0.0, 0.0, 1.0, 0.0, 0.5)"><g transform="matrix(0.0, -1.0, 1.0, 0.0, 0.0, 0.0)"><g /></g></g></g><g style="fill: #db4105;stroke: #db4105;stroke-width: 1.05;" transform="matrix(1.0, 0.0, 0.0, 1.0, -2.0, 0.5)"><path d="M 0.0 0.0 L 4.0 0.0 L 4.0 1.0 L 0.0 1.0 L 0.0 0.0 Z" style="vector-effect: non-scaling-stroke;" /></g></g></g></g></g></g></g><g transform="matrix(1.0, 0.0, 0.0, 1.0, 0.0, 52.5)"><g><g><g transform="matrix(1.0, 0.0, 0.0, 1.0, 0.0, 0.0)"><g><g style="fill: #000000;stroke: black;stroke-width: 2.1;" transform="matrix(1.0, 0.0, 0.0, 1.0, -0.4, -6.0)"><path d="M 0.0 0.0 L 0.8 0.0 L 0.8 6.0 L 0.0 6.0 L 0.0 0.0 Z" style="vector-effect: non-scaling-stroke;" /></g><g transform="matrix(1.0, 0.0, 0.0, 1.0, -0.0, -0.0)"><g /></g></g></g><g transform="matrix(1.0, 0.0, 0.0, 1.0, 7.0, 0.0)"><g><g style="fill: #000000;stroke: black;stroke-width: 2.1;" transform="matrix(1.0, 0.0, 0.0, 1.0, -0.4, -6.0)"><path d="M 0.0 0.0 L 0.8 0.0 L 0.8 6.0 L 0.0 6.0 L 0.0 0.0 Z" style="vector-effect: non-scaling-stroke;" /></g><g transform="matrix(1.0, 0.0, 0.0, 1.0, -0.0, -0.0)"><g /></g></g></g></g><g transform="matrix(1.0, 0.0, 0.0, 1.0, 14.0, 0.0)"><g><g style="fill: #000000;stroke: black;stroke-width: 2.1;" transform="matrix(1.0, 0.0, 0.0, 1.0, -0.4, -6.0)"><path d="M 0.0 0.0 L 0.8 0.0 L 0.8 6.0 L 0.0 6.0 L 0.0 0.0 Z" style="vector-effect: non-scaling-stroke;" /></g><g transform="matrix(1.0, 0.0, 0.0, 1.0, -0.0, -2.5)"><g><g><g style="fill: #9fb4cc;stroke: #9fb4cc;stroke-width: 1.05;" transform="matrix(1.0, 0.0, 0.0, 1.0, -1.0, -0.5)"><path d="M 0.0 0.0 L 2.0 0.0 L 2.0 1.0 L 0.0 1.0 L 0.0 0.0 Z" style="vector-effect: non-scaling-stroke;" /></g><g transform="matrix(1.0, 0.0, 0.0, 1.0, 0.0, 0.5)"><g transform="matrix(0.0, -1.0, 1.0, 0.0, 0.0, 0.0)"><g /></g></g></g><g transform="matrix(1.0, 0.0, 0.0, 1.0, 0.0, 1.0)"><g><g><g style="fill: #cccc9f;stroke: #cccc9f;stroke-width: 1.05;" transform="matrix(1.0, 0.0, 0.0, 1.0, -1.5, -0.5)"><path d="M 0.0 0.0 L 3.0 0.0 L 3.0 1.0 L 0.0 1.0 L 0.0 0.0 Z" style="vector-effect: non-scaling-stroke;" /></g><g transform="matrix(1.0, 0.0, 0.0, 1.0, 0.0, 0.5)"><g transform="matrix(0.0, -1.0, 1.0, 0.0, 0.0, 0.0)"><g /></g></g></g><g style="fill: #db4105;stroke: #db4105;stroke-width: 1.05;" transform="matrix(1.0, 0.0, 0.0, 1.0, -2.0, 0.5)"><path d="M 0.0 0.0 L 4.0 0.0 L 4.0 1.0 L 0.0 1.0 L 0.0 0.0 Z" style="vector-effect: non-scaling-stroke;" /></g></g></g></g></g></g></g></g></g></g></g></g></g><g /></g></g></g></g></svg>