<?xml version="1.0" encoding="utf-8" ?>
<svg baseProfile="full" height="500" version="1.1" width="660" xmlns="http://www.w3.org/2000/svg" xmlns:ev="http://www.w3.org/2001/xml-events" xmlns:xlink="http://www.w3.org/1999/xlink"><defs><marker id="arrow" markerHeight="3.5" markerWidth="5" orient="auto" refX="5.0" refY="1.7"><polygon points="0,0 5,1.75 0,3.5" /></marker></defs><g style="fill:white; stroke: black; stroke-width: 0.01;"><g transform="matrix(1.0, 0.0, 0.0, 1.0, 330.0, 250.0)"><g transform="matrix(19.047619047619047, 0.0, 0.0, 19.047619047619047, 0.0, 0.0)"><g><g transform="matrix(1.0, 0.0, 0.0, 1.0, -0.0, -0.0)"><g transform="matrix(1.0, 0.0, 0.0, 1.0, -15.5, 11.5)"><g style="stroke-width: 0.05;" transform="matrix(1.0, 0.0, 0.0, 1.0, 0.0, 0.0)"><polyline points="0.0,0.0 0.0,1.0 1.0,1.0 1.0,0.0 0.0,0.0 -1.0,0.0 -1.0,-1.0 0.0,-1.0 0.0,-2.0 -1.0,-2.0 -1.0,-3.0 0.0,-3.0 1.0,-3.0 1.0,-4.0 0.0,-4.0 0.0,-3.0 0.0,-2.0 -1.0,-2.0 -1.0,-3.0 0.0,-3.0 0.0,-2.0 0.0,-1.0 1.0,-1.0 1.0,-2.0 2.0,-2.0 2.0,-1.0 3.0,-1.0 3.0,-2.0 3.0,-3.0 4.0,-3.0 4.0,-2.0 3.0,-2.0 4.0,-2.0 3.0,-2.0 3.0,-3.0 4.0,-3.0 4.0,-2.0 4.0,-1.0 5.0,-1.0 5.0,-2.0 6.0,-2.0 6.0,-1.0 7.0,-1.0 7.0,-2.0 7.0,-3.0 8.0,-3.0 8.0,-2.0 7.0,-2.0 7.0,-3.0 7.0,-4.0 6.0,-4.0 6.0,-3.0 7.0,-3.0 8.0,-3.0 8.0,-2.0 7.0,-2.0 7.0,-1.0 8.0,-1.0 8.0,0.0 7.0,0.0 6.0,0.0 6.0,1.0 7.0,1.0 7.0,0.0 6.0,0.0 5.0,0.0 5.0,-1.0 6.0,-1.0 6.0,0.0 6.0,1.0 7.0,1.0 7.0,0.0 8.0,0.0 8.0,1.0 9.0,1.0 9.0,0.0 9.0,-1.0 10.0,-1.0 10.0,0.0 9.0,0.0 8.0,0.0 8.0,1.0 9.0,1.0 9.0,0.0 8.0,0.0 7.0,0.0 7.0,-1.0 8.0,-1.0 8.0,-2.0 7.0,-2.0 7.0,-3.0 8.0,-3.0 9.0,-3.0 9.0,-4.0 8.0,-4.0 8.0,-3.0 8.0,-4.0 8.0,-3.0 9.0,-3.0 9.0,-4.0 8.0,-4.0 7.0,-4.0 7.0,-5.0 8.0,-5.0 8.0,-6.0 7.0,-6.0 7.0,-7.0 8.0,-7.0 9.0,-7.0 9.0,-8.0 8.0,-8.0 8.0,-7.0 9.0,-7.0 10.0,-7.0 10.0,-6.0 9.0,-6.0 9.0,-7.0 9.0,-8.0 8.0,-8.0 8.0,-7.0 7.0,-7.0 7.0,-8.0 6.0,-8.0 6.0,-7.0 6.0,-6.0 5.0,-6.0 5.0,-7.0 6.0,-7.0 6.0,-8.0 5.0,-8.0 5.0,-9.0 6.0,-9.0 6.0,-8.0 6.0,-7.0 7.0,-7.0 7.0,-8.0 8.0,-8.0 8.0,-7.0 9.0,-7.0 9.0,-8.0 9.0,-9.0 10.0,-9.0 10.0,-8.0 9.0,-8.0 8.0,-8.0 8.0,-7.0 9.0,-7.0 9.0,-8.0 8.0,-8.0 7.0,-8.0 7.0,-9.0 8.0,-9.0 8.0,-10.0 7.0,-10.0 7.0,-11.0 8.0,-11.0 9.0,-11.0 9.0,-12.0 8.0,-12.0 8.0,-11.0 8.0,-12.0 8.0,-11.0 9.0,-11.0 9.0,-12.0 8.0,-12.0 7.0,-12.0 7.0,-13.0 8.0,-13.0 8.0,-14.0 7.0,-14.0 7.0,-15.0 8.0,-15.0 9.0,-15.0 9.0,-16.0 8.0,-16.0 8.0,-15.0 9.0,-15.0 10.0,-15.0 10.0,-14.0 9.0,-14.0 9.0,-15.0 9.0,-16.0 8.0,-16.0 8.0,-15.0 7.0,-15.0 7.0,-16.0 6.0,-16.0 6.0,-15.0 6.0,-14.0 5.0,-14.0 5.0,-15.0 6.0,-15.0 7.0,-15.0 7.0,-16.0 6.0,-16.0 6.0,-15.0 7.0,-15.0 8.0,-15.0 8.0,-14.0 7.0,-14.0 7.0,-13.0 8.0,-13.0 8.0,-12.0 7.0,-12.0 6.0,-12.0 6.0,-11.0 7.0,-11.0 7.0,-12.0 7.0,-13.0 8.0,-13.0 8.0,-12.0 7.0,-12.0 7.0,-13.0 7.0,-14.0 6.0,-14.0 6.0,-13.0 5.0,-13.0 5.0,-14.0 4.0,-14.0 4.0,-13.0 4.0,-12.0 3.0,-12.0 3.0,-13.0 4.0,-13.0 3.0,-13.0 4.0,-13.0 4.0,-12.0 3.0,-12.0 3.0,-13.0 3.0,-14.0 2.0,-14.0 2.0,-13.0 1.0,-13.0 1.0,-14.0 0.0,-14.0 0.0,-13.0 0.0,-12.0 -1.0,-12.0 -1.0,-13.0 0.0,-13.0 0.0,-12.0 0.0,-11.0 1.0,-11.0 1.0,-12.0 0.0,-12.0 -1.0,-12.0 -1.0,-13.0 0.0,-13.0 0.0,-14.0 -1.0,-14.0 -1.0,-15.0 0.0,-15.0 1.0,-15.0 1.0,-16.0 0.0,-16.0 0.0,-15.0 0.0,-14.0 -1.0,-14.0 -1.0,-15.0 0.0,-15.0 0.0,-14.0 0.0,-13.0 1.0,-13.0 1.0,-14.0 2.0,-14.0 2.0,-13.0 3.0,-13.0 3.0,-14.0 3.0,-15.0 4.0,-15.0 4.0,-14.0 3.0,-14.0 2.0,-14.0 2.0,-13.0 3.0,-13.0 3.0,-14.0 2.0,-14.0 1.0,-14.0 1.0,-15.0 2.0,-15.0 2.0,-16.0 1.0,-16.0 1.0,-17.0 2.0,-17.0 3.0,-17.0 3.0,-18.0 2.0,-18.0 2.0,-17.0 2.0,-18.0 2.0,-17.0 3.0,-17.0 3.0,-18.0 2.0,-18.0 1.0,-18.0 1.0,-19.0 2.0,-19.0 2.0,-20.0 1.0,-20.0 1.0,-21.0 2.0,-21.0 3.0,-21.0 3.0,-22.0 2.0,-22.0 2.0,-21.0 3.0,-21.0 4.0,-21.0 4.0,-20.0 3.0,-20.0 3.0,-21.0 3.0,-22.0 2.0,-22.0 2.0,-21.0 1.0,-21.0 1.0,-22.0 0.0,-22.0 0.0,-21.0 0.0,-20.0 -1.0,-20.0 -1.0,-21.0 0.0,-21.0 0.0,-20.0 0.0,-19.0 1.0,-19.0 1.0,-20.0 0.0,-20.0 -1.0,-20.0 -1.0,-21.0 0.0,-21.0 0.0,-22.0 -1.0,-22.0 -1.0,-23.0 0.0,-23.0 1.0,-23.0 1.0,-24.0 0.0,-24.0 0.0,-23.0 0.0,-22.0 -1.0,-22.0 -1.0,-23.0 0.0,-23.0 0.0,-22.0 0.0,-21.0 1.0,-21.0 1.0,-22.0 2.0,-22.0 2.0,-21.0 3.0,-21.0 3.0,-22.0 3.0,-23.0 4.0,-23.0 4.0,-22.0 3.0,-22.0 4.0,-22.0 3.0,-22.0 3.0,-23.0 4.0,-23.0 4.0,-22.0 4.0,-21.0 5.0,-21.0 5.0,-22.0 6.0,-22.0 6.0,-21.0 7.0,-21.0 7.0,-22.0 7.0,-23.0 8.0,-23.0 8.0,-22.0 7.0,-22.0 7.0,-23.0 7.0,-24.0 6.0,-24.0 6.0,-23.0 7.0,-23.0 8.0,-23.0 8.0,-22.0 7.0,-22.0 7.0,-21.0 8.0,-21.0 8.0,-20.0 7.0,-20.0 6.0,-20.0 6.0,-19.0 7.0,-19.0 7.0,-20.0 8.0,-20.0 8.0,-19.0 9.0,-19.0 9.0,-20.0 8.0,-20.0 7.0,-20.0 7.0,-21.0 8.0,-21.0 8.0,-22.0 7.0,-22.0 7.0,-23.0 8.0,-23.0 9.0,-23.0 9.0,-24.0 8.0,-24.0 8.0,-23.0 8.0,-22.0 7.0,-22.0 7.0,-23.0 8.0,-23.0 8.0,-22.0 8.0,-21.0 9.0,-21.0 9.0,-22.0 10.0,-22.0 10.0,-21.0 11.0,-21.0 11.0,-22.0 11.0,-23.0 12.0,-23.0 12.0,-22.0 11.0,-22.0 12.0,-22.0 11.0,-22.0 11.0,-23.0 12.0,-23.0 12.0,-22.0 12.0,-21.0 13.0,-21.0 13.0,-22.0 14.0,-22.0 14.0,-21.0 15.0,-21.0 15.0,-22.0 15.0,-23.0 16.0,-23.0 16.0,-22.0 15.0,-22.0 15.0,-23.0 15.0,-24.0 14.0,-24.0 14.0,-23.0 15.0,-23.0 16.0,-23.0 16.0,-22.0 15.0,-22.0 15.0,-21.0 16.0,-21.0 16.0,-20.0 15.0,-20.0 14.0,-20.0 14.0,-19.0 15.0,-19.0 15.0,-20.0 15.0,-21.0 16.0,-21.0 16.0,-20.0 15.0,-20.0 15.0,-21.0 15.0,-22.0 14.0,-22.0 14.0,-21.0 13.0,-21.0 13.0,-22.0 12.0,-22.0 12.0,-21.0 12.0,-20.0 11.0,-20.0 11.0,-21.0 12.0,-21.0 13.0,-21.0 13.0,-22.0 12.0,-22.0 12.0,-21.0 13.0,-21.0 14.0,-21.0 14.0,-20.0 13.0,-20.0 13.0,-19.0 14.0,-19.0 14.0,-18.0 13.0,-18.0 12.0,-18.0 12.0,-17.0 13.0,-17.0 13.0,-18.0 13.0,-17.0 13.0,-18.0 12.0,-18.0 12.0,-17.0 13.0,-17.0 14.0,-17.0 14.0,-16.0 13.0,-16.0 13.0,-15.0 14.0,-15.0 14.0,-14.0 13.0,-14.0 12.0,-14.0 12.0,-13.0 13.0,-13.0 13.0,-14.0 12.0,-14.0 11.0,-14.0 11.0,-15.0 12.0,-15.0 12.0,-14.0 12.0,-13.0 13.0,-13.0 13.0,-14.0 14.0,-14.0 14.0,-13.0 15.0,-13.0 15.0,-14.0 15.0,-15.0 16.0,-15.0 16.0,-14.0 15.0,-14.0 16.0,-14.0 15.0,-14.0 15.0,-15.0 16.0,-15.0 16.0,-14.0 16.0,-13.0 17.0,-13.0 17.0,-14.0 18.0,-14.0 18.0,-13.0 19.0,-13.0 19.0,-14.0 19.0,-15.0 20.0,-15.0 20.0,-14.0 19.0,-14.0 18.0,-14.0 18.0,-13.0 19.0,-13.0 19.0,-14.0 18.0,-14.0 17.0,-14.0 17.0,-15.0 18.0,-15.0 18.0,-16.0 17.0,-16.0 17.0,-17.0 18.0,-17.0 19.0,-17.0 19.0,-18.0 18.0,-18.0 18.0,-17.0 18.0,-18.0 18.0,-17.0 19.0,-17.0 19.0,-18.0 18.0,-18.0 17.0,-18.0 17.0,-19.0 18.0,-19.0 18.0,-20.0 17.0,-20.0 17.0,-21.0 18.0,-21.0 19.0,-21.0 19.0,-22.0 18.0,-22.0 18.0,-21.0 19.0,-21.0 20.0,-21.0 20.0,-20.0 19.0,-20.0 19.0,-21.0 19.0,-22.0 18.0,-22.0 18.0,-21.0 17.0,-21.0 17.0,-22.0 16.0,-22.0 16.0,-21.0 16.0,-20.0 15.0,-20.0 15.0,-21.0 16.0,-21.0 16.0,-20.0 16.0,-19.0 17.0,-19.0 17.0,-20.0 16.0,-20.0 15.0,-20.0 15.0,-21.0 16.0,-21.0 16.0,-22.0 15.0,-22.0 15.0,-23.0 16.0,-23.0 17.0,-23.0 17.0,-24.0 16.0,-24.0 16.0,-23.0 16.0,-22.0 15.0,-22.0 15.0,-23.0 16.0,-23.0 16.0,-22.0 16.0,-21.0 17.0,-21.0 17.0,-22.0 18.0,-22.0 18.0,-21.0 19.0,-21.0 19.0,-22.0 19.0,-23.0 20.0,-23.0 20.0,-22.0 19.0,-22.0 20.0,-22.0 19.0,-22.0 19.0,-23.0 20.0,-23.0 20.0,-22.0 20.0,-21.0 21.0,-21.0 21.0,-22.0 22.0,-22.0 22.0,-21.0 23.0,-21.0 23.0,-22.0 23.0,-23.0 24.0,-23.0 24.0,-22.0 23.0,-22.0 23.0,-23.0 23.0,-24.0 22.0,-24.0 22.0,-23.0 23.0,-23.0 24.0,-23.0 24.0,-22.0 23.0,-22.0 23.0,-21.0 24.0,-21.0 24.0,-20.0 23.0,-20.0 22.0,-20.0 22.0,-19.0 23.0,-19.0 23.0,-20.0 24.0,-20.0 24.0,-19.0 25.0,-19.0 25.0,-20.0 24.0,-20.0 23.0,-20.0 23.0,-21.0 24.0,-21.0 24.0,-22.0 23.0,-22.0 23.0,-23.0 24.0,-23.0 25.0,-23.0 25.0,-24.0 24.0,-24.0 24.0,-23.0 24.0,-22.0 23.0,-22.0 23.0,-23.0 24.0,-23.0 24.0,-22.0 24.0,-21.0 25.0,-21.0 25.0,-22.0 26.0,-22.0 26.0,-21.0 27.0,-21.0 27.0,-22.0 27.0,-23.0 28.0,-23.0 28.0,-22.0 27.0,-22.0 28.0,-22.0 27.0,-22.0 27.0,-23.0 28.0,-23.0 28.0,-22.0 28.0,-21.0 29.0,-21.0 29.0,-22.0 30.0,-22.0 30.0,-21.0 31.0,-21.0 31.0,-22.0 31.0,-23.0 32.0,-23.0 32.0,-22.0 31.0,-22.0 31.0,-23.0 31.0,-24.0 30.0,-24.0 30.0,-23.0 31.0,-23.0 32.0,-23.0 32.0,-22.0 31.0,-22.0 31.0,-21.0 32.0,-21.0 32.0,-20.0 31.0,-20.0 30.0,-20.0 30.0,-19.0 31.0,-19.0 31.0,-20.0 31.0,-21.0 32.0,-21.0 32.0,-20.0 31.0,-20.0 31.0,-21.0 31.0,-22.0 30.0,-22.0 30.0,-21.0 29.0,-21.0 29.0,-22.0 28.0,-22.0 28.0,-21.0 28.0,-20.0 27.0,-20.0 27.0,-21.0 28.0,-21.0 29.0,-21.0 29.0,-22.0 28.0,-22.0 28.0,-21.0 29.0,-21.0 30.0,-21.0 30.0,-20.0 29.0,-20.0 29.0,-19.0 30.0,-19.0 30.0,-18.0 29.0,-18.0 28.0,-18.0 28.0,-17.0 29.0,-17.0 29.0,-18.0 29.0,-17.0 29.0,-18.0 28.0,-18.0 28.0,-17.0 29.0,-17.0 30.0,-17.0 30.0,-16.0 29.0,-16.0 29.0,-15.0 30.0,-15.0 30.0,-14.0 29.0,-14.0 28.0,-14.0 28.0,-13.0 29.0,-13.0 29.0,-14.0 28.0,-14.0 27.0,-14.0 27.0,-15.0 28.0,-15.0 28.0,-14.0 28.0,-13.0 29.0,-13.0 29.0,-14.0 30.0,-14.0 30.0,-13.0 31.0,-13.0 31.0,-14.0 31.0,-15.0 32.0,-15.0 32.0,-14.0 31.0,-14.0 31.0,-15.0 31.0,-16.0 30.0,-16.0 30.0,-15.0 31.0,-15.0 32.0,-15.0 32.0,-14.0 31.0,-14.0 31.0,-13.0 32.0,-13.0 32.0,-12.0 31.0,-12.0 30.0,-12.0 30.0,-11.0 31.0,-11.0 31.0,-12.0 31.0,-13.0 32.0,-13.0 32.0,-12.0 31.0,-12.0 31.0,-13.0 31.0,-14.0 30.0,-14.0 30.0,-13.0 29.0,-13.0 29.0,-14.0 28.0,-14.0 28.0,-13.0 28.0,-12.0 27.0,-12.0 27.0,-13.0 28.0,-13.0 27.0,-13.0 28.0,-13.0 28.0,-12.0 27.0,-12.0 27.0,-13.0 27.0,-14.0 26.0,-14.0 26.0,-13.0 25.0,-13.0 25.0,-14.0 24.0,-14.0 24.0,-13.0 24.0,-12.0 23.0,-12.0 23.0,-13.0 24.0,-13.0 24.0,-12.0 24.0,-11.0 25.0,-11.0 25.0,-12.0 24.0,-12.0 23.0,-12.0 23.0,-13.0 24.0,-13.0 24.0,-14.0 23.0,-14.0 23.0,-15.0 24.0,-15.0 25.0,-15.0 25.0,-16.0 24.0,-16.0 24.0,-15.0 25.0,-15.0 26.0,-15.0 26.0,-14.0 25.0,-14.0 25.0,-15.0 25.0,-16.0 24.0,-16.0 24.0,-15.0 23.0,-15.0 23.0,-16.0 22.0,-16.0 22.0,-15.0 22.0,-14.0 21.0,-14.0 21.0,-15.0 22.0,-15.0 23.0,-15.0 23.0,-16.0 22.0,-16.0 22.0,-15.0 23.0,-15.0 24.0,-15.0 24.0,-14.0 23.0,-14.0 23.0,-13.0 24.0,-13.0 24.0,-12.0 23.0,-12.0 22.0,-12.0 22.0,-11.0 23.0,-11.0 23.0,-12.0 23.0,-11.0 23.0,-12.0 22.0,-12.0 22.0,-11.0 23.0,-11.0 24.0,-11.0 24.0,-10.0 23.0,-10.0 23.0,-9.0 24.0,-9.0 24.0,-8.0 23.0,-8.0 22.0,-8.0 22.0,-7.0 23.0,-7.0 23.0,-8.0 22.0,-8.0 21.0,-8.0 21.0,-9.0 22.0,-9.0 22.0,-8.0 22.0,-7.0 23.0,-7.0 23.0,-8.0 24.0,-8.0 24.0,-7.0 25.0,-7.0 25.0,-8.0 25.0,-9.0 26.0,-9.0 26.0,-8.0 25.0,-8.0 25.0,-7.0 26.0,-7.0 26.0,-6.0 25.0,-6.0 25.0,-7.0 25.0,-8.0 24.0,-8.0 24.0,-7.0 23.0,-7.0 23.0,-8.0 22.0,-8.0 22.0,-7.0 22.0,-6.0 21.0,-6.0 21.0,-7.0 22.0,-7.0 23.0,-7.0 23.0,-8.0 22.0,-8.0 22.0,-7.0 23.0,-7.0 24.0,-7.0 24.0,-6.0 23.0,-6.0 23.0,-5.0 24.0,-5.0 24.0,-4.0 23.0,-4.0 22.0,-4.0 22.0,-3.0 23.0,-3.0 23.0,-4.0 23.0,-3.0 23.0,-4.0 22.0,-4.0 22.0,-3.0 23.0,-3.0 24.0,-3.0 24.0,-2.0 23.0,-2.0 23.0,-1.0 24.0,-1.0 24.0,0.0 23.0,0.0 22.0,0.0 22.0,1.0 23.0,1.0 23.0,0.0 22.0,0.0 21.0,0.0 21.0,-1.0 22.0,-1.0 22.0,0.0 22.0,1.0 23.0,1.0 23.0,0.0 24.0,0.0 24.0,1.0 25.0,1.0 25.0,0.0 25.0,-1.0 26.0,-1.0 26.0,0.0 25.0,0.0 24.0,0.0 24.0,1.0 25.0,1.0 25.0,0.0 24.0,0.0 23.0,0.0 23.0,-1.0 24.0,-1.0 24.0,-2.0 23.0,-2.0 23.0,-3.0 24.0,-3.0 25.0,-3.0 25.0,-4.0 24.0,-4.0 24.0,-3.0 24.0,-2.0 23.0,-2.0 23.0,-3.0 24.0,-3.0 24.0,-2.0 24.0,-1.0 25.0,-1.0 25.0,-2.0 26.0,-2.0 26.0,-1.0 27.0,-1.0 27.0,-2.0 27.0,-3.0 28.0,-3.0 28.0,-2.0 27.0,-2.0 28.0,-2.0 27.0,-2.0 27.0,-3.0 28.0,-3.0 28.0,-2.0 28.0,-1.0 29.0,-1.0 29.0,-2.0 30.0,-2.0 30.0,-1.0 31.0,-1.0 31.0,-2.0 31.0,-3.0 32.0,-3.0 32.0,-2.0 31.0,-2.0 31.0,-3.0 31.0,-4.0 30.0,-4.0 30.0,-3.0 31.0,-3.0 32.0,-3.0 32.0,-2.0 31.0,-2.0 31.0,-1.0 32.0,-1.0 32.0,0.0 31.0,0.0 30.0,0.0 30.0,1.0 31.0,1.0 31.0,0.0" /></g></g></g><g /></g></g></g></g></svg>