<?xml version="1.0" encoding="utf-8" ?>
<svg baseProfile="full" height="64" version="1.1" width="191" xmlns="http://www.w3.org/2000/svg" xmlns:ev="http://www.w3.org/2001/xml-events" xmlns:xlink="http://www.w3.org/1999/xlink"><defs><marker id="arrow" markerHeight="3.5" markerWidth="5" orient="auto" refX="5.0" refY="1.7"><polygon points="0,0 5,1.75 0,3.5" /></marker></defs><g style="fill:white;"><g transform="matrix(60.95238494873047, 0.0, 0.0, 60.95238494873047, 6.095237731933594, 30.476192474365234)"><g><g style="fill: #005fdb;stroke: black;stroke-width: 0.573;" transform="matrix(0.10000000149011612, 0.0, 0.0, 0.10000000149011612, 0.10000000149011612, 0.0)"><path d="M 0.0 0.0 A 1.0 1.0 0.0 0 0 -1.0 -1.0 A 1.0 1.0 -90.0 0 0 -2.0 8.742277657347586e-08 A 1.0 1.0 179.99998474121094 0 0 -0.9999998807907104 1.0 A 1.0 1.0 90.0 0 0 0.0 -5.563627070159782e-08 Z" style="vector-effect: non-scaling-stroke;" /></g><g transform="matrix(1.0, 0.0, 0.0, 1.0, 0.30000004172325134, 0.0)"><g><g><g style="fill: #005fdb;stroke: black;stroke-width: 0.573;" transform="matrix(0.20000000298023224, 0.0, 0.0, 0.20000000298023224, 0.20000000298023224, 0.0)"><path d="M 0.0 0.0 A 1.0 1.0 0.0 0 0 -1.0 -1.0 A 1.0 1.0 -90.0 0 0 -2.0 8.742277657347586e-08 A 1.0 1.0 179.99998474121094 0 0 -0.9999998807907104 1.0 A 1.0 1.0 90.0 0 0 0.0 -5.563627070159782e-08 Z" style="vector-effect: non-scaling-stroke;" /></g><g style="fill: #005fdb;stroke: black;stroke-width: 0.573;" transform="matrix(0.30000001192092896, 0.0, 0.0, 0.30000001192092896, 0.800000011920929, 0.0)"><path d="M 0.0 0.0 A 1.0 1.0 0.0 0 0 -1.0 -1.0 A 1.0 1.0 -90.0 0 0 -2.0 8.742277657347586e-08 A 1.0 1.0 179.99998474121094 0 0 -0.9999998807907104 1.0 A 1.0 1.0 90.0 0 0 0.0 -5.563627070159782e-08 Z" style="vector-effect: non-scaling-stroke;" /></g></g><g transform="matrix(1.0, 0.0, 0.0, 1.0, 1.2000000476837158, 0.0)"><g><g style="fill: #005fdb;stroke: black;stroke-width: 0.573;" transform="matrix(0.4000000059604645, 0.0, 0.0, 0.4000000059604645, 0.4000000059604645, 0.0)"><path d="M 0.0 0.0 A 1.0 1.0 0.0 0 0 -1.0 -1.0 A 1.0 1.0 -90.0 0 0 -2.0 8.742277657347586e-08 A 1.0 1.0 179.99998474121094 0 0 -0.9999998807907104 1.0 A 1.0 1.0 90.0 0 0 0.0 -5.563627070159782e-08 Z" style="vector-effect: non-scaling-stroke;" /></g><g style="fill: #005fdb;stroke: black;stroke-width: 0.573;" transform="matrix(0.5, 0.0, 0.0, 0.5, 1.399999976158142, 0.0)"><path d="M 0.0 0.0 A 1.0 1.0 0.0 0 0 -1.0 -1.0 A 1.0 1.0 -90.0 0 0 -2.0 8.742277657347586e-08 A 1.0 1.0 179.99998474121094 0 0 -0.9999998807907104 1.0 A 1.0 1.0 90.0 0 0 0.0 -5.563627070159782e-08 Z" style="vector-effect: non-scaling-stroke;" /></g></g></g></g></g></g></g></g></svg>