<?xml version="1.0" encoding="utf-8" ?>
<svg baseProfile="full" height="256" version="1.1" width="295" xmlns="http://www.w3.org/2000/svg" xmlns:ev="http://www.w3.org/2001/xml-events" xmlns:xlink="http://www.w3.org/1999/xlink"><defs><marker id="arrow" markerHeight="3.5" markerWidth="5" orient="auto" refX="5.0" refY="1.7"><polygon points="0,0 5,1.75 0,3.5" /></marker></defs><g style="fill:white;"><g transform="matrix(70.38174710120728, 0.0, 0.0, 70.38174710120728, 140.76349420241849, 10.158730158729739)"><g><g><g><g><g style="fill: #ff9700;stroke: black;stroke-width: 0.885;" transform="matrix(1.0, 0.0, 0.0, 1.0, 0.0, 0.0)"><path d="M -0.12500000000000008 0.0721687836487052 L 0.12500000000000183 0.07216878364870284 L 0.0 -0.14433756729740743 L -0.12499999999999652 0.07216878364870517 Z" style="vector-effect: non-scaling-stroke;" /></g><g transform="matrix(1.0, 0.0, 0.0, 1.0, -0.12500000000000355, 0.2165063509461227)"><g><g style="fill: #ff9700;stroke: black;stroke-width: 0.885;" transform="matrix(1.0, 0.0, 0.0, 1.0, 0.0, 0.0)"><path d="M -0.12500000000000008 0.0721687836487052 L 0.12500000000000183 0.07216878364870284 L 0.0 -0.14433756729740743 L -0.12499999999999652 0.07216878364870517 Z" style="vector-effect: non-scaling-stroke;" /></g><g style="fill: #ff9700;stroke: black;stroke-width: 0.885;" transform="matrix(1.0, 0.0, 0.0, 1.0, 0.2500000000000071, 0.0)"><path d="M -0.12500000000000008 0.0721687836487052 L 0.12500000000000183 0.07216878364870284 L 0.0 -0.14433756729740743 L -0.12499999999999652 0.07216878364870517 Z" style="vector-effect: non-scaling-stroke;" /></g></g></g></g><g transform="matrix(1.0, 0.0, 0.0, 1.0, -0.2500000000000071, 0.4330127018922454)"><g><g><g style="fill: #ff9700;stroke: black;stroke-width: 0.885;" transform="matrix(1.0, 0.0, 0.0, 1.0, 0.0, 0.0)"><path d="M -0.12500000000000008 0.0721687836487052 L 0.12500000000000183 0.07216878364870284 L 0.0 -0.14433756729740743 L -0.12499999999999652 0.07216878364870517 Z" style="vector-effect: non-scaling-stroke;" /></g><g transform="matrix(1.0, 0.0, 0.0, 1.0, -0.12500000000000355, 0.2165063509461227)"><g><g style="fill: #ff9700;stroke: black;stroke-width: 0.885;" transform="matrix(1.0, 0.0, 0.0, 1.0, 0.0, 0.0)"><path d="M -0.12500000000000008 0.0721687836487052 L 0.12500000000000183 0.07216878364870284 L 0.0 -0.14433756729740743 L -0.12499999999999652 0.07216878364870517 Z" style="vector-effect: non-scaling-stroke;" /></g><g style="fill: #ff9700;stroke: black;stroke-width: 0.885;" transform="matrix(1.0, 0.0, 0.0, 1.0, 0.2500000000000071, 0.0)"><path d="M -0.12500000000000008 0.0721687836487052 L 0.12500000000000183 0.07216878364870284 L 0.0 -0.14433756729740743 L -0.12499999999999652 0.07216878364870517 Z" style="vector-effect: non-scaling-stroke;" /></g></g></g></g><g transform="matrix(1.0, 0.0, 0.0, 1.0, 0.5000000000000142, 0.0)"><g><g style="fill: #ff9700;stroke: black;stroke-width: 0.885;" transform="matrix(1.0, 0.0, 0.0, 1.0, 0.0, 0.0)"><path d="M -0.12500000000000008 0.0721687836487052 L 0.12500000000000183 0.07216878364870284 L 0.0 -0.14433756729740743 L -0.12499999999999652 0.07216878364870517 Z" style="vector-effect: non-scaling-stroke;" /></g><g transform="matrix(1.0, 0.0, 0.0, 1.0, -0.12500000000000355, 0.2165063509461227)"><g><g style="fill: #ff9700;stroke: black;stroke-width: 0.885;" transform="matrix(1.0, 0.0, 0.0, 1.0, 0.0, 0.0)"><path d="M -0.12500000000000008 0.0721687836487052 L 0.12500000000000183 0.07216878364870284 L 0.0 -0.14433756729740743 L -0.12499999999999652 0.07216878364870517 Z" style="vector-effect: non-scaling-stroke;" /></g><g style="fill: #ff9700;stroke: black;stroke-width: 0.885;" transform="matrix(1.0, 0.0, 0.0, 1.0, 0.2500000000000071, 0.0)"><path d="M -0.12500000000000008 0.0721687836487052 L 0.12500000000000183 0.07216878364870284 L 0.0 -0.14433756729740743 L -0.12499999999999652 0.07216878364870517 Z" style="vector-effect: non-scaling-stroke;" /></g></g></g></g></g></g></g></g><g transform="matrix(1.0, 0.0, 0.0, 1.0, -0.5000000000000142, 0.8660254037844908)"><g><g><g><g style="fill: #ff9700;stroke: black;stroke-width: 0.885;" transform="matrix(1.0, 0.0, 0.0, 1.0, 0.0, 0.0)"><path d="M -0.12500000000000008 0.0721687836487052 L 0.12500000000000183 0.07216878364870284 L 0.0 -0.14433756729740743 L -0.12499999999999652 0.07216878364870517 Z" style="vector-effect: non-scaling-stroke;" /></g><g transform="matrix(1.0, 0.0, 0.0, 1.0, -0.12500000000000355, 0.2165063509461227)"><g><g style="fill: #ff9700;stroke: black;stroke-width: 0.885;" transform="matrix(1.0, 0.0, 0.0, 1.0, 0.0, 0.0)"><path d="M -0.12500000000000008 0.0721687836487052 L 0.12500000000000183 0.07216878364870284 L 0.0 -0.14433756729740743 L -0.12499999999999652 0.07216878364870517 Z" style="vector-effect: non-scaling-stroke;" /></g><g style="fill: #ff9700;stroke: black;stroke-width: 0.885;" transform="matrix(1.0, 0.0, 0.0, 1.0, 0.2500000000000071, 0.0)"><path d="M -0.12500000000000008 0.0721687836487052 L 0.12500000000000183 0.07216878364870284 L 0.0 -0.14433756729740743 L -0.12499999999999652 0.07216878364870517 Z" style="vector-effect: non-scaling-stroke;" /></g></g></g></g><g transform="matrix(1.0, 0.0, 0.0, 1.0, -0.2500000000000071, 0.4330127018922454)"><g><g><g style="fill: #ff9700;stroke: black;stroke-width: 0.885;" transform="matrix(1.0, 0.0, 0.0, 1.0, 0.0, 0.0)"><path d="M -0.12500000000000008 0.0721687836487052 L 0.12500000000000183 0.07216878364870284 L 0.0 -0.14433756729740743 L -0.12499999999999652 0.07216878364870517 Z" style="vector-effect: non-scaling-stroke;" /></g><g transform="matrix(1.0, 0.0, 0.0, 1.0, -0.12500000000000355, 0.2165063509461227)"><g><g style="fill: #ff9700;stroke: black;stroke-width: 0.885;" transform="matrix(1.0, 0.0, 0.0, 1.0, 0.0, 0.0)"><path d="M -0.12500000000000008 0.0721687836487052 L 0.12500000000000183 0.07216878364870284 L 0.0 -0.14433756729740743 L -0.12499999999999652 0.07216878364870517 Z" style="vector-effect: non-scaling-stroke;" /></g><g style="fill: #ff9700;stroke: black;stroke-width: 0.885;" transform="matrix(1.0, 0.0, 0.0, 1.0, 0.2500000000000071, 0.0)"><path d="M -0.12500000000000008 0.0721687836487052 L 0.12500000000000183 0.07216878364870284 L 0.0 -0.14433756729740743 L -0.12499999999999652 0.07216878364870517 Z" style="vector-effect: non-scaling-stroke;" /></g></g></g></g><g transform="matrix(1.0, 0.0, 0.0, 1.0, 0.5000000000000142, 0.0)"><g><g style="fill: #ff9700;stroke: black;stroke-width: 0.885;" transform="matrix(1.0, 0.0, 0.0, 1.0, 0.0, 0.0)"><path d="M -0.12500000000000008 0.0721687836487052 L 0.12500000000000183 0.07216878364870284 L 0.0 -0.14433756729740743 L -0.12499999999999652 0.07216878364870517 Z" style="vector-effect: non-scaling-stroke;" /></g><g transform="matrix(1.0, 0.0, 0.0, 1.0, -0.12500000000000355, 0.2165063509461227)"><g><g style="fill: #ff9700;stroke: black;stroke-width: 0.885;" transform="matrix(1.0, 0.0, 0.0, 1.0, 0.0, 0.0)"><path d="M -0.12500000000000008 0.0721687836487052 L 0.12500000000000183 0.07216878364870284 L 0.0 -0.14433756729740743 L -0.12499999999999652 0.07216878364870517 Z" style="vector-effect: non-scaling-stroke;" /></g><g style="fill: #ff9700;stroke: black;stroke-width: 0.885;" transform="matrix(1.0, 0.0, 0.0, 1.0, 0.2500000000000071, 0.0)"><path d="M -0.12500000000000008 0.0721687836487052 L 0.12500000000000183 0.07216878364870284 L 0.0 -0.14433756729740743 L -0.12499999999999652 0.07216878364870517 Z" style="vector-effect: non-scaling-stroke;" /></g></g></g></g></g></g></g></g><g transform="matrix(1.0, 0.0, 0.0, 1.0, 1.0000000000000284, 0.0)"><g><g><g style="fill: #ff9700;stroke: black;stroke-width: 0.885;" transform="matrix(1.0, 0.0, 0.0, 1.0, 0.0, 0.0)"><path d="M -0.12500000000000008 0.0721687836487052 L 0.12500000000000183 0.07216878364870284 L 0.0 -0.14433756729740743 L -0.12499999999999652 0.07216878364870517 Z" style="vector-effect: non-scaling-stroke;" /></g><g transform="matrix(1.0, 0.0, 0.0, 1.0, -0.12500000000000355, 0.2165063509461227)"><g><g style="fill: #ff9700;stroke: black;stroke-width: 0.885;" transform="matrix(1.0, 0.0, 0.0, 1.0, 0.0, 0.0)"><path d="M -0.12500000000000008 0.0721687836487052 L 0.12500000000000183 0.07216878364870284 L 0.0 -0.14433756729740743 L -0.12499999999999652 0.07216878364870517 Z" style="vector-effect: non-scaling-stroke;" /></g><g style="fill: #ff9700;stroke: black;stroke-width: 0.885;" transform="matrix(1.0, 0.0, 0.0, 1.0, 0.2500000000000071, 0.0)"><path d="M -0.12500000000000008 0.0721687836487052 L 0.12500000000000183 0.07216878364870284 L 0.0 -0.14433756729740743 L -0.12499999999999652 0.07216878364870517 Z" style="vector-effect: non-scaling-stroke;" /></g></g></g></g><g transform="matrix(1.0, 0.0, 0.0, 1.0, -0.2500000000000071, 0.4330127018922454)"><g><g><g style="fill: #ff9700;stroke: black;stroke-width: 0.885;" transform="matrix(1.0, 0.0, 0.0, 1.0, 0.0, 0.0)"><path d="M -0.12500000000000008 0.0721687836487052 L 0.12500000000000183 0.07216878364870284 L 0.0 -0.14433756729740743 L -0.12499999999999652 0.07216878364870517 Z" style="vector-effect: non-scaling-stroke;" /></g><g transform="matrix(1.0, 0.0, 0.0, 1.0, -0.12500000000000355, 0.2165063509461227)"><g><g style="fill: #ff9700;stroke: black;stroke-width: 0.885;" transform="matrix(1.0, 0.0, 0.0, 1.0, 0.0, 0.0)"><path d="M -0.12500000000000008 0.0721687836487052 L 0.12500000000000183 0.07216878364870284 L 0.0 -0.14433756729740743 L -0.12499999999999652 0.07216878364870517 Z" style="vector-effect: non-scaling-stroke;" /></g><g style="fill: #ff9700;stroke: black;stroke-width: 0.885;" transform="matrix(1.0, 0.0, 0.0, 1.0, 0.2500000000000071, 0.0)"><path d="M -0.12500000000000008 0.0721687836487052 L 0.12500000000000183 0.07216878364870284 L 0.0 -0.14433756729740743 L -0.12499999999999652 0.07216878364870517 Z" style="vector-effect: non-scaling-stroke;" /></g></g></g></g><g transform="matrix(1.0, 0.0, 0.0, 1.0, 0.5000000000000142, 0.0)"><g><g style="fill: #ff9700;stroke: black;stroke-width: 0.885;" transform="matrix(1.0, 0.0, 0.0, 1.0, 0.0, 0.0)"><path d="M -0.12500000000000008 0.0721687836487052 L 0.12500000000000183 0.07216878364870284 L 0.0 -0.14433756729740743 L -0.12499999999999652 0.07216878364870517 Z" style="vector-effect: non-scaling-stroke;" /></g><g transform="matrix(1.0, 0.0, 0.0, 1.0, -0.12500000000000355, 0.2165063509461227)"><g><g style="fill: #ff9700;stroke: black;stroke-width: 0.885;" transform="matrix(1.0, 0.0, 0.0, 1.0, 0.0, 0.0)"><path d="M -0.12500000000000008 0.0721687836487052 L 0.12500000000000183 0.07216878364870284 L 0.0 -0.14433756729740743 L -0.12499999999999652 0.07216878364870517 Z" style="vector-effect: non-scaling-stroke;" /></g><g style="fill: #ff9700;stroke: black;stroke-width: 0.885;" transform="matrix(1.0, 0.0, 0.0, 1.0, 0.2500000000000071, 0.0)"><path d="M -0.12500000000000008 0.0721687836487052 L 0.12500000000000183 0.07216878364870284 L 0.0 -0.14433756729740743 L -0.12499999999999652 0.07216878364870517 Z" style="vector-effect: non-scaling-stroke;" /></g></g></g></g></g></g></g></g></g></g></g></g><g transform="matrix(1.0, 0.0, 0.0, 1.0, -1.0000000000000284, 1.7320508075689816)"><g><g><g><g><g style="fill: #ff9700;stroke: black;stroke-width: 0.885;" transform="matrix(1.0, 0.0, 0.0, 1.0, 0.0, 0.0)"><path d="M -0.12500000000000008 0.0721687836487052 L 0.12500000000000183 0.07216878364870284 L 0.0 -0.14433756729740743 L -0.12499999999999652 0.07216878364870517 Z" style="vector-effect: non-scaling-stroke;" /></g><g transform="matrix(1.0, 0.0, 0.0, 1.0, -0.12500000000000355, 0.2165063509461227)"><g><g style="fill: #ff9700;stroke: black;stroke-width: 0.885;" transform="matrix(1.0, 0.0, 0.0, 1.0, 0.0, 0.0)"><path d="M -0.12500000000000008 0.0721687836487052 L 0.12500000000000183 0.07216878364870284 L 0.0 -0.14433756729740743 L -0.12499999999999652 0.07216878364870517 Z" style="vector-effect: non-scaling-stroke;" /></g><g style="fill: #ff9700;stroke: black;stroke-width: 0.885;" transform="matrix(1.0, 0.0, 0.0, 1.0, 0.2500000000000071, 0.0)"><path d="M -0.12500000000000008 0.0721687836487052 L 0.12500000000000183 0.07216878364870284 L 0.0 -0.14433756729740743 L -0.12499999999999652 0.07216878364870517 Z" style="vector-effect: non-scaling-stroke;" /></g></g></g></g><g transform="matrix(1.0, 0.0, 0.0, 1.0, -0.2500000000000071, 0.4330127018922454)"><g><g><g style="fill: #ff9700;stroke: black;stroke-width: 0.885;" transform="matrix(1.0, 0.0, 0.0, 1.0, 0.0, 0.0)"><path d="M -0.12500000000000008 0.0721687836487052 L 0.12500000000000183 0.07216878364870284 L 0.0 -0.14433756729740743 L -0.12499999999999652 0.07216878364870517 Z" style="vector-effect: non-scaling-stroke;" /></g><g transform="matrix(1.0, 0.0, 0.0, 1.0, -0.12500000000000355, 0.2165063509461227)"><g><g style="fill: #ff9700;stroke: black;stroke-width: 0.885;" transform="matrix(1.0, 0.0, 0.0, 1.0, 0.0, 0.0)"><path d="M -0.12500000000000008 0.0721687836487052 L 0.12500000000000183 0.07216878364870284 L 0.0 -0.14433756729740743 L -0.12499999999999652 0.07216878364870517 Z" style="vector-effect: non-scaling-stroke;" /></g><g style="fill: #ff9700;stroke: black;stroke-width: 0.885;" transform="matrix(1.0, 0.0, 0.0, 1.0, 0.2500000000000071, 0.0)"><path d="M -0.12500000000000008 0.0721687836487052 L 0.12500000000000183 0.07216878364870284 L 0.0 -0.14433756729740743 L -0.12499999999999652 0.07216878364870517 Z" style="vector-effect: non-scaling-stroke;" /></g></g></g></g><g transform="matrix(1.0, 0.0, 0.0, 1.0, 0.5000000000000142, 0.0)"><g><g style="fill: #ff9700;stroke: black;stroke-width: 0.885;" transform="matrix(1.0, 0.0, 0.0, 1.0, 0.0, 0.0)"><path d="M -0.12500000000000008 0.0721687836487052 L 0.12500000000000183 0.07216878364870284 L 0.0 -0.14433756729740743 L -0.12499999999999652 0.07216878364870517 Z" style="vector-effect: non-scaling-stroke;" /></g><g transform="matrix(1.0, 0.0, 0.0, 1.0, -0.12500000000000355, 0.2165063509461227)"><g><g style="fill: #ff9700;stroke: black;stroke-width: 0.885;" transform="matrix(1.0, 0.0, 0.0, 1.0, 0.0, 0.0)"><path d="M -0.12500000000000008 0.0721687836487052 L 0.12500000000000183 0.07216878364870284 L 0.0 -0.14433756729740743 L -0.12499999999999652 0.07216878364870517 Z" style="vector-effect: non-scaling-stroke;" /></g><g style="fill: #ff9700;stroke: black;stroke-width: 0.885;" transform="matrix(1.0, 0.0, 0.0, 1.0, 0.2500000000000071, 0.0)"><path d="M -0.12500000000000008 0.0721687836487052 L 0.12500000000000183 0.07216878364870284 L 0.0 -0.14433756729740743 L -0.12499999999999652 0.07216878364870517 Z" style="vector-effect: non-scaling-stroke;" /></g></g></g></g></g></g></g></g><g transform="matrix(1.0, 0.0, 0.0, 1.0, -0.5000000000000142, 0.8660254037844908)"><g><g><g><g style="fill: #ff9700;stroke: black;stroke-width: 0.885;" transform="matrix(1.0, 0.0, 0.0, 1.0, 0.0, 0.0)"><path d="M -0.12500000000000008 0.0721687836487052 L 0.12500000000000183 0.07216878364870284 L 0.0 -0.14433756729740743 L -0.12499999999999652 0.07216878364870517 Z" style="vector-effect: non-scaling-stroke;" /></g><g transform="matrix(1.0, 0.0, 0.0, 1.0, -0.12500000000000355, 0.2165063509461227)"><g><g style="fill: #ff9700;stroke: black;stroke-width: 0.885;" transform="matrix(1.0, 0.0, 0.0, 1.0, 0.0, 0.0)"><path d="M -0.12500000000000008 0.0721687836487052 L 0.12500000000000183 0.07216878364870284 L 0.0 -0.14433756729740743 L -0.12499999999999652 0.07216878364870517 Z" style="vector-effect: non-scaling-stroke;" /></g><g style="fill: #ff9700;stroke: black;stroke-width: 0.885;" transform="matrix(1.0, 0.0, 0.0, 1.0, 0.2500000000000071, 0.0)"><path d="M -0.12500000000000008 0.0721687836487052 L 0.12500000000000183 0.07216878364870284 L 0.0 -0.14433756729740743 L -0.12499999999999652 0.07216878364870517 Z" style="vector-effect: non-scaling-stroke;" /></g></g></g></g><g transform="matrix(1.0, 0.0, 0.0, 1.0, -0.2500000000000071, 0.4330127018922454)"><g><g><g style="fill: #ff9700;stroke: black;stroke-width: 0.885;" transform="matrix(1.0, 0.0, 0.0, 1.0, 0.0, 0.0)"><path d="M -0.12500000000000008 0.0721687836487052 L 0.12500000000000183 0.07216878364870284 L 0.0 -0.14433756729740743 L -0.12499999999999652 0.07216878364870517 Z" style="vector-effect: non-scaling-stroke;" /></g><g transform="matrix(1.0, 0.0, 0.0, 1.0, -0.12500000000000355, 0.2165063509461227)"><g><g style="fill: #ff9700;stroke: black;stroke-width: 0.885;" transform="matrix(1.0, 0.0, 0.0, 1.0, 0.0, 0.0)"><path d="M -0.12500000000000008 0.0721687836487052 L 0.12500000000000183 0.07216878364870284 L 0.0 -0.14433756729740743 L -0.12499999999999652 0.07216878364870517 Z" style="vector-effect: non-scaling-stroke;" /></g><g style="fill: #ff9700;stroke: black;stroke-width: 0.885;" transform="matrix(1.0, 0.0, 0.0, 1.0, 0.2500000000000071, 0.0)"><path d="M -0.12500000000000008 0.0721687836487052 L 0.12500000000000183 0.07216878364870284 L 0.0 -0.14433756729740743 L -0.12499999999999652 0.07216878364870517 Z" style="vector-effect: non-scaling-stroke;" /></g></g></g></g><g transform="matrix(1.0, 0.0, 0.0, 1.0, 0.5000000000000142, 0.0)"><g><g style="fill: #ff9700;stroke: black;stroke-width: 0.885;" transform="matrix(1.0, 0.0, 0.0, 1.0, 0.0, 0.0)"><path d="M -0.12500000000000008 0.0721687836487052 L 0.12500000000000183 0.07216878364870284 L 0.0 -0.14433756729740743 L -0.12499999999999652 0.07216878364870517 Z" style="vector-effect: non-scaling-stroke;" /></g><g transform="matrix(1.0, 0.0, 0.0, 1.0, -0.12500000000000355, 0.2165063509461227)"><g><g style="fill: #ff9700;stroke: black;stroke-width: 0.885;" transform="matrix(1.0, 0.0, 0.0, 1.0, 0.0, 0.0)"><path d="M -0.12500000000000008 0.0721687836487052 L 0.12500000000000183 0.07216878364870284 L 0.0 -0.14433756729740743 L -0.12499999999999652 0.07216878364870517 Z" style="vector-effect: non-scaling-stroke;" /></g><g style="fill: #ff9700;stroke: black;stroke-width: 0.885;" transform="matrix(1.0, 0.0, 0.0, 1.0, 0.2500000000000071, 0.0)"><path d="M -0.12500000000000008 0.0721687836487052 L 0.12500000000000183 0.07216878364870284 L 0.0 -0.14433756729740743 L -0.12499999999999652 0.07216878364870517 Z" style="vector-effect: non-scaling-stroke;" /></g></g></g></g></g></g></g></g><g transform="matrix(1.0, 0.0, 0.0, 1.0, 1.0000000000000284, 0.0)"><g><g><g style="fill: #ff9700;stroke: black;stroke-width: 0.885;" transform="matrix(1.0, 0.0, 0.0, 1.0, 0.0, 0.0)"><path d="M -0.12500000000000008 0.0721687836487052 L 0.12500000000000183 0.07216878364870284 L 0.0 -0.14433756729740743 L -0.12499999999999652 0.07216878364870517 Z" style="vector-effect: non-scaling-stroke;" /></g><g transform="matrix(1.0, 0.0, 0.0, 1.0, -0.12500000000000355, 0.2165063509461227)"><g><g style="fill: #ff9700;stroke: black;stroke-width: 0.885;" transform="matrix(1.0, 0.0, 0.0, 1.0, 0.0, 0.0)"><path d="M -0.12500000000000008 0.0721687836487052 L 0.12500000000000183 0.07216878364870284 L 0.0 -0.14433756729740743 L -0.12499999999999652 0.07216878364870517 Z" style="vector-effect: non-scaling-stroke;" /></g><g style="fill: #ff9700;stroke: black;stroke-width: 0.885;" transform="matrix(1.0, 0.0, 0.0, 1.0, 0.2500000000000071, 0.0)"><path d="M -0.12500000000000008 0.0721687836487052 L 0.12500000000000183 0.07216878364870284 L 0.0 -0.14433756729740743 L -0.12499999999999652 0.07216878364870517 Z" style="vector-effect: non-scaling-stroke;" /></g></g></g></g><g transform="matrix(1.0, 0.0, 0.0, 1.0, -0.2500000000000071, 0.4330127018922454)"><g><g><g style="fill: #ff9700;stroke: black;stroke-width: 0.885;" transform="matrix(1.0, 0.0, 0.0, 1.0, 0.0, 0.0)"><path d="M -0.12500000000000008 0.0721687836487052 L 0.12500000000000183 0.07216878364870284 L 0.0 -0.14433756729740743 L -0.12499999999999652 0.07216878364870517 Z" style="vector-effect: non-scaling-stroke;" /></g><g transform="matrix(1.0, 0.0, 0.0, 1.0, -0.12500000000000355, 0.2165063509461227)"><g><g style="fill: #ff9700;stroke: black;stroke-width: 0.885;" transform="matrix(1.0, 0.0, 0.0, 1.0, 0.0, 0.0)"><path d="M -0.12500000000000008 0.0721687836487052 L 0.12500000000000183 0.07216878364870284 L 0.0 -0.14433756729740743 L -0.12499999999999652 0.07216878364870517 Z" style="vector-effect: non-scaling-stroke;" /></g><g style="fill: #ff9700;stroke: black;stroke-width: 0.885;" transform="matrix(1.0, 0.0, 0.0, 1.0, 0.2500000000000071, 0.0)"><path d="M -0.12500000000000008 0.0721687836487052 L 0.12500000000000183 0.07216878364870284 L 0.0 -0.14433756729740743 L -0.12499999999999652 0.07216878364870517 Z" style="vector-effect: non-scaling-stroke;" /></g></g></g></g><g transform="matrix(1.0, 0.0, 0.0, 1.0, 0.5000000000000142, 0.0)"><g><g style="fill: #ff9700;stroke: black;stroke-width: 0.885;" transform="matrix(1.0, 0.0, 0.0, 1.0, 0.0, 0.0)"><path d="M -0.12500000000000008 0.0721687836487052 L 0.12500000000000183 0.07216878364870284 L 0.0 -0.14433756729740743 L -0.12499999999999652 0.07216878364870517 Z" style="vector-effect: non-scaling-stroke;" /></g><g transform="matrix(1.0, 0.0, 0.0, 1.0, -0.12500000000000355, 0.2165063509461227)"><g><g style="fill: #ff9700;stroke: black;stroke-width: 0.885;" transform="matrix(1.0, 0.0, 0.0, 1.0, 0.0, 0.0)"><path d="M -0.12500000000000008 0.0721687836487052 L 0.12500000000000183 0.07216878364870284 L 0.0 -0.14433756729740743 L -0.12499999999999652 0.07216878364870517 Z" style="vector-effect: non-scaling-stroke;" /></g><g style="fill: #ff9700;stroke: black;stroke-width: 0.885;" transform="matrix(1.0, 0.0, 0.0, 1.0, 0.2500000000000071, 0.0)"><path d="M -0.12500000000000008 0.0721687836487052 L 0.12500000000000183 0.07216878364870284 L 0.0 -0.14433756729740743 L -0.12499999999999652 0.07216878364870517 Z" style="vector-effect: non-scaling-stroke;" /></g></g></g></g></g></g></g></g></g></g></g></g><g transform="matrix(1.0, 0.0, 0.0, 1.0, 2.000000000000057, 0.0)"><g><g><g><g style="fill: #ff9700;stroke: black;stroke-width: 0.885;" transform="matrix(1.0, 0.0, 0.0, 1.0, 0.0, 0.0)"><path d="M -0.12500000000000008 0.0721687836487052 L 0.12500000000000183 0.07216878364870284 L 0.0 -0.14433756729740743 L -0.12499999999999652 0.07216878364870517 Z" style="vector-effect: non-scaling-stroke;" /></g><g transform="matrix(1.0, 0.0, 0.0, 1.0, -0.12500000000000355, 0.2165063509461227)"><g><g style="fill: #ff9700;stroke: black;stroke-width: 0.885;" transform="matrix(1.0, 0.0, 0.0, 1.0, 0.0, 0.0)"><path d="M -0.12500000000000008 0.0721687836487052 L 0.12500000000000183 0.07216878364870284 L 0.0 -0.14433756729740743 L -0.12499999999999652 0.07216878364870517 Z" style="vector-effect: non-scaling-stroke;" /></g><g style="fill: #ff9700;stroke: black;stroke-width: 0.885;" transform="matrix(1.0, 0.0, 0.0, 1.0, 0.2500000000000071, 0.0)"><path d="M -0.12500000000000008 0.0721687836487052 L 0.12500000000000183 0.07216878364870284 L 0.0 -0.14433756729740743 L -0.12499999999999652 0.07216878364870517 Z" style="vector-effect: non-scaling-stroke;" /></g></g></g></g><g transform="matrix(1.0, 0.0, 0.0, 1.0, -0.2500000000000071, 0.4330127018922454)"><g><g><g style="fill: #ff9700;stroke: black;stroke-width: 0.885;" transform="matrix(1.0, 0.0, 0.0, 1.0, 0.0, 0.0)"><path d="M -0.12500000000000008 0.0721687836487052 L 0.12500000000000183 0.07216878364870284 L 0.0 -0.14433756729740743 L -0.12499999999999652 0.07216878364870517 Z" style="vector-effect: non-scaling-stroke;" /></g><g transform="matrix(1.0, 0.0, 0.0, 1.0, -0.12500000000000355, 0.2165063509461227)"><g><g style="fill: #ff9700;stroke: black;stroke-width: 0.885;" transform="matrix(1.0, 0.0, 0.0, 1.0, 0.0, 0.0)"><path d="M -0.12500000000000008 0.0721687836487052 L 0.12500000000000183 0.07216878364870284 L 0.0 -0.14433756729740743 L -0.12499999999999652 0.07216878364870517 Z" style="vector-effect: non-scaling-stroke;" /></g><g style="fill: #ff9700;stroke: black;stroke-width: 0.885;" transform="matrix(1.0, 0.0, 0.0, 1.0, 0.2500000000000071, 0.0)"><path d="M -0.12500000000000008 0.0721687836487052 L 0.12500000000000183 0.07216878364870284 L 0.0 -0.14433756729740743 L -0.12499999999999652 0.07216878364870517 Z" style="vector-effect: non-scaling-stroke;" /></g></g></g></g><g transform="matrix(1.0, 0.0, 0.0, 1.0, 0.5000000000000142, 0.0)"><g><g style="fill: #ff9700;stroke: black;stroke-width: 0.885;" transform="matrix(1.0, 0.0, 0.0, 1.0, 0.0, 0.0)"><path d="M -0.12500000000000008 0.0721687836487052 L 0.12500000000000183 0.07216878364870284 L 0.0 -0.14433756729740743 L -0.12499999999999652 0.07216878364870517 Z" style="vector-effect: non-scaling-stroke;" /></g><g transform="matrix(1.0, 0.0, 0.0, 1.0, -0.12500000000000355, 0.2165063509461227)"><g><g style="fill: #ff9700;stroke: black;stroke-width: 0.885;" transform="matrix(1.0, 0.0, 0.0, 1.0, 0.0, 0.0)"><path d="M -0.12500000000000008 0.0721687836487052 L 0.12500000000000183 0.07216878364870284 L 0.0 -0.14433756729740743 L -0.12499999999999652 0.07216878364870517 Z" style="vector-effect: non-scaling-stroke;" /></g><g style="fill: #ff9700;stroke: black;stroke-width: 0.885;" transform="matrix(1.0, 0.0, 0.0, 1.0, 0.2500000000000071, 0.0)"><path d="M -0.12500000000000008 0.0721687836487052 L 0.12500000000000183 0.07216878364870284 L 0.0 -0.14433756729740743 L -0.12499999999999652 0.07216878364870517 Z" style="vector-effect: non-scaling-stroke;" /></g></g></g></g></g></g></g></g><g transform="matrix(1.0, 0.0, 0.0, 1.0, -0.5000000000000142, 0.8660254037844908)"><g><g><g><g style="fill: #ff9700;stroke: black;stroke-width: 0.885;" transform="matrix(1.0, 0.0, 0.0, 1.0, 0.0, 0.0)"><path d="M -0.12500000000000008 0.0721687836487052 L 0.12500000000000183 0.07216878364870284 L 0.0 -0.14433756729740743 L -0.12499999999999652 0.07216878364870517 Z" style="vector-effect: non-scaling-stroke;" /></g><g transform="matrix(1.0, 0.0, 0.0, 1.0, -0.12500000000000355, 0.2165063509461227)"><g><g style="fill: #ff9700;stroke: black;stroke-width: 0.885;" transform="matrix(1.0, 0.0, 0.0, 1.0, 0.0, 0.0)"><path d="M -0.12500000000000008 0.0721687836487052 L 0.12500000000000183 0.07216878364870284 L 0.0 -0.14433756729740743 L -0.12499999999999652 0.07216878364870517 Z" style="vector-effect: non-scaling-stroke;" /></g><g style="fill: #ff9700;stroke: black;stroke-width: 0.885;" transform="matrix(1.0, 0.0, 0.0, 1.0, 0.2500000000000071, 0.0)"><path d="M -0.12500000000000008 0.0721687836487052 L 0.12500000000000183 0.07216878364870284 L 0.0 -0.14433756729740743 L -0.12499999999999652 0.07216878364870517 Z" style="vector-effect: non-scaling-stroke;" /></g></g></g></g><g transform="matrix(1.0, 0.0, 0.0, 1.0, -0.2500000000000071, 0.4330127018922454)"><g><g><g style="fill: #ff9700;stroke: black;stroke-width: 0.885;" transform="matrix(1.0, 0.0, 0.0, 1.0, 0.0, 0.0)"><path d="M -0.12500000000000008 0.0721687836487052 L 0.12500000000000183 0.07216878364870284 L 0.0 -0.14433756729740743 L -0.12499999999999652 0.07216878364870517 Z" style="vector-effect: non-scaling-stroke;" /></g><g transform="matrix(1.0, 0.0, 0.0, 1.0, -0.12500000000000355, 0.2165063509461227)"><g><g style="fill: #ff9700;stroke: black;stroke-width: 0.885;" transform="matrix(1.0, 0.0, 0.0, 1.0, 0.0, 0.0)"><path d="M -0.12500000000000008 0.0721687836487052 L 0.12500000000000183 0.07216878364870284 L 0.0 -0.14433756729740743 L -0.12499999999999652 0.07216878364870517 Z" style="vector-effect: non-scaling-stroke;" /></g><g style="fill: #ff9700;stroke: black;stroke-width: 0.885;" transform="matrix(1.0, 0.0, 0.0, 1.0, 0.2500000000000071, 0.0)"><path d="M -0.12500000000000008 0.0721687836487052 L 0.12500000000000183 0.07216878364870284 L 0.0 -0.14433756729740743 L -0.12499999999999652 0.07216878364870517 Z" style="vector-effect: non-scaling-stroke;" /></g></g></g></g><g transform="matrix(1.0, 0.0, 0.0, 1.0, 0.5000000000000142, 0.0)"><g><g style="fill: #ff9700;stroke: black;stroke-width: 0.885;" transform="matrix(1.0, 0.0, 0.0, 1.0, 0.0, 0.0)"><path d="M -0.12500000000000008 0.0721687836487052 L 0.12500000000000183 0.07216878364870284 L 0.0 -0.14433756729740743 L -0.12499999999999652 0.07216878364870517 Z" style="vector-effect: non-scaling-stroke;" /></g><g transform="matrix(1.0, 0.0, 0.0, 1.0, -0.12500000000000355, 0.2165063509461227)"><g><g style="fill: #ff9700;stroke: black;stroke-width: 0.885;" transform="matrix(1.0, 0.0, 0.0, 1.0, 0.0, 0.0)"><path d="M -0.12500000000000008 0.0721687836487052 L 0.12500000000000183 0.07216878364870284 L 0.0 -0.14433756729740743 L -0.12499999999999652 0.07216878364870517 Z" style="vector-effect: non-scaling-stroke;" /></g><g style="fill: #ff9700;stroke: black;stroke-width: 0.885;" transform="matrix(1.0, 0.0, 0.0, 1.0, 0.2500000000000071, 0.0)"><path d="M -0.12500000000000008 0.0721687836487052 L 0.12500000000000183 0.07216878364870284 L 0.0 -0.14433756729740743 L -0.12499999999999652 0.07216878364870517 Z" style="vector-effect: non-scaling-stroke;" /></g></g></g></g></g></g></g></g><g transform="matrix(1.0, 0.0, 0.0, 1.0, 1.0000000000000284, 0.0)"><g><g><g style="fill: #ff9700;stroke: black;stroke-width: 0.885;" transform="matrix(1.0, 0.0, 0.0, 1.0, 0.0, 0.0)"><path d="M -0.12500000000000008 0.0721687836487052 L 0.12500000000000183 0.07216878364870284 L 0.0 -0.14433756729740743 L -0.12499999999999652 0.07216878364870517 Z" style="vector-effect: non-scaling-stroke;" /></g><g transform="matrix(1.0, 0.0, 0.0, 1.0, -0.12500000000000355, 0.2165063509461227)"><g><g style="fill: #ff9700;stroke: black;stroke-width: 0.885;" transform="matrix(1.0, 0.0, 0.0, 1.0, 0.0, 0.0)"><path d="M -0.12500000000000008 0.0721687836487052 L 0.12500000000000183 0.07216878364870284 L 0.0 -0.14433756729740743 L -0.12499999999999652 0.07216878364870517 Z" style="vector-effect: non-scaling-stroke;" /></g><g style="fill: #ff9700;stroke: black;stroke-width: 0.885;" transform="matrix(1.0, 0.0, 0.0, 1.0, 0.2500000000000071, 0.0)"><path d="M -0.12500000000000008 0.0721687836487052 L 0.12500000000000183 0.07216878364870284 L 0.0 -0.14433756729740743 L -0.12499999999999652 0.07216878364870517 Z" style="vector-effect: non-scaling-stroke;" /></g></g></g></g><g transform="matrix(1.0, 0.0, 0.0, 1.0, -0.2500000000000071, 0.4330127018922454)"><g><g><g style="fill: #ff9700;stroke: black;stroke-width: 0.885;" transform="matrix(1.0, 0.0, 0.0, 1.0, 0.0, 0.0)"><path d="M -0.12500000000000008 0.0721687836487052 L 0.12500000000000183 0.07216878364870284 L 0.0 -0.14433756729740743 L -0.12499999999999652 0.07216878364870517 Z" style="vector-effect: non-scaling-stroke;" /></g><g transform="matrix(1.0, 0.0, 0.0, 1.0, -0.12500000000000355, 0.2165063509461227)"><g><g style="fill: #ff9700;stroke: black;stroke-width: 0.885;" transform="matrix(1.0, 0.0, 0.0, 1.0, 0.0, 0.0)"><path d="M -0.12500000000000008 0.0721687836487052 L 0.12500000000000183 0.07216878364870284 L 0.0 -0.14433756729740743 L -0.12499999999999652 0.07216878364870517 Z" style="vector-effect: non-scaling-stroke;" /></g><g style="fill: #ff9700;stroke: black;stroke-width: 0.885;" transform="matrix(1.0, 0.0, 0.0, 1.0, 0.2500000000000071, 0.0)"><path d="M -0.12500000000000008 0.0721687836487052 L 0.12500000000000183 0.07216878364870284 L 0.0 -0.14433756729740743 L -0.12499999999999652 0.07216878364870517 Z" style="vector-effect: non-scaling-stroke;" /></g></g></g></g><g transform="matrix(1.0, 0.0, 0.0, 1.0, 0.5000000000000142, 0.0)"><g><g style="fill: #ff9700;stroke: black;stroke-width: 0.885;" transform="matrix(1.0, 0.0, 0.0, 1.0, 0.0, 0.0)"><path d="M -0.12500000000000008 0.0721687836487052 L 0.12500000000000183 0.07216878364870284 L 0.0 -0.14433756729740743 L -0.12499999999999652 0.07216878364870517 Z" style="vector-effect: non-scaling-stroke;" /></g><g transform="matrix(1.0, 0.0, 0.0, 1.0, -0.12500000000000355, 0.2165063509461227)"><g><g style="fill: #ff9700;stroke: black;stroke-width: 0.885;" transform="matrix(1.0, 0.0, 0.0, 1.0, 0.0, 0.0)"><path d="M -0.12500000000000008 0.0721687836487052 L 0.12500000000000183 0.07216878364870284 L 0.0 -0.14433756729740743 L -0.12499999999999652 0.07216878364870517 Z" style="vector-effect: non-scaling-stroke;" /></g><g style="fill: #ff9700;stroke: black;stroke-width: 0.885;" transform="matrix(1.0, 0.0, 0.0, 1.0, 0.2500000000000071, 0.0)"><path d="M -0.12500000000000008 0.0721687836487052 L 0.12500000000000183 0.07216878364870284 L 0.0 -0.14433756729740743 L -0.12499999999999652 0.07216878364870517 Z" style="vector-effect: non-scaling-stroke;" /></g></g></g></g></g></g></g></g></g></g></g></g></g></g></g></g></g></g></svg>