<?xml version="1.0" encoding="utf-8" ?>
<svg baseProfile="full" height="256" version="1.1" width="295" xmlns="http://www.w3.org/2000/svg" xmlns:ev="http://www.w3.org/2001/xml-events" xmlns:xlink="http://www.w3.org/1999/xlink"><defs><marker id="arrow" markerHeight="3.5" markerWidth="5" orient="auto" refX="5.0" refY="1.7"><polygon points="0,0 5,1.75 0,3.5" /></marker></defs><g style="fill:white;"><g transform="matrix(70.38174438476562, 0.0, 0.0, 70.38174438476562, 140.76348876953125, 10.15872711368138)"><g><g><g><g><g style="fill: #ff9700;stroke: black;stroke-width: 0.885;" transform="matrix(1.0, 0.0, 0.0, 1.0, 0.0, 0.0)"><path d="M -0.125 0.07216878235340118 A 31.250125000152813 31.250125000152813 -90.0 0 1 0.12500000000000192 0.07216878235339765 A 31.250125000152813 31.250125000152813 150.00000000000003 0 1 -3.552713678800501e-15 -0.1443375685927073 A 31.250125000152817 31.250125000152817 30.00000000000004 0 1 -0.12499999999999652 0.07216878623931024 Z" style="vector-effect: non-scaling-stroke;" /></g><g transform="matrix(1.0, 0.0, 0.0, 1.0, -0.125, 0.21650636568665504)"><g><g style="fill: #ff9700;stroke: black;stroke-width: 0.885;" transform="matrix(1.0, 0.0, 0.0, 1.0, 0.0, 0.0)"><path d="M -0.125 0.07216878235340118 A 31.250125000152813 31.250125000152813 -90.0 0 1 0.12500000000000192 0.07216878235339765 A 31.250125000152813 31.250125000152813 150.00000000000003 0 1 -3.552713678800501e-15 -0.1443375685927073 A 31.250125000152817 31.250125000152817 30.00000000000004 0 1 -0.12499999999999652 0.07216878623931024 Z" style="vector-effect: non-scaling-stroke;" /></g><g style="fill: #ff9700;stroke: black;stroke-width: 0.885;" transform="matrix(1.0, 0.0, 0.0, 1.0, 0.25000000000000544, 0.0)"><path d="M -0.125 0.07216878235340118 A 31.250125000152813 31.250125000152813 -90.0 0 1 0.12500000000000192 0.07216878235339765 A 31.250125000152813 31.250125000152813 150.00000000000003 0 1 -3.552713678800501e-15 -0.1443375685927073 A 31.250125000152817 31.250125000152817 30.00000000000004 0 1 -0.12499999999999652 0.07216878623931024 Z" style="vector-effect: non-scaling-stroke;" /></g></g></g></g><g transform="matrix(1.0, 0.0, 0.0, 1.0, -0.25, 0.4330127537250519)"><g><g><g style="fill: #ff9700;stroke: black;stroke-width: 0.885;" transform="matrix(1.0, 0.0, 0.0, 1.0, 0.0, 0.0)"><path d="M -0.125 0.07216878235340118 A 31.250125000152813 31.250125000152813 -90.0 0 1 0.12500000000000192 0.07216878235339765 A 31.250125000152813 31.250125000152813 150.00000000000003 0 1 -3.552713678800501e-15 -0.1443375685927073 A 31.250125000152817 31.250125000152817 30.00000000000004 0 1 -0.12499999999999652 0.07216878623931024 Z" style="vector-effect: non-scaling-stroke;" /></g><g transform="matrix(1.0, 0.0, 0.0, 1.0, -0.125, 0.21650636568665504)"><g><g style="fill: #ff9700;stroke: black;stroke-width: 0.885;" transform="matrix(1.0, 0.0, 0.0, 1.0, 0.0, 0.0)"><path d="M -0.125 0.07216878235340118 A 31.250125000152813 31.250125000152813 -90.0 0 1 0.12500000000000192 0.07216878235339765 A 31.250125000152813 31.250125000152813 150.00000000000003 0 1 -3.552713678800501e-15 -0.1443375685927073 A 31.250125000152817 31.250125000152817 30.00000000000004 0 1 -0.12499999999999652 0.07216878623931024 Z" style="vector-effect: non-scaling-stroke;" /></g><g style="fill: #ff9700;stroke: black;stroke-width: 0.885;" transform="matrix(1.0, 0.0, 0.0, 1.0, 0.25000000000000544, 0.0)"><path d="M -0.125 0.07216878235340118 A 31.250125000152813 31.250125000152813 -90.0 0 1 0.12500000000000192 0.07216878235339765 A 31.250125000152813 31.250125000152813 150.00000000000003 0 1 -3.552713678800501e-15 -0.1443375685927073 A 31.250125000152817 31.250125000152817 30.00000000000004 0 1 -0.12499999999999652 0.07216878623931024 Z" style="vector-effect: non-scaling-stroke;" /></g></g></g></g><g transform="matrix(1.0, 0.0, 0.0, 1.0, 0.5, 0.0)"><g><g style="fill: #ff9700;stroke: black;stroke-width: 0.885;" transform="matrix(1.0, 0.0, 0.0, 1.0, 0.0, 0.0)"><path d="M -0.125 0.07216878235340118 A 31.250125000152813 31.250125000152813 -90.0 0 1 0.12500000000000192 0.07216878235339765 A 31.250125000152813 31.250125000152813 150.00000000000003 0 1 -3.552713678800501e-15 -0.1443375685927073 A 31.250125000152817 31.250125000152817 30.00000000000004 0 1 -0.12499999999999652 0.07216878623931024 Z" style="vector-effect: non-scaling-stroke;" /></g><g transform="matrix(1.0, 0.0, 0.0, 1.0, -0.125, 0.21650636568665504)"><g><g style="fill: #ff9700;stroke: black;stroke-width: 0.885;" transform="matrix(1.0, 0.0, 0.0, 1.0, 0.0, 0.0)"><path d="M -0.125 0.07216878235340118 A 31.250125000152813 31.250125000152813 -90.0 0 1 0.12500000000000192 0.07216878235339765 A 31.250125000152813 31.250125000152813 150.00000000000003 0 1 -3.552713678800501e-15 -0.1443375685927073 A 31.250125000152817 31.250125000152817 30.00000000000004 0 1 -0.12499999999999652 0.07216878623931024 Z" style="vector-effect: non-scaling-stroke;" /></g><g style="fill: #ff9700;stroke: black;stroke-width: 0.885;" transform="matrix(1.0, 0.0, 0.0, 1.0, 0.25000000000000544, 0.0)"><path d="M -0.125 0.07216878235340118 A 31.250125000152813 31.250125000152813 -90.0 0 1 0.12500000000000192 0.07216878235339765 A 31.250125000152813 31.250125000152813 150.00000000000003 0 1 -3.552713678800501e-15 -0.1443375685927073 A 31.250125000152817 31.250125000152817 30.00000000000004 0 1 -0.12499999999999652 0.07216878623931024 Z" style="vector-effect: non-scaling-stroke;" /></g></g></g></g></g></g></g></g><g transform="matrix(1.0, 0.0, 0.0, 1.0, -0.5, 0.866025447845459)"><g><g><g><g style="fill: #ff9700;stroke: black;stroke-width: 0.885;" transform="matrix(1.0, 0.0, 0.0, 1.0, 0.0, 0.0)"><path d="M -0.125 0.07216878235340118 A 31.250125000152813 31.250125000152813 -90.0 0 1 0.12500000000000192 0.07216878235339765 A 31.250125000152813 31.250125000152813 150.00000000000003 0 1 -3.552713678800501e-15 -0.1443375685927073 A 31.250125000152817 31.250125000152817 30.00000000000004 0 1 -0.12499999999999652 0.07216878623931024 Z" style="vector-effect: non-scaling-stroke;" /></g><g transform="matrix(1.0, 0.0, 0.0, 1.0, -0.125, 0.21650636568665504)"><g><g style="fill: #ff9700;stroke: black;stroke-width: 0.885;" transform="matrix(1.0, 0.0, 0.0, 1.0, 0.0, 0.0)"><path d="M -0.125 0.07216878235340118 A 31.250125000152813 31.250125000152813 -90.0 0 1 0.12500000000000192 0.07216878235339765 A 31.250125000152813 31.250125000152813 150.00000000000003 0 1 -3.552713678800501e-15 -0.1443375685927073 A 31.250125000152817 31.250125000152817 30.00000000000004 0 1 -0.12499999999999652 0.07216878623931024 Z" style="vector-effect: non-scaling-stroke;" /></g><g style="fill: #ff9700;stroke: black;stroke-width: 0.885;" transform="matrix(1.0, 0.0, 0.0, 1.0, 0.25000000000000544, 0.0)"><path d="M -0.125 0.07216878235340118 A 31.250125000152813 31.250125000152813 -90.0 0 1 0.12500000000000192 0.07216878235339765 A 31.250125000152813 31.250125000152813 150.00000000000003 0 1 -3.552713678800501e-15 -0.1443375685927073 A 31.250125000152817 31.250125000152817 30.00000000000004 0 1 -0.12499999999999652 0.07216878623931024 Z" style="vector-effect: non-scaling-stroke;" /></g></g></g></g><g transform="matrix(1.0, 0.0, 0.0, 1.0, -0.25, 0.4330127537250519)"><g><g><g style="fill: #ff9700;stroke: black;stroke-width: 0.885;" transform="matrix(1.0, 0.0, 0.0, 1.0, 0.0, 0.0)"><path d="M -0.125 0.07216878235340118 A 31.250125000152813 31.250125000152813 -90.0 0 1 0.12500000000000192 0.07216878235339765 A 31.250125000152813 31.250125000152813 150.00000000000003 0 1 -3.552713678800501e-15 -0.1443375685927073 A 31.250125000152817 31.250125000152817 30.00000000000004 0 1 -0.12499999999999652 0.07216878623931024 Z" style="vector-effect: non-scaling-stroke;" /></g><g transform="matrix(1.0, 0.0, 0.0, 1.0, -0.125, 0.21650636568665504)"><g><g style="fill: #ff9700;stroke: black;stroke-width: 0.885;" transform="matrix(1.0, 0.0, 0.0, 1.0, 0.0, 0.0)"><path d="M -0.125 0.07216878235340118 A 31.250125000152813 31.250125000152813 -90.0 0 1 0.12500000000000192 0.07216878235339765 A 31.250125000152813 31.250125000152813 150.00000000000003 0 1 -3.552713678800501e-15 -0.1443375685927073 A 31.250125000152817 31.250125000152817 30.00000000000004 0 1 -0.12499999999999652 0.07216878623931024 Z" style="vector-effect: non-scaling-stroke;" /></g><g style="fill: #ff9700;stroke: black;stroke-width: 0.885;" transform="matrix(1.0, 0.0, 0.0, 1.0, 0.25000000000000544, 0.0)"><path d="M -0.125 0.07216878235340118 A 31.250125000152813 31.250125000152813 -90.0 0 1 0.12500000000000192 0.07216878235339765 A 31.250125000152813 31.250125000152813 150.00000000000003 0 1 -3.552713678800501e-15 -0.1443375685927073 A 31.250125000152817 31.250125000152817 30.00000000000004 0 1 -0.12499999999999652 0.07216878623931024 Z" style="vector-effect: non-scaling-stroke;" /></g></g></g></g><g transform="matrix(1.0, 0.0, 0.0, 1.0, 0.5, 0.0)"><g><g style="fill: #ff9700;stroke: black;stroke-width: 0.885;" transform="matrix(1.0, 0.0, 0.0, 1.0, 0.0, 0.0)"><path d="M -0.125 0.07216878235340118 A 31.250125000152813 31.250125000152813 -90.0 0 1 0.12500000000000192 0.07216878235339765 A 31.250125000152813 31.250125000152813 150.00000000000003 0 1 -3.552713678800501e-15 -0.1443375685927073 A 31.250125000152817 31.250125000152817 30.00000000000004 0 1 -0.12499999999999652 0.07216878623931024 Z" style="vector-effect: non-scaling-stroke;" /></g><g transform="matrix(1.0, 0.0, 0.0, 1.0, -0.125, 0.21650636568665504)"><g><g style="fill: #ff9700;stroke: black;stroke-width: 0.885;" transform="matrix(1.0, 0.0, 0.0, 1.0, 0.0, 0.0)"><path d="M -0.125 0.07216878235340118 A 31.250125000152813 31.250125000152813 -90.0 0 1 0.12500000000000192 0.07216878235339765 A 31.250125000152813 31.250125000152813 150.00000000000003 0 1 -3.552713678800501e-15 -0.1443375685927073 A 31.250125000152817 31.250125000152817 30.00000000000004 0 1 -0.12499999999999652 0.07216878623931024 Z" style="vector-effect: non-scaling-stroke;" /></g><g style="fill: #ff9700;stroke: black;stroke-width: 0.885;" transform="matrix(1.0, 0.0, 0.0, 1.0, 0.25000000000000544, 0.0)"><path d="M -0.125 0.07216878235340118 A 31.250125000152813 31.250125000152813 -90.0 0 1 0.12500000000000192 0.07216878235339765 A 31.250125000152813 31.250125000152813 150.00000000000003 0 1 -3.552713678800501e-15 -0.1443375685927073 A 31.250125000152817 31.250125000152817 30.00000000000004 0 1 -0.12499999999999652 0.07216878623931024 Z" style="vector-effect: non-scaling-stroke;" /></g></g></g></g></g></g></g></g><g transform="matrix(1.0, 0.0, 0.0, 1.0, 1.0, 0.0)"><g><g><g style="fill: #ff9700;stroke: black;stroke-width: 0.885;" transform="matrix(1.0, 0.0, 0.0, 1.0, 0.0, 0.0)"><path d="M -0.125 0.07216878235340118 A 31.250125000152813 31.250125000152813 -90.0 0 1 0.12500000000000192 0.07216878235339765 A 31.250125000152813 31.250125000152813 150.00000000000003 0 1 -3.552713678800501e-15 -0.1443375685927073 A 31.250125000152817 31.250125000152817 30.00000000000004 0 1 -0.12499999999999652 0.07216878623931024 Z" style="vector-effect: non-scaling-stroke;" /></g><g transform="matrix(1.0, 0.0, 0.0, 1.0, -0.125, 0.21650636568665504)"><g><g style="fill: #ff9700;stroke: black;stroke-width: 0.885;" transform="matrix(1.0, 0.0, 0.0, 1.0, 0.0, 0.0)"><path d="M -0.125 0.07216878235340118 A 31.250125000152813 31.250125000152813 -90.0 0 1 0.12500000000000192 0.07216878235339765 A 31.250125000152813 31.250125000152813 150.00000000000003 0 1 -3.552713678800501e-15 -0.1443375685927073 A 31.250125000152817 31.250125000152817 30.00000000000004 0 1 -0.12499999999999652 0.07216878623931024 Z" style="vector-effect: non-scaling-stroke;" /></g><g style="fill: #ff9700;stroke: black;stroke-width: 0.885;" transform="matrix(1.0, 0.0, 0.0, 1.0, 0.25000000000000544, 0.0)"><path d="M -0.125 0.07216878235340118 A 31.250125000152813 31.250125000152813 -90.0 0 1 0.12500000000000192 0.07216878235339765 A 31.250125000152813 31.250125000152813 150.00000000000003 0 1 -3.552713678800501e-15 -0.1443375685927073 A 31.250125000152817 31.250125000152817 30.00000000000004 0 1 -0.12499999999999652 0.07216878623931024 Z" style="vector-effect: non-scaling-stroke;" /></g></g></g></g><g transform="matrix(1.0, 0.0, 0.0, 1.0, -0.25, 0.4330127537250519)"><g><g><g style="fill: #ff9700;stroke: black;stroke-width: 0.885;" transform="matrix(1.0, 0.0, 0.0, 1.0, 0.0, 0.0)"><path d="M -0.125 0.07216878235340118 A 31.250125000152813 31.250125000152813 -90.0 0 1 0.12500000000000192 0.07216878235339765 A 31.250125000152813 31.250125000152813 150.00000000000003 0 1 -3.552713678800501e-15 -0.1443375685927073 A 31.250125000152817 31.250125000152817 30.00000000000004 0 1 -0.12499999999999652 0.07216878623931024 Z" style="vector-effect: non-scaling-stroke;" /></g><g transform="matrix(1.0, 0.0, 0.0, 1.0, -0.125, 0.21650636568665504)"><g><g style="fill: #ff9700;stroke: black;stroke-width: 0.885;" transform="matrix(1.0, 0.0, 0.0, 1.0, 0.0, 0.0)"><path d="M -0.125 0.07216878235340118 A 31.250125000152813 31.250125000152813 -90.0 0 1 0.12500000000000192 0.07216878235339765 A 31.250125000152813 31.250125000152813 150.00000000000003 0 1 -3.552713678800501e-15 -0.1443375685927073 A 31.250125000152817 31.250125000152817 30.00000000000004 0 1 -0.12499999999999652 0.07216878623931024 Z" style="vector-effect: non-scaling-stroke;" /></g><g style="fill: #ff9700;stroke: black;stroke-width: 0.885;" transform="matrix(1.0, 0.0, 0.0, 1.0, 0.25000000000000544, 0.0)"><path d="M -0.125 0.07216878235340118 A 31.250125000152813 31.250125000152813 -90.0 0 1 0.12500000000000192 0.07216878235339765 A 31.250125000152813 31.250125000152813 150.00000000000003 0 1 -3.552713678800501e-15 -0.1443375685927073 A 31.250125000152817 31.250125000152817 30.00000000000004 0 1 -0.12499999999999652 0.07216878623931024 Z" style="vector-effect: non-scaling-stroke;" /></g></g></g></g><g transform="matrix(1.0, 0.0, 0.0, 1.0, 0.5, 0.0)"><g><g style="fill: #ff9700;stroke: black;stroke-width: 0.885;" transform="matrix(1.0, 0.0, 0.0, 1.0, 0.0, 0.0)"><path d="M -0.125 0.07216878235340118 A 31.250125000152813 31.250125000152813 -90.0 0 1 0.12500000000000192 0.07216878235339765 A 31.250125000152813 31.250125000152813 150.00000000000003 0 1 -3.552713678800501e-15 -0.1443375685927073 A 31.250125000152817 31.250125000152817 30.00000000000004 0 1 -0.12499999999999652 0.07216878623931024 Z" style="vector-effect: non-scaling-stroke;" /></g><g transform="matrix(1.0, 0.0, 0.0, 1.0, -0.125, 0.21650636568665504)"><g><g style="fill: #ff9700;stroke: black;stroke-width: 0.885;" transform="matrix(1.0, 0.0, 0.0, 1.0, 0.0, 0.0)"><path d="M -0.125 0.07216878235340118 A 31.250125000152813 31.250125000152813 -90.0 0 1 0.12500000000000192 0.07216878235339765 A 31.250125000152813 31.250125000152813 150.00000000000003 0 1 -3.552713678800501e-15 -0.1443375685927073 A 31.250125000152817 31.250125000152817 30.00000000000004 0 1 -0.12499999999999652 0.07216878623931024 Z" style="vector-effect: non-scaling-stroke;" /></g><g style="fill: #ff9700;stroke: black;stroke-width: 0.885;" transform="matrix(1.0, 0.0, 0.0, 1.0, 0.25000000000000544, 0.0)"><path d="M -0.125 0.07216878235340118 A 31.250125000152813 31.250125000152813 -90.0 0 1 0.12500000000000192 0.07216878235339765 A 31.250125000152813 31.250125000152813 150.00000000000003 0 1 -3.552713678800501e-15 -0.1443375685927073 A 31.250125000152817 31.250125000152817 30.00000000000004 0 1 -0.12499999999999652 0.07216878623931024 Z" style="vector-effect: non-scaling-stroke;" /></g></g></g></g></g></g></g></g></g></g></g></g><g transform="matrix(1.0, 0.0, 0.0, 1.0, -1.0, 1.7320507764816284)"><g><g><g><g><g style="fill: #ff9700;stroke: black;stroke-width: 0.885;" transform="matrix(1.0, 0.0, 0.0, 1.0, 0.0, 0.0)"><path d="M -0.125 0.07216878235340118 A 31.250125000152813 31.250125000152813 -90.0 0 1 0.12500000000000192 0.07216878235339765 A 31.250125000152813 31.250125000152813 150.00000000000003 0 1 -3.552713678800501e-15 -0.1443375685927073 A 31.250125000152817 31.250125000152817 30.00000000000004 0 1 -0.12499999999999652 0.07216878623931024 Z" style="vector-effect: non-scaling-stroke;" /></g><g transform="matrix(1.0, 0.0, 0.0, 1.0, -0.125, 0.21650636568665504)"><g><g style="fill: #ff9700;stroke: black;stroke-width: 0.885;" transform="matrix(1.0, 0.0, 0.0, 1.0, 0.0, 0.0)"><path d="M -0.125 0.07216878235340118 A 31.250125000152813 31.250125000152813 -90.0 0 1 0.12500000000000192 0.07216878235339765 A 31.250125000152813 31.250125000152813 150.00000000000003 0 1 -3.552713678800501e-15 -0.1443375685927073 A 31.250125000152817 31.250125000152817 30.00000000000004 0 1 -0.12499999999999652 0.07216878623931024 Z" style="vector-effect: non-scaling-stroke;" /></g><g style="fill: #ff9700;stroke: black;stroke-width: 0.885;" transform="matrix(1.0, 0.0, 0.0, 1.0, 0.25000000000000544, 0.0)"><path d="M -0.125 0.07216878235340118 A 31.250125000152813 31.250125000152813 -90.0 0 1 0.12500000000000192 0.07216878235339765 A 31.250125000152813 31.250125000152813 150.00000000000003 0 1 -3.552713678800501e-15 -0.1443375685927073 A 31.250125000152817 31.250125000152817 30.00000000000004 0 1 -0.12499999999999652 0.07216878623931024 Z" style="vector-effect: non-scaling-stroke;" /></g></g></g></g><g transform="matrix(1.0, 0.0, 0.0, 1.0, -0.25, 0.4330127537250519)"><g><g><g style="fill: #ff9700;stroke: black;stroke-width: 0.885;" transform="matrix(1.0, 0.0, 0.0, 1.0, 0.0, 0.0)"><path d="M -0.125 0.07216878235340118 A 31.250125000152813 31.250125000152813 -90.0 0 1 0.12500000000000192 0.07216878235339765 A 31.250125000152813 31.250125000152813 150.00000000000003 0 1 -3.552713678800501e-15 -0.1443375685927073 A 31.250125000152817 31.250125000152817 30.00000000000004 0 1 -0.12499999999999652 0.07216878623931024 Z" style="vector-effect: non-scaling-stroke;" /></g><g transform="matrix(1.0, 0.0, 0.0, 1.0, -0.125, 0.21650636568665504)"><g><g style="fill: #ff9700;stroke: black;stroke-width: 0.885;" transform="matrix(1.0, 0.0, 0.0, 1.0, 0.0, 0.0)"><path d="M -0.125 0.07216878235340118 A 31.250125000152813 31.250125000152813 -90.0 0 1 0.12500000000000192 0.07216878235339765 A 31.250125000152813 31.250125000152813 150.00000000000003 0 1 -3.552713678800501e-15 -0.1443375685927073 A 31.250125000152817 31.250125000152817 30.00000000000004 0 1 -0.12499999999999652 0.07216878623931024 Z" style="vector-effect: non-scaling-stroke;" /></g><g style="fill: #ff9700;stroke: black;stroke-width: 0.885;" transform="matrix(1.0, 0.0, 0.0, 1.0, 0.25000000000000544, 0.0)"><path d="M -0.125 0.07216878235340118 A 31.250125000152813 31.250125000152813 -90.0 0 1 0.12500000000000192 0.07216878235339765 A 31.250125000152813 31.250125000152813 150.00000000000003 0 1 -3.552713678800501e-15 -0.1443375685927073 A 31.250125000152817 31.250125000152817 30.00000000000004 0 1 -0.12499999999999652 0.07216878623931024 Z" style="vector-effect: non-scaling-stroke;" /></g></g></g></g><g transform="matrix(1.0, 0.0, 0.0, 1.0, 0.5, 0.0)"><g><g style="fill: #ff9700;stroke: black;stroke-width: 0.885;" transform="matrix(1.0, 0.0, 0.0, 1.0, 0.0, 0.0)"><path d="M -0.125 0.07216878235340118 A 31.250125000152813 31.250125000152813 -90.0 0 1 0.12500000000000192 0.07216878235339765 A 31.250125000152813 31.250125000152813 150.00000000000003 0 1 -3.552713678800501e-15 -0.1443375685927073 A 31.250125000152817 31.250125000152817 30.00000000000004 0 1 -0.12499999999999652 0.07216878623931024 Z" style="vector-effect: non-scaling-stroke;" /></g><g transform="matrix(1.0, 0.0, 0.0, 1.0, -0.125, 0.21650636568665504)"><g><g style="fill: #ff9700;stroke: black;stroke-width: 0.885;" transform="matrix(1.0, 0.0, 0.0, 1.0, 0.0, 0.0)"><path d="M -0.125 0.07216878235340118 A 31.250125000152813 31.250125000152813 -90.0 0 1 0.12500000000000192 0.07216878235339765 A 31.250125000152813 31.250125000152813 150.00000000000003 0 1 -3.552713678800501e-15 -0.1443375685927073 A 31.250125000152817 31.250125000152817 30.00000000000004 0 1 -0.12499999999999652 0.07216878623931024 Z" style="vector-effect: non-scaling-stroke;" /></g><g style="fill: #ff9700;stroke: black;stroke-width: 0.885;" transform="matrix(1.0, 0.0, 0.0, 1.0, 0.25000000000000544, 0.0)"><path d="M -0.125 0.07216878235340118 A 31.250125000152813 31.250125000152813 -90.0 0 1 0.12500000000000192 0.07216878235339765 A 31.250125000152813 31.250125000152813 150.00000000000003 0 1 -3.552713678800501e-15 -0.1443375685927073 A 31.250125000152817 31.250125000152817 30.00000000000004 0 1 -0.12499999999999652 0.07216878623931024 Z" style="vector-effect: non-scaling-stroke;" /></g></g></g></g></g></g></g></g><g transform="matrix(1.0, 0.0, 0.0, 1.0, -0.5, 0.866025447845459)"><g><g><g><g style="fill: #ff9700;stroke: black;stroke-width: 0.885;" transform="matrix(1.0, 0.0, 0.0, 1.0, 0.0, 0.0)"><path d="M -0.125 0.07216878235340118 A 31.250125000152813 31.250125000152813 -90.0 0 1 0.12500000000000192 0.07216878235339765 A 31.250125000152813 31.250125000152813 150.00000000000003 0 1 -3.552713678800501e-15 -0.1443375685927073 A 31.250125000152817 31.250125000152817 30.00000000000004 0 1 -0.12499999999999652 0.07216878623931024 Z" style="vector-effect: non-scaling-stroke;" /></g><g transform="matrix(1.0, 0.0, 0.0, 1.0, -0.125, 0.21650636568665504)"><g><g style="fill: #ff9700;stroke: black;stroke-width: 0.885;" transform="matrix(1.0, 0.0, 0.0, 1.0, 0.0, 0.0)"><path d="M -0.125 0.07216878235340118 A 31.250125000152813 31.250125000152813 -90.0 0 1 0.12500000000000192 0.07216878235339765 A 31.250125000152813 31.250125000152813 150.00000000000003 0 1 -3.552713678800501e-15 -0.1443375685927073 A 31.250125000152817 31.250125000152817 30.00000000000004 0 1 -0.12499999999999652 0.07216878623931024 Z" style="vector-effect: non-scaling-stroke;" /></g><g style="fill: #ff9700;stroke: black;stroke-width: 0.885;" transform="matrix(1.0, 0.0, 0.0, 1.0, 0.25000000000000544, 0.0)"><path d="M -0.125 0.07216878235340118 A 31.250125000152813 31.250125000152813 -90.0 0 1 0.12500000000000192 0.07216878235339765 A 31.250125000152813 31.250125000152813 150.00000000000003 0 1 -3.552713678800501e-15 -0.1443375685927073 A 31.250125000152817 31.250125000152817 30.00000000000004 0 1 -0.12499999999999652 0.07216878623931024 Z" style="vector-effect: non-scaling-stroke;" /></g></g></g></g><g transform="matrix(1.0, 0.0, 0.0, 1.0, -0.25, 0.4330127537250519)"><g><g><g style="fill: #ff9700;stroke: black;stroke-width: 0.885;" transform="matrix(1.0, 0.0, 0.0, 1.0, 0.0, 0.0)"><path d="M -0.125 0.07216878235340118 A 31.250125000152813 31.250125000152813 -90.0 0 1 0.12500000000000192 0.07216878235339765 A 31.250125000152813 31.250125000152813 150.00000000000003 0 1 -3.552713678800501e-15 -0.1443375685927073 A 31.250125000152817 31.250125000152817 30.00000000000004 0 1 -0.12499999999999652 0.07216878623931024 Z" style="vector-effect: non-scaling-stroke;" /></g><g transform="matrix(1.0, 0.0, 0.0, 1.0, -0.125, 0.21650636568665504)"><g><g style="fill: #ff9700;stroke: black;stroke-width: 0.885;" transform="matrix(1.0, 0.0, 0.0, 1.0, 0.0, 0.0)"><path d="M -0.125 0.07216878235340118 A 31.250125000152813 31.250125000152813 -90.0 0 1 0.12500000000000192 0.07216878235339765 A 31.250125000152813 31.250125000152813 150.00000000000003 0 1 -3.552713678800501e-15 -0.1443375685927073 A 31.250125000152817 31.250125000152817 30.00000000000004 0 1 -0.12499999999999652 0.07216878623931024 Z" style="vector-effect: non-scaling-stroke;" /></g><g style="fill: #ff9700;stroke: black;stroke-width: 0.885;" transform="matrix(1.0, 0.0, 0.0, 1.0, 0.25000000000000544, 0.0)"><path d="M -0.125 0.07216878235340118 A 31.250125000152813 31.250125000152813 -90.0 0 1 0.12500000000000192 0.07216878235339765 A 31.250125000152813 31.250125000152813 150.00000000000003 0 1 -3.552713678800501e-15 -0.1443375685927073 A 31.250125000152817 31.250125000152817 30.00000000000004 0 1 -0.12499999999999652 0.07216878623931024 Z" style="vector-effect: non-scaling-stroke;" /></g></g></g></g><g transform="matrix(1.0, 0.0, 0.0, 1.0, 0.5, 0.0)"><g><g style="fill: #ff9700;stroke: black;stroke-width: 0.885;" transform="matrix(1.0, 0.0, 0.0, 1.0, 0.0, 0.0)"><path d="M -0.125 0.07216878235340118 A 31.250125000152813 31.250125000152813 -90.0 0 1 0.12500000000000192 0.07216878235339765 A 31.250125000152813 31.250125000152813 150.00000000000003 0 1 -3.552713678800501e-15 -0.1443375685927073 A 31.250125000152817 31.250125000152817 30.00000000000004 0 1 -0.12499999999999652 0.07216878623931024 Z" style="vector-effect: non-scaling-stroke;" /></g><g transform="matrix(1.0, 0.0, 0.0, 1.0, -0.125, 0.21650636568665504)"><g><g style="fill: #ff9700;stroke: black;stroke-width: 0.885;" transform="matrix(1.0, 0.0, 0.0, 1.0, 0.0, 0.0)"><path d="M -0.125 0.07216878235340118 A 31.250125000152813 31.250125000152813 -90.0 0 1 0.12500000000000192 0.07216878235339765 A 31.250125000152813 31.250125000152813 150.00000000000003 0 1 -3.552713678800501e-15 -0.1443375685927073 A 31.250125000152817 31.250125000152817 30.00000000000004 0 1 -0.12499999999999652 0.07216878623931024 Z" style="vector-effect: non-scaling-stroke;" /></g><g style="fill: #ff9700;stroke: black;stroke-width: 0.885;" transform="matrix(1.0, 0.0, 0.0, 1.0, 0.25000000000000544, 0.0)"><path d="M -0.125 0.07216878235340118 A 31.250125000152813 31.250125000152813 -90.0 0 1 0.12500000000000192 0.07216878235339765 A 31.250125000152813 31.250125000152813 150.00000000000003 0 1 -3.552713678800501e-15 -0.1443375685927073 A 31.250125000152817 31.250125000152817 30.00000000000004 0 1 -0.12499999999999652 0.07216878623931024 Z" style="vector-effect: non-scaling-stroke;" /></g></g></g></g></g></g></g></g><g transform="matrix(1.0, 0.0, 0.0, 1.0, 1.0, 0.0)"><g><g><g style="fill: #ff9700;stroke: black;stroke-width: 0.885;" transform="matrix(1.0, 0.0, 0.0, 1.0, 0.0, 0.0)"><path d="M -0.125 0.07216878235340118 A 31.250125000152813 31.250125000152813 -90.0 0 1 0.12500000000000192 0.07216878235339765 A 31.250125000152813 31.250125000152813 150.00000000000003 0 1 -3.552713678800501e-15 -0.1443375685927073 A 31.250125000152817 31.250125000152817 30.00000000000004 0 1 -0.12499999999999652 0.07216878623931024 Z" style="vector-effect: non-scaling-stroke;" /></g><g transform="matrix(1.0, 0.0, 0.0, 1.0, -0.125, 0.21650636568665504)"><g><g style="fill: #ff9700;stroke: black;stroke-width: 0.885;" transform="matrix(1.0, 0.0, 0.0, 1.0, 0.0, 0.0)"><path d="M -0.125 0.07216878235340118 A 31.250125000152813 31.250125000152813 -90.0 0 1 0.12500000000000192 0.07216878235339765 A 31.250125000152813 31.250125000152813 150.00000000000003 0 1 -3.552713678800501e-15 -0.1443375685927073 A 31.250125000152817 31.250125000152817 30.00000000000004 0 1 -0.12499999999999652 0.07216878623931024 Z" style="vector-effect: non-scaling-stroke;" /></g><g style="fill: #ff9700;stroke: black;stroke-width: 0.885;" transform="matrix(1.0, 0.0, 0.0, 1.0, 0.25000000000000544, 0.0)"><path d="M -0.125 0.07216878235340118 A 31.250125000152813 31.250125000152813 -90.0 0 1 0.12500000000000192 0.07216878235339765 A 31.250125000152813 31.250125000152813 150.00000000000003 0 1 -3.552713678800501e-15 -0.1443375685927073 A 31.250125000152817 31.250125000152817 30.00000000000004 0 1 -0.12499999999999652 0.07216878623931024 Z" style="vector-effect: non-scaling-stroke;" /></g></g></g></g><g transform="matrix(1.0, 0.0, 0.0, 1.0, -0.25, 0.4330127537250519)"><g><g><g style="fill: #ff9700;stroke: black;stroke-width: 0.885;" transform="matrix(1.0, 0.0, 0.0, 1.0, 0.0, 0.0)"><path d="M -0.125 0.07216878235340118 A 31.250125000152813 31.250125000152813 -90.0 0 1 0.12500000000000192 0.07216878235339765 A 31.250125000152813 31.250125000152813 150.00000000000003 0 1 -3.552713678800501e-15 -0.1443375685927073 A 31.250125000152817 31.250125000152817 30.00000000000004 0 1 -0.12499999999999652 0.07216878623931024 Z" style="vector-effect: non-scaling-stroke;" /></g><g transform="matrix(1.0, 0.0, 0.0, 1.0, -0.125, 0.21650636568665504)"><g><g style="fill: #ff9700;stroke: black;stroke-width: 0.885;" transform="matrix(1.0, 0.0, 0.0, 1.0, 0.0, 0.0)"><path d="M -0.125 0.07216878235340118 A 31.250125000152813 31.250125000152813 -90.0 0 1 0.12500000000000192 0.07216878235339765 A 31.250125000152813 31.250125000152813 150.00000000000003 0 1 -3.552713678800501e-15 -0.1443375685927073 A 31.250125000152817 31.250125000152817 30.00000000000004 0 1 -0.12499999999999652 0.07216878623931024 Z" style="vector-effect: non-scaling-stroke;" /></g><g style="fill: #ff9700;stroke: black;stroke-width: 0.885;" transform="matrix(1.0, 0.0, 0.0, 1.0, 0.25000000000000544, 0.0)"><path d="M -0.125 0.07216878235340118 A 31.250125000152813 31.250125000152813 -90.0 0 1 0.12500000000000192 0.07216878235339765 A 31.250125000152813 31.250125000152813 150.00000000000003 0 1 -3.552713678800501e-15 -0.1443375685927073 A 31.250125000152817 31.250125000152817 30.00000000000004 0 1 -0.12499999999999652 0.07216878623931024 Z" style="vector-effect: non-scaling-stroke;" /></g></g></g></g><g transform="matrix(1.0, 0.0, 0.0, 1.0, 0.5, 0.0)"><g><g style="fill: #ff9700;stroke: black;stroke-width: 0.885;" transform="matrix(1.0, 0.0, 0.0, 1.0, 0.0, 0.0)"><path d="M -0.125 0.07216878235340118 A 31.250125000152813 31.250125000152813 -90.0 0 1 0.12500000000000192 0.07216878235339765 A 31.250125000152813 31.250125000152813 150.00000000000003 0 1 -3.552713678800501e-15 -0.1443375685927073 A 31.250125000152817 31.250125000152817 30.00000000000004 0 1 -0.12499999999999652 0.07216878623931024 Z" style="vector-effect: non-scaling-stroke;" /></g><g transform="matrix(1.0, 0.0, 0.0, 1.0, -0.125, 0.21650636568665504)"><g><g style="fill: #ff9700;stroke: black;stroke-width: 0.885;" transform="matrix(1.0, 0.0, 0.0, 1.0, 0.0, 0.0)"><path d="M -0.125 0.07216878235340118 A 31.250125000152813 31.250125000152813 -90.0 0 1 0.12500000000000192 0.07216878235339765 A 31.250125000152813 31.250125000152813 150.00000000000003 0 1 -3.552713678800501e-15 -0.1443375685927073 A 31.250125000152817 31.250125000152817 30.00000000000004 0 1 -0.12499999999999652 0.07216878623931024 Z" style="vector-effect: non-scaling-stroke;" /></g><g style="fill: #ff9700;stroke: black;stroke-width: 0.885;" transform="matrix(1.0, 0.0, 0.0, 1.0, 0.25000000000000544, 0.0)"><path d="M -0.125 0.07216878235340118 A 31.250125000152813 31.250125000152813 -90.0 0 1 0.12500000000000192 0.07216878235339765 A 31.250125000152813 31.250125000152813 150.00000000000003 0 1 -3.552713678800501e-15 -0.1443375685927073 A 31.250125000152817 31.250125000152817 30.00000000000004 0 1 -0.12499999999999652 0.07216878623931024 Z" style="vector-effect: non-scaling-stroke;" /></g></g></g></g></g></g></g></g></g></g></g></g><g transform="matrix(1.0, 0.0, 0.0, 1.0, 2.0, 0.0)"><g><g><g><g style="fill: #ff9700;stroke: black;stroke-width: 0.885;" transform="matrix(1.0, 0.0, 0.0, 1.0, 0.0, 0.0)"><path d="M -0.125 0.07216878235340118 A 31.250125000152813 31.250125000152813 -90.0 0 1 0.12500000000000192 0.07216878235339765 A 31.250125000152813 31.250125000152813 150.00000000000003 0 1 -3.552713678800501e-15 -0.1443375685927073 A 31.250125000152817 31.250125000152817 30.00000000000004 0 1 -0.12499999999999652 0.07216878623931024 Z" style="vector-effect: non-scaling-stroke;" /></g><g transform="matrix(1.0, 0.0, 0.0, 1.0, -0.125, 0.21650636568665504)"><g><g style="fill: #ff9700;stroke: black;stroke-width: 0.885;" transform="matrix(1.0, 0.0, 0.0, 1.0, 0.0, 0.0)"><path d="M -0.125 0.07216878235340118 A 31.250125000152813 31.250125000152813 -90.0 0 1 0.12500000000000192 0.07216878235339765 A 31.250125000152813 31.250125000152813 150.00000000000003 0 1 -3.552713678800501e-15 -0.1443375685927073 A 31.250125000152817 31.250125000152817 30.00000000000004 0 1 -0.12499999999999652 0.07216878623931024 Z" style="vector-effect: non-scaling-stroke;" /></g><g style="fill: #ff9700;stroke: black;stroke-width: 0.885;" transform="matrix(1.0, 0.0, 0.0, 1.0, 0.25000000000000544, 0.0)"><path d="M -0.125 0.07216878235340118 A 31.250125000152813 31.250125000152813 -90.0 0 1 0.12500000000000192 0.07216878235339765 A 31.250125000152813 31.250125000152813 150.00000000000003 0 1 -3.552713678800501e-15 -0.1443375685927073 A 31.250125000152817 31.250125000152817 30.00000000000004 0 1 -0.12499999999999652 0.07216878623931024 Z" style="vector-effect: non-scaling-stroke;" /></g></g></g></g><g transform="matrix(1.0, 0.0, 0.0, 1.0, -0.25, 0.4330127537250519)"><g><g><g style="fill: #ff9700;stroke: black;stroke-width: 0.885;" transform="matrix(1.0, 0.0, 0.0, 1.0, 0.0, 0.0)"><path d="M -0.125 0.07216878235340118 A 31.250125000152813 31.250125000152813 -90.0 0 1 0.12500000000000192 0.07216878235339765 A 31.250125000152813 31.250125000152813 150.00000000000003 0 1 -3.552713678800501e-15 -0.1443375685927073 A 31.250125000152817 31.250125000152817 30.00000000000004 0 1 -0.12499999999999652 0.07216878623931024 Z" style="vector-effect: non-scaling-stroke;" /></g><g transform="matrix(1.0, 0.0, 0.0, 1.0, -0.125, 0.21650636568665504)"><g><g style="fill: #ff9700;stroke: black;stroke-width: 0.885;" transform="matrix(1.0, 0.0, 0.0, 1.0, 0.0, 0.0)"><path d="M -0.125 0.07216878235340118 A 31.250125000152813 31.250125000152813 -90.0 0 1 0.12500000000000192 0.07216878235339765 A 31.250125000152813 31.250125000152813 150.00000000000003 0 1 -3.552713678800501e-15 -0.1443375685927073 A 31.250125000152817 31.250125000152817 30.00000000000004 0 1 -0.12499999999999652 0.07216878623931024 Z" style="vector-effect: non-scaling-stroke;" /></g><g style="fill: #ff9700;stroke: black;stroke-width: 0.885;" transform="matrix(1.0, 0.0, 0.0, 1.0, 0.25000000000000544, 0.0)"><path d="M -0.125 0.07216878235340118 A 31.250125000152813 31.250125000152813 -90.0 0 1 0.12500000000000192 0.07216878235339765 A 31.250125000152813 31.250125000152813 150.00000000000003 0 1 -3.552713678800501e-15 -0.1443375685927073 A 31.250125000152817 31.250125000152817 30.00000000000004 0 1 -0.12499999999999652 0.07216878623931024 Z" style="vector-effect: non-scaling-stroke;" /></g></g></g></g><g transform="matrix(1.0, 0.0, 0.0, 1.0, 0.5, 0.0)"><g><g style="fill: #ff9700;stroke: black;stroke-width: 0.885;" transform="matrix(1.0, 0.0, 0.0, 1.0, 0.0, 0.0)"><path d="M -0.125 0.07216878235340118 A 31.250125000152813 31.250125000152813 -90.0 0 1 0.12500000000000192 0.07216878235339765 A 31.250125000152813 31.250125000152813 150.00000000000003 0 1 -3.552713678800501e-15 -0.1443375685927073 A 31.250125000152817 31.250125000152817 30.00000000000004 0 1 -0.12499999999999652 0.07216878623931024 Z" style="vector-effect: non-scaling-stroke;" /></g><g transform="matrix(1.0, 0.0, 0.0, 1.0, -0.125, 0.21650636568665504)"><g><g style="fill: #ff9700;stroke: black;stroke-width: 0.885;" transform="matrix(1.0, 0.0, 0.0, 1.0, 0.0, 0.0)"><path d="M -0.125 0.07216878235340118 A 31.250125000152813 31.250125000152813 -90.0 0 1 0.12500000000000192 0.07216878235339765 A 31.250125000152813 31.250125000152813 150.00000000000003 0 1 -3.552713678800501e-15 -0.1443375685927073 A 31.250125000152817 31.250125000152817 30.00000000000004 0 1 -0.12499999999999652 0.07216878623931024 Z" style="vector-effect: non-scaling-stroke;" /></g><g style="fill: #ff9700;stroke: black;stroke-width: 0.885;" transform="matrix(1.0, 0.0, 0.0, 1.0, 0.25000000000000544, 0.0)"><path d="M -0.125 0.07216878235340118 A 31.250125000152813 31.250125000152813 -90.0 0 1 0.12500000000000192 0.07216878235339765 A 31.250125000152813 31.250125000152813 150.00000000000003 0 1 -3.552713678800501e-15 -0.1443375685927073 A 31.250125000152817 31.250125000152817 30.00000000000004 0 1 -0.12499999999999652 0.07216878623931024 Z" style="vector-effect: non-scaling-stroke;" /></g></g></g></g></g></g></g></g><g transform="matrix(1.0, 0.0, 0.0, 1.0, -0.5, 0.866025447845459)"><g><g><g><g style="fill: #ff9700;stroke: black;stroke-width: 0.885;" transform="matrix(1.0, 0.0, 0.0, 1.0, 0.0, 0.0)"><path d="M -0.125 0.07216878235340118 A 31.250125000152813 31.250125000152813 -90.0 0 1 0.12500000000000192 0.07216878235339765 A 31.250125000152813 31.250125000152813 150.00000000000003 0 1 -3.552713678800501e-15 -0.1443375685927073 A 31.250125000152817 31.250125000152817 30.00000000000004 0 1 -0.12499999999999652 0.07216878623931024 Z" style="vector-effect: non-scaling-stroke;" /></g><g transform="matrix(1.0, 0.0, 0.0, 1.0, -0.125, 0.21650636568665504)"><g><g style="fill: #ff9700;stroke: black;stroke-width: 0.885;" transform="matrix(1.0, 0.0, 0.0, 1.0, 0.0, 0.0)"><path d="M -0.125 0.07216878235340118 A 31.250125000152813 31.250125000152813 -90.0 0 1 0.12500000000000192 0.07216878235339765 A 31.250125000152813 31.250125000152813 150.00000000000003 0 1 -3.552713678800501e-15 -0.1443375685927073 A 31.250125000152817 31.250125000152817 30.00000000000004 0 1 -0.12499999999999652 0.07216878623931024 Z" style="vector-effect: non-scaling-stroke;" /></g><g style="fill: #ff9700;stroke: black;stroke-width: 0.885;" transform="matrix(1.0, 0.0, 0.0, 1.0, 0.25000000000000544, 0.0)"><path d="M -0.125 0.07216878235340118 A 31.250125000152813 31.250125000152813 -90.0 0 1 0.12500000000000192 0.07216878235339765 A 31.250125000152813 31.250125000152813 150.00000000000003 0 1 -3.552713678800501e-15 -0.1443375685927073 A 31.250125000152817 31.250125000152817 30.00000000000004 0 1 -0.12499999999999652 0.07216878623931024 Z" style="vector-effect: non-scaling-stroke;" /></g></g></g></g><g transform="matrix(1.0, 0.0, 0.0, 1.0, -0.25, 0.4330127537250519)"><g><g><g style="fill: #ff9700;stroke: black;stroke-width: 0.885;" transform="matrix(1.0, 0.0, 0.0, 1.0, 0.0, 0.0)"><path d="M -0.125 0.07216878235340118 A 31.250125000152813 31.250125000152813 -90.0 0 1 0.12500000000000192 0.07216878235339765 A 31.250125000152813 31.250125000152813 150.00000000000003 0 1 -3.552713678800501e-15 -0.1443375685927073 A 31.250125000152817 31.250125000152817 30.00000000000004 0 1 -0.12499999999999652 0.07216878623931024 Z" style="vector-effect: non-scaling-stroke;" /></g><g transform="matrix(1.0, 0.0, 0.0, 1.0, -0.125, 0.21650636568665504)"><g><g style="fill: #ff9700;stroke: black;stroke-width: 0.885;" transform="matrix(1.0, 0.0, 0.0, 1.0, 0.0, 0.0)"><path d="M -0.125 0.07216878235340118 A 31.250125000152813 31.250125000152813 -90.0 0 1 0.12500000000000192 0.07216878235339765 A 31.250125000152813 31.250125000152813 150.00000000000003 0 1 -3.552713678800501e-15 -0.1443375685927073 A 31.250125000152817 31.250125000152817 30.00000000000004 0 1 -0.12499999999999652 0.07216878623931024 Z" style="vector-effect: non-scaling-stroke;" /></g><g style="fill: #ff9700;stroke: black;stroke-width: 0.885;" transform="matrix(1.0, 0.0, 0.0, 1.0, 0.25000000000000544, 0.0)"><path d="M -0.125 0.07216878235340118 A 31.250125000152813 31.250125000152813 -90.0 0 1 0.12500000000000192 0.07216878235339765 A 31.250125000152813 31.250125000152813 150.00000000000003 0 1 -3.552713678800501e-15 -0.1443375685927073 A 31.250125000152817 31.250125000152817 30.00000000000004 0 1 -0.12499999999999652 0.07216878623931024 Z" style="vector-effect: non-scaling-stroke;" /></g></g></g></g><g transform="matrix(1.0, 0.0, 0.0, 1.0, 0.5, 0.0)"><g><g style="fill: #ff9700;stroke: black;stroke-width: 0.885;" transform="matrix(1.0, 0.0, 0.0, 1.0, 0.0, 0.0)"><path d="M -0.125 0.07216878235340118 A 31.250125000152813 31.250125000152813 -90.0 0 1 0.12500000000000192 0.07216878235339765 A 31.250125000152813 31.250125000152813 150.00000000000003 0 1 -3.552713678800501e-15 -0.1443375685927073 A 31.250125000152817 31.250125000152817 30.00000000000004 0 1 -0.12499999999999652 0.07216878623931024 Z" style="vector-effect: non-scaling-stroke;" /></g><g transform="matrix(1.0, 0.0, 0.0, 1.0, -0.125, 0.21650636568665504)"><g><g style="fill: #ff9700;stroke: black;stroke-width: 0.885;" transform="matrix(1.0, 0.0, 0.0, 1.0, 0.0, 0.0)"><path d="M -0.125 0.07216878235340118 A 31.250125000152813 31.250125000152813 -90.0 0 1 0.12500000000000192 0.07216878235339765 A 31.250125000152813 31.250125000152813 150.00000000000003 0 1 -3.552713678800501e-15 -0.1443375685927073 A 31.250125000152817 31.250125000152817 30.00000000000004 0 1 -0.12499999999999652 0.07216878623931024 Z" style="vector-effect: non-scaling-stroke;" /></g><g style="fill: #ff9700;stroke: black;stroke-width: 0.885;" transform="matrix(1.0, 0.0, 0.0, 1.0, 0.25000000000000544, 0.0)"><path d="M -0.125 0.07216878235340118 A 31.250125000152813 31.250125000152813 -90.0 0 1 0.12500000000000192 0.07216878235339765 A 31.250125000152813 31.250125000152813 150.00000000000003 0 1 -3.552713678800501e-15 -0.1443375685927073 A 31.250125000152817 31.250125000152817 30.00000000000004 0 1 -0.12499999999999652 0.07216878623931024 Z" style="vector-effect: non-scaling-stroke;" /></g></g></g></g></g></g></g></g><g transform="matrix(1.0, 0.0, 0.0, 1.0, 1.0, 0.0)"><g><g><g style="fill: #ff9700;stroke: black;stroke-width: 0.885;" transform="matrix(1.0, 0.0, 0.0, 1.0, 0.0, 0.0)"><path d="M -0.125 0.07216878235340118 A 31.250125000152813 31.250125000152813 -90.0 0 1 0.12500000000000192 0.07216878235339765 A 31.250125000152813 31.250125000152813 150.00000000000003 0 1 -3.552713678800501e-15 -0.1443375685927073 A 31.250125000152817 31.250125000152817 30.00000000000004 0 1 -0.12499999999999652 0.07216878623931024 Z" style="vector-effect: non-scaling-stroke;" /></g><g transform="matrix(1.0, 0.0, 0.0, 1.0, -0.125, 0.21650636568665504)"><g><g style="fill: #ff9700;stroke: black;stroke-width: 0.885;" transform="matrix(1.0, 0.0, 0.0, 1.0, 0.0, 0.0)"><path d="M -0.125 0.07216878235340118 A 31.250125000152813 31.250125000152813 -90.0 0 1 0.12500000000000192 0.07216878235339765 A 31.250125000152813 31.250125000152813 150.00000000000003 0 1 -3.552713678800501e-15 -0.1443375685927073 A 31.250125000152817 31.250125000152817 30.00000000000004 0 1 -0.12499999999999652 0.07216878623931024 Z" style="vector-effect: non-scaling-stroke;" /></g><g style="fill: #ff9700;stroke: black;stroke-width: 0.885;" transform="matrix(1.0, 0.0, 0.0, 1.0, 0.25000000000000544, 0.0)"><path d="M -0.125 0.07216878235340118 A 31.250125000152813 31.250125000152813 -90.0 0 1 0.12500000000000192 0.07216878235339765 A 31.250125000152813 31.250125000152813 150.00000000000003 0 1 -3.552713678800501e-15 -0.1443375685927073 A 31.250125000152817 31.250125000152817 30.00000000000004 0 1 -0.12499999999999652 0.07216878623931024 Z" style="vector-effect: non-scaling-stroke;" /></g></g></g></g><g transform="matrix(1.0, 0.0, 0.0, 1.0, -0.25, 0.4330127537250519)"><g><g><g style="fill: #ff9700;stroke: black;stroke-width: 0.885;" transform="matrix(1.0, 0.0, 0.0, 1.0, 0.0, 0.0)"><path d="M -0.125 0.07216878235340118 A 31.250125000152813 31.250125000152813 -90.0 0 1 0.12500000000000192 0.07216878235339765 A 31.250125000152813 31.250125000152813 150.00000000000003 0 1 -3.552713678800501e-15 -0.1443375685927073 A 31.250125000152817 31.250125000152817 30.00000000000004 0 1 -0.12499999999999652 0.07216878623931024 Z" style="vector-effect: non-scaling-stroke;" /></g><g transform="matrix(1.0, 0.0, 0.0, 1.0, -0.125, 0.21650636568665504)"><g><g style="fill: #ff9700;stroke: black;stroke-width: 0.885;" transform="matrix(1.0, 0.0, 0.0, 1.0, 0.0, 0.0)"><path d="M -0.125 0.07216878235340118 A 31.250125000152813 31.250125000152813 -90.0 0 1 0.12500000000000192 0.07216878235339765 A 31.250125000152813 31.250125000152813 150.00000000000003 0 1 -3.552713678800501e-15 -0.1443375685927073 A 31.250125000152817 31.250125000152817 30.00000000000004 0 1 -0.12499999999999652 0.07216878623931024 Z" style="vector-effect: non-scaling-stroke;" /></g><g style="fill: #ff9700;stroke: black;stroke-width: 0.885;" transform="matrix(1.0, 0.0, 0.0, 1.0, 0.25000000000000544, 0.0)"><path d="M -0.125 0.07216878235340118 A 31.250125000152813 31.250125000152813 -90.0 0 1 0.12500000000000192 0.07216878235339765 A 31.250125000152813 31.250125000152813 150.00000000000003 0 1 -3.552713678800501e-15 -0.1443375685927073 A 31.250125000152817 31.250125000152817 30.00000000000004 0 1 -0.12499999999999652 0.07216878623931024 Z" style="vector-effect: non-scaling-stroke;" /></g></g></g></g><g transform="matrix(1.0, 0.0, 0.0, 1.0, 0.5, 0.0)"><g><g style="fill: #ff9700;stroke: black;stroke-width: 0.885;" transform="matrix(1.0, 0.0, 0.0, 1.0, 0.0, 0.0)"><path d="M -0.125 0.07216878235340118 A 31.250125000152813 31.250125000152813 -90.0 0 1 0.12500000000000192 0.07216878235339765 A 31.250125000152813 31.250125000152813 150.00000000000003 0 1 -3.552713678800501e-15 -0.1443375685927073 A 31.250125000152817 31.250125000152817 30.00000000000004 0 1 -0.12499999999999652 0.07216878623931024 Z" style="vector-effect: non-scaling-stroke;" /></g><g transform="matrix(1.0, 0.0, 0.0, 1.0, -0.125, 0.21650636568665504)"><g><g style="fill: #ff9700;stroke: black;stroke-width: 0.885;" transform="matrix(1.0, 0.0, 0.0, 1.0, 0.0, 0.0)"><path d="M -0.125 0.07216878235340118 A 31.250125000152813 31.250125000152813 -90.0 0 1 0.12500000000000192 0.07216878235339765 A 31.250125000152813 31.250125000152813 150.00000000000003 0 1 -3.552713678800501e-15 -0.1443375685927073 A 31.250125000152817 31.250125000152817 30.00000000000004 0 1 -0.12499999999999652 0.07216878623931024 Z" style="vector-effect: non-scaling-stroke;" /></g><g style="fill: #ff9700;stroke: black;stroke-width: 0.885;" transform="matrix(1.0, 0.0, 0.0, 1.0, 0.25000000000000544, 0.0)"><path d="M -0.125 0.07216878235340118 A 31.250125000152813 31.250125000152813 -90.0 0 1 0.12500000000000192 0.07216878235339765 A 31.250125000152813 31.250125000152813 150.00000000000003 0 1 -3.552713678800501e-15 -0.1443375685927073 A 31.250125000152817 31.250125000152817 30.00000000000004 0 1 -0.12499999999999652 0.07216878623931024 Z" style="vector-effect: non-scaling-stroke;" /></g></g></g></g></g></g></g></g></g></g></g></g></g></g></g></g></g></g></svg>