<?xml version="1.0" encoding="utf-8" ?>
<svg baseProfile="full" height="256" version="1.1" width="295" xmlns="http://www.w3.org/2000/svg" xmlns:ev="http://www.w3.org/2001/xml-events" xmlns:xlink="http://www.w3.org/1999/xlink"><defs><marker id="arrow" markerHeight="3.5" markerWidth="5" orient="auto" refX="5.0" refY="1.7"><polygon points="0,0 5,1.75 0,3.5" /></marker></defs><g style="fill:white;"><g transform="matrix(1.0, 0.0, 0.0, 1.0, 147.80166891254427, 128.00000000000003)"><g transform="matrix(70.38174710121153, 0.0, 0.0, 70.38174710121153, 0.0, 0.0)"><g><g transform="matrix(1.0, 0.0, 0.0, 1.0, -0.0, -1.6237976320958225)"><g><g><g><g><g style="fill: #ff9700;stroke: black;stroke-width: 0.885;" transform="matrix(1.0, 0.0, 0.0, 1.0, -0.12499999999999997, 0.10825317547305484)"><path d="M 0.0 0.0 L 0.25 0.0 L 0.12500000000000006 -0.21650635094610968 L -5.551115123125783e-17 -8.326672684688674e-17 Z" style="vector-effect: non-scaling-stroke;" /></g><g transform="matrix(1.0, 0.0, 0.0, 1.0, 0.0, 0.21650635094610968)"><g transform="matrix(1.0, 0.0, 0.0, 1.0, -0.12500000000000006, -0.0)"><g><g style="fill: #ff9700;stroke: black;stroke-width: 0.885;" transform="matrix(1.0, 0.0, 0.0, 1.0, -0.12499999999999997, 0.10825317547305484)"><path d="M 0.0 0.0 L 0.25 0.0 L 0.12500000000000006 -0.21650635094610968 L -5.551115123125783e-17 -8.326672684688674e-17 Z" style="vector-effect: non-scaling-stroke;" /></g><g style="fill: #ff9700;stroke: black;stroke-width: 0.885;" transform="matrix(1.0, 0.0, 0.0, 1.0, 0.12500000000000008, 0.10825317547305484)"><path d="M 0.0 0.0 L 0.25 0.0 L 0.12500000000000006 -0.21650635094610968 L -5.551115123125783e-17 -8.326672684688674e-17 Z" style="vector-effect: non-scaling-stroke;" /></g></g></g></g></g><g transform="matrix(1.0, 0.0, 0.0, 1.0, 0.0, 0.5412658773652741)"><g transform="matrix(1.0, 0.0, 0.0, 1.0, -0.25000000000000006, -0.10825317547305482)"><g><g><g style="fill: #ff9700;stroke: black;stroke-width: 0.885;" transform="matrix(1.0, 0.0, 0.0, 1.0, -0.12499999999999997, 0.10825317547305484)"><path d="M 0.0 0.0 L 0.25 0.0 L 0.12500000000000006 -0.21650635094610968 L -5.551115123125783e-17 -8.326672684688674e-17 Z" style="vector-effect: non-scaling-stroke;" /></g><g transform="matrix(1.0, 0.0, 0.0, 1.0, 0.0, 0.21650635094610968)"><g transform="matrix(1.0, 0.0, 0.0, 1.0, -0.12500000000000006, -0.0)"><g><g style="fill: #ff9700;stroke: black;stroke-width: 0.885;" transform="matrix(1.0, 0.0, 0.0, 1.0, -0.12499999999999997, 0.10825317547305484)"><path d="M 0.0 0.0 L 0.25 0.0 L 0.12500000000000006 -0.21650635094610968 L -5.551115123125783e-17 -8.326672684688674e-17 Z" style="vector-effect: non-scaling-stroke;" /></g><g style="fill: #ff9700;stroke: black;stroke-width: 0.885;" transform="matrix(1.0, 0.0, 0.0, 1.0, 0.12500000000000008, 0.10825317547305484)"><path d="M 0.0 0.0 L 0.25 0.0 L 0.12500000000000006 -0.21650635094610968 L -5.551115123125783e-17 -8.326672684688674e-17 Z" style="vector-effect: non-scaling-stroke;" /></g></g></g></g></g><g transform="matrix(1.0, 0.0, 0.0, 1.0, 0.5000000000000002, 0.0)"><g><g style="fill: #ff9700;stroke: black;stroke-width: 0.885;" transform="matrix(1.0, 0.0, 0.0, 1.0, -0.12499999999999997, 0.10825317547305484)"><path d="M 0.0 0.0 L 0.25 0.0 L 0.12500000000000006 -0.21650635094610968 L -5.551115123125783e-17 -8.326672684688674e-17 Z" style="vector-effect: non-scaling-stroke;" /></g><g transform="matrix(1.0, 0.0, 0.0, 1.0, 0.0, 0.21650635094610968)"><g transform="matrix(1.0, 0.0, 0.0, 1.0, -0.12500000000000006, -0.0)"><g><g style="fill: #ff9700;stroke: black;stroke-width: 0.885;" transform="matrix(1.0, 0.0, 0.0, 1.0, -0.12499999999999997, 0.10825317547305484)"><path d="M 0.0 0.0 L 0.25 0.0 L 0.12500000000000006 -0.21650635094610968 L -5.551115123125783e-17 -8.326672684688674e-17 Z" style="vector-effect: non-scaling-stroke;" /></g><g style="fill: #ff9700;stroke: black;stroke-width: 0.885;" transform="matrix(1.0, 0.0, 0.0, 1.0, 0.12500000000000008, 0.10825317547305484)"><path d="M 0.0 0.0 L 0.25 0.0 L 0.12500000000000006 -0.21650635094610968 L -5.551115123125783e-17 -8.326672684688674e-17 Z" style="vector-effect: non-scaling-stroke;" /></g></g></g></g></g></g></g></g></g></g><g transform="matrix(1.0, 0.0, 0.0, 1.0, 0.0, 1.190784930203603)"><g transform="matrix(1.0, 0.0, 0.0, 1.0, -0.5000000000000002, -0.3247595264191645)"><g><g><g><g style="fill: #ff9700;stroke: black;stroke-width: 0.885;" transform="matrix(1.0, 0.0, 0.0, 1.0, -0.12499999999999997, 0.10825317547305484)"><path d="M 0.0 0.0 L 0.25 0.0 L 0.12500000000000006 -0.21650635094610968 L -5.551115123125783e-17 -8.326672684688674e-17 Z" style="vector-effect: non-scaling-stroke;" /></g><g transform="matrix(1.0, 0.0, 0.0, 1.0, 0.0, 0.21650635094610968)"><g transform="matrix(1.0, 0.0, 0.0, 1.0, -0.12500000000000006, -0.0)"><g><g style="fill: #ff9700;stroke: black;stroke-width: 0.885;" transform="matrix(1.0, 0.0, 0.0, 1.0, -0.12499999999999997, 0.10825317547305484)"><path d="M 0.0 0.0 L 0.25 0.0 L 0.12500000000000006 -0.21650635094610968 L -5.551115123125783e-17 -8.326672684688674e-17 Z" style="vector-effect: non-scaling-stroke;" /></g><g style="fill: #ff9700;stroke: black;stroke-width: 0.885;" transform="matrix(1.0, 0.0, 0.0, 1.0, 0.12500000000000008, 0.10825317547305484)"><path d="M 0.0 0.0 L 0.25 0.0 L 0.12500000000000006 -0.21650635094610968 L -5.551115123125783e-17 -8.326672684688674e-17 Z" style="vector-effect: non-scaling-stroke;" /></g></g></g></g></g><g transform="matrix(1.0, 0.0, 0.0, 1.0, 0.0, 0.5412658773652741)"><g transform="matrix(1.0, 0.0, 0.0, 1.0, -0.25000000000000006, -0.10825317547305482)"><g><g><g style="fill: #ff9700;stroke: black;stroke-width: 0.885;" transform="matrix(1.0, 0.0, 0.0, 1.0, -0.12499999999999997, 0.10825317547305484)"><path d="M 0.0 0.0 L 0.25 0.0 L 0.12500000000000006 -0.21650635094610968 L -5.551115123125783e-17 -8.326672684688674e-17 Z" style="vector-effect: non-scaling-stroke;" /></g><g transform="matrix(1.0, 0.0, 0.0, 1.0, 0.0, 0.21650635094610968)"><g transform="matrix(1.0, 0.0, 0.0, 1.0, -0.12500000000000006, -0.0)"><g><g style="fill: #ff9700;stroke: black;stroke-width: 0.885;" transform="matrix(1.0, 0.0, 0.0, 1.0, -0.12499999999999997, 0.10825317547305484)"><path d="M 0.0 0.0 L 0.25 0.0 L 0.12500000000000006 -0.21650635094610968 L -5.551115123125783e-17 -8.326672684688674e-17 Z" style="vector-effect: non-scaling-stroke;" /></g><g style="fill: #ff9700;stroke: black;stroke-width: 0.885;" transform="matrix(1.0, 0.0, 0.0, 1.0, 0.12500000000000008, 0.10825317547305484)"><path d="M 0.0 0.0 L 0.25 0.0 L 0.12500000000000006 -0.21650635094610968 L -5.551115123125783e-17 -8.326672684688674e-17 Z" style="vector-effect: non-scaling-stroke;" /></g></g></g></g></g><g transform="matrix(1.0, 0.0, 0.0, 1.0, 0.5000000000000002, 0.0)"><g><g style="fill: #ff9700;stroke: black;stroke-width: 0.885;" transform="matrix(1.0, 0.0, 0.0, 1.0, -0.12499999999999997, 0.10825317547305484)"><path d="M 0.0 0.0 L 0.25 0.0 L 0.12500000000000006 -0.21650635094610968 L -5.551115123125783e-17 -8.326672684688674e-17 Z" style="vector-effect: non-scaling-stroke;" /></g><g transform="matrix(1.0, 0.0, 0.0, 1.0, 0.0, 0.21650635094610968)"><g transform="matrix(1.0, 0.0, 0.0, 1.0, -0.12500000000000006, -0.0)"><g><g style="fill: #ff9700;stroke: black;stroke-width: 0.885;" transform="matrix(1.0, 0.0, 0.0, 1.0, -0.12499999999999997, 0.10825317547305484)"><path d="M 0.0 0.0 L 0.25 0.0 L 0.12500000000000006 -0.21650635094610968 L -5.551115123125783e-17 -8.326672684688674e-17 Z" style="vector-effect: non-scaling-stroke;" /></g><g style="fill: #ff9700;stroke: black;stroke-width: 0.885;" transform="matrix(1.0, 0.0, 0.0, 1.0, 0.12500000000000008, 0.10825317547305484)"><path d="M 0.0 0.0 L 0.25 0.0 L 0.12500000000000006 -0.21650635094610968 L -5.551115123125783e-17 -8.326672684688674e-17 Z" style="vector-effect: non-scaling-stroke;" /></g></g></g></g></g></g></g></g></g></g><g transform="matrix(1.0, 0.0, 0.0, 1.0, 1.0000000000000004, 0.0)"><g><g><g style="fill: #ff9700;stroke: black;stroke-width: 0.885;" transform="matrix(1.0, 0.0, 0.0, 1.0, -0.12499999999999997, 0.10825317547305484)"><path d="M 0.0 0.0 L 0.25 0.0 L 0.12500000000000006 -0.21650635094610968 L -5.551115123125783e-17 -8.326672684688674e-17 Z" style="vector-effect: non-scaling-stroke;" /></g><g transform="matrix(1.0, 0.0, 0.0, 1.0, 0.0, 0.21650635094610968)"><g transform="matrix(1.0, 0.0, 0.0, 1.0, -0.12500000000000006, -0.0)"><g><g style="fill: #ff9700;stroke: black;stroke-width: 0.885;" transform="matrix(1.0, 0.0, 0.0, 1.0, -0.12499999999999997, 0.10825317547305484)"><path d="M 0.0 0.0 L 0.25 0.0 L 0.12500000000000006 -0.21650635094610968 L -5.551115123125783e-17 -8.326672684688674e-17 Z" style="vector-effect: non-scaling-stroke;" /></g><g style="fill: #ff9700;stroke: black;stroke-width: 0.885;" transform="matrix(1.0, 0.0, 0.0, 1.0, 0.12500000000000008, 0.10825317547305484)"><path d="M 0.0 0.0 L 0.25 0.0 L 0.12500000000000006 -0.21650635094610968 L -5.551115123125783e-17 -8.326672684688674e-17 Z" style="vector-effect: non-scaling-stroke;" /></g></g></g></g></g><g transform="matrix(1.0, 0.0, 0.0, 1.0, 0.0, 0.5412658773652741)"><g transform="matrix(1.0, 0.0, 0.0, 1.0, -0.25000000000000006, -0.10825317547305482)"><g><g><g style="fill: #ff9700;stroke: black;stroke-width: 0.885;" transform="matrix(1.0, 0.0, 0.0, 1.0, -0.12499999999999997, 0.10825317547305484)"><path d="M 0.0 0.0 L 0.25 0.0 L 0.12500000000000006 -0.21650635094610968 L -5.551115123125783e-17 -8.326672684688674e-17 Z" style="vector-effect: non-scaling-stroke;" /></g><g transform="matrix(1.0, 0.0, 0.0, 1.0, 0.0, 0.21650635094610968)"><g transform="matrix(1.0, 0.0, 0.0, 1.0, -0.12500000000000006, -0.0)"><g><g style="fill: #ff9700;stroke: black;stroke-width: 0.885;" transform="matrix(1.0, 0.0, 0.0, 1.0, -0.12499999999999997, 0.10825317547305484)"><path d="M 0.0 0.0 L 0.25 0.0 L 0.12500000000000006 -0.21650635094610968 L -5.551115123125783e-17 -8.326672684688674e-17 Z" style="vector-effect: non-scaling-stroke;" /></g><g style="fill: #ff9700;stroke: black;stroke-width: 0.885;" transform="matrix(1.0, 0.0, 0.0, 1.0, 0.12500000000000008, 0.10825317547305484)"><path d="M 0.0 0.0 L 0.25 0.0 L 0.12500000000000006 -0.21650635094610968 L -5.551115123125783e-17 -8.326672684688674e-17 Z" style="vector-effect: non-scaling-stroke;" /></g></g></g></g></g><g transform="matrix(1.0, 0.0, 0.0, 1.0, 0.5000000000000002, 0.0)"><g><g style="fill: #ff9700;stroke: black;stroke-width: 0.885;" transform="matrix(1.0, 0.0, 0.0, 1.0, -0.12499999999999997, 0.10825317547305484)"><path d="M 0.0 0.0 L 0.25 0.0 L 0.12500000000000006 -0.21650635094610968 L -5.551115123125783e-17 -8.326672684688674e-17 Z" style="vector-effect: non-scaling-stroke;" /></g><g transform="matrix(1.0, 0.0, 0.0, 1.0, 0.0, 0.21650635094610968)"><g transform="matrix(1.0, 0.0, 0.0, 1.0, -0.12500000000000006, -0.0)"><g><g style="fill: #ff9700;stroke: black;stroke-width: 0.885;" transform="matrix(1.0, 0.0, 0.0, 1.0, -0.12499999999999997, 0.10825317547305484)"><path d="M 0.0 0.0 L 0.25 0.0 L 0.12500000000000006 -0.21650635094610968 L -5.551115123125783e-17 -8.326672684688674e-17 Z" style="vector-effect: non-scaling-stroke;" /></g><g style="fill: #ff9700;stroke: black;stroke-width: 0.885;" transform="matrix(1.0, 0.0, 0.0, 1.0, 0.12500000000000008, 0.10825317547305484)"><path d="M 0.0 0.0 L 0.25 0.0 L 0.12500000000000006 -0.21650635094610968 L -5.551115123125783e-17 -8.326672684688674e-17 Z" style="vector-effect: non-scaling-stroke;" /></g></g></g></g></g></g></g></g></g></g></g></g></g></g></g><g transform="matrix(1.0, 0.0, 0.0, 1.0, 0.0, 2.489823035880261)"><g transform="matrix(1.0, 0.0, 0.0, 1.0, -1.0000000000000004, -0.7577722283113838)"><g><g><g><g><g style="fill: #ff9700;stroke: black;stroke-width: 0.885;" transform="matrix(1.0, 0.0, 0.0, 1.0, -0.12499999999999997, 0.10825317547305484)"><path d="M 0.0 0.0 L 0.25 0.0 L 0.12500000000000006 -0.21650635094610968 L -5.551115123125783e-17 -8.326672684688674e-17 Z" style="vector-effect: non-scaling-stroke;" /></g><g transform="matrix(1.0, 0.0, 0.0, 1.0, 0.0, 0.21650635094610968)"><g transform="matrix(1.0, 0.0, 0.0, 1.0, -0.12500000000000006, -0.0)"><g><g style="fill: #ff9700;stroke: black;stroke-width: 0.885;" transform="matrix(1.0, 0.0, 0.0, 1.0, -0.12499999999999997, 0.10825317547305484)"><path d="M 0.0 0.0 L 0.25 0.0 L 0.12500000000000006 -0.21650635094610968 L -5.551115123125783e-17 -8.326672684688674e-17 Z" style="vector-effect: non-scaling-stroke;" /></g><g style="fill: #ff9700;stroke: black;stroke-width: 0.885;" transform="matrix(1.0, 0.0, 0.0, 1.0, 0.12500000000000008, 0.10825317547305484)"><path d="M 0.0 0.0 L 0.25 0.0 L 0.12500000000000006 -0.21650635094610968 L -5.551115123125783e-17 -8.326672684688674e-17 Z" style="vector-effect: non-scaling-stroke;" /></g></g></g></g></g><g transform="matrix(1.0, 0.0, 0.0, 1.0, 0.0, 0.5412658773652741)"><g transform="matrix(1.0, 0.0, 0.0, 1.0, -0.25000000000000006, -0.10825317547305482)"><g><g><g style="fill: #ff9700;stroke: black;stroke-width: 0.885;" transform="matrix(1.0, 0.0, 0.0, 1.0, -0.12499999999999997, 0.10825317547305484)"><path d="M 0.0 0.0 L 0.25 0.0 L 0.12500000000000006 -0.21650635094610968 L -5.551115123125783e-17 -8.326672684688674e-17 Z" style="vector-effect: non-scaling-stroke;" /></g><g transform="matrix(1.0, 0.0, 0.0, 1.0, 0.0, 0.21650635094610968)"><g transform="matrix(1.0, 0.0, 0.0, 1.0, -0.12500000000000006, -0.0)"><g><g style="fill: #ff9700;stroke: black;stroke-width: 0.885;" transform="matrix(1.0, 0.0, 0.0, 1.0, -0.12499999999999997, 0.10825317547305484)"><path d="M 0.0 0.0 L 0.25 0.0 L 0.12500000000000006 -0.21650635094610968 L -5.551115123125783e-17 -8.326672684688674e-17 Z" style="vector-effect: non-scaling-stroke;" /></g><g style="fill: #ff9700;stroke: black;stroke-width: 0.885;" transform="matrix(1.0, 0.0, 0.0, 1.0, 0.12500000000000008, 0.10825317547305484)"><path d="M 0.0 0.0 L 0.25 0.0 L 0.12500000000000006 -0.21650635094610968 L -5.551115123125783e-17 -8.326672684688674e-17 Z" style="vector-effect: non-scaling-stroke;" /></g></g></g></g></g><g transform="matrix(1.0, 0.0, 0.0, 1.0, 0.5000000000000002, 0.0)"><g><g style="fill: #ff9700;stroke: black;stroke-width: 0.885;" transform="matrix(1.0, 0.0, 0.0, 1.0, -0.12499999999999997, 0.10825317547305484)"><path d="M 0.0 0.0 L 0.25 0.0 L 0.12500000000000006 -0.21650635094610968 L -5.551115123125783e-17 -8.326672684688674e-17 Z" style="vector-effect: non-scaling-stroke;" /></g><g transform="matrix(1.0, 0.0, 0.0, 1.0, 0.0, 0.21650635094610968)"><g transform="matrix(1.0, 0.0, 0.0, 1.0, -0.12500000000000006, -0.0)"><g><g style="fill: #ff9700;stroke: black;stroke-width: 0.885;" transform="matrix(1.0, 0.0, 0.0, 1.0, -0.12499999999999997, 0.10825317547305484)"><path d="M 0.0 0.0 L 0.25 0.0 L 0.12500000000000006 -0.21650635094610968 L -5.551115123125783e-17 -8.326672684688674e-17 Z" style="vector-effect: non-scaling-stroke;" /></g><g style="fill: #ff9700;stroke: black;stroke-width: 0.885;" transform="matrix(1.0, 0.0, 0.0, 1.0, 0.12500000000000008, 0.10825317547305484)"><path d="M 0.0 0.0 L 0.25 0.0 L 0.12500000000000006 -0.21650635094610968 L -5.551115123125783e-17 -8.326672684688674e-17 Z" style="vector-effect: non-scaling-stroke;" /></g></g></g></g></g></g></g></g></g></g><g transform="matrix(1.0, 0.0, 0.0, 1.0, 0.0, 1.190784930203603)"><g transform="matrix(1.0, 0.0, 0.0, 1.0, -0.5000000000000002, -0.3247595264191645)"><g><g><g><g style="fill: #ff9700;stroke: black;stroke-width: 0.885;" transform="matrix(1.0, 0.0, 0.0, 1.0, -0.12499999999999997, 0.10825317547305484)"><path d="M 0.0 0.0 L 0.25 0.0 L 0.12500000000000006 -0.21650635094610968 L -5.551115123125783e-17 -8.326672684688674e-17 Z" style="vector-effect: non-scaling-stroke;" /></g><g transform="matrix(1.0, 0.0, 0.0, 1.0, 0.0, 0.21650635094610968)"><g transform="matrix(1.0, 0.0, 0.0, 1.0, -0.12500000000000006, -0.0)"><g><g style="fill: #ff9700;stroke: black;stroke-width: 0.885;" transform="matrix(1.0, 0.0, 0.0, 1.0, -0.12499999999999997, 0.10825317547305484)"><path d="M 0.0 0.0 L 0.25 0.0 L 0.12500000000000006 -0.21650635094610968 L -5.551115123125783e-17 -8.326672684688674e-17 Z" style="vector-effect: non-scaling-stroke;" /></g><g style="fill: #ff9700;stroke: black;stroke-width: 0.885;" transform="matrix(1.0, 0.0, 0.0, 1.0, 0.12500000000000008, 0.10825317547305484)"><path d="M 0.0 0.0 L 0.25 0.0 L 0.12500000000000006 -0.21650635094610968 L -5.551115123125783e-17 -8.326672684688674e-17 Z" style="vector-effect: non-scaling-stroke;" /></g></g></g></g></g><g transform="matrix(1.0, 0.0, 0.0, 1.0, 0.0, 0.5412658773652741)"><g transform="matrix(1.0, 0.0, 0.0, 1.0, -0.25000000000000006, -0.10825317547305482)"><g><g><g style="fill: #ff9700;stroke: black;stroke-width: 0.885;" transform="matrix(1.0, 0.0, 0.0, 1.0, -0.12499999999999997, 0.10825317547305484)"><path d="M 0.0 0.0 L 0.25 0.0 L 0.12500000000000006 -0.21650635094610968 L -5.551115123125783e-17 -8.326672684688674e-17 Z" style="vector-effect: non-scaling-stroke;" /></g><g transform="matrix(1.0, 0.0, 0.0, 1.0, 0.0, 0.21650635094610968)"><g transform="matrix(1.0, 0.0, 0.0, 1.0, -0.12500000000000006, -0.0)"><g><g style="fill: #ff9700;stroke: black;stroke-width: 0.885;" transform="matrix(1.0, 0.0, 0.0, 1.0, -0.12499999999999997, 0.10825317547305484)"><path d="M 0.0 0.0 L 0.25 0.0 L 0.12500000000000006 -0.21650635094610968 L -5.551115123125783e-17 -8.326672684688674e-17 Z" style="vector-effect: non-scaling-stroke;" /></g><g style="fill: #ff9700;stroke: black;stroke-width: 0.885;" transform="matrix(1.0, 0.0, 0.0, 1.0, 0.12500000000000008, 0.10825317547305484)"><path d="M 0.0 0.0 L 0.25 0.0 L 0.12500000000000006 -0.21650635094610968 L -5.551115123125783e-17 -8.326672684688674e-17 Z" style="vector-effect: non-scaling-stroke;" /></g></g></g></g></g><g transform="matrix(1.0, 0.0, 0.0, 1.0, 0.5000000000000002, 0.0)"><g><g style="fill: #ff9700;stroke: black;stroke-width: 0.885;" transform="matrix(1.0, 0.0, 0.0, 1.0, -0.12499999999999997, 0.10825317547305484)"><path d="M 0.0 0.0 L 0.25 0.0 L 0.12500000000000006 -0.21650635094610968 L -5.551115123125783e-17 -8.326672684688674e-17 Z" style="vector-effect: non-scaling-stroke;" /></g><g transform="matrix(1.0, 0.0, 0.0, 1.0, 0.0, 0.21650635094610968)"><g transform="matrix(1.0, 0.0, 0.0, 1.0, -0.12500000000000006, -0.0)"><g><g style="fill: #ff9700;stroke: black;stroke-width: 0.885;" transform="matrix(1.0, 0.0, 0.0, 1.0, -0.12499999999999997, 0.10825317547305484)"><path d="M 0.0 0.0 L 0.25 0.0 L 0.12500000000000006 -0.21650635094610968 L -5.551115123125783e-17 -8.326672684688674e-17 Z" style="vector-effect: non-scaling-stroke;" /></g><g style="fill: #ff9700;stroke: black;stroke-width: 0.885;" transform="matrix(1.0, 0.0, 0.0, 1.0, 0.12500000000000008, 0.10825317547305484)"><path d="M 0.0 0.0 L 0.25 0.0 L 0.12500000000000006 -0.21650635094610968 L -5.551115123125783e-17 -8.326672684688674e-17 Z" style="vector-effect: non-scaling-stroke;" /></g></g></g></g></g></g></g></g></g></g><g transform="matrix(1.0, 0.0, 0.0, 1.0, 1.0000000000000004, 0.0)"><g><g><g style="fill: #ff9700;stroke: black;stroke-width: 0.885;" transform="matrix(1.0, 0.0, 0.0, 1.0, -0.12499999999999997, 0.10825317547305484)"><path d="M 0.0 0.0 L 0.25 0.0 L 0.12500000000000006 -0.21650635094610968 L -5.551115123125783e-17 -8.326672684688674e-17 Z" style="vector-effect: non-scaling-stroke;" /></g><g transform="matrix(1.0, 0.0, 0.0, 1.0, 0.0, 0.21650635094610968)"><g transform="matrix(1.0, 0.0, 0.0, 1.0, -0.12500000000000006, -0.0)"><g><g style="fill: #ff9700;stroke: black;stroke-width: 0.885;" transform="matrix(1.0, 0.0, 0.0, 1.0, -0.12499999999999997, 0.10825317547305484)"><path d="M 0.0 0.0 L 0.25 0.0 L 0.12500000000000006 -0.21650635094610968 L -5.551115123125783e-17 -8.326672684688674e-17 Z" style="vector-effect: non-scaling-stroke;" /></g><g style="fill: #ff9700;stroke: black;stroke-width: 0.885;" transform="matrix(1.0, 0.0, 0.0, 1.0, 0.12500000000000008, 0.10825317547305484)"><path d="M 0.0 0.0 L 0.25 0.0 L 0.12500000000000006 -0.21650635094610968 L -5.551115123125783e-17 -8.326672684688674e-17 Z" style="vector-effect: non-scaling-stroke;" /></g></g></g></g></g><g transform="matrix(1.0, 0.0, 0.0, 1.0, 0.0, 0.5412658773652741)"><g transform="matrix(1.0, 0.0, 0.0, 1.0, -0.25000000000000006, -0.10825317547305482)"><g><g><g style="fill: #ff9700;stroke: black;stroke-width: 0.885;" transform="matrix(1.0, 0.0, 0.0, 1.0, -0.12499999999999997, 0.10825317547305484)"><path d="M 0.0 0.0 L 0.25 0.0 L 0.12500000000000006 -0.21650635094610968 L -5.551115123125783e-17 -8.326672684688674e-17 Z" style="vector-effect: non-scaling-stroke;" /></g><g transform="matrix(1.0, 0.0, 0.0, 1.0, 0.0, 0.21650635094610968)"><g transform="matrix(1.0, 0.0, 0.0, 1.0, -0.12500000000000006, -0.0)"><g><g style="fill: #ff9700;stroke: black;stroke-width: 0.885;" transform="matrix(1.0, 0.0, 0.0, 1.0, -0.12499999999999997, 0.10825317547305484)"><path d="M 0.0 0.0 L 0.25 0.0 L 0.12500000000000006 -0.21650635094610968 L -5.551115123125783e-17 -8.326672684688674e-17 Z" style="vector-effect: non-scaling-stroke;" /></g><g style="fill: #ff9700;stroke: black;stroke-width: 0.885;" transform="matrix(1.0, 0.0, 0.0, 1.0, 0.12500000000000008, 0.10825317547305484)"><path d="M 0.0 0.0 L 0.25 0.0 L 0.12500000000000006 -0.21650635094610968 L -5.551115123125783e-17 -8.326672684688674e-17 Z" style="vector-effect: non-scaling-stroke;" /></g></g></g></g></g><g transform="matrix(1.0, 0.0, 0.0, 1.0, 0.5000000000000002, 0.0)"><g><g style="fill: #ff9700;stroke: black;stroke-width: 0.885;" transform="matrix(1.0, 0.0, 0.0, 1.0, -0.12499999999999997, 0.10825317547305484)"><path d="M 0.0 0.0 L 0.25 0.0 L 0.12500000000000006 -0.21650635094610968 L -5.551115123125783e-17 -8.326672684688674e-17 Z" style="vector-effect: non-scaling-stroke;" /></g><g transform="matrix(1.0, 0.0, 0.0, 1.0, 0.0, 0.21650635094610968)"><g transform="matrix(1.0, 0.0, 0.0, 1.0, -0.12500000000000006, -0.0)"><g><g style="fill: #ff9700;stroke: black;stroke-width: 0.885;" transform="matrix(1.0, 0.0, 0.0, 1.0, -0.12499999999999997, 0.10825317547305484)"><path d="M 0.0 0.0 L 0.25 0.0 L 0.12500000000000006 -0.21650635094610968 L -5.551115123125783e-17 -8.326672684688674e-17 Z" style="vector-effect: non-scaling-stroke;" /></g><g style="fill: #ff9700;stroke: black;stroke-width: 0.885;" transform="matrix(1.0, 0.0, 0.0, 1.0, 0.12500000000000008, 0.10825317547305484)"><path d="M 0.0 0.0 L 0.25 0.0 L 0.12500000000000006 -0.21650635094610968 L -5.551115123125783e-17 -8.326672684688674e-17 Z" style="vector-effect: non-scaling-stroke;" /></g></g></g></g></g></g></g></g></g></g></g></g></g></g></g><g transform="matrix(1.0, 0.0, 0.0, 1.0, 2.000000000000001, 0.0)"><g><g><g><g style="fill: #ff9700;stroke: black;stroke-width: 0.885;" transform="matrix(1.0, 0.0, 0.0, 1.0, -0.12499999999999997, 0.10825317547305484)"><path d="M 0.0 0.0 L 0.25 0.0 L 0.12500000000000006 -0.21650635094610968 L -5.551115123125783e-17 -8.326672684688674e-17 Z" style="vector-effect: non-scaling-stroke;" /></g><g transform="matrix(1.0, 0.0, 0.0, 1.0, 0.0, 0.21650635094610968)"><g transform="matrix(1.0, 0.0, 0.0, 1.0, -0.12500000000000006, -0.0)"><g><g style="fill: #ff9700;stroke: black;stroke-width: 0.885;" transform="matrix(1.0, 0.0, 0.0, 1.0, -0.12499999999999997, 0.10825317547305484)"><path d="M 0.0 0.0 L 0.25 0.0 L 0.12500000000000006 -0.21650635094610968 L -5.551115123125783e-17 -8.326672684688674e-17 Z" style="vector-effect: non-scaling-stroke;" /></g><g style="fill: #ff9700;stroke: black;stroke-width: 0.885;" transform="matrix(1.0, 0.0, 0.0, 1.0, 0.12500000000000008, 0.10825317547305484)"><path d="M 0.0 0.0 L 0.25 0.0 L 0.12500000000000006 -0.21650635094610968 L -5.551115123125783e-17 -8.326672684688674e-17 Z" style="vector-effect: non-scaling-stroke;" /></g></g></g></g></g><g transform="matrix(1.0, 0.0, 0.0, 1.0, 0.0, 0.5412658773652741)"><g transform="matrix(1.0, 0.0, 0.0, 1.0, -0.25000000000000006, -0.10825317547305482)"><g><g><g style="fill: #ff9700;stroke: black;stroke-width: 0.885;" transform="matrix(1.0, 0.0, 0.0, 1.0, -0.12499999999999997, 0.10825317547305484)"><path d="M 0.0 0.0 L 0.25 0.0 L 0.12500000000000006 -0.21650635094610968 L -5.551115123125783e-17 -8.326672684688674e-17 Z" style="vector-effect: non-scaling-stroke;" /></g><g transform="matrix(1.0, 0.0, 0.0, 1.0, 0.0, 0.21650635094610968)"><g transform="matrix(1.0, 0.0, 0.0, 1.0, -0.12500000000000006, -0.0)"><g><g style="fill: #ff9700;stroke: black;stroke-width: 0.885;" transform="matrix(1.0, 0.0, 0.0, 1.0, -0.12499999999999997, 0.10825317547305484)"><path d="M 0.0 0.0 L 0.25 0.0 L 0.12500000000000006 -0.21650635094610968 L -5.551115123125783e-17 -8.326672684688674e-17 Z" style="vector-effect: non-scaling-stroke;" /></g><g style="fill: #ff9700;stroke: black;stroke-width: 0.885;" transform="matrix(1.0, 0.0, 0.0, 1.0, 0.12500000000000008, 0.10825317547305484)"><path d="M 0.0 0.0 L 0.25 0.0 L 0.12500000000000006 -0.21650635094610968 L -5.551115123125783e-17 -8.326672684688674e-17 Z" style="vector-effect: non-scaling-stroke;" /></g></g></g></g></g><g transform="matrix(1.0, 0.0, 0.0, 1.0, 0.5000000000000002, 0.0)"><g><g style="fill: #ff9700;stroke: black;stroke-width: 0.885;" transform="matrix(1.0, 0.0, 0.0, 1.0, -0.12499999999999997, 0.10825317547305484)"><path d="M 0.0 0.0 L 0.25 0.0 L 0.12500000000000006 -0.21650635094610968 L -5.551115123125783e-17 -8.326672684688674e-17 Z" style="vector-effect: non-scaling-stroke;" /></g><g transform="matrix(1.0, 0.0, 0.0, 1.0, 0.0, 0.21650635094610968)"><g transform="matrix(1.0, 0.0, 0.0, 1.0, -0.12500000000000006, -0.0)"><g><g style="fill: #ff9700;stroke: black;stroke-width: 0.885;" transform="matrix(1.0, 0.0, 0.0, 1.0, -0.12499999999999997, 0.10825317547305484)"><path d="M 0.0 0.0 L 0.25 0.0 L 0.12500000000000006 -0.21650635094610968 L -5.551115123125783e-17 -8.326672684688674e-17 Z" style="vector-effect: non-scaling-stroke;" /></g><g style="fill: #ff9700;stroke: black;stroke-width: 0.885;" transform="matrix(1.0, 0.0, 0.0, 1.0, 0.12500000000000008, 0.10825317547305484)"><path d="M 0.0 0.0 L 0.25 0.0 L 0.12500000000000006 -0.21650635094610968 L -5.551115123125783e-17 -8.326672684688674e-17 Z" style="vector-effect: non-scaling-stroke;" /></g></g></g></g></g></g></g></g></g></g><g transform="matrix(1.0, 0.0, 0.0, 1.0, 0.0, 1.190784930203603)"><g transform="matrix(1.0, 0.0, 0.0, 1.0, -0.5000000000000002, -0.3247595264191645)"><g><g><g><g style="fill: #ff9700;stroke: black;stroke-width: 0.885;" transform="matrix(1.0, 0.0, 0.0, 1.0, -0.12499999999999997, 0.10825317547305484)"><path d="M 0.0 0.0 L 0.25 0.0 L 0.12500000000000006 -0.21650635094610968 L -5.551115123125783e-17 -8.326672684688674e-17 Z" style="vector-effect: non-scaling-stroke;" /></g><g transform="matrix(1.0, 0.0, 0.0, 1.0, 0.0, 0.21650635094610968)"><g transform="matrix(1.0, 0.0, 0.0, 1.0, -0.12500000000000006, -0.0)"><g><g style="fill: #ff9700;stroke: black;stroke-width: 0.885;" transform="matrix(1.0, 0.0, 0.0, 1.0, -0.12499999999999997, 0.10825317547305484)"><path d="M 0.0 0.0 L 0.25 0.0 L 0.12500000000000006 -0.21650635094610968 L -5.551115123125783e-17 -8.326672684688674e-17 Z" style="vector-effect: non-scaling-stroke;" /></g><g style="fill: #ff9700;stroke: black;stroke-width: 0.885;" transform="matrix(1.0, 0.0, 0.0, 1.0, 0.12500000000000008, 0.10825317547305484)"><path d="M 0.0 0.0 L 0.25 0.0 L 0.12500000000000006 -0.21650635094610968 L -5.551115123125783e-17 -8.326672684688674e-17 Z" style="vector-effect: non-scaling-stroke;" /></g></g></g></g></g><g transform="matrix(1.0, 0.0, 0.0, 1.0, 0.0, 0.5412658773652741)"><g transform="matrix(1.0, 0.0, 0.0, 1.0, -0.25000000000000006, -0.10825317547305482)"><g><g><g style="fill: #ff9700;stroke: black;stroke-width: 0.885;" transform="matrix(1.0, 0.0, 0.0, 1.0, -0.12499999999999997, 0.10825317547305484)"><path d="M 0.0 0.0 L 0.25 0.0 L 0.12500000000000006 -0.21650635094610968 L -5.551115123125783e-17 -8.326672684688674e-17 Z" style="vector-effect: non-scaling-stroke;" /></g><g transform="matrix(1.0, 0.0, 0.0, 1.0, 0.0, 0.21650635094610968)"><g transform="matrix(1.0, 0.0, 0.0, 1.0, -0.12500000000000006, -0.0)"><g><g style="fill: #ff9700;stroke: black;stroke-width: 0.885;" transform="matrix(1.0, 0.0, 0.0, 1.0, -0.12499999999999997, 0.10825317547305484)"><path d="M 0.0 0.0 L 0.25 0.0 L 0.12500000000000006 -0.21650635094610968 L -5.551115123125783e-17 -8.326672684688674e-17 Z" style="vector-effect: non-scaling-stroke;" /></g><g style="fill: #ff9700;stroke: black;stroke-width: 0.885;" transform="matrix(1.0, 0.0, 0.0, 1.0, 0.12500000000000008, 0.10825317547305484)"><path d="M 0.0 0.0 L 0.25 0.0 L 0.12500000000000006 -0.21650635094610968 L -5.551115123125783e-17 -8.326672684688674e-17 Z" style="vector-effect: non-scaling-stroke;" /></g></g></g></g></g><g transform="matrix(1.0, 0.0, 0.0, 1.0, 0.5000000000000002, 0.0)"><g><g style="fill: #ff9700;stroke: black;stroke-width: 0.885;" transform="matrix(1.0, 0.0, 0.0, 1.0, -0.12499999999999997, 0.10825317547305484)"><path d="M 0.0 0.0 L 0.25 0.0 L 0.12500000000000006 -0.21650635094610968 L -5.551115123125783e-17 -8.326672684688674e-17 Z" style="vector-effect: non-scaling-stroke;" /></g><g transform="matrix(1.0, 0.0, 0.0, 1.0, 0.0, 0.21650635094610968)"><g transform="matrix(1.0, 0.0, 0.0, 1.0, -0.12500000000000006, -0.0)"><g><g style="fill: #ff9700;stroke: black;stroke-width: 0.885;" transform="matrix(1.0, 0.0, 0.0, 1.0, -0.12499999999999997, 0.10825317547305484)"><path d="M 0.0 0.0 L 0.25 0.0 L 0.12500000000000006 -0.21650635094610968 L -5.551115123125783e-17 -8.326672684688674e-17 Z" style="vector-effect: non-scaling-stroke;" /></g><g style="fill: #ff9700;stroke: black;stroke-width: 0.885;" transform="matrix(1.0, 0.0, 0.0, 1.0, 0.12500000000000008, 0.10825317547305484)"><path d="M 0.0 0.0 L 0.25 0.0 L 0.12500000000000006 -0.21650635094610968 L -5.551115123125783e-17 -8.326672684688674e-17 Z" style="vector-effect: non-scaling-stroke;" /></g></g></g></g></g></g></g></g></g></g><g transform="matrix(1.0, 0.0, 0.0, 1.0, 1.0000000000000004, 0.0)"><g><g><g style="fill: #ff9700;stroke: black;stroke-width: 0.885;" transform="matrix(1.0, 0.0, 0.0, 1.0, -0.12499999999999997, 0.10825317547305484)"><path d="M 0.0 0.0 L 0.25 0.0 L 0.12500000000000006 -0.21650635094610968 L -5.551115123125783e-17 -8.326672684688674e-17 Z" style="vector-effect: non-scaling-stroke;" /></g><g transform="matrix(1.0, 0.0, 0.0, 1.0, 0.0, 0.21650635094610968)"><g transform="matrix(1.0, 0.0, 0.0, 1.0, -0.12500000000000006, -0.0)"><g><g style="fill: #ff9700;stroke: black;stroke-width: 0.885;" transform="matrix(1.0, 0.0, 0.0, 1.0, -0.12499999999999997, 0.10825317547305484)"><path d="M 0.0 0.0 L 0.25 0.0 L 0.12500000000000006 -0.21650635094610968 L -5.551115123125783e-17 -8.326672684688674e-17 Z" style="vector-effect: non-scaling-stroke;" /></g><g style="fill: #ff9700;stroke: black;stroke-width: 0.885;" transform="matrix(1.0, 0.0, 0.0, 1.0, 0.12500000000000008, 0.10825317547305484)"><path d="M 0.0 0.0 L 0.25 0.0 L 0.12500000000000006 -0.21650635094610968 L -5.551115123125783e-17 -8.326672684688674e-17 Z" style="vector-effect: non-scaling-stroke;" /></g></g></g></g></g><g transform="matrix(1.0, 0.0, 0.0, 1.0, 0.0, 0.5412658773652741)"><g transform="matrix(1.0, 0.0, 0.0, 1.0, -0.25000000000000006, -0.10825317547305482)"><g><g><g style="fill: #ff9700;stroke: black;stroke-width: 0.885;" transform="matrix(1.0, 0.0, 0.0, 1.0, -0.12499999999999997, 0.10825317547305484)"><path d="M 0.0 0.0 L 0.25 0.0 L 0.12500000000000006 -0.21650635094610968 L -5.551115123125783e-17 -8.326672684688674e-17 Z" style="vector-effect: non-scaling-stroke;" /></g><g transform="matrix(1.0, 0.0, 0.0, 1.0, 0.0, 0.21650635094610968)"><g transform="matrix(1.0, 0.0, 0.0, 1.0, -0.12500000000000006, -0.0)"><g><g style="fill: #ff9700;stroke: black;stroke-width: 0.885;" transform="matrix(1.0, 0.0, 0.0, 1.0, -0.12499999999999997, 0.10825317547305484)"><path d="M 0.0 0.0 L 0.25 0.0 L 0.12500000000000006 -0.21650635094610968 L -5.551115123125783e-17 -8.326672684688674e-17 Z" style="vector-effect: non-scaling-stroke;" /></g><g style="fill: #ff9700;stroke: black;stroke-width: 0.885;" transform="matrix(1.0, 0.0, 0.0, 1.0, 0.12500000000000008, 0.10825317547305484)"><path d="M 0.0 0.0 L 0.25 0.0 L 0.12500000000000006 -0.21650635094610968 L -5.551115123125783e-17 -8.326672684688674e-17 Z" style="vector-effect: non-scaling-stroke;" /></g></g></g></g></g><g transform="matrix(1.0, 0.0, 0.0, 1.0, 0.5000000000000002, 0.0)"><g><g style="fill: #ff9700;stroke: black;stroke-width: 0.885;" transform="matrix(1.0, 0.0, 0.0, 1.0, -0.12499999999999997, 0.10825317547305484)"><path d="M 0.0 0.0 L 0.25 0.0 L 0.12500000000000006 -0.21650635094610968 L -5.551115123125783e-17 -8.326672684688674e-17 Z" style="vector-effect: non-scaling-stroke;" /></g><g transform="matrix(1.0, 0.0, 0.0, 1.0, 0.0, 0.21650635094610968)"><g transform="matrix(1.0, 0.0, 0.0, 1.0, -0.12500000000000006, -0.0)"><g><g style="fill: #ff9700;stroke: black;stroke-width: 0.885;" transform="matrix(1.0, 0.0, 0.0, 1.0, -0.12499999999999997, 0.10825317547305484)"><path d="M 0.0 0.0 L 0.25 0.0 L 0.12500000000000006 -0.21650635094610968 L -5.551115123125783e-17 -8.326672684688674e-17 Z" style="vector-effect: non-scaling-stroke;" /></g><g style="fill: #ff9700;stroke: black;stroke-width: 0.885;" transform="matrix(1.0, 0.0, 0.0, 1.0, 0.12500000000000008, 0.10825317547305484)"><path d="M 0.0 0.0 L 0.25 0.0 L 0.12500000000000006 -0.21650635094610968 L -5.551115123125783e-17 -8.326672684688674e-17 Z" style="vector-effect: non-scaling-stroke;" /></g></g></g></g></g></g></g></g></g></g></g></g></g></g></g></g></g></g></g></g></g><g /></g></g></g></g></svg>