<?xml version="1.0" encoding="utf-8" ?>
<svg baseProfile="full" height="256" version="1.1" width="295" xmlns="http://www.w3.org/2000/svg" xmlns:ev="http://www.w3.org/2001/xml-events" xmlns:xlink="http://www.w3.org/1999/xlink"><defs><marker id="arrow" markerHeight="3.5" markerWidth="5" orient="auto" refX="5.0" refY="1.7"><polygon points="0,0 5,1.75 0,3.5" /></marker></defs><g style="fill:white;"><g transform="matrix(1.0, 0.0, 0.0, 1.0, 147.79931640625, 127.99999237060547)"><g transform="matrix(70.38031005859375, 0.0, 0.0, 70.38031005859375, 0.0, 0.0)"><g><g transform="matrix(1.0, 0.0, 0.0, 1.0, -0.0, -1.5877456665039062)"><g><g style="fill: #ff9700;stroke: black;stroke-width: 0.885;" transform="matrix(1.0, 0.0, 0.0, 1.0, 0.0, 0.0)"><path d="M -0.12499769777059555 0.07216771692037582 A 79.00334930419922 79.00334930419922 -90.0 0 1 0.12499885261058807 0.07216644287109375 A 79.00334930419922 79.00334930419922 150.0 0 1 0.0 -0.14433670043945312 A 79.00334930419922 79.00334167480469 29.999990463256836 0 1 -0.12499237060546875 0.07216644287109375 Z" style="vector-effect: non-scaling-stroke;" /></g><g transform="matrix(1.0, 0.0, 0.0, 1.0, 0.0, 0.18042564392089844)"><g transform="matrix(1.0, 0.0, 0.0, 1.0, -0.125, 0.03608512878417969)"><g><g style="fill: #ff9700;stroke: black;stroke-width: 0.885;" transform="matrix(1.0, 0.0, 0.0, 1.0, 0.0, 0.0)"><path d="M -0.12499769777059555 0.07216771692037582 A 79.00334930419922 79.00334930419922 -90.0 0 1 0.12499885261058807 0.07216644287109375 A 79.00334930419922 79.00334930419922 150.0 0 1 0.0 -0.14433670043945312 A 79.00334930419922 79.00334167480469 29.999990463256836 0 1 -0.12499237060546875 0.07216644287109375 Z" style="vector-effect: non-scaling-stroke;" /></g><g style="fill: #ff9700;stroke: black;stroke-width: 0.885;" transform="matrix(1.0, 0.0, 0.0, 1.0, 0.2500011622905731, 0.0)"><path d="M -0.12499769777059555 0.07216771692037582 A 79.00334930419922 79.00334930419922 -90.0 0 1 0.12499885261058807 0.07216644287109375 A 79.00334930419922 79.00334930419922 150.0 0 1 0.0 -0.14433670043945312 A 79.00334930419922 79.00334167480469 29.999990463256836 0 1 -0.12499237060546875 0.07216644287109375 Z" style="vector-effect: non-scaling-stroke;" /></g></g></g></g><g transform="matrix(1.0, 0.0, 0.0, 1.0, 0.0, 0.5051918029785156)"><g transform="matrix(1.0, 0.0, 0.0, 1.0, -0.25000113248825073, -0.07217025756835938)"><g><g style="fill: #ff9700;stroke: black;stroke-width: 0.885;" transform="matrix(1.0, 0.0, 0.0, 1.0, 0.0, 0.0)"><path d="M -0.12499769777059555 0.07216771692037582 A 79.00334930419922 79.00334930419922 -90.0 0 1 0.12499885261058807 0.07216644287109375 A 79.00334930419922 79.00334930419922 150.0 0 1 0.0 -0.14433670043945312 A 79.00334930419922 79.00334167480469 29.999990463256836 0 1 -0.12499237060546875 0.07216644287109375 Z" style="vector-effect: non-scaling-stroke;" /></g><g transform="matrix(1.0, 0.0, 0.0, 1.0, 0.0, 0.18042564392089844)"><g transform="matrix(1.0, 0.0, 0.0, 1.0, -0.125, 0.03608512878417969)"><g><g style="fill: #ff9700;stroke: black;stroke-width: 0.885;" transform="matrix(1.0, 0.0, 0.0, 1.0, 0.0, 0.0)"><path d="M -0.12499769777059555 0.07216771692037582 A 79.00334930419922 79.00334930419922 -90.0 0 1 0.12499885261058807 0.07216644287109375 A 79.00334930419922 79.00334930419922 150.0 0 1 0.0 -0.14433670043945312 A 79.00334930419922 79.00334167480469 29.999990463256836 0 1 -0.12499237060546875 0.07216644287109375 Z" style="vector-effect: non-scaling-stroke;" /></g><g style="fill: #ff9700;stroke: black;stroke-width: 0.885;" transform="matrix(1.0, 0.0, 0.0, 1.0, 0.2500011622905731, 0.0)"><path d="M -0.12499769777059555 0.07216771692037582 A 79.00334930419922 79.00334930419922 -90.0 0 1 0.12499885261058807 0.07216644287109375 A 79.00334930419922 79.00334930419922 150.0 0 1 0.0 -0.14433670043945312 A 79.00334930419922 79.00334167480469 29.999990463256836 0 1 -0.12499237060546875 0.07216644287109375 Z" style="vector-effect: non-scaling-stroke;" /></g></g></g></g><g transform="matrix(1.0, 0.0, 0.0, 1.0, 0.5000023245811462, 0.0)"><g><g style="fill: #ff9700;stroke: black;stroke-width: 0.885;" transform="matrix(1.0, 0.0, 0.0, 1.0, 0.0, 0.0)"><path d="M -0.12499769777059555 0.07216771692037582 A 79.00334930419922 79.00334930419922 -90.0 0 1 0.12499885261058807 0.07216644287109375 A 79.00334930419922 79.00334930419922 150.0 0 1 0.0 -0.14433670043945312 A 79.00334930419922 79.00334167480469 29.999990463256836 0 1 -0.12499237060546875 0.07216644287109375 Z" style="vector-effect: non-scaling-stroke;" /></g><g transform="matrix(1.0, 0.0, 0.0, 1.0, 0.0, 0.18042564392089844)"><g transform="matrix(1.0, 0.0, 0.0, 1.0, -0.125, 0.03608512878417969)"><g><g style="fill: #ff9700;stroke: black;stroke-width: 0.885;" transform="matrix(1.0, 0.0, 0.0, 1.0, 0.0, 0.0)"><path d="M -0.12499769777059555 0.07216771692037582 A 79.00334930419922 79.00334930419922 -90.0 0 1 0.12499885261058807 0.07216644287109375 A 79.00334930419922 79.00334930419922 150.0 0 1 0.0 -0.14433670043945312 A 79.00334930419922 79.00334167480469 29.999990463256836 0 1 -0.12499237060546875 0.07216644287109375 Z" style="vector-effect: non-scaling-stroke;" /></g><g style="fill: #ff9700;stroke: black;stroke-width: 0.885;" transform="matrix(1.0, 0.0, 0.0, 1.0, 0.2500011622905731, 0.0)"><path d="M -0.12499769777059555 0.07216771692037582 A 79.00334930419922 79.00334930419922 -90.0 0 1 0.12499885261058807 0.07216644287109375 A 79.00334930419922 79.00334930419922 150.0 0 1 0.0 -0.14433670043945312 A 79.00334930419922 79.00334167480469 29.999990463256836 0 1 -0.12499237060546875 0.07216644287109375 Z" style="vector-effect: non-scaling-stroke;" /></g></g></g></g></g></g></g></g></g><g transform="matrix(1.0, 0.0, 0.0, 1.0, 0.0, 1.15472412109375)"><g transform="matrix(1.0, 0.0, 0.0, 1.0, -0.5000023245811462, -0.2886810302734375)"><g><g style="fill: #ff9700;stroke: black;stroke-width: 0.885;" transform="matrix(1.0, 0.0, 0.0, 1.0, 0.0, 0.0)"><path d="M -0.12499769777059555 0.07216771692037582 A 79.00334930419922 79.00334930419922 -90.0 0 1 0.12499885261058807 0.07216644287109375 A 79.00334930419922 79.00334930419922 150.0 0 1 0.0 -0.14433670043945312 A 79.00334930419922 79.00334167480469 29.999990463256836 0 1 -0.12499237060546875 0.07216644287109375 Z" style="vector-effect: non-scaling-stroke;" /></g><g transform="matrix(1.0, 0.0, 0.0, 1.0, 0.0, 0.18042564392089844)"><g transform="matrix(1.0, 0.0, 0.0, 1.0, -0.125, 0.03608512878417969)"><g><g style="fill: #ff9700;stroke: black;stroke-width: 0.885;" transform="matrix(1.0, 0.0, 0.0, 1.0, 0.0, 0.0)"><path d="M -0.12499769777059555 0.07216771692037582 A 79.00334930419922 79.00334930419922 -90.0 0 1 0.12499885261058807 0.07216644287109375 A 79.00334930419922 79.00334930419922 150.0 0 1 0.0 -0.14433670043945312 A 79.00334930419922 79.00334167480469 29.999990463256836 0 1 -0.12499237060546875 0.07216644287109375 Z" style="vector-effect: non-scaling-stroke;" /></g><g style="fill: #ff9700;stroke: black;stroke-width: 0.885;" transform="matrix(1.0, 0.0, 0.0, 1.0, 0.2500011622905731, 0.0)"><path d="M -0.12499769777059555 0.07216771692037582 A 79.00334930419922 79.00334930419922 -90.0 0 1 0.12499885261058807 0.07216644287109375 A 79.00334930419922 79.00334930419922 150.0 0 1 0.0 -0.14433670043945312 A 79.00334930419922 79.00334167480469 29.999990463256836 0 1 -0.12499237060546875 0.07216644287109375 Z" style="vector-effect: non-scaling-stroke;" /></g></g></g></g><g transform="matrix(1.0, 0.0, 0.0, 1.0, 0.0, 0.5051918029785156)"><g transform="matrix(1.0, 0.0, 0.0, 1.0, -0.25000113248825073, -0.07217025756835938)"><g><g style="fill: #ff9700;stroke: black;stroke-width: 0.885;" transform="matrix(1.0, 0.0, 0.0, 1.0, 0.0, 0.0)"><path d="M -0.12499769777059555 0.07216771692037582 A 79.00334930419922 79.00334930419922 -90.0 0 1 0.12499885261058807 0.07216644287109375 A 79.00334930419922 79.00334930419922 150.0 0 1 0.0 -0.14433670043945312 A 79.00334930419922 79.00334167480469 29.999990463256836 0 1 -0.12499237060546875 0.07216644287109375 Z" style="vector-effect: non-scaling-stroke;" /></g><g transform="matrix(1.0, 0.0, 0.0, 1.0, 0.0, 0.18042564392089844)"><g transform="matrix(1.0, 0.0, 0.0, 1.0, -0.125, 0.03608512878417969)"><g><g style="fill: #ff9700;stroke: black;stroke-width: 0.885;" transform="matrix(1.0, 0.0, 0.0, 1.0, 0.0, 0.0)"><path d="M -0.12499769777059555 0.07216771692037582 A 79.00334930419922 79.00334930419922 -90.0 0 1 0.12499885261058807 0.07216644287109375 A 79.00334930419922 79.00334930419922 150.0 0 1 0.0 -0.14433670043945312 A 79.00334930419922 79.00334167480469 29.999990463256836 0 1 -0.12499237060546875 0.07216644287109375 Z" style="vector-effect: non-scaling-stroke;" /></g><g style="fill: #ff9700;stroke: black;stroke-width: 0.885;" transform="matrix(1.0, 0.0, 0.0, 1.0, 0.2500011622905731, 0.0)"><path d="M -0.12499769777059555 0.07216771692037582 A 79.00334930419922 79.00334930419922 -90.0 0 1 0.12499885261058807 0.07216644287109375 A 79.00334930419922 79.00334930419922 150.0 0 1 0.0 -0.14433670043945312 A 79.00334930419922 79.00334167480469 29.999990463256836 0 1 -0.12499237060546875 0.07216644287109375 Z" style="vector-effect: non-scaling-stroke;" /></g></g></g></g><g transform="matrix(1.0, 0.0, 0.0, 1.0, 0.5000023245811462, 0.0)"><g><g style="fill: #ff9700;stroke: black;stroke-width: 0.885;" transform="matrix(1.0, 0.0, 0.0, 1.0, 0.0, 0.0)"><path d="M -0.12499769777059555 0.07216771692037582 A 79.00334930419922 79.00334930419922 -90.0 0 1 0.12499885261058807 0.07216644287109375 A 79.00334930419922 79.00334930419922 150.0 0 1 0.0 -0.14433670043945312 A 79.00334930419922 79.00334167480469 29.999990463256836 0 1 -0.12499237060546875 0.07216644287109375 Z" style="vector-effect: non-scaling-stroke;" /></g><g transform="matrix(1.0, 0.0, 0.0, 1.0, 0.0, 0.18042564392089844)"><g transform="matrix(1.0, 0.0, 0.0, 1.0, -0.125, 0.03608512878417969)"><g><g style="fill: #ff9700;stroke: black;stroke-width: 0.885;" transform="matrix(1.0, 0.0, 0.0, 1.0, 0.0, 0.0)"><path d="M -0.12499769777059555 0.07216771692037582 A 79.00334930419922 79.00334930419922 -90.0 0 1 0.12499885261058807 0.07216644287109375 A 79.00334930419922 79.00334930419922 150.0 0 1 0.0 -0.14433670043945312 A 79.00334930419922 79.00334167480469 29.999990463256836 0 1 -0.12499237060546875 0.07216644287109375 Z" style="vector-effect: non-scaling-stroke;" /></g><g style="fill: #ff9700;stroke: black;stroke-width: 0.885;" transform="matrix(1.0, 0.0, 0.0, 1.0, 0.2500011622905731, 0.0)"><path d="M -0.12499769777059555 0.07216771692037582 A 79.00334930419922 79.00334930419922 -90.0 0 1 0.12499885261058807 0.07216644287109375 A 79.00334930419922 79.00334930419922 150.0 0 1 0.0 -0.14433670043945312 A 79.00334930419922 79.00334167480469 29.999990463256836 0 1 -0.12499237060546875 0.07216644287109375 Z" style="vector-effect: non-scaling-stroke;" /></g></g></g></g></g></g></g></g></g><g transform="matrix(1.0, 0.0, 0.0, 1.0, 1.000004529953003, 0.0)"><g><g style="fill: #ff9700;stroke: black;stroke-width: 0.885;" transform="matrix(1.0, 0.0, 0.0, 1.0, 0.0, 0.0)"><path d="M -0.12499769777059555 0.07216771692037582 A 79.00334930419922 79.00334930419922 -90.0 0 1 0.12499885261058807 0.07216644287109375 A 79.00334930419922 79.00334930419922 150.0 0 1 0.0 -0.14433670043945312 A 79.00334930419922 79.00334167480469 29.999990463256836 0 1 -0.12499237060546875 0.07216644287109375 Z" style="vector-effect: non-scaling-stroke;" /></g><g transform="matrix(1.0, 0.0, 0.0, 1.0, 0.0, 0.18042564392089844)"><g transform="matrix(1.0, 0.0, 0.0, 1.0, -0.125, 0.03608512878417969)"><g><g style="fill: #ff9700;stroke: black;stroke-width: 0.885;" transform="matrix(1.0, 0.0, 0.0, 1.0, 0.0, 0.0)"><path d="M -0.12499769777059555 0.07216771692037582 A 79.00334930419922 79.00334930419922 -90.0 0 1 0.12499885261058807 0.07216644287109375 A 79.00334930419922 79.00334930419922 150.0 0 1 0.0 -0.14433670043945312 A 79.00334930419922 79.00334167480469 29.999990463256836 0 1 -0.12499237060546875 0.07216644287109375 Z" style="vector-effect: non-scaling-stroke;" /></g><g style="fill: #ff9700;stroke: black;stroke-width: 0.885;" transform="matrix(1.0, 0.0, 0.0, 1.0, 0.2500011622905731, 0.0)"><path d="M -0.12499769777059555 0.07216771692037582 A 79.00334930419922 79.00334930419922 -90.0 0 1 0.12499885261058807 0.07216644287109375 A 79.00334930419922 79.00334930419922 150.0 0 1 0.0 -0.14433670043945312 A 79.00334930419922 79.00334167480469 29.999990463256836 0 1 -0.12499237060546875 0.07216644287109375 Z" style="vector-effect: non-scaling-stroke;" /></g></g></g></g><g transform="matrix(1.0, 0.0, 0.0, 1.0, 0.0, 0.5051918029785156)"><g transform="matrix(1.0, 0.0, 0.0, 1.0, -0.25000113248825073, -0.07217025756835938)"><g><g style="fill: #ff9700;stroke: black;stroke-width: 0.885;" transform="matrix(1.0, 0.0, 0.0, 1.0, 0.0, 0.0)"><path d="M -0.12499769777059555 0.07216771692037582 A 79.00334930419922 79.00334930419922 -90.0 0 1 0.12499885261058807 0.07216644287109375 A 79.00334930419922 79.00334930419922 150.0 0 1 0.0 -0.14433670043945312 A 79.00334930419922 79.00334167480469 29.999990463256836 0 1 -0.12499237060546875 0.07216644287109375 Z" style="vector-effect: non-scaling-stroke;" /></g><g transform="matrix(1.0, 0.0, 0.0, 1.0, 0.0, 0.18042564392089844)"><g transform="matrix(1.0, 0.0, 0.0, 1.0, -0.125, 0.03608512878417969)"><g><g style="fill: #ff9700;stroke: black;stroke-width: 0.885;" transform="matrix(1.0, 0.0, 0.0, 1.0, 0.0, 0.0)"><path d="M -0.12499769777059555 0.07216771692037582 A 79.00334930419922 79.00334930419922 -90.0 0 1 0.12499885261058807 0.07216644287109375 A 79.00334930419922 79.00334930419922 150.0 0 1 0.0 -0.14433670043945312 A 79.00334930419922 79.00334167480469 29.999990463256836 0 1 -0.12499237060546875 0.07216644287109375 Z" style="vector-effect: non-scaling-stroke;" /></g><g style="fill: #ff9700;stroke: black;stroke-width: 0.885;" transform="matrix(1.0, 0.0, 0.0, 1.0, 0.2500011622905731, 0.0)"><path d="M -0.12499769777059555 0.07216771692037582 A 79.00334930419922 79.00334930419922 -90.0 0 1 0.12499885261058807 0.07216644287109375 A 79.00334930419922 79.00334930419922 150.0 0 1 0.0 -0.14433670043945312 A 79.00334930419922 79.00334167480469 29.999990463256836 0 1 -0.12499237060546875 0.07216644287109375 Z" style="vector-effect: non-scaling-stroke;" /></g></g></g></g><g transform="matrix(1.0, 0.0, 0.0, 1.0, 0.5000023245811462, 0.0)"><g><g style="fill: #ff9700;stroke: black;stroke-width: 0.885;" transform="matrix(1.0, 0.0, 0.0, 1.0, 0.0, 0.0)"><path d="M -0.12499769777059555 0.07216771692037582 A 79.00334930419922 79.00334930419922 -90.0 0 1 0.12499885261058807 0.07216644287109375 A 79.00334930419922 79.00334930419922 150.0 0 1 0.0 -0.14433670043945312 A 79.00334930419922 79.00334167480469 29.999990463256836 0 1 -0.12499237060546875 0.07216644287109375 Z" style="vector-effect: non-scaling-stroke;" /></g><g transform="matrix(1.0, 0.0, 0.0, 1.0, 0.0, 0.18042564392089844)"><g transform="matrix(1.0, 0.0, 0.0, 1.0, -0.125, 0.03608512878417969)"><g><g style="fill: #ff9700;stroke: black;stroke-width: 0.885;" transform="matrix(1.0, 0.0, 0.0, 1.0, 0.0, 0.0)"><path d="M -0.12499769777059555 0.07216771692037582 A 79.00334930419922 79.00334930419922 -90.0 0 1 0.12499885261058807 0.07216644287109375 A 79.00334930419922 79.00334930419922 150.0 0 1 0.0 -0.14433670043945312 A 79.00334930419922 79.00334167480469 29.999990463256836 0 1 -0.12499237060546875 0.07216644287109375 Z" style="vector-effect: non-scaling-stroke;" /></g><g style="fill: #ff9700;stroke: black;stroke-width: 0.885;" transform="matrix(1.0, 0.0, 0.0, 1.0, 0.2500011622905731, 0.0)"><path d="M -0.12499769777059555 0.07216771692037582 A 79.00334930419922 79.00334930419922 -90.0 0 1 0.12499885261058807 0.07216644287109375 A 79.00334930419922 79.00334930419922 150.0 0 1 0.0 -0.14433670043945312 A 79.00334930419922 79.00334167480469 29.999990463256836 0 1 -0.12499237060546875 0.07216644287109375 Z" style="vector-effect: non-scaling-stroke;" /></g></g></g></g></g></g></g></g></g></g></g></g></g></g><g transform="matrix(1.0, 0.0, 0.0, 1.0, 0.0, 2.4537887573242188)"><g transform="matrix(1.0, 0.0, 0.0, 1.0, -1.000004529953003, -0.7217025756835938)"><g><g style="fill: #ff9700;stroke: black;stroke-width: 0.885;" transform="matrix(1.0, 0.0, 0.0, 1.0, 0.0, 0.0)"><path d="M -0.12499769777059555 0.07216771692037582 A 79.00334930419922 79.00334930419922 -90.0 0 1 0.12499885261058807 0.07216644287109375 A 79.00334930419922 79.00334930419922 150.0 0 1 0.0 -0.14433670043945312 A 79.00334930419922 79.00334167480469 29.999990463256836 0 1 -0.12499237060546875 0.07216644287109375 Z" style="vector-effect: non-scaling-stroke;" /></g><g transform="matrix(1.0, 0.0, 0.0, 1.0, 0.0, 0.18042564392089844)"><g transform="matrix(1.0, 0.0, 0.0, 1.0, -0.125, 0.03608512878417969)"><g><g style="fill: #ff9700;stroke: black;stroke-width: 0.885;" transform="matrix(1.0, 0.0, 0.0, 1.0, 0.0, 0.0)"><path d="M -0.12499769777059555 0.07216771692037582 A 79.00334930419922 79.00334930419922 -90.0 0 1 0.12499885261058807 0.07216644287109375 A 79.00334930419922 79.00334930419922 150.0 0 1 0.0 -0.14433670043945312 A 79.00334930419922 79.00334167480469 29.999990463256836 0 1 -0.12499237060546875 0.07216644287109375 Z" style="vector-effect: non-scaling-stroke;" /></g><g style="fill: #ff9700;stroke: black;stroke-width: 0.885;" transform="matrix(1.0, 0.0, 0.0, 1.0, 0.2500011622905731, 0.0)"><path d="M -0.12499769777059555 0.07216771692037582 A 79.00334930419922 79.00334930419922 -90.0 0 1 0.12499885261058807 0.07216644287109375 A 79.00334930419922 79.00334930419922 150.0 0 1 0.0 -0.14433670043945312 A 79.00334930419922 79.00334167480469 29.999990463256836 0 1 -0.12499237060546875 0.07216644287109375 Z" style="vector-effect: non-scaling-stroke;" /></g></g></g></g><g transform="matrix(1.0, 0.0, 0.0, 1.0, 0.0, 0.5051918029785156)"><g transform="matrix(1.0, 0.0, 0.0, 1.0, -0.25000113248825073, -0.07217025756835938)"><g><g style="fill: #ff9700;stroke: black;stroke-width: 0.885;" transform="matrix(1.0, 0.0, 0.0, 1.0, 0.0, 0.0)"><path d="M -0.12499769777059555 0.07216771692037582 A 79.00334930419922 79.00334930419922 -90.0 0 1 0.12499885261058807 0.07216644287109375 A 79.00334930419922 79.00334930419922 150.0 0 1 0.0 -0.14433670043945312 A 79.00334930419922 79.00334167480469 29.999990463256836 0 1 -0.12499237060546875 0.07216644287109375 Z" style="vector-effect: non-scaling-stroke;" /></g><g transform="matrix(1.0, 0.0, 0.0, 1.0, 0.0, 0.18042564392089844)"><g transform="matrix(1.0, 0.0, 0.0, 1.0, -0.125, 0.03608512878417969)"><g><g style="fill: #ff9700;stroke: black;stroke-width: 0.885;" transform="matrix(1.0, 0.0, 0.0, 1.0, 0.0, 0.0)"><path d="M -0.12499769777059555 0.07216771692037582 A 79.00334930419922 79.00334930419922 -90.0 0 1 0.12499885261058807 0.07216644287109375 A 79.00334930419922 79.00334930419922 150.0 0 1 0.0 -0.14433670043945312 A 79.00334930419922 79.00334167480469 29.999990463256836 0 1 -0.12499237060546875 0.07216644287109375 Z" style="vector-effect: non-scaling-stroke;" /></g><g style="fill: #ff9700;stroke: black;stroke-width: 0.885;" transform="matrix(1.0, 0.0, 0.0, 1.0, 0.2500011622905731, 0.0)"><path d="M -0.12499769777059555 0.07216771692037582 A 79.00334930419922 79.00334930419922 -90.0 0 1 0.12499885261058807 0.07216644287109375 A 79.00334930419922 79.00334930419922 150.0 0 1 0.0 -0.14433670043945312 A 79.00334930419922 79.00334167480469 29.999990463256836 0 1 -0.12499237060546875 0.07216644287109375 Z" style="vector-effect: non-scaling-stroke;" /></g></g></g></g><g transform="matrix(1.0, 0.0, 0.0, 1.0, 0.5000023245811462, 0.0)"><g><g style="fill: #ff9700;stroke: black;stroke-width: 0.885;" transform="matrix(1.0, 0.0, 0.0, 1.0, 0.0, 0.0)"><path d="M -0.12499769777059555 0.07216771692037582 A 79.00334930419922 79.00334930419922 -90.0 0 1 0.12499885261058807 0.07216644287109375 A 79.00334930419922 79.00334930419922 150.0 0 1 0.0 -0.14433670043945312 A 79.00334930419922 79.00334167480469 29.999990463256836 0 1 -0.12499237060546875 0.07216644287109375 Z" style="vector-effect: non-scaling-stroke;" /></g><g transform="matrix(1.0, 0.0, 0.0, 1.0, 0.0, 0.18042564392089844)"><g transform="matrix(1.0, 0.0, 0.0, 1.0, -0.125, 0.03608512878417969)"><g><g style="fill: #ff9700;stroke: black;stroke-width: 0.885;" transform="matrix(1.0, 0.0, 0.0, 1.0, 0.0, 0.0)"><path d="M -0.12499769777059555 0.07216771692037582 A 79.00334930419922 79.00334930419922 -90.0 0 1 0.12499885261058807 0.07216644287109375 A 79.00334930419922 79.00334930419922 150.0 0 1 0.0 -0.14433670043945312 A 79.00334930419922 79.00334167480469 29.999990463256836 0 1 -0.12499237060546875 0.07216644287109375 Z" style="vector-effect: non-scaling-stroke;" /></g><g style="fill: #ff9700;stroke: black;stroke-width: 0.885;" transform="matrix(1.0, 0.0, 0.0, 1.0, 0.2500011622905731, 0.0)"><path d="M -0.12499769777059555 0.07216771692037582 A 79.00334930419922 79.00334930419922 -90.0 0 1 0.12499885261058807 0.07216644287109375 A 79.00334930419922 79.00334930419922 150.0 0 1 0.0 -0.14433670043945312 A 79.00334930419922 79.00334167480469 29.999990463256836 0 1 -0.12499237060546875 0.07216644287109375 Z" style="vector-effect: non-scaling-stroke;" /></g></g></g></g></g></g></g></g></g><g transform="matrix(1.0, 0.0, 0.0, 1.0, 0.0, 1.15472412109375)"><g transform="matrix(1.0, 0.0, 0.0, 1.0, -0.5000023245811462, -0.2886810302734375)"><g><g style="fill: #ff9700;stroke: black;stroke-width: 0.885;" transform="matrix(1.0, 0.0, 0.0, 1.0, 0.0, 0.0)"><path d="M -0.12499769777059555 0.07216771692037582 A 79.00334930419922 79.00334930419922 -90.0 0 1 0.12499885261058807 0.07216644287109375 A 79.00334930419922 79.00334930419922 150.0 0 1 0.0 -0.14433670043945312 A 79.00334930419922 79.00334167480469 29.999990463256836 0 1 -0.12499237060546875 0.07216644287109375 Z" style="vector-effect: non-scaling-stroke;" /></g><g transform="matrix(1.0, 0.0, 0.0, 1.0, 0.0, 0.18042564392089844)"><g transform="matrix(1.0, 0.0, 0.0, 1.0, -0.125, 0.03608512878417969)"><g><g style="fill: #ff9700;stroke: black;stroke-width: 0.885;" transform="matrix(1.0, 0.0, 0.0, 1.0, 0.0, 0.0)"><path d="M -0.12499769777059555 0.07216771692037582 A 79.00334930419922 79.00334930419922 -90.0 0 1 0.12499885261058807 0.07216644287109375 A 79.00334930419922 79.00334930419922 150.0 0 1 0.0 -0.14433670043945312 A 79.00334930419922 79.00334167480469 29.999990463256836 0 1 -0.12499237060546875 0.07216644287109375 Z" style="vector-effect: non-scaling-stroke;" /></g><g style="fill: #ff9700;stroke: black;stroke-width: 0.885;" transform="matrix(1.0, 0.0, 0.0, 1.0, 0.2500011622905731, 0.0)"><path d="M -0.12499769777059555 0.07216771692037582 A 79.00334930419922 79.00334930419922 -90.0 0 1 0.12499885261058807 0.07216644287109375 A 79.00334930419922 79.00334930419922 150.0 0 1 0.0 -0.14433670043945312 A 79.00334930419922 79.00334167480469 29.999990463256836 0 1 -0.12499237060546875 0.07216644287109375 Z" style="vector-effect: non-scaling-stroke;" /></g></g></g></g><g transform="matrix(1.0, 0.0, 0.0, 1.0, 0.0, 0.5051918029785156)"><g transform="matrix(1.0, 0.0, 0.0, 1.0, -0.25000113248825073, -0.07217025756835938)"><g><g style="fill: #ff9700;stroke: black;stroke-width: 0.885;" transform="matrix(1.0, 0.0, 0.0, 1.0, 0.0, 0.0)"><path d="M -0.12499769777059555 0.07216771692037582 A 79.00334930419922 79.00334930419922 -90.0 0 1 0.12499885261058807 0.07216644287109375 A 79.00334930419922 79.00334930419922 150.0 0 1 0.0 -0.14433670043945312 A 79.00334930419922 79.00334167480469 29.999990463256836 0 1 -0.12499237060546875 0.07216644287109375 Z" style="vector-effect: non-scaling-stroke;" /></g><g transform="matrix(1.0, 0.0, 0.0, 1.0, 0.0, 0.18042564392089844)"><g transform="matrix(1.0, 0.0, 0.0, 1.0, -0.125, 0.03608512878417969)"><g><g style="fill: #ff9700;stroke: black;stroke-width: 0.885;" transform="matrix(1.0, 0.0, 0.0, 1.0, 0.0, 0.0)"><path d="M -0.12499769777059555 0.07216771692037582 A 79.00334930419922 79.00334930419922 -90.0 0 1 0.12499885261058807 0.07216644287109375 A 79.00334930419922 79.00334930419922 150.0 0 1 0.0 -0.14433670043945312 A 79.00334930419922 79.00334167480469 29.999990463256836 0 1 -0.12499237060546875 0.07216644287109375 Z" style="vector-effect: non-scaling-stroke;" /></g><g style="fill: #ff9700;stroke: black;stroke-width: 0.885;" transform="matrix(1.0, 0.0, 0.0, 1.0, 0.2500011622905731, 0.0)"><path d="M -0.12499769777059555 0.07216771692037582 A 79.00334930419922 79.00334930419922 -90.0 0 1 0.12499885261058807 0.07216644287109375 A 79.00334930419922 79.00334930419922 150.0 0 1 0.0 -0.14433670043945312 A 79.00334930419922 79.00334167480469 29.999990463256836 0 1 -0.12499237060546875 0.07216644287109375 Z" style="vector-effect: non-scaling-stroke;" /></g></g></g></g><g transform="matrix(1.0, 0.0, 0.0, 1.0, 0.5000023245811462, 0.0)"><g><g style="fill: #ff9700;stroke: black;stroke-width: 0.885;" transform="matrix(1.0, 0.0, 0.0, 1.0, 0.0, 0.0)"><path d="M -0.12499769777059555 0.07216771692037582 A 79.00334930419922 79.00334930419922 -90.0 0 1 0.12499885261058807 0.07216644287109375 A 79.00334930419922 79.00334930419922 150.0 0 1 0.0 -0.14433670043945312 A 79.00334930419922 79.00334167480469 29.999990463256836 0 1 -0.12499237060546875 0.07216644287109375 Z" style="vector-effect: non-scaling-stroke;" /></g><g transform="matrix(1.0, 0.0, 0.0, 1.0, 0.0, 0.18042564392089844)"><g transform="matrix(1.0, 0.0, 0.0, 1.0, -0.125, 0.03608512878417969)"><g><g style="fill: #ff9700;stroke: black;stroke-width: 0.885;" transform="matrix(1.0, 0.0, 0.0, 1.0, 0.0, 0.0)"><path d="M -0.12499769777059555 0.07216771692037582 A 79.00334930419922 79.00334930419922 -90.0 0 1 0.12499885261058807 0.07216644287109375 A 79.00334930419922 79.00334930419922 150.0 0 1 0.0 -0.14433670043945312 A 79.00334930419922 79.00334167480469 29.999990463256836 0 1 -0.12499237060546875 0.07216644287109375 Z" style="vector-effect: non-scaling-stroke;" /></g><g style="fill: #ff9700;stroke: black;stroke-width: 0.885;" transform="matrix(1.0, 0.0, 0.0, 1.0, 0.2500011622905731, 0.0)"><path d="M -0.12499769777059555 0.07216771692037582 A 79.00334930419922 79.00334930419922 -90.0 0 1 0.12499885261058807 0.07216644287109375 A 79.00334930419922 79.00334930419922 150.0 0 1 0.0 -0.14433670043945312 A 79.00334930419922 79.00334167480469 29.999990463256836 0 1 -0.12499237060546875 0.07216644287109375 Z" style="vector-effect: non-scaling-stroke;" /></g></g></g></g></g></g></g></g></g><g transform="matrix(1.0, 0.0, 0.0, 1.0, 1.000004529953003, 0.0)"><g><g style="fill: #ff9700;stroke: black;stroke-width: 0.885;" transform="matrix(1.0, 0.0, 0.0, 1.0, 0.0, 0.0)"><path d="M -0.12499769777059555 0.07216771692037582 A 79.00334930419922 79.00334930419922 -90.0 0 1 0.12499885261058807 0.07216644287109375 A 79.00334930419922 79.00334930419922 150.0 0 1 0.0 -0.14433670043945312 A 79.00334930419922 79.00334167480469 29.999990463256836 0 1 -0.12499237060546875 0.07216644287109375 Z" style="vector-effect: non-scaling-stroke;" /></g><g transform="matrix(1.0, 0.0, 0.0, 1.0, 0.0, 0.18042564392089844)"><g transform="matrix(1.0, 0.0, 0.0, 1.0, -0.125, 0.03608512878417969)"><g><g style="fill: #ff9700;stroke: black;stroke-width: 0.885;" transform="matrix(1.0, 0.0, 0.0, 1.0, 0.0, 0.0)"><path d="M -0.12499769777059555 0.07216771692037582 A 79.00334930419922 79.00334930419922 -90.0 0 1 0.12499885261058807 0.07216644287109375 A 79.00334930419922 79.00334930419922 150.0 0 1 0.0 -0.14433670043945312 A 79.00334930419922 79.00334167480469 29.999990463256836 0 1 -0.12499237060546875 0.07216644287109375 Z" style="vector-effect: non-scaling-stroke;" /></g><g style="fill: #ff9700;stroke: black;stroke-width: 0.885;" transform="matrix(1.0, 0.0, 0.0, 1.0, 0.2500011622905731, 0.0)"><path d="M -0.12499769777059555 0.07216771692037582 A 79.00334930419922 79.00334930419922 -90.0 0 1 0.12499885261058807 0.07216644287109375 A 79.00334930419922 79.00334930419922 150.0 0 1 0.0 -0.14433670043945312 A 79.00334930419922 79.00334167480469 29.999990463256836 0 1 -0.12499237060546875 0.07216644287109375 Z" style="vector-effect: non-scaling-stroke;" /></g></g></g></g><g transform="matrix(1.0, 0.0, 0.0, 1.0, 0.0, 0.5051918029785156)"><g transform="matrix(1.0, 0.0, 0.0, 1.0, -0.25000113248825073, -0.07217025756835938)"><g><g style="fill: #ff9700;stroke: black;stroke-width: 0.885;" transform="matrix(1.0, 0.0, 0.0, 1.0, 0.0, 0.0)"><path d="M -0.12499769777059555 0.07216771692037582 A 79.00334930419922 79.00334930419922 -90.0 0 1 0.12499885261058807 0.07216644287109375 A 79.00334930419922 79.00334930419922 150.0 0 1 0.0 -0.14433670043945312 A 79.00334930419922 79.00334167480469 29.999990463256836 0 1 -0.12499237060546875 0.07216644287109375 Z" style="vector-effect: non-scaling-stroke;" /></g><g transform="matrix(1.0, 0.0, 0.0, 1.0, 0.0, 0.18042564392089844)"><g transform="matrix(1.0, 0.0, 0.0, 1.0, -0.125, 0.03608512878417969)"><g><g style="fill: #ff9700;stroke: black;stroke-width: 0.885;" transform="matrix(1.0, 0.0, 0.0, 1.0, 0.0, 0.0)"><path d="M -0.12499769777059555 0.07216771692037582 A 79.00334930419922 79.00334930419922 -90.0 0 1 0.12499885261058807 0.07216644287109375 A 79.00334930419922 79.00334930419922 150.0 0 1 0.0 -0.14433670043945312 A 79.00334930419922 79.00334167480469 29.999990463256836 0 1 -0.12499237060546875 0.07216644287109375 Z" style="vector-effect: non-scaling-stroke;" /></g><g style="fill: #ff9700;stroke: black;stroke-width: 0.885;" transform="matrix(1.0, 0.0, 0.0, 1.0, 0.2500011622905731, 0.0)"><path d="M -0.12499769777059555 0.07216771692037582 A 79.00334930419922 79.00334930419922 -90.0 0 1 0.12499885261058807 0.07216644287109375 A 79.00334930419922 79.00334930419922 150.0 0 1 0.0 -0.14433670043945312 A 79.00334930419922 79.00334167480469 29.999990463256836 0 1 -0.12499237060546875 0.07216644287109375 Z" style="vector-effect: non-scaling-stroke;" /></g></g></g></g><g transform="matrix(1.0, 0.0, 0.0, 1.0, 0.5000023245811462, 0.0)"><g><g style="fill: #ff9700;stroke: black;stroke-width: 0.885;" transform="matrix(1.0, 0.0, 0.0, 1.0, 0.0, 0.0)"><path d="M -0.12499769777059555 0.07216771692037582 A 79.00334930419922 79.00334930419922 -90.0 0 1 0.12499885261058807 0.07216644287109375 A 79.00334930419922 79.00334930419922 150.0 0 1 0.0 -0.14433670043945312 A 79.00334930419922 79.00334167480469 29.999990463256836 0 1 -0.12499237060546875 0.07216644287109375 Z" style="vector-effect: non-scaling-stroke;" /></g><g transform="matrix(1.0, 0.0, 0.0, 1.0, 0.0, 0.18042564392089844)"><g transform="matrix(1.0, 0.0, 0.0, 1.0, -0.125, 0.03608512878417969)"><g><g style="fill: #ff9700;stroke: black;stroke-width: 0.885;" transform="matrix(1.0, 0.0, 0.0, 1.0, 0.0, 0.0)"><path d="M -0.12499769777059555 0.07216771692037582 A 79.00334930419922 79.00334930419922 -90.0 0 1 0.12499885261058807 0.07216644287109375 A 79.00334930419922 79.00334930419922 150.0 0 1 0.0 -0.14433670043945312 A 79.00334930419922 79.00334167480469 29.999990463256836 0 1 -0.12499237060546875 0.07216644287109375 Z" style="vector-effect: non-scaling-stroke;" /></g><g style="fill: #ff9700;stroke: black;stroke-width: 0.885;" transform="matrix(1.0, 0.0, 0.0, 1.0, 0.2500011622905731, 0.0)"><path d="M -0.12499769777059555 0.07216771692037582 A 79.00334930419922 79.00334930419922 -90.0 0 1 0.12499885261058807 0.07216644287109375 A 79.00334930419922 79.00334930419922 150.0 0 1 0.0 -0.14433670043945312 A 79.00334930419922 79.00334167480469 29.999990463256836 0 1 -0.12499237060546875 0.07216644287109375 Z" style="vector-effect: non-scaling-stroke;" /></g></g></g></g></g></g></g></g></g></g></g></g></g></g><g transform="matrix(1.0, 0.0, 0.0, 1.0, 2.000009059906006, 0.0)"><g><g style="fill: #ff9700;stroke: black;stroke-width: 0.885;" transform="matrix(1.0, 0.0, 0.0, 1.0, 0.0, 0.0)"><path d="M -0.12499769777059555 0.07216771692037582 A 79.00334930419922 79.00334930419922 -90.0 0 1 0.12499885261058807 0.07216644287109375 A 79.00334930419922 79.00334930419922 150.0 0 1 0.0 -0.14433670043945312 A 79.00334930419922 79.00334167480469 29.999990463256836 0 1 -0.12499237060546875 0.07216644287109375 Z" style="vector-effect: non-scaling-stroke;" /></g><g transform="matrix(1.0, 0.0, 0.0, 1.0, 0.0, 0.18042564392089844)"><g transform="matrix(1.0, 0.0, 0.0, 1.0, -0.125, 0.03608512878417969)"><g><g style="fill: #ff9700;stroke: black;stroke-width: 0.885;" transform="matrix(1.0, 0.0, 0.0, 1.0, 0.0, 0.0)"><path d="M -0.12499769777059555 0.07216771692037582 A 79.00334930419922 79.00334930419922 -90.0 0 1 0.12499885261058807 0.07216644287109375 A 79.00334930419922 79.00334930419922 150.0 0 1 0.0 -0.14433670043945312 A 79.00334930419922 79.00334167480469 29.999990463256836 0 1 -0.12499237060546875 0.07216644287109375 Z" style="vector-effect: non-scaling-stroke;" /></g><g style="fill: #ff9700;stroke: black;stroke-width: 0.885;" transform="matrix(1.0, 0.0, 0.0, 1.0, 0.2500011622905731, 0.0)"><path d="M -0.12499769777059555 0.07216771692037582 A 79.00334930419922 79.00334930419922 -90.0 0 1 0.12499885261058807 0.07216644287109375 A 79.00334930419922 79.00334930419922 150.0 0 1 0.0 -0.14433670043945312 A 79.00334930419922 79.00334167480469 29.999990463256836 0 1 -0.12499237060546875 0.07216644287109375 Z" style="vector-effect: non-scaling-stroke;" /></g></g></g></g><g transform="matrix(1.0, 0.0, 0.0, 1.0, 0.0, 0.5051918029785156)"><g transform="matrix(1.0, 0.0, 0.0, 1.0, -0.25000113248825073, -0.07217025756835938)"><g><g style="fill: #ff9700;stroke: black;stroke-width: 0.885;" transform="matrix(1.0, 0.0, 0.0, 1.0, 0.0, 0.0)"><path d="M -0.12499769777059555 0.07216771692037582 A 79.00334930419922 79.00334930419922 -90.0 0 1 0.12499885261058807 0.07216644287109375 A 79.00334930419922 79.00334930419922 150.0 0 1 0.0 -0.14433670043945312 A 79.00334930419922 79.00334167480469 29.999990463256836 0 1 -0.12499237060546875 0.07216644287109375 Z" style="vector-effect: non-scaling-stroke;" /></g><g transform="matrix(1.0, 0.0, 0.0, 1.0, 0.0, 0.18042564392089844)"><g transform="matrix(1.0, 0.0, 0.0, 1.0, -0.125, 0.03608512878417969)"><g><g style="fill: #ff9700;stroke: black;stroke-width: 0.885;" transform="matrix(1.0, 0.0, 0.0, 1.0, 0.0, 0.0)"><path d="M -0.12499769777059555 0.07216771692037582 A 79.00334930419922 79.00334930419922 -90.0 0 1 0.12499885261058807 0.07216644287109375 A 79.00334930419922 79.00334930419922 150.0 0 1 0.0 -0.14433670043945312 A 79.00334930419922 79.00334167480469 29.999990463256836 0 1 -0.12499237060546875 0.07216644287109375 Z" style="vector-effect: non-scaling-stroke;" /></g><g style="fill: #ff9700;stroke: black;stroke-width: 0.885;" transform="matrix(1.0, 0.0, 0.0, 1.0, 0.2500011622905731, 0.0)"><path d="M -0.12499769777059555 0.07216771692037582 A 79.00334930419922 79.00334930419922 -90.0 0 1 0.12499885261058807 0.07216644287109375 A 79.00334930419922 79.00334930419922 150.0 0 1 0.0 -0.14433670043945312 A 79.00334930419922 79.00334167480469 29.999990463256836 0 1 -0.12499237060546875 0.07216644287109375 Z" style="vector-effect: non-scaling-stroke;" /></g></g></g></g><g transform="matrix(1.0, 0.0, 0.0, 1.0, 0.5000023245811462, 0.0)"><g><g style="fill: #ff9700;stroke: black;stroke-width: 0.885;" transform="matrix(1.0, 0.0, 0.0, 1.0, 0.0, 0.0)"><path d="M -0.12499769777059555 0.07216771692037582 A 79.00334930419922 79.00334930419922 -90.0 0 1 0.12499885261058807 0.07216644287109375 A 79.00334930419922 79.00334930419922 150.0 0 1 0.0 -0.14433670043945312 A 79.00334930419922 79.00334167480469 29.999990463256836 0 1 -0.12499237060546875 0.07216644287109375 Z" style="vector-effect: non-scaling-stroke;" /></g><g transform="matrix(1.0, 0.0, 0.0, 1.0, 0.0, 0.18042564392089844)"><g transform="matrix(1.0, 0.0, 0.0, 1.0, -0.125, 0.03608512878417969)"><g><g style="fill: #ff9700;stroke: black;stroke-width: 0.885;" transform="matrix(1.0, 0.0, 0.0, 1.0, 0.0, 0.0)"><path d="M -0.12499769777059555 0.07216771692037582 A 79.00334930419922 79.00334930419922 -90.0 0 1 0.12499885261058807 0.07216644287109375 A 79.00334930419922 79.00334930419922 150.0 0 1 0.0 -0.14433670043945312 A 79.00334930419922 79.00334167480469 29.999990463256836 0 1 -0.12499237060546875 0.07216644287109375 Z" style="vector-effect: non-scaling-stroke;" /></g><g style="fill: #ff9700;stroke: black;stroke-width: 0.885;" transform="matrix(1.0, 0.0, 0.0, 1.0, 0.2500011622905731, 0.0)"><path d="M -0.12499769777059555 0.07216771692037582 A 79.00334930419922 79.00334930419922 -90.0 0 1 0.12499885261058807 0.07216644287109375 A 79.00334930419922 79.00334930419922 150.0 0 1 0.0 -0.14433670043945312 A 79.00334930419922 79.00334167480469 29.999990463256836 0 1 -0.12499237060546875 0.07216644287109375 Z" style="vector-effect: non-scaling-stroke;" /></g></g></g></g></g></g></g></g></g><g transform="matrix(1.0, 0.0, 0.0, 1.0, 0.0, 1.15472412109375)"><g transform="matrix(1.0, 0.0, 0.0, 1.0, -0.5000023245811462, -0.2886810302734375)"><g><g style="fill: #ff9700;stroke: black;stroke-width: 0.885;" transform="matrix(1.0, 0.0, 0.0, 1.0, 0.0, 0.0)"><path d="M -0.12499769777059555 0.07216771692037582 A 79.00334930419922 79.00334930419922 -90.0 0 1 0.12499885261058807 0.07216644287109375 A 79.00334930419922 79.00334930419922 150.0 0 1 0.0 -0.14433670043945312 A 79.00334930419922 79.00334167480469 29.999990463256836 0 1 -0.12499237060546875 0.07216644287109375 Z" style="vector-effect: non-scaling-stroke;" /></g><g transform="matrix(1.0, 0.0, 0.0, 1.0, 0.0, 0.18042564392089844)"><g transform="matrix(1.0, 0.0, 0.0, 1.0, -0.125, 0.03608512878417969)"><g><g style="fill: #ff9700;stroke: black;stroke-width: 0.885;" transform="matrix(1.0, 0.0, 0.0, 1.0, 0.0, 0.0)"><path d="M -0.12499769777059555 0.07216771692037582 A 79.00334930419922 79.00334930419922 -90.0 0 1 0.12499885261058807 0.07216644287109375 A 79.00334930419922 79.00334930419922 150.0 0 1 0.0 -0.14433670043945312 A 79.00334930419922 79.00334167480469 29.999990463256836 0 1 -0.12499237060546875 0.07216644287109375 Z" style="vector-effect: non-scaling-stroke;" /></g><g style="fill: #ff9700;stroke: black;stroke-width: 0.885;" transform="matrix(1.0, 0.0, 0.0, 1.0, 0.2500011622905731, 0.0)"><path d="M -0.12499769777059555 0.07216771692037582 A 79.00334930419922 79.00334930419922 -90.0 0 1 0.12499885261058807 0.07216644287109375 A 79.00334930419922 79.00334930419922 150.0 0 1 0.0 -0.14433670043945312 A 79.00334930419922 79.00334167480469 29.999990463256836 0 1 -0.12499237060546875 0.07216644287109375 Z" style="vector-effect: non-scaling-stroke;" /></g></g></g></g><g transform="matrix(1.0, 0.0, 0.0, 1.0, 0.0, 0.5051918029785156)"><g transform="matrix(1.0, 0.0, 0.0, 1.0, -0.25000113248825073, -0.07217025756835938)"><g><g style="fill: #ff9700;stroke: black;stroke-width: 0.885;" transform="matrix(1.0, 0.0, 0.0, 1.0, 0.0, 0.0)"><path d="M -0.12499769777059555 0.07216771692037582 A 79.00334930419922 79.00334930419922 -90.0 0 1 0.12499885261058807 0.07216644287109375 A 79.00334930419922 79.00334930419922 150.0 0 1 0.0 -0.14433670043945312 A 79.00334930419922 79.00334167480469 29.999990463256836 0 1 -0.12499237060546875 0.07216644287109375 Z" style="vector-effect: non-scaling-stroke;" /></g><g transform="matrix(1.0, 0.0, 0.0, 1.0, 0.0, 0.18042564392089844)"><g transform="matrix(1.0, 0.0, 0.0, 1.0, -0.125, 0.03608512878417969)"><g><g style="fill: #ff9700;stroke: black;stroke-width: 0.885;" transform="matrix(1.0, 0.0, 0.0, 1.0, 0.0, 0.0)"><path d="M -0.12499769777059555 0.07216771692037582 A 79.00334930419922 79.00334930419922 -90.0 0 1 0.12499885261058807 0.07216644287109375 A 79.00334930419922 79.00334930419922 150.0 0 1 0.0 -0.14433670043945312 A 79.00334930419922 79.00334167480469 29.999990463256836 0 1 -0.12499237060546875 0.07216644287109375 Z" style="vector-effect: non-scaling-stroke;" /></g><g style="fill: #ff9700;stroke: black;stroke-width: 0.885;" transform="matrix(1.0, 0.0, 0.0, 1.0, 0.2500011622905731, 0.0)"><path d="M -0.12499769777059555 0.07216771692037582 A 79.00334930419922 79.00334930419922 -90.0 0 1 0.12499885261058807 0.07216644287109375 A 79.00334930419922 79.00334930419922 150.0 0 1 0.0 -0.14433670043945312 A 79.00334930419922 79.00334167480469 29.999990463256836 0 1 -0.12499237060546875 0.07216644287109375 Z" style="vector-effect: non-scaling-stroke;" /></g></g></g></g><g transform="matrix(1.0, 0.0, 0.0, 1.0, 0.5000023245811462, 0.0)"><g><g style="fill: #ff9700;stroke: black;stroke-width: 0.885;" transform="matrix(1.0, 0.0, 0.0, 1.0, 0.0, 0.0)"><path d="M -0.12499769777059555 0.07216771692037582 A 79.00334930419922 79.00334930419922 -90.0 0 1 0.12499885261058807 0.07216644287109375 A 79.00334930419922 79.00334930419922 150.0 0 1 0.0 -0.14433670043945312 A 79.00334930419922 79.00334167480469 29.999990463256836 0 1 -0.12499237060546875 0.07216644287109375 Z" style="vector-effect: non-scaling-stroke;" /></g><g transform="matrix(1.0, 0.0, 0.0, 1.0, 0.0, 0.18042564392089844)"><g transform="matrix(1.0, 0.0, 0.0, 1.0, -0.125, 0.03608512878417969)"><g><g style="fill: #ff9700;stroke: black;stroke-width: 0.885;" transform="matrix(1.0, 0.0, 0.0, 1.0, 0.0, 0.0)"><path d="M -0.12499769777059555 0.07216771692037582 A 79.00334930419922 79.00334930419922 -90.0 0 1 0.12499885261058807 0.07216644287109375 A 79.00334930419922 79.00334930419922 150.0 0 1 0.0 -0.14433670043945312 A 79.00334930419922 79.00334167480469 29.999990463256836 0 1 -0.12499237060546875 0.07216644287109375 Z" style="vector-effect: non-scaling-stroke;" /></g><g style="fill: #ff9700;stroke: black;stroke-width: 0.885;" transform="matrix(1.0, 0.0, 0.0, 1.0, 0.2500011622905731, 0.0)"><path d="M -0.12499769777059555 0.07216771692037582 A 79.00334930419922 79.00334930419922 -90.0 0 1 0.12499885261058807 0.07216644287109375 A 79.00334930419922 79.00334930419922 150.0 0 1 0.0 -0.14433670043945312 A 79.00334930419922 79.00334167480469 29.999990463256836 0 1 -0.12499237060546875 0.07216644287109375 Z" style="vector-effect: non-scaling-stroke;" /></g></g></g></g></g></g></g></g></g><g transform="matrix(1.0, 0.0, 0.0, 1.0, 1.000004529953003, 0.0)"><g><g style="fill: #ff9700;stroke: black;stroke-width: 0.885;" transform="matrix(1.0, 0.0, 0.0, 1.0, 0.0, 0.0)"><path d="M -0.12499769777059555 0.07216771692037582 A 79.00334930419922 79.00334930419922 -90.0 0 1 0.12499885261058807 0.07216644287109375 A 79.00334930419922 79.00334930419922 150.0 0 1 0.0 -0.14433670043945312 A 79.00334930419922 79.00334167480469 29.999990463256836 0 1 -0.12499237060546875 0.07216644287109375 Z" style="vector-effect: non-scaling-stroke;" /></g><g transform="matrix(1.0, 0.0, 0.0, 1.0, 0.0, 0.18042564392089844)"><g transform="matrix(1.0, 0.0, 0.0, 1.0, -0.125, 0.03608512878417969)"><g><g style="fill: #ff9700;stroke: black;stroke-width: 0.885;" transform="matrix(1.0, 0.0, 0.0, 1.0, 0.0, 0.0)"><path d="M -0.12499769777059555 0.07216771692037582 A 79.00334930419922 79.00334930419922 -90.0 0 1 0.12499885261058807 0.07216644287109375 A 79.00334930419922 79.00334930419922 150.0 0 1 0.0 -0.14433670043945312 A 79.00334930419922 79.00334167480469 29.999990463256836 0 1 -0.12499237060546875 0.07216644287109375 Z" style="vector-effect: non-scaling-stroke;" /></g><g style="fill: #ff9700;stroke: black;stroke-width: 0.885;" transform="matrix(1.0, 0.0, 0.0, 1.0, 0.2500011622905731, 0.0)"><path d="M -0.12499769777059555 0.07216771692037582 A 79.00334930419922 79.00334930419922 -90.0 0 1 0.12499885261058807 0.07216644287109375 A 79.00334930419922 79.00334930419922 150.0 0 1 0.0 -0.14433670043945312 A 79.00334930419922 79.00334167480469 29.999990463256836 0 1 -0.12499237060546875 0.07216644287109375 Z" style="vector-effect: non-scaling-stroke;" /></g></g></g></g><g transform="matrix(1.0, 0.0, 0.0, 1.0, 0.0, 0.5051918029785156)"><g transform="matrix(1.0, 0.0, 0.0, 1.0, -0.25000113248825073, -0.07217025756835938)"><g><g style="fill: #ff9700;stroke: black;stroke-width: 0.885;" transform="matrix(1.0, 0.0, 0.0, 1.0, 0.0, 0.0)"><path d="M -0.12499769777059555 0.07216771692037582 A 79.00334930419922 79.00334930419922 -90.0 0 1 0.12499885261058807 0.07216644287109375 A 79.00334930419922 79.00334930419922 150.0 0 1 0.0 -0.14433670043945312 A 79.00334930419922 79.00334167480469 29.999990463256836 0 1 -0.12499237060546875 0.07216644287109375 Z" style="vector-effect: non-scaling-stroke;" /></g><g transform="matrix(1.0, 0.0, 0.0, 1.0, 0.0, 0.18042564392089844)"><g transform="matrix(1.0, 0.0, 0.0, 1.0, -0.125, 0.03608512878417969)"><g><g style="fill: #ff9700;stroke: black;stroke-width: 0.885;" transform="matrix(1.0, 0.0, 0.0, 1.0, 0.0, 0.0)"><path d="M -0.12499769777059555 0.07216771692037582 A 79.00334930419922 79.00334930419922 -90.0 0 1 0.12499885261058807 0.07216644287109375 A 79.00334930419922 79.00334930419922 150.0 0 1 0.0 -0.14433670043945312 A 79.00334930419922 79.00334167480469 29.999990463256836 0 1 -0.12499237060546875 0.07216644287109375 Z" style="vector-effect: non-scaling-stroke;" /></g><g style="fill: #ff9700;stroke: black;stroke-width: 0.885;" transform="matrix(1.0, 0.0, 0.0, 1.0, 0.2500011622905731, 0.0)"><path d="M -0.12499769777059555 0.07216771692037582 A 79.00334930419922 79.00334930419922 -90.0 0 1 0.12499885261058807 0.07216644287109375 A 79.00334930419922 79.00334930419922 150.0 0 1 0.0 -0.14433670043945312 A 79.00334930419922 79.00334167480469 29.999990463256836 0 1 -0.12499237060546875 0.07216644287109375 Z" style="vector-effect: non-scaling-stroke;" /></g></g></g></g><g transform="matrix(1.0, 0.0, 0.0, 1.0, 0.5000023245811462, 0.0)"><g><g style="fill: #ff9700;stroke: black;stroke-width: 0.885;" transform="matrix(1.0, 0.0, 0.0, 1.0, 0.0, 0.0)"><path d="M -0.12499769777059555 0.07216771692037582 A 79.00334930419922 79.00334930419922 -90.0 0 1 0.12499885261058807 0.07216644287109375 A 79.00334930419922 79.00334930419922 150.0 0 1 0.0 -0.14433670043945312 A 79.00334930419922 79.00334167480469 29.999990463256836 0 1 -0.12499237060546875 0.07216644287109375 Z" style="vector-effect: non-scaling-stroke;" /></g><g transform="matrix(1.0, 0.0, 0.0, 1.0, 0.0, 0.18042564392089844)"><g transform="matrix(1.0, 0.0, 0.0, 1.0, -0.125, 0.03608512878417969)"><g><g style="fill: #ff9700;stroke: black;stroke-width: 0.885;" transform="matrix(1.0, 0.0, 0.0, 1.0, 0.0, 0.0)"><path d="M -0.12499769777059555 0.07216771692037582 A 79.00334930419922 79.00334930419922 -90.0 0 1 0.12499885261058807 0.07216644287109375 A 79.00334930419922 79.00334930419922 150.0 0 1 0.0 -0.14433670043945312 A 79.00334930419922 79.00334167480469 29.999990463256836 0 1 -0.12499237060546875 0.07216644287109375 Z" style="vector-effect: non-scaling-stroke;" /></g><g style="fill: #ff9700;stroke: black;stroke-width: 0.885;" transform="matrix(1.0, 0.0, 0.0, 1.0, 0.2500011622905731, 0.0)"><path d="M -0.12499769777059555 0.07216771692037582 A 79.00334930419922 79.00334930419922 -90.0 0 1 0.12499885261058807 0.07216644287109375 A 79.00334930419922 79.00334930419922 150.0 0 1 0.0 -0.14433670043945312 A 79.00334930419922 79.00334167480469 29.999990463256836 0 1 -0.12499237060546875 0.07216644287109375 Z" style="vector-effect: non-scaling-stroke;" /></g></g></g></g></g></g></g></g></g></g></g></g></g></g></g></g></g></g></g></g></g><g /></g></g></g></g></svg>