<?xml version="1.0" encoding="utf-8" ?>
<svg baseProfile="full" height="64" version="1.1" width="127" xmlns="http://www.w3.org/2000/svg" xmlns:ev="http://www.w3.org/2001/xml-events" xmlns:xlink="http://www.w3.org/1999/xlink"><defs><marker id="arrow" markerHeight="3.5" markerWidth="5" orient="auto" refX="5.0" refY="1.7"><polygon points="0,0 5,1.75 0,3.5" /></marker></defs><g style="fill:white;"><g transform="matrix(1.0, 0.0, 0.0, 1.0, 63.997982025146484, 32.0)"><g transform="matrix(60.94853591918945, 0.0, 0.0, 60.94853591918945, 0.0, 0.0)"><g><g transform="matrix(1.0, 0.0, 0.0, 1.0, -0.500031590461731, -0.0)"><g><g style="fill: #ff9700;stroke: black;stroke-width: 0.381;" transform="matrix(0.5, 0.0, 0.0, 0.5, 0.5, 0.0)"><path d="M 0.0 0.0 A 1.0 1.0 0.0 0 0 -1.0 -1.0 A 1.0 1.0 -90.0 0 0 -2.0 8.742277657347586e-08 A 1.0 1.0 179.99998474121094 0 0 -0.9999998807907104 1.0 A 1.0 1.0 90.0 0 0 0.0 -5.563627070159782e-08 Z" style="vector-effect: non-scaling-stroke;" /></g><g style="fill: #005fdb;stroke: black;stroke-width: 0.381;" transform="matrix(1.0, 0.0, 0.0, 1.0, 0.5000631809234619, -0.49996834993362427)"><path d="M 0.0 0.0 A 1448.1546630859375 1448.1546630859375 -90.0 0 1 0.9999366998672485 0.0 A 1448.1546630859375 1448.1546630859375 0.0 0 1 0.9998779296875 0.9999366998672485 A 1448.1546630859375 1448.1546630859375 89.99999237060547 0 1 2.9802322387695312e-08 0.9998779296875 A 1448.1546630859375 1448.1546630859375 179.99998474121094 0 1 0.0 2.9802322387695312e-08 Z" style="vector-effect: non-scaling-stroke;" /></g></g></g><g /></g></g></g></g></svg>