<?xml version="1.0" encoding="utf-8" ?>
<svg baseProfile="full" height="100%" version="1.1" width="100%" xmlns="http://www.w3.org/2000/svg" xmlns:ev="http://www.w3.org/2001/xml-events" xmlns:xlink="http://www.w3.org/1999/xlink"><defs><marker id="arrow" markerHeight="3.5" markerWidth="5" orient="auto" refX="5.0" refY="1.7"><polygon points="0,0 5,1.75 0,3.5" /></marker></defs><g style="fill:white; stroke: black; stroke-width: 0.01;" transform="scale(14.0 14.0) translate(9.473968505859375 0.7977539062500001)"><g><g><g style="fill: #000000;"><g style=";" transform="scale(1)"><text style="text-align:center; dominant-baseline:middle; font-family:sans-serif; font-weight: bold; font-size:1px" transform="translate(-1.556884765625, 0)">model</text></g></g><g transform="translate(0 1.26416015625)"><g style="stroke-width: 0;"><g style=";" transform="scale(1)"><polyline points="0,-1.25 0,1.25" /></g></g></g></g><g transform="translate(0 7.51416015625)"><g transform="translate(-4.1228271484375 -5.0)"><g><g><g><g><g><g transform="translate(0 0.5)"><g><g><g transform="translate(-1.0999999999999999 -0.0)"><g><g><g><g style="fill: #ff9700;"><g style=";" transform="scale(1)"><rect height="1" rx="0.1" ry="0.1" width="1.2" x="-0.6" y="-0.5" /></g></g><g style="fill: #000000;"><g style=";" transform="scale(1)"><text style="text-align:center; dominant-baseline:middle; font-family:sans-serif; font-weight: bold; font-size:0.5px" transform="translate(-0.3177490234375, 0)">p1</text></g></g></g><g transform="translate(0.7 0)"><g style="stroke-width: 0;"><g style=";" transform="scale(1)"><polyline points="-0.1,0 0.1,0" /></g></g></g></g><g transform="translate(1.7999999999999998 0)"><g><g style="stroke-width: 0.1;"><g style="fill: #bbbbbb;"><g style=";" transform="scale(1)"><rect height="1" width="2" x="-1.0" y="-0.5" /></g></g></g></g></g></g></g><g transform="translate(0 1.75)"><g style="stroke-width: 0;"><g style=";" transform="scale(1)"><polyline points="0,-1.25 0,1.25" /></g></g></g></g><g transform="translate(0 5.25)"><g transform="translate(-3.2 -1.75)"><g><g><g transform="translate(-1.0999999999999999 -0.0)"><g><g><g><g style="fill: #005fdb;"><g style=";" transform="scale(1)"><rect height="1" rx="0.1" ry="0.1" width="1.2" x="-0.6" y="-0.5" /></g></g><g style="fill: #000000;"><g style=";" transform="scale(1)"><text style="text-align:center; dominant-baseline:middle; font-family:sans-serif; font-weight: bold; font-size:0.5px" transform="translate(-0.3177490234375, 0)">p2</text></g></g></g><g transform="translate(0.7 0)"><g style="stroke-width: 0;"><g style=";" transform="scale(1)"><polyline points="-0.1,0 0.1,0" /></g></g></g></g><g transform="translate(1.7999999999999998 0)"><g><g style="stroke-width: 0.1;"><g style="fill: #bbbbbb;"><g style=";" transform="scale(1)"><rect height="1" width="2" x="-1.0" y="-0.5" /></g></g></g></g></g></g></g><g transform="translate(3.2 0)"><g style="stroke-width: 0;"><g style=";" transform="scale(1)"><polyline points="-1.5,0 1.5,0" /></g></g></g></g><g transform="translate(6.4 0)"><g><g><g transform="translate(-1.0999999999999999 -0.0)"><g><g><g><g style="fill: #ffffff;"><g style=";" transform="scale(1)"><rect height="1" rx="0.1" ry="0.1" width="1.2" x="-0.6" y="-0.5" /></g></g><g style="fill: #000000;"><g style=";" transform="scale(1)"><text style="text-align:center; dominant-baseline:middle; font-family:sans-serif; font-weight: bold; font-size:0.5px" transform="translate(-0.0, 0)" /></g></g></g><g transform="translate(0.7 0)"><g style="stroke-width: 0;"><g style=";" transform="scale(1)"><polyline points="-0.1,0 0.1,0" /></g></g></g></g><g transform="translate(1.7999999999999998 0)"><g><g style="stroke-width: 0.1;"><g style="fill: #bbbbbb;"><g style=";" transform="scale(1)"><rect height="1" width="2" x="-1.0" y="-0.5" /></g></g></g></g></g></g></g><g transform="translate(0 1.75)"><g style="stroke-width: 0;"><g style=";" transform="scale(1)"><polyline points="0,-1.25 0,1.25" /></g></g></g></g><g transform="translate(0 3.5)"><g transform="translate(-1.0999999999999999 -0.0)"><g><g><g><g style="fill: #708238;"><g style=";" transform="scale(1)"><rect height="1" rx="0.1" ry="0.1" width="1.2" x="-0.6" y="-0.5" /></g></g><g style="fill: #000000;"><g style=";" transform="scale(1)"><text style="text-align:center; dominant-baseline:middle; font-family:sans-serif; font-weight: bold; font-size:0.5px" transform="translate(-0.3177490234375, 0)">p3</text></g></g></g><g transform="translate(0.7 0)"><g style="stroke-width: 0;"><g style=";" transform="scale(1)"><polyline points="-0.1,0 0.1,0" /></g></g></g></g><g transform="translate(1.7999999999999998 0)"><g><g style="stroke-width: 0.1;"><g style="fill: #bbbbbb;"><g style=";" transform="scale(1)"><rect height="1" width="2" x="-1.0" y="-0.5" /></g></g></g></g></g></g></g></g></g></g></g></g></g></g></g><g transform="translate(6.1499999999999995 0)"><g style="stroke-width: 0;"><g style=";" transform="scale(1)"><polyline points="-1.25,0 1.25,0" /></g></g></g></g><g transform="translate(10.2728271484375 0)"><g transform="translate(0 5.0)"><g><g style=";" transform="scale(1)"><rect height="10.0" rx="1.0" ry="1.0" width="5.745654296875" x="-2.8728271484375" y="-5.0" /></g><g transform="translate(-0.0 -0.0)"><g transform="translate(1.8728271484375 -3.5)"><g><g><g><g><g transform="translate(-2.608935546875 0)"><g><g><g style="fill: #000000;"><g style=";" transform="scale(1)"><text style="text-align:center; dominant-baseline:middle; font-family:sans-serif; font-weight: bold; font-size:0.5px" transform="translate(-0.3177490234375, 0)">p1</text></g></g><g transform="translate(0.508935546875 0)"><g style="stroke-width: 0;"><g style=";" transform="scale(1)"><polyline points="-0.1,0 0.1,0" /></g></g></g></g><g transform="translate(1.608935546875 0)"><g><g style="stroke-width: 0.1;"><g style="fill: #ff9700;"><g style=";" transform="scale(1)"><rect height="1" rx="0.3" ry="0.3" width="2" x="-1.0" y="-0.5" /></g></g></g></g></g></g></g><g transform="translate(0 1.75)"><g style="stroke-width: 0;"><g style=";" transform="scale(1)"><polyline points="0,-1.25 0,1.25" /></g></g></g></g><g transform="translate(0 3.5)"><g transform="translate(-2.8204833984375 0)"><g><g><g style="fill: #000000;"><g style=";" transform="scale(1)"><text style="text-align:center; dominant-baseline:middle; font-family:sans-serif; font-weight: bold; font-size:0.5px" transform="translate(-0.5504150390625, 0)">a.p2</text></g></g><g transform="translate(0.7204833984375 0)"><g style="stroke-width: 0;"><g style=";" transform="scale(1)"><polyline points="-0.1,0 0.1,0" /></g></g></g></g><g transform="translate(1.8204833984375 0)"><g><g style="stroke-width: 0.1;"><g style="fill: #005fdb;"><g style=";" transform="scale(1)"><rect height="1" rx="0.3" ry="0.3" width="2" x="-1.0" y="-0.5" /></g></g></g></g></g></g></g></g></g><g transform="translate(0 5.25)"><g style="stroke-width: 0;"><g style=";" transform="scale(1)"><polyline points="0,-1.25 0,1.25" /></g></g></g></g><g transform="translate(0 7.0)"><g transform="translate(-3.0609619140625 0)"><g><g><g style="fill: #000000;"><g style=";" transform="scale(1)"><text style="text-align:center; dominant-baseline:middle; font-family:sans-serif; font-weight: bold; font-size:0.5px" transform="translate(-0.7728271484375, 0)">b.c.p3</text></g></g><g transform="translate(0.9609619140625 0)"><g style="stroke-width: 0;"><g style=";" transform="scale(1)"><polyline points="-0.1,0 0.1,0" /></g></g></g></g><g transform="translate(2.0609619140625 0)"><g><g style="stroke-width: 0.1;"><g style="fill: #708238;"><g style=";" transform="scale(1)"><rect height="1" rx="0.3" ry="0.3" width="2" x="-1.0" y="-0.5" /></g></g></g></g></g></g></g></g></g></g></g></g></g></g></g><g><g style="stroke-width: 0.1;"><g style=";" transform="scale(1)"><polyline points="0.7,1.0 -2.5,3.5" /></g></g><g transform="translate(-0.9 2.25)"><g><g style="stroke: #ffffff;"><g style="fill: #ffffff;"><g style=";" transform="scale(1)"><circle cx="0" cy="0" r="0.5" /></g></g></g><g style="fill: #000000;"><g style=";" transform="scale(1)"><text style="text-align:center; dominant-baseline:middle; font-family:sans-serif; font-weight: bold; font-size:0.5px" transform="translate(-0.1531982421875, 0)">a</text></g></g></g></g></g></g><g><g style="stroke-width: 0.1;"><g style=";" transform="scale(1)"><polyline points="0.7,1.0 3.9000000000000004,3.5" /></g></g><g transform="translate(2.3000000000000003 2.25)"><g><g style="stroke: #ffffff;"><g style="fill: #ffffff;"><g style=";" transform="scale(1)"><circle cx="0" cy="0" r="0.5" /></g></g></g><g style="fill: #000000;"><g style=";" transform="scale(1)"><text style="text-align:center; dominant-baseline:middle; font-family:sans-serif; font-weight: bold; font-size:0.5px" transform="translate(-0.15869140625, 0)">b</text></g></g></g></g></g></g><g><g style="stroke-width: 0.1;"><g style=";" transform="scale(1)"><polyline points="3.9000000000000004,4.5 3.9000000000000004,7.0" /></g></g><g transform="translate(3.9000000000000004 5.75)"><g><g style="stroke: #ffffff;"><g style="fill: #ffffff;"><g style=";" transform="scale(1)"><circle cx="0" cy="0" r="0.5" /></g></g></g><g style="fill: #000000;"><g style=";" transform="scale(1)"><text style="text-align:center; dominant-baseline:middle; font-family:sans-serif; font-weight: bold; font-size:0.5px" transform="translate(-0.137451171875, 0)">c</text></g></g></g></g></g></g></g></g></g></g></svg>