<?xml version="1.0" encoding="utf-8" ?>
<svg baseProfile="full" height="256" version="1.1" width="295" xmlns="http://www.w3.org/2000/svg" xmlns:ev="http://www.w3.org/2001/xml-events" xmlns:xlink="http://www.w3.org/1999/xlink"><defs><marker id="arrow" markerHeight="3.5" markerWidth="5" orient="auto" refX="5.0" refY="1.7"><polygon points="0,0 5,1.75 0,3.5" /></marker></defs><g style="fill:white;"><g transform="matrix(17.595436775302108, 0.0, 0.0, 17.595436775302108, 140.7634942024169, 10.158730158729782)"><g><g><g><g><g style="fill: #ff9700;stroke: black;stroke-width: 0.885;" transform="matrix(1.0, 0.0, 0.0, 1.0, 0.0, 0.0)"><path d="M -0.5000000000000003 0.2886751345948208 L 0.5000000000000073 0.2886751345948113 L 0.0 -0.5773502691896297 L -0.4999999999999858 0.2886751345948255 Z" style="vector-effect: non-scaling-stroke;" /></g><g transform="matrix(1.0, 0.0, 0.0, 1.0, -0.5000000000000073, 0.8660254037844766)"><g><g style="fill: #ff9700;stroke: black;stroke-width: 0.885;" transform="matrix(1.0, 0.0, 0.0, 1.0, 0.0, 0.0)"><path d="M -0.5000000000000003 0.2886751345948208 L 0.5000000000000073 0.2886751345948113 L 0.0 -0.5773502691896297 L -0.4999999999999858 0.2886751345948255 Z" style="vector-effect: non-scaling-stroke;" /></g><g style="fill: #ff9700;stroke: black;stroke-width: 0.885;" transform="matrix(1.0, 0.0, 0.0, 1.0, 1.0, 0.0)"><path d="M -0.5000000000000003 0.2886751345948208 L 0.5000000000000073 0.2886751345948113 L 0.0 -0.5773502691896297 L -0.4999999999999858 0.2886751345948255 Z" style="vector-effect: non-scaling-stroke;" /></g></g></g></g><g transform="matrix(1.0, 0.0, 0.0, 1.0, -1.0, 1.7320508075689531)"><g><g><g style="fill: #ff9700;stroke: black;stroke-width: 0.885;" transform="matrix(1.0, 0.0, 0.0, 1.0, 0.0, 0.0)"><path d="M -0.5000000000000003 0.2886751345948208 L 0.5000000000000073 0.2886751345948113 L 0.0 -0.5773502691896297 L -0.4999999999999858 0.2886751345948255 Z" style="vector-effect: non-scaling-stroke;" /></g><g transform="matrix(1.0, 0.0, 0.0, 1.0, -0.5000000000000073, 0.8660254037844766)"><g><g style="fill: #ff9700;stroke: black;stroke-width: 0.885;" transform="matrix(1.0, 0.0, 0.0, 1.0, 0.0, 0.0)"><path d="M -0.5000000000000003 0.2886751345948208 L 0.5000000000000073 0.2886751345948113 L 0.0 -0.5773502691896297 L -0.4999999999999858 0.2886751345948255 Z" style="vector-effect: non-scaling-stroke;" /></g><g style="fill: #ff9700;stroke: black;stroke-width: 0.885;" transform="matrix(1.0, 0.0, 0.0, 1.0, 1.0, 0.0)"><path d="M -0.5000000000000003 0.2886751345948208 L 0.5000000000000073 0.2886751345948113 L 0.0 -0.5773502691896297 L -0.4999999999999858 0.2886751345948255 Z" style="vector-effect: non-scaling-stroke;" /></g></g></g></g><g transform="matrix(1.0, 0.0, 0.0, 1.0, 2.0, 0.0)"><g><g style="fill: #ff9700;stroke: black;stroke-width: 0.885;" transform="matrix(1.0, 0.0, 0.0, 1.0, 0.0, 0.0)"><path d="M -0.5000000000000003 0.2886751345948208 L 0.5000000000000073 0.2886751345948113 L 0.0 -0.5773502691896297 L -0.4999999999999858 0.2886751345948255 Z" style="vector-effect: non-scaling-stroke;" /></g><g transform="matrix(1.0, 0.0, 0.0, 1.0, -0.5000000000000073, 0.8660254037844766)"><g><g style="fill: #ff9700;stroke: black;stroke-width: 0.885;" transform="matrix(1.0, 0.0, 0.0, 1.0, 0.0, 0.0)"><path d="M -0.5000000000000003 0.2886751345948208 L 0.5000000000000073 0.2886751345948113 L 0.0 -0.5773502691896297 L -0.4999999999999858 0.2886751345948255 Z" style="vector-effect: non-scaling-stroke;" /></g><g style="fill: #ff9700;stroke: black;stroke-width: 0.885;" transform="matrix(1.0, 0.0, 0.0, 1.0, 1.0, 0.0)"><path d="M -0.5000000000000003 0.2886751345948208 L 0.5000000000000073 0.2886751345948113 L 0.0 -0.5773502691896297 L -0.4999999999999858 0.2886751345948255 Z" style="vector-effect: non-scaling-stroke;" /></g></g></g></g></g></g></g></g><g transform="matrix(1.0, 0.0, 0.0, 1.0, -2.0, 3.4641016151379063)"><g><g><g><g style="fill: #ff9700;stroke: black;stroke-width: 0.885;" transform="matrix(1.0, 0.0, 0.0, 1.0, 0.0, 0.0)"><path d="M -0.5000000000000003 0.2886751345948208 L 0.5000000000000073 0.2886751345948113 L 0.0 -0.5773502691896297 L -0.4999999999999858 0.2886751345948255 Z" style="vector-effect: non-scaling-stroke;" /></g><g transform="matrix(1.0, 0.0, 0.0, 1.0, -0.5000000000000073, 0.8660254037844766)"><g><g style="fill: #ff9700;stroke: black;stroke-width: 0.885;" transform="matrix(1.0, 0.0, 0.0, 1.0, 0.0, 0.0)"><path d="M -0.5000000000000003 0.2886751345948208 L 0.5000000000000073 0.2886751345948113 L 0.0 -0.5773502691896297 L -0.4999999999999858 0.2886751345948255 Z" style="vector-effect: non-scaling-stroke;" /></g><g style="fill: #ff9700;stroke: black;stroke-width: 0.885;" transform="matrix(1.0, 0.0, 0.0, 1.0, 1.0, 0.0)"><path d="M -0.5000000000000003 0.2886751345948208 L 0.5000000000000073 0.2886751345948113 L 0.0 -0.5773502691896297 L -0.4999999999999858 0.2886751345948255 Z" style="vector-effect: non-scaling-stroke;" /></g></g></g></g><g transform="matrix(1.0, 0.0, 0.0, 1.0, -1.0, 1.7320508075689531)"><g><g><g style="fill: #ff9700;stroke: black;stroke-width: 0.885;" transform="matrix(1.0, 0.0, 0.0, 1.0, 0.0, 0.0)"><path d="M -0.5000000000000003 0.2886751345948208 L 0.5000000000000073 0.2886751345948113 L 0.0 -0.5773502691896297 L -0.4999999999999858 0.2886751345948255 Z" style="vector-effect: non-scaling-stroke;" /></g><g transform="matrix(1.0, 0.0, 0.0, 1.0, -0.5000000000000073, 0.8660254037844766)"><g><g style="fill: #ff9700;stroke: black;stroke-width: 0.885;" transform="matrix(1.0, 0.0, 0.0, 1.0, 0.0, 0.0)"><path d="M -0.5000000000000003 0.2886751345948208 L 0.5000000000000073 0.2886751345948113 L 0.0 -0.5773502691896297 L -0.4999999999999858 0.2886751345948255 Z" style="vector-effect: non-scaling-stroke;" /></g><g style="fill: #ff9700;stroke: black;stroke-width: 0.885;" transform="matrix(1.0, 0.0, 0.0, 1.0, 1.0, 0.0)"><path d="M -0.5000000000000003 0.2886751345948208 L 0.5000000000000073 0.2886751345948113 L 0.0 -0.5773502691896297 L -0.4999999999999858 0.2886751345948255 Z" style="vector-effect: non-scaling-stroke;" /></g></g></g></g><g transform="matrix(1.0, 0.0, 0.0, 1.0, 2.0, 0.0)"><g><g style="fill: #ff9700;stroke: black;stroke-width: 0.885;" transform="matrix(1.0, 0.0, 0.0, 1.0, 0.0, 0.0)"><path d="M -0.5000000000000003 0.2886751345948208 L 0.5000000000000073 0.2886751345948113 L 0.0 -0.5773502691896297 L -0.4999999999999858 0.2886751345948255 Z" style="vector-effect: non-scaling-stroke;" /></g><g transform="matrix(1.0, 0.0, 0.0, 1.0, -0.5000000000000073, 0.8660254037844766)"><g><g style="fill: #ff9700;stroke: black;stroke-width: 0.885;" transform="matrix(1.0, 0.0, 0.0, 1.0, 0.0, 0.0)"><path d="M -0.5000000000000003 0.2886751345948208 L 0.5000000000000073 0.2886751345948113 L 0.0 -0.5773502691896297 L -0.4999999999999858 0.2886751345948255 Z" style="vector-effect: non-scaling-stroke;" /></g><g style="fill: #ff9700;stroke: black;stroke-width: 0.885;" transform="matrix(1.0, 0.0, 0.0, 1.0, 1.0, 0.0)"><path d="M -0.5000000000000003 0.2886751345948208 L 0.5000000000000073 0.2886751345948113 L 0.0 -0.5773502691896297 L -0.4999999999999858 0.2886751345948255 Z" style="vector-effect: non-scaling-stroke;" /></g></g></g></g></g></g></g></g><g transform="matrix(1.0, 0.0, 0.0, 1.0, 4.0, 0.0)"><g><g><g style="fill: #ff9700;stroke: black;stroke-width: 0.885;" transform="matrix(1.0, 0.0, 0.0, 1.0, 0.0, 0.0)"><path d="M -0.5000000000000003 0.2886751345948208 L 0.5000000000000073 0.2886751345948113 L 0.0 -0.5773502691896297 L -0.4999999999999858 0.2886751345948255 Z" style="vector-effect: non-scaling-stroke;" /></g><g transform="matrix(1.0, 0.0, 0.0, 1.0, -0.5000000000000073, 0.8660254037844766)"><g><g style="fill: #ff9700;stroke: black;stroke-width: 0.885;" transform="matrix(1.0, 0.0, 0.0, 1.0, 0.0, 0.0)"><path d="M -0.5000000000000003 0.2886751345948208 L 0.5000000000000073 0.2886751345948113 L 0.0 -0.5773502691896297 L -0.4999999999999858 0.2886751345948255 Z" style="vector-effect: non-scaling-stroke;" /></g><g style="fill: #ff9700;stroke: black;stroke-width: 0.885;" transform="matrix(1.0, 0.0, 0.0, 1.0, 1.0, 0.0)"><path d="M -0.5000000000000003 0.2886751345948208 L 0.5000000000000073 0.2886751345948113 L 0.0 -0.5773502691896297 L -0.4999999999999858 0.2886751345948255 Z" style="vector-effect: non-scaling-stroke;" /></g></g></g></g><g transform="matrix(1.0, 0.0, 0.0, 1.0, -1.0, 1.7320508075689531)"><g><g><g style="fill: #ff9700;stroke: black;stroke-width: 0.885;" transform="matrix(1.0, 0.0, 0.0, 1.0, 0.0, 0.0)"><path d="M -0.5000000000000003 0.2886751345948208 L 0.5000000000000073 0.2886751345948113 L 0.0 -0.5773502691896297 L -0.4999999999999858 0.2886751345948255 Z" style="vector-effect: non-scaling-stroke;" /></g><g transform="matrix(1.0, 0.0, 0.0, 1.0, -0.5000000000000073, 0.8660254037844766)"><g><g style="fill: #ff9700;stroke: black;stroke-width: 0.885;" transform="matrix(1.0, 0.0, 0.0, 1.0, 0.0, 0.0)"><path d="M -0.5000000000000003 0.2886751345948208 L 0.5000000000000073 0.2886751345948113 L 0.0 -0.5773502691896297 L -0.4999999999999858 0.2886751345948255 Z" style="vector-effect: non-scaling-stroke;" /></g><g style="fill: #ff9700;stroke: black;stroke-width: 0.885;" transform="matrix(1.0, 0.0, 0.0, 1.0, 1.0, 0.0)"><path d="M -0.5000000000000003 0.2886751345948208 L 0.5000000000000073 0.2886751345948113 L 0.0 -0.5773502691896297 L -0.4999999999999858 0.2886751345948255 Z" style="vector-effect: non-scaling-stroke;" /></g></g></g></g><g transform="matrix(1.0, 0.0, 0.0, 1.0, 2.0, 0.0)"><g><g style="fill: #ff9700;stroke: black;stroke-width: 0.885;" transform="matrix(1.0, 0.0, 0.0, 1.0, 0.0, 0.0)"><path d="M -0.5000000000000003 0.2886751345948208 L 0.5000000000000073 0.2886751345948113 L 0.0 -0.5773502691896297 L -0.4999999999999858 0.2886751345948255 Z" style="vector-effect: non-scaling-stroke;" /></g><g transform="matrix(1.0, 0.0, 0.0, 1.0, -0.5000000000000073, 0.8660254037844766)"><g><g style="fill: #ff9700;stroke: black;stroke-width: 0.885;" transform="matrix(1.0, 0.0, 0.0, 1.0, 0.0, 0.0)"><path d="M -0.5000000000000003 0.2886751345948208 L 0.5000000000000073 0.2886751345948113 L 0.0 -0.5773502691896297 L -0.4999999999999858 0.2886751345948255 Z" style="vector-effect: non-scaling-stroke;" /></g><g style="fill: #ff9700;stroke: black;stroke-width: 0.885;" transform="matrix(1.0, 0.0, 0.0, 1.0, 1.0, 0.0)"><path d="M -0.5000000000000003 0.2886751345948208 L 0.5000000000000073 0.2886751345948113 L 0.0 -0.5773502691896297 L -0.4999999999999858 0.2886751345948255 Z" style="vector-effect: non-scaling-stroke;" /></g></g></g></g></g></g></g></g></g></g></g></g><g transform="matrix(1.0, 0.0, 0.0, 1.0, -4.0, 6.9282032302758125)"><g><g><g><g><g style="fill: #ff9700;stroke: black;stroke-width: 0.885;" transform="matrix(1.0, 0.0, 0.0, 1.0, 0.0, 0.0)"><path d="M -0.5000000000000003 0.2886751345948208 L 0.5000000000000073 0.2886751345948113 L 0.0 -0.5773502691896297 L -0.4999999999999858 0.2886751345948255 Z" style="vector-effect: non-scaling-stroke;" /></g><g transform="matrix(1.0, 0.0, 0.0, 1.0, -0.5000000000000073, 0.8660254037844766)"><g><g style="fill: #ff9700;stroke: black;stroke-width: 0.885;" transform="matrix(1.0, 0.0, 0.0, 1.0, 0.0, 0.0)"><path d="M -0.5000000000000003 0.2886751345948208 L 0.5000000000000073 0.2886751345948113 L 0.0 -0.5773502691896297 L -0.4999999999999858 0.2886751345948255 Z" style="vector-effect: non-scaling-stroke;" /></g><g style="fill: #ff9700;stroke: black;stroke-width: 0.885;" transform="matrix(1.0, 0.0, 0.0, 1.0, 1.0, 0.0)"><path d="M -0.5000000000000003 0.2886751345948208 L 0.5000000000000073 0.2886751345948113 L 0.0 -0.5773502691896297 L -0.4999999999999858 0.2886751345948255 Z" style="vector-effect: non-scaling-stroke;" /></g></g></g></g><g transform="matrix(1.0, 0.0, 0.0, 1.0, -1.0, 1.7320508075689531)"><g><g><g style="fill: #ff9700;stroke: black;stroke-width: 0.885;" transform="matrix(1.0, 0.0, 0.0, 1.0, 0.0, 0.0)"><path d="M -0.5000000000000003 0.2886751345948208 L 0.5000000000000073 0.2886751345948113 L 0.0 -0.5773502691896297 L -0.4999999999999858 0.2886751345948255 Z" style="vector-effect: non-scaling-stroke;" /></g><g transform="matrix(1.0, 0.0, 0.0, 1.0, -0.5000000000000073, 0.8660254037844766)"><g><g style="fill: #ff9700;stroke: black;stroke-width: 0.885;" transform="matrix(1.0, 0.0, 0.0, 1.0, 0.0, 0.0)"><path d="M -0.5000000000000003 0.2886751345948208 L 0.5000000000000073 0.2886751345948113 L 0.0 -0.5773502691896297 L -0.4999999999999858 0.2886751345948255 Z" style="vector-effect: non-scaling-stroke;" /></g><g style="fill: #ff9700;stroke: black;stroke-width: 0.885;" transform="matrix(1.0, 0.0, 0.0, 1.0, 1.0, 0.0)"><path d="M -0.5000000000000003 0.2886751345948208 L 0.5000000000000073 0.2886751345948113 L 0.0 -0.5773502691896297 L -0.4999999999999858 0.2886751345948255 Z" style="vector-effect: non-scaling-stroke;" /></g></g></g></g><g transform="matrix(1.0, 0.0, 0.0, 1.0, 2.0, 0.0)"><g><g style="fill: #ff9700;stroke: black;stroke-width: 0.885;" transform="matrix(1.0, 0.0, 0.0, 1.0, 0.0, 0.0)"><path d="M -0.5000000000000003 0.2886751345948208 L 0.5000000000000073 0.2886751345948113 L 0.0 -0.5773502691896297 L -0.4999999999999858 0.2886751345948255 Z" style="vector-effect: non-scaling-stroke;" /></g><g transform="matrix(1.0, 0.0, 0.0, 1.0, -0.5000000000000073, 0.8660254037844766)"><g><g style="fill: #ff9700;stroke: black;stroke-width: 0.885;" transform="matrix(1.0, 0.0, 0.0, 1.0, 0.0, 0.0)"><path d="M -0.5000000000000003 0.2886751345948208 L 0.5000000000000073 0.2886751345948113 L 0.0 -0.5773502691896297 L -0.4999999999999858 0.2886751345948255 Z" style="vector-effect: non-scaling-stroke;" /></g><g style="fill: #ff9700;stroke: black;stroke-width: 0.885;" transform="matrix(1.0, 0.0, 0.0, 1.0, 1.0, 0.0)"><path d="M -0.5000000000000003 0.2886751345948208 L 0.5000000000000073 0.2886751345948113 L 0.0 -0.5773502691896297 L -0.4999999999999858 0.2886751345948255 Z" style="vector-effect: non-scaling-stroke;" /></g></g></g></g></g></g></g></g><g transform="matrix(1.0, 0.0, 0.0, 1.0, -2.0, 3.4641016151379063)"><g><g><g><g style="fill: #ff9700;stroke: black;stroke-width: 0.885;" transform="matrix(1.0, 0.0, 0.0, 1.0, 0.0, 0.0)"><path d="M -0.5000000000000003 0.2886751345948208 L 0.5000000000000073 0.2886751345948113 L 0.0 -0.5773502691896297 L -0.4999999999999858 0.2886751345948255 Z" style="vector-effect: non-scaling-stroke;" /></g><g transform="matrix(1.0, 0.0, 0.0, 1.0, -0.5000000000000073, 0.8660254037844766)"><g><g style="fill: #ff9700;stroke: black;stroke-width: 0.885;" transform="matrix(1.0, 0.0, 0.0, 1.0, 0.0, 0.0)"><path d="M -0.5000000000000003 0.2886751345948208 L 0.5000000000000073 0.2886751345948113 L 0.0 -0.5773502691896297 L -0.4999999999999858 0.2886751345948255 Z" style="vector-effect: non-scaling-stroke;" /></g><g style="fill: #ff9700;stroke: black;stroke-width: 0.885;" transform="matrix(1.0, 0.0, 0.0, 1.0, 1.0, 0.0)"><path d="M -0.5000000000000003 0.2886751345948208 L 0.5000000000000073 0.2886751345948113 L 0.0 -0.5773502691896297 L -0.4999999999999858 0.2886751345948255 Z" style="vector-effect: non-scaling-stroke;" /></g></g></g></g><g transform="matrix(1.0, 0.0, 0.0, 1.0, -1.0, 1.7320508075689531)"><g><g><g style="fill: #ff9700;stroke: black;stroke-width: 0.885;" transform="matrix(1.0, 0.0, 0.0, 1.0, 0.0, 0.0)"><path d="M -0.5000000000000003 0.2886751345948208 L 0.5000000000000073 0.2886751345948113 L 0.0 -0.5773502691896297 L -0.4999999999999858 0.2886751345948255 Z" style="vector-effect: non-scaling-stroke;" /></g><g transform="matrix(1.0, 0.0, 0.0, 1.0, -0.5000000000000073, 0.8660254037844766)"><g><g style="fill: #ff9700;stroke: black;stroke-width: 0.885;" transform="matrix(1.0, 0.0, 0.0, 1.0, 0.0, 0.0)"><path d="M -0.5000000000000003 0.2886751345948208 L 0.5000000000000073 0.2886751345948113 L 0.0 -0.5773502691896297 L -0.4999999999999858 0.2886751345948255 Z" style="vector-effect: non-scaling-stroke;" /></g><g style="fill: #ff9700;stroke: black;stroke-width: 0.885;" transform="matrix(1.0, 0.0, 0.0, 1.0, 1.0, 0.0)"><path d="M -0.5000000000000003 0.2886751345948208 L 0.5000000000000073 0.2886751345948113 L 0.0 -0.5773502691896297 L -0.4999999999999858 0.2886751345948255 Z" style="vector-effect: non-scaling-stroke;" /></g></g></g></g><g transform="matrix(1.0, 0.0, 0.0, 1.0, 2.0, 0.0)"><g><g style="fill: #ff9700;stroke: black;stroke-width: 0.885;" transform="matrix(1.0, 0.0, 0.0, 1.0, 0.0, 0.0)"><path d="M -0.5000000000000003 0.2886751345948208 L 0.5000000000000073 0.2886751345948113 L 0.0 -0.5773502691896297 L -0.4999999999999858 0.2886751345948255 Z" style="vector-effect: non-scaling-stroke;" /></g><g transform="matrix(1.0, 0.0, 0.0, 1.0, -0.5000000000000073, 0.8660254037844766)"><g><g style="fill: #ff9700;stroke: black;stroke-width: 0.885;" transform="matrix(1.0, 0.0, 0.0, 1.0, 0.0, 0.0)"><path d="M -0.5000000000000003 0.2886751345948208 L 0.5000000000000073 0.2886751345948113 L 0.0 -0.5773502691896297 L -0.4999999999999858 0.2886751345948255 Z" style="vector-effect: non-scaling-stroke;" /></g><g style="fill: #ff9700;stroke: black;stroke-width: 0.885;" transform="matrix(1.0, 0.0, 0.0, 1.0, 1.0, 0.0)"><path d="M -0.5000000000000003 0.2886751345948208 L 0.5000000000000073 0.2886751345948113 L 0.0 -0.5773502691896297 L -0.4999999999999858 0.2886751345948255 Z" style="vector-effect: non-scaling-stroke;" /></g></g></g></g></g></g></g></g><g transform="matrix(1.0, 0.0, 0.0, 1.0, 4.0, 0.0)"><g><g><g style="fill: #ff9700;stroke: black;stroke-width: 0.885;" transform="matrix(1.0, 0.0, 0.0, 1.0, 0.0, 0.0)"><path d="M -0.5000000000000003 0.2886751345948208 L 0.5000000000000073 0.2886751345948113 L 0.0 -0.5773502691896297 L -0.4999999999999858 0.2886751345948255 Z" style="vector-effect: non-scaling-stroke;" /></g><g transform="matrix(1.0, 0.0, 0.0, 1.0, -0.5000000000000073, 0.8660254037844766)"><g><g style="fill: #ff9700;stroke: black;stroke-width: 0.885;" transform="matrix(1.0, 0.0, 0.0, 1.0, 0.0, 0.0)"><path d="M -0.5000000000000003 0.2886751345948208 L 0.5000000000000073 0.2886751345948113 L 0.0 -0.5773502691896297 L -0.4999999999999858 0.2886751345948255 Z" style="vector-effect: non-scaling-stroke;" /></g><g style="fill: #ff9700;stroke: black;stroke-width: 0.885;" transform="matrix(1.0, 0.0, 0.0, 1.0, 1.0, 0.0)"><path d="M -0.5000000000000003 0.2886751345948208 L 0.5000000000000073 0.2886751345948113 L 0.0 -0.5773502691896297 L -0.4999999999999858 0.2886751345948255 Z" style="vector-effect: non-scaling-stroke;" /></g></g></g></g><g transform="matrix(1.0, 0.0, 0.0, 1.0, -1.0, 1.7320508075689531)"><g><g><g style="fill: #ff9700;stroke: black;stroke-width: 0.885;" transform="matrix(1.0, 0.0, 0.0, 1.0, 0.0, 0.0)"><path d="M -0.5000000000000003 0.2886751345948208 L 0.5000000000000073 0.2886751345948113 L 0.0 -0.5773502691896297 L -0.4999999999999858 0.2886751345948255 Z" style="vector-effect: non-scaling-stroke;" /></g><g transform="matrix(1.0, 0.0, 0.0, 1.0, -0.5000000000000073, 0.8660254037844766)"><g><g style="fill: #ff9700;stroke: black;stroke-width: 0.885;" transform="matrix(1.0, 0.0, 0.0, 1.0, 0.0, 0.0)"><path d="M -0.5000000000000003 0.2886751345948208 L 0.5000000000000073 0.2886751345948113 L 0.0 -0.5773502691896297 L -0.4999999999999858 0.2886751345948255 Z" style="vector-effect: non-scaling-stroke;" /></g><g style="fill: #ff9700;stroke: black;stroke-width: 0.885;" transform="matrix(1.0, 0.0, 0.0, 1.0, 1.0, 0.0)"><path d="M -0.5000000000000003 0.2886751345948208 L 0.5000000000000073 0.2886751345948113 L 0.0 -0.5773502691896297 L -0.4999999999999858 0.2886751345948255 Z" style="vector-effect: non-scaling-stroke;" /></g></g></g></g><g transform="matrix(1.0, 0.0, 0.0, 1.0, 2.0, 0.0)"><g><g style="fill: #ff9700;stroke: black;stroke-width: 0.885;" transform="matrix(1.0, 0.0, 0.0, 1.0, 0.0, 0.0)"><path d="M -0.5000000000000003 0.2886751345948208 L 0.5000000000000073 0.2886751345948113 L 0.0 -0.5773502691896297 L -0.4999999999999858 0.2886751345948255 Z" style="vector-effect: non-scaling-stroke;" /></g><g transform="matrix(1.0, 0.0, 0.0, 1.0, -0.5000000000000073, 0.8660254037844766)"><g><g style="fill: #ff9700;stroke: black;stroke-width: 0.885;" transform="matrix(1.0, 0.0, 0.0, 1.0, 0.0, 0.0)"><path d="M -0.5000000000000003 0.2886751345948208 L 0.5000000000000073 0.2886751345948113 L 0.0 -0.5773502691896297 L -0.4999999999999858 0.2886751345948255 Z" style="vector-effect: non-scaling-stroke;" /></g><g style="fill: #ff9700;stroke: black;stroke-width: 0.885;" transform="matrix(1.0, 0.0, 0.0, 1.0, 1.0, 0.0)"><path d="M -0.5000000000000003 0.2886751345948208 L 0.5000000000000073 0.2886751345948113 L 0.0 -0.5773502691896297 L -0.4999999999999858 0.2886751345948255 Z" style="vector-effect: non-scaling-stroke;" /></g></g></g></g></g></g></g></g></g></g></g></g><g transform="matrix(1.0, 0.0, 0.0, 1.0, 8.0, 0.0)"><g><g><g><g style="fill: #ff9700;stroke: black;stroke-width: 0.885;" transform="matrix(1.0, 0.0, 0.0, 1.0, 0.0, 0.0)"><path d="M -0.5000000000000003 0.2886751345948208 L 0.5000000000000073 0.2886751345948113 L 0.0 -0.5773502691896297 L -0.4999999999999858 0.2886751345948255 Z" style="vector-effect: non-scaling-stroke;" /></g><g transform="matrix(1.0, 0.0, 0.0, 1.0, -0.5000000000000073, 0.8660254037844766)"><g><g style="fill: #ff9700;stroke: black;stroke-width: 0.885;" transform="matrix(1.0, 0.0, 0.0, 1.0, 0.0, 0.0)"><path d="M -0.5000000000000003 0.2886751345948208 L 0.5000000000000073 0.2886751345948113 L 0.0 -0.5773502691896297 L -0.4999999999999858 0.2886751345948255 Z" style="vector-effect: non-scaling-stroke;" /></g><g style="fill: #ff9700;stroke: black;stroke-width: 0.885;" transform="matrix(1.0, 0.0, 0.0, 1.0, 1.0, 0.0)"><path d="M -0.5000000000000003 0.2886751345948208 L 0.5000000000000073 0.2886751345948113 L 0.0 -0.5773502691896297 L -0.4999999999999858 0.2886751345948255 Z" style="vector-effect: non-scaling-stroke;" /></g></g></g></g><g transform="matrix(1.0, 0.0, 0.0, 1.0, -1.0, 1.7320508075689531)"><g><g><g style="fill: #ff9700;stroke: black;stroke-width: 0.885;" transform="matrix(1.0, 0.0, 0.0, 1.0, 0.0, 0.0)"><path d="M -0.5000000000000003 0.2886751345948208 L 0.5000000000000073 0.2886751345948113 L 0.0 -0.5773502691896297 L -0.4999999999999858 0.2886751345948255 Z" style="vector-effect: non-scaling-stroke;" /></g><g transform="matrix(1.0, 0.0, 0.0, 1.0, -0.5000000000000073, 0.8660254037844766)"><g><g style="fill: #ff9700;stroke: black;stroke-width: 0.885;" transform="matrix(1.0, 0.0, 0.0, 1.0, 0.0, 0.0)"><path d="M -0.5000000000000003 0.2886751345948208 L 0.5000000000000073 0.2886751345948113 L 0.0 -0.5773502691896297 L -0.4999999999999858 0.2886751345948255 Z" style="vector-effect: non-scaling-stroke;" /></g><g style="fill: #ff9700;stroke: black;stroke-width: 0.885;" transform="matrix(1.0, 0.0, 0.0, 1.0, 1.0, 0.0)"><path d="M -0.5000000000000003 0.2886751345948208 L 0.5000000000000073 0.2886751345948113 L 0.0 -0.5773502691896297 L -0.4999999999999858 0.2886751345948255 Z" style="vector-effect: non-scaling-stroke;" /></g></g></g></g><g transform="matrix(1.0, 0.0, 0.0, 1.0, 2.0, 0.0)"><g><g style="fill: #ff9700;stroke: black;stroke-width: 0.885;" transform="matrix(1.0, 0.0, 0.0, 1.0, 0.0, 0.0)"><path d="M -0.5000000000000003 0.2886751345948208 L 0.5000000000000073 0.2886751345948113 L 0.0 -0.5773502691896297 L -0.4999999999999858 0.2886751345948255 Z" style="vector-effect: non-scaling-stroke;" /></g><g transform="matrix(1.0, 0.0, 0.0, 1.0, -0.5000000000000073, 0.8660254037844766)"><g><g style="fill: #ff9700;stroke: black;stroke-width: 0.885;" transform="matrix(1.0, 0.0, 0.0, 1.0, 0.0, 0.0)"><path d="M -0.5000000000000003 0.2886751345948208 L 0.5000000000000073 0.2886751345948113 L 0.0 -0.5773502691896297 L -0.4999999999999858 0.2886751345948255 Z" style="vector-effect: non-scaling-stroke;" /></g><g style="fill: #ff9700;stroke: black;stroke-width: 0.885;" transform="matrix(1.0, 0.0, 0.0, 1.0, 1.0, 0.0)"><path d="M -0.5000000000000003 0.2886751345948208 L 0.5000000000000073 0.2886751345948113 L 0.0 -0.5773502691896297 L -0.4999999999999858 0.2886751345948255 Z" style="vector-effect: non-scaling-stroke;" /></g></g></g></g></g></g></g></g><g transform="matrix(1.0, 0.0, 0.0, 1.0, -2.0, 3.4641016151379063)"><g><g><g><g style="fill: #ff9700;stroke: black;stroke-width: 0.885;" transform="matrix(1.0, 0.0, 0.0, 1.0, 0.0, 0.0)"><path d="M -0.5000000000000003 0.2886751345948208 L 0.5000000000000073 0.2886751345948113 L 0.0 -0.5773502691896297 L -0.4999999999999858 0.2886751345948255 Z" style="vector-effect: non-scaling-stroke;" /></g><g transform="matrix(1.0, 0.0, 0.0, 1.0, -0.5000000000000073, 0.8660254037844766)"><g><g style="fill: #ff9700;stroke: black;stroke-width: 0.885;" transform="matrix(1.0, 0.0, 0.0, 1.0, 0.0, 0.0)"><path d="M -0.5000000000000003 0.2886751345948208 L 0.5000000000000073 0.2886751345948113 L 0.0 -0.5773502691896297 L -0.4999999999999858 0.2886751345948255 Z" style="vector-effect: non-scaling-stroke;" /></g><g style="fill: #ff9700;stroke: black;stroke-width: 0.885;" transform="matrix(1.0, 0.0, 0.0, 1.0, 1.0, 0.0)"><path d="M -0.5000000000000003 0.2886751345948208 L 0.5000000000000073 0.2886751345948113 L 0.0 -0.5773502691896297 L -0.4999999999999858 0.2886751345948255 Z" style="vector-effect: non-scaling-stroke;" /></g></g></g></g><g transform="matrix(1.0, 0.0, 0.0, 1.0, -1.0, 1.7320508075689531)"><g><g><g style="fill: #ff9700;stroke: black;stroke-width: 0.885;" transform="matrix(1.0, 0.0, 0.0, 1.0, 0.0, 0.0)"><path d="M -0.5000000000000003 0.2886751345948208 L 0.5000000000000073 0.2886751345948113 L 0.0 -0.5773502691896297 L -0.4999999999999858 0.2886751345948255 Z" style="vector-effect: non-scaling-stroke;" /></g><g transform="matrix(1.0, 0.0, 0.0, 1.0, -0.5000000000000073, 0.8660254037844766)"><g><g style="fill: #ff9700;stroke: black;stroke-width: 0.885;" transform="matrix(1.0, 0.0, 0.0, 1.0, 0.0, 0.0)"><path d="M -0.5000000000000003 0.2886751345948208 L 0.5000000000000073 0.2886751345948113 L 0.0 -0.5773502691896297 L -0.4999999999999858 0.2886751345948255 Z" style="vector-effect: non-scaling-stroke;" /></g><g style="fill: #ff9700;stroke: black;stroke-width: 0.885;" transform="matrix(1.0, 0.0, 0.0, 1.0, 1.0, 0.0)"><path d="M -0.5000000000000003 0.2886751345948208 L 0.5000000000000073 0.2886751345948113 L 0.0 -0.5773502691896297 L -0.4999999999999858 0.2886751345948255 Z" style="vector-effect: non-scaling-stroke;" /></g></g></g></g><g transform="matrix(1.0, 0.0, 0.0, 1.0, 2.0, 0.0)"><g><g style="fill: #ff9700;stroke: black;stroke-width: 0.885;" transform="matrix(1.0, 0.0, 0.0, 1.0, 0.0, 0.0)"><path d="M -0.5000000000000003 0.2886751345948208 L 0.5000000000000073 0.2886751345948113 L 0.0 -0.5773502691896297 L -0.4999999999999858 0.2886751345948255 Z" style="vector-effect: non-scaling-stroke;" /></g><g transform="matrix(1.0, 0.0, 0.0, 1.0, -0.5000000000000073, 0.8660254037844766)"><g><g style="fill: #ff9700;stroke: black;stroke-width: 0.885;" transform="matrix(1.0, 0.0, 0.0, 1.0, 0.0, 0.0)"><path d="M -0.5000000000000003 0.2886751345948208 L 0.5000000000000073 0.2886751345948113 L 0.0 -0.5773502691896297 L -0.4999999999999858 0.2886751345948255 Z" style="vector-effect: non-scaling-stroke;" /></g><g style="fill: #ff9700;stroke: black;stroke-width: 0.885;" transform="matrix(1.0, 0.0, 0.0, 1.0, 1.0, 0.0)"><path d="M -0.5000000000000003 0.2886751345948208 L 0.5000000000000073 0.2886751345948113 L 0.0 -0.5773502691896297 L -0.4999999999999858 0.2886751345948255 Z" style="vector-effect: non-scaling-stroke;" /></g></g></g></g></g></g></g></g><g transform="matrix(1.0, 0.0, 0.0, 1.0, 4.0, 0.0)"><g><g><g style="fill: #ff9700;stroke: black;stroke-width: 0.885;" transform="matrix(1.0, 0.0, 0.0, 1.0, 0.0, 0.0)"><path d="M -0.5000000000000003 0.2886751345948208 L 0.5000000000000073 0.2886751345948113 L 0.0 -0.5773502691896297 L -0.4999999999999858 0.2886751345948255 Z" style="vector-effect: non-scaling-stroke;" /></g><g transform="matrix(1.0, 0.0, 0.0, 1.0, -0.5000000000000073, 0.8660254037844766)"><g><g style="fill: #ff9700;stroke: black;stroke-width: 0.885;" transform="matrix(1.0, 0.0, 0.0, 1.0, 0.0, 0.0)"><path d="M -0.5000000000000003 0.2886751345948208 L 0.5000000000000073 0.2886751345948113 L 0.0 -0.5773502691896297 L -0.4999999999999858 0.2886751345948255 Z" style="vector-effect: non-scaling-stroke;" /></g><g style="fill: #ff9700;stroke: black;stroke-width: 0.885;" transform="matrix(1.0, 0.0, 0.0, 1.0, 1.0, 0.0)"><path d="M -0.5000000000000003 0.2886751345948208 L 0.5000000000000073 0.2886751345948113 L 0.0 -0.5773502691896297 L -0.4999999999999858 0.2886751345948255 Z" style="vector-effect: non-scaling-stroke;" /></g></g></g></g><g transform="matrix(1.0, 0.0, 0.0, 1.0, -1.0, 1.7320508075689531)"><g><g><g style="fill: #ff9700;stroke: black;stroke-width: 0.885;" transform="matrix(1.0, 0.0, 0.0, 1.0, 0.0, 0.0)"><path d="M -0.5000000000000003 0.2886751345948208 L 0.5000000000000073 0.2886751345948113 L 0.0 -0.5773502691896297 L -0.4999999999999858 0.2886751345948255 Z" style="vector-effect: non-scaling-stroke;" /></g><g transform="matrix(1.0, 0.0, 0.0, 1.0, -0.5000000000000073, 0.8660254037844766)"><g><g style="fill: #ff9700;stroke: black;stroke-width: 0.885;" transform="matrix(1.0, 0.0, 0.0, 1.0, 0.0, 0.0)"><path d="M -0.5000000000000003 0.2886751345948208 L 0.5000000000000073 0.2886751345948113 L 0.0 -0.5773502691896297 L -0.4999999999999858 0.2886751345948255 Z" style="vector-effect: non-scaling-stroke;" /></g><g style="fill: #ff9700;stroke: black;stroke-width: 0.885;" transform="matrix(1.0, 0.0, 0.0, 1.0, 1.0, 0.0)"><path d="M -0.5000000000000003 0.2886751345948208 L 0.5000000000000073 0.2886751345948113 L 0.0 -0.5773502691896297 L -0.4999999999999858 0.2886751345948255 Z" style="vector-effect: non-scaling-stroke;" /></g></g></g></g><g transform="matrix(1.0, 0.0, 0.0, 1.0, 2.0, 0.0)"><g><g style="fill: #ff9700;stroke: black;stroke-width: 0.885;" transform="matrix(1.0, 0.0, 0.0, 1.0, 0.0, 0.0)"><path d="M -0.5000000000000003 0.2886751345948208 L 0.5000000000000073 0.2886751345948113 L 0.0 -0.5773502691896297 L -0.4999999999999858 0.2886751345948255 Z" style="vector-effect: non-scaling-stroke;" /></g><g transform="matrix(1.0, 0.0, 0.0, 1.0, -0.5000000000000073, 0.8660254037844766)"><g><g style="fill: #ff9700;stroke: black;stroke-width: 0.885;" transform="matrix(1.0, 0.0, 0.0, 1.0, 0.0, 0.0)"><path d="M -0.5000000000000003 0.2886751345948208 L 0.5000000000000073 0.2886751345948113 L 0.0 -0.5773502691896297 L -0.4999999999999858 0.2886751345948255 Z" style="vector-effect: non-scaling-stroke;" /></g><g style="fill: #ff9700;stroke: black;stroke-width: 0.885;" transform="matrix(1.0, 0.0, 0.0, 1.0, 1.0, 0.0)"><path d="M -0.5000000000000003 0.2886751345948208 L 0.5000000000000073 0.2886751345948113 L 0.0 -0.5773502691896297 L -0.4999999999999858 0.2886751345948255 Z" style="vector-effect: non-scaling-stroke;" /></g></g></g></g></g></g></g></g></g></g></g></g></g></g></g></g></g></g></svg>