<?xml version="1.0" encoding="utf-8" ?>
<svg baseProfile="full" height="256" version="1.1" width="295" xmlns="http://www.w3.org/2000/svg" xmlns:ev="http://www.w3.org/2001/xml-events" xmlns:xlink="http://www.w3.org/1999/xlink"><defs><marker id="arrow" markerHeight="3.5" markerWidth="5" orient="auto" refX="5.0" refY="1.7"><polygon points="0,0 5,1.75 0,3.5" /></marker></defs><g style="fill:white;"><g transform="matrix(1.0, 0.0, 0.0, 1.0, 147.80166891254416, 127.99999999999996)"><g transform="matrix(70.38174710121149, 0.0, 0.0, 70.38174710121149, 0.0, 0.0)"><g><g transform="matrix(1.0, 0.0, 0.0, 1.0, -0.0, -1.5877132402714713)"><g><g><g><g><g style="fill: #ff9700;stroke: black;stroke-width: 0.885;" transform="matrix(1.0, 0.0, 0.0, 1.0, 0.0, 0.0)"><path d="M -0.125 0.07216878364870326 L 0.125 0.07216878364870326 L 5.551115123125783e-17 -0.14433756729740643 L -0.12500000000000006 0.07216878364870316 Z" style="vector-effect: non-scaling-stroke;" /></g><g transform="matrix(1.0, 0.0, 0.0, 1.0, 0.0, 0.18042195912175812)"><g transform="matrix(1.0, 0.0, 0.0, 1.0, -0.125, 0.03608439182435159)"><g><g style="fill: #ff9700;stroke: black;stroke-width: 0.885;" transform="matrix(1.0, 0.0, 0.0, 1.0, 0.0, 0.0)"><path d="M -0.125 0.07216878364870326 L 0.125 0.07216878364870326 L 5.551115123125783e-17 -0.14433756729740643 L -0.12500000000000006 0.07216878364870316 Z" style="vector-effect: non-scaling-stroke;" /></g><g style="fill: #ff9700;stroke: black;stroke-width: 0.885;" transform="matrix(1.0, 0.0, 0.0, 1.0, 0.25000000000000006, 0.0)"><path d="M -0.125 0.07216878364870326 L 0.125 0.07216878364870326 L 5.551115123125783e-17 -0.14433756729740643 L -0.12500000000000006 0.07216878364870316 Z" style="vector-effect: non-scaling-stroke;" /></g></g></g></g></g><g transform="matrix(1.0, 0.0, 0.0, 1.0, 0.0, 0.5051814855409227)"><g transform="matrix(1.0, 0.0, 0.0, 1.0, -0.2500000000000001, -0.07216878364870327)"><g><g><g style="fill: #ff9700;stroke: black;stroke-width: 0.885;" transform="matrix(1.0, 0.0, 0.0, 1.0, 0.0, 0.0)"><path d="M -0.125 0.07216878364870326 L 0.125 0.07216878364870326 L 5.551115123125783e-17 -0.14433756729740643 L -0.12500000000000006 0.07216878364870316 Z" style="vector-effect: non-scaling-stroke;" /></g><g transform="matrix(1.0, 0.0, 0.0, 1.0, 0.0, 0.18042195912175812)"><g transform="matrix(1.0, 0.0, 0.0, 1.0, -0.125, 0.03608439182435159)"><g><g style="fill: #ff9700;stroke: black;stroke-width: 0.885;" transform="matrix(1.0, 0.0, 0.0, 1.0, 0.0, 0.0)"><path d="M -0.125 0.07216878364870326 L 0.125 0.07216878364870326 L 5.551115123125783e-17 -0.14433756729740643 L -0.12500000000000006 0.07216878364870316 Z" style="vector-effect: non-scaling-stroke;" /></g><g style="fill: #ff9700;stroke: black;stroke-width: 0.885;" transform="matrix(1.0, 0.0, 0.0, 1.0, 0.25000000000000006, 0.0)"><path d="M -0.125 0.07216878364870326 L 0.125 0.07216878364870326 L 5.551115123125783e-17 -0.14433756729740643 L -0.12500000000000006 0.07216878364870316 Z" style="vector-effect: non-scaling-stroke;" /></g></g></g></g></g><g transform="matrix(1.0, 0.0, 0.0, 1.0, 0.5000000000000001, 0.0)"><g><g style="fill: #ff9700;stroke: black;stroke-width: 0.885;" transform="matrix(1.0, 0.0, 0.0, 1.0, 0.0, 0.0)"><path d="M -0.125 0.07216878364870326 L 0.125 0.07216878364870326 L 5.551115123125783e-17 -0.14433756729740643 L -0.12500000000000006 0.07216878364870316 Z" style="vector-effect: non-scaling-stroke;" /></g><g transform="matrix(1.0, 0.0, 0.0, 1.0, 0.0, 0.18042195912175812)"><g transform="matrix(1.0, 0.0, 0.0, 1.0, -0.125, 0.03608439182435159)"><g><g style="fill: #ff9700;stroke: black;stroke-width: 0.885;" transform="matrix(1.0, 0.0, 0.0, 1.0, 0.0, 0.0)"><path d="M -0.125 0.07216878364870326 L 0.125 0.07216878364870326 L 5.551115123125783e-17 -0.14433756729740643 L -0.12500000000000006 0.07216878364870316 Z" style="vector-effect: non-scaling-stroke;" /></g><g style="fill: #ff9700;stroke: black;stroke-width: 0.885;" transform="matrix(1.0, 0.0, 0.0, 1.0, 0.25000000000000006, 0.0)"><path d="M -0.125 0.07216878364870326 L 0.125 0.07216878364870326 L 5.551115123125783e-17 -0.14433756729740643 L -0.12500000000000006 0.07216878364870316 Z" style="vector-effect: non-scaling-stroke;" /></g></g></g></g></g></g></g></g></g></g><g transform="matrix(1.0, 0.0, 0.0, 1.0, 0.0, 1.154700538379252)"><g transform="matrix(1.0, 0.0, 0.0, 1.0, -0.5000000000000001, -0.288675134594813)"><g><g><g><g style="fill: #ff9700;stroke: black;stroke-width: 0.885;" transform="matrix(1.0, 0.0, 0.0, 1.0, 0.0, 0.0)"><path d="M -0.125 0.07216878364870326 L 0.125 0.07216878364870326 L 5.551115123125783e-17 -0.14433756729740643 L -0.12500000000000006 0.07216878364870316 Z" style="vector-effect: non-scaling-stroke;" /></g><g transform="matrix(1.0, 0.0, 0.0, 1.0, 0.0, 0.18042195912175812)"><g transform="matrix(1.0, 0.0, 0.0, 1.0, -0.125, 0.03608439182435159)"><g><g style="fill: #ff9700;stroke: black;stroke-width: 0.885;" transform="matrix(1.0, 0.0, 0.0, 1.0, 0.0, 0.0)"><path d="M -0.125 0.07216878364870326 L 0.125 0.07216878364870326 L 5.551115123125783e-17 -0.14433756729740643 L -0.12500000000000006 0.07216878364870316 Z" style="vector-effect: non-scaling-stroke;" /></g><g style="fill: #ff9700;stroke: black;stroke-width: 0.885;" transform="matrix(1.0, 0.0, 0.0, 1.0, 0.25000000000000006, 0.0)"><path d="M -0.125 0.07216878364870326 L 0.125 0.07216878364870326 L 5.551115123125783e-17 -0.14433756729740643 L -0.12500000000000006 0.07216878364870316 Z" style="vector-effect: non-scaling-stroke;" /></g></g></g></g></g><g transform="matrix(1.0, 0.0, 0.0, 1.0, 0.0, 0.5051814855409227)"><g transform="matrix(1.0, 0.0, 0.0, 1.0, -0.2500000000000001, -0.07216878364870327)"><g><g><g style="fill: #ff9700;stroke: black;stroke-width: 0.885;" transform="matrix(1.0, 0.0, 0.0, 1.0, 0.0, 0.0)"><path d="M -0.125 0.07216878364870326 L 0.125 0.07216878364870326 L 5.551115123125783e-17 -0.14433756729740643 L -0.12500000000000006 0.07216878364870316 Z" style="vector-effect: non-scaling-stroke;" /></g><g transform="matrix(1.0, 0.0, 0.0, 1.0, 0.0, 0.18042195912175812)"><g transform="matrix(1.0, 0.0, 0.0, 1.0, -0.125, 0.03608439182435159)"><g><g style="fill: #ff9700;stroke: black;stroke-width: 0.885;" transform="matrix(1.0, 0.0, 0.0, 1.0, 0.0, 0.0)"><path d="M -0.125 0.07216878364870326 L 0.125 0.07216878364870326 L 5.551115123125783e-17 -0.14433756729740643 L -0.12500000000000006 0.07216878364870316 Z" style="vector-effect: non-scaling-stroke;" /></g><g style="fill: #ff9700;stroke: black;stroke-width: 0.885;" transform="matrix(1.0, 0.0, 0.0, 1.0, 0.25000000000000006, 0.0)"><path d="M -0.125 0.07216878364870326 L 0.125 0.07216878364870326 L 5.551115123125783e-17 -0.14433756729740643 L -0.12500000000000006 0.07216878364870316 Z" style="vector-effect: non-scaling-stroke;" /></g></g></g></g></g><g transform="matrix(1.0, 0.0, 0.0, 1.0, 0.5000000000000001, 0.0)"><g><g style="fill: #ff9700;stroke: black;stroke-width: 0.885;" transform="matrix(1.0, 0.0, 0.0, 1.0, 0.0, 0.0)"><path d="M -0.125 0.07216878364870326 L 0.125 0.07216878364870326 L 5.551115123125783e-17 -0.14433756729740643 L -0.12500000000000006 0.07216878364870316 Z" style="vector-effect: non-scaling-stroke;" /></g><g transform="matrix(1.0, 0.0, 0.0, 1.0, 0.0, 0.18042195912175812)"><g transform="matrix(1.0, 0.0, 0.0, 1.0, -0.125, 0.03608439182435159)"><g><g style="fill: #ff9700;stroke: black;stroke-width: 0.885;" transform="matrix(1.0, 0.0, 0.0, 1.0, 0.0, 0.0)"><path d="M -0.125 0.07216878364870326 L 0.125 0.07216878364870326 L 5.551115123125783e-17 -0.14433756729740643 L -0.12500000000000006 0.07216878364870316 Z" style="vector-effect: non-scaling-stroke;" /></g><g style="fill: #ff9700;stroke: black;stroke-width: 0.885;" transform="matrix(1.0, 0.0, 0.0, 1.0, 0.25000000000000006, 0.0)"><path d="M -0.125 0.07216878364870326 L 0.125 0.07216878364870326 L 5.551115123125783e-17 -0.14433756729740643 L -0.12500000000000006 0.07216878364870316 Z" style="vector-effect: non-scaling-stroke;" /></g></g></g></g></g></g></g></g></g></g><g transform="matrix(1.0, 0.0, 0.0, 1.0, 1.0000000000000004, 0.0)"><g><g><g style="fill: #ff9700;stroke: black;stroke-width: 0.885;" transform="matrix(1.0, 0.0, 0.0, 1.0, 0.0, 0.0)"><path d="M -0.125 0.07216878364870326 L 0.125 0.07216878364870326 L 5.551115123125783e-17 -0.14433756729740643 L -0.12500000000000006 0.07216878364870316 Z" style="vector-effect: non-scaling-stroke;" /></g><g transform="matrix(1.0, 0.0, 0.0, 1.0, 0.0, 0.18042195912175812)"><g transform="matrix(1.0, 0.0, 0.0, 1.0, -0.125, 0.03608439182435159)"><g><g style="fill: #ff9700;stroke: black;stroke-width: 0.885;" transform="matrix(1.0, 0.0, 0.0, 1.0, 0.0, 0.0)"><path d="M -0.125 0.07216878364870326 L 0.125 0.07216878364870326 L 5.551115123125783e-17 -0.14433756729740643 L -0.12500000000000006 0.07216878364870316 Z" style="vector-effect: non-scaling-stroke;" /></g><g style="fill: #ff9700;stroke: black;stroke-width: 0.885;" transform="matrix(1.0, 0.0, 0.0, 1.0, 0.25000000000000006, 0.0)"><path d="M -0.125 0.07216878364870326 L 0.125 0.07216878364870326 L 5.551115123125783e-17 -0.14433756729740643 L -0.12500000000000006 0.07216878364870316 Z" style="vector-effect: non-scaling-stroke;" /></g></g></g></g></g><g transform="matrix(1.0, 0.0, 0.0, 1.0, 0.0, 0.5051814855409227)"><g transform="matrix(1.0, 0.0, 0.0, 1.0, -0.2500000000000001, -0.07216878364870327)"><g><g><g style="fill: #ff9700;stroke: black;stroke-width: 0.885;" transform="matrix(1.0, 0.0, 0.0, 1.0, 0.0, 0.0)"><path d="M -0.125 0.07216878364870326 L 0.125 0.07216878364870326 L 5.551115123125783e-17 -0.14433756729740643 L -0.12500000000000006 0.07216878364870316 Z" style="vector-effect: non-scaling-stroke;" /></g><g transform="matrix(1.0, 0.0, 0.0, 1.0, 0.0, 0.18042195912175812)"><g transform="matrix(1.0, 0.0, 0.0, 1.0, -0.125, 0.03608439182435159)"><g><g style="fill: #ff9700;stroke: black;stroke-width: 0.885;" transform="matrix(1.0, 0.0, 0.0, 1.0, 0.0, 0.0)"><path d="M -0.125 0.07216878364870326 L 0.125 0.07216878364870326 L 5.551115123125783e-17 -0.14433756729740643 L -0.12500000000000006 0.07216878364870316 Z" style="vector-effect: non-scaling-stroke;" /></g><g style="fill: #ff9700;stroke: black;stroke-width: 0.885;" transform="matrix(1.0, 0.0, 0.0, 1.0, 0.25000000000000006, 0.0)"><path d="M -0.125 0.07216878364870326 L 0.125 0.07216878364870326 L 5.551115123125783e-17 -0.14433756729740643 L -0.12500000000000006 0.07216878364870316 Z" style="vector-effect: non-scaling-stroke;" /></g></g></g></g></g><g transform="matrix(1.0, 0.0, 0.0, 1.0, 0.5000000000000001, 0.0)"><g><g style="fill: #ff9700;stroke: black;stroke-width: 0.885;" transform="matrix(1.0, 0.0, 0.0, 1.0, 0.0, 0.0)"><path d="M -0.125 0.07216878364870326 L 0.125 0.07216878364870326 L 5.551115123125783e-17 -0.14433756729740643 L -0.12500000000000006 0.07216878364870316 Z" style="vector-effect: non-scaling-stroke;" /></g><g transform="matrix(1.0, 0.0, 0.0, 1.0, 0.0, 0.18042195912175812)"><g transform="matrix(1.0, 0.0, 0.0, 1.0, -0.125, 0.03608439182435159)"><g><g style="fill: #ff9700;stroke: black;stroke-width: 0.885;" transform="matrix(1.0, 0.0, 0.0, 1.0, 0.0, 0.0)"><path d="M -0.125 0.07216878364870326 L 0.125 0.07216878364870326 L 5.551115123125783e-17 -0.14433756729740643 L -0.12500000000000006 0.07216878364870316 Z" style="vector-effect: non-scaling-stroke;" /></g><g style="fill: #ff9700;stroke: black;stroke-width: 0.885;" transform="matrix(1.0, 0.0, 0.0, 1.0, 0.25000000000000006, 0.0)"><path d="M -0.125 0.07216878364870326 L 0.125 0.07216878364870326 L 5.551115123125783e-17 -0.14433756729740643 L -0.12500000000000006 0.07216878364870316 Z" style="vector-effect: non-scaling-stroke;" /></g></g></g></g></g></g></g></g></g></g></g></g></g></g></g><g transform="matrix(1.0, 0.0, 0.0, 1.0, 0.0, 2.4537386440559104)"><g transform="matrix(1.0, 0.0, 0.0, 1.0, -1.0000000000000004, -0.7216878364870325)"><g><g><g><g><g style="fill: #ff9700;stroke: black;stroke-width: 0.885;" transform="matrix(1.0, 0.0, 0.0, 1.0, 0.0, 0.0)"><path d="M -0.125 0.07216878364870326 L 0.125 0.07216878364870326 L 5.551115123125783e-17 -0.14433756729740643 L -0.12500000000000006 0.07216878364870316 Z" style="vector-effect: non-scaling-stroke;" /></g><g transform="matrix(1.0, 0.0, 0.0, 1.0, 0.0, 0.18042195912175812)"><g transform="matrix(1.0, 0.0, 0.0, 1.0, -0.125, 0.03608439182435159)"><g><g style="fill: #ff9700;stroke: black;stroke-width: 0.885;" transform="matrix(1.0, 0.0, 0.0, 1.0, 0.0, 0.0)"><path d="M -0.125 0.07216878364870326 L 0.125 0.07216878364870326 L 5.551115123125783e-17 -0.14433756729740643 L -0.12500000000000006 0.07216878364870316 Z" style="vector-effect: non-scaling-stroke;" /></g><g style="fill: #ff9700;stroke: black;stroke-width: 0.885;" transform="matrix(1.0, 0.0, 0.0, 1.0, 0.25000000000000006, 0.0)"><path d="M -0.125 0.07216878364870326 L 0.125 0.07216878364870326 L 5.551115123125783e-17 -0.14433756729740643 L -0.12500000000000006 0.07216878364870316 Z" style="vector-effect: non-scaling-stroke;" /></g></g></g></g></g><g transform="matrix(1.0, 0.0, 0.0, 1.0, 0.0, 0.5051814855409227)"><g transform="matrix(1.0, 0.0, 0.0, 1.0, -0.2500000000000001, -0.07216878364870327)"><g><g><g style="fill: #ff9700;stroke: black;stroke-width: 0.885;" transform="matrix(1.0, 0.0, 0.0, 1.0, 0.0, 0.0)"><path d="M -0.125 0.07216878364870326 L 0.125 0.07216878364870326 L 5.551115123125783e-17 -0.14433756729740643 L -0.12500000000000006 0.07216878364870316 Z" style="vector-effect: non-scaling-stroke;" /></g><g transform="matrix(1.0, 0.0, 0.0, 1.0, 0.0, 0.18042195912175812)"><g transform="matrix(1.0, 0.0, 0.0, 1.0, -0.125, 0.03608439182435159)"><g><g style="fill: #ff9700;stroke: black;stroke-width: 0.885;" transform="matrix(1.0, 0.0, 0.0, 1.0, 0.0, 0.0)"><path d="M -0.125 0.07216878364870326 L 0.125 0.07216878364870326 L 5.551115123125783e-17 -0.14433756729740643 L -0.12500000000000006 0.07216878364870316 Z" style="vector-effect: non-scaling-stroke;" /></g><g style="fill: #ff9700;stroke: black;stroke-width: 0.885;" transform="matrix(1.0, 0.0, 0.0, 1.0, 0.25000000000000006, 0.0)"><path d="M -0.125 0.07216878364870326 L 0.125 0.07216878364870326 L 5.551115123125783e-17 -0.14433756729740643 L -0.12500000000000006 0.07216878364870316 Z" style="vector-effect: non-scaling-stroke;" /></g></g></g></g></g><g transform="matrix(1.0, 0.0, 0.0, 1.0, 0.5000000000000001, 0.0)"><g><g style="fill: #ff9700;stroke: black;stroke-width: 0.885;" transform="matrix(1.0, 0.0, 0.0, 1.0, 0.0, 0.0)"><path d="M -0.125 0.07216878364870326 L 0.125 0.07216878364870326 L 5.551115123125783e-17 -0.14433756729740643 L -0.12500000000000006 0.07216878364870316 Z" style="vector-effect: non-scaling-stroke;" /></g><g transform="matrix(1.0, 0.0, 0.0, 1.0, 0.0, 0.18042195912175812)"><g transform="matrix(1.0, 0.0, 0.0, 1.0, -0.125, 0.03608439182435159)"><g><g style="fill: #ff9700;stroke: black;stroke-width: 0.885;" transform="matrix(1.0, 0.0, 0.0, 1.0, 0.0, 0.0)"><path d="M -0.125 0.07216878364870326 L 0.125 0.07216878364870326 L 5.551115123125783e-17 -0.14433756729740643 L -0.12500000000000006 0.07216878364870316 Z" style="vector-effect: non-scaling-stroke;" /></g><g style="fill: #ff9700;stroke: black;stroke-width: 0.885;" transform="matrix(1.0, 0.0, 0.0, 1.0, 0.25000000000000006, 0.0)"><path d="M -0.125 0.07216878364870326 L 0.125 0.07216878364870326 L 5.551115123125783e-17 -0.14433756729740643 L -0.12500000000000006 0.07216878364870316 Z" style="vector-effect: non-scaling-stroke;" /></g></g></g></g></g></g></g></g></g></g><g transform="matrix(1.0, 0.0, 0.0, 1.0, 0.0, 1.154700538379252)"><g transform="matrix(1.0, 0.0, 0.0, 1.0, -0.5000000000000001, -0.288675134594813)"><g><g><g><g style="fill: #ff9700;stroke: black;stroke-width: 0.885;" transform="matrix(1.0, 0.0, 0.0, 1.0, 0.0, 0.0)"><path d="M -0.125 0.07216878364870326 L 0.125 0.07216878364870326 L 5.551115123125783e-17 -0.14433756729740643 L -0.12500000000000006 0.07216878364870316 Z" style="vector-effect: non-scaling-stroke;" /></g><g transform="matrix(1.0, 0.0, 0.0, 1.0, 0.0, 0.18042195912175812)"><g transform="matrix(1.0, 0.0, 0.0, 1.0, -0.125, 0.03608439182435159)"><g><g style="fill: #ff9700;stroke: black;stroke-width: 0.885;" transform="matrix(1.0, 0.0, 0.0, 1.0, 0.0, 0.0)"><path d="M -0.125 0.07216878364870326 L 0.125 0.07216878364870326 L 5.551115123125783e-17 -0.14433756729740643 L -0.12500000000000006 0.07216878364870316 Z" style="vector-effect: non-scaling-stroke;" /></g><g style="fill: #ff9700;stroke: black;stroke-width: 0.885;" transform="matrix(1.0, 0.0, 0.0, 1.0, 0.25000000000000006, 0.0)"><path d="M -0.125 0.07216878364870326 L 0.125 0.07216878364870326 L 5.551115123125783e-17 -0.14433756729740643 L -0.12500000000000006 0.07216878364870316 Z" style="vector-effect: non-scaling-stroke;" /></g></g></g></g></g><g transform="matrix(1.0, 0.0, 0.0, 1.0, 0.0, 0.5051814855409227)"><g transform="matrix(1.0, 0.0, 0.0, 1.0, -0.2500000000000001, -0.07216878364870327)"><g><g><g style="fill: #ff9700;stroke: black;stroke-width: 0.885;" transform="matrix(1.0, 0.0, 0.0, 1.0, 0.0, 0.0)"><path d="M -0.125 0.07216878364870326 L 0.125 0.07216878364870326 L 5.551115123125783e-17 -0.14433756729740643 L -0.12500000000000006 0.07216878364870316 Z" style="vector-effect: non-scaling-stroke;" /></g><g transform="matrix(1.0, 0.0, 0.0, 1.0, 0.0, 0.18042195912175812)"><g transform="matrix(1.0, 0.0, 0.0, 1.0, -0.125, 0.03608439182435159)"><g><g style="fill: #ff9700;stroke: black;stroke-width: 0.885;" transform="matrix(1.0, 0.0, 0.0, 1.0, 0.0, 0.0)"><path d="M -0.125 0.07216878364870326 L 0.125 0.07216878364870326 L 5.551115123125783e-17 -0.14433756729740643 L -0.12500000000000006 0.07216878364870316 Z" style="vector-effect: non-scaling-stroke;" /></g><g style="fill: #ff9700;stroke: black;stroke-width: 0.885;" transform="matrix(1.0, 0.0, 0.0, 1.0, 0.25000000000000006, 0.0)"><path d="M -0.125 0.07216878364870326 L 0.125 0.07216878364870326 L 5.551115123125783e-17 -0.14433756729740643 L -0.12500000000000006 0.07216878364870316 Z" style="vector-effect: non-scaling-stroke;" /></g></g></g></g></g><g transform="matrix(1.0, 0.0, 0.0, 1.0, 0.5000000000000001, 0.0)"><g><g style="fill: #ff9700;stroke: black;stroke-width: 0.885;" transform="matrix(1.0, 0.0, 0.0, 1.0, 0.0, 0.0)"><path d="M -0.125 0.07216878364870326 L 0.125 0.07216878364870326 L 5.551115123125783e-17 -0.14433756729740643 L -0.12500000000000006 0.07216878364870316 Z" style="vector-effect: non-scaling-stroke;" /></g><g transform="matrix(1.0, 0.0, 0.0, 1.0, 0.0, 0.18042195912175812)"><g transform="matrix(1.0, 0.0, 0.0, 1.0, -0.125, 0.03608439182435159)"><g><g style="fill: #ff9700;stroke: black;stroke-width: 0.885;" transform="matrix(1.0, 0.0, 0.0, 1.0, 0.0, 0.0)"><path d="M -0.125 0.07216878364870326 L 0.125 0.07216878364870326 L 5.551115123125783e-17 -0.14433756729740643 L -0.12500000000000006 0.07216878364870316 Z" style="vector-effect: non-scaling-stroke;" /></g><g style="fill: #ff9700;stroke: black;stroke-width: 0.885;" transform="matrix(1.0, 0.0, 0.0, 1.0, 0.25000000000000006, 0.0)"><path d="M -0.125 0.07216878364870326 L 0.125 0.07216878364870326 L 5.551115123125783e-17 -0.14433756729740643 L -0.12500000000000006 0.07216878364870316 Z" style="vector-effect: non-scaling-stroke;" /></g></g></g></g></g></g></g></g></g></g><g transform="matrix(1.0, 0.0, 0.0, 1.0, 1.0000000000000004, 0.0)"><g><g><g style="fill: #ff9700;stroke: black;stroke-width: 0.885;" transform="matrix(1.0, 0.0, 0.0, 1.0, 0.0, 0.0)"><path d="M -0.125 0.07216878364870326 L 0.125 0.07216878364870326 L 5.551115123125783e-17 -0.14433756729740643 L -0.12500000000000006 0.07216878364870316 Z" style="vector-effect: non-scaling-stroke;" /></g><g transform="matrix(1.0, 0.0, 0.0, 1.0, 0.0, 0.18042195912175812)"><g transform="matrix(1.0, 0.0, 0.0, 1.0, -0.125, 0.03608439182435159)"><g><g style="fill: #ff9700;stroke: black;stroke-width: 0.885;" transform="matrix(1.0, 0.0, 0.0, 1.0, 0.0, 0.0)"><path d="M -0.125 0.07216878364870326 L 0.125 0.07216878364870326 L 5.551115123125783e-17 -0.14433756729740643 L -0.12500000000000006 0.07216878364870316 Z" style="vector-effect: non-scaling-stroke;" /></g><g style="fill: #ff9700;stroke: black;stroke-width: 0.885;" transform="matrix(1.0, 0.0, 0.0, 1.0, 0.25000000000000006, 0.0)"><path d="M -0.125 0.07216878364870326 L 0.125 0.07216878364870326 L 5.551115123125783e-17 -0.14433756729740643 L -0.12500000000000006 0.07216878364870316 Z" style="vector-effect: non-scaling-stroke;" /></g></g></g></g></g><g transform="matrix(1.0, 0.0, 0.0, 1.0, 0.0, 0.5051814855409227)"><g transform="matrix(1.0, 0.0, 0.0, 1.0, -0.2500000000000001, -0.07216878364870327)"><g><g><g style="fill: #ff9700;stroke: black;stroke-width: 0.885;" transform="matrix(1.0, 0.0, 0.0, 1.0, 0.0, 0.0)"><path d="M -0.125 0.07216878364870326 L 0.125 0.07216878364870326 L 5.551115123125783e-17 -0.14433756729740643 L -0.12500000000000006 0.07216878364870316 Z" style="vector-effect: non-scaling-stroke;" /></g><g transform="matrix(1.0, 0.0, 0.0, 1.0, 0.0, 0.18042195912175812)"><g transform="matrix(1.0, 0.0, 0.0, 1.0, -0.125, 0.03608439182435159)"><g><g style="fill: #ff9700;stroke: black;stroke-width: 0.885;" transform="matrix(1.0, 0.0, 0.0, 1.0, 0.0, 0.0)"><path d="M -0.125 0.07216878364870326 L 0.125 0.07216878364870326 L 5.551115123125783e-17 -0.14433756729740643 L -0.12500000000000006 0.07216878364870316 Z" style="vector-effect: non-scaling-stroke;" /></g><g style="fill: #ff9700;stroke: black;stroke-width: 0.885;" transform="matrix(1.0, 0.0, 0.0, 1.0, 0.25000000000000006, 0.0)"><path d="M -0.125 0.07216878364870326 L 0.125 0.07216878364870326 L 5.551115123125783e-17 -0.14433756729740643 L -0.12500000000000006 0.07216878364870316 Z" style="vector-effect: non-scaling-stroke;" /></g></g></g></g></g><g transform="matrix(1.0, 0.0, 0.0, 1.0, 0.5000000000000001, 0.0)"><g><g style="fill: #ff9700;stroke: black;stroke-width: 0.885;" transform="matrix(1.0, 0.0, 0.0, 1.0, 0.0, 0.0)"><path d="M -0.125 0.07216878364870326 L 0.125 0.07216878364870326 L 5.551115123125783e-17 -0.14433756729740643 L -0.12500000000000006 0.07216878364870316 Z" style="vector-effect: non-scaling-stroke;" /></g><g transform="matrix(1.0, 0.0, 0.0, 1.0, 0.0, 0.18042195912175812)"><g transform="matrix(1.0, 0.0, 0.0, 1.0, -0.125, 0.03608439182435159)"><g><g style="fill: #ff9700;stroke: black;stroke-width: 0.885;" transform="matrix(1.0, 0.0, 0.0, 1.0, 0.0, 0.0)"><path d="M -0.125 0.07216878364870326 L 0.125 0.07216878364870326 L 5.551115123125783e-17 -0.14433756729740643 L -0.12500000000000006 0.07216878364870316 Z" style="vector-effect: non-scaling-stroke;" /></g><g style="fill: #ff9700;stroke: black;stroke-width: 0.885;" transform="matrix(1.0, 0.0, 0.0, 1.0, 0.25000000000000006, 0.0)"><path d="M -0.125 0.07216878364870326 L 0.125 0.07216878364870326 L 5.551115123125783e-17 -0.14433756729740643 L -0.12500000000000006 0.07216878364870316 Z" style="vector-effect: non-scaling-stroke;" /></g></g></g></g></g></g></g></g></g></g></g></g></g></g></g><g transform="matrix(1.0, 0.0, 0.0, 1.0, 2.000000000000001, 0.0)"><g><g><g><g style="fill: #ff9700;stroke: black;stroke-width: 0.885;" transform="matrix(1.0, 0.0, 0.0, 1.0, 0.0, 0.0)"><path d="M -0.125 0.07216878364870326 L 0.125 0.07216878364870326 L 5.551115123125783e-17 -0.14433756729740643 L -0.12500000000000006 0.07216878364870316 Z" style="vector-effect: non-scaling-stroke;" /></g><g transform="matrix(1.0, 0.0, 0.0, 1.0, 0.0, 0.18042195912175812)"><g transform="matrix(1.0, 0.0, 0.0, 1.0, -0.125, 0.03608439182435159)"><g><g style="fill: #ff9700;stroke: black;stroke-width: 0.885;" transform="matrix(1.0, 0.0, 0.0, 1.0, 0.0, 0.0)"><path d="M -0.125 0.07216878364870326 L 0.125 0.07216878364870326 L 5.551115123125783e-17 -0.14433756729740643 L -0.12500000000000006 0.07216878364870316 Z" style="vector-effect: non-scaling-stroke;" /></g><g style="fill: #ff9700;stroke: black;stroke-width: 0.885;" transform="matrix(1.0, 0.0, 0.0, 1.0, 0.25000000000000006, 0.0)"><path d="M -0.125 0.07216878364870326 L 0.125 0.07216878364870326 L 5.551115123125783e-17 -0.14433756729740643 L -0.12500000000000006 0.07216878364870316 Z" style="vector-effect: non-scaling-stroke;" /></g></g></g></g></g><g transform="matrix(1.0, 0.0, 0.0, 1.0, 0.0, 0.5051814855409227)"><g transform="matrix(1.0, 0.0, 0.0, 1.0, -0.2500000000000001, -0.07216878364870327)"><g><g><g style="fill: #ff9700;stroke: black;stroke-width: 0.885;" transform="matrix(1.0, 0.0, 0.0, 1.0, 0.0, 0.0)"><path d="M -0.125 0.07216878364870326 L 0.125 0.07216878364870326 L 5.551115123125783e-17 -0.14433756729740643 L -0.12500000000000006 0.07216878364870316 Z" style="vector-effect: non-scaling-stroke;" /></g><g transform="matrix(1.0, 0.0, 0.0, 1.0, 0.0, 0.18042195912175812)"><g transform="matrix(1.0, 0.0, 0.0, 1.0, -0.125, 0.03608439182435159)"><g><g style="fill: #ff9700;stroke: black;stroke-width: 0.885;" transform="matrix(1.0, 0.0, 0.0, 1.0, 0.0, 0.0)"><path d="M -0.125 0.07216878364870326 L 0.125 0.07216878364870326 L 5.551115123125783e-17 -0.14433756729740643 L -0.12500000000000006 0.07216878364870316 Z" style="vector-effect: non-scaling-stroke;" /></g><g style="fill: #ff9700;stroke: black;stroke-width: 0.885;" transform="matrix(1.0, 0.0, 0.0, 1.0, 0.25000000000000006, 0.0)"><path d="M -0.125 0.07216878364870326 L 0.125 0.07216878364870326 L 5.551115123125783e-17 -0.14433756729740643 L -0.12500000000000006 0.07216878364870316 Z" style="vector-effect: non-scaling-stroke;" /></g></g></g></g></g><g transform="matrix(1.0, 0.0, 0.0, 1.0, 0.5000000000000001, 0.0)"><g><g style="fill: #ff9700;stroke: black;stroke-width: 0.885;" transform="matrix(1.0, 0.0, 0.0, 1.0, 0.0, 0.0)"><path d="M -0.125 0.07216878364870326 L 0.125 0.07216878364870326 L 5.551115123125783e-17 -0.14433756729740643 L -0.12500000000000006 0.07216878364870316 Z" style="vector-effect: non-scaling-stroke;" /></g><g transform="matrix(1.0, 0.0, 0.0, 1.0, 0.0, 0.18042195912175812)"><g transform="matrix(1.0, 0.0, 0.0, 1.0, -0.125, 0.03608439182435159)"><g><g style="fill: #ff9700;stroke: black;stroke-width: 0.885;" transform="matrix(1.0, 0.0, 0.0, 1.0, 0.0, 0.0)"><path d="M -0.125 0.07216878364870326 L 0.125 0.07216878364870326 L 5.551115123125783e-17 -0.14433756729740643 L -0.12500000000000006 0.07216878364870316 Z" style="vector-effect: non-scaling-stroke;" /></g><g style="fill: #ff9700;stroke: black;stroke-width: 0.885;" transform="matrix(1.0, 0.0, 0.0, 1.0, 0.25000000000000006, 0.0)"><path d="M -0.125 0.07216878364870326 L 0.125 0.07216878364870326 L 5.551115123125783e-17 -0.14433756729740643 L -0.12500000000000006 0.07216878364870316 Z" style="vector-effect: non-scaling-stroke;" /></g></g></g></g></g></g></g></g></g></g><g transform="matrix(1.0, 0.0, 0.0, 1.0, 0.0, 1.154700538379252)"><g transform="matrix(1.0, 0.0, 0.0, 1.0, -0.5000000000000001, -0.288675134594813)"><g><g><g><g style="fill: #ff9700;stroke: black;stroke-width: 0.885;" transform="matrix(1.0, 0.0, 0.0, 1.0, 0.0, 0.0)"><path d="M -0.125 0.07216878364870326 L 0.125 0.07216878364870326 L 5.551115123125783e-17 -0.14433756729740643 L -0.12500000000000006 0.07216878364870316 Z" style="vector-effect: non-scaling-stroke;" /></g><g transform="matrix(1.0, 0.0, 0.0, 1.0, 0.0, 0.18042195912175812)"><g transform="matrix(1.0, 0.0, 0.0, 1.0, -0.125, 0.03608439182435159)"><g><g style="fill: #ff9700;stroke: black;stroke-width: 0.885;" transform="matrix(1.0, 0.0, 0.0, 1.0, 0.0, 0.0)"><path d="M -0.125 0.07216878364870326 L 0.125 0.07216878364870326 L 5.551115123125783e-17 -0.14433756729740643 L -0.12500000000000006 0.07216878364870316 Z" style="vector-effect: non-scaling-stroke;" /></g><g style="fill: #ff9700;stroke: black;stroke-width: 0.885;" transform="matrix(1.0, 0.0, 0.0, 1.0, 0.25000000000000006, 0.0)"><path d="M -0.125 0.07216878364870326 L 0.125 0.07216878364870326 L 5.551115123125783e-17 -0.14433756729740643 L -0.12500000000000006 0.07216878364870316 Z" style="vector-effect: non-scaling-stroke;" /></g></g></g></g></g><g transform="matrix(1.0, 0.0, 0.0, 1.0, 0.0, 0.5051814855409227)"><g transform="matrix(1.0, 0.0, 0.0, 1.0, -0.2500000000000001, -0.07216878364870327)"><g><g><g style="fill: #ff9700;stroke: black;stroke-width: 0.885;" transform="matrix(1.0, 0.0, 0.0, 1.0, 0.0, 0.0)"><path d="M -0.125 0.07216878364870326 L 0.125 0.07216878364870326 L 5.551115123125783e-17 -0.14433756729740643 L -0.12500000000000006 0.07216878364870316 Z" style="vector-effect: non-scaling-stroke;" /></g><g transform="matrix(1.0, 0.0, 0.0, 1.0, 0.0, 0.18042195912175812)"><g transform="matrix(1.0, 0.0, 0.0, 1.0, -0.125, 0.03608439182435159)"><g><g style="fill: #ff9700;stroke: black;stroke-width: 0.885;" transform="matrix(1.0, 0.0, 0.0, 1.0, 0.0, 0.0)"><path d="M -0.125 0.07216878364870326 L 0.125 0.07216878364870326 L 5.551115123125783e-17 -0.14433756729740643 L -0.12500000000000006 0.07216878364870316 Z" style="vector-effect: non-scaling-stroke;" /></g><g style="fill: #ff9700;stroke: black;stroke-width: 0.885;" transform="matrix(1.0, 0.0, 0.0, 1.0, 0.25000000000000006, 0.0)"><path d="M -0.125 0.07216878364870326 L 0.125 0.07216878364870326 L 5.551115123125783e-17 -0.14433756729740643 L -0.12500000000000006 0.07216878364870316 Z" style="vector-effect: non-scaling-stroke;" /></g></g></g></g></g><g transform="matrix(1.0, 0.0, 0.0, 1.0, 0.5000000000000001, 0.0)"><g><g style="fill: #ff9700;stroke: black;stroke-width: 0.885;" transform="matrix(1.0, 0.0, 0.0, 1.0, 0.0, 0.0)"><path d="M -0.125 0.07216878364870326 L 0.125 0.07216878364870326 L 5.551115123125783e-17 -0.14433756729740643 L -0.12500000000000006 0.07216878364870316 Z" style="vector-effect: non-scaling-stroke;" /></g><g transform="matrix(1.0, 0.0, 0.0, 1.0, 0.0, 0.18042195912175812)"><g transform="matrix(1.0, 0.0, 0.0, 1.0, -0.125, 0.03608439182435159)"><g><g style="fill: #ff9700;stroke: black;stroke-width: 0.885;" transform="matrix(1.0, 0.0, 0.0, 1.0, 0.0, 0.0)"><path d="M -0.125 0.07216878364870326 L 0.125 0.07216878364870326 L 5.551115123125783e-17 -0.14433756729740643 L -0.12500000000000006 0.07216878364870316 Z" style="vector-effect: non-scaling-stroke;" /></g><g style="fill: #ff9700;stroke: black;stroke-width: 0.885;" transform="matrix(1.0, 0.0, 0.0, 1.0, 0.25000000000000006, 0.0)"><path d="M -0.125 0.07216878364870326 L 0.125 0.07216878364870326 L 5.551115123125783e-17 -0.14433756729740643 L -0.12500000000000006 0.07216878364870316 Z" style="vector-effect: non-scaling-stroke;" /></g></g></g></g></g></g></g></g></g></g><g transform="matrix(1.0, 0.0, 0.0, 1.0, 1.0000000000000004, 0.0)"><g><g><g style="fill: #ff9700;stroke: black;stroke-width: 0.885;" transform="matrix(1.0, 0.0, 0.0, 1.0, 0.0, 0.0)"><path d="M -0.125 0.07216878364870326 L 0.125 0.07216878364870326 L 5.551115123125783e-17 -0.14433756729740643 L -0.12500000000000006 0.07216878364870316 Z" style="vector-effect: non-scaling-stroke;" /></g><g transform="matrix(1.0, 0.0, 0.0, 1.0, 0.0, 0.18042195912175812)"><g transform="matrix(1.0, 0.0, 0.0, 1.0, -0.125, 0.03608439182435159)"><g><g style="fill: #ff9700;stroke: black;stroke-width: 0.885;" transform="matrix(1.0, 0.0, 0.0, 1.0, 0.0, 0.0)"><path d="M -0.125 0.07216878364870326 L 0.125 0.07216878364870326 L 5.551115123125783e-17 -0.14433756729740643 L -0.12500000000000006 0.07216878364870316 Z" style="vector-effect: non-scaling-stroke;" /></g><g style="fill: #ff9700;stroke: black;stroke-width: 0.885;" transform="matrix(1.0, 0.0, 0.0, 1.0, 0.25000000000000006, 0.0)"><path d="M -0.125 0.07216878364870326 L 0.125 0.07216878364870326 L 5.551115123125783e-17 -0.14433756729740643 L -0.12500000000000006 0.07216878364870316 Z" style="vector-effect: non-scaling-stroke;" /></g></g></g></g></g><g transform="matrix(1.0, 0.0, 0.0, 1.0, 0.0, 0.5051814855409227)"><g transform="matrix(1.0, 0.0, 0.0, 1.0, -0.2500000000000001, -0.07216878364870327)"><g><g><g style="fill: #ff9700;stroke: black;stroke-width: 0.885;" transform="matrix(1.0, 0.0, 0.0, 1.0, 0.0, 0.0)"><path d="M -0.125 0.07216878364870326 L 0.125 0.07216878364870326 L 5.551115123125783e-17 -0.14433756729740643 L -0.12500000000000006 0.07216878364870316 Z" style="vector-effect: non-scaling-stroke;" /></g><g transform="matrix(1.0, 0.0, 0.0, 1.0, 0.0, 0.18042195912175812)"><g transform="matrix(1.0, 0.0, 0.0, 1.0, -0.125, 0.03608439182435159)"><g><g style="fill: #ff9700;stroke: black;stroke-width: 0.885;" transform="matrix(1.0, 0.0, 0.0, 1.0, 0.0, 0.0)"><path d="M -0.125 0.07216878364870326 L 0.125 0.07216878364870326 L 5.551115123125783e-17 -0.14433756729740643 L -0.12500000000000006 0.07216878364870316 Z" style="vector-effect: non-scaling-stroke;" /></g><g style="fill: #ff9700;stroke: black;stroke-width: 0.885;" transform="matrix(1.0, 0.0, 0.0, 1.0, 0.25000000000000006, 0.0)"><path d="M -0.125 0.07216878364870326 L 0.125 0.07216878364870326 L 5.551115123125783e-17 -0.14433756729740643 L -0.12500000000000006 0.07216878364870316 Z" style="vector-effect: non-scaling-stroke;" /></g></g></g></g></g><g transform="matrix(1.0, 0.0, 0.0, 1.0, 0.5000000000000001, 0.0)"><g><g style="fill: #ff9700;stroke: black;stroke-width: 0.885;" transform="matrix(1.0, 0.0, 0.0, 1.0, 0.0, 0.0)"><path d="M -0.125 0.07216878364870326 L 0.125 0.07216878364870326 L 5.551115123125783e-17 -0.14433756729740643 L -0.12500000000000006 0.07216878364870316 Z" style="vector-effect: non-scaling-stroke;" /></g><g transform="matrix(1.0, 0.0, 0.0, 1.0, 0.0, 0.18042195912175812)"><g transform="matrix(1.0, 0.0, 0.0, 1.0, -0.125, 0.03608439182435159)"><g><g style="fill: #ff9700;stroke: black;stroke-width: 0.885;" transform="matrix(1.0, 0.0, 0.0, 1.0, 0.0, 0.0)"><path d="M -0.125 0.07216878364870326 L 0.125 0.07216878364870326 L 5.551115123125783e-17 -0.14433756729740643 L -0.12500000000000006 0.07216878364870316 Z" style="vector-effect: non-scaling-stroke;" /></g><g style="fill: #ff9700;stroke: black;stroke-width: 0.885;" transform="matrix(1.0, 0.0, 0.0, 1.0, 0.25000000000000006, 0.0)"><path d="M -0.125 0.07216878364870326 L 0.125 0.07216878364870326 L 5.551115123125783e-17 -0.14433756729740643 L -0.12500000000000006 0.07216878364870316 Z" style="vector-effect: non-scaling-stroke;" /></g></g></g></g></g></g></g></g></g></g></g></g></g></g></g></g></g></g></g></g></g><g /></g></g></g></g></svg>