<?xml version="1.0" encoding="utf-8" ?>
<svg baseProfile="full" height="256" version="1.1" width="296" xmlns="http://www.w3.org/2000/svg" xmlns:ev="http://www.w3.org/2001/xml-events" xmlns:xlink="http://www.w3.org/1999/xlink"><defs><marker id="arrow" markerHeight="3.5" markerWidth="5" orient="auto" refX="5.0" refY="1.7"><polygon points="0,0 5,1.75 0,3.5" /></marker></defs><g style="fill:white;" /><g style="fill: rgb(256.0 151.59215686274507 0.0);stroke: rgb(0.0 0.0 0.0); stroke-width: 0.1;fill-opacity: 1.0;" transform="matrix(70.38174710120728, 0.0, 0.0, 70.38174710120728, 140.76349420241849, 10.158730158729739)"><path d="M -0.12500000000000008 0.0721687836487052 L 0.12500000000000183 0.07216878364870284 L 0.0 -0.14433756729740743 L -0.12499999999999652 0.07216878364870517 Z" style="vector-effect: non-scaling-stroke;" /></g><g style="fill: rgb(256.0 151.59215686274507 0.0);stroke: rgb(0.0 0.0 0.0); stroke-width: 0.1;fill-opacity: 1.0;" transform="matrix(70.38174710120728, 0.0, 0.0, 70.38174710120728, 131.9657758147673, 25.396825396824976)"><path d="M -0.12500000000000008 0.0721687836487052 L 0.12500000000000183 0.07216878364870284 L 0.0 -0.14433756729740743 L -0.12499999999999652 0.07216878364870517 Z" style="vector-effect: non-scaling-stroke;" /></g><g style="fill: rgb(256.0 151.59215686274507 0.0);stroke: rgb(0.0 0.0 0.0); stroke-width: 0.1;fill-opacity: 1.0;" transform="matrix(70.38174710120728, 0.0, 0.0, 70.38174710120728, 149.56121259006966, 25.396825396824976)"><path d="M -0.12500000000000008 0.0721687836487052 L 0.12500000000000183 0.07216878364870284 L 0.0 -0.14433756729740743 L -0.12499999999999652 0.07216878364870517 Z" style="vector-effect: non-scaling-stroke;" /></g><g style="fill: rgb(256.0 151.59215686274507 0.0);stroke: rgb(0.0 0.0 0.0); stroke-width: 0.1;fill-opacity: 1.0;" transform="matrix(70.38174710120728, 0.0, 0.0, 70.38174710120728, 123.16805742711617, 40.63492063492021)"><path d="M -0.12500000000000008 0.0721687836487052 L 0.12500000000000183 0.07216878364870284 L 0.0 -0.14433756729740743 L -0.12499999999999652 0.07216878364870517 Z" style="vector-effect: non-scaling-stroke;" /></g><g style="fill: rgb(256.0 151.59215686274507 0.0);stroke: rgb(0.0 0.0 0.0); stroke-width: 0.1;fill-opacity: 1.0;" transform="matrix(70.38174710120728, 0.0, 0.0, 70.38174710120728, 114.37033903946501, 55.873015873015454)"><path d="M -0.12500000000000008 0.0721687836487052 L 0.12500000000000183 0.07216878364870284 L 0.0 -0.14433756729740743 L -0.12499999999999652 0.07216878364870517 Z" style="vector-effect: non-scaling-stroke;" /></g><g style="fill: rgb(256.0 151.59215686274507 0.0);stroke: rgb(0.0 0.0 0.0); stroke-width: 0.1;fill-opacity: 1.0;" transform="matrix(70.38174710120728, 0.0, 0.0, 70.38174710120728, 131.9657758147673, 55.873015873015454)"><path d="M -0.12500000000000008 0.0721687836487052 L 0.12500000000000183 0.07216878364870284 L 0.0 -0.14433756729740743 L -0.12499999999999652 0.07216878364870517 Z" style="vector-effect: non-scaling-stroke;" /></g><g style="fill: rgb(256.0 151.59215686274507 0.0);stroke: rgb(0.0 0.0 0.0); stroke-width: 0.1;fill-opacity: 1.0;" transform="matrix(70.38174710120728, 0.0, 0.0, 70.38174710120728, 158.3589309777208, 40.63492063492021)"><path d="M -0.12500000000000008 0.0721687836487052 L 0.12500000000000183 0.07216878364870284 L 0.0 -0.14433756729740743 L -0.12499999999999652 0.07216878364870517 Z" style="vector-effect: non-scaling-stroke;" /></g><g style="fill: rgb(256.0 151.59215686274507 0.0);stroke: rgb(0.0 0.0 0.0); stroke-width: 0.1;fill-opacity: 1.0;" transform="matrix(70.38174710120728, 0.0, 0.0, 70.38174710120728, 149.56121259006966, 55.873015873015454)"><path d="M -0.12500000000000008 0.0721687836487052 L 0.12500000000000183 0.07216878364870284 L 0.0 -0.14433756729740743 L -0.12499999999999652 0.07216878364870517 Z" style="vector-effect: non-scaling-stroke;" /></g><g style="fill: rgb(256.0 151.59215686274507 0.0);stroke: rgb(0.0 0.0 0.0); stroke-width: 0.1;fill-opacity: 1.0;" transform="matrix(70.38174710120728, 0.0, 0.0, 70.38174710120728, 167.15664936537198, 55.873015873015454)"><path d="M -0.12500000000000008 0.0721687836487052 L 0.12500000000000183 0.07216878364870284 L 0.0 -0.14433756729740743 L -0.12499999999999652 0.07216878364870517 Z" style="vector-effect: non-scaling-stroke;" /></g><g style="fill: rgb(256.0 151.59215686274507 0.0);stroke: rgb(0.0 0.0 0.0); stroke-width: 0.1;fill-opacity: 1.0;" transform="matrix(70.38174710120728, 0.0, 0.0, 70.38174710120728, 105.57262065181385, 71.11111111111069)"><path d="M -0.12500000000000008 0.0721687836487052 L 0.12500000000000183 0.07216878364870284 L 0.0 -0.14433756729740743 L -0.12499999999999652 0.07216878364870517 Z" style="vector-effect: non-scaling-stroke;" /></g><g style="fill: rgb(256.0 151.59215686274507 0.0);stroke: rgb(0.0 0.0 0.0); stroke-width: 0.1;fill-opacity: 1.0;" transform="matrix(70.38174710120728, 0.0, 0.0, 70.38174710120728, 96.77490226416268, 86.34920634920593)"><path d="M -0.12500000000000008 0.0721687836487052 L 0.12500000000000183 0.07216878364870284 L 0.0 -0.14433756729740743 L -0.12499999999999652 0.07216878364870517 Z" style="vector-effect: non-scaling-stroke;" /></g><g style="fill: rgb(256.0 151.59215686274507 0.0);stroke: rgb(0.0 0.0 0.0); stroke-width: 0.1;fill-opacity: 1.0;" transform="matrix(70.38174710120728, 0.0, 0.0, 70.38174710120728, 114.37033903946501, 86.34920634920593)"><path d="M -0.12500000000000008 0.0721687836487052 L 0.12500000000000183 0.07216878364870284 L 0.0 -0.14433756729740743 L -0.12499999999999652 0.07216878364870517 Z" style="vector-effect: non-scaling-stroke;" /></g><g style="fill: rgb(256.0 151.59215686274507 0.0);stroke: rgb(0.0 0.0 0.0); stroke-width: 0.1;fill-opacity: 1.0;" transform="matrix(70.38174710120728, 0.0, 0.0, 70.38174710120728, 87.97718387651153, 101.58730158730117)"><path d="M -0.12500000000000008 0.0721687836487052 L 0.12500000000000183 0.07216878364870284 L 0.0 -0.14433756729740743 L -0.12499999999999652 0.07216878364870517 Z" style="vector-effect: non-scaling-stroke;" /></g><g style="fill: rgb(256.0 151.59215686274507 0.0);stroke: rgb(0.0 0.0 0.0); stroke-width: 0.1;fill-opacity: 1.0;" transform="matrix(70.38174710120728, 0.0, 0.0, 70.38174710120728, 79.17946548886036, 116.8253968253964)"><path d="M -0.12500000000000008 0.0721687836487052 L 0.12500000000000183 0.07216878364870284 L 0.0 -0.14433756729740743 L -0.12499999999999652 0.07216878364870517 Z" style="vector-effect: non-scaling-stroke;" /></g><g style="fill: rgb(256.0 151.59215686274507 0.0);stroke: rgb(0.0 0.0 0.0); stroke-width: 0.1;fill-opacity: 1.0;" transform="matrix(70.38174710120728, 0.0, 0.0, 70.38174710120728, 96.77490226416268, 116.8253968253964)"><path d="M -0.12500000000000008 0.0721687836487052 L 0.12500000000000183 0.07216878364870284 L 0.0 -0.14433756729740743 L -0.12499999999999652 0.07216878364870517 Z" style="vector-effect: non-scaling-stroke;" /></g><g style="fill: rgb(256.0 151.59215686274507 0.0);stroke: rgb(0.0 0.0 0.0); stroke-width: 0.1;fill-opacity: 1.0;" transform="matrix(70.38174710120728, 0.0, 0.0, 70.38174710120728, 123.16805742711617, 101.58730158730117)"><path d="M -0.12500000000000008 0.0721687836487052 L 0.12500000000000183 0.07216878364870284 L 0.0 -0.14433756729740743 L -0.12499999999999652 0.07216878364870517 Z" style="vector-effect: non-scaling-stroke;" /></g><g style="fill: rgb(256.0 151.59215686274507 0.0);stroke: rgb(0.0 0.0 0.0); stroke-width: 0.1;fill-opacity: 1.0;" transform="matrix(70.38174710120728, 0.0, 0.0, 70.38174710120728, 114.37033903946501, 116.8253968253964)"><path d="M -0.12500000000000008 0.0721687836487052 L 0.12500000000000183 0.07216878364870284 L 0.0 -0.14433756729740743 L -0.12499999999999652 0.07216878364870517 Z" style="vector-effect: non-scaling-stroke;" /></g><g style="fill: rgb(256.0 151.59215686274507 0.0);stroke: rgb(0.0 0.0 0.0); stroke-width: 0.1;fill-opacity: 1.0;" transform="matrix(70.38174710120728, 0.0, 0.0, 70.38174710120728, 131.9657758147673, 116.8253968253964)"><path d="M -0.12500000000000008 0.0721687836487052 L 0.12500000000000183 0.07216878364870284 L 0.0 -0.14433756729740743 L -0.12499999999999652 0.07216878364870517 Z" style="vector-effect: non-scaling-stroke;" /></g><g style="fill: rgb(256.0 151.59215686274507 0.0);stroke: rgb(0.0 0.0 0.0); stroke-width: 0.1;fill-opacity: 1.0;" transform="matrix(70.38174710120728, 0.0, 0.0, 70.38174710120728, 175.95436775302312, 71.11111111111069)"><path d="M -0.12500000000000008 0.0721687836487052 L 0.12500000000000183 0.07216878364870284 L 0.0 -0.14433756729740743 L -0.12499999999999652 0.07216878364870517 Z" style="vector-effect: non-scaling-stroke;" /></g><g style="fill: rgb(256.0 151.59215686274507 0.0);stroke: rgb(0.0 0.0 0.0); stroke-width: 0.1;fill-opacity: 1.0;" transform="matrix(70.38174710120728, 0.0, 0.0, 70.38174710120728, 167.15664936537198, 86.34920634920593)"><path d="M -0.12500000000000008 0.0721687836487052 L 0.12500000000000183 0.07216878364870284 L 0.0 -0.14433756729740743 L -0.12499999999999652 0.07216878364870517 Z" style="vector-effect: non-scaling-stroke;" /></g><g style="fill: rgb(256.0 151.59215686274507 0.0);stroke: rgb(0.0 0.0 0.0); stroke-width: 0.1;fill-opacity: 1.0;" transform="matrix(70.38174710120728, 0.0, 0.0, 70.38174710120728, 184.7520861406743, 86.34920634920593)"><path d="M -0.12500000000000008 0.0721687836487052 L 0.12500000000000183 0.07216878364870284 L 0.0 -0.14433756729740743 L -0.12499999999999652 0.07216878364870517 Z" style="vector-effect: non-scaling-stroke;" /></g><g style="fill: rgb(256.0 151.59215686274507 0.0);stroke: rgb(0.0 0.0 0.0); stroke-width: 0.1;fill-opacity: 1.0;" transform="matrix(70.38174710120728, 0.0, 0.0, 70.38174710120728, 158.3589309777208, 101.58730158730117)"><path d="M -0.12500000000000008 0.0721687836487052 L 0.12500000000000183 0.07216878364870284 L 0.0 -0.14433756729740743 L -0.12499999999999652 0.07216878364870517 Z" style="vector-effect: non-scaling-stroke;" /></g><g style="fill: rgb(256.0 151.59215686274507 0.0);stroke: rgb(0.0 0.0 0.0); stroke-width: 0.1;fill-opacity: 1.0;" transform="matrix(70.38174710120728, 0.0, 0.0, 70.38174710120728, 149.56121259006966, 116.8253968253964)"><path d="M -0.12500000000000008 0.0721687836487052 L 0.12500000000000183 0.07216878364870284 L 0.0 -0.14433756729740743 L -0.12499999999999652 0.07216878364870517 Z" style="vector-effect: non-scaling-stroke;" /></g><g style="fill: rgb(256.0 151.59215686274507 0.0);stroke: rgb(0.0 0.0 0.0); stroke-width: 0.1;fill-opacity: 1.0;" transform="matrix(70.38174710120728, 0.0, 0.0, 70.38174710120728, 167.15664936537198, 116.8253968253964)"><path d="M -0.12500000000000008 0.0721687836487052 L 0.12500000000000183 0.07216878364870284 L 0.0 -0.14433756729740743 L -0.12499999999999652 0.07216878364870517 Z" style="vector-effect: non-scaling-stroke;" /></g><g style="fill: rgb(256.0 151.59215686274507 0.0);stroke: rgb(0.0 0.0 0.0); stroke-width: 0.1;fill-opacity: 1.0;" transform="matrix(70.38174710120728, 0.0, 0.0, 70.38174710120728, 193.54980452832544, 101.58730158730117)"><path d="M -0.12500000000000008 0.0721687836487052 L 0.12500000000000183 0.07216878364870284 L 0.0 -0.14433756729740743 L -0.12499999999999652 0.07216878364870517 Z" style="vector-effect: non-scaling-stroke;" /></g><g style="fill: rgb(256.0 151.59215686274507 0.0);stroke: rgb(0.0 0.0 0.0); stroke-width: 0.1;fill-opacity: 1.0;" transform="matrix(70.38174710120728, 0.0, 0.0, 70.38174710120728, 184.7520861406743, 116.8253968253964)"><path d="M -0.12500000000000008 0.0721687836487052 L 0.12500000000000183 0.07216878364870284 L 0.0 -0.14433756729740743 L -0.12499999999999652 0.07216878364870517 Z" style="vector-effect: non-scaling-stroke;" /></g><g style="fill: rgb(256.0 151.59215686274507 0.0);stroke: rgb(0.0 0.0 0.0); stroke-width: 0.1;fill-opacity: 1.0;" transform="matrix(70.38174710120728, 0.0, 0.0, 70.38174710120728, 202.3475229159766, 116.8253968253964)"><path d="M -0.12500000000000008 0.0721687836487052 L 0.12500000000000183 0.07216878364870284 L 0.0 -0.14433756729740743 L -0.12499999999999652 0.07216878364870517 Z" style="vector-effect: non-scaling-stroke;" /></g><g style="fill: rgb(256.0 151.59215686274507 0.0);stroke: rgb(0.0 0.0 0.0); stroke-width: 0.1;fill-opacity: 1.0;" transform="matrix(70.38174710120728, 0.0, 0.0, 70.38174710120728, 70.3817471012092, 132.06349206349165)"><path d="M -0.12500000000000008 0.0721687836487052 L 0.12500000000000183 0.07216878364870284 L 0.0 -0.14433756729740743 L -0.12499999999999652 0.07216878364870517 Z" style="vector-effect: non-scaling-stroke;" /></g><g style="fill: rgb(256.0 151.59215686274507 0.0);stroke: rgb(0.0 0.0 0.0); stroke-width: 0.1;fill-opacity: 1.0;" transform="matrix(70.38174710120728, 0.0, 0.0, 70.38174710120728, 61.58402871355804, 147.3015873015869)"><path d="M -0.12500000000000008 0.0721687836487052 L 0.12500000000000183 0.07216878364870284 L 0.0 -0.14433756729740743 L -0.12499999999999652 0.07216878364870517 Z" style="vector-effect: non-scaling-stroke;" /></g><g style="fill: rgb(256.0 151.59215686274507 0.0);stroke: rgb(0.0 0.0 0.0); stroke-width: 0.1;fill-opacity: 1.0;" transform="matrix(70.38174710120728, 0.0, 0.0, 70.38174710120728, 79.17946548886036, 147.3015873015869)"><path d="M -0.12500000000000008 0.0721687836487052 L 0.12500000000000183 0.07216878364870284 L 0.0 -0.14433756729740743 L -0.12499999999999652 0.07216878364870517 Z" style="vector-effect: non-scaling-stroke;" /></g><g style="fill: rgb(256.0 151.59215686274507 0.0);stroke: rgb(0.0 0.0 0.0); stroke-width: 0.1;fill-opacity: 1.0;" transform="matrix(70.38174710120728, 0.0, 0.0, 70.38174710120728, 52.78631032590688, 162.53968253968213)"><path d="M -0.12500000000000008 0.0721687836487052 L 0.12500000000000183 0.07216878364870284 L 0.0 -0.14433756729740743 L -0.12499999999999652 0.07216878364870517 Z" style="vector-effect: non-scaling-stroke;" /></g><g style="fill: rgb(256.0 151.59215686274507 0.0);stroke: rgb(0.0 0.0 0.0); stroke-width: 0.1;fill-opacity: 1.0;" transform="matrix(70.38174710120728, 0.0, 0.0, 70.38174710120728, 43.98859193825572, 177.77777777777737)"><path d="M -0.12500000000000008 0.0721687836487052 L 0.12500000000000183 0.07216878364870284 L 0.0 -0.14433756729740743 L -0.12499999999999652 0.07216878364870517 Z" style="vector-effect: non-scaling-stroke;" /></g><g style="fill: rgb(256.0 151.59215686274507 0.0);stroke: rgb(0.0 0.0 0.0); stroke-width: 0.1;fill-opacity: 1.0;" transform="matrix(70.38174710120728, 0.0, 0.0, 70.38174710120728, 61.58402871355804, 177.77777777777737)"><path d="M -0.12500000000000008 0.0721687836487052 L 0.12500000000000183 0.07216878364870284 L 0.0 -0.14433756729740743 L -0.12499999999999652 0.07216878364870517 Z" style="vector-effect: non-scaling-stroke;" /></g><g style="fill: rgb(256.0 151.59215686274507 0.0);stroke: rgb(0.0 0.0 0.0); stroke-width: 0.1;fill-opacity: 1.0;" transform="matrix(70.38174710120728, 0.0, 0.0, 70.38174710120728, 87.97718387651153, 162.53968253968213)"><path d="M -0.12500000000000008 0.0721687836487052 L 0.12500000000000183 0.07216878364870284 L 0.0 -0.14433756729740743 L -0.12499999999999652 0.07216878364870517 Z" style="vector-effect: non-scaling-stroke;" /></g><g style="fill: rgb(256.0 151.59215686274507 0.0);stroke: rgb(0.0 0.0 0.0); stroke-width: 0.1;fill-opacity: 1.0;" transform="matrix(70.38174710120728, 0.0, 0.0, 70.38174710120728, 79.17946548886036, 177.77777777777737)"><path d="M -0.12500000000000008 0.0721687836487052 L 0.12500000000000183 0.07216878364870284 L 0.0 -0.14433756729740743 L -0.12499999999999652 0.07216878364870517 Z" style="vector-effect: non-scaling-stroke;" /></g><g style="fill: rgb(256.0 151.59215686274507 0.0);stroke: rgb(0.0 0.0 0.0); stroke-width: 0.1;fill-opacity: 1.0;" transform="matrix(70.38174710120728, 0.0, 0.0, 70.38174710120728, 96.77490226416268, 177.77777777777737)"><path d="M -0.12500000000000008 0.0721687836487052 L 0.12500000000000183 0.07216878364870284 L 0.0 -0.14433756729740743 L -0.12499999999999652 0.07216878364870517 Z" style="vector-effect: non-scaling-stroke;" /></g><g style="fill: rgb(256.0 151.59215686274507 0.0);stroke: rgb(0.0 0.0 0.0); stroke-width: 0.1;fill-opacity: 1.0;" transform="matrix(70.38174710120728, 0.0, 0.0, 70.38174710120728, 35.190873550604564, 193.01587301587261)"><path d="M -0.12500000000000008 0.0721687836487052 L 0.12500000000000183 0.07216878364870284 L 0.0 -0.14433756729740743 L -0.12499999999999652 0.07216878364870517 Z" style="vector-effect: non-scaling-stroke;" /></g><g style="fill: rgb(256.0 151.59215686274507 0.0);stroke: rgb(0.0 0.0 0.0); stroke-width: 0.1;fill-opacity: 1.0;" transform="matrix(70.38174710120728, 0.0, 0.0, 70.38174710120728, 26.393155162953406, 208.2539682539678)"><path d="M -0.12500000000000008 0.0721687836487052 L 0.12500000000000183 0.07216878364870284 L 0.0 -0.14433756729740743 L -0.12499999999999652 0.07216878364870517 Z" style="vector-effect: non-scaling-stroke;" /></g><g style="fill: rgb(256.0 151.59215686274507 0.0);stroke: rgb(0.0 0.0 0.0); stroke-width: 0.1;fill-opacity: 1.0;" transform="matrix(70.38174710120728, 0.0, 0.0, 70.38174710120728, 43.98859193825572, 208.2539682539678)"><path d="M -0.12500000000000008 0.0721687836487052 L 0.12500000000000183 0.07216878364870284 L 0.0 -0.14433756729740743 L -0.12499999999999652 0.07216878364870517 Z" style="vector-effect: non-scaling-stroke;" /></g><g style="fill: rgb(256.0 151.59215686274507 0.0);stroke: rgb(0.0 0.0 0.0); stroke-width: 0.1;fill-opacity: 1.0;" transform="matrix(70.38174710120728, 0.0, 0.0, 70.38174710120728, 17.595436775302247, 223.49206349206304)"><path d="M -0.12500000000000008 0.0721687836487052 L 0.12500000000000183 0.07216878364870284 L 0.0 -0.14433756729740743 L -0.12499999999999652 0.07216878364870517 Z" style="vector-effect: non-scaling-stroke;" /></g><g style="fill: rgb(256.0 151.59215686274507 0.0);stroke: rgb(0.0 0.0 0.0); stroke-width: 0.1;fill-opacity: 1.0;" transform="matrix(70.38174710120728, 0.0, 0.0, 70.38174710120728, 8.797718387651088, 238.73015873015828)"><path d="M -0.12500000000000008 0.0721687836487052 L 0.12500000000000183 0.07216878364870284 L 0.0 -0.14433756729740743 L -0.12499999999999652 0.07216878364870517 Z" style="vector-effect: non-scaling-stroke;" /></g><g style="fill: rgb(256.0 151.59215686274507 0.0);stroke: rgb(0.0 0.0 0.0); stroke-width: 0.1;fill-opacity: 1.0;" transform="matrix(70.38174710120728, 0.0, 0.0, 70.38174710120728, 26.393155162953406, 238.73015873015828)"><path d="M -0.12500000000000008 0.0721687836487052 L 0.12500000000000183 0.07216878364870284 L 0.0 -0.14433756729740743 L -0.12499999999999652 0.07216878364870517 Z" style="vector-effect: non-scaling-stroke;" /></g><g style="fill: rgb(256.0 151.59215686274507 0.0);stroke: rgb(0.0 0.0 0.0); stroke-width: 0.1;fill-opacity: 1.0;" transform="matrix(70.38174710120728, 0.0, 0.0, 70.38174710120728, 52.78631032590688, 223.49206349206304)"><path d="M -0.12500000000000008 0.0721687836487052 L 0.12500000000000183 0.07216878364870284 L 0.0 -0.14433756729740743 L -0.12499999999999652 0.07216878364870517 Z" style="vector-effect: non-scaling-stroke;" /></g><g style="fill: rgb(256.0 151.59215686274507 0.0);stroke: rgb(0.0 0.0 0.0); stroke-width: 0.1;fill-opacity: 1.0;" transform="matrix(70.38174710120728, 0.0, 0.0, 70.38174710120728, 43.98859193825572, 238.73015873015828)"><path d="M -0.12500000000000008 0.0721687836487052 L 0.12500000000000183 0.07216878364870284 L 0.0 -0.14433756729740743 L -0.12499999999999652 0.07216878364870517 Z" style="vector-effect: non-scaling-stroke;" /></g><g style="fill: rgb(256.0 151.59215686274507 0.0);stroke: rgb(0.0 0.0 0.0); stroke-width: 0.1;fill-opacity: 1.0;" transform="matrix(70.38174710120728, 0.0, 0.0, 70.38174710120728, 61.58402871355804, 238.73015873015828)"><path d="M -0.12500000000000008 0.0721687836487052 L 0.12500000000000183 0.07216878364870284 L 0.0 -0.14433756729740743 L -0.12499999999999652 0.07216878364870517 Z" style="vector-effect: non-scaling-stroke;" /></g><g style="fill: rgb(256.0 151.59215686274507 0.0);stroke: rgb(0.0 0.0 0.0); stroke-width: 0.1;fill-opacity: 1.0;" transform="matrix(70.38174710120728, 0.0, 0.0, 70.38174710120728, 105.57262065181385, 193.01587301587261)"><path d="M -0.12500000000000008 0.0721687836487052 L 0.12500000000000183 0.07216878364870284 L 0.0 -0.14433756729740743 L -0.12499999999999652 0.07216878364870517 Z" style="vector-effect: non-scaling-stroke;" /></g><g style="fill: rgb(256.0 151.59215686274507 0.0);stroke: rgb(0.0 0.0 0.0); stroke-width: 0.1;fill-opacity: 1.0;" transform="matrix(70.38174710120728, 0.0, 0.0, 70.38174710120728, 96.77490226416268, 208.2539682539678)"><path d="M -0.12500000000000008 0.0721687836487052 L 0.12500000000000183 0.07216878364870284 L 0.0 -0.14433756729740743 L -0.12499999999999652 0.07216878364870517 Z" style="vector-effect: non-scaling-stroke;" /></g><g style="fill: rgb(256.0 151.59215686274507 0.0);stroke: rgb(0.0 0.0 0.0); stroke-width: 0.1;fill-opacity: 1.0;" transform="matrix(70.38174710120728, 0.0, 0.0, 70.38174710120728, 114.37033903946501, 208.2539682539678)"><path d="M -0.12500000000000008 0.0721687836487052 L 0.12500000000000183 0.07216878364870284 L 0.0 -0.14433756729740743 L -0.12499999999999652 0.07216878364870517 Z" style="vector-effect: non-scaling-stroke;" /></g><g style="fill: rgb(256.0 151.59215686274507 0.0);stroke: rgb(0.0 0.0 0.0); stroke-width: 0.1;fill-opacity: 1.0;" transform="matrix(70.38174710120728, 0.0, 0.0, 70.38174710120728, 87.97718387651153, 223.49206349206304)"><path d="M -0.12500000000000008 0.0721687836487052 L 0.12500000000000183 0.07216878364870284 L 0.0 -0.14433756729740743 L -0.12499999999999652 0.07216878364870517 Z" style="vector-effect: non-scaling-stroke;" /></g><g style="fill: rgb(256.0 151.59215686274507 0.0);stroke: rgb(0.0 0.0 0.0); stroke-width: 0.1;fill-opacity: 1.0;" transform="matrix(70.38174710120728, 0.0, 0.0, 70.38174710120728, 79.17946548886036, 238.73015873015828)"><path d="M -0.12500000000000008 0.0721687836487052 L 0.12500000000000183 0.07216878364870284 L 0.0 -0.14433756729740743 L -0.12499999999999652 0.07216878364870517 Z" style="vector-effect: non-scaling-stroke;" /></g><g style="fill: rgb(256.0 151.59215686274507 0.0);stroke: rgb(0.0 0.0 0.0); stroke-width: 0.1;fill-opacity: 1.0;" transform="matrix(70.38174710120728, 0.0, 0.0, 70.38174710120728, 96.77490226416268, 238.73015873015828)"><path d="M -0.12500000000000008 0.0721687836487052 L 0.12500000000000183 0.07216878364870284 L 0.0 -0.14433756729740743 L -0.12499999999999652 0.07216878364870517 Z" style="vector-effect: non-scaling-stroke;" /></g><g style="fill: rgb(256.0 151.59215686274507 0.0);stroke: rgb(0.0 0.0 0.0); stroke-width: 0.1;fill-opacity: 1.0;" transform="matrix(70.38174710120728, 0.0, 0.0, 70.38174710120728, 123.16805742711617, 223.49206349206304)"><path d="M -0.12500000000000008 0.0721687836487052 L 0.12500000000000183 0.07216878364870284 L 0.0 -0.14433756729740743 L -0.12499999999999652 0.07216878364870517 Z" style="vector-effect: non-scaling-stroke;" /></g><g style="fill: rgb(256.0 151.59215686274507 0.0);stroke: rgb(0.0 0.0 0.0); stroke-width: 0.1;fill-opacity: 1.0;" transform="matrix(70.38174710120728, 0.0, 0.0, 70.38174710120728, 114.37033903946501, 238.73015873015828)"><path d="M -0.12500000000000008 0.0721687836487052 L 0.12500000000000183 0.07216878364870284 L 0.0 -0.14433756729740743 L -0.12499999999999652 0.07216878364870517 Z" style="vector-effect: non-scaling-stroke;" /></g><g style="fill: rgb(256.0 151.59215686274507 0.0);stroke: rgb(0.0 0.0 0.0); stroke-width: 0.1;fill-opacity: 1.0;" transform="matrix(70.38174710120728, 0.0, 0.0, 70.38174710120728, 131.9657758147673, 238.73015873015828)"><path d="M -0.12500000000000008 0.0721687836487052 L 0.12500000000000183 0.07216878364870284 L 0.0 -0.14433756729740743 L -0.12499999999999652 0.07216878364870517 Z" style="vector-effect: non-scaling-stroke;" /></g><g style="fill: rgb(256.0 151.59215686274507 0.0);stroke: rgb(0.0 0.0 0.0); stroke-width: 0.1;fill-opacity: 1.0;" transform="matrix(70.38174710120728, 0.0, 0.0, 70.38174710120728, 211.14524130362776, 132.06349206349165)"><path d="M -0.12500000000000008 0.0721687836487052 L 0.12500000000000183 0.07216878364870284 L 0.0 -0.14433756729740743 L -0.12499999999999652 0.07216878364870517 Z" style="vector-effect: non-scaling-stroke;" /></g><g style="fill: rgb(256.0 151.59215686274507 0.0);stroke: rgb(0.0 0.0 0.0); stroke-width: 0.1;fill-opacity: 1.0;" transform="matrix(70.38174710120728, 0.0, 0.0, 70.38174710120728, 202.3475229159766, 147.3015873015869)"><path d="M -0.12500000000000008 0.0721687836487052 L 0.12500000000000183 0.07216878364870284 L 0.0 -0.14433756729740743 L -0.12499999999999652 0.07216878364870517 Z" style="vector-effect: non-scaling-stroke;" /></g><g style="fill: rgb(256.0 151.59215686274507 0.0);stroke: rgb(0.0 0.0 0.0); stroke-width: 0.1;fill-opacity: 1.0;" transform="matrix(70.38174710120728, 0.0, 0.0, 70.38174710120728, 219.94295969127893, 147.3015873015869)"><path d="M -0.12500000000000008 0.0721687836487052 L 0.12500000000000183 0.07216878364870284 L 0.0 -0.14433756729740743 L -0.12499999999999652 0.07216878364870517 Z" style="vector-effect: non-scaling-stroke;" /></g><g style="fill: rgb(256.0 151.59215686274507 0.0);stroke: rgb(0.0 0.0 0.0); stroke-width: 0.1;fill-opacity: 1.0;" transform="matrix(70.38174710120728, 0.0, 0.0, 70.38174710120728, 193.54980452832544, 162.53968253968213)"><path d="M -0.12500000000000008 0.0721687836487052 L 0.12500000000000183 0.07216878364870284 L 0.0 -0.14433756729740743 L -0.12499999999999652 0.07216878364870517 Z" style="vector-effect: non-scaling-stroke;" /></g><g style="fill: rgb(256.0 151.59215686274507 0.0);stroke: rgb(0.0 0.0 0.0); stroke-width: 0.1;fill-opacity: 1.0;" transform="matrix(70.38174710120728, 0.0, 0.0, 70.38174710120728, 184.7520861406743, 177.77777777777737)"><path d="M -0.12500000000000008 0.0721687836487052 L 0.12500000000000183 0.07216878364870284 L 0.0 -0.14433756729740743 L -0.12499999999999652 0.07216878364870517 Z" style="vector-effect: non-scaling-stroke;" /></g><g style="fill: rgb(256.0 151.59215686274507 0.0);stroke: rgb(0.0 0.0 0.0); stroke-width: 0.1;fill-opacity: 1.0;" transform="matrix(70.38174710120728, 0.0, 0.0, 70.38174710120728, 202.3475229159766, 177.77777777777737)"><path d="M -0.12500000000000008 0.0721687836487052 L 0.12500000000000183 0.07216878364870284 L 0.0 -0.14433756729740743 L -0.12499999999999652 0.07216878364870517 Z" style="vector-effect: non-scaling-stroke;" /></g><g style="fill: rgb(256.0 151.59215686274507 0.0);stroke: rgb(0.0 0.0 0.0); stroke-width: 0.1;fill-opacity: 1.0;" transform="matrix(70.38174710120728, 0.0, 0.0, 70.38174710120728, 228.7406780789301, 162.53968253968213)"><path d="M -0.12500000000000008 0.0721687836487052 L 0.12500000000000183 0.07216878364870284 L 0.0 -0.14433756729740743 L -0.12499999999999652 0.07216878364870517 Z" style="vector-effect: non-scaling-stroke;" /></g><g style="fill: rgb(256.0 151.59215686274507 0.0);stroke: rgb(0.0 0.0 0.0); stroke-width: 0.1;fill-opacity: 1.0;" transform="matrix(70.38174710120728, 0.0, 0.0, 70.38174710120728, 219.94295969127893, 177.77777777777737)"><path d="M -0.12500000000000008 0.0721687836487052 L 0.12500000000000183 0.07216878364870284 L 0.0 -0.14433756729740743 L -0.12499999999999652 0.07216878364870517 Z" style="vector-effect: non-scaling-stroke;" /></g><g style="fill: rgb(256.0 151.59215686274507 0.0);stroke: rgb(0.0 0.0 0.0); stroke-width: 0.1;fill-opacity: 1.0;" transform="matrix(70.38174710120728, 0.0, 0.0, 70.38174710120728, 237.53839646658125, 177.77777777777737)"><path d="M -0.12500000000000008 0.0721687836487052 L 0.12500000000000183 0.07216878364870284 L 0.0 -0.14433756729740743 L -0.12499999999999652 0.07216878364870517 Z" style="vector-effect: non-scaling-stroke;" /></g><g style="fill: rgb(256.0 151.59215686274507 0.0);stroke: rgb(0.0 0.0 0.0); stroke-width: 0.1;fill-opacity: 1.0;" transform="matrix(70.38174710120728, 0.0, 0.0, 70.38174710120728, 175.95436775302312, 193.01587301587261)"><path d="M -0.12500000000000008 0.0721687836487052 L 0.12500000000000183 0.07216878364870284 L 0.0 -0.14433756729740743 L -0.12499999999999652 0.07216878364870517 Z" style="vector-effect: non-scaling-stroke;" /></g><g style="fill: rgb(256.0 151.59215686274507 0.0);stroke: rgb(0.0 0.0 0.0); stroke-width: 0.1;fill-opacity: 1.0;" transform="matrix(70.38174710120728, 0.0, 0.0, 70.38174710120728, 167.15664936537198, 208.2539682539678)"><path d="M -0.12500000000000008 0.0721687836487052 L 0.12500000000000183 0.07216878364870284 L 0.0 -0.14433756729740743 L -0.12499999999999652 0.07216878364870517 Z" style="vector-effect: non-scaling-stroke;" /></g><g style="fill: rgb(256.0 151.59215686274507 0.0);stroke: rgb(0.0 0.0 0.0); stroke-width: 0.1;fill-opacity: 1.0;" transform="matrix(70.38174710120728, 0.0, 0.0, 70.38174710120728, 184.7520861406743, 208.2539682539678)"><path d="M -0.12500000000000008 0.0721687836487052 L 0.12500000000000183 0.07216878364870284 L 0.0 -0.14433756729740743 L -0.12499999999999652 0.07216878364870517 Z" style="vector-effect: non-scaling-stroke;" /></g><g style="fill: rgb(256.0 151.59215686274507 0.0);stroke: rgb(0.0 0.0 0.0); stroke-width: 0.1;fill-opacity: 1.0;" transform="matrix(70.38174710120728, 0.0, 0.0, 70.38174710120728, 158.3589309777208, 223.49206349206304)"><path d="M -0.12500000000000008 0.0721687836487052 L 0.12500000000000183 0.07216878364870284 L 0.0 -0.14433756729740743 L -0.12499999999999652 0.07216878364870517 Z" style="vector-effect: non-scaling-stroke;" /></g><g style="fill: rgb(256.0 151.59215686274507 0.0);stroke: rgb(0.0 0.0 0.0); stroke-width: 0.1;fill-opacity: 1.0;" transform="matrix(70.38174710120728, 0.0, 0.0, 70.38174710120728, 149.56121259006966, 238.73015873015828)"><path d="M -0.12500000000000008 0.0721687836487052 L 0.12500000000000183 0.07216878364870284 L 0.0 -0.14433756729740743 L -0.12499999999999652 0.07216878364870517 Z" style="vector-effect: non-scaling-stroke;" /></g><g style="fill: rgb(256.0 151.59215686274507 0.0);stroke: rgb(0.0 0.0 0.0); stroke-width: 0.1;fill-opacity: 1.0;" transform="matrix(70.38174710120728, 0.0, 0.0, 70.38174710120728, 167.15664936537198, 238.73015873015828)"><path d="M -0.12500000000000008 0.0721687836487052 L 0.12500000000000183 0.07216878364870284 L 0.0 -0.14433756729740743 L -0.12499999999999652 0.07216878364870517 Z" style="vector-effect: non-scaling-stroke;" /></g><g style="fill: rgb(256.0 151.59215686274507 0.0);stroke: rgb(0.0 0.0 0.0); stroke-width: 0.1;fill-opacity: 1.0;" transform="matrix(70.38174710120728, 0.0, 0.0, 70.38174710120728, 193.54980452832544, 223.49206349206304)"><path d="M -0.12500000000000008 0.0721687836487052 L 0.12500000000000183 0.07216878364870284 L 0.0 -0.14433756729740743 L -0.12499999999999652 0.07216878364870517 Z" style="vector-effect: non-scaling-stroke;" /></g><g style="fill: rgb(256.0 151.59215686274507 0.0);stroke: rgb(0.0 0.0 0.0); stroke-width: 0.1;fill-opacity: 1.0;" transform="matrix(70.38174710120728, 0.0, 0.0, 70.38174710120728, 184.7520861406743, 238.73015873015828)"><path d="M -0.12500000000000008 0.0721687836487052 L 0.12500000000000183 0.07216878364870284 L 0.0 -0.14433756729740743 L -0.12499999999999652 0.07216878364870517 Z" style="vector-effect: non-scaling-stroke;" /></g><g style="fill: rgb(256.0 151.59215686274507 0.0);stroke: rgb(0.0 0.0 0.0); stroke-width: 0.1;fill-opacity: 1.0;" transform="matrix(70.38174710120728, 0.0, 0.0, 70.38174710120728, 202.3475229159766, 238.73015873015828)"><path d="M -0.12500000000000008 0.0721687836487052 L 0.12500000000000183 0.07216878364870284 L 0.0 -0.14433756729740743 L -0.12499999999999652 0.07216878364870517 Z" style="vector-effect: non-scaling-stroke;" /></g><g style="fill: rgb(256.0 151.59215686274507 0.0);stroke: rgb(0.0 0.0 0.0); stroke-width: 0.1;fill-opacity: 1.0;" transform="matrix(70.38174710120728, 0.0, 0.0, 70.38174710120728, 246.3361148542324, 193.01587301587261)"><path d="M -0.12500000000000008 0.0721687836487052 L 0.12500000000000183 0.07216878364870284 L 0.0 -0.14433756729740743 L -0.12499999999999652 0.07216878364870517 Z" style="vector-effect: non-scaling-stroke;" /></g><g style="fill: rgb(256.0 151.59215686274507 0.0);stroke: rgb(0.0 0.0 0.0); stroke-width: 0.1;fill-opacity: 1.0;" transform="matrix(70.38174710120728, 0.0, 0.0, 70.38174710120728, 237.53839646658125, 208.2539682539678)"><path d="M -0.12500000000000008 0.0721687836487052 L 0.12500000000000183 0.07216878364870284 L 0.0 -0.14433756729740743 L -0.12499999999999652 0.07216878364870517 Z" style="vector-effect: non-scaling-stroke;" /></g><g style="fill: rgb(256.0 151.59215686274507 0.0);stroke: rgb(0.0 0.0 0.0); stroke-width: 0.1;fill-opacity: 1.0;" transform="matrix(70.38174710120728, 0.0, 0.0, 70.38174710120728, 255.13383324188356, 208.2539682539678)"><path d="M -0.12500000000000008 0.0721687836487052 L 0.12500000000000183 0.07216878364870284 L 0.0 -0.14433756729740743 L -0.12499999999999652 0.07216878364870517 Z" style="vector-effect: non-scaling-stroke;" /></g><g style="fill: rgb(256.0 151.59215686274507 0.0);stroke: rgb(0.0 0.0 0.0); stroke-width: 0.1;fill-opacity: 1.0;" transform="matrix(70.38174710120728, 0.0, 0.0, 70.38174710120728, 228.7406780789301, 223.49206349206304)"><path d="M -0.12500000000000008 0.0721687836487052 L 0.12500000000000183 0.07216878364870284 L 0.0 -0.14433756729740743 L -0.12499999999999652 0.07216878364870517 Z" style="vector-effect: non-scaling-stroke;" /></g><g style="fill: rgb(256.0 151.59215686274507 0.0);stroke: rgb(0.0 0.0 0.0); stroke-width: 0.1;fill-opacity: 1.0;" transform="matrix(70.38174710120728, 0.0, 0.0, 70.38174710120728, 219.94295969127893, 238.73015873015828)"><path d="M -0.12500000000000008 0.0721687836487052 L 0.12500000000000183 0.07216878364870284 L 0.0 -0.14433756729740743 L -0.12499999999999652 0.07216878364870517 Z" style="vector-effect: non-scaling-stroke;" /></g><g style="fill: rgb(256.0 151.59215686274507 0.0);stroke: rgb(0.0 0.0 0.0); stroke-width: 0.1;fill-opacity: 1.0;" transform="matrix(70.38174710120728, 0.0, 0.0, 70.38174710120728, 237.53839646658125, 238.73015873015828)"><path d="M -0.12500000000000008 0.0721687836487052 L 0.12500000000000183 0.07216878364870284 L 0.0 -0.14433756729740743 L -0.12499999999999652 0.07216878364870517 Z" style="vector-effect: non-scaling-stroke;" /></g><g style="fill: rgb(256.0 151.59215686274507 0.0);stroke: rgb(0.0 0.0 0.0); stroke-width: 0.1;fill-opacity: 1.0;" transform="matrix(70.38174710120728, 0.0, 0.0, 70.38174710120728, 263.93155162953474, 223.49206349206304)"><path d="M -0.12500000000000008 0.0721687836487052 L 0.12500000000000183 0.07216878364870284 L 0.0 -0.14433756729740743 L -0.12499999999999652 0.07216878364870517 Z" style="vector-effect: non-scaling-stroke;" /></g><g style="fill: rgb(256.0 151.59215686274507 0.0);stroke: rgb(0.0 0.0 0.0); stroke-width: 0.1;fill-opacity: 1.0;" transform="matrix(70.38174710120728, 0.0, 0.0, 70.38174710120728, 255.13383324188356, 238.73015873015828)"><path d="M -0.12500000000000008 0.0721687836487052 L 0.12500000000000183 0.07216878364870284 L 0.0 -0.14433756729740743 L -0.12499999999999652 0.07216878364870517 Z" style="vector-effect: non-scaling-stroke;" /></g><g style="fill: rgb(256.0 151.59215686274507 0.0);stroke: rgb(0.0 0.0 0.0); stroke-width: 0.1;fill-opacity: 1.0;" transform="matrix(70.38174710120728, 0.0, 0.0, 70.38174710120728, 272.72927001718585, 238.73015873015828)"><path d="M -0.12500000000000008 0.0721687836487052 L 0.12500000000000183 0.07216878364870284 L 0.0 -0.14433756729740743 L -0.12499999999999652 0.07216878364870517 Z" style="vector-effect: non-scaling-stroke;" /></g></svg>