<?xml version="1.0" encoding="utf-8" ?>
<svg baseProfile="full" height="64" version="1.1" width="64" xmlns="http://www.w3.org/2000/svg" xmlns:ev="http://www.w3.org/2001/xml-events" xmlns:xlink="http://www.w3.org/1999/xlink"><defs><marker id="arrow" markerHeight="3.5" markerWidth="5" orient="auto" refX="5.0" refY="1.7"><polygon points="0,0 5,1.75 0,3.5" /></marker></defs><g style="fill:white;"><g transform="matrix(30.445744731462046, 0.0, 0.0, 30.445744731462046, 15.222872365731087, 30.460967603825697)"><g><g><g style="fill: #ff9700;stroke: black;stroke-width: 0.192;" transform="matrix(0.5, 0.0, 0.0, 0.5, 0.5, 0.0)"><path d="M 0.0 0.0 A 1.0 1.0 0.0 0 0 -0.9999999999999999 -1.0 A 1.0 1.0 -90.0 0 0 -2.0 -1.2246467991473532e-16 A 1.0 1.0 -180.0 0 0 -1.0000000000000002 0.9999999999999999 A 1.0 1.0 90.00000000000001 0 0 0.0 2.4492935982947064e-16 Z" style="vector-effect: non-scaling-stroke;" /></g><g style="fill: #005fdb;stroke: black;stroke-width: 0.192;" transform="matrix(1.0, 0.0, 0.0, 1.0, 0.5009999999998769, -0.5)"><path d="M 0.0 0.0 L 1.0000000000000075 -1.418023854522332e-14 L 1.0000000000000284 0.9999999999999934 L 1.4099832412739488e-14 1.0000000000000142 L 0.0 -1.1102230246251565e-16 Z" style="vector-effect: non-scaling-stroke;" /></g></g><g><g><g style="stroke: #0000ff;stroke-width: 0.192;stroke-dasharray: 0.01 0.01;" transform="matrix(1.0, 0.0, 0.0, 1.0, 0.0, 0.0)"><path d="M 0.0 0.0 L 1.5019999999997993 5.688940434811599e-14" style="vector-effect: non-scaling-stroke;fill:none;" /></g><g style="stroke: #0000ff;stroke-width: 0.192;stroke-dasharray: 0.01 0.01;" transform="matrix(1.0, 0.0, 0.0, 1.0, 0.0, 0.0)"><path d="M 0.0 0.0 L 1.0004999999998851 1.0004999999998851" style="vector-effect: non-scaling-stroke;fill:none;" /></g><g style="stroke: #0000ff;stroke-width: 0.192;stroke-dasharray: 0.01 0.01;" transform="matrix(1.0, 0.0, 0.0, 1.0, 0.0, 0.0)"><path d="M 0.0 0.0 L 0.0 0.5009999999998931" style="vector-effect: non-scaling-stroke;fill:none;" /></g><g style="stroke: #0000ff;stroke-width: 0.192;stroke-dasharray: 0.01 0.01;" transform="matrix(1.0, 0.0, 0.0, 1.0, 0.0, 0.0)"><path d="M 0.0 0.0 L -0.3535533905932752 0.3535533905932752" style="vector-effect: non-scaling-stroke;fill:none;" /></g><g style="stroke: #0000ff;stroke-width: 0.192;stroke-dasharray: 0.01 0.01;" transform="matrix(1.0, 0.0, 0.0, 1.0, 0.0, 0.0)"><path d="M 0.0 0.0 L -0.500000000000002 1.5308084989341915e-17" style="vector-effect: non-scaling-stroke;fill:none;" /></g><g style="stroke: #0000ff;stroke-width: 0.192;stroke-dasharray: 0.01 0.01;" transform="matrix(1.0, 0.0, 0.0, 1.0, 0.0, 0.0)"><path d="M 0.0 0.0 L -0.3535533905932753 -0.3535533905932751" style="vector-effect: non-scaling-stroke;fill:none;" /></g><g style="stroke: #0000ff;stroke-width: 0.192;stroke-dasharray: 0.01 0.01;" transform="matrix(1.0, 0.0, 0.0, 1.0, 0.0, 0.0)"><path d="M 0.0 0.0 L -2.4944771215073715e-17 -0.5009999999998929" style="vector-effect: non-scaling-stroke;fill:none;" /></g><g style="stroke: #0000ff;stroke-width: 0.192;stroke-dasharray: 0.01 0.01;" transform="matrix(1.0, 0.0, 0.0, 1.0, 0.0, 0.0)"><path d="M 0.0 0.0 L 1.0004999999999116 -1.000499999999855" style="vector-effect: non-scaling-stroke;fill:none;" /></g></g><g style="stroke: #0000ff;stroke-width: 0.192;stroke-dasharray: 0.01 0.01;" transform="matrix(1.0, 0.0, 0.0, 1.0, 0.0, 0.0)"><path d="M 0.0 0.0 L 1.501999999999799 5.6705462398884085e-14" style="vector-effect: non-scaling-stroke;fill:none;" /></g></g></g></g></g></svg>