<?xml version="1.0" encoding="utf-8" ?>
<svg baseProfile="full" height="64" version="1.1" width="64" xmlns="http://www.w3.org/2000/svg" xmlns:ev="http://www.w3.org/2001/xml-events" xmlns:xlink="http://www.w3.org/1999/xlink"><defs><marker id="arrow" markerHeight="3.5" markerWidth="5" orient="auto" refX="5.0" refY="1.7"><polygon points="0,0 5,1.75 0,3.5" /></marker></defs><g style="fill:white;"><g transform="matrix(30.44574473145857, 0.0, 0.0, 30.44574473145857, 15.222872365729344, 30.460967603823075)"><g><g><g style="fill: rgb(256.0 151.59215686274507 0.0);stroke: black;stroke-width: [0.192];" transform="matrix(0.5, 0.0, 0.0, 0.5, 0.5, 0.0)"><path d="M 0.0 0.0 A 1.0 1.0 0.0 0 0 -0.9999999999999999 -1.0 A 1.0 1.0 -90.0 0 0 -2.0 -1.2246467991473532e-16 A 1.0 1.0 -180.0 0 0 -1.0000000000000002 0.9999999999999999 A 1.0 1.0 90.00000000000001 0 0 0.0 2.4492935982947064e-16 Z" style="vector-effect: non-scaling-stroke;" /></g><g style="fill: rgb(0.0 95.37254901960779 219.85882352941175);stroke: black;stroke-width: [0.192];" transform="matrix(1.0, 0.0, 0.0, 1.0, 0.5009999999999906, -0.5)"><path d="M 0.0 0.0 L 1.0000000000000075 -1.4210854715202004e-14 L 1.0000000000000284 0.9999999999999934 L 1.4099832412739488e-14 1.0000000000000142 L 0.0 -1.1102230246251565e-16 Z" style="vector-effect: non-scaling-stroke;" /></g></g><g><g><g style="stroke: rgb(0.0 0.0 256.0);stroke-width: [0.192];" transform="matrix(1.0, 0.0, 0.0, 1.0, 0.0, 0.0)"><path d="M 0.0 0.0 L 1.5020000000000269 5.684341886080802e-14" style="vector-effect: non-scaling-stroke;fill:none;" /></g><g style="stroke: rgb(0.0 0.0 256.0);stroke-width: [0.192];" transform="matrix(1.0, 0.0, 0.0, 1.0, 0.0, 0.0)"><path d="M 0.0 0.0 L 1.000500000000045 1.000500000000045" style="vector-effect: non-scaling-stroke;fill:none;" /></g><g style="stroke: rgb(0.0 0.0 256.0);stroke-width: [0.192];" transform="matrix(1.0, 0.0, 0.0, 1.0, 0.0, 0.0)"><path d="M 0.0 0.0 L 0.0 0.5010000000000068" style="vector-effect: non-scaling-stroke;fill:none;" /></g><g style="stroke: rgb(0.0 0.0 256.0);stroke-width: [0.192];" transform="matrix(1.0, 0.0, 0.0, 1.0, 0.0, 0.0)"><path d="M 0.0 0.0 L -0.3535533905932766 0.35355339059327306" style="vector-effect: non-scaling-stroke;fill:none;" /></g><g style="stroke: rgb(0.0 0.0 256.0);stroke-width: [0.192];" transform="matrix(1.0, 0.0, 0.0, 1.0, 0.0, 0.0)"><path d="M 0.0 0.0 L -0.5000000000000019 0.0" style="vector-effect: non-scaling-stroke;fill:none;" /></g><g style="stroke: rgb(0.0 0.0 256.0);stroke-width: [0.192];" transform="matrix(1.0, 0.0, 0.0, 1.0, 0.0, 0.0)"><path d="M 0.0 0.0 L -0.35355339059327306 -0.3535533905932766" style="vector-effect: non-scaling-stroke;fill:none;" /></g><g style="stroke: rgb(0.0 0.0 256.0);stroke-width: [0.192];" transform="matrix(1.0, 0.0, 0.0, 1.0, 0.0, 0.0)"><path d="M 0.0 0.0 L 0.0 -0.5010000000000066" style="vector-effect: non-scaling-stroke;fill:none;" /></g><g style="stroke: rgb(0.0 0.0 256.0);stroke-width: [0.192];" transform="matrix(1.0, 0.0, 0.0, 1.0, 0.0, 0.0)"><path d="M 0.0 0.0 L 1.0005000000000166 -1.0004999999999882" style="vector-effect: non-scaling-stroke;fill:none;" /></g></g><g style="stroke: rgb(0.0 0.0 256.0);stroke-width: [0.192];" transform="matrix(1.0, 0.0, 0.0, 1.0, 0.0, 0.0)"><path d="M 0.0 0.0 L 1.5020000000000269 5.684341886080802e-14" style="vector-effect: non-scaling-stroke;fill:none;" /></g></g></g></g></g></svg>