<?xml version="1.0" encoding="utf-8" ?>
<svg baseProfile="full" height="256" version="1.1" width="295" xmlns="http://www.w3.org/2000/svg" xmlns:ev="http://www.w3.org/2001/xml-events" xmlns:xlink="http://www.w3.org/1999/xlink"><defs><marker id="arrow" markerHeight="3.5" markerWidth="5" orient="auto" refX="5.0" refY="1.7"><polygon points="0,0 5,1.75 0,3.5" /></marker></defs><g style="fill:white;"><g transform="matrix(1.0, 0.0, 0.0, 1.0, 147.80126953125, 128.00001525878906)"><g transform="matrix(70.38156127929688, 0.0, 0.0, 70.38156127929688, 0.0, 0.0)"><g><g transform="matrix(1.0, 0.0, 0.0, 1.0, -0.0, -1.5877176523208618)"><g><g style="fill: #ff9700;stroke: black;stroke-width: 0.885;" transform="matrix(1.0, 0.0, 0.0, 1.0, 0.0, 0.0)"><path d="M -0.125 0.0721689835190773 A 79.00334930419922 79.00334930419922 -90.0 0 1 0.125 0.0721689835190773 A 79.00334930419922 79.00334930419922 150.0 0 1 0.0 -0.1443379819393158 A 79.00334930419922 79.00334167480469 29.999990463256836 0 1 -0.125 0.0721689760684967 Z" style="vector-effect: non-scaling-stroke;" /></g><g transform="matrix(1.0, 0.0, 0.0, 1.0, 0.0, 0.18042245507240295)"><g transform="matrix(1.0, 0.0, 0.0, 1.0, -0.125, 0.03608449921011925)"><g><g style="fill: #ff9700;stroke: black;stroke-width: 0.885;" transform="matrix(1.0, 0.0, 0.0, 1.0, 0.0, 0.0)"><path d="M -0.125 0.0721689835190773 A 79.00334930419922 79.00334930419922 -90.0 0 1 0.125 0.0721689835190773 A 79.00334930419922 79.00334930419922 150.0 0 1 0.0 -0.1443379819393158 A 79.00334930419922 79.00334167480469 29.999990463256836 0 1 -0.125 0.0721689760684967 Z" style="vector-effect: non-scaling-stroke;" /></g><g style="fill: #ff9700;stroke: black;stroke-width: 0.885;" transform="matrix(1.0, 0.0, 0.0, 1.0, 0.25, 0.0)"><path d="M -0.125 0.0721689835190773 A 79.00334930419922 79.00334930419922 -90.0 0 1 0.125 0.0721689835190773 A 79.00334930419922 79.00334930419922 150.0 0 1 0.0 -0.1443379819393158 A 79.00334930419922 79.00334167480469 29.999990463256836 0 1 -0.125 0.0721689760684967 Z" style="vector-effect: non-scaling-stroke;" /></g></g></g></g><g transform="matrix(1.0, 0.0, 0.0, 1.0, 0.0, 0.5051828622817993)"><g transform="matrix(1.0, 0.0, 0.0, 1.0, -0.25, -0.0721689760684967)"><g><g style="fill: #ff9700;stroke: black;stroke-width: 0.885;" transform="matrix(1.0, 0.0, 0.0, 1.0, 0.0, 0.0)"><path d="M -0.125 0.0721689835190773 A 79.00334930419922 79.00334930419922 -90.0 0 1 0.125 0.0721689835190773 A 79.00334930419922 79.00334930419922 150.0 0 1 0.0 -0.1443379819393158 A 79.00334930419922 79.00334167480469 29.999990463256836 0 1 -0.125 0.0721689760684967 Z" style="vector-effect: non-scaling-stroke;" /></g><g transform="matrix(1.0, 0.0, 0.0, 1.0, 0.0, 0.18042245507240295)"><g transform="matrix(1.0, 0.0, 0.0, 1.0, -0.125, 0.03608449921011925)"><g><g style="fill: #ff9700;stroke: black;stroke-width: 0.885;" transform="matrix(1.0, 0.0, 0.0, 1.0, 0.0, 0.0)"><path d="M -0.125 0.0721689835190773 A 79.00334930419922 79.00334930419922 -90.0 0 1 0.125 0.0721689835190773 A 79.00334930419922 79.00334930419922 150.0 0 1 0.0 -0.1443379819393158 A 79.00334930419922 79.00334167480469 29.999990463256836 0 1 -0.125 0.0721689760684967 Z" style="vector-effect: non-scaling-stroke;" /></g><g style="fill: #ff9700;stroke: black;stroke-width: 0.885;" transform="matrix(1.0, 0.0, 0.0, 1.0, 0.25, 0.0)"><path d="M -0.125 0.0721689835190773 A 79.00334930419922 79.00334930419922 -90.0 0 1 0.125 0.0721689835190773 A 79.00334930419922 79.00334930419922 150.0 0 1 0.0 -0.1443379819393158 A 79.00334930419922 79.00334167480469 29.999990463256836 0 1 -0.125 0.0721689760684967 Z" style="vector-effect: non-scaling-stroke;" /></g></g></g></g><g transform="matrix(1.0, 0.0, 0.0, 1.0, 0.5, 0.0)"><g><g style="fill: #ff9700;stroke: black;stroke-width: 0.885;" transform="matrix(1.0, 0.0, 0.0, 1.0, 0.0, 0.0)"><path d="M -0.125 0.0721689835190773 A 79.00334930419922 79.00334930419922 -90.0 0 1 0.125 0.0721689835190773 A 79.00334930419922 79.00334930419922 150.0 0 1 0.0 -0.1443379819393158 A 79.00334930419922 79.00334167480469 29.999990463256836 0 1 -0.125 0.0721689760684967 Z" style="vector-effect: non-scaling-stroke;" /></g><g transform="matrix(1.0, 0.0, 0.0, 1.0, 0.0, 0.18042245507240295)"><g transform="matrix(1.0, 0.0, 0.0, 1.0, -0.125, 0.03608449921011925)"><g><g style="fill: #ff9700;stroke: black;stroke-width: 0.885;" transform="matrix(1.0, 0.0, 0.0, 1.0, 0.0, 0.0)"><path d="M -0.125 0.0721689835190773 A 79.00334930419922 79.00334930419922 -90.0 0 1 0.125 0.0721689835190773 A 79.00334930419922 79.00334930419922 150.0 0 1 0.0 -0.1443379819393158 A 79.00334930419922 79.00334167480469 29.999990463256836 0 1 -0.125 0.0721689760684967 Z" style="vector-effect: non-scaling-stroke;" /></g><g style="fill: #ff9700;stroke: black;stroke-width: 0.885;" transform="matrix(1.0, 0.0, 0.0, 1.0, 0.25, 0.0)"><path d="M -0.125 0.0721689835190773 A 79.00334930419922 79.00334930419922 -90.0 0 1 0.125 0.0721689835190773 A 79.00334930419922 79.00334930419922 150.0 0 1 0.0 -0.1443379819393158 A 79.00334930419922 79.00334167480469 29.999990463256836 0 1 -0.125 0.0721689760684967 Z" style="vector-effect: non-scaling-stroke;" /></g></g></g></g></g></g></g></g></g><g transform="matrix(1.0, 0.0, 0.0, 1.0, 0.0, 1.1547037363052368)"><g transform="matrix(1.0, 0.0, 0.0, 1.0, -0.5, -0.2886759042739868)"><g><g style="fill: #ff9700;stroke: black;stroke-width: 0.885;" transform="matrix(1.0, 0.0, 0.0, 1.0, 0.0, 0.0)"><path d="M -0.125 0.0721689835190773 A 79.00334930419922 79.00334930419922 -90.0 0 1 0.125 0.0721689835190773 A 79.00334930419922 79.00334930419922 150.0 0 1 0.0 -0.1443379819393158 A 79.00334930419922 79.00334167480469 29.999990463256836 0 1 -0.125 0.0721689760684967 Z" style="vector-effect: non-scaling-stroke;" /></g><g transform="matrix(1.0, 0.0, 0.0, 1.0, 0.0, 0.18042245507240295)"><g transform="matrix(1.0, 0.0, 0.0, 1.0, -0.125, 0.03608449921011925)"><g><g style="fill: #ff9700;stroke: black;stroke-width: 0.885;" transform="matrix(1.0, 0.0, 0.0, 1.0, 0.0, 0.0)"><path d="M -0.125 0.0721689835190773 A 79.00334930419922 79.00334930419922 -90.0 0 1 0.125 0.0721689835190773 A 79.00334930419922 79.00334930419922 150.0 0 1 0.0 -0.1443379819393158 A 79.00334930419922 79.00334167480469 29.999990463256836 0 1 -0.125 0.0721689760684967 Z" style="vector-effect: non-scaling-stroke;" /></g><g style="fill: #ff9700;stroke: black;stroke-width: 0.885;" transform="matrix(1.0, 0.0, 0.0, 1.0, 0.25, 0.0)"><path d="M -0.125 0.0721689835190773 A 79.00334930419922 79.00334930419922 -90.0 0 1 0.125 0.0721689835190773 A 79.00334930419922 79.00334930419922 150.0 0 1 0.0 -0.1443379819393158 A 79.00334930419922 79.00334167480469 29.999990463256836 0 1 -0.125 0.0721689760684967 Z" style="vector-effect: non-scaling-stroke;" /></g></g></g></g><g transform="matrix(1.0, 0.0, 0.0, 1.0, 0.0, 0.5051828622817993)"><g transform="matrix(1.0, 0.0, 0.0, 1.0, -0.25, -0.0721689760684967)"><g><g style="fill: #ff9700;stroke: black;stroke-width: 0.885;" transform="matrix(1.0, 0.0, 0.0, 1.0, 0.0, 0.0)"><path d="M -0.125 0.0721689835190773 A 79.00334930419922 79.00334930419922 -90.0 0 1 0.125 0.0721689835190773 A 79.00334930419922 79.00334930419922 150.0 0 1 0.0 -0.1443379819393158 A 79.00334930419922 79.00334167480469 29.999990463256836 0 1 -0.125 0.0721689760684967 Z" style="vector-effect: non-scaling-stroke;" /></g><g transform="matrix(1.0, 0.0, 0.0, 1.0, 0.0, 0.18042245507240295)"><g transform="matrix(1.0, 0.0, 0.0, 1.0, -0.125, 0.03608449921011925)"><g><g style="fill: #ff9700;stroke: black;stroke-width: 0.885;" transform="matrix(1.0, 0.0, 0.0, 1.0, 0.0, 0.0)"><path d="M -0.125 0.0721689835190773 A 79.00334930419922 79.00334930419922 -90.0 0 1 0.125 0.0721689835190773 A 79.00334930419922 79.00334930419922 150.0 0 1 0.0 -0.1443379819393158 A 79.00334930419922 79.00334167480469 29.999990463256836 0 1 -0.125 0.0721689760684967 Z" style="vector-effect: non-scaling-stroke;" /></g><g style="fill: #ff9700;stroke: black;stroke-width: 0.885;" transform="matrix(1.0, 0.0, 0.0, 1.0, 0.25, 0.0)"><path d="M -0.125 0.0721689835190773 A 79.00334930419922 79.00334930419922 -90.0 0 1 0.125 0.0721689835190773 A 79.00334930419922 79.00334930419922 150.0 0 1 0.0 -0.1443379819393158 A 79.00334930419922 79.00334167480469 29.999990463256836 0 1 -0.125 0.0721689760684967 Z" style="vector-effect: non-scaling-stroke;" /></g></g></g></g><g transform="matrix(1.0, 0.0, 0.0, 1.0, 0.5, 0.0)"><g><g style="fill: #ff9700;stroke: black;stroke-width: 0.885;" transform="matrix(1.0, 0.0, 0.0, 1.0, 0.0, 0.0)"><path d="M -0.125 0.0721689835190773 A 79.00334930419922 79.00334930419922 -90.0 0 1 0.125 0.0721689835190773 A 79.00334930419922 79.00334930419922 150.0 0 1 0.0 -0.1443379819393158 A 79.00334930419922 79.00334167480469 29.999990463256836 0 1 -0.125 0.0721689760684967 Z" style="vector-effect: non-scaling-stroke;" /></g><g transform="matrix(1.0, 0.0, 0.0, 1.0, 0.0, 0.18042245507240295)"><g transform="matrix(1.0, 0.0, 0.0, 1.0, -0.125, 0.03608449921011925)"><g><g style="fill: #ff9700;stroke: black;stroke-width: 0.885;" transform="matrix(1.0, 0.0, 0.0, 1.0, 0.0, 0.0)"><path d="M -0.125 0.0721689835190773 A 79.00334930419922 79.00334930419922 -90.0 0 1 0.125 0.0721689835190773 A 79.00334930419922 79.00334930419922 150.0 0 1 0.0 -0.1443379819393158 A 79.00334930419922 79.00334167480469 29.999990463256836 0 1 -0.125 0.0721689760684967 Z" style="vector-effect: non-scaling-stroke;" /></g><g style="fill: #ff9700;stroke: black;stroke-width: 0.885;" transform="matrix(1.0, 0.0, 0.0, 1.0, 0.25, 0.0)"><path d="M -0.125 0.0721689835190773 A 79.00334930419922 79.00334930419922 -90.0 0 1 0.125 0.0721689835190773 A 79.00334930419922 79.00334930419922 150.0 0 1 0.0 -0.1443379819393158 A 79.00334930419922 79.00334167480469 29.999990463256836 0 1 -0.125 0.0721689760684967 Z" style="vector-effect: non-scaling-stroke;" /></g></g></g></g></g></g></g></g></g><g transform="matrix(1.0, 0.0, 0.0, 1.0, 1.0, 0.0)"><g><g style="fill: #ff9700;stroke: black;stroke-width: 0.885;" transform="matrix(1.0, 0.0, 0.0, 1.0, 0.0, 0.0)"><path d="M -0.125 0.0721689835190773 A 79.00334930419922 79.00334930419922 -90.0 0 1 0.125 0.0721689835190773 A 79.00334930419922 79.00334930419922 150.0 0 1 0.0 -0.1443379819393158 A 79.00334930419922 79.00334167480469 29.999990463256836 0 1 -0.125 0.0721689760684967 Z" style="vector-effect: non-scaling-stroke;" /></g><g transform="matrix(1.0, 0.0, 0.0, 1.0, 0.0, 0.18042245507240295)"><g transform="matrix(1.0, 0.0, 0.0, 1.0, -0.125, 0.03608449921011925)"><g><g style="fill: #ff9700;stroke: black;stroke-width: 0.885;" transform="matrix(1.0, 0.0, 0.0, 1.0, 0.0, 0.0)"><path d="M -0.125 0.0721689835190773 A 79.00334930419922 79.00334930419922 -90.0 0 1 0.125 0.0721689835190773 A 79.00334930419922 79.00334930419922 150.0 0 1 0.0 -0.1443379819393158 A 79.00334930419922 79.00334167480469 29.999990463256836 0 1 -0.125 0.0721689760684967 Z" style="vector-effect: non-scaling-stroke;" /></g><g style="fill: #ff9700;stroke: black;stroke-width: 0.885;" transform="matrix(1.0, 0.0, 0.0, 1.0, 0.25, 0.0)"><path d="M -0.125 0.0721689835190773 A 79.00334930419922 79.00334930419922 -90.0 0 1 0.125 0.0721689835190773 A 79.00334930419922 79.00334930419922 150.0 0 1 0.0 -0.1443379819393158 A 79.00334930419922 79.00334167480469 29.999990463256836 0 1 -0.125 0.0721689760684967 Z" style="vector-effect: non-scaling-stroke;" /></g></g></g></g><g transform="matrix(1.0, 0.0, 0.0, 1.0, 0.0, 0.5051828622817993)"><g transform="matrix(1.0, 0.0, 0.0, 1.0, -0.25, -0.0721689760684967)"><g><g style="fill: #ff9700;stroke: black;stroke-width: 0.885;" transform="matrix(1.0, 0.0, 0.0, 1.0, 0.0, 0.0)"><path d="M -0.125 0.0721689835190773 A 79.00334930419922 79.00334930419922 -90.0 0 1 0.125 0.0721689835190773 A 79.00334930419922 79.00334930419922 150.0 0 1 0.0 -0.1443379819393158 A 79.00334930419922 79.00334167480469 29.999990463256836 0 1 -0.125 0.0721689760684967 Z" style="vector-effect: non-scaling-stroke;" /></g><g transform="matrix(1.0, 0.0, 0.0, 1.0, 0.0, 0.18042245507240295)"><g transform="matrix(1.0, 0.0, 0.0, 1.0, -0.125, 0.03608449921011925)"><g><g style="fill: #ff9700;stroke: black;stroke-width: 0.885;" transform="matrix(1.0, 0.0, 0.0, 1.0, 0.0, 0.0)"><path d="M -0.125 0.0721689835190773 A 79.00334930419922 79.00334930419922 -90.0 0 1 0.125 0.0721689835190773 A 79.00334930419922 79.00334930419922 150.0 0 1 0.0 -0.1443379819393158 A 79.00334930419922 79.00334167480469 29.999990463256836 0 1 -0.125 0.0721689760684967 Z" style="vector-effect: non-scaling-stroke;" /></g><g style="fill: #ff9700;stroke: black;stroke-width: 0.885;" transform="matrix(1.0, 0.0, 0.0, 1.0, 0.25, 0.0)"><path d="M -0.125 0.0721689835190773 A 79.00334930419922 79.00334930419922 -90.0 0 1 0.125 0.0721689835190773 A 79.00334930419922 79.00334930419922 150.0 0 1 0.0 -0.1443379819393158 A 79.00334930419922 79.00334167480469 29.999990463256836 0 1 -0.125 0.0721689760684967 Z" style="vector-effect: non-scaling-stroke;" /></g></g></g></g><g transform="matrix(1.0, 0.0, 0.0, 1.0, 0.5, 0.0)"><g><g style="fill: #ff9700;stroke: black;stroke-width: 0.885;" transform="matrix(1.0, 0.0, 0.0, 1.0, 0.0, 0.0)"><path d="M -0.125 0.0721689835190773 A 79.00334930419922 79.00334930419922 -90.0 0 1 0.125 0.0721689835190773 A 79.00334930419922 79.00334930419922 150.0 0 1 0.0 -0.1443379819393158 A 79.00334930419922 79.00334167480469 29.999990463256836 0 1 -0.125 0.0721689760684967 Z" style="vector-effect: non-scaling-stroke;" /></g><g transform="matrix(1.0, 0.0, 0.0, 1.0, 0.0, 0.18042245507240295)"><g transform="matrix(1.0, 0.0, 0.0, 1.0, -0.125, 0.03608449921011925)"><g><g style="fill: #ff9700;stroke: black;stroke-width: 0.885;" transform="matrix(1.0, 0.0, 0.0, 1.0, 0.0, 0.0)"><path d="M -0.125 0.0721689835190773 A 79.00334930419922 79.00334930419922 -90.0 0 1 0.125 0.0721689835190773 A 79.00334930419922 79.00334930419922 150.0 0 1 0.0 -0.1443379819393158 A 79.00334930419922 79.00334167480469 29.999990463256836 0 1 -0.125 0.0721689760684967 Z" style="vector-effect: non-scaling-stroke;" /></g><g style="fill: #ff9700;stroke: black;stroke-width: 0.885;" transform="matrix(1.0, 0.0, 0.0, 1.0, 0.25, 0.0)"><path d="M -0.125 0.0721689835190773 A 79.00334930419922 79.00334930419922 -90.0 0 1 0.125 0.0721689835190773 A 79.00334930419922 79.00334930419922 150.0 0 1 0.0 -0.1443379819393158 A 79.00334930419922 79.00334167480469 29.999990463256836 0 1 -0.125 0.0721689760684967 Z" style="vector-effect: non-scaling-stroke;" /></g></g></g></g></g></g></g></g></g></g></g></g></g></g><g transform="matrix(1.0, 0.0, 0.0, 1.0, 0.0, 2.4537453651428223)"><g transform="matrix(1.0, 0.0, 0.0, 1.0, -1.0, -0.7216898202896118)"><g><g style="fill: #ff9700;stroke: black;stroke-width: 0.885;" transform="matrix(1.0, 0.0, 0.0, 1.0, 0.0, 0.0)"><path d="M -0.125 0.0721689835190773 A 79.00334930419922 79.00334930419922 -90.0 0 1 0.125 0.0721689835190773 A 79.00334930419922 79.00334930419922 150.0 0 1 0.0 -0.1443379819393158 A 79.00334930419922 79.00334167480469 29.999990463256836 0 1 -0.125 0.0721689760684967 Z" style="vector-effect: non-scaling-stroke;" /></g><g transform="matrix(1.0, 0.0, 0.0, 1.0, 0.0, 0.18042245507240295)"><g transform="matrix(1.0, 0.0, 0.0, 1.0, -0.125, 0.03608449921011925)"><g><g style="fill: #ff9700;stroke: black;stroke-width: 0.885;" transform="matrix(1.0, 0.0, 0.0, 1.0, 0.0, 0.0)"><path d="M -0.125 0.0721689835190773 A 79.00334930419922 79.00334930419922 -90.0 0 1 0.125 0.0721689835190773 A 79.00334930419922 79.00334930419922 150.0 0 1 0.0 -0.1443379819393158 A 79.00334930419922 79.00334167480469 29.999990463256836 0 1 -0.125 0.0721689760684967 Z" style="vector-effect: non-scaling-stroke;" /></g><g style="fill: #ff9700;stroke: black;stroke-width: 0.885;" transform="matrix(1.0, 0.0, 0.0, 1.0, 0.25, 0.0)"><path d="M -0.125 0.0721689835190773 A 79.00334930419922 79.00334930419922 -90.0 0 1 0.125 0.0721689835190773 A 79.00334930419922 79.00334930419922 150.0 0 1 0.0 -0.1443379819393158 A 79.00334930419922 79.00334167480469 29.999990463256836 0 1 -0.125 0.0721689760684967 Z" style="vector-effect: non-scaling-stroke;" /></g></g></g></g><g transform="matrix(1.0, 0.0, 0.0, 1.0, 0.0, 0.5051828622817993)"><g transform="matrix(1.0, 0.0, 0.0, 1.0, -0.25, -0.0721689760684967)"><g><g style="fill: #ff9700;stroke: black;stroke-width: 0.885;" transform="matrix(1.0, 0.0, 0.0, 1.0, 0.0, 0.0)"><path d="M -0.125 0.0721689835190773 A 79.00334930419922 79.00334930419922 -90.0 0 1 0.125 0.0721689835190773 A 79.00334930419922 79.00334930419922 150.0 0 1 0.0 -0.1443379819393158 A 79.00334930419922 79.00334167480469 29.999990463256836 0 1 -0.125 0.0721689760684967 Z" style="vector-effect: non-scaling-stroke;" /></g><g transform="matrix(1.0, 0.0, 0.0, 1.0, 0.0, 0.18042245507240295)"><g transform="matrix(1.0, 0.0, 0.0, 1.0, -0.125, 0.03608449921011925)"><g><g style="fill: #ff9700;stroke: black;stroke-width: 0.885;" transform="matrix(1.0, 0.0, 0.0, 1.0, 0.0, 0.0)"><path d="M -0.125 0.0721689835190773 A 79.00334930419922 79.00334930419922 -90.0 0 1 0.125 0.0721689835190773 A 79.00334930419922 79.00334930419922 150.0 0 1 0.0 -0.1443379819393158 A 79.00334930419922 79.00334167480469 29.999990463256836 0 1 -0.125 0.0721689760684967 Z" style="vector-effect: non-scaling-stroke;" /></g><g style="fill: #ff9700;stroke: black;stroke-width: 0.885;" transform="matrix(1.0, 0.0, 0.0, 1.0, 0.25, 0.0)"><path d="M -0.125 0.0721689835190773 A 79.00334930419922 79.00334930419922 -90.0 0 1 0.125 0.0721689835190773 A 79.00334930419922 79.00334930419922 150.0 0 1 0.0 -0.1443379819393158 A 79.00334930419922 79.00334167480469 29.999990463256836 0 1 -0.125 0.0721689760684967 Z" style="vector-effect: non-scaling-stroke;" /></g></g></g></g><g transform="matrix(1.0, 0.0, 0.0, 1.0, 0.5, 0.0)"><g><g style="fill: #ff9700;stroke: black;stroke-width: 0.885;" transform="matrix(1.0, 0.0, 0.0, 1.0, 0.0, 0.0)"><path d="M -0.125 0.0721689835190773 A 79.00334930419922 79.00334930419922 -90.0 0 1 0.125 0.0721689835190773 A 79.00334930419922 79.00334930419922 150.0 0 1 0.0 -0.1443379819393158 A 79.00334930419922 79.00334167480469 29.999990463256836 0 1 -0.125 0.0721689760684967 Z" style="vector-effect: non-scaling-stroke;" /></g><g transform="matrix(1.0, 0.0, 0.0, 1.0, 0.0, 0.18042245507240295)"><g transform="matrix(1.0, 0.0, 0.0, 1.0, -0.125, 0.03608449921011925)"><g><g style="fill: #ff9700;stroke: black;stroke-width: 0.885;" transform="matrix(1.0, 0.0, 0.0, 1.0, 0.0, 0.0)"><path d="M -0.125 0.0721689835190773 A 79.00334930419922 79.00334930419922 -90.0 0 1 0.125 0.0721689835190773 A 79.00334930419922 79.00334930419922 150.0 0 1 0.0 -0.1443379819393158 A 79.00334930419922 79.00334167480469 29.999990463256836 0 1 -0.125 0.0721689760684967 Z" style="vector-effect: non-scaling-stroke;" /></g><g style="fill: #ff9700;stroke: black;stroke-width: 0.885;" transform="matrix(1.0, 0.0, 0.0, 1.0, 0.25, 0.0)"><path d="M -0.125 0.0721689835190773 A 79.00334930419922 79.00334930419922 -90.0 0 1 0.125 0.0721689835190773 A 79.00334930419922 79.00334930419922 150.0 0 1 0.0 -0.1443379819393158 A 79.00334930419922 79.00334167480469 29.999990463256836 0 1 -0.125 0.0721689760684967 Z" style="vector-effect: non-scaling-stroke;" /></g></g></g></g></g></g></g></g></g><g transform="matrix(1.0, 0.0, 0.0, 1.0, 0.0, 1.1547037363052368)"><g transform="matrix(1.0, 0.0, 0.0, 1.0, -0.5, -0.2886759042739868)"><g><g style="fill: #ff9700;stroke: black;stroke-width: 0.885;" transform="matrix(1.0, 0.0, 0.0, 1.0, 0.0, 0.0)"><path d="M -0.125 0.0721689835190773 A 79.00334930419922 79.00334930419922 -90.0 0 1 0.125 0.0721689835190773 A 79.00334930419922 79.00334930419922 150.0 0 1 0.0 -0.1443379819393158 A 79.00334930419922 79.00334167480469 29.999990463256836 0 1 -0.125 0.0721689760684967 Z" style="vector-effect: non-scaling-stroke;" /></g><g transform="matrix(1.0, 0.0, 0.0, 1.0, 0.0, 0.18042245507240295)"><g transform="matrix(1.0, 0.0, 0.0, 1.0, -0.125, 0.03608449921011925)"><g><g style="fill: #ff9700;stroke: black;stroke-width: 0.885;" transform="matrix(1.0, 0.0, 0.0, 1.0, 0.0, 0.0)"><path d="M -0.125 0.0721689835190773 A 79.00334930419922 79.00334930419922 -90.0 0 1 0.125 0.0721689835190773 A 79.00334930419922 79.00334930419922 150.0 0 1 0.0 -0.1443379819393158 A 79.00334930419922 79.00334167480469 29.999990463256836 0 1 -0.125 0.0721689760684967 Z" style="vector-effect: non-scaling-stroke;" /></g><g style="fill: #ff9700;stroke: black;stroke-width: 0.885;" transform="matrix(1.0, 0.0, 0.0, 1.0, 0.25, 0.0)"><path d="M -0.125 0.0721689835190773 A 79.00334930419922 79.00334930419922 -90.0 0 1 0.125 0.0721689835190773 A 79.00334930419922 79.00334930419922 150.0 0 1 0.0 -0.1443379819393158 A 79.00334930419922 79.00334167480469 29.999990463256836 0 1 -0.125 0.0721689760684967 Z" style="vector-effect: non-scaling-stroke;" /></g></g></g></g><g transform="matrix(1.0, 0.0, 0.0, 1.0, 0.0, 0.5051828622817993)"><g transform="matrix(1.0, 0.0, 0.0, 1.0, -0.25, -0.0721689760684967)"><g><g style="fill: #ff9700;stroke: black;stroke-width: 0.885;" transform="matrix(1.0, 0.0, 0.0, 1.0, 0.0, 0.0)"><path d="M -0.125 0.0721689835190773 A 79.00334930419922 79.00334930419922 -90.0 0 1 0.125 0.0721689835190773 A 79.00334930419922 79.00334930419922 150.0 0 1 0.0 -0.1443379819393158 A 79.00334930419922 79.00334167480469 29.999990463256836 0 1 -0.125 0.0721689760684967 Z" style="vector-effect: non-scaling-stroke;" /></g><g transform="matrix(1.0, 0.0, 0.0, 1.0, 0.0, 0.18042245507240295)"><g transform="matrix(1.0, 0.0, 0.0, 1.0, -0.125, 0.03608449921011925)"><g><g style="fill: #ff9700;stroke: black;stroke-width: 0.885;" transform="matrix(1.0, 0.0, 0.0, 1.0, 0.0, 0.0)"><path d="M -0.125 0.0721689835190773 A 79.00334930419922 79.00334930419922 -90.0 0 1 0.125 0.0721689835190773 A 79.00334930419922 79.00334930419922 150.0 0 1 0.0 -0.1443379819393158 A 79.00334930419922 79.00334167480469 29.999990463256836 0 1 -0.125 0.0721689760684967 Z" style="vector-effect: non-scaling-stroke;" /></g><g style="fill: #ff9700;stroke: black;stroke-width: 0.885;" transform="matrix(1.0, 0.0, 0.0, 1.0, 0.25, 0.0)"><path d="M -0.125 0.0721689835190773 A 79.00334930419922 79.00334930419922 -90.0 0 1 0.125 0.0721689835190773 A 79.00334930419922 79.00334930419922 150.0 0 1 0.0 -0.1443379819393158 A 79.00334930419922 79.00334167480469 29.999990463256836 0 1 -0.125 0.0721689760684967 Z" style="vector-effect: non-scaling-stroke;" /></g></g></g></g><g transform="matrix(1.0, 0.0, 0.0, 1.0, 0.5, 0.0)"><g><g style="fill: #ff9700;stroke: black;stroke-width: 0.885;" transform="matrix(1.0, 0.0, 0.0, 1.0, 0.0, 0.0)"><path d="M -0.125 0.0721689835190773 A 79.00334930419922 79.00334930419922 -90.0 0 1 0.125 0.0721689835190773 A 79.00334930419922 79.00334930419922 150.0 0 1 0.0 -0.1443379819393158 A 79.00334930419922 79.00334167480469 29.999990463256836 0 1 -0.125 0.0721689760684967 Z" style="vector-effect: non-scaling-stroke;" /></g><g transform="matrix(1.0, 0.0, 0.0, 1.0, 0.0, 0.18042245507240295)"><g transform="matrix(1.0, 0.0, 0.0, 1.0, -0.125, 0.03608449921011925)"><g><g style="fill: #ff9700;stroke: black;stroke-width: 0.885;" transform="matrix(1.0, 0.0, 0.0, 1.0, 0.0, 0.0)"><path d="M -0.125 0.0721689835190773 A 79.00334930419922 79.00334930419922 -90.0 0 1 0.125 0.0721689835190773 A 79.00334930419922 79.00334930419922 150.0 0 1 0.0 -0.1443379819393158 A 79.00334930419922 79.00334167480469 29.999990463256836 0 1 -0.125 0.0721689760684967 Z" style="vector-effect: non-scaling-stroke;" /></g><g style="fill: #ff9700;stroke: black;stroke-width: 0.885;" transform="matrix(1.0, 0.0, 0.0, 1.0, 0.25, 0.0)"><path d="M -0.125 0.0721689835190773 A 79.00334930419922 79.00334930419922 -90.0 0 1 0.125 0.0721689835190773 A 79.00334930419922 79.00334930419922 150.0 0 1 0.0 -0.1443379819393158 A 79.00334930419922 79.00334167480469 29.999990463256836 0 1 -0.125 0.0721689760684967 Z" style="vector-effect: non-scaling-stroke;" /></g></g></g></g></g></g></g></g></g><g transform="matrix(1.0, 0.0, 0.0, 1.0, 1.0, 0.0)"><g><g style="fill: #ff9700;stroke: black;stroke-width: 0.885;" transform="matrix(1.0, 0.0, 0.0, 1.0, 0.0, 0.0)"><path d="M -0.125 0.0721689835190773 A 79.00334930419922 79.00334930419922 -90.0 0 1 0.125 0.0721689835190773 A 79.00334930419922 79.00334930419922 150.0 0 1 0.0 -0.1443379819393158 A 79.00334930419922 79.00334167480469 29.999990463256836 0 1 -0.125 0.0721689760684967 Z" style="vector-effect: non-scaling-stroke;" /></g><g transform="matrix(1.0, 0.0, 0.0, 1.0, 0.0, 0.18042245507240295)"><g transform="matrix(1.0, 0.0, 0.0, 1.0, -0.125, 0.03608449921011925)"><g><g style="fill: #ff9700;stroke: black;stroke-width: 0.885;" transform="matrix(1.0, 0.0, 0.0, 1.0, 0.0, 0.0)"><path d="M -0.125 0.0721689835190773 A 79.00334930419922 79.00334930419922 -90.0 0 1 0.125 0.0721689835190773 A 79.00334930419922 79.00334930419922 150.0 0 1 0.0 -0.1443379819393158 A 79.00334930419922 79.00334167480469 29.999990463256836 0 1 -0.125 0.0721689760684967 Z" style="vector-effect: non-scaling-stroke;" /></g><g style="fill: #ff9700;stroke: black;stroke-width: 0.885;" transform="matrix(1.0, 0.0, 0.0, 1.0, 0.25, 0.0)"><path d="M -0.125 0.0721689835190773 A 79.00334930419922 79.00334930419922 -90.0 0 1 0.125 0.0721689835190773 A 79.00334930419922 79.00334930419922 150.0 0 1 0.0 -0.1443379819393158 A 79.00334930419922 79.00334167480469 29.999990463256836 0 1 -0.125 0.0721689760684967 Z" style="vector-effect: non-scaling-stroke;" /></g></g></g></g><g transform="matrix(1.0, 0.0, 0.0, 1.0, 0.0, 0.5051828622817993)"><g transform="matrix(1.0, 0.0, 0.0, 1.0, -0.25, -0.0721689760684967)"><g><g style="fill: #ff9700;stroke: black;stroke-width: 0.885;" transform="matrix(1.0, 0.0, 0.0, 1.0, 0.0, 0.0)"><path d="M -0.125 0.0721689835190773 A 79.00334930419922 79.00334930419922 -90.0 0 1 0.125 0.0721689835190773 A 79.00334930419922 79.00334930419922 150.0 0 1 0.0 -0.1443379819393158 A 79.00334930419922 79.00334167480469 29.999990463256836 0 1 -0.125 0.0721689760684967 Z" style="vector-effect: non-scaling-stroke;" /></g><g transform="matrix(1.0, 0.0, 0.0, 1.0, 0.0, 0.18042245507240295)"><g transform="matrix(1.0, 0.0, 0.0, 1.0, -0.125, 0.03608449921011925)"><g><g style="fill: #ff9700;stroke: black;stroke-width: 0.885;" transform="matrix(1.0, 0.0, 0.0, 1.0, 0.0, 0.0)"><path d="M -0.125 0.0721689835190773 A 79.00334930419922 79.00334930419922 -90.0 0 1 0.125 0.0721689835190773 A 79.00334930419922 79.00334930419922 150.0 0 1 0.0 -0.1443379819393158 A 79.00334930419922 79.00334167480469 29.999990463256836 0 1 -0.125 0.0721689760684967 Z" style="vector-effect: non-scaling-stroke;" /></g><g style="fill: #ff9700;stroke: black;stroke-width: 0.885;" transform="matrix(1.0, 0.0, 0.0, 1.0, 0.25, 0.0)"><path d="M -0.125 0.0721689835190773 A 79.00334930419922 79.00334930419922 -90.0 0 1 0.125 0.0721689835190773 A 79.00334930419922 79.00334930419922 150.0 0 1 0.0 -0.1443379819393158 A 79.00334930419922 79.00334167480469 29.999990463256836 0 1 -0.125 0.0721689760684967 Z" style="vector-effect: non-scaling-stroke;" /></g></g></g></g><g transform="matrix(1.0, 0.0, 0.0, 1.0, 0.5, 0.0)"><g><g style="fill: #ff9700;stroke: black;stroke-width: 0.885;" transform="matrix(1.0, 0.0, 0.0, 1.0, 0.0, 0.0)"><path d="M -0.125 0.0721689835190773 A 79.00334930419922 79.00334930419922 -90.0 0 1 0.125 0.0721689835190773 A 79.00334930419922 79.00334930419922 150.0 0 1 0.0 -0.1443379819393158 A 79.00334930419922 79.00334167480469 29.999990463256836 0 1 -0.125 0.0721689760684967 Z" style="vector-effect: non-scaling-stroke;" /></g><g transform="matrix(1.0, 0.0, 0.0, 1.0, 0.0, 0.18042245507240295)"><g transform="matrix(1.0, 0.0, 0.0, 1.0, -0.125, 0.03608449921011925)"><g><g style="fill: #ff9700;stroke: black;stroke-width: 0.885;" transform="matrix(1.0, 0.0, 0.0, 1.0, 0.0, 0.0)"><path d="M -0.125 0.0721689835190773 A 79.00334930419922 79.00334930419922 -90.0 0 1 0.125 0.0721689835190773 A 79.00334930419922 79.00334930419922 150.0 0 1 0.0 -0.1443379819393158 A 79.00334930419922 79.00334167480469 29.999990463256836 0 1 -0.125 0.0721689760684967 Z" style="vector-effect: non-scaling-stroke;" /></g><g style="fill: #ff9700;stroke: black;stroke-width: 0.885;" transform="matrix(1.0, 0.0, 0.0, 1.0, 0.25, 0.0)"><path d="M -0.125 0.0721689835190773 A 79.00334930419922 79.00334930419922 -90.0 0 1 0.125 0.0721689835190773 A 79.00334930419922 79.00334930419922 150.0 0 1 0.0 -0.1443379819393158 A 79.00334930419922 79.00334167480469 29.999990463256836 0 1 -0.125 0.0721689760684967 Z" style="vector-effect: non-scaling-stroke;" /></g></g></g></g></g></g></g></g></g></g></g></g></g></g><g transform="matrix(1.0, 0.0, 0.0, 1.0, 2.0, 0.0)"><g><g style="fill: #ff9700;stroke: black;stroke-width: 0.885;" transform="matrix(1.0, 0.0, 0.0, 1.0, 0.0, 0.0)"><path d="M -0.125 0.0721689835190773 A 79.00334930419922 79.00334930419922 -90.0 0 1 0.125 0.0721689835190773 A 79.00334930419922 79.00334930419922 150.0 0 1 0.0 -0.1443379819393158 A 79.00334930419922 79.00334167480469 29.999990463256836 0 1 -0.125 0.0721689760684967 Z" style="vector-effect: non-scaling-stroke;" /></g><g transform="matrix(1.0, 0.0, 0.0, 1.0, 0.0, 0.18042245507240295)"><g transform="matrix(1.0, 0.0, 0.0, 1.0, -0.125, 0.03608449921011925)"><g><g style="fill: #ff9700;stroke: black;stroke-width: 0.885;" transform="matrix(1.0, 0.0, 0.0, 1.0, 0.0, 0.0)"><path d="M -0.125 0.0721689835190773 A 79.00334930419922 79.00334930419922 -90.0 0 1 0.125 0.0721689835190773 A 79.00334930419922 79.00334930419922 150.0 0 1 0.0 -0.1443379819393158 A 79.00334930419922 79.00334167480469 29.999990463256836 0 1 -0.125 0.0721689760684967 Z" style="vector-effect: non-scaling-stroke;" /></g><g style="fill: #ff9700;stroke: black;stroke-width: 0.885;" transform="matrix(1.0, 0.0, 0.0, 1.0, 0.25, 0.0)"><path d="M -0.125 0.0721689835190773 A 79.00334930419922 79.00334930419922 -90.0 0 1 0.125 0.0721689835190773 A 79.00334930419922 79.00334930419922 150.0 0 1 0.0 -0.1443379819393158 A 79.00334930419922 79.00334167480469 29.999990463256836 0 1 -0.125 0.0721689760684967 Z" style="vector-effect: non-scaling-stroke;" /></g></g></g></g><g transform="matrix(1.0, 0.0, 0.0, 1.0, 0.0, 0.5051828622817993)"><g transform="matrix(1.0, 0.0, 0.0, 1.0, -0.25, -0.0721689760684967)"><g><g style="fill: #ff9700;stroke: black;stroke-width: 0.885;" transform="matrix(1.0, 0.0, 0.0, 1.0, 0.0, 0.0)"><path d="M -0.125 0.0721689835190773 A 79.00334930419922 79.00334930419922 -90.0 0 1 0.125 0.0721689835190773 A 79.00334930419922 79.00334930419922 150.0 0 1 0.0 -0.1443379819393158 A 79.00334930419922 79.00334167480469 29.999990463256836 0 1 -0.125 0.0721689760684967 Z" style="vector-effect: non-scaling-stroke;" /></g><g transform="matrix(1.0, 0.0, 0.0, 1.0, 0.0, 0.18042245507240295)"><g transform="matrix(1.0, 0.0, 0.0, 1.0, -0.125, 0.03608449921011925)"><g><g style="fill: #ff9700;stroke: black;stroke-width: 0.885;" transform="matrix(1.0, 0.0, 0.0, 1.0, 0.0, 0.0)"><path d="M -0.125 0.0721689835190773 A 79.00334930419922 79.00334930419922 -90.0 0 1 0.125 0.0721689835190773 A 79.00334930419922 79.00334930419922 150.0 0 1 0.0 -0.1443379819393158 A 79.00334930419922 79.00334167480469 29.999990463256836 0 1 -0.125 0.0721689760684967 Z" style="vector-effect: non-scaling-stroke;" /></g><g style="fill: #ff9700;stroke: black;stroke-width: 0.885;" transform="matrix(1.0, 0.0, 0.0, 1.0, 0.25, 0.0)"><path d="M -0.125 0.0721689835190773 A 79.00334930419922 79.00334930419922 -90.0 0 1 0.125 0.0721689835190773 A 79.00334930419922 79.00334930419922 150.0 0 1 0.0 -0.1443379819393158 A 79.00334930419922 79.00334167480469 29.999990463256836 0 1 -0.125 0.0721689760684967 Z" style="vector-effect: non-scaling-stroke;" /></g></g></g></g><g transform="matrix(1.0, 0.0, 0.0, 1.0, 0.5, 0.0)"><g><g style="fill: #ff9700;stroke: black;stroke-width: 0.885;" transform="matrix(1.0, 0.0, 0.0, 1.0, 0.0, 0.0)"><path d="M -0.125 0.0721689835190773 A 79.00334930419922 79.00334930419922 -90.0 0 1 0.125 0.0721689835190773 A 79.00334930419922 79.00334930419922 150.0 0 1 0.0 -0.1443379819393158 A 79.00334930419922 79.00334167480469 29.999990463256836 0 1 -0.125 0.0721689760684967 Z" style="vector-effect: non-scaling-stroke;" /></g><g transform="matrix(1.0, 0.0, 0.0, 1.0, 0.0, 0.18042245507240295)"><g transform="matrix(1.0, 0.0, 0.0, 1.0, -0.125, 0.03608449921011925)"><g><g style="fill: #ff9700;stroke: black;stroke-width: 0.885;" transform="matrix(1.0, 0.0, 0.0, 1.0, 0.0, 0.0)"><path d="M -0.125 0.0721689835190773 A 79.00334930419922 79.00334930419922 -90.0 0 1 0.125 0.0721689835190773 A 79.00334930419922 79.00334930419922 150.0 0 1 0.0 -0.1443379819393158 A 79.00334930419922 79.00334167480469 29.999990463256836 0 1 -0.125 0.0721689760684967 Z" style="vector-effect: non-scaling-stroke;" /></g><g style="fill: #ff9700;stroke: black;stroke-width: 0.885;" transform="matrix(1.0, 0.0, 0.0, 1.0, 0.25, 0.0)"><path d="M -0.125 0.0721689835190773 A 79.00334930419922 79.00334930419922 -90.0 0 1 0.125 0.0721689835190773 A 79.00334930419922 79.00334930419922 150.0 0 1 0.0 -0.1443379819393158 A 79.00334930419922 79.00334167480469 29.999990463256836 0 1 -0.125 0.0721689760684967 Z" style="vector-effect: non-scaling-stroke;" /></g></g></g></g></g></g></g></g></g><g transform="matrix(1.0, 0.0, 0.0, 1.0, 0.0, 1.1547037363052368)"><g transform="matrix(1.0, 0.0, 0.0, 1.0, -0.5, -0.2886759042739868)"><g><g style="fill: #ff9700;stroke: black;stroke-width: 0.885;" transform="matrix(1.0, 0.0, 0.0, 1.0, 0.0, 0.0)"><path d="M -0.125 0.0721689835190773 A 79.00334930419922 79.00334930419922 -90.0 0 1 0.125 0.0721689835190773 A 79.00334930419922 79.00334930419922 150.0 0 1 0.0 -0.1443379819393158 A 79.00334930419922 79.00334167480469 29.999990463256836 0 1 -0.125 0.0721689760684967 Z" style="vector-effect: non-scaling-stroke;" /></g><g transform="matrix(1.0, 0.0, 0.0, 1.0, 0.0, 0.18042245507240295)"><g transform="matrix(1.0, 0.0, 0.0, 1.0, -0.125, 0.03608449921011925)"><g><g style="fill: #ff9700;stroke: black;stroke-width: 0.885;" transform="matrix(1.0, 0.0, 0.0, 1.0, 0.0, 0.0)"><path d="M -0.125 0.0721689835190773 A 79.00334930419922 79.00334930419922 -90.0 0 1 0.125 0.0721689835190773 A 79.00334930419922 79.00334930419922 150.0 0 1 0.0 -0.1443379819393158 A 79.00334930419922 79.00334167480469 29.999990463256836 0 1 -0.125 0.0721689760684967 Z" style="vector-effect: non-scaling-stroke;" /></g><g style="fill: #ff9700;stroke: black;stroke-width: 0.885;" transform="matrix(1.0, 0.0, 0.0, 1.0, 0.25, 0.0)"><path d="M -0.125 0.0721689835190773 A 79.00334930419922 79.00334930419922 -90.0 0 1 0.125 0.0721689835190773 A 79.00334930419922 79.00334930419922 150.0 0 1 0.0 -0.1443379819393158 A 79.00334930419922 79.00334167480469 29.999990463256836 0 1 -0.125 0.0721689760684967 Z" style="vector-effect: non-scaling-stroke;" /></g></g></g></g><g transform="matrix(1.0, 0.0, 0.0, 1.0, 0.0, 0.5051828622817993)"><g transform="matrix(1.0, 0.0, 0.0, 1.0, -0.25, -0.0721689760684967)"><g><g style="fill: #ff9700;stroke: black;stroke-width: 0.885;" transform="matrix(1.0, 0.0, 0.0, 1.0, 0.0, 0.0)"><path d="M -0.125 0.0721689835190773 A 79.00334930419922 79.00334930419922 -90.0 0 1 0.125 0.0721689835190773 A 79.00334930419922 79.00334930419922 150.0 0 1 0.0 -0.1443379819393158 A 79.00334930419922 79.00334167480469 29.999990463256836 0 1 -0.125 0.0721689760684967 Z" style="vector-effect: non-scaling-stroke;" /></g><g transform="matrix(1.0, 0.0, 0.0, 1.0, 0.0, 0.18042245507240295)"><g transform="matrix(1.0, 0.0, 0.0, 1.0, -0.125, 0.03608449921011925)"><g><g style="fill: #ff9700;stroke: black;stroke-width: 0.885;" transform="matrix(1.0, 0.0, 0.0, 1.0, 0.0, 0.0)"><path d="M -0.125 0.0721689835190773 A 79.00334930419922 79.00334930419922 -90.0 0 1 0.125 0.0721689835190773 A 79.00334930419922 79.00334930419922 150.0 0 1 0.0 -0.1443379819393158 A 79.00334930419922 79.00334167480469 29.999990463256836 0 1 -0.125 0.0721689760684967 Z" style="vector-effect: non-scaling-stroke;" /></g><g style="fill: #ff9700;stroke: black;stroke-width: 0.885;" transform="matrix(1.0, 0.0, 0.0, 1.0, 0.25, 0.0)"><path d="M -0.125 0.0721689835190773 A 79.00334930419922 79.00334930419922 -90.0 0 1 0.125 0.0721689835190773 A 79.00334930419922 79.00334930419922 150.0 0 1 0.0 -0.1443379819393158 A 79.00334930419922 79.00334167480469 29.999990463256836 0 1 -0.125 0.0721689760684967 Z" style="vector-effect: non-scaling-stroke;" /></g></g></g></g><g transform="matrix(1.0, 0.0, 0.0, 1.0, 0.5, 0.0)"><g><g style="fill: #ff9700;stroke: black;stroke-width: 0.885;" transform="matrix(1.0, 0.0, 0.0, 1.0, 0.0, 0.0)"><path d="M -0.125 0.0721689835190773 A 79.00334930419922 79.00334930419922 -90.0 0 1 0.125 0.0721689835190773 A 79.00334930419922 79.00334930419922 150.0 0 1 0.0 -0.1443379819393158 A 79.00334930419922 79.00334167480469 29.999990463256836 0 1 -0.125 0.0721689760684967 Z" style="vector-effect: non-scaling-stroke;" /></g><g transform="matrix(1.0, 0.0, 0.0, 1.0, 0.0, 0.18042245507240295)"><g transform="matrix(1.0, 0.0, 0.0, 1.0, -0.125, 0.03608449921011925)"><g><g style="fill: #ff9700;stroke: black;stroke-width: 0.885;" transform="matrix(1.0, 0.0, 0.0, 1.0, 0.0, 0.0)"><path d="M -0.125 0.0721689835190773 A 79.00334930419922 79.00334930419922 -90.0 0 1 0.125 0.0721689835190773 A 79.00334930419922 79.00334930419922 150.0 0 1 0.0 -0.1443379819393158 A 79.00334930419922 79.00334167480469 29.999990463256836 0 1 -0.125 0.0721689760684967 Z" style="vector-effect: non-scaling-stroke;" /></g><g style="fill: #ff9700;stroke: black;stroke-width: 0.885;" transform="matrix(1.0, 0.0, 0.0, 1.0, 0.25, 0.0)"><path d="M -0.125 0.0721689835190773 A 79.00334930419922 79.00334930419922 -90.0 0 1 0.125 0.0721689835190773 A 79.00334930419922 79.00334930419922 150.0 0 1 0.0 -0.1443379819393158 A 79.00334930419922 79.00334167480469 29.999990463256836 0 1 -0.125 0.0721689760684967 Z" style="vector-effect: non-scaling-stroke;" /></g></g></g></g></g></g></g></g></g><g transform="matrix(1.0, 0.0, 0.0, 1.0, 1.0, 0.0)"><g><g style="fill: #ff9700;stroke: black;stroke-width: 0.885;" transform="matrix(1.0, 0.0, 0.0, 1.0, 0.0, 0.0)"><path d="M -0.125 0.0721689835190773 A 79.00334930419922 79.00334930419922 -90.0 0 1 0.125 0.0721689835190773 A 79.00334930419922 79.00334930419922 150.0 0 1 0.0 -0.1443379819393158 A 79.00334930419922 79.00334167480469 29.999990463256836 0 1 -0.125 0.0721689760684967 Z" style="vector-effect: non-scaling-stroke;" /></g><g transform="matrix(1.0, 0.0, 0.0, 1.0, 0.0, 0.18042245507240295)"><g transform="matrix(1.0, 0.0, 0.0, 1.0, -0.125, 0.03608449921011925)"><g><g style="fill: #ff9700;stroke: black;stroke-width: 0.885;" transform="matrix(1.0, 0.0, 0.0, 1.0, 0.0, 0.0)"><path d="M -0.125 0.0721689835190773 A 79.00334930419922 79.00334930419922 -90.0 0 1 0.125 0.0721689835190773 A 79.00334930419922 79.00334930419922 150.0 0 1 0.0 -0.1443379819393158 A 79.00334930419922 79.00334167480469 29.999990463256836 0 1 -0.125 0.0721689760684967 Z" style="vector-effect: non-scaling-stroke;" /></g><g style="fill: #ff9700;stroke: black;stroke-width: 0.885;" transform="matrix(1.0, 0.0, 0.0, 1.0, 0.25, 0.0)"><path d="M -0.125 0.0721689835190773 A 79.00334930419922 79.00334930419922 -90.0 0 1 0.125 0.0721689835190773 A 79.00334930419922 79.00334930419922 150.0 0 1 0.0 -0.1443379819393158 A 79.00334930419922 79.00334167480469 29.999990463256836 0 1 -0.125 0.0721689760684967 Z" style="vector-effect: non-scaling-stroke;" /></g></g></g></g><g transform="matrix(1.0, 0.0, 0.0, 1.0, 0.0, 0.5051828622817993)"><g transform="matrix(1.0, 0.0, 0.0, 1.0, -0.25, -0.0721689760684967)"><g><g style="fill: #ff9700;stroke: black;stroke-width: 0.885;" transform="matrix(1.0, 0.0, 0.0, 1.0, 0.0, 0.0)"><path d="M -0.125 0.0721689835190773 A 79.00334930419922 79.00334930419922 -90.0 0 1 0.125 0.0721689835190773 A 79.00334930419922 79.00334930419922 150.0 0 1 0.0 -0.1443379819393158 A 79.00334930419922 79.00334167480469 29.999990463256836 0 1 -0.125 0.0721689760684967 Z" style="vector-effect: non-scaling-stroke;" /></g><g transform="matrix(1.0, 0.0, 0.0, 1.0, 0.0, 0.18042245507240295)"><g transform="matrix(1.0, 0.0, 0.0, 1.0, -0.125, 0.03608449921011925)"><g><g style="fill: #ff9700;stroke: black;stroke-width: 0.885;" transform="matrix(1.0, 0.0, 0.0, 1.0, 0.0, 0.0)"><path d="M -0.125 0.0721689835190773 A 79.00334930419922 79.00334930419922 -90.0 0 1 0.125 0.0721689835190773 A 79.00334930419922 79.00334930419922 150.0 0 1 0.0 -0.1443379819393158 A 79.00334930419922 79.00334167480469 29.999990463256836 0 1 -0.125 0.0721689760684967 Z" style="vector-effect: non-scaling-stroke;" /></g><g style="fill: #ff9700;stroke: black;stroke-width: 0.885;" transform="matrix(1.0, 0.0, 0.0, 1.0, 0.25, 0.0)"><path d="M -0.125 0.0721689835190773 A 79.00334930419922 79.00334930419922 -90.0 0 1 0.125 0.0721689835190773 A 79.00334930419922 79.00334930419922 150.0 0 1 0.0 -0.1443379819393158 A 79.00334930419922 79.00334167480469 29.999990463256836 0 1 -0.125 0.0721689760684967 Z" style="vector-effect: non-scaling-stroke;" /></g></g></g></g><g transform="matrix(1.0, 0.0, 0.0, 1.0, 0.5, 0.0)"><g><g style="fill: #ff9700;stroke: black;stroke-width: 0.885;" transform="matrix(1.0, 0.0, 0.0, 1.0, 0.0, 0.0)"><path d="M -0.125 0.0721689835190773 A 79.00334930419922 79.00334930419922 -90.0 0 1 0.125 0.0721689835190773 A 79.00334930419922 79.00334930419922 150.0 0 1 0.0 -0.1443379819393158 A 79.00334930419922 79.00334167480469 29.999990463256836 0 1 -0.125 0.0721689760684967 Z" style="vector-effect: non-scaling-stroke;" /></g><g transform="matrix(1.0, 0.0, 0.0, 1.0, 0.0, 0.18042245507240295)"><g transform="matrix(1.0, 0.0, 0.0, 1.0, -0.125, 0.03608449921011925)"><g><g style="fill: #ff9700;stroke: black;stroke-width: 0.885;" transform="matrix(1.0, 0.0, 0.0, 1.0, 0.0, 0.0)"><path d="M -0.125 0.0721689835190773 A 79.00334930419922 79.00334930419922 -90.0 0 1 0.125 0.0721689835190773 A 79.00334930419922 79.00334930419922 150.0 0 1 0.0 -0.1443379819393158 A 79.00334930419922 79.00334167480469 29.999990463256836 0 1 -0.125 0.0721689760684967 Z" style="vector-effect: non-scaling-stroke;" /></g><g style="fill: #ff9700;stroke: black;stroke-width: 0.885;" transform="matrix(1.0, 0.0, 0.0, 1.0, 0.25, 0.0)"><path d="M -0.125 0.0721689835190773 A 79.00334930419922 79.00334930419922 -90.0 0 1 0.125 0.0721689835190773 A 79.00334930419922 79.00334930419922 150.0 0 1 0.0 -0.1443379819393158 A 79.00334930419922 79.00334167480469 29.999990463256836 0 1 -0.125 0.0721689760684967 Z" style="vector-effect: non-scaling-stroke;" /></g></g></g></g></g></g></g></g></g></g></g></g></g></g></g></g></g></g></g></g></g><g /></g></g></g></g></svg>