<?xml version="1.0" encoding="utf-8" ?>
<svg baseProfile="full" height="64" version="1.1" width="64" xmlns="http://www.w3.org/2000/svg" xmlns:ev="http://www.w3.org/2001/xml-events" xmlns:xlink="http://www.w3.org/1999/xlink"><defs><marker id="arrow" markerHeight="3.5" markerWidth="5" orient="auto" refX="5.0" refY="1.7"><polygon points="0,0 5,1.75 0,3.5" /></marker></defs><g style="fill:white;"><g transform="matrix(30.473143161870293, 0.0, 0.0, 30.473143161870293, 15.23657158094467, 30.47466681901414)"><g><g style="fill: #ff9700;stroke: black;stroke-width: 0.192;" transform="matrix(0.5, 0.0, 0.0, 0.5, 0.5, 0.0)"><path d="M 0.0 0.0 A 1.0 1.0 0.0 0 0 -0.9999999999999999 -1.0 A 1.0 1.0 -90.0 0 0 -2.0 -1.2246467991473532e-16 A 1.0 1.0 -180.0 0 0 -1.0000000000000002 0.9999999999999999 A 1.0 1.0 90.00000000000001 0 0 0.0 2.4492935982947064e-16 Z" style="vector-effect: non-scaling-stroke;" /></g><g style="fill: #005fdb;stroke: black;stroke-width: 0.192;" transform="matrix(1.0, 0.0, 0.0, 1.0, 0.500099999998838, -0.5)"><path d="M 0.0 0.0 L 1.0000000000000764 3.061616997868383e-17 L 1.0 1.0000000000000764 L -1.1102230246251565e-16 0.9999999999999999 L 0.0 -1.1102230246251565e-16 Z" style="vector-effect: non-scaling-stroke;" /></g><g style="stroke: #ff0000;stroke-width: 0.192;fill-opacity: 0;" transform="matrix(1.0, 0.0, 0.0, 1.0, 0.0, 0.0)"><path d="M 1.500199999997676 0.0 L 1.0000499999988408 1.0000499999990684 L -2.2737367544323206e-13 0.5000999999990654 L -0.35355339059353097 0.35355339059361623 L -0.5000000000002558 3.126388037344441e-13 L -0.35355339059353097 -0.35355339059296254 L -2.4158453015843406e-13 -0.5000999999985254 L 1.0000499999987986 -1.0000499999985715 L 1.500199999997676 5.684341886080801e-13" style="vector-effect: non-scaling-stroke;fill:none;" /></g><g><g><g style="stroke: #0000ff;stroke-width: 0.192;stroke-dasharray: 0.01 0.01;" transform="matrix(1.0, 0.0, 0.0, 1.0, 0.0, 0.0)"><path d="M 0.0 0.0 L 1.5001999999978484 4.593037820195033e-17" style="vector-effect: non-scaling-stroke;fill:none;" /></g><g style="stroke: #0000ff;stroke-width: 0.192;stroke-dasharray: 0.01 0.01;" transform="matrix(1.0, 0.0, 0.0, 1.0, 0.0, 0.0)"><path d="M 0.0 0.0 L 1.0000499999986134 1.0000499999988408" style="vector-effect: non-scaling-stroke;fill:none;" /></g><g style="stroke: #0000ff;stroke-width: 0.192;stroke-dasharray: 0.01 0.01;" transform="matrix(1.0, 0.0, 0.0, 1.0, 0.0, 0.0)"><path d="M 0.0 0.0 L 0.0 0.5000999999988571" style="vector-effect: non-scaling-stroke;fill:none;" /></g><g style="stroke: #0000ff;stroke-width: 0.192;stroke-dasharray: 0.01 0.01;" transform="matrix(1.0, 0.0, 0.0, 1.0, 0.0, 0.0)"><path d="M 0.0 0.0 L -0.3535533905932752 0.35355339059327523" style="vector-effect: non-scaling-stroke;fill:none;" /></g><g style="stroke: #0000ff;stroke-width: 0.192;stroke-dasharray: 0.01 0.01;" transform="matrix(1.0, 0.0, 0.0, 1.0, 0.0, 0.0)"><path d="M 0.0 0.0 L -0.5000000000000191 1.5308084989341915e-17" style="vector-effect: non-scaling-stroke;fill:none;" /></g><g style="stroke: #0000ff;stroke-width: 0.192;stroke-dasharray: 0.01 0.01;" transform="matrix(1.0, 0.0, 0.0, 1.0, 0.0, 0.0)"><path d="M 0.0 0.0 L -0.3535533905932753 -0.3535533905932751" style="vector-effect: non-scaling-stroke;fill:none;" /></g><g style="stroke: #0000ff;stroke-width: 0.192;stroke-dasharray: 0.01 0.01;" transform="matrix(1.0, 0.0, 0.0, 1.0, 0.0, 0.0)"><path d="M 0.0 0.0 L -2.489996024876665e-17 -0.5000999999988571" style="vector-effect: non-scaling-stroke;fill:none;" /></g><g style="stroke: #0000ff;stroke-width: 0.192;stroke-dasharray: 0.01 0.01;" transform="matrix(1.0, 0.0, 0.0, 1.0, 0.0, 0.0)"><path d="M 0.0 0.0 L 1.0000499999987986 -1.0000499999987986" style="vector-effect: non-scaling-stroke;fill:none;" /></g></g><g style="stroke: #0000ff;stroke-width: 0.192;stroke-dasharray: 0.01 0.01;" transform="matrix(1.0, 0.0, 0.0, 1.0, 0.0, 0.0)"><path d="M 0.0 0.0 L 1.5001999999978484 -1.3779113460585098e-16" style="vector-effect: non-scaling-stroke;fill:none;" /></g></g></g></g></g></svg>