<?xml version="1.0" encoding="utf-8" ?>
<svg baseProfile="full" height="256" version="1.1" width="295" xmlns="http://www.w3.org/2000/svg" xmlns:ev="http://www.w3.org/2001/xml-events" xmlns:xlink="http://www.w3.org/1999/xlink"><defs><marker id="arrow" markerHeight="3.5" markerWidth="5" orient="auto" refX="5.0" refY="1.7"><polygon points="0,0 5,1.75 0,3.5" /></marker></defs><g style="fill:white;"><g transform="matrix(70.37162780761719, 0.0, 0.0, 70.37162780761719, 140.7462158203125, 10.159088134765625)"><g><g><g><g><g style="fill: #ff9700;stroke: black;stroke-width: 0.885;" transform="matrix(1.0, 0.0, 0.0, 1.0, 0.0, 0.0)"><path d="M -0.12498944997787476 0.0721639022231102 L 0.12499471753835678 0.072174072265625 L 0.0 -0.1443328857421875 L -0.125 0.0721588134765625 Z" style="vector-effect: non-scaling-stroke;" /></g><g transform="matrix(1.0, 0.0, 0.0, 1.0, -0.1249999925494194, 0.2165374755859375)"><g><g style="fill: #ff9700;stroke: black;stroke-width: 0.885;" transform="matrix(1.0, 0.0, 0.0, 1.0, 0.0, 0.0)"><path d="M -0.12498944997787476 0.0721639022231102 L 0.12499471753835678 0.072174072265625 L 0.0 -0.1443328857421875 L -0.125 0.0721588134765625 Z" style="vector-effect: non-scaling-stroke;" /></g><g style="fill: #ff9700;stroke: black;stroke-width: 0.885;" transform="matrix(1.0, 0.0, 0.0, 1.0, 0.25000524520874023, 0.0)"><path d="M -0.12498944997787476 0.0721639022231102 L 0.12499471753835678 0.072174072265625 L 0.0 -0.1443328857421875 L -0.125 0.0721588134765625 Z" style="vector-effect: non-scaling-stroke;" /></g></g></g></g><g transform="matrix(1.0, 0.0, 0.0, 1.0, -0.25000524520874023, 0.433074951171875)"><g><g><g style="fill: #ff9700;stroke: black;stroke-width: 0.885;" transform="matrix(1.0, 0.0, 0.0, 1.0, 0.0, 0.0)"><path d="M -0.12498944997787476 0.0721639022231102 L 0.12499471753835678 0.072174072265625 L 0.0 -0.1443328857421875 L -0.125 0.0721588134765625 Z" style="vector-effect: non-scaling-stroke;" /></g><g transform="matrix(1.0, 0.0, 0.0, 1.0, -0.1249999925494194, 0.2165374755859375)"><g><g style="fill: #ff9700;stroke: black;stroke-width: 0.885;" transform="matrix(1.0, 0.0, 0.0, 1.0, 0.0, 0.0)"><path d="M -0.12498944997787476 0.0721639022231102 L 0.12499471753835678 0.072174072265625 L 0.0 -0.1443328857421875 L -0.125 0.0721588134765625 Z" style="vector-effect: non-scaling-stroke;" /></g><g style="fill: #ff9700;stroke: black;stroke-width: 0.885;" transform="matrix(1.0, 0.0, 0.0, 1.0, 0.25000524520874023, 0.0)"><path d="M -0.12498944997787476 0.0721639022231102 L 0.12499471753835678 0.072174072265625 L 0.0 -0.1443328857421875 L -0.125 0.0721588134765625 Z" style="vector-effect: non-scaling-stroke;" /></g></g></g></g><g transform="matrix(1.0, 0.0, 0.0, 1.0, 0.5000104904174805, 0.0)"><g><g style="fill: #ff9700;stroke: black;stroke-width: 0.885;" transform="matrix(1.0, 0.0, 0.0, 1.0, 0.0, 0.0)"><path d="M -0.12498944997787476 0.0721639022231102 L 0.12499471753835678 0.072174072265625 L 0.0 -0.1443328857421875 L -0.125 0.0721588134765625 Z" style="vector-effect: non-scaling-stroke;" /></g><g transform="matrix(1.0, 0.0, 0.0, 1.0, -0.1249999925494194, 0.2165374755859375)"><g><g style="fill: #ff9700;stroke: black;stroke-width: 0.885;" transform="matrix(1.0, 0.0, 0.0, 1.0, 0.0, 0.0)"><path d="M -0.12498944997787476 0.0721639022231102 L 0.12499471753835678 0.072174072265625 L 0.0 -0.1443328857421875 L -0.125 0.0721588134765625 Z" style="vector-effect: non-scaling-stroke;" /></g><g style="fill: #ff9700;stroke: black;stroke-width: 0.885;" transform="matrix(1.0, 0.0, 0.0, 1.0, 0.25000524520874023, 0.0)"><path d="M -0.12498944997787476 0.0721639022231102 L 0.12499471753835678 0.072174072265625 L 0.0 -0.1443328857421875 L -0.125 0.0721588134765625 Z" style="vector-effect: non-scaling-stroke;" /></g></g></g></g></g></g></g></g><g transform="matrix(1.0, 0.0, 0.0, 1.0, -0.5000104904174805, 0.86614990234375)"><g><g><g><g style="fill: #ff9700;stroke: black;stroke-width: 0.885;" transform="matrix(1.0, 0.0, 0.0, 1.0, 0.0, 0.0)"><path d="M -0.12498944997787476 0.0721639022231102 L 0.12499471753835678 0.072174072265625 L 0.0 -0.1443328857421875 L -0.125 0.0721588134765625 Z" style="vector-effect: non-scaling-stroke;" /></g><g transform="matrix(1.0, 0.0, 0.0, 1.0, -0.1249999925494194, 0.2165374755859375)"><g><g style="fill: #ff9700;stroke: black;stroke-width: 0.885;" transform="matrix(1.0, 0.0, 0.0, 1.0, 0.0, 0.0)"><path d="M -0.12498944997787476 0.0721639022231102 L 0.12499471753835678 0.072174072265625 L 0.0 -0.1443328857421875 L -0.125 0.0721588134765625 Z" style="vector-effect: non-scaling-stroke;" /></g><g style="fill: #ff9700;stroke: black;stroke-width: 0.885;" transform="matrix(1.0, 0.0, 0.0, 1.0, 0.25000524520874023, 0.0)"><path d="M -0.12498944997787476 0.0721639022231102 L 0.12499471753835678 0.072174072265625 L 0.0 -0.1443328857421875 L -0.125 0.0721588134765625 Z" style="vector-effect: non-scaling-stroke;" /></g></g></g></g><g transform="matrix(1.0, 0.0, 0.0, 1.0, -0.25000524520874023, 0.433074951171875)"><g><g><g style="fill: #ff9700;stroke: black;stroke-width: 0.885;" transform="matrix(1.0, 0.0, 0.0, 1.0, 0.0, 0.0)"><path d="M -0.12498944997787476 0.0721639022231102 L 0.12499471753835678 0.072174072265625 L 0.0 -0.1443328857421875 L -0.125 0.0721588134765625 Z" style="vector-effect: non-scaling-stroke;" /></g><g transform="matrix(1.0, 0.0, 0.0, 1.0, -0.1249999925494194, 0.2165374755859375)"><g><g style="fill: #ff9700;stroke: black;stroke-width: 0.885;" transform="matrix(1.0, 0.0, 0.0, 1.0, 0.0, 0.0)"><path d="M -0.12498944997787476 0.0721639022231102 L 0.12499471753835678 0.072174072265625 L 0.0 -0.1443328857421875 L -0.125 0.0721588134765625 Z" style="vector-effect: non-scaling-stroke;" /></g><g style="fill: #ff9700;stroke: black;stroke-width: 0.885;" transform="matrix(1.0, 0.0, 0.0, 1.0, 0.25000524520874023, 0.0)"><path d="M -0.12498944997787476 0.0721639022231102 L 0.12499471753835678 0.072174072265625 L 0.0 -0.1443328857421875 L -0.125 0.0721588134765625 Z" style="vector-effect: non-scaling-stroke;" /></g></g></g></g><g transform="matrix(1.0, 0.0, 0.0, 1.0, 0.5000104904174805, 0.0)"><g><g style="fill: #ff9700;stroke: black;stroke-width: 0.885;" transform="matrix(1.0, 0.0, 0.0, 1.0, 0.0, 0.0)"><path d="M -0.12498944997787476 0.0721639022231102 L 0.12499471753835678 0.072174072265625 L 0.0 -0.1443328857421875 L -0.125 0.0721588134765625 Z" style="vector-effect: non-scaling-stroke;" /></g><g transform="matrix(1.0, 0.0, 0.0, 1.0, -0.1249999925494194, 0.2165374755859375)"><g><g style="fill: #ff9700;stroke: black;stroke-width: 0.885;" transform="matrix(1.0, 0.0, 0.0, 1.0, 0.0, 0.0)"><path d="M -0.12498944997787476 0.0721639022231102 L 0.12499471753835678 0.072174072265625 L 0.0 -0.1443328857421875 L -0.125 0.0721588134765625 Z" style="vector-effect: non-scaling-stroke;" /></g><g style="fill: #ff9700;stroke: black;stroke-width: 0.885;" transform="matrix(1.0, 0.0, 0.0, 1.0, 0.25000524520874023, 0.0)"><path d="M -0.12498944997787476 0.0721639022231102 L 0.12499471753835678 0.072174072265625 L 0.0 -0.1443328857421875 L -0.125 0.0721588134765625 Z" style="vector-effect: non-scaling-stroke;" /></g></g></g></g></g></g></g></g><g transform="matrix(1.0, 0.0, 0.0, 1.0, 1.000020980834961, 0.0)"><g><g><g style="fill: #ff9700;stroke: black;stroke-width: 0.885;" transform="matrix(1.0, 0.0, 0.0, 1.0, 0.0, 0.0)"><path d="M -0.12498944997787476 0.0721639022231102 L 0.12499471753835678 0.072174072265625 L 0.0 -0.1443328857421875 L -0.125 0.0721588134765625 Z" style="vector-effect: non-scaling-stroke;" /></g><g transform="matrix(1.0, 0.0, 0.0, 1.0, -0.1249999925494194, 0.2165374755859375)"><g><g style="fill: #ff9700;stroke: black;stroke-width: 0.885;" transform="matrix(1.0, 0.0, 0.0, 1.0, 0.0, 0.0)"><path d="M -0.12498944997787476 0.0721639022231102 L 0.12499471753835678 0.072174072265625 L 0.0 -0.1443328857421875 L -0.125 0.0721588134765625 Z" style="vector-effect: non-scaling-stroke;" /></g><g style="fill: #ff9700;stroke: black;stroke-width: 0.885;" transform="matrix(1.0, 0.0, 0.0, 1.0, 0.25000524520874023, 0.0)"><path d="M -0.12498944997787476 0.0721639022231102 L 0.12499471753835678 0.072174072265625 L 0.0 -0.1443328857421875 L -0.125 0.0721588134765625 Z" style="vector-effect: non-scaling-stroke;" /></g></g></g></g><g transform="matrix(1.0, 0.0, 0.0, 1.0, -0.25000524520874023, 0.433074951171875)"><g><g><g style="fill: #ff9700;stroke: black;stroke-width: 0.885;" transform="matrix(1.0, 0.0, 0.0, 1.0, 0.0, 0.0)"><path d="M -0.12498944997787476 0.0721639022231102 L 0.12499471753835678 0.072174072265625 L 0.0 -0.1443328857421875 L -0.125 0.0721588134765625 Z" style="vector-effect: non-scaling-stroke;" /></g><g transform="matrix(1.0, 0.0, 0.0, 1.0, -0.1249999925494194, 0.2165374755859375)"><g><g style="fill: #ff9700;stroke: black;stroke-width: 0.885;" transform="matrix(1.0, 0.0, 0.0, 1.0, 0.0, 0.0)"><path d="M -0.12498944997787476 0.0721639022231102 L 0.12499471753835678 0.072174072265625 L 0.0 -0.1443328857421875 L -0.125 0.0721588134765625 Z" style="vector-effect: non-scaling-stroke;" /></g><g style="fill: #ff9700;stroke: black;stroke-width: 0.885;" transform="matrix(1.0, 0.0, 0.0, 1.0, 0.25000524520874023, 0.0)"><path d="M -0.12498944997787476 0.0721639022231102 L 0.12499471753835678 0.072174072265625 L 0.0 -0.1443328857421875 L -0.125 0.0721588134765625 Z" style="vector-effect: non-scaling-stroke;" /></g></g></g></g><g transform="matrix(1.0, 0.0, 0.0, 1.0, 0.5000104904174805, 0.0)"><g><g style="fill: #ff9700;stroke: black;stroke-width: 0.885;" transform="matrix(1.0, 0.0, 0.0, 1.0, 0.0, 0.0)"><path d="M -0.12498944997787476 0.0721639022231102 L 0.12499471753835678 0.072174072265625 L 0.0 -0.1443328857421875 L -0.125 0.0721588134765625 Z" style="vector-effect: non-scaling-stroke;" /></g><g transform="matrix(1.0, 0.0, 0.0, 1.0, -0.1249999925494194, 0.2165374755859375)"><g><g style="fill: #ff9700;stroke: black;stroke-width: 0.885;" transform="matrix(1.0, 0.0, 0.0, 1.0, 0.0, 0.0)"><path d="M -0.12498944997787476 0.0721639022231102 L 0.12499471753835678 0.072174072265625 L 0.0 -0.1443328857421875 L -0.125 0.0721588134765625 Z" style="vector-effect: non-scaling-stroke;" /></g><g style="fill: #ff9700;stroke: black;stroke-width: 0.885;" transform="matrix(1.0, 0.0, 0.0, 1.0, 0.25000524520874023, 0.0)"><path d="M -0.12498944997787476 0.0721639022231102 L 0.12499471753835678 0.072174072265625 L 0.0 -0.1443328857421875 L -0.125 0.0721588134765625 Z" style="vector-effect: non-scaling-stroke;" /></g></g></g></g></g></g></g></g></g></g></g></g><g transform="matrix(1.0, 0.0, 0.0, 1.0, -1.000020980834961, 1.7322998046875)"><g><g><g><g><g style="fill: #ff9700;stroke: black;stroke-width: 0.885;" transform="matrix(1.0, 0.0, 0.0, 1.0, 0.0, 0.0)"><path d="M -0.12498944997787476 0.0721639022231102 L 0.12499471753835678 0.072174072265625 L 0.0 -0.1443328857421875 L -0.125 0.0721588134765625 Z" style="vector-effect: non-scaling-stroke;" /></g><g transform="matrix(1.0, 0.0, 0.0, 1.0, -0.1249999925494194, 0.2165374755859375)"><g><g style="fill: #ff9700;stroke: black;stroke-width: 0.885;" transform="matrix(1.0, 0.0, 0.0, 1.0, 0.0, 0.0)"><path d="M -0.12498944997787476 0.0721639022231102 L 0.12499471753835678 0.072174072265625 L 0.0 -0.1443328857421875 L -0.125 0.0721588134765625 Z" style="vector-effect: non-scaling-stroke;" /></g><g style="fill: #ff9700;stroke: black;stroke-width: 0.885;" transform="matrix(1.0, 0.0, 0.0, 1.0, 0.25000524520874023, 0.0)"><path d="M -0.12498944997787476 0.0721639022231102 L 0.12499471753835678 0.072174072265625 L 0.0 -0.1443328857421875 L -0.125 0.0721588134765625 Z" style="vector-effect: non-scaling-stroke;" /></g></g></g></g><g transform="matrix(1.0, 0.0, 0.0, 1.0, -0.25000524520874023, 0.433074951171875)"><g><g><g style="fill: #ff9700;stroke: black;stroke-width: 0.885;" transform="matrix(1.0, 0.0, 0.0, 1.0, 0.0, 0.0)"><path d="M -0.12498944997787476 0.0721639022231102 L 0.12499471753835678 0.072174072265625 L 0.0 -0.1443328857421875 L -0.125 0.0721588134765625 Z" style="vector-effect: non-scaling-stroke;" /></g><g transform="matrix(1.0, 0.0, 0.0, 1.0, -0.1249999925494194, 0.2165374755859375)"><g><g style="fill: #ff9700;stroke: black;stroke-width: 0.885;" transform="matrix(1.0, 0.0, 0.0, 1.0, 0.0, 0.0)"><path d="M -0.12498944997787476 0.0721639022231102 L 0.12499471753835678 0.072174072265625 L 0.0 -0.1443328857421875 L -0.125 0.0721588134765625 Z" style="vector-effect: non-scaling-stroke;" /></g><g style="fill: #ff9700;stroke: black;stroke-width: 0.885;" transform="matrix(1.0, 0.0, 0.0, 1.0, 0.25000524520874023, 0.0)"><path d="M -0.12498944997787476 0.0721639022231102 L 0.12499471753835678 0.072174072265625 L 0.0 -0.1443328857421875 L -0.125 0.0721588134765625 Z" style="vector-effect: non-scaling-stroke;" /></g></g></g></g><g transform="matrix(1.0, 0.0, 0.0, 1.0, 0.5000104904174805, 0.0)"><g><g style="fill: #ff9700;stroke: black;stroke-width: 0.885;" transform="matrix(1.0, 0.0, 0.0, 1.0, 0.0, 0.0)"><path d="M -0.12498944997787476 0.0721639022231102 L 0.12499471753835678 0.072174072265625 L 0.0 -0.1443328857421875 L -0.125 0.0721588134765625 Z" style="vector-effect: non-scaling-stroke;" /></g><g transform="matrix(1.0, 0.0, 0.0, 1.0, -0.1249999925494194, 0.2165374755859375)"><g><g style="fill: #ff9700;stroke: black;stroke-width: 0.885;" transform="matrix(1.0, 0.0, 0.0, 1.0, 0.0, 0.0)"><path d="M -0.12498944997787476 0.0721639022231102 L 0.12499471753835678 0.072174072265625 L 0.0 -0.1443328857421875 L -0.125 0.0721588134765625 Z" style="vector-effect: non-scaling-stroke;" /></g><g style="fill: #ff9700;stroke: black;stroke-width: 0.885;" transform="matrix(1.0, 0.0, 0.0, 1.0, 0.25000524520874023, 0.0)"><path d="M -0.12498944997787476 0.0721639022231102 L 0.12499471753835678 0.072174072265625 L 0.0 -0.1443328857421875 L -0.125 0.0721588134765625 Z" style="vector-effect: non-scaling-stroke;" /></g></g></g></g></g></g></g></g><g transform="matrix(1.0, 0.0, 0.0, 1.0, -0.5000104904174805, 0.86614990234375)"><g><g><g><g style="fill: #ff9700;stroke: black;stroke-width: 0.885;" transform="matrix(1.0, 0.0, 0.0, 1.0, 0.0, 0.0)"><path d="M -0.12498944997787476 0.0721639022231102 L 0.12499471753835678 0.072174072265625 L 0.0 -0.1443328857421875 L -0.125 0.0721588134765625 Z" style="vector-effect: non-scaling-stroke;" /></g><g transform="matrix(1.0, 0.0, 0.0, 1.0, -0.1249999925494194, 0.2165374755859375)"><g><g style="fill: #ff9700;stroke: black;stroke-width: 0.885;" transform="matrix(1.0, 0.0, 0.0, 1.0, 0.0, 0.0)"><path d="M -0.12498944997787476 0.0721639022231102 L 0.12499471753835678 0.072174072265625 L 0.0 -0.1443328857421875 L -0.125 0.0721588134765625 Z" style="vector-effect: non-scaling-stroke;" /></g><g style="fill: #ff9700;stroke: black;stroke-width: 0.885;" transform="matrix(1.0, 0.0, 0.0, 1.0, 0.25000524520874023, 0.0)"><path d="M -0.12498944997787476 0.0721639022231102 L 0.12499471753835678 0.072174072265625 L 0.0 -0.1443328857421875 L -0.125 0.0721588134765625 Z" style="vector-effect: non-scaling-stroke;" /></g></g></g></g><g transform="matrix(1.0, 0.0, 0.0, 1.0, -0.25000524520874023, 0.433074951171875)"><g><g><g style="fill: #ff9700;stroke: black;stroke-width: 0.885;" transform="matrix(1.0, 0.0, 0.0, 1.0, 0.0, 0.0)"><path d="M -0.12498944997787476 0.0721639022231102 L 0.12499471753835678 0.072174072265625 L 0.0 -0.1443328857421875 L -0.125 0.0721588134765625 Z" style="vector-effect: non-scaling-stroke;" /></g><g transform="matrix(1.0, 0.0, 0.0, 1.0, -0.1249999925494194, 0.2165374755859375)"><g><g style="fill: #ff9700;stroke: black;stroke-width: 0.885;" transform="matrix(1.0, 0.0, 0.0, 1.0, 0.0, 0.0)"><path d="M -0.12498944997787476 0.0721639022231102 L 0.12499471753835678 0.072174072265625 L 0.0 -0.1443328857421875 L -0.125 0.0721588134765625 Z" style="vector-effect: non-scaling-stroke;" /></g><g style="fill: #ff9700;stroke: black;stroke-width: 0.885;" transform="matrix(1.0, 0.0, 0.0, 1.0, 0.25000524520874023, 0.0)"><path d="M -0.12498944997787476 0.0721639022231102 L 0.12499471753835678 0.072174072265625 L 0.0 -0.1443328857421875 L -0.125 0.0721588134765625 Z" style="vector-effect: non-scaling-stroke;" /></g></g></g></g><g transform="matrix(1.0, 0.0, 0.0, 1.0, 0.5000104904174805, 0.0)"><g><g style="fill: #ff9700;stroke: black;stroke-width: 0.885;" transform="matrix(1.0, 0.0, 0.0, 1.0, 0.0, 0.0)"><path d="M -0.12498944997787476 0.0721639022231102 L 0.12499471753835678 0.072174072265625 L 0.0 -0.1443328857421875 L -0.125 0.0721588134765625 Z" style="vector-effect: non-scaling-stroke;" /></g><g transform="matrix(1.0, 0.0, 0.0, 1.0, -0.1249999925494194, 0.2165374755859375)"><g><g style="fill: #ff9700;stroke: black;stroke-width: 0.885;" transform="matrix(1.0, 0.0, 0.0, 1.0, 0.0, 0.0)"><path d="M -0.12498944997787476 0.0721639022231102 L 0.12499471753835678 0.072174072265625 L 0.0 -0.1443328857421875 L -0.125 0.0721588134765625 Z" style="vector-effect: non-scaling-stroke;" /></g><g style="fill: #ff9700;stroke: black;stroke-width: 0.885;" transform="matrix(1.0, 0.0, 0.0, 1.0, 0.25000524520874023, 0.0)"><path d="M -0.12498944997787476 0.0721639022231102 L 0.12499471753835678 0.072174072265625 L 0.0 -0.1443328857421875 L -0.125 0.0721588134765625 Z" style="vector-effect: non-scaling-stroke;" /></g></g></g></g></g></g></g></g><g transform="matrix(1.0, 0.0, 0.0, 1.0, 1.000020980834961, 0.0)"><g><g><g style="fill: #ff9700;stroke: black;stroke-width: 0.885;" transform="matrix(1.0, 0.0, 0.0, 1.0, 0.0, 0.0)"><path d="M -0.12498944997787476 0.0721639022231102 L 0.12499471753835678 0.072174072265625 L 0.0 -0.1443328857421875 L -0.125 0.0721588134765625 Z" style="vector-effect: non-scaling-stroke;" /></g><g transform="matrix(1.0, 0.0, 0.0, 1.0, -0.1249999925494194, 0.2165374755859375)"><g><g style="fill: #ff9700;stroke: black;stroke-width: 0.885;" transform="matrix(1.0, 0.0, 0.0, 1.0, 0.0, 0.0)"><path d="M -0.12498944997787476 0.0721639022231102 L 0.12499471753835678 0.072174072265625 L 0.0 -0.1443328857421875 L -0.125 0.0721588134765625 Z" style="vector-effect: non-scaling-stroke;" /></g><g style="fill: #ff9700;stroke: black;stroke-width: 0.885;" transform="matrix(1.0, 0.0, 0.0, 1.0, 0.25000524520874023, 0.0)"><path d="M -0.12498944997787476 0.0721639022231102 L 0.12499471753835678 0.072174072265625 L 0.0 -0.1443328857421875 L -0.125 0.0721588134765625 Z" style="vector-effect: non-scaling-stroke;" /></g></g></g></g><g transform="matrix(1.0, 0.0, 0.0, 1.0, -0.25000524520874023, 0.433074951171875)"><g><g><g style="fill: #ff9700;stroke: black;stroke-width: 0.885;" transform="matrix(1.0, 0.0, 0.0, 1.0, 0.0, 0.0)"><path d="M -0.12498944997787476 0.0721639022231102 L 0.12499471753835678 0.072174072265625 L 0.0 -0.1443328857421875 L -0.125 0.0721588134765625 Z" style="vector-effect: non-scaling-stroke;" /></g><g transform="matrix(1.0, 0.0, 0.0, 1.0, -0.1249999925494194, 0.2165374755859375)"><g><g style="fill: #ff9700;stroke: black;stroke-width: 0.885;" transform="matrix(1.0, 0.0, 0.0, 1.0, 0.0, 0.0)"><path d="M -0.12498944997787476 0.0721639022231102 L 0.12499471753835678 0.072174072265625 L 0.0 -0.1443328857421875 L -0.125 0.0721588134765625 Z" style="vector-effect: non-scaling-stroke;" /></g><g style="fill: #ff9700;stroke: black;stroke-width: 0.885;" transform="matrix(1.0, 0.0, 0.0, 1.0, 0.25000524520874023, 0.0)"><path d="M -0.12498944997787476 0.0721639022231102 L 0.12499471753835678 0.072174072265625 L 0.0 -0.1443328857421875 L -0.125 0.0721588134765625 Z" style="vector-effect: non-scaling-stroke;" /></g></g></g></g><g transform="matrix(1.0, 0.0, 0.0, 1.0, 0.5000104904174805, 0.0)"><g><g style="fill: #ff9700;stroke: black;stroke-width: 0.885;" transform="matrix(1.0, 0.0, 0.0, 1.0, 0.0, 0.0)"><path d="M -0.12498944997787476 0.0721639022231102 L 0.12499471753835678 0.072174072265625 L 0.0 -0.1443328857421875 L -0.125 0.0721588134765625 Z" style="vector-effect: non-scaling-stroke;" /></g><g transform="matrix(1.0, 0.0, 0.0, 1.0, -0.1249999925494194, 0.2165374755859375)"><g><g style="fill: #ff9700;stroke: black;stroke-width: 0.885;" transform="matrix(1.0, 0.0, 0.0, 1.0, 0.0, 0.0)"><path d="M -0.12498944997787476 0.0721639022231102 L 0.12499471753835678 0.072174072265625 L 0.0 -0.1443328857421875 L -0.125 0.0721588134765625 Z" style="vector-effect: non-scaling-stroke;" /></g><g style="fill: #ff9700;stroke: black;stroke-width: 0.885;" transform="matrix(1.0, 0.0, 0.0, 1.0, 0.25000524520874023, 0.0)"><path d="M -0.12498944997787476 0.0721639022231102 L 0.12499471753835678 0.072174072265625 L 0.0 -0.1443328857421875 L -0.125 0.0721588134765625 Z" style="vector-effect: non-scaling-stroke;" /></g></g></g></g></g></g></g></g></g></g></g></g><g transform="matrix(1.0, 0.0, 0.0, 1.0, 2.000041961669922, 0.0)"><g><g><g><g style="fill: #ff9700;stroke: black;stroke-width: 0.885;" transform="matrix(1.0, 0.0, 0.0, 1.0, 0.0, 0.0)"><path d="M -0.12498944997787476 0.0721639022231102 L 0.12499471753835678 0.072174072265625 L 0.0 -0.1443328857421875 L -0.125 0.0721588134765625 Z" style="vector-effect: non-scaling-stroke;" /></g><g transform="matrix(1.0, 0.0, 0.0, 1.0, -0.1249999925494194, 0.2165374755859375)"><g><g style="fill: #ff9700;stroke: black;stroke-width: 0.885;" transform="matrix(1.0, 0.0, 0.0, 1.0, 0.0, 0.0)"><path d="M -0.12498944997787476 0.0721639022231102 L 0.12499471753835678 0.072174072265625 L 0.0 -0.1443328857421875 L -0.125 0.0721588134765625 Z" style="vector-effect: non-scaling-stroke;" /></g><g style="fill: #ff9700;stroke: black;stroke-width: 0.885;" transform="matrix(1.0, 0.0, 0.0, 1.0, 0.25000524520874023, 0.0)"><path d="M -0.12498944997787476 0.0721639022231102 L 0.12499471753835678 0.072174072265625 L 0.0 -0.1443328857421875 L -0.125 0.0721588134765625 Z" style="vector-effect: non-scaling-stroke;" /></g></g></g></g><g transform="matrix(1.0, 0.0, 0.0, 1.0, -0.25000524520874023, 0.433074951171875)"><g><g><g style="fill: #ff9700;stroke: black;stroke-width: 0.885;" transform="matrix(1.0, 0.0, 0.0, 1.0, 0.0, 0.0)"><path d="M -0.12498944997787476 0.0721639022231102 L 0.12499471753835678 0.072174072265625 L 0.0 -0.1443328857421875 L -0.125 0.0721588134765625 Z" style="vector-effect: non-scaling-stroke;" /></g><g transform="matrix(1.0, 0.0, 0.0, 1.0, -0.1249999925494194, 0.2165374755859375)"><g><g style="fill: #ff9700;stroke: black;stroke-width: 0.885;" transform="matrix(1.0, 0.0, 0.0, 1.0, 0.0, 0.0)"><path d="M -0.12498944997787476 0.0721639022231102 L 0.12499471753835678 0.072174072265625 L 0.0 -0.1443328857421875 L -0.125 0.0721588134765625 Z" style="vector-effect: non-scaling-stroke;" /></g><g style="fill: #ff9700;stroke: black;stroke-width: 0.885;" transform="matrix(1.0, 0.0, 0.0, 1.0, 0.25000524520874023, 0.0)"><path d="M -0.12498944997787476 0.0721639022231102 L 0.12499471753835678 0.072174072265625 L 0.0 -0.1443328857421875 L -0.125 0.0721588134765625 Z" style="vector-effect: non-scaling-stroke;" /></g></g></g></g><g transform="matrix(1.0, 0.0, 0.0, 1.0, 0.5000104904174805, 0.0)"><g><g style="fill: #ff9700;stroke: black;stroke-width: 0.885;" transform="matrix(1.0, 0.0, 0.0, 1.0, 0.0, 0.0)"><path d="M -0.12498944997787476 0.0721639022231102 L 0.12499471753835678 0.072174072265625 L 0.0 -0.1443328857421875 L -0.125 0.0721588134765625 Z" style="vector-effect: non-scaling-stroke;" /></g><g transform="matrix(1.0, 0.0, 0.0, 1.0, -0.1249999925494194, 0.2165374755859375)"><g><g style="fill: #ff9700;stroke: black;stroke-width: 0.885;" transform="matrix(1.0, 0.0, 0.0, 1.0, 0.0, 0.0)"><path d="M -0.12498944997787476 0.0721639022231102 L 0.12499471753835678 0.072174072265625 L 0.0 -0.1443328857421875 L -0.125 0.0721588134765625 Z" style="vector-effect: non-scaling-stroke;" /></g><g style="fill: #ff9700;stroke: black;stroke-width: 0.885;" transform="matrix(1.0, 0.0, 0.0, 1.0, 0.25000524520874023, 0.0)"><path d="M -0.12498944997787476 0.0721639022231102 L 0.12499471753835678 0.072174072265625 L 0.0 -0.1443328857421875 L -0.125 0.0721588134765625 Z" style="vector-effect: non-scaling-stroke;" /></g></g></g></g></g></g></g></g><g transform="matrix(1.0, 0.0, 0.0, 1.0, -0.5000104904174805, 0.86614990234375)"><g><g><g><g style="fill: #ff9700;stroke: black;stroke-width: 0.885;" transform="matrix(1.0, 0.0, 0.0, 1.0, 0.0, 0.0)"><path d="M -0.12498944997787476 0.0721639022231102 L 0.12499471753835678 0.072174072265625 L 0.0 -0.1443328857421875 L -0.125 0.0721588134765625 Z" style="vector-effect: non-scaling-stroke;" /></g><g transform="matrix(1.0, 0.0, 0.0, 1.0, -0.1249999925494194, 0.2165374755859375)"><g><g style="fill: #ff9700;stroke: black;stroke-width: 0.885;" transform="matrix(1.0, 0.0, 0.0, 1.0, 0.0, 0.0)"><path d="M -0.12498944997787476 0.0721639022231102 L 0.12499471753835678 0.072174072265625 L 0.0 -0.1443328857421875 L -0.125 0.0721588134765625 Z" style="vector-effect: non-scaling-stroke;" /></g><g style="fill: #ff9700;stroke: black;stroke-width: 0.885;" transform="matrix(1.0, 0.0, 0.0, 1.0, 0.25000524520874023, 0.0)"><path d="M -0.12498944997787476 0.0721639022231102 L 0.12499471753835678 0.072174072265625 L 0.0 -0.1443328857421875 L -0.125 0.0721588134765625 Z" style="vector-effect: non-scaling-stroke;" /></g></g></g></g><g transform="matrix(1.0, 0.0, 0.0, 1.0, -0.25000524520874023, 0.433074951171875)"><g><g><g style="fill: #ff9700;stroke: black;stroke-width: 0.885;" transform="matrix(1.0, 0.0, 0.0, 1.0, 0.0, 0.0)"><path d="M -0.12498944997787476 0.0721639022231102 L 0.12499471753835678 0.072174072265625 L 0.0 -0.1443328857421875 L -0.125 0.0721588134765625 Z" style="vector-effect: non-scaling-stroke;" /></g><g transform="matrix(1.0, 0.0, 0.0, 1.0, -0.1249999925494194, 0.2165374755859375)"><g><g style="fill: #ff9700;stroke: black;stroke-width: 0.885;" transform="matrix(1.0, 0.0, 0.0, 1.0, 0.0, 0.0)"><path d="M -0.12498944997787476 0.0721639022231102 L 0.12499471753835678 0.072174072265625 L 0.0 -0.1443328857421875 L -0.125 0.0721588134765625 Z" style="vector-effect: non-scaling-stroke;" /></g><g style="fill: #ff9700;stroke: black;stroke-width: 0.885;" transform="matrix(1.0, 0.0, 0.0, 1.0, 0.25000524520874023, 0.0)"><path d="M -0.12498944997787476 0.0721639022231102 L 0.12499471753835678 0.072174072265625 L 0.0 -0.1443328857421875 L -0.125 0.0721588134765625 Z" style="vector-effect: non-scaling-stroke;" /></g></g></g></g><g transform="matrix(1.0, 0.0, 0.0, 1.0, 0.5000104904174805, 0.0)"><g><g style="fill: #ff9700;stroke: black;stroke-width: 0.885;" transform="matrix(1.0, 0.0, 0.0, 1.0, 0.0, 0.0)"><path d="M -0.12498944997787476 0.0721639022231102 L 0.12499471753835678 0.072174072265625 L 0.0 -0.1443328857421875 L -0.125 0.0721588134765625 Z" style="vector-effect: non-scaling-stroke;" /></g><g transform="matrix(1.0, 0.0, 0.0, 1.0, -0.1249999925494194, 0.2165374755859375)"><g><g style="fill: #ff9700;stroke: black;stroke-width: 0.885;" transform="matrix(1.0, 0.0, 0.0, 1.0, 0.0, 0.0)"><path d="M -0.12498944997787476 0.0721639022231102 L 0.12499471753835678 0.072174072265625 L 0.0 -0.1443328857421875 L -0.125 0.0721588134765625 Z" style="vector-effect: non-scaling-stroke;" /></g><g style="fill: #ff9700;stroke: black;stroke-width: 0.885;" transform="matrix(1.0, 0.0, 0.0, 1.0, 0.25000524520874023, 0.0)"><path d="M -0.12498944997787476 0.0721639022231102 L 0.12499471753835678 0.072174072265625 L 0.0 -0.1443328857421875 L -0.125 0.0721588134765625 Z" style="vector-effect: non-scaling-stroke;" /></g></g></g></g></g></g></g></g><g transform="matrix(1.0, 0.0, 0.0, 1.0, 1.000020980834961, 0.0)"><g><g><g style="fill: #ff9700;stroke: black;stroke-width: 0.885;" transform="matrix(1.0, 0.0, 0.0, 1.0, 0.0, 0.0)"><path d="M -0.12498944997787476 0.0721639022231102 L 0.12499471753835678 0.072174072265625 L 0.0 -0.1443328857421875 L -0.125 0.0721588134765625 Z" style="vector-effect: non-scaling-stroke;" /></g><g transform="matrix(1.0, 0.0, 0.0, 1.0, -0.1249999925494194, 0.2165374755859375)"><g><g style="fill: #ff9700;stroke: black;stroke-width: 0.885;" transform="matrix(1.0, 0.0, 0.0, 1.0, 0.0, 0.0)"><path d="M -0.12498944997787476 0.0721639022231102 L 0.12499471753835678 0.072174072265625 L 0.0 -0.1443328857421875 L -0.125 0.0721588134765625 Z" style="vector-effect: non-scaling-stroke;" /></g><g style="fill: #ff9700;stroke: black;stroke-width: 0.885;" transform="matrix(1.0, 0.0, 0.0, 1.0, 0.25000524520874023, 0.0)"><path d="M -0.12498944997787476 0.0721639022231102 L 0.12499471753835678 0.072174072265625 L 0.0 -0.1443328857421875 L -0.125 0.0721588134765625 Z" style="vector-effect: non-scaling-stroke;" /></g></g></g></g><g transform="matrix(1.0, 0.0, 0.0, 1.0, -0.25000524520874023, 0.433074951171875)"><g><g><g style="fill: #ff9700;stroke: black;stroke-width: 0.885;" transform="matrix(1.0, 0.0, 0.0, 1.0, 0.0, 0.0)"><path d="M -0.12498944997787476 0.0721639022231102 L 0.12499471753835678 0.072174072265625 L 0.0 -0.1443328857421875 L -0.125 0.0721588134765625 Z" style="vector-effect: non-scaling-stroke;" /></g><g transform="matrix(1.0, 0.0, 0.0, 1.0, -0.1249999925494194, 0.2165374755859375)"><g><g style="fill: #ff9700;stroke: black;stroke-width: 0.885;" transform="matrix(1.0, 0.0, 0.0, 1.0, 0.0, 0.0)"><path d="M -0.12498944997787476 0.0721639022231102 L 0.12499471753835678 0.072174072265625 L 0.0 -0.1443328857421875 L -0.125 0.0721588134765625 Z" style="vector-effect: non-scaling-stroke;" /></g><g style="fill: #ff9700;stroke: black;stroke-width: 0.885;" transform="matrix(1.0, 0.0, 0.0, 1.0, 0.25000524520874023, 0.0)"><path d="M -0.12498944997787476 0.0721639022231102 L 0.12499471753835678 0.072174072265625 L 0.0 -0.1443328857421875 L -0.125 0.0721588134765625 Z" style="vector-effect: non-scaling-stroke;" /></g></g></g></g><g transform="matrix(1.0, 0.0, 0.0, 1.0, 0.5000104904174805, 0.0)"><g><g style="fill: #ff9700;stroke: black;stroke-width: 0.885;" transform="matrix(1.0, 0.0, 0.0, 1.0, 0.0, 0.0)"><path d="M -0.12498944997787476 0.0721639022231102 L 0.12499471753835678 0.072174072265625 L 0.0 -0.1443328857421875 L -0.125 0.0721588134765625 Z" style="vector-effect: non-scaling-stroke;" /></g><g transform="matrix(1.0, 0.0, 0.0, 1.0, -0.1249999925494194, 0.2165374755859375)"><g><g style="fill: #ff9700;stroke: black;stroke-width: 0.885;" transform="matrix(1.0, 0.0, 0.0, 1.0, 0.0, 0.0)"><path d="M -0.12498944997787476 0.0721639022231102 L 0.12499471753835678 0.072174072265625 L 0.0 -0.1443328857421875 L -0.125 0.0721588134765625 Z" style="vector-effect: non-scaling-stroke;" /></g><g style="fill: #ff9700;stroke: black;stroke-width: 0.885;" transform="matrix(1.0, 0.0, 0.0, 1.0, 0.25000524520874023, 0.0)"><path d="M -0.12498944997787476 0.0721639022231102 L 0.12499471753835678 0.072174072265625 L 0.0 -0.1443328857421875 L -0.125 0.0721588134765625 Z" style="vector-effect: non-scaling-stroke;" /></g></g></g></g></g></g></g></g></g></g></g></g></g></g></g></g></g></g></svg>