<?xml version="1.0" encoding="utf-8" ?>
<svg baseProfile="full" height="256" version="1.1" width="295" xmlns="http://www.w3.org/2000/svg" xmlns:ev="http://www.w3.org/2001/xml-events" xmlns:xlink="http://www.w3.org/1999/xlink"><defs><marker id="arrow" markerHeight="3.5" markerWidth="5" orient="auto" refX="5.0" refY="1.7"><polygon points="0,0 5,1.75 0,3.5" /></marker></defs><g style="fill:white;"><g transform="matrix(70.38174710120381, 0.0, 0.0, 70.38174710120381, 140.7634942024078, 10.15873015872549)"><g><g><g><g><g style="fill: #ff9700;stroke: black;stroke-width: 0.885;" transform="matrix(1.0, 0.0, 0.0, 1.0, 0.0, 0.0)"><path d="M -0.12499999999999378 0.07216878364872059 L 0.12500000000002534 0.07216878364869218 L -5.684341886080802e-14 -0.14433756729744118 L -0.12500000000000006 0.07216878364870873 Z" style="vector-effect: non-scaling-stroke;" /></g><g transform="matrix(1.0, 0.0, 0.0, 1.0, -0.12500000000002545, 0.21650635094613335)"><g><g style="fill: #ff9700;stroke: black;stroke-width: 0.885;" transform="matrix(1.0, 0.0, 0.0, 1.0, 0.0, 0.0)"><path d="M -0.12499999999999378 0.07216878364872059 L 0.12500000000002534 0.07216878364869218 L -5.684341886080802e-14 -0.14433756729744118 L -0.12500000000000006 0.07216878364870873 Z" style="vector-effect: non-scaling-stroke;" /></g><g style="fill: #ff9700;stroke: black;stroke-width: 0.885;" transform="matrix(1.0, 0.0, 0.0, 1.0, 0.25000000000000017, 0.0)"><path d="M -0.12499999999999378 0.07216878364872059 L 0.12500000000002534 0.07216878364869218 L -5.684341886080802e-14 -0.14433756729744118 L -0.12500000000000006 0.07216878364870873 Z" style="vector-effect: non-scaling-stroke;" /></g></g></g></g><g transform="matrix(1.0, 0.0, 0.0, 1.0, -0.2500000000000002, 0.4330127018922667)"><g><g><g style="fill: #ff9700;stroke: black;stroke-width: 0.885;" transform="matrix(1.0, 0.0, 0.0, 1.0, 0.0, 0.0)"><path d="M -0.12499999999999378 0.07216878364872059 L 0.12500000000002534 0.07216878364869218 L -5.684341886080802e-14 -0.14433756729744118 L -0.12500000000000006 0.07216878364870873 Z" style="vector-effect: non-scaling-stroke;" /></g><g transform="matrix(1.0, 0.0, 0.0, 1.0, -0.12500000000002545, 0.21650635094613335)"><g><g style="fill: #ff9700;stroke: black;stroke-width: 0.885;" transform="matrix(1.0, 0.0, 0.0, 1.0, 0.0, 0.0)"><path d="M -0.12499999999999378 0.07216878364872059 L 0.12500000000002534 0.07216878364869218 L -5.684341886080802e-14 -0.14433756729744118 L -0.12500000000000006 0.07216878364870873 Z" style="vector-effect: non-scaling-stroke;" /></g><g style="fill: #ff9700;stroke: black;stroke-width: 0.885;" transform="matrix(1.0, 0.0, 0.0, 1.0, 0.25000000000000017, 0.0)"><path d="M -0.12499999999999378 0.07216878364872059 L 0.12500000000002534 0.07216878364869218 L -5.684341886080802e-14 -0.14433756729744118 L -0.12500000000000006 0.07216878364870873 Z" style="vector-effect: non-scaling-stroke;" /></g></g></g></g><g transform="matrix(1.0, 0.0, 0.0, 1.0, 0.5000000000000004, 0.0)"><g><g style="fill: #ff9700;stroke: black;stroke-width: 0.885;" transform="matrix(1.0, 0.0, 0.0, 1.0, 0.0, 0.0)"><path d="M -0.12499999999999378 0.07216878364872059 L 0.12500000000002534 0.07216878364869218 L -5.684341886080802e-14 -0.14433756729744118 L -0.12500000000000006 0.07216878364870873 Z" style="vector-effect: non-scaling-stroke;" /></g><g transform="matrix(1.0, 0.0, 0.0, 1.0, -0.12500000000002545, 0.21650635094613335)"><g><g style="fill: #ff9700;stroke: black;stroke-width: 0.885;" transform="matrix(1.0, 0.0, 0.0, 1.0, 0.0, 0.0)"><path d="M -0.12499999999999378 0.07216878364872059 L 0.12500000000002534 0.07216878364869218 L -5.684341886080802e-14 -0.14433756729744118 L -0.12500000000000006 0.07216878364870873 Z" style="vector-effect: non-scaling-stroke;" /></g><g style="fill: #ff9700;stroke: black;stroke-width: 0.885;" transform="matrix(1.0, 0.0, 0.0, 1.0, 0.25000000000000017, 0.0)"><path d="M -0.12499999999999378 0.07216878364872059 L 0.12500000000002534 0.07216878364869218 L -5.684341886080802e-14 -0.14433756729744118 L -0.12500000000000006 0.07216878364870873 Z" style="vector-effect: non-scaling-stroke;" /></g></g></g></g></g></g></g></g><g transform="matrix(1.0, 0.0, 0.0, 1.0, -0.5000000000000004, 0.8660254037845334)"><g><g><g><g style="fill: #ff9700;stroke: black;stroke-width: 0.885;" transform="matrix(1.0, 0.0, 0.0, 1.0, 0.0, 0.0)"><path d="M -0.12499999999999378 0.07216878364872059 L 0.12500000000002534 0.07216878364869218 L -5.684341886080802e-14 -0.14433756729744118 L -0.12500000000000006 0.07216878364870873 Z" style="vector-effect: non-scaling-stroke;" /></g><g transform="matrix(1.0, 0.0, 0.0, 1.0, -0.12500000000002545, 0.21650635094613335)"><g><g style="fill: #ff9700;stroke: black;stroke-width: 0.885;" transform="matrix(1.0, 0.0, 0.0, 1.0, 0.0, 0.0)"><path d="M -0.12499999999999378 0.07216878364872059 L 0.12500000000002534 0.07216878364869218 L -5.684341886080802e-14 -0.14433756729744118 L -0.12500000000000006 0.07216878364870873 Z" style="vector-effect: non-scaling-stroke;" /></g><g style="fill: #ff9700;stroke: black;stroke-width: 0.885;" transform="matrix(1.0, 0.0, 0.0, 1.0, 0.25000000000000017, 0.0)"><path d="M -0.12499999999999378 0.07216878364872059 L 0.12500000000002534 0.07216878364869218 L -5.684341886080802e-14 -0.14433756729744118 L -0.12500000000000006 0.07216878364870873 Z" style="vector-effect: non-scaling-stroke;" /></g></g></g></g><g transform="matrix(1.0, 0.0, 0.0, 1.0, -0.2500000000000002, 0.4330127018922667)"><g><g><g style="fill: #ff9700;stroke: black;stroke-width: 0.885;" transform="matrix(1.0, 0.0, 0.0, 1.0, 0.0, 0.0)"><path d="M -0.12499999999999378 0.07216878364872059 L 0.12500000000002534 0.07216878364869218 L -5.684341886080802e-14 -0.14433756729744118 L -0.12500000000000006 0.07216878364870873 Z" style="vector-effect: non-scaling-stroke;" /></g><g transform="matrix(1.0, 0.0, 0.0, 1.0, -0.12500000000002545, 0.21650635094613335)"><g><g style="fill: #ff9700;stroke: black;stroke-width: 0.885;" transform="matrix(1.0, 0.0, 0.0, 1.0, 0.0, 0.0)"><path d="M -0.12499999999999378 0.07216878364872059 L 0.12500000000002534 0.07216878364869218 L -5.684341886080802e-14 -0.14433756729744118 L -0.12500000000000006 0.07216878364870873 Z" style="vector-effect: non-scaling-stroke;" /></g><g style="fill: #ff9700;stroke: black;stroke-width: 0.885;" transform="matrix(1.0, 0.0, 0.0, 1.0, 0.25000000000000017, 0.0)"><path d="M -0.12499999999999378 0.07216878364872059 L 0.12500000000002534 0.07216878364869218 L -5.684341886080802e-14 -0.14433756729744118 L -0.12500000000000006 0.07216878364870873 Z" style="vector-effect: non-scaling-stroke;" /></g></g></g></g><g transform="matrix(1.0, 0.0, 0.0, 1.0, 0.5000000000000004, 0.0)"><g><g style="fill: #ff9700;stroke: black;stroke-width: 0.885;" transform="matrix(1.0, 0.0, 0.0, 1.0, 0.0, 0.0)"><path d="M -0.12499999999999378 0.07216878364872059 L 0.12500000000002534 0.07216878364869218 L -5.684341886080802e-14 -0.14433756729744118 L -0.12500000000000006 0.07216878364870873 Z" style="vector-effect: non-scaling-stroke;" /></g><g transform="matrix(1.0, 0.0, 0.0, 1.0, -0.12500000000002545, 0.21650635094613335)"><g><g style="fill: #ff9700;stroke: black;stroke-width: 0.885;" transform="matrix(1.0, 0.0, 0.0, 1.0, 0.0, 0.0)"><path d="M -0.12499999999999378 0.07216878364872059 L 0.12500000000002534 0.07216878364869218 L -5.684341886080802e-14 -0.14433756729744118 L -0.12500000000000006 0.07216878364870873 Z" style="vector-effect: non-scaling-stroke;" /></g><g style="fill: #ff9700;stroke: black;stroke-width: 0.885;" transform="matrix(1.0, 0.0, 0.0, 1.0, 0.25000000000000017, 0.0)"><path d="M -0.12499999999999378 0.07216878364872059 L 0.12500000000002534 0.07216878364869218 L -5.684341886080802e-14 -0.14433756729744118 L -0.12500000000000006 0.07216878364870873 Z" style="vector-effect: non-scaling-stroke;" /></g></g></g></g></g></g></g></g><g transform="matrix(1.0, 0.0, 0.0, 1.0, 1.0000000000000009, 0.0)"><g><g><g style="fill: #ff9700;stroke: black;stroke-width: 0.885;" transform="matrix(1.0, 0.0, 0.0, 1.0, 0.0, 0.0)"><path d="M -0.12499999999999378 0.07216878364872059 L 0.12500000000002534 0.07216878364869218 L -5.684341886080802e-14 -0.14433756729744118 L -0.12500000000000006 0.07216878364870873 Z" style="vector-effect: non-scaling-stroke;" /></g><g transform="matrix(1.0, 0.0, 0.0, 1.0, -0.12500000000002545, 0.21650635094613335)"><g><g style="fill: #ff9700;stroke: black;stroke-width: 0.885;" transform="matrix(1.0, 0.0, 0.0, 1.0, 0.0, 0.0)"><path d="M -0.12499999999999378 0.07216878364872059 L 0.12500000000002534 0.07216878364869218 L -5.684341886080802e-14 -0.14433756729744118 L -0.12500000000000006 0.07216878364870873 Z" style="vector-effect: non-scaling-stroke;" /></g><g style="fill: #ff9700;stroke: black;stroke-width: 0.885;" transform="matrix(1.0, 0.0, 0.0, 1.0, 0.25000000000000017, 0.0)"><path d="M -0.12499999999999378 0.07216878364872059 L 0.12500000000002534 0.07216878364869218 L -5.684341886080802e-14 -0.14433756729744118 L -0.12500000000000006 0.07216878364870873 Z" style="vector-effect: non-scaling-stroke;" /></g></g></g></g><g transform="matrix(1.0, 0.0, 0.0, 1.0, -0.2500000000000002, 0.4330127018922667)"><g><g><g style="fill: #ff9700;stroke: black;stroke-width: 0.885;" transform="matrix(1.0, 0.0, 0.0, 1.0, 0.0, 0.0)"><path d="M -0.12499999999999378 0.07216878364872059 L 0.12500000000002534 0.07216878364869218 L -5.684341886080802e-14 -0.14433756729744118 L -0.12500000000000006 0.07216878364870873 Z" style="vector-effect: non-scaling-stroke;" /></g><g transform="matrix(1.0, 0.0, 0.0, 1.0, -0.12500000000002545, 0.21650635094613335)"><g><g style="fill: #ff9700;stroke: black;stroke-width: 0.885;" transform="matrix(1.0, 0.0, 0.0, 1.0, 0.0, 0.0)"><path d="M -0.12499999999999378 0.07216878364872059 L 0.12500000000002534 0.07216878364869218 L -5.684341886080802e-14 -0.14433756729744118 L -0.12500000000000006 0.07216878364870873 Z" style="vector-effect: non-scaling-stroke;" /></g><g style="fill: #ff9700;stroke: black;stroke-width: 0.885;" transform="matrix(1.0, 0.0, 0.0, 1.0, 0.25000000000000017, 0.0)"><path d="M -0.12499999999999378 0.07216878364872059 L 0.12500000000002534 0.07216878364869218 L -5.684341886080802e-14 -0.14433756729744118 L -0.12500000000000006 0.07216878364870873 Z" style="vector-effect: non-scaling-stroke;" /></g></g></g></g><g transform="matrix(1.0, 0.0, 0.0, 1.0, 0.5000000000000004, 0.0)"><g><g style="fill: #ff9700;stroke: black;stroke-width: 0.885;" transform="matrix(1.0, 0.0, 0.0, 1.0, 0.0, 0.0)"><path d="M -0.12499999999999378 0.07216878364872059 L 0.12500000000002534 0.07216878364869218 L -5.684341886080802e-14 -0.14433756729744118 L -0.12500000000000006 0.07216878364870873 Z" style="vector-effect: non-scaling-stroke;" /></g><g transform="matrix(1.0, 0.0, 0.0, 1.0, -0.12500000000002545, 0.21650635094613335)"><g><g style="fill: #ff9700;stroke: black;stroke-width: 0.885;" transform="matrix(1.0, 0.0, 0.0, 1.0, 0.0, 0.0)"><path d="M -0.12499999999999378 0.07216878364872059 L 0.12500000000002534 0.07216878364869218 L -5.684341886080802e-14 -0.14433756729744118 L -0.12500000000000006 0.07216878364870873 Z" style="vector-effect: non-scaling-stroke;" /></g><g style="fill: #ff9700;stroke: black;stroke-width: 0.885;" transform="matrix(1.0, 0.0, 0.0, 1.0, 0.25000000000000017, 0.0)"><path d="M -0.12499999999999378 0.07216878364872059 L 0.12500000000002534 0.07216878364869218 L -5.684341886080802e-14 -0.14433756729744118 L -0.12500000000000006 0.07216878364870873 Z" style="vector-effect: non-scaling-stroke;" /></g></g></g></g></g></g></g></g></g></g></g></g><g transform="matrix(1.0, 0.0, 0.0, 1.0, -1.0000000000000009, 1.7320508075690668)"><g><g><g><g><g style="fill: #ff9700;stroke: black;stroke-width: 0.885;" transform="matrix(1.0, 0.0, 0.0, 1.0, 0.0, 0.0)"><path d="M -0.12499999999999378 0.07216878364872059 L 0.12500000000002534 0.07216878364869218 L -5.684341886080802e-14 -0.14433756729744118 L -0.12500000000000006 0.07216878364870873 Z" style="vector-effect: non-scaling-stroke;" /></g><g transform="matrix(1.0, 0.0, 0.0, 1.0, -0.12500000000002545, 0.21650635094613335)"><g><g style="fill: #ff9700;stroke: black;stroke-width: 0.885;" transform="matrix(1.0, 0.0, 0.0, 1.0, 0.0, 0.0)"><path d="M -0.12499999999999378 0.07216878364872059 L 0.12500000000002534 0.07216878364869218 L -5.684341886080802e-14 -0.14433756729744118 L -0.12500000000000006 0.07216878364870873 Z" style="vector-effect: non-scaling-stroke;" /></g><g style="fill: #ff9700;stroke: black;stroke-width: 0.885;" transform="matrix(1.0, 0.0, 0.0, 1.0, 0.25000000000000017, 0.0)"><path d="M -0.12499999999999378 0.07216878364872059 L 0.12500000000002534 0.07216878364869218 L -5.684341886080802e-14 -0.14433756729744118 L -0.12500000000000006 0.07216878364870873 Z" style="vector-effect: non-scaling-stroke;" /></g></g></g></g><g transform="matrix(1.0, 0.0, 0.0, 1.0, -0.2500000000000002, 0.4330127018922667)"><g><g><g style="fill: #ff9700;stroke: black;stroke-width: 0.885;" transform="matrix(1.0, 0.0, 0.0, 1.0, 0.0, 0.0)"><path d="M -0.12499999999999378 0.07216878364872059 L 0.12500000000002534 0.07216878364869218 L -5.684341886080802e-14 -0.14433756729744118 L -0.12500000000000006 0.07216878364870873 Z" style="vector-effect: non-scaling-stroke;" /></g><g transform="matrix(1.0, 0.0, 0.0, 1.0, -0.12500000000002545, 0.21650635094613335)"><g><g style="fill: #ff9700;stroke: black;stroke-width: 0.885;" transform="matrix(1.0, 0.0, 0.0, 1.0, 0.0, 0.0)"><path d="M -0.12499999999999378 0.07216878364872059 L 0.12500000000002534 0.07216878364869218 L -5.684341886080802e-14 -0.14433756729744118 L -0.12500000000000006 0.07216878364870873 Z" style="vector-effect: non-scaling-stroke;" /></g><g style="fill: #ff9700;stroke: black;stroke-width: 0.885;" transform="matrix(1.0, 0.0, 0.0, 1.0, 0.25000000000000017, 0.0)"><path d="M -0.12499999999999378 0.07216878364872059 L 0.12500000000002534 0.07216878364869218 L -5.684341886080802e-14 -0.14433756729744118 L -0.12500000000000006 0.07216878364870873 Z" style="vector-effect: non-scaling-stroke;" /></g></g></g></g><g transform="matrix(1.0, 0.0, 0.0, 1.0, 0.5000000000000004, 0.0)"><g><g style="fill: #ff9700;stroke: black;stroke-width: 0.885;" transform="matrix(1.0, 0.0, 0.0, 1.0, 0.0, 0.0)"><path d="M -0.12499999999999378 0.07216878364872059 L 0.12500000000002534 0.07216878364869218 L -5.684341886080802e-14 -0.14433756729744118 L -0.12500000000000006 0.07216878364870873 Z" style="vector-effect: non-scaling-stroke;" /></g><g transform="matrix(1.0, 0.0, 0.0, 1.0, -0.12500000000002545, 0.21650635094613335)"><g><g style="fill: #ff9700;stroke: black;stroke-width: 0.885;" transform="matrix(1.0, 0.0, 0.0, 1.0, 0.0, 0.0)"><path d="M -0.12499999999999378 0.07216878364872059 L 0.12500000000002534 0.07216878364869218 L -5.684341886080802e-14 -0.14433756729744118 L -0.12500000000000006 0.07216878364870873 Z" style="vector-effect: non-scaling-stroke;" /></g><g style="fill: #ff9700;stroke: black;stroke-width: 0.885;" transform="matrix(1.0, 0.0, 0.0, 1.0, 0.25000000000000017, 0.0)"><path d="M -0.12499999999999378 0.07216878364872059 L 0.12500000000002534 0.07216878364869218 L -5.684341886080802e-14 -0.14433756729744118 L -0.12500000000000006 0.07216878364870873 Z" style="vector-effect: non-scaling-stroke;" /></g></g></g></g></g></g></g></g><g transform="matrix(1.0, 0.0, 0.0, 1.0, -0.5000000000000004, 0.8660254037845334)"><g><g><g><g style="fill: #ff9700;stroke: black;stroke-width: 0.885;" transform="matrix(1.0, 0.0, 0.0, 1.0, 0.0, 0.0)"><path d="M -0.12499999999999378 0.07216878364872059 L 0.12500000000002534 0.07216878364869218 L -5.684341886080802e-14 -0.14433756729744118 L -0.12500000000000006 0.07216878364870873 Z" style="vector-effect: non-scaling-stroke;" /></g><g transform="matrix(1.0, 0.0, 0.0, 1.0, -0.12500000000002545, 0.21650635094613335)"><g><g style="fill: #ff9700;stroke: black;stroke-width: 0.885;" transform="matrix(1.0, 0.0, 0.0, 1.0, 0.0, 0.0)"><path d="M -0.12499999999999378 0.07216878364872059 L 0.12500000000002534 0.07216878364869218 L -5.684341886080802e-14 -0.14433756729744118 L -0.12500000000000006 0.07216878364870873 Z" style="vector-effect: non-scaling-stroke;" /></g><g style="fill: #ff9700;stroke: black;stroke-width: 0.885;" transform="matrix(1.0, 0.0, 0.0, 1.0, 0.25000000000000017, 0.0)"><path d="M -0.12499999999999378 0.07216878364872059 L 0.12500000000002534 0.07216878364869218 L -5.684341886080802e-14 -0.14433756729744118 L -0.12500000000000006 0.07216878364870873 Z" style="vector-effect: non-scaling-stroke;" /></g></g></g></g><g transform="matrix(1.0, 0.0, 0.0, 1.0, -0.2500000000000002, 0.4330127018922667)"><g><g><g style="fill: #ff9700;stroke: black;stroke-width: 0.885;" transform="matrix(1.0, 0.0, 0.0, 1.0, 0.0, 0.0)"><path d="M -0.12499999999999378 0.07216878364872059 L 0.12500000000002534 0.07216878364869218 L -5.684341886080802e-14 -0.14433756729744118 L -0.12500000000000006 0.07216878364870873 Z" style="vector-effect: non-scaling-stroke;" /></g><g transform="matrix(1.0, 0.0, 0.0, 1.0, -0.12500000000002545, 0.21650635094613335)"><g><g style="fill: #ff9700;stroke: black;stroke-width: 0.885;" transform="matrix(1.0, 0.0, 0.0, 1.0, 0.0, 0.0)"><path d="M -0.12499999999999378 0.07216878364872059 L 0.12500000000002534 0.07216878364869218 L -5.684341886080802e-14 -0.14433756729744118 L -0.12500000000000006 0.07216878364870873 Z" style="vector-effect: non-scaling-stroke;" /></g><g style="fill: #ff9700;stroke: black;stroke-width: 0.885;" transform="matrix(1.0, 0.0, 0.0, 1.0, 0.25000000000000017, 0.0)"><path d="M -0.12499999999999378 0.07216878364872059 L 0.12500000000002534 0.07216878364869218 L -5.684341886080802e-14 -0.14433756729744118 L -0.12500000000000006 0.07216878364870873 Z" style="vector-effect: non-scaling-stroke;" /></g></g></g></g><g transform="matrix(1.0, 0.0, 0.0, 1.0, 0.5000000000000004, 0.0)"><g><g style="fill: #ff9700;stroke: black;stroke-width: 0.885;" transform="matrix(1.0, 0.0, 0.0, 1.0, 0.0, 0.0)"><path d="M -0.12499999999999378 0.07216878364872059 L 0.12500000000002534 0.07216878364869218 L -5.684341886080802e-14 -0.14433756729744118 L -0.12500000000000006 0.07216878364870873 Z" style="vector-effect: non-scaling-stroke;" /></g><g transform="matrix(1.0, 0.0, 0.0, 1.0, -0.12500000000002545, 0.21650635094613335)"><g><g style="fill: #ff9700;stroke: black;stroke-width: 0.885;" transform="matrix(1.0, 0.0, 0.0, 1.0, 0.0, 0.0)"><path d="M -0.12499999999999378 0.07216878364872059 L 0.12500000000002534 0.07216878364869218 L -5.684341886080802e-14 -0.14433756729744118 L -0.12500000000000006 0.07216878364870873 Z" style="vector-effect: non-scaling-stroke;" /></g><g style="fill: #ff9700;stroke: black;stroke-width: 0.885;" transform="matrix(1.0, 0.0, 0.0, 1.0, 0.25000000000000017, 0.0)"><path d="M -0.12499999999999378 0.07216878364872059 L 0.12500000000002534 0.07216878364869218 L -5.684341886080802e-14 -0.14433756729744118 L -0.12500000000000006 0.07216878364870873 Z" style="vector-effect: non-scaling-stroke;" /></g></g></g></g></g></g></g></g><g transform="matrix(1.0, 0.0, 0.0, 1.0, 1.0000000000000009, 0.0)"><g><g><g style="fill: #ff9700;stroke: black;stroke-width: 0.885;" transform="matrix(1.0, 0.0, 0.0, 1.0, 0.0, 0.0)"><path d="M -0.12499999999999378 0.07216878364872059 L 0.12500000000002534 0.07216878364869218 L -5.684341886080802e-14 -0.14433756729744118 L -0.12500000000000006 0.07216878364870873 Z" style="vector-effect: non-scaling-stroke;" /></g><g transform="matrix(1.0, 0.0, 0.0, 1.0, -0.12500000000002545, 0.21650635094613335)"><g><g style="fill: #ff9700;stroke: black;stroke-width: 0.885;" transform="matrix(1.0, 0.0, 0.0, 1.0, 0.0, 0.0)"><path d="M -0.12499999999999378 0.07216878364872059 L 0.12500000000002534 0.07216878364869218 L -5.684341886080802e-14 -0.14433756729744118 L -0.12500000000000006 0.07216878364870873 Z" style="vector-effect: non-scaling-stroke;" /></g><g style="fill: #ff9700;stroke: black;stroke-width: 0.885;" transform="matrix(1.0, 0.0, 0.0, 1.0, 0.25000000000000017, 0.0)"><path d="M -0.12499999999999378 0.07216878364872059 L 0.12500000000002534 0.07216878364869218 L -5.684341886080802e-14 -0.14433756729744118 L -0.12500000000000006 0.07216878364870873 Z" style="vector-effect: non-scaling-stroke;" /></g></g></g></g><g transform="matrix(1.0, 0.0, 0.0, 1.0, -0.2500000000000002, 0.4330127018922667)"><g><g><g style="fill: #ff9700;stroke: black;stroke-width: 0.885;" transform="matrix(1.0, 0.0, 0.0, 1.0, 0.0, 0.0)"><path d="M -0.12499999999999378 0.07216878364872059 L 0.12500000000002534 0.07216878364869218 L -5.684341886080802e-14 -0.14433756729744118 L -0.12500000000000006 0.07216878364870873 Z" style="vector-effect: non-scaling-stroke;" /></g><g transform="matrix(1.0, 0.0, 0.0, 1.0, -0.12500000000002545, 0.21650635094613335)"><g><g style="fill: #ff9700;stroke: black;stroke-width: 0.885;" transform="matrix(1.0, 0.0, 0.0, 1.0, 0.0, 0.0)"><path d="M -0.12499999999999378 0.07216878364872059 L 0.12500000000002534 0.07216878364869218 L -5.684341886080802e-14 -0.14433756729744118 L -0.12500000000000006 0.07216878364870873 Z" style="vector-effect: non-scaling-stroke;" /></g><g style="fill: #ff9700;stroke: black;stroke-width: 0.885;" transform="matrix(1.0, 0.0, 0.0, 1.0, 0.25000000000000017, 0.0)"><path d="M -0.12499999999999378 0.07216878364872059 L 0.12500000000002534 0.07216878364869218 L -5.684341886080802e-14 -0.14433756729744118 L -0.12500000000000006 0.07216878364870873 Z" style="vector-effect: non-scaling-stroke;" /></g></g></g></g><g transform="matrix(1.0, 0.0, 0.0, 1.0, 0.5000000000000004, 0.0)"><g><g style="fill: #ff9700;stroke: black;stroke-width: 0.885;" transform="matrix(1.0, 0.0, 0.0, 1.0, 0.0, 0.0)"><path d="M -0.12499999999999378 0.07216878364872059 L 0.12500000000002534 0.07216878364869218 L -5.684341886080802e-14 -0.14433756729744118 L -0.12500000000000006 0.07216878364870873 Z" style="vector-effect: non-scaling-stroke;" /></g><g transform="matrix(1.0, 0.0, 0.0, 1.0, -0.12500000000002545, 0.21650635094613335)"><g><g style="fill: #ff9700;stroke: black;stroke-width: 0.885;" transform="matrix(1.0, 0.0, 0.0, 1.0, 0.0, 0.0)"><path d="M -0.12499999999999378 0.07216878364872059 L 0.12500000000002534 0.07216878364869218 L -5.684341886080802e-14 -0.14433756729744118 L -0.12500000000000006 0.07216878364870873 Z" style="vector-effect: non-scaling-stroke;" /></g><g style="fill: #ff9700;stroke: black;stroke-width: 0.885;" transform="matrix(1.0, 0.0, 0.0, 1.0, 0.25000000000000017, 0.0)"><path d="M -0.12499999999999378 0.07216878364872059 L 0.12500000000002534 0.07216878364869218 L -5.684341886080802e-14 -0.14433756729744118 L -0.12500000000000006 0.07216878364870873 Z" style="vector-effect: non-scaling-stroke;" /></g></g></g></g></g></g></g></g></g></g></g></g><g transform="matrix(1.0, 0.0, 0.0, 1.0, 2.0000000000000018, 0.0)"><g><g><g><g style="fill: #ff9700;stroke: black;stroke-width: 0.885;" transform="matrix(1.0, 0.0, 0.0, 1.0, 0.0, 0.0)"><path d="M -0.12499999999999378 0.07216878364872059 L 0.12500000000002534 0.07216878364869218 L -5.684341886080802e-14 -0.14433756729744118 L -0.12500000000000006 0.07216878364870873 Z" style="vector-effect: non-scaling-stroke;" /></g><g transform="matrix(1.0, 0.0, 0.0, 1.0, -0.12500000000002545, 0.21650635094613335)"><g><g style="fill: #ff9700;stroke: black;stroke-width: 0.885;" transform="matrix(1.0, 0.0, 0.0, 1.0, 0.0, 0.0)"><path d="M -0.12499999999999378 0.07216878364872059 L 0.12500000000002534 0.07216878364869218 L -5.684341886080802e-14 -0.14433756729744118 L -0.12500000000000006 0.07216878364870873 Z" style="vector-effect: non-scaling-stroke;" /></g><g style="fill: #ff9700;stroke: black;stroke-width: 0.885;" transform="matrix(1.0, 0.0, 0.0, 1.0, 0.25000000000000017, 0.0)"><path d="M -0.12499999999999378 0.07216878364872059 L 0.12500000000002534 0.07216878364869218 L -5.684341886080802e-14 -0.14433756729744118 L -0.12500000000000006 0.07216878364870873 Z" style="vector-effect: non-scaling-stroke;" /></g></g></g></g><g transform="matrix(1.0, 0.0, 0.0, 1.0, -0.2500000000000002, 0.4330127018922667)"><g><g><g style="fill: #ff9700;stroke: black;stroke-width: 0.885;" transform="matrix(1.0, 0.0, 0.0, 1.0, 0.0, 0.0)"><path d="M -0.12499999999999378 0.07216878364872059 L 0.12500000000002534 0.07216878364869218 L -5.684341886080802e-14 -0.14433756729744118 L -0.12500000000000006 0.07216878364870873 Z" style="vector-effect: non-scaling-stroke;" /></g><g transform="matrix(1.0, 0.0, 0.0, 1.0, -0.12500000000002545, 0.21650635094613335)"><g><g style="fill: #ff9700;stroke: black;stroke-width: 0.885;" transform="matrix(1.0, 0.0, 0.0, 1.0, 0.0, 0.0)"><path d="M -0.12499999999999378 0.07216878364872059 L 0.12500000000002534 0.07216878364869218 L -5.684341886080802e-14 -0.14433756729744118 L -0.12500000000000006 0.07216878364870873 Z" style="vector-effect: non-scaling-stroke;" /></g><g style="fill: #ff9700;stroke: black;stroke-width: 0.885;" transform="matrix(1.0, 0.0, 0.0, 1.0, 0.25000000000000017, 0.0)"><path d="M -0.12499999999999378 0.07216878364872059 L 0.12500000000002534 0.07216878364869218 L -5.684341886080802e-14 -0.14433756729744118 L -0.12500000000000006 0.07216878364870873 Z" style="vector-effect: non-scaling-stroke;" /></g></g></g></g><g transform="matrix(1.0, 0.0, 0.0, 1.0, 0.5000000000000004, 0.0)"><g><g style="fill: #ff9700;stroke: black;stroke-width: 0.885;" transform="matrix(1.0, 0.0, 0.0, 1.0, 0.0, 0.0)"><path d="M -0.12499999999999378 0.07216878364872059 L 0.12500000000002534 0.07216878364869218 L -5.684341886080802e-14 -0.14433756729744118 L -0.12500000000000006 0.07216878364870873 Z" style="vector-effect: non-scaling-stroke;" /></g><g transform="matrix(1.0, 0.0, 0.0, 1.0, -0.12500000000002545, 0.21650635094613335)"><g><g style="fill: #ff9700;stroke: black;stroke-width: 0.885;" transform="matrix(1.0, 0.0, 0.0, 1.0, 0.0, 0.0)"><path d="M -0.12499999999999378 0.07216878364872059 L 0.12500000000002534 0.07216878364869218 L -5.684341886080802e-14 -0.14433756729744118 L -0.12500000000000006 0.07216878364870873 Z" style="vector-effect: non-scaling-stroke;" /></g><g style="fill: #ff9700;stroke: black;stroke-width: 0.885;" transform="matrix(1.0, 0.0, 0.0, 1.0, 0.25000000000000017, 0.0)"><path d="M -0.12499999999999378 0.07216878364872059 L 0.12500000000002534 0.07216878364869218 L -5.684341886080802e-14 -0.14433756729744118 L -0.12500000000000006 0.07216878364870873 Z" style="vector-effect: non-scaling-stroke;" /></g></g></g></g></g></g></g></g><g transform="matrix(1.0, 0.0, 0.0, 1.0, -0.5000000000000004, 0.8660254037845334)"><g><g><g><g style="fill: #ff9700;stroke: black;stroke-width: 0.885;" transform="matrix(1.0, 0.0, 0.0, 1.0, 0.0, 0.0)"><path d="M -0.12499999999999378 0.07216878364872059 L 0.12500000000002534 0.07216878364869218 L -5.684341886080802e-14 -0.14433756729744118 L -0.12500000000000006 0.07216878364870873 Z" style="vector-effect: non-scaling-stroke;" /></g><g transform="matrix(1.0, 0.0, 0.0, 1.0, -0.12500000000002545, 0.21650635094613335)"><g><g style="fill: #ff9700;stroke: black;stroke-width: 0.885;" transform="matrix(1.0, 0.0, 0.0, 1.0, 0.0, 0.0)"><path d="M -0.12499999999999378 0.07216878364872059 L 0.12500000000002534 0.07216878364869218 L -5.684341886080802e-14 -0.14433756729744118 L -0.12500000000000006 0.07216878364870873 Z" style="vector-effect: non-scaling-stroke;" /></g><g style="fill: #ff9700;stroke: black;stroke-width: 0.885;" transform="matrix(1.0, 0.0, 0.0, 1.0, 0.25000000000000017, 0.0)"><path d="M -0.12499999999999378 0.07216878364872059 L 0.12500000000002534 0.07216878364869218 L -5.684341886080802e-14 -0.14433756729744118 L -0.12500000000000006 0.07216878364870873 Z" style="vector-effect: non-scaling-stroke;" /></g></g></g></g><g transform="matrix(1.0, 0.0, 0.0, 1.0, -0.2500000000000002, 0.4330127018922667)"><g><g><g style="fill: #ff9700;stroke: black;stroke-width: 0.885;" transform="matrix(1.0, 0.0, 0.0, 1.0, 0.0, 0.0)"><path d="M -0.12499999999999378 0.07216878364872059 L 0.12500000000002534 0.07216878364869218 L -5.684341886080802e-14 -0.14433756729744118 L -0.12500000000000006 0.07216878364870873 Z" style="vector-effect: non-scaling-stroke;" /></g><g transform="matrix(1.0, 0.0, 0.0, 1.0, -0.12500000000002545, 0.21650635094613335)"><g><g style="fill: #ff9700;stroke: black;stroke-width: 0.885;" transform="matrix(1.0, 0.0, 0.0, 1.0, 0.0, 0.0)"><path d="M -0.12499999999999378 0.07216878364872059 L 0.12500000000002534 0.07216878364869218 L -5.684341886080802e-14 -0.14433756729744118 L -0.12500000000000006 0.07216878364870873 Z" style="vector-effect: non-scaling-stroke;" /></g><g style="fill: #ff9700;stroke: black;stroke-width: 0.885;" transform="matrix(1.0, 0.0, 0.0, 1.0, 0.25000000000000017, 0.0)"><path d="M -0.12499999999999378 0.07216878364872059 L 0.12500000000002534 0.07216878364869218 L -5.684341886080802e-14 -0.14433756729744118 L -0.12500000000000006 0.07216878364870873 Z" style="vector-effect: non-scaling-stroke;" /></g></g></g></g><g transform="matrix(1.0, 0.0, 0.0, 1.0, 0.5000000000000004, 0.0)"><g><g style="fill: #ff9700;stroke: black;stroke-width: 0.885;" transform="matrix(1.0, 0.0, 0.0, 1.0, 0.0, 0.0)"><path d="M -0.12499999999999378 0.07216878364872059 L 0.12500000000002534 0.07216878364869218 L -5.684341886080802e-14 -0.14433756729744118 L -0.12500000000000006 0.07216878364870873 Z" style="vector-effect: non-scaling-stroke;" /></g><g transform="matrix(1.0, 0.0, 0.0, 1.0, -0.12500000000002545, 0.21650635094613335)"><g><g style="fill: #ff9700;stroke: black;stroke-width: 0.885;" transform="matrix(1.0, 0.0, 0.0, 1.0, 0.0, 0.0)"><path d="M -0.12499999999999378 0.07216878364872059 L 0.12500000000002534 0.07216878364869218 L -5.684341886080802e-14 -0.14433756729744118 L -0.12500000000000006 0.07216878364870873 Z" style="vector-effect: non-scaling-stroke;" /></g><g style="fill: #ff9700;stroke: black;stroke-width: 0.885;" transform="matrix(1.0, 0.0, 0.0, 1.0, 0.25000000000000017, 0.0)"><path d="M -0.12499999999999378 0.07216878364872059 L 0.12500000000002534 0.07216878364869218 L -5.684341886080802e-14 -0.14433756729744118 L -0.12500000000000006 0.07216878364870873 Z" style="vector-effect: non-scaling-stroke;" /></g></g></g></g></g></g></g></g><g transform="matrix(1.0, 0.0, 0.0, 1.0, 1.0000000000000009, 0.0)"><g><g><g style="fill: #ff9700;stroke: black;stroke-width: 0.885;" transform="matrix(1.0, 0.0, 0.0, 1.0, 0.0, 0.0)"><path d="M -0.12499999999999378 0.07216878364872059 L 0.12500000000002534 0.07216878364869218 L -5.684341886080802e-14 -0.14433756729744118 L -0.12500000000000006 0.07216878364870873 Z" style="vector-effect: non-scaling-stroke;" /></g><g transform="matrix(1.0, 0.0, 0.0, 1.0, -0.12500000000002545, 0.21650635094613335)"><g><g style="fill: #ff9700;stroke: black;stroke-width: 0.885;" transform="matrix(1.0, 0.0, 0.0, 1.0, 0.0, 0.0)"><path d="M -0.12499999999999378 0.07216878364872059 L 0.12500000000002534 0.07216878364869218 L -5.684341886080802e-14 -0.14433756729744118 L -0.12500000000000006 0.07216878364870873 Z" style="vector-effect: non-scaling-stroke;" /></g><g style="fill: #ff9700;stroke: black;stroke-width: 0.885;" transform="matrix(1.0, 0.0, 0.0, 1.0, 0.25000000000000017, 0.0)"><path d="M -0.12499999999999378 0.07216878364872059 L 0.12500000000002534 0.07216878364869218 L -5.684341886080802e-14 -0.14433756729744118 L -0.12500000000000006 0.07216878364870873 Z" style="vector-effect: non-scaling-stroke;" /></g></g></g></g><g transform="matrix(1.0, 0.0, 0.0, 1.0, -0.2500000000000002, 0.4330127018922667)"><g><g><g style="fill: #ff9700;stroke: black;stroke-width: 0.885;" transform="matrix(1.0, 0.0, 0.0, 1.0, 0.0, 0.0)"><path d="M -0.12499999999999378 0.07216878364872059 L 0.12500000000002534 0.07216878364869218 L -5.684341886080802e-14 -0.14433756729744118 L -0.12500000000000006 0.07216878364870873 Z" style="vector-effect: non-scaling-stroke;" /></g><g transform="matrix(1.0, 0.0, 0.0, 1.0, -0.12500000000002545, 0.21650635094613335)"><g><g style="fill: #ff9700;stroke: black;stroke-width: 0.885;" transform="matrix(1.0, 0.0, 0.0, 1.0, 0.0, 0.0)"><path d="M -0.12499999999999378 0.07216878364872059 L 0.12500000000002534 0.07216878364869218 L -5.684341886080802e-14 -0.14433756729744118 L -0.12500000000000006 0.07216878364870873 Z" style="vector-effect: non-scaling-stroke;" /></g><g style="fill: #ff9700;stroke: black;stroke-width: 0.885;" transform="matrix(1.0, 0.0, 0.0, 1.0, 0.25000000000000017, 0.0)"><path d="M -0.12499999999999378 0.07216878364872059 L 0.12500000000002534 0.07216878364869218 L -5.684341886080802e-14 -0.14433756729744118 L -0.12500000000000006 0.07216878364870873 Z" style="vector-effect: non-scaling-stroke;" /></g></g></g></g><g transform="matrix(1.0, 0.0, 0.0, 1.0, 0.5000000000000004, 0.0)"><g><g style="fill: #ff9700;stroke: black;stroke-width: 0.885;" transform="matrix(1.0, 0.0, 0.0, 1.0, 0.0, 0.0)"><path d="M -0.12499999999999378 0.07216878364872059 L 0.12500000000002534 0.07216878364869218 L -5.684341886080802e-14 -0.14433756729744118 L -0.12500000000000006 0.07216878364870873 Z" style="vector-effect: non-scaling-stroke;" /></g><g transform="matrix(1.0, 0.0, 0.0, 1.0, -0.12500000000002545, 0.21650635094613335)"><g><g style="fill: #ff9700;stroke: black;stroke-width: 0.885;" transform="matrix(1.0, 0.0, 0.0, 1.0, 0.0, 0.0)"><path d="M -0.12499999999999378 0.07216878364872059 L 0.12500000000002534 0.07216878364869218 L -5.684341886080802e-14 -0.14433756729744118 L -0.12500000000000006 0.07216878364870873 Z" style="vector-effect: non-scaling-stroke;" /></g><g style="fill: #ff9700;stroke: black;stroke-width: 0.885;" transform="matrix(1.0, 0.0, 0.0, 1.0, 0.25000000000000017, 0.0)"><path d="M -0.12499999999999378 0.07216878364872059 L 0.12500000000002534 0.07216878364869218 L -5.684341886080802e-14 -0.14433756729744118 L -0.12500000000000006 0.07216878364870873 Z" style="vector-effect: non-scaling-stroke;" /></g></g></g></g></g></g></g></g></g></g></g></g></g></g></g></g></g></g></svg>