<?xml version="1.0" encoding="utf-8" ?>
<svg baseProfile="full" height="64" version="1.1" width="12" xmlns="http://www.w3.org/2000/svg" xmlns:ev="http://www.w3.org/2001/xml-events" xmlns:xlink="http://www.w3.org/1999/xlink"><defs><marker id="arrow" markerHeight="3.5" markerWidth="5" orient="auto" refX="5.0" refY="1.7"><polygon points="0,0 5,1.75 0,3.5" /></marker></defs><g style="fill:white;"><g transform="matrix(2.852863561800177, 0.0, 0.0, 2.852863561800177, -24.24078168461615, 14.292846444619187)"><g><g transform="matrix(1.0, 0.0, 0.0, 1.0, 10.0, 11.0)"><g style="fill: rgb(256.0 151.59215686274507 0.0);stroke: black;stroke-width: [0.192];" transform="matrix(1.0, 0.0, 0.0, 1.0, -1.5, -4.999999999999886)"><path d="M 0.0 0.0 L 3.000000000000023 -2.2737367544323206e-13 L 3.0 9.99999999999985 L 0.0 10.0 L 0.0 8.881784197001252e-16 Z" style="vector-effect: non-scaling-stroke;" /></g></g><g transform="matrix(1.0, 0.0, 0.0, 1.0, 11.0, 0.0)"><g style="fill: rgb(256.0 151.59215686274507 0.0);stroke: black;stroke-width: [0.192];" transform="matrix(1.0, 0.0, 0.0, 1.0, -1.5, -4.999999999999886)"><path d="M 0.0 0.0 L 3.000000000000023 -2.2737367544323206e-13 L 3.0 9.99999999999985 L 0.0 10.0 L 0.0 8.881784197001252e-16 Z" style="vector-effect: non-scaling-stroke;" /></g></g></g></g></g></svg>