<?xml version="1.0" encoding="utf-8" ?>
<svg baseProfile="full" height="64" version="1.1" width="192" xmlns="http://www.w3.org/2000/svg" xmlns:ev="http://www.w3.org/2001/xml-events" xmlns:xlink="http://www.w3.org/1999/xlink"><defs><marker id="arrow" markerHeight="3.5" markerWidth="5" orient="auto" refX="5.0" refY="1.7"><polygon points="0,0 5,1.75 0,3.5" /></marker></defs><g style="fill:white;" /><g style="fill: rgb(0.0 95.37254901960779 219.85882352941175);stroke: rgb(0.0 0.0 0.0); stroke-width: 0.1;fill-opacity: 1.0;" transform="matrix(6.095238095238095, 0.0, 0.0, 6.095238095238095, 12.190476190476197, 30.4761904761905)"><path d="M 0.0 0.0 &#10;                A 1.0 1.0 0.0 0 0&#10;                  -0.9999999999999999 -1.0 &#10;                A 1.0 1.0 -90.0 0 0&#10;                  -2.0 -1.2246467991473532e-16 &#10;                A 1.0 1.0 -180.0 0 0&#10;                  -1.0000000000000002 0.9999999999999999 &#10;                A 1.0 1.0 90.00000000000001 0 0&#10;                  0.0 2.4492935982947064e-16 Z" style="vector-effect: non-scaling-stroke;" /></g><g style="fill: rgb(0.0 95.37254901960779 219.85882352941175);stroke: rgb(0.0 0.0 0.0); stroke-width: 0.1;fill-opacity: 1.0;" transform="matrix(12.19047619047619, 0.0, 0.0, 12.19047619047619, 36.57142857142858, 30.4761904761905)"><path d="M 0.0 0.0 &#10;                A 1.0 1.0 0.0 0 0&#10;                  -0.9999999999999999 -1.0 &#10;                A 1.0 1.0 -90.0 0 0&#10;                  -2.0 -1.2246467991473532e-16 &#10;                A 1.0 1.0 -180.0 0 0&#10;                  -1.0000000000000002 0.9999999999999999 &#10;                A 1.0 1.0 90.00000000000001 0 0&#10;                  0.0 2.4492935982947064e-16 Z" style="vector-effect: non-scaling-stroke;" /></g><g style="fill: rgb(0.0 95.37254901960779 219.85882352941175);stroke: rgb(0.0 0.0 0.0); stroke-width: 0.1;fill-opacity: 1.0;" transform="matrix(18.28571428571429, 0.0, 0.0, 18.28571428571429, 73.14285714285715, 30.4761904761905)"><path d="M 0.0 0.0 &#10;                A 1.0 1.0 0.0 0 0&#10;                  -0.9999999999999999 -1.0 &#10;                A 1.0 1.0 -90.0 0 0&#10;                  -2.0 -1.2246467991473532e-16 &#10;                A 1.0 1.0 -180.0 0 0&#10;                  -1.0000000000000002 0.9999999999999999 &#10;                A 1.0 1.0 90.00000000000001 0 0&#10;                  0.0 2.4492935982947064e-16 Z" style="vector-effect: non-scaling-stroke;" /></g><g style="fill: rgb(0.0 95.37254901960779 219.85882352941175);stroke: rgb(0.0 0.0 0.0); stroke-width: 0.1;fill-opacity: 1.0;" transform="matrix(24.38095238095238, 0.0, 0.0, 24.38095238095238, 121.90476190476191, 30.4761904761905)"><path d="M 0.0 0.0 &#10;                A 1.0 1.0 0.0 0 0&#10;                  -0.9999999999999999 -1.0 &#10;                A 1.0 1.0 -90.0 0 0&#10;                  -2.0 -1.2246467991473532e-16 &#10;                A 1.0 1.0 -180.0 0 0&#10;                  -1.0000000000000002 0.9999999999999999 &#10;                A 1.0 1.0 90.00000000000001 0 0&#10;                  0.0 2.4492935982947064e-16 Z" style="vector-effect: non-scaling-stroke;" /></g><g style="fill: rgb(0.0 95.37254901960779 219.85882352941175);stroke: rgb(0.0 0.0 0.0); stroke-width: 0.1;fill-opacity: 1.0;" transform="matrix(30.476190476190474, 0.0, 0.0, 30.476190476190474, 182.8571428571429, 30.4761904761905)"><path d="M 0.0 0.0 &#10;                A 1.0 1.0 0.0 0 0&#10;                  -0.9999999999999999 -1.0 &#10;                A 1.0 1.0 -90.0 0 0&#10;                  -2.0 -1.2246467991473532e-16 &#10;                A 1.0 1.0 -180.0 0 0&#10;                  -1.0000000000000002 0.9999999999999999 &#10;                A 1.0 1.0 90.00000000000001 0 0&#10;                  0.0 2.4492935982947064e-16 Z" style="vector-effect: non-scaling-stroke;" /></g></svg>