<?xml version="1.0" encoding="utf-8" ?>
<svg baseProfile="full" height="64" version="1.1" width="117" xmlns="http://www.w3.org/2000/svg" xmlns:ev="http://www.w3.org/2001/xml-events" xmlns:xlink="http://www.w3.org/1999/xlink"><defs><marker id="arrow" markerHeight="3.5" markerWidth="5" orient="auto" refX="5.0" refY="1.7"><polygon points="0,0 5,1.75 0,3.5" /></marker></defs><g style="fill:white; stroke: black; stroke-width: 0.01;" transform="scale(50.607414395197004) translate(0.525 0.6323184138614484)"><g><g><g style="fill: #ff9700;" transform="matrix(1.0, 0.0, 0.0, 1.0, 0.0, 0.0)"><circle cx="0.0" cy="0.0" r="0.5" /></g><g style="stroke: #ff0000;fill-opacity: 0;" transform="matrix(1.0, 0.0, 0.0, 1.0, 0.0, 0.0)"><polyline points="0.5,0.0 0.49240387650610384,0.08682408883346514 0.4698463103929542,0.17101007166283436 0.43301270189221935,0.24999999999999997 0.3830222215594889,0.3213938048432695 0.3213938048432697,0.383022221559489 0.25000000000000006,0.4330127018922193 0.17101007166283436,0.469846310392954 0.08682408883346518,0.49240387650610384 0.0,0.5 -0.08682408883346512,0.49240387650610384 -0.17101007166283436,0.4698463103929542 -0.2499999999999998,0.4330127018922192 -0.3213938048432697,0.383022221559489 -0.38302222155948895,0.32139380484326974 -0.43301270189221935,0.24999999999999997 -0.469846310392954,0.17101007166283438 -0.49240387650610384,0.08682408883346511 -0.5,0.0 -0.492403876506104,-0.08682408883346523 -0.4698463103929542,-0.17101007166283433 -0.4330127018922193,-0.25000000000000006 -0.3830222215594889,-0.3213938048432695 -0.32139380484326974,-0.38302222155948895 -0.2500000000000002,-0.4330127018922192 -0.1710100716628347,-0.4698463103929541 -0.08682408883346514,-0.49240387650610384 0.0,-0.5 0.08682408883346499,-0.49240387650610407 0.17101007166283402,-0.4698463103929541 0.25000000000000006,-0.4330127018922193 0.3213938048432696,-0.38302222155948906 0.3830222215594889,-0.3213938048432698 0.4330127018922192,-0.2500000000000002 0.4698463103929542,-0.1710100716628343 0.49240387650610395,-0.08682408883346564 0.5,0.0" /></g></g><g transform="matrix(1.0, 0.0, 0.0, 1.0, 1.1022080132013792, 0.0)"><g><g style="fill: #005fdb;" transform="matrix(1.0, 0.0, 0.0, 1.0, 0.0, 0.0)"><rect height="1" width="1" x="-0.5" y="-0.5" /></g><g style="stroke: #ff0000;fill-opacity: 0;" transform="matrix(1.0, 0.0, 0.0, 1.0, 0.0, 0.0)"><polyline points="0.5,0.0 0.5704281910278941,0.10058188063494004 0.6022080132013794,0.2191857916418903 0.5915063509461097,0.3415063509461096 0.5396139826697844,0.45278989383631923 0.45278989383631946,0.5396139826697846 0.34150635094610976,0.5915063509461097 0.2191857916418903,0.6022080132013791 0.10058188063494009,0.5704281910278941 0.0,0.5 -0.10058188063494,0.570428191027894 -0.2191857916418903,0.6022080132013794 -0.3415063509461093,0.5915063509461094 -0.45278989383631946,0.5396139826697846 -0.5396139826697846,0.4527898938363195 -0.5915063509461096,0.34150635094610954 -0.6022080132013792,0.21918579164189037 -0.570428191027894,0.10058188063493999 -0.5,0.0 -0.5704281910278942,-0.10058188063494015 -0.6022080132013793,-0.21918579164189023 -0.5915063509461095,-0.34150635094610965 -0.5396139826697843,-0.4527898938363192 -0.4527898938363195,-0.5396139826697846 -0.3415063509461101,-0.5915063509461097 -0.2191857916418908,-0.6022080132013794 -0.10058188063494004,-0.5704281910278941 0.0,-0.5 0.10058188063493985,-0.5704281910278942 0.2191857916418898,-0.602208013201379 0.34150635094610976,-0.5915063509461097 0.4527898938363194,-0.5396139826697847 0.5396139826697844,-0.4527898938363196 0.5915063509461096,-0.34150635094611 0.6022080132013794,-0.21918579164189023 0.5704281910278945,-0.10058188063494068 0.5,0.0" /></g></g></g></g></g></svg>