<?xml version="1.0" encoding="utf-8" ?>
<svg baseProfile="full" height="64" version="1.1" width="192" xmlns="http://www.w3.org/2000/svg" xmlns:ev="http://www.w3.org/2001/xml-events" xmlns:xlink="http://www.w3.org/1999/xlink"><defs><marker id="arrow" markerHeight="3.5" markerWidth="5" orient="auto" refX="5.0" refY="1.7"><polygon points="0,0 5,1.75 0,3.5" /></marker></defs><g style="fill:white;"><g transform="matrix(1.0, 0.0, 0.0, 1.0, 96.0, 32.0)"><g transform="matrix(60.95238095238095, 0.0, 0.0, 60.95238095238095, 0.0, 0.0)"><g><g transform="matrix(1.0, 0.0, 0.0, 1.0, -1.4, -0.0)"><g><g><g><g><g><g><g><g><g style="fill: #005fdb;stroke: black;stroke-width: 0.576;" transform="matrix(1.0, 0.0, 0.0, 1.0, 0.0, 0.0)"><path d="M -0.1 0.0 A 0.1 0.1 -90.0 0 1 0.1 0.0 A 0.1 0.1 90.0 0 1 -0.1 0.0 Z" style="vector-effect: non-scaling-stroke;" /></g><g transform="matrix(1.0, 0.0, 0.0, 1.0, 0.1, 0.0)"><g transform="matrix(1.0, -0.0, 0.0, 1.0, 0.0, 0.0)"><g /></g></g></g><g style="fill: #005fdb;stroke: black;stroke-width: 0.576;" transform="matrix(1.0, 0.0, 0.0, 1.0, 0.30000000000000004, 0.0)"><path d="M -0.2 0.0 A 0.2 0.2 -90.0 0 1 0.2 0.0 A 0.2 0.2 90.0 0 1 -0.2 0.0 Z" style="vector-effect: non-scaling-stroke;" /></g></g><g transform="matrix(1.0, 0.0, 0.0, 1.0, 0.5, 0.0)"><g transform="matrix(1.0, -0.0, 0.0, 1.0, 0.0, 0.0)"><g /></g></g></g><g style="fill: #005fdb;stroke: black;stroke-width: 0.576;" transform="matrix(1.0, 0.0, 0.0, 1.0, 0.8, 0.0)"><path d="M -0.30000000000000004 0.0 A 0.30000000000000004 0.30000000000000004 -90.0 0 1 0.30000000000000004 0.0 A 0.30000000000000004 0.30000000000000004 90.0 0 1 -0.30000000000000004 0.0 Z" style="vector-effect: non-scaling-stroke;" /></g></g><g transform="matrix(1.0, 0.0, 0.0, 1.0, 1.1, 0.0)"><g transform="matrix(1.0, -0.0, 0.0, 1.0, 0.0, 0.0)"><g /></g></g></g><g style="fill: #005fdb;stroke: black;stroke-width: 0.576;" transform="matrix(1.0, 0.0, 0.0, 1.0, 1.5, 0.0)"><path d="M -0.4 0.0 A 0.4 0.4 -90.0 0 1 0.4 0.0 A 0.4 0.4 90.0 0 1 -0.4 0.0 Z" style="vector-effect: non-scaling-stroke;" /></g></g><g transform="matrix(1.0, 0.0, 0.0, 1.0, 1.9, 0.0)"><g transform="matrix(1.0, -0.0, 0.0, 1.0, 0.0, 0.0)"><g /></g></g></g><g style="fill: #005fdb;stroke: black;stroke-width: 0.576;" transform="matrix(1.0, 0.0, 0.0, 1.0, 2.4, 0.0)"><path d="M -0.5 0.0 A 0.5 0.5 -90.0 0 1 0.5 0.0 A 0.5 0.5 90.0 0 1 -0.5 0.0 Z" style="vector-effect: non-scaling-stroke;" /></g></g></g><g /></g></g></g></g></svg>