<?xml version="1.0" encoding="utf-8" ?>
<svg baseProfile="full" height="256" version="1.1" width="295" xmlns="http://www.w3.org/2000/svg" xmlns:ev="http://www.w3.org/2001/xml-events" xmlns:xlink="http://www.w3.org/1999/xlink"><defs><marker id="arrow" markerHeight="3.5" markerWidth="5" orient="auto" refX="5.0" refY="1.7"><polygon points="0,0 5,1.75 0,3.5" /></marker></defs><g style="fill:white;"><g transform="matrix(1.0, 0.0, 0.0, 1.0, 147.80166891254427, 128.00000000000003)"><g transform="matrix(17.595436775302883, 0.0, 0.0, 17.595436775302883, 0.0, 0.0)"><g><g transform="matrix(1.0, 0.0, 0.0, 1.0, -0.0, -6.49519052838329)"><g><g><g><g><g style="fill: #ff9700;stroke: black;stroke-width: 0.885;" transform="matrix(1.0, 0.0, 0.0, 1.0, -0.4999999999999999, 0.43301270189221935)"><path d="M 0.0 0.0 L 1.0 0.0 L 0.5000000000000002 -0.8660254037844387 L -2.220446049250313e-16 -3.3306690738754696e-16 Z" style="vector-effect: non-scaling-stroke;" /></g><g transform="matrix(1.0, 0.0, 0.0, 1.0, 0.0, 0.8660254037844387)"><g transform="matrix(1.0, 0.0, 0.0, 1.0, -0.5000000000000002, -0.0)"><g><g style="fill: #ff9700;stroke: black;stroke-width: 0.885;" transform="matrix(1.0, 0.0, 0.0, 1.0, -0.4999999999999999, 0.43301270189221935)"><path d="M 0.0 0.0 L 1.0 0.0 L 0.5000000000000002 -0.8660254037844387 L -2.220446049250313e-16 -3.3306690738754696e-16 Z" style="vector-effect: non-scaling-stroke;" /></g><g style="fill: #ff9700;stroke: black;stroke-width: 0.885;" transform="matrix(1.0, 0.0, 0.0, 1.0, 0.5000000000000003, 0.43301270189221935)"><path d="M 0.0 0.0 L 1.0 0.0 L 0.5000000000000002 -0.8660254037844387 L -2.220446049250313e-16 -3.3306690738754696e-16 Z" style="vector-effect: non-scaling-stroke;" /></g></g></g></g></g><g transform="matrix(1.0, 0.0, 0.0, 1.0, 0.0, 2.1650635094610964)"><g transform="matrix(1.0, 0.0, 0.0, 1.0, -1.0000000000000002, -0.4330127018922193)"><g><g><g style="fill: #ff9700;stroke: black;stroke-width: 0.885;" transform="matrix(1.0, 0.0, 0.0, 1.0, -0.4999999999999999, 0.43301270189221935)"><path d="M 0.0 0.0 L 1.0 0.0 L 0.5000000000000002 -0.8660254037844387 L -2.220446049250313e-16 -3.3306690738754696e-16 Z" style="vector-effect: non-scaling-stroke;" /></g><g transform="matrix(1.0, 0.0, 0.0, 1.0, 0.0, 0.8660254037844387)"><g transform="matrix(1.0, 0.0, 0.0, 1.0, -0.5000000000000002, -0.0)"><g><g style="fill: #ff9700;stroke: black;stroke-width: 0.885;" transform="matrix(1.0, 0.0, 0.0, 1.0, -0.4999999999999999, 0.43301270189221935)"><path d="M 0.0 0.0 L 1.0 0.0 L 0.5000000000000002 -0.8660254037844387 L -2.220446049250313e-16 -3.3306690738754696e-16 Z" style="vector-effect: non-scaling-stroke;" /></g><g style="fill: #ff9700;stroke: black;stroke-width: 0.885;" transform="matrix(1.0, 0.0, 0.0, 1.0, 0.5000000000000003, 0.43301270189221935)"><path d="M 0.0 0.0 L 1.0 0.0 L 0.5000000000000002 -0.8660254037844387 L -2.220446049250313e-16 -3.3306690738754696e-16 Z" style="vector-effect: non-scaling-stroke;" /></g></g></g></g></g><g transform="matrix(1.0, 0.0, 0.0, 1.0, 2.000000000000001, 0.0)"><g><g style="fill: #ff9700;stroke: black;stroke-width: 0.885;" transform="matrix(1.0, 0.0, 0.0, 1.0, -0.4999999999999999, 0.43301270189221935)"><path d="M 0.0 0.0 L 1.0 0.0 L 0.5000000000000002 -0.8660254037844387 L -2.220446049250313e-16 -3.3306690738754696e-16 Z" style="vector-effect: non-scaling-stroke;" /></g><g transform="matrix(1.0, 0.0, 0.0, 1.0, 0.0, 0.8660254037844387)"><g transform="matrix(1.0, 0.0, 0.0, 1.0, -0.5000000000000002, -0.0)"><g><g style="fill: #ff9700;stroke: black;stroke-width: 0.885;" transform="matrix(1.0, 0.0, 0.0, 1.0, -0.4999999999999999, 0.43301270189221935)"><path d="M 0.0 0.0 L 1.0 0.0 L 0.5000000000000002 -0.8660254037844387 L -2.220446049250313e-16 -3.3306690738754696e-16 Z" style="vector-effect: non-scaling-stroke;" /></g><g style="fill: #ff9700;stroke: black;stroke-width: 0.885;" transform="matrix(1.0, 0.0, 0.0, 1.0, 0.5000000000000003, 0.43301270189221935)"><path d="M 0.0 0.0 L 1.0 0.0 L 0.5000000000000002 -0.8660254037844387 L -2.220446049250313e-16 -3.3306690738754696e-16 Z" style="vector-effect: non-scaling-stroke;" /></g></g></g></g></g></g></g></g></g></g><g transform="matrix(1.0, 0.0, 0.0, 1.0, 0.0, 4.763139720814412)"><g transform="matrix(1.0, 0.0, 0.0, 1.0, -2.000000000000001, -1.299038105676658)"><g><g><g><g style="fill: #ff9700;stroke: black;stroke-width: 0.885;" transform="matrix(1.0, 0.0, 0.0, 1.0, -0.4999999999999999, 0.43301270189221935)"><path d="M 0.0 0.0 L 1.0 0.0 L 0.5000000000000002 -0.8660254037844387 L -2.220446049250313e-16 -3.3306690738754696e-16 Z" style="vector-effect: non-scaling-stroke;" /></g><g transform="matrix(1.0, 0.0, 0.0, 1.0, 0.0, 0.8660254037844387)"><g transform="matrix(1.0, 0.0, 0.0, 1.0, -0.5000000000000002, -0.0)"><g><g style="fill: #ff9700;stroke: black;stroke-width: 0.885;" transform="matrix(1.0, 0.0, 0.0, 1.0, -0.4999999999999999, 0.43301270189221935)"><path d="M 0.0 0.0 L 1.0 0.0 L 0.5000000000000002 -0.8660254037844387 L -2.220446049250313e-16 -3.3306690738754696e-16 Z" style="vector-effect: non-scaling-stroke;" /></g><g style="fill: #ff9700;stroke: black;stroke-width: 0.885;" transform="matrix(1.0, 0.0, 0.0, 1.0, 0.5000000000000003, 0.43301270189221935)"><path d="M 0.0 0.0 L 1.0 0.0 L 0.5000000000000002 -0.8660254037844387 L -2.220446049250313e-16 -3.3306690738754696e-16 Z" style="vector-effect: non-scaling-stroke;" /></g></g></g></g></g><g transform="matrix(1.0, 0.0, 0.0, 1.0, 0.0, 2.1650635094610964)"><g transform="matrix(1.0, 0.0, 0.0, 1.0, -1.0000000000000002, -0.4330127018922193)"><g><g><g style="fill: #ff9700;stroke: black;stroke-width: 0.885;" transform="matrix(1.0, 0.0, 0.0, 1.0, -0.4999999999999999, 0.43301270189221935)"><path d="M 0.0 0.0 L 1.0 0.0 L 0.5000000000000002 -0.8660254037844387 L -2.220446049250313e-16 -3.3306690738754696e-16 Z" style="vector-effect: non-scaling-stroke;" /></g><g transform="matrix(1.0, 0.0, 0.0, 1.0, 0.0, 0.8660254037844387)"><g transform="matrix(1.0, 0.0, 0.0, 1.0, -0.5000000000000002, -0.0)"><g><g style="fill: #ff9700;stroke: black;stroke-width: 0.885;" transform="matrix(1.0, 0.0, 0.0, 1.0, -0.4999999999999999, 0.43301270189221935)"><path d="M 0.0 0.0 L 1.0 0.0 L 0.5000000000000002 -0.8660254037844387 L -2.220446049250313e-16 -3.3306690738754696e-16 Z" style="vector-effect: non-scaling-stroke;" /></g><g style="fill: #ff9700;stroke: black;stroke-width: 0.885;" transform="matrix(1.0, 0.0, 0.0, 1.0, 0.5000000000000003, 0.43301270189221935)"><path d="M 0.0 0.0 L 1.0 0.0 L 0.5000000000000002 -0.8660254037844387 L -2.220446049250313e-16 -3.3306690738754696e-16 Z" style="vector-effect: non-scaling-stroke;" /></g></g></g></g></g><g transform="matrix(1.0, 0.0, 0.0, 1.0, 2.000000000000001, 0.0)"><g><g style="fill: #ff9700;stroke: black;stroke-width: 0.885;" transform="matrix(1.0, 0.0, 0.0, 1.0, -0.4999999999999999, 0.43301270189221935)"><path d="M 0.0 0.0 L 1.0 0.0 L 0.5000000000000002 -0.8660254037844387 L -2.220446049250313e-16 -3.3306690738754696e-16 Z" style="vector-effect: non-scaling-stroke;" /></g><g transform="matrix(1.0, 0.0, 0.0, 1.0, 0.0, 0.8660254037844387)"><g transform="matrix(1.0, 0.0, 0.0, 1.0, -0.5000000000000002, -0.0)"><g><g style="fill: #ff9700;stroke: black;stroke-width: 0.885;" transform="matrix(1.0, 0.0, 0.0, 1.0, -0.4999999999999999, 0.43301270189221935)"><path d="M 0.0 0.0 L 1.0 0.0 L 0.5000000000000002 -0.8660254037844387 L -2.220446049250313e-16 -3.3306690738754696e-16 Z" style="vector-effect: non-scaling-stroke;" /></g><g style="fill: #ff9700;stroke: black;stroke-width: 0.885;" transform="matrix(1.0, 0.0, 0.0, 1.0, 0.5000000000000003, 0.43301270189221935)"><path d="M 0.0 0.0 L 1.0 0.0 L 0.5000000000000002 -0.8660254037844387 L -2.220446049250313e-16 -3.3306690738754696e-16 Z" style="vector-effect: non-scaling-stroke;" /></g></g></g></g></g></g></g></g></g></g><g transform="matrix(1.0, 0.0, 0.0, 1.0, 4.000000000000002, 0.0)"><g><g><g style="fill: #ff9700;stroke: black;stroke-width: 0.885;" transform="matrix(1.0, 0.0, 0.0, 1.0, -0.4999999999999999, 0.43301270189221935)"><path d="M 0.0 0.0 L 1.0 0.0 L 0.5000000000000002 -0.8660254037844387 L -2.220446049250313e-16 -3.3306690738754696e-16 Z" style="vector-effect: non-scaling-stroke;" /></g><g transform="matrix(1.0, 0.0, 0.0, 1.0, 0.0, 0.8660254037844387)"><g transform="matrix(1.0, 0.0, 0.0, 1.0, -0.5000000000000002, -0.0)"><g><g style="fill: #ff9700;stroke: black;stroke-width: 0.885;" transform="matrix(1.0, 0.0, 0.0, 1.0, -0.4999999999999999, 0.43301270189221935)"><path d="M 0.0 0.0 L 1.0 0.0 L 0.5000000000000002 -0.8660254037844387 L -2.220446049250313e-16 -3.3306690738754696e-16 Z" style="vector-effect: non-scaling-stroke;" /></g><g style="fill: #ff9700;stroke: black;stroke-width: 0.885;" transform="matrix(1.0, 0.0, 0.0, 1.0, 0.5000000000000003, 0.43301270189221935)"><path d="M 0.0 0.0 L 1.0 0.0 L 0.5000000000000002 -0.8660254037844387 L -2.220446049250313e-16 -3.3306690738754696e-16 Z" style="vector-effect: non-scaling-stroke;" /></g></g></g></g></g><g transform="matrix(1.0, 0.0, 0.0, 1.0, 0.0, 2.1650635094610964)"><g transform="matrix(1.0, 0.0, 0.0, 1.0, -1.0000000000000002, -0.4330127018922193)"><g><g><g style="fill: #ff9700;stroke: black;stroke-width: 0.885;" transform="matrix(1.0, 0.0, 0.0, 1.0, -0.4999999999999999, 0.43301270189221935)"><path d="M 0.0 0.0 L 1.0 0.0 L 0.5000000000000002 -0.8660254037844387 L -2.220446049250313e-16 -3.3306690738754696e-16 Z" style="vector-effect: non-scaling-stroke;" /></g><g transform="matrix(1.0, 0.0, 0.0, 1.0, 0.0, 0.8660254037844387)"><g transform="matrix(1.0, 0.0, 0.0, 1.0, -0.5000000000000002, -0.0)"><g><g style="fill: #ff9700;stroke: black;stroke-width: 0.885;" transform="matrix(1.0, 0.0, 0.0, 1.0, -0.4999999999999999, 0.43301270189221935)"><path d="M 0.0 0.0 L 1.0 0.0 L 0.5000000000000002 -0.8660254037844387 L -2.220446049250313e-16 -3.3306690738754696e-16 Z" style="vector-effect: non-scaling-stroke;" /></g><g style="fill: #ff9700;stroke: black;stroke-width: 0.885;" transform="matrix(1.0, 0.0, 0.0, 1.0, 0.5000000000000003, 0.43301270189221935)"><path d="M 0.0 0.0 L 1.0 0.0 L 0.5000000000000002 -0.8660254037844387 L -2.220446049250313e-16 -3.3306690738754696e-16 Z" style="vector-effect: non-scaling-stroke;" /></g></g></g></g></g><g transform="matrix(1.0, 0.0, 0.0, 1.0, 2.000000000000001, 0.0)"><g><g style="fill: #ff9700;stroke: black;stroke-width: 0.885;" transform="matrix(1.0, 0.0, 0.0, 1.0, -0.4999999999999999, 0.43301270189221935)"><path d="M 0.0 0.0 L 1.0 0.0 L 0.5000000000000002 -0.8660254037844387 L -2.220446049250313e-16 -3.3306690738754696e-16 Z" style="vector-effect: non-scaling-stroke;" /></g><g transform="matrix(1.0, 0.0, 0.0, 1.0, 0.0, 0.8660254037844387)"><g transform="matrix(1.0, 0.0, 0.0, 1.0, -0.5000000000000002, -0.0)"><g><g style="fill: #ff9700;stroke: black;stroke-width: 0.885;" transform="matrix(1.0, 0.0, 0.0, 1.0, -0.4999999999999999, 0.43301270189221935)"><path d="M 0.0 0.0 L 1.0 0.0 L 0.5000000000000002 -0.8660254037844387 L -2.220446049250313e-16 -3.3306690738754696e-16 Z" style="vector-effect: non-scaling-stroke;" /></g><g style="fill: #ff9700;stroke: black;stroke-width: 0.885;" transform="matrix(1.0, 0.0, 0.0, 1.0, 0.5000000000000003, 0.43301270189221935)"><path d="M 0.0 0.0 L 1.0 0.0 L 0.5000000000000002 -0.8660254037844387 L -2.220446049250313e-16 -3.3306690738754696e-16 Z" style="vector-effect: non-scaling-stroke;" /></g></g></g></g></g></g></g></g></g></g></g></g></g></g></g><g transform="matrix(1.0, 0.0, 0.0, 1.0, 0.0, 9.959292143521044)"><g transform="matrix(1.0, 0.0, 0.0, 1.0, -4.000000000000002, -3.031088913245535)"><g><g><g><g><g style="fill: #ff9700;stroke: black;stroke-width: 0.885;" transform="matrix(1.0, 0.0, 0.0, 1.0, -0.4999999999999999, 0.43301270189221935)"><path d="M 0.0 0.0 L 1.0 0.0 L 0.5000000000000002 -0.8660254037844387 L -2.220446049250313e-16 -3.3306690738754696e-16 Z" style="vector-effect: non-scaling-stroke;" /></g><g transform="matrix(1.0, 0.0, 0.0, 1.0, 0.0, 0.8660254037844387)"><g transform="matrix(1.0, 0.0, 0.0, 1.0, -0.5000000000000002, -0.0)"><g><g style="fill: #ff9700;stroke: black;stroke-width: 0.885;" transform="matrix(1.0, 0.0, 0.0, 1.0, -0.4999999999999999, 0.43301270189221935)"><path d="M 0.0 0.0 L 1.0 0.0 L 0.5000000000000002 -0.8660254037844387 L -2.220446049250313e-16 -3.3306690738754696e-16 Z" style="vector-effect: non-scaling-stroke;" /></g><g style="fill: #ff9700;stroke: black;stroke-width: 0.885;" transform="matrix(1.0, 0.0, 0.0, 1.0, 0.5000000000000003, 0.43301270189221935)"><path d="M 0.0 0.0 L 1.0 0.0 L 0.5000000000000002 -0.8660254037844387 L -2.220446049250313e-16 -3.3306690738754696e-16 Z" style="vector-effect: non-scaling-stroke;" /></g></g></g></g></g><g transform="matrix(1.0, 0.0, 0.0, 1.0, 0.0, 2.1650635094610964)"><g transform="matrix(1.0, 0.0, 0.0, 1.0, -1.0000000000000002, -0.4330127018922193)"><g><g><g style="fill: #ff9700;stroke: black;stroke-width: 0.885;" transform="matrix(1.0, 0.0, 0.0, 1.0, -0.4999999999999999, 0.43301270189221935)"><path d="M 0.0 0.0 L 1.0 0.0 L 0.5000000000000002 -0.8660254037844387 L -2.220446049250313e-16 -3.3306690738754696e-16 Z" style="vector-effect: non-scaling-stroke;" /></g><g transform="matrix(1.0, 0.0, 0.0, 1.0, 0.0, 0.8660254037844387)"><g transform="matrix(1.0, 0.0, 0.0, 1.0, -0.5000000000000002, -0.0)"><g><g style="fill: #ff9700;stroke: black;stroke-width: 0.885;" transform="matrix(1.0, 0.0, 0.0, 1.0, -0.4999999999999999, 0.43301270189221935)"><path d="M 0.0 0.0 L 1.0 0.0 L 0.5000000000000002 -0.8660254037844387 L -2.220446049250313e-16 -3.3306690738754696e-16 Z" style="vector-effect: non-scaling-stroke;" /></g><g style="fill: #ff9700;stroke: black;stroke-width: 0.885;" transform="matrix(1.0, 0.0, 0.0, 1.0, 0.5000000000000003, 0.43301270189221935)"><path d="M 0.0 0.0 L 1.0 0.0 L 0.5000000000000002 -0.8660254037844387 L -2.220446049250313e-16 -3.3306690738754696e-16 Z" style="vector-effect: non-scaling-stroke;" /></g></g></g></g></g><g transform="matrix(1.0, 0.0, 0.0, 1.0, 2.000000000000001, 0.0)"><g><g style="fill: #ff9700;stroke: black;stroke-width: 0.885;" transform="matrix(1.0, 0.0, 0.0, 1.0, -0.4999999999999999, 0.43301270189221935)"><path d="M 0.0 0.0 L 1.0 0.0 L 0.5000000000000002 -0.8660254037844387 L -2.220446049250313e-16 -3.3306690738754696e-16 Z" style="vector-effect: non-scaling-stroke;" /></g><g transform="matrix(1.0, 0.0, 0.0, 1.0, 0.0, 0.8660254037844387)"><g transform="matrix(1.0, 0.0, 0.0, 1.0, -0.5000000000000002, -0.0)"><g><g style="fill: #ff9700;stroke: black;stroke-width: 0.885;" transform="matrix(1.0, 0.0, 0.0, 1.0, -0.4999999999999999, 0.43301270189221935)"><path d="M 0.0 0.0 L 1.0 0.0 L 0.5000000000000002 -0.8660254037844387 L -2.220446049250313e-16 -3.3306690738754696e-16 Z" style="vector-effect: non-scaling-stroke;" /></g><g style="fill: #ff9700;stroke: black;stroke-width: 0.885;" transform="matrix(1.0, 0.0, 0.0, 1.0, 0.5000000000000003, 0.43301270189221935)"><path d="M 0.0 0.0 L 1.0 0.0 L 0.5000000000000002 -0.8660254037844387 L -2.220446049250313e-16 -3.3306690738754696e-16 Z" style="vector-effect: non-scaling-stroke;" /></g></g></g></g></g></g></g></g></g></g><g transform="matrix(1.0, 0.0, 0.0, 1.0, 0.0, 4.763139720814412)"><g transform="matrix(1.0, 0.0, 0.0, 1.0, -2.000000000000001, -1.299038105676658)"><g><g><g><g style="fill: #ff9700;stroke: black;stroke-width: 0.885;" transform="matrix(1.0, 0.0, 0.0, 1.0, -0.4999999999999999, 0.43301270189221935)"><path d="M 0.0 0.0 L 1.0 0.0 L 0.5000000000000002 -0.8660254037844387 L -2.220446049250313e-16 -3.3306690738754696e-16 Z" style="vector-effect: non-scaling-stroke;" /></g><g transform="matrix(1.0, 0.0, 0.0, 1.0, 0.0, 0.8660254037844387)"><g transform="matrix(1.0, 0.0, 0.0, 1.0, -0.5000000000000002, -0.0)"><g><g style="fill: #ff9700;stroke: black;stroke-width: 0.885;" transform="matrix(1.0, 0.0, 0.0, 1.0, -0.4999999999999999, 0.43301270189221935)"><path d="M 0.0 0.0 L 1.0 0.0 L 0.5000000000000002 -0.8660254037844387 L -2.220446049250313e-16 -3.3306690738754696e-16 Z" style="vector-effect: non-scaling-stroke;" /></g><g style="fill: #ff9700;stroke: black;stroke-width: 0.885;" transform="matrix(1.0, 0.0, 0.0, 1.0, 0.5000000000000003, 0.43301270189221935)"><path d="M 0.0 0.0 L 1.0 0.0 L 0.5000000000000002 -0.8660254037844387 L -2.220446049250313e-16 -3.3306690738754696e-16 Z" style="vector-effect: non-scaling-stroke;" /></g></g></g></g></g><g transform="matrix(1.0, 0.0, 0.0, 1.0, 0.0, 2.1650635094610964)"><g transform="matrix(1.0, 0.0, 0.0, 1.0, -1.0000000000000002, -0.4330127018922193)"><g><g><g style="fill: #ff9700;stroke: black;stroke-width: 0.885;" transform="matrix(1.0, 0.0, 0.0, 1.0, -0.4999999999999999, 0.43301270189221935)"><path d="M 0.0 0.0 L 1.0 0.0 L 0.5000000000000002 -0.8660254037844387 L -2.220446049250313e-16 -3.3306690738754696e-16 Z" style="vector-effect: non-scaling-stroke;" /></g><g transform="matrix(1.0, 0.0, 0.0, 1.0, 0.0, 0.8660254037844387)"><g transform="matrix(1.0, 0.0, 0.0, 1.0, -0.5000000000000002, -0.0)"><g><g style="fill: #ff9700;stroke: black;stroke-width: 0.885;" transform="matrix(1.0, 0.0, 0.0, 1.0, -0.4999999999999999, 0.43301270189221935)"><path d="M 0.0 0.0 L 1.0 0.0 L 0.5000000000000002 -0.8660254037844387 L -2.220446049250313e-16 -3.3306690738754696e-16 Z" style="vector-effect: non-scaling-stroke;" /></g><g style="fill: #ff9700;stroke: black;stroke-width: 0.885;" transform="matrix(1.0, 0.0, 0.0, 1.0, 0.5000000000000003, 0.43301270189221935)"><path d="M 0.0 0.0 L 1.0 0.0 L 0.5000000000000002 -0.8660254037844387 L -2.220446049250313e-16 -3.3306690738754696e-16 Z" style="vector-effect: non-scaling-stroke;" /></g></g></g></g></g><g transform="matrix(1.0, 0.0, 0.0, 1.0, 2.000000000000001, 0.0)"><g><g style="fill: #ff9700;stroke: black;stroke-width: 0.885;" transform="matrix(1.0, 0.0, 0.0, 1.0, -0.4999999999999999, 0.43301270189221935)"><path d="M 0.0 0.0 L 1.0 0.0 L 0.5000000000000002 -0.8660254037844387 L -2.220446049250313e-16 -3.3306690738754696e-16 Z" style="vector-effect: non-scaling-stroke;" /></g><g transform="matrix(1.0, 0.0, 0.0, 1.0, 0.0, 0.8660254037844387)"><g transform="matrix(1.0, 0.0, 0.0, 1.0, -0.5000000000000002, -0.0)"><g><g style="fill: #ff9700;stroke: black;stroke-width: 0.885;" transform="matrix(1.0, 0.0, 0.0, 1.0, -0.4999999999999999, 0.43301270189221935)"><path d="M 0.0 0.0 L 1.0 0.0 L 0.5000000000000002 -0.8660254037844387 L -2.220446049250313e-16 -3.3306690738754696e-16 Z" style="vector-effect: non-scaling-stroke;" /></g><g style="fill: #ff9700;stroke: black;stroke-width: 0.885;" transform="matrix(1.0, 0.0, 0.0, 1.0, 0.5000000000000003, 0.43301270189221935)"><path d="M 0.0 0.0 L 1.0 0.0 L 0.5000000000000002 -0.8660254037844387 L -2.220446049250313e-16 -3.3306690738754696e-16 Z" style="vector-effect: non-scaling-stroke;" /></g></g></g></g></g></g></g></g></g></g><g transform="matrix(1.0, 0.0, 0.0, 1.0, 4.000000000000002, 0.0)"><g><g><g style="fill: #ff9700;stroke: black;stroke-width: 0.885;" transform="matrix(1.0, 0.0, 0.0, 1.0, -0.4999999999999999, 0.43301270189221935)"><path d="M 0.0 0.0 L 1.0 0.0 L 0.5000000000000002 -0.8660254037844387 L -2.220446049250313e-16 -3.3306690738754696e-16 Z" style="vector-effect: non-scaling-stroke;" /></g><g transform="matrix(1.0, 0.0, 0.0, 1.0, 0.0, 0.8660254037844387)"><g transform="matrix(1.0, 0.0, 0.0, 1.0, -0.5000000000000002, -0.0)"><g><g style="fill: #ff9700;stroke: black;stroke-width: 0.885;" transform="matrix(1.0, 0.0, 0.0, 1.0, -0.4999999999999999, 0.43301270189221935)"><path d="M 0.0 0.0 L 1.0 0.0 L 0.5000000000000002 -0.8660254037844387 L -2.220446049250313e-16 -3.3306690738754696e-16 Z" style="vector-effect: non-scaling-stroke;" /></g><g style="fill: #ff9700;stroke: black;stroke-width: 0.885;" transform="matrix(1.0, 0.0, 0.0, 1.0, 0.5000000000000003, 0.43301270189221935)"><path d="M 0.0 0.0 L 1.0 0.0 L 0.5000000000000002 -0.8660254037844387 L -2.220446049250313e-16 -3.3306690738754696e-16 Z" style="vector-effect: non-scaling-stroke;" /></g></g></g></g></g><g transform="matrix(1.0, 0.0, 0.0, 1.0, 0.0, 2.1650635094610964)"><g transform="matrix(1.0, 0.0, 0.0, 1.0, -1.0000000000000002, -0.4330127018922193)"><g><g><g style="fill: #ff9700;stroke: black;stroke-width: 0.885;" transform="matrix(1.0, 0.0, 0.0, 1.0, -0.4999999999999999, 0.43301270189221935)"><path d="M 0.0 0.0 L 1.0 0.0 L 0.5000000000000002 -0.8660254037844387 L -2.220446049250313e-16 -3.3306690738754696e-16 Z" style="vector-effect: non-scaling-stroke;" /></g><g transform="matrix(1.0, 0.0, 0.0, 1.0, 0.0, 0.8660254037844387)"><g transform="matrix(1.0, 0.0, 0.0, 1.0, -0.5000000000000002, -0.0)"><g><g style="fill: #ff9700;stroke: black;stroke-width: 0.885;" transform="matrix(1.0, 0.0, 0.0, 1.0, -0.4999999999999999, 0.43301270189221935)"><path d="M 0.0 0.0 L 1.0 0.0 L 0.5000000000000002 -0.8660254037844387 L -2.220446049250313e-16 -3.3306690738754696e-16 Z" style="vector-effect: non-scaling-stroke;" /></g><g style="fill: #ff9700;stroke: black;stroke-width: 0.885;" transform="matrix(1.0, 0.0, 0.0, 1.0, 0.5000000000000003, 0.43301270189221935)"><path d="M 0.0 0.0 L 1.0 0.0 L 0.5000000000000002 -0.8660254037844387 L -2.220446049250313e-16 -3.3306690738754696e-16 Z" style="vector-effect: non-scaling-stroke;" /></g></g></g></g></g><g transform="matrix(1.0, 0.0, 0.0, 1.0, 2.000000000000001, 0.0)"><g><g style="fill: #ff9700;stroke: black;stroke-width: 0.885;" transform="matrix(1.0, 0.0, 0.0, 1.0, -0.4999999999999999, 0.43301270189221935)"><path d="M 0.0 0.0 L 1.0 0.0 L 0.5000000000000002 -0.8660254037844387 L -2.220446049250313e-16 -3.3306690738754696e-16 Z" style="vector-effect: non-scaling-stroke;" /></g><g transform="matrix(1.0, 0.0, 0.0, 1.0, 0.0, 0.8660254037844387)"><g transform="matrix(1.0, 0.0, 0.0, 1.0, -0.5000000000000002, -0.0)"><g><g style="fill: #ff9700;stroke: black;stroke-width: 0.885;" transform="matrix(1.0, 0.0, 0.0, 1.0, -0.4999999999999999, 0.43301270189221935)"><path d="M 0.0 0.0 L 1.0 0.0 L 0.5000000000000002 -0.8660254037844387 L -2.220446049250313e-16 -3.3306690738754696e-16 Z" style="vector-effect: non-scaling-stroke;" /></g><g style="fill: #ff9700;stroke: black;stroke-width: 0.885;" transform="matrix(1.0, 0.0, 0.0, 1.0, 0.5000000000000003, 0.43301270189221935)"><path d="M 0.0 0.0 L 1.0 0.0 L 0.5000000000000002 -0.8660254037844387 L -2.220446049250313e-16 -3.3306690738754696e-16 Z" style="vector-effect: non-scaling-stroke;" /></g></g></g></g></g></g></g></g></g></g></g></g></g></g></g><g transform="matrix(1.0, 0.0, 0.0, 1.0, 8.000000000000004, 0.0)"><g><g><g><g style="fill: #ff9700;stroke: black;stroke-width: 0.885;" transform="matrix(1.0, 0.0, 0.0, 1.0, -0.4999999999999999, 0.43301270189221935)"><path d="M 0.0 0.0 L 1.0 0.0 L 0.5000000000000002 -0.8660254037844387 L -2.220446049250313e-16 -3.3306690738754696e-16 Z" style="vector-effect: non-scaling-stroke;" /></g><g transform="matrix(1.0, 0.0, 0.0, 1.0, 0.0, 0.8660254037844387)"><g transform="matrix(1.0, 0.0, 0.0, 1.0, -0.5000000000000002, -0.0)"><g><g style="fill: #ff9700;stroke: black;stroke-width: 0.885;" transform="matrix(1.0, 0.0, 0.0, 1.0, -0.4999999999999999, 0.43301270189221935)"><path d="M 0.0 0.0 L 1.0 0.0 L 0.5000000000000002 -0.8660254037844387 L -2.220446049250313e-16 -3.3306690738754696e-16 Z" style="vector-effect: non-scaling-stroke;" /></g><g style="fill: #ff9700;stroke: black;stroke-width: 0.885;" transform="matrix(1.0, 0.0, 0.0, 1.0, 0.5000000000000003, 0.43301270189221935)"><path d="M 0.0 0.0 L 1.0 0.0 L 0.5000000000000002 -0.8660254037844387 L -2.220446049250313e-16 -3.3306690738754696e-16 Z" style="vector-effect: non-scaling-stroke;" /></g></g></g></g></g><g transform="matrix(1.0, 0.0, 0.0, 1.0, 0.0, 2.1650635094610964)"><g transform="matrix(1.0, 0.0, 0.0, 1.0, -1.0000000000000002, -0.4330127018922193)"><g><g><g style="fill: #ff9700;stroke: black;stroke-width: 0.885;" transform="matrix(1.0, 0.0, 0.0, 1.0, -0.4999999999999999, 0.43301270189221935)"><path d="M 0.0 0.0 L 1.0 0.0 L 0.5000000000000002 -0.8660254037844387 L -2.220446049250313e-16 -3.3306690738754696e-16 Z" style="vector-effect: non-scaling-stroke;" /></g><g transform="matrix(1.0, 0.0, 0.0, 1.0, 0.0, 0.8660254037844387)"><g transform="matrix(1.0, 0.0, 0.0, 1.0, -0.5000000000000002, -0.0)"><g><g style="fill: #ff9700;stroke: black;stroke-width: 0.885;" transform="matrix(1.0, 0.0, 0.0, 1.0, -0.4999999999999999, 0.43301270189221935)"><path d="M 0.0 0.0 L 1.0 0.0 L 0.5000000000000002 -0.8660254037844387 L -2.220446049250313e-16 -3.3306690738754696e-16 Z" style="vector-effect: non-scaling-stroke;" /></g><g style="fill: #ff9700;stroke: black;stroke-width: 0.885;" transform="matrix(1.0, 0.0, 0.0, 1.0, 0.5000000000000003, 0.43301270189221935)"><path d="M 0.0 0.0 L 1.0 0.0 L 0.5000000000000002 -0.8660254037844387 L -2.220446049250313e-16 -3.3306690738754696e-16 Z" style="vector-effect: non-scaling-stroke;" /></g></g></g></g></g><g transform="matrix(1.0, 0.0, 0.0, 1.0, 2.000000000000001, 0.0)"><g><g style="fill: #ff9700;stroke: black;stroke-width: 0.885;" transform="matrix(1.0, 0.0, 0.0, 1.0, -0.4999999999999999, 0.43301270189221935)"><path d="M 0.0 0.0 L 1.0 0.0 L 0.5000000000000002 -0.8660254037844387 L -2.220446049250313e-16 -3.3306690738754696e-16 Z" style="vector-effect: non-scaling-stroke;" /></g><g transform="matrix(1.0, 0.0, 0.0, 1.0, 0.0, 0.8660254037844387)"><g transform="matrix(1.0, 0.0, 0.0, 1.0, -0.5000000000000002, -0.0)"><g><g style="fill: #ff9700;stroke: black;stroke-width: 0.885;" transform="matrix(1.0, 0.0, 0.0, 1.0, -0.4999999999999999, 0.43301270189221935)"><path d="M 0.0 0.0 L 1.0 0.0 L 0.5000000000000002 -0.8660254037844387 L -2.220446049250313e-16 -3.3306690738754696e-16 Z" style="vector-effect: non-scaling-stroke;" /></g><g style="fill: #ff9700;stroke: black;stroke-width: 0.885;" transform="matrix(1.0, 0.0, 0.0, 1.0, 0.5000000000000003, 0.43301270189221935)"><path d="M 0.0 0.0 L 1.0 0.0 L 0.5000000000000002 -0.8660254037844387 L -2.220446049250313e-16 -3.3306690738754696e-16 Z" style="vector-effect: non-scaling-stroke;" /></g></g></g></g></g></g></g></g></g></g><g transform="matrix(1.0, 0.0, 0.0, 1.0, 0.0, 4.763139720814412)"><g transform="matrix(1.0, 0.0, 0.0, 1.0, -2.000000000000001, -1.299038105676658)"><g><g><g><g style="fill: #ff9700;stroke: black;stroke-width: 0.885;" transform="matrix(1.0, 0.0, 0.0, 1.0, -0.4999999999999999, 0.43301270189221935)"><path d="M 0.0 0.0 L 1.0 0.0 L 0.5000000000000002 -0.8660254037844387 L -2.220446049250313e-16 -3.3306690738754696e-16 Z" style="vector-effect: non-scaling-stroke;" /></g><g transform="matrix(1.0, 0.0, 0.0, 1.0, 0.0, 0.8660254037844387)"><g transform="matrix(1.0, 0.0, 0.0, 1.0, -0.5000000000000002, -0.0)"><g><g style="fill: #ff9700;stroke: black;stroke-width: 0.885;" transform="matrix(1.0, 0.0, 0.0, 1.0, -0.4999999999999999, 0.43301270189221935)"><path d="M 0.0 0.0 L 1.0 0.0 L 0.5000000000000002 -0.8660254037844387 L -2.220446049250313e-16 -3.3306690738754696e-16 Z" style="vector-effect: non-scaling-stroke;" /></g><g style="fill: #ff9700;stroke: black;stroke-width: 0.885;" transform="matrix(1.0, 0.0, 0.0, 1.0, 0.5000000000000003, 0.43301270189221935)"><path d="M 0.0 0.0 L 1.0 0.0 L 0.5000000000000002 -0.8660254037844387 L -2.220446049250313e-16 -3.3306690738754696e-16 Z" style="vector-effect: non-scaling-stroke;" /></g></g></g></g></g><g transform="matrix(1.0, 0.0, 0.0, 1.0, 0.0, 2.1650635094610964)"><g transform="matrix(1.0, 0.0, 0.0, 1.0, -1.0000000000000002, -0.4330127018922193)"><g><g><g style="fill: #ff9700;stroke: black;stroke-width: 0.885;" transform="matrix(1.0, 0.0, 0.0, 1.0, -0.4999999999999999, 0.43301270189221935)"><path d="M 0.0 0.0 L 1.0 0.0 L 0.5000000000000002 -0.8660254037844387 L -2.220446049250313e-16 -3.3306690738754696e-16 Z" style="vector-effect: non-scaling-stroke;" /></g><g transform="matrix(1.0, 0.0, 0.0, 1.0, 0.0, 0.8660254037844387)"><g transform="matrix(1.0, 0.0, 0.0, 1.0, -0.5000000000000002, -0.0)"><g><g style="fill: #ff9700;stroke: black;stroke-width: 0.885;" transform="matrix(1.0, 0.0, 0.0, 1.0, -0.4999999999999999, 0.43301270189221935)"><path d="M 0.0 0.0 L 1.0 0.0 L 0.5000000000000002 -0.8660254037844387 L -2.220446049250313e-16 -3.3306690738754696e-16 Z" style="vector-effect: non-scaling-stroke;" /></g><g style="fill: #ff9700;stroke: black;stroke-width: 0.885;" transform="matrix(1.0, 0.0, 0.0, 1.0, 0.5000000000000003, 0.43301270189221935)"><path d="M 0.0 0.0 L 1.0 0.0 L 0.5000000000000002 -0.8660254037844387 L -2.220446049250313e-16 -3.3306690738754696e-16 Z" style="vector-effect: non-scaling-stroke;" /></g></g></g></g></g><g transform="matrix(1.0, 0.0, 0.0, 1.0, 2.000000000000001, 0.0)"><g><g style="fill: #ff9700;stroke: black;stroke-width: 0.885;" transform="matrix(1.0, 0.0, 0.0, 1.0, -0.4999999999999999, 0.43301270189221935)"><path d="M 0.0 0.0 L 1.0 0.0 L 0.5000000000000002 -0.8660254037844387 L -2.220446049250313e-16 -3.3306690738754696e-16 Z" style="vector-effect: non-scaling-stroke;" /></g><g transform="matrix(1.0, 0.0, 0.0, 1.0, 0.0, 0.8660254037844387)"><g transform="matrix(1.0, 0.0, 0.0, 1.0, -0.5000000000000002, -0.0)"><g><g style="fill: #ff9700;stroke: black;stroke-width: 0.885;" transform="matrix(1.0, 0.0, 0.0, 1.0, -0.4999999999999999, 0.43301270189221935)"><path d="M 0.0 0.0 L 1.0 0.0 L 0.5000000000000002 -0.8660254037844387 L -2.220446049250313e-16 -3.3306690738754696e-16 Z" style="vector-effect: non-scaling-stroke;" /></g><g style="fill: #ff9700;stroke: black;stroke-width: 0.885;" transform="matrix(1.0, 0.0, 0.0, 1.0, 0.5000000000000003, 0.43301270189221935)"><path d="M 0.0 0.0 L 1.0 0.0 L 0.5000000000000002 -0.8660254037844387 L -2.220446049250313e-16 -3.3306690738754696e-16 Z" style="vector-effect: non-scaling-stroke;" /></g></g></g></g></g></g></g></g></g></g><g transform="matrix(1.0, 0.0, 0.0, 1.0, 4.000000000000002, 0.0)"><g><g><g style="fill: #ff9700;stroke: black;stroke-width: 0.885;" transform="matrix(1.0, 0.0, 0.0, 1.0, -0.4999999999999999, 0.43301270189221935)"><path d="M 0.0 0.0 L 1.0 0.0 L 0.5000000000000002 -0.8660254037844387 L -2.220446049250313e-16 -3.3306690738754696e-16 Z" style="vector-effect: non-scaling-stroke;" /></g><g transform="matrix(1.0, 0.0, 0.0, 1.0, 0.0, 0.8660254037844387)"><g transform="matrix(1.0, 0.0, 0.0, 1.0, -0.5000000000000002, -0.0)"><g><g style="fill: #ff9700;stroke: black;stroke-width: 0.885;" transform="matrix(1.0, 0.0, 0.0, 1.0, -0.4999999999999999, 0.43301270189221935)"><path d="M 0.0 0.0 L 1.0 0.0 L 0.5000000000000002 -0.8660254037844387 L -2.220446049250313e-16 -3.3306690738754696e-16 Z" style="vector-effect: non-scaling-stroke;" /></g><g style="fill: #ff9700;stroke: black;stroke-width: 0.885;" transform="matrix(1.0, 0.0, 0.0, 1.0, 0.5000000000000003, 0.43301270189221935)"><path d="M 0.0 0.0 L 1.0 0.0 L 0.5000000000000002 -0.8660254037844387 L -2.220446049250313e-16 -3.3306690738754696e-16 Z" style="vector-effect: non-scaling-stroke;" /></g></g></g></g></g><g transform="matrix(1.0, 0.0, 0.0, 1.0, 0.0, 2.1650635094610964)"><g transform="matrix(1.0, 0.0, 0.0, 1.0, -1.0000000000000002, -0.4330127018922193)"><g><g><g style="fill: #ff9700;stroke: black;stroke-width: 0.885;" transform="matrix(1.0, 0.0, 0.0, 1.0, -0.4999999999999999, 0.43301270189221935)"><path d="M 0.0 0.0 L 1.0 0.0 L 0.5000000000000002 -0.8660254037844387 L -2.220446049250313e-16 -3.3306690738754696e-16 Z" style="vector-effect: non-scaling-stroke;" /></g><g transform="matrix(1.0, 0.0, 0.0, 1.0, 0.0, 0.8660254037844387)"><g transform="matrix(1.0, 0.0, 0.0, 1.0, -0.5000000000000002, -0.0)"><g><g style="fill: #ff9700;stroke: black;stroke-width: 0.885;" transform="matrix(1.0, 0.0, 0.0, 1.0, -0.4999999999999999, 0.43301270189221935)"><path d="M 0.0 0.0 L 1.0 0.0 L 0.5000000000000002 -0.8660254037844387 L -2.220446049250313e-16 -3.3306690738754696e-16 Z" style="vector-effect: non-scaling-stroke;" /></g><g style="fill: #ff9700;stroke: black;stroke-width: 0.885;" transform="matrix(1.0, 0.0, 0.0, 1.0, 0.5000000000000003, 0.43301270189221935)"><path d="M 0.0 0.0 L 1.0 0.0 L 0.5000000000000002 -0.8660254037844387 L -2.220446049250313e-16 -3.3306690738754696e-16 Z" style="vector-effect: non-scaling-stroke;" /></g></g></g></g></g><g transform="matrix(1.0, 0.0, 0.0, 1.0, 2.000000000000001, 0.0)"><g><g style="fill: #ff9700;stroke: black;stroke-width: 0.885;" transform="matrix(1.0, 0.0, 0.0, 1.0, -0.4999999999999999, 0.43301270189221935)"><path d="M 0.0 0.0 L 1.0 0.0 L 0.5000000000000002 -0.8660254037844387 L -2.220446049250313e-16 -3.3306690738754696e-16 Z" style="vector-effect: non-scaling-stroke;" /></g><g transform="matrix(1.0, 0.0, 0.0, 1.0, 0.0, 0.8660254037844387)"><g transform="matrix(1.0, 0.0, 0.0, 1.0, -0.5000000000000002, -0.0)"><g><g style="fill: #ff9700;stroke: black;stroke-width: 0.885;" transform="matrix(1.0, 0.0, 0.0, 1.0, -0.4999999999999999, 0.43301270189221935)"><path d="M 0.0 0.0 L 1.0 0.0 L 0.5000000000000002 -0.8660254037844387 L -2.220446049250313e-16 -3.3306690738754696e-16 Z" style="vector-effect: non-scaling-stroke;" /></g><g style="fill: #ff9700;stroke: black;stroke-width: 0.885;" transform="matrix(1.0, 0.0, 0.0, 1.0, 0.5000000000000003, 0.43301270189221935)"><path d="M 0.0 0.0 L 1.0 0.0 L 0.5000000000000002 -0.8660254037844387 L -2.220446049250313e-16 -3.3306690738754696e-16 Z" style="vector-effect: non-scaling-stroke;" /></g></g></g></g></g></g></g></g></g></g></g></g></g></g></g></g></g></g></g></g></g><g /></g></g></g></g></svg>