<?xml version="1.0" encoding="utf-8" ?>
<svg baseProfile="full" height="256" version="1.1" width="296" xmlns="http://www.w3.org/2000/svg" xmlns:ev="http://www.w3.org/2001/xml-events" xmlns:xlink="http://www.w3.org/1999/xlink"><defs><marker id="arrow" markerHeight="3.5" markerWidth="5" orient="auto" refX="5.0" refY="1.7"><polygon points="0,0 5,1.75 0,3.5" /></marker></defs><g style="fill:white;" /><g style="fill: rgb(256.0 151.59215686274507 0.0);stroke: rgb(0.0 0.0 0.0); stroke-width: 0.1;fill-opacity: 1.0;" transform="matrix(70.38174710120728, 0.0, 0.0, 70.38174710120728, 147.8016689125394, 16.25396825396784)"><path d="M -0.12500000000000008 0.0721687836487052 L 0.12500000000000183 0.07216878364870284 L 0.0 -0.14433756729740743 L -0.12499999999999652 0.07216878364870517 Z" style="vector-effect: non-scaling-stroke;" /></g><g style="fill: rgb(256.0 151.59215686274507 0.0);stroke: rgb(0.0 0.0 0.0); stroke-width: 0.1;fill-opacity: 1.0;" transform="matrix(70.38174710120728, 0.0, 0.0, 70.38174710120728, 139.00395052488824, 31.49206349206308)"><path d="M -0.12500000000000008 0.0721687836487052 L 0.12500000000000183 0.07216878364870284 L 0.0 -0.14433756729740743 L -0.12499999999999652 0.07216878364870517 Z" style="vector-effect: non-scaling-stroke;" /></g><g style="fill: rgb(256.0 151.59215686274507 0.0);stroke: rgb(0.0 0.0 0.0); stroke-width: 0.1;fill-opacity: 1.0;" transform="matrix(70.38174710120728, 0.0, 0.0, 70.38174710120728, 156.59938730019059, 31.49206349206308)"><path d="M -0.12500000000000008 0.0721687836487052 L 0.12500000000000183 0.07216878364870284 L 0.0 -0.14433756729740743 L -0.12499999999999652 0.07216878364870517 Z" style="vector-effect: non-scaling-stroke;" /></g><g style="fill: rgb(256.0 151.59215686274507 0.0);stroke: rgb(0.0 0.0 0.0); stroke-width: 0.1;fill-opacity: 1.0;" transform="matrix(70.38174710120728, 0.0, 0.0, 70.38174710120728, 130.2062321372371, 46.73015873015832)"><path d="M -0.12500000000000008 0.0721687836487052 L 0.12500000000000183 0.07216878364870284 L 0.0 -0.14433756729740743 L -0.12499999999999652 0.07216878364870517 Z" style="vector-effect: non-scaling-stroke;" /></g><g style="fill: rgb(256.0 151.59215686274507 0.0);stroke: rgb(0.0 0.0 0.0); stroke-width: 0.1;fill-opacity: 1.0;" transform="matrix(70.38174710120728, 0.0, 0.0, 70.38174710120728, 121.40851374958594, 61.96825396825356)"><path d="M -0.12500000000000008 0.0721687836487052 L 0.12500000000000183 0.07216878364870284 L 0.0 -0.14433756729740743 L -0.12499999999999652 0.07216878364870517 Z" style="vector-effect: non-scaling-stroke;" /></g><g style="fill: rgb(256.0 151.59215686274507 0.0);stroke: rgb(0.0 0.0 0.0); stroke-width: 0.1;fill-opacity: 1.0;" transform="matrix(70.38174710120728, 0.0, 0.0, 70.38174710120728, 139.00395052488824, 61.96825396825356)"><path d="M -0.12500000000000008 0.0721687836487052 L 0.12500000000000183 0.07216878364870284 L 0.0 -0.14433756729740743 L -0.12499999999999652 0.07216878364870517 Z" style="vector-effect: non-scaling-stroke;" /></g><g style="fill: rgb(256.0 151.59215686274507 0.0);stroke: rgb(0.0 0.0 0.0); stroke-width: 0.1;fill-opacity: 1.0;" transform="matrix(70.38174710120728, 0.0, 0.0, 70.38174710120728, 165.39710568784173, 46.73015873015832)"><path d="M -0.12500000000000008 0.0721687836487052 L 0.12500000000000183 0.07216878364870284 L 0.0 -0.14433756729740743 L -0.12499999999999652 0.07216878364870517 Z" style="vector-effect: non-scaling-stroke;" /></g><g style="fill: rgb(256.0 151.59215686274507 0.0);stroke: rgb(0.0 0.0 0.0); stroke-width: 0.1;fill-opacity: 1.0;" transform="matrix(70.38174710120728, 0.0, 0.0, 70.38174710120728, 156.59938730019059, 61.96825396825356)"><path d="M -0.12500000000000008 0.0721687836487052 L 0.12500000000000183 0.07216878364870284 L 0.0 -0.14433756729740743 L -0.12499999999999652 0.07216878364870517 Z" style="vector-effect: non-scaling-stroke;" /></g><g style="fill: rgb(256.0 151.59215686274507 0.0);stroke: rgb(0.0 0.0 0.0); stroke-width: 0.1;fill-opacity: 1.0;" transform="matrix(70.38174710120728, 0.0, 0.0, 70.38174710120728, 174.1948240754929, 61.96825396825356)"><path d="M -0.12500000000000008 0.0721687836487052 L 0.12500000000000183 0.07216878364870284 L 0.0 -0.14433756729740743 L -0.12499999999999652 0.07216878364870517 Z" style="vector-effect: non-scaling-stroke;" /></g><g style="fill: rgb(256.0 151.59215686274507 0.0);stroke: rgb(0.0 0.0 0.0); stroke-width: 0.1;fill-opacity: 1.0;" transform="matrix(70.38174710120728, 0.0, 0.0, 70.38174710120728, 112.61079536193478, 77.20634920634879)"><path d="M -0.12500000000000008 0.0721687836487052 L 0.12500000000000183 0.07216878364870284 L 0.0 -0.14433756729740743 L -0.12499999999999652 0.07216878364870517 Z" style="vector-effect: non-scaling-stroke;" /></g><g style="fill: rgb(256.0 151.59215686274507 0.0);stroke: rgb(0.0 0.0 0.0); stroke-width: 0.1;fill-opacity: 1.0;" transform="matrix(70.38174710120728, 0.0, 0.0, 70.38174710120728, 103.8130769742836, 92.44444444444403)"><path d="M -0.12500000000000008 0.0721687836487052 L 0.12500000000000183 0.07216878364870284 L 0.0 -0.14433756729740743 L -0.12499999999999652 0.07216878364870517 Z" style="vector-effect: non-scaling-stroke;" /></g><g style="fill: rgb(256.0 151.59215686274507 0.0);stroke: rgb(0.0 0.0 0.0); stroke-width: 0.1;fill-opacity: 1.0;" transform="matrix(70.38174710120728, 0.0, 0.0, 70.38174710120728, 121.40851374958594, 92.44444444444403)"><path d="M -0.12500000000000008 0.0721687836487052 L 0.12500000000000183 0.07216878364870284 L 0.0 -0.14433756729740743 L -0.12499999999999652 0.07216878364870517 Z" style="vector-effect: non-scaling-stroke;" /></g><g style="fill: rgb(256.0 151.59215686274507 0.0);stroke: rgb(0.0 0.0 0.0); stroke-width: 0.1;fill-opacity: 1.0;" transform="matrix(70.38174710120728, 0.0, 0.0, 70.38174710120728, 95.01535858663246, 107.68253968253927)"><path d="M -0.12500000000000008 0.0721687836487052 L 0.12500000000000183 0.07216878364870284 L 0.0 -0.14433756729740743 L -0.12499999999999652 0.07216878364870517 Z" style="vector-effect: non-scaling-stroke;" /></g><g style="fill: rgb(256.0 151.59215686274507 0.0);stroke: rgb(0.0 0.0 0.0); stroke-width: 0.1;fill-opacity: 1.0;" transform="matrix(70.38174710120728, 0.0, 0.0, 70.38174710120728, 86.21764019898129, 122.9206349206345)"><path d="M -0.12500000000000008 0.0721687836487052 L 0.12500000000000183 0.07216878364870284 L 0.0 -0.14433756729740743 L -0.12499999999999652 0.07216878364870517 Z" style="vector-effect: non-scaling-stroke;" /></g><g style="fill: rgb(256.0 151.59215686274507 0.0);stroke: rgb(0.0 0.0 0.0); stroke-width: 0.1;fill-opacity: 1.0;" transform="matrix(70.38174710120728, 0.0, 0.0, 70.38174710120728, 103.8130769742836, 122.9206349206345)"><path d="M -0.12500000000000008 0.0721687836487052 L 0.12500000000000183 0.07216878364870284 L 0.0 -0.14433756729740743 L -0.12499999999999652 0.07216878364870517 Z" style="vector-effect: non-scaling-stroke;" /></g><g style="fill: rgb(256.0 151.59215686274507 0.0);stroke: rgb(0.0 0.0 0.0); stroke-width: 0.1;fill-opacity: 1.0;" transform="matrix(70.38174710120728, 0.0, 0.0, 70.38174710120728, 130.2062321372371, 107.68253968253927)"><path d="M -0.12500000000000008 0.0721687836487052 L 0.12500000000000183 0.07216878364870284 L 0.0 -0.14433756729740743 L -0.12499999999999652 0.07216878364870517 Z" style="vector-effect: non-scaling-stroke;" /></g><g style="fill: rgb(256.0 151.59215686274507 0.0);stroke: rgb(0.0 0.0 0.0); stroke-width: 0.1;fill-opacity: 1.0;" transform="matrix(70.38174710120728, 0.0, 0.0, 70.38174710120728, 121.40851374958594, 122.9206349206345)"><path d="M -0.12500000000000008 0.0721687836487052 L 0.12500000000000183 0.07216878364870284 L 0.0 -0.14433756729740743 L -0.12499999999999652 0.07216878364870517 Z" style="vector-effect: non-scaling-stroke;" /></g><g style="fill: rgb(256.0 151.59215686274507 0.0);stroke: rgb(0.0 0.0 0.0); stroke-width: 0.1;fill-opacity: 1.0;" transform="matrix(70.38174710120728, 0.0, 0.0, 70.38174710120728, 139.00395052488824, 122.9206349206345)"><path d="M -0.12500000000000008 0.0721687836487052 L 0.12500000000000183 0.07216878364870284 L 0.0 -0.14433756729740743 L -0.12499999999999652 0.07216878364870517 Z" style="vector-effect: non-scaling-stroke;" /></g><g style="fill: rgb(256.0 151.59215686274507 0.0);stroke: rgb(0.0 0.0 0.0); stroke-width: 0.1;fill-opacity: 1.0;" transform="matrix(70.38174710120728, 0.0, 0.0, 70.38174710120728, 182.99254246314405, 77.20634920634879)"><path d="M -0.12500000000000008 0.0721687836487052 L 0.12500000000000183 0.07216878364870284 L 0.0 -0.14433756729740743 L -0.12499999999999652 0.07216878364870517 Z" style="vector-effect: non-scaling-stroke;" /></g><g style="fill: rgb(256.0 151.59215686274507 0.0);stroke: rgb(0.0 0.0 0.0); stroke-width: 0.1;fill-opacity: 1.0;" transform="matrix(70.38174710120728, 0.0, 0.0, 70.38174710120728, 174.1948240754929, 92.44444444444403)"><path d="M -0.12500000000000008 0.0721687836487052 L 0.12500000000000183 0.07216878364870284 L 0.0 -0.14433756729740743 L -0.12499999999999652 0.07216878364870517 Z" style="vector-effect: non-scaling-stroke;" /></g><g style="fill: rgb(256.0 151.59215686274507 0.0);stroke: rgb(0.0 0.0 0.0); stroke-width: 0.1;fill-opacity: 1.0;" transform="matrix(70.38174710120728, 0.0, 0.0, 70.38174710120728, 191.79026085079522, 92.44444444444403)"><path d="M -0.12500000000000008 0.0721687836487052 L 0.12500000000000183 0.07216878364870284 L 0.0 -0.14433756729740743 L -0.12499999999999652 0.07216878364870517 Z" style="vector-effect: non-scaling-stroke;" /></g><g style="fill: rgb(256.0 151.59215686274507 0.0);stroke: rgb(0.0 0.0 0.0); stroke-width: 0.1;fill-opacity: 1.0;" transform="matrix(70.38174710120728, 0.0, 0.0, 70.38174710120728, 165.39710568784173, 107.68253968253927)"><path d="M -0.12500000000000008 0.0721687836487052 L 0.12500000000000183 0.07216878364870284 L 0.0 -0.14433756729740743 L -0.12499999999999652 0.07216878364870517 Z" style="vector-effect: non-scaling-stroke;" /></g><g style="fill: rgb(256.0 151.59215686274507 0.0);stroke: rgb(0.0 0.0 0.0); stroke-width: 0.1;fill-opacity: 1.0;" transform="matrix(70.38174710120728, 0.0, 0.0, 70.38174710120728, 156.59938730019059, 122.9206349206345)"><path d="M -0.12500000000000008 0.0721687836487052 L 0.12500000000000183 0.07216878364870284 L 0.0 -0.14433756729740743 L -0.12499999999999652 0.07216878364870517 Z" style="vector-effect: non-scaling-stroke;" /></g><g style="fill: rgb(256.0 151.59215686274507 0.0);stroke: rgb(0.0 0.0 0.0); stroke-width: 0.1;fill-opacity: 1.0;" transform="matrix(70.38174710120728, 0.0, 0.0, 70.38174710120728, 174.1948240754929, 122.9206349206345)"><path d="M -0.12500000000000008 0.0721687836487052 L 0.12500000000000183 0.07216878364870284 L 0.0 -0.14433756729740743 L -0.12499999999999652 0.07216878364870517 Z" style="vector-effect: non-scaling-stroke;" /></g><g style="fill: rgb(256.0 151.59215686274507 0.0);stroke: rgb(0.0 0.0 0.0); stroke-width: 0.1;fill-opacity: 1.0;" transform="matrix(70.38174710120728, 0.0, 0.0, 70.38174710120728, 200.58797923844637, 107.68253968253927)"><path d="M -0.12500000000000008 0.0721687836487052 L 0.12500000000000183 0.07216878364870284 L 0.0 -0.14433756729740743 L -0.12499999999999652 0.07216878364870517 Z" style="vector-effect: non-scaling-stroke;" /></g><g style="fill: rgb(256.0 151.59215686274507 0.0);stroke: rgb(0.0 0.0 0.0); stroke-width: 0.1;fill-opacity: 1.0;" transform="matrix(70.38174710120728, 0.0, 0.0, 70.38174710120728, 191.79026085079522, 122.9206349206345)"><path d="M -0.12500000000000008 0.0721687836487052 L 0.12500000000000183 0.07216878364870284 L 0.0 -0.14433756729740743 L -0.12499999999999652 0.07216878364870517 Z" style="vector-effect: non-scaling-stroke;" /></g><g style="fill: rgb(256.0 151.59215686274507 0.0);stroke: rgb(0.0 0.0 0.0); stroke-width: 0.1;fill-opacity: 1.0;" transform="matrix(70.38174710120728, 0.0, 0.0, 70.38174710120728, 209.38569762609754, 122.9206349206345)"><path d="M -0.12500000000000008 0.0721687836487052 L 0.12500000000000183 0.07216878364870284 L 0.0 -0.14433756729740743 L -0.12499999999999652 0.07216878364870517 Z" style="vector-effect: non-scaling-stroke;" /></g><g style="fill: rgb(256.0 151.59215686274507 0.0);stroke: rgb(0.0 0.0 0.0); stroke-width: 0.1;fill-opacity: 1.0;" transform="matrix(70.38174710120728, 0.0, 0.0, 70.38174710120728, 77.41992181133013, 138.15873015872972)"><path d="M -0.12500000000000008 0.0721687836487052 L 0.12500000000000183 0.07216878364870284 L 0.0 -0.14433756729740743 L -0.12499999999999652 0.07216878364870517 Z" style="vector-effect: non-scaling-stroke;" /></g><g style="fill: rgb(256.0 151.59215686274507 0.0);stroke: rgb(0.0 0.0 0.0); stroke-width: 0.1;fill-opacity: 1.0;" transform="matrix(70.38174710120728, 0.0, 0.0, 70.38174710120728, 68.62220342367897, 153.39682539682497)"><path d="M -0.12500000000000008 0.0721687836487052 L 0.12500000000000183 0.07216878364870284 L 0.0 -0.14433756729740743 L -0.12499999999999652 0.07216878364870517 Z" style="vector-effect: non-scaling-stroke;" /></g><g style="fill: rgb(256.0 151.59215686274507 0.0);stroke: rgb(0.0 0.0 0.0); stroke-width: 0.1;fill-opacity: 1.0;" transform="matrix(70.38174710120728, 0.0, 0.0, 70.38174710120728, 86.21764019898129, 153.39682539682497)"><path d="M -0.12500000000000008 0.0721687836487052 L 0.12500000000000183 0.07216878364870284 L 0.0 -0.14433756729740743 L -0.12499999999999652 0.07216878364870517 Z" style="vector-effect: non-scaling-stroke;" /></g><g style="fill: rgb(256.0 151.59215686274507 0.0);stroke: rgb(0.0 0.0 0.0); stroke-width: 0.1;fill-opacity: 1.0;" transform="matrix(70.38174710120728, 0.0, 0.0, 70.38174710120728, 59.82448503602781, 168.6349206349202)"><path d="M -0.12500000000000008 0.0721687836487052 L 0.12500000000000183 0.07216878364870284 L 0.0 -0.14433756729740743 L -0.12499999999999652 0.07216878364870517 Z" style="vector-effect: non-scaling-stroke;" /></g><g style="fill: rgb(256.0 151.59215686274507 0.0);stroke: rgb(0.0 0.0 0.0); stroke-width: 0.1;fill-opacity: 1.0;" transform="matrix(70.38174710120728, 0.0, 0.0, 70.38174710120728, 51.02676664837665, 183.87301587301545)"><path d="M -0.12500000000000008 0.0721687836487052 L 0.12500000000000183 0.07216878364870284 L 0.0 -0.14433756729740743 L -0.12499999999999652 0.07216878364870517 Z" style="vector-effect: non-scaling-stroke;" /></g><g style="fill: rgb(256.0 151.59215686274507 0.0);stroke: rgb(0.0 0.0 0.0); stroke-width: 0.1;fill-opacity: 1.0;" transform="matrix(70.38174710120728, 0.0, 0.0, 70.38174710120728, 68.62220342367897, 183.87301587301545)"><path d="M -0.12500000000000008 0.0721687836487052 L 0.12500000000000183 0.07216878364870284 L 0.0 -0.14433756729740743 L -0.12499999999999652 0.07216878364870517 Z" style="vector-effect: non-scaling-stroke;" /></g><g style="fill: rgb(256.0 151.59215686274507 0.0);stroke: rgb(0.0 0.0 0.0); stroke-width: 0.1;fill-opacity: 1.0;" transform="matrix(70.38174710120728, 0.0, 0.0, 70.38174710120728, 95.01535858663246, 168.6349206349202)"><path d="M -0.12500000000000008 0.0721687836487052 L 0.12500000000000183 0.07216878364870284 L 0.0 -0.14433756729740743 L -0.12499999999999652 0.07216878364870517 Z" style="vector-effect: non-scaling-stroke;" /></g><g style="fill: rgb(256.0 151.59215686274507 0.0);stroke: rgb(0.0 0.0 0.0); stroke-width: 0.1;fill-opacity: 1.0;" transform="matrix(70.38174710120728, 0.0, 0.0, 70.38174710120728, 86.21764019898129, 183.87301587301545)"><path d="M -0.12500000000000008 0.0721687836487052 L 0.12500000000000183 0.07216878364870284 L 0.0 -0.14433756729740743 L -0.12499999999999652 0.07216878364870517 Z" style="vector-effect: non-scaling-stroke;" /></g><g style="fill: rgb(256.0 151.59215686274507 0.0);stroke: rgb(0.0 0.0 0.0); stroke-width: 0.1;fill-opacity: 1.0;" transform="matrix(70.38174710120728, 0.0, 0.0, 70.38174710120728, 103.8130769742836, 183.87301587301545)"><path d="M -0.12500000000000008 0.0721687836487052 L 0.12500000000000183 0.07216878364870284 L 0.0 -0.14433756729740743 L -0.12499999999999652 0.07216878364870517 Z" style="vector-effect: non-scaling-stroke;" /></g><g style="fill: rgb(256.0 151.59215686274507 0.0);stroke: rgb(0.0 0.0 0.0); stroke-width: 0.1;fill-opacity: 1.0;" transform="matrix(70.38174710120728, 0.0, 0.0, 70.38174710120728, 42.22904826072549, 199.1111111111107)"><path d="M -0.12500000000000008 0.0721687836487052 L 0.12500000000000183 0.07216878364870284 L 0.0 -0.14433756729740743 L -0.12499999999999652 0.07216878364870517 Z" style="vector-effect: non-scaling-stroke;" /></g><g style="fill: rgb(256.0 151.59215686274507 0.0);stroke: rgb(0.0 0.0 0.0); stroke-width: 0.1;fill-opacity: 1.0;" transform="matrix(70.38174710120728, 0.0, 0.0, 70.38174710120728, 33.43132987307433, 214.34920634920593)"><path d="M -0.12500000000000008 0.0721687836487052 L 0.12500000000000183 0.07216878364870284 L 0.0 -0.14433756729740743 L -0.12499999999999652 0.07216878364870517 Z" style="vector-effect: non-scaling-stroke;" /></g><g style="fill: rgb(256.0 151.59215686274507 0.0);stroke: rgb(0.0 0.0 0.0); stroke-width: 0.1;fill-opacity: 1.0;" transform="matrix(70.38174710120728, 0.0, 0.0, 70.38174710120728, 51.02676664837665, 214.34920634920593)"><path d="M -0.12500000000000008 0.0721687836487052 L 0.12500000000000183 0.07216878364870284 L 0.0 -0.14433756729740743 L -0.12499999999999652 0.07216878364870517 Z" style="vector-effect: non-scaling-stroke;" /></g><g style="fill: rgb(256.0 151.59215686274507 0.0);stroke: rgb(0.0 0.0 0.0); stroke-width: 0.1;fill-opacity: 1.0;" transform="matrix(70.38174710120728, 0.0, 0.0, 70.38174710120728, 24.633611485423174, 229.58730158730117)"><path d="M -0.12500000000000008 0.0721687836487052 L 0.12500000000000183 0.07216878364870284 L 0.0 -0.14433756729740743 L -0.12499999999999652 0.07216878364870517 Z" style="vector-effect: non-scaling-stroke;" /></g><g style="fill: rgb(256.0 151.59215686274507 0.0);stroke: rgb(0.0 0.0 0.0); stroke-width: 0.1;fill-opacity: 1.0;" transform="matrix(70.38174710120728, 0.0, 0.0, 70.38174710120728, 15.835893097772015, 244.8253968253964)"><path d="M -0.12500000000000008 0.0721687836487052 L 0.12500000000000183 0.07216878364870284 L 0.0 -0.14433756729740743 L -0.12499999999999652 0.07216878364870517 Z" style="vector-effect: non-scaling-stroke;" /></g><g style="fill: rgb(256.0 151.59215686274507 0.0);stroke: rgb(0.0 0.0 0.0); stroke-width: 0.1;fill-opacity: 1.0;" transform="matrix(70.38174710120728, 0.0, 0.0, 70.38174710120728, 33.43132987307433, 244.8253968253964)"><path d="M -0.12500000000000008 0.0721687836487052 L 0.12500000000000183 0.07216878364870284 L 0.0 -0.14433756729740743 L -0.12499999999999652 0.07216878364870517 Z" style="vector-effect: non-scaling-stroke;" /></g><g style="fill: rgb(256.0 151.59215686274507 0.0);stroke: rgb(0.0 0.0 0.0); stroke-width: 0.1;fill-opacity: 1.0;" transform="matrix(70.38174710120728, 0.0, 0.0, 70.38174710120728, 59.82448503602781, 229.58730158730117)"><path d="M -0.12500000000000008 0.0721687836487052 L 0.12500000000000183 0.07216878364870284 L 0.0 -0.14433756729740743 L -0.12499999999999652 0.07216878364870517 Z" style="vector-effect: non-scaling-stroke;" /></g><g style="fill: rgb(256.0 151.59215686274507 0.0);stroke: rgb(0.0 0.0 0.0); stroke-width: 0.1;fill-opacity: 1.0;" transform="matrix(70.38174710120728, 0.0, 0.0, 70.38174710120728, 51.02676664837665, 244.8253968253964)"><path d="M -0.12500000000000008 0.0721687836487052 L 0.12500000000000183 0.07216878364870284 L 0.0 -0.14433756729740743 L -0.12499999999999652 0.07216878364870517 Z" style="vector-effect: non-scaling-stroke;" /></g><g style="fill: rgb(256.0 151.59215686274507 0.0);stroke: rgb(0.0 0.0 0.0); stroke-width: 0.1;fill-opacity: 1.0;" transform="matrix(70.38174710120728, 0.0, 0.0, 70.38174710120728, 68.62220342367897, 244.8253968253964)"><path d="M -0.12500000000000008 0.0721687836487052 L 0.12500000000000183 0.07216878364870284 L 0.0 -0.14433756729740743 L -0.12499999999999652 0.07216878364870517 Z" style="vector-effect: non-scaling-stroke;" /></g><g style="fill: rgb(256.0 151.59215686274507 0.0);stroke: rgb(0.0 0.0 0.0); stroke-width: 0.1;fill-opacity: 1.0;" transform="matrix(70.38174710120728, 0.0, 0.0, 70.38174710120728, 112.61079536193478, 199.1111111111107)"><path d="M -0.12500000000000008 0.0721687836487052 L 0.12500000000000183 0.07216878364870284 L 0.0 -0.14433756729740743 L -0.12499999999999652 0.07216878364870517 Z" style="vector-effect: non-scaling-stroke;" /></g><g style="fill: rgb(256.0 151.59215686274507 0.0);stroke: rgb(0.0 0.0 0.0); stroke-width: 0.1;fill-opacity: 1.0;" transform="matrix(70.38174710120728, 0.0, 0.0, 70.38174710120728, 103.8130769742836, 214.34920634920593)"><path d="M -0.12500000000000008 0.0721687836487052 L 0.12500000000000183 0.07216878364870284 L 0.0 -0.14433756729740743 L -0.12499999999999652 0.07216878364870517 Z" style="vector-effect: non-scaling-stroke;" /></g><g style="fill: rgb(256.0 151.59215686274507 0.0);stroke: rgb(0.0 0.0 0.0); stroke-width: 0.1;fill-opacity: 1.0;" transform="matrix(70.38174710120728, 0.0, 0.0, 70.38174710120728, 121.40851374958594, 214.34920634920593)"><path d="M -0.12500000000000008 0.0721687836487052 L 0.12500000000000183 0.07216878364870284 L 0.0 -0.14433756729740743 L -0.12499999999999652 0.07216878364870517 Z" style="vector-effect: non-scaling-stroke;" /></g><g style="fill: rgb(256.0 151.59215686274507 0.0);stroke: rgb(0.0 0.0 0.0); stroke-width: 0.1;fill-opacity: 1.0;" transform="matrix(70.38174710120728, 0.0, 0.0, 70.38174710120728, 95.01535858663246, 229.58730158730117)"><path d="M -0.12500000000000008 0.0721687836487052 L 0.12500000000000183 0.07216878364870284 L 0.0 -0.14433756729740743 L -0.12499999999999652 0.07216878364870517 Z" style="vector-effect: non-scaling-stroke;" /></g><g style="fill: rgb(256.0 151.59215686274507 0.0);stroke: rgb(0.0 0.0 0.0); stroke-width: 0.1;fill-opacity: 1.0;" transform="matrix(70.38174710120728, 0.0, 0.0, 70.38174710120728, 86.21764019898129, 244.8253968253964)"><path d="M -0.12500000000000008 0.0721687836487052 L 0.12500000000000183 0.07216878364870284 L 0.0 -0.14433756729740743 L -0.12499999999999652 0.07216878364870517 Z" style="vector-effect: non-scaling-stroke;" /></g><g style="fill: rgb(256.0 151.59215686274507 0.0);stroke: rgb(0.0 0.0 0.0); stroke-width: 0.1;fill-opacity: 1.0;" transform="matrix(70.38174710120728, 0.0, 0.0, 70.38174710120728, 103.8130769742836, 244.8253968253964)"><path d="M -0.12500000000000008 0.0721687836487052 L 0.12500000000000183 0.07216878364870284 L 0.0 -0.14433756729740743 L -0.12499999999999652 0.07216878364870517 Z" style="vector-effect: non-scaling-stroke;" /></g><g style="fill: rgb(256.0 151.59215686274507 0.0);stroke: rgb(0.0 0.0 0.0); stroke-width: 0.1;fill-opacity: 1.0;" transform="matrix(70.38174710120728, 0.0, 0.0, 70.38174710120728, 130.2062321372371, 229.58730158730117)"><path d="M -0.12500000000000008 0.0721687836487052 L 0.12500000000000183 0.07216878364870284 L 0.0 -0.14433756729740743 L -0.12499999999999652 0.07216878364870517 Z" style="vector-effect: non-scaling-stroke;" /></g><g style="fill: rgb(256.0 151.59215686274507 0.0);stroke: rgb(0.0 0.0 0.0); stroke-width: 0.1;fill-opacity: 1.0;" transform="matrix(70.38174710120728, 0.0, 0.0, 70.38174710120728, 121.40851374958594, 244.8253968253964)"><path d="M -0.12500000000000008 0.0721687836487052 L 0.12500000000000183 0.07216878364870284 L 0.0 -0.14433756729740743 L -0.12499999999999652 0.07216878364870517 Z" style="vector-effect: non-scaling-stroke;" /></g><g style="fill: rgb(256.0 151.59215686274507 0.0);stroke: rgb(0.0 0.0 0.0); stroke-width: 0.1;fill-opacity: 1.0;" transform="matrix(70.38174710120728, 0.0, 0.0, 70.38174710120728, 139.00395052488824, 244.8253968253964)"><path d="M -0.12500000000000008 0.0721687836487052 L 0.12500000000000183 0.07216878364870284 L 0.0 -0.14433756729740743 L -0.12499999999999652 0.07216878364870517 Z" style="vector-effect: non-scaling-stroke;" /></g><g style="fill: rgb(256.0 151.59215686274507 0.0);stroke: rgb(0.0 0.0 0.0); stroke-width: 0.1;fill-opacity: 1.0;" transform="matrix(70.38174710120728, 0.0, 0.0, 70.38174710120728, 218.18341601374868, 138.15873015872972)"><path d="M -0.12500000000000008 0.0721687836487052 L 0.12500000000000183 0.07216878364870284 L 0.0 -0.14433756729740743 L -0.12499999999999652 0.07216878364870517 Z" style="vector-effect: non-scaling-stroke;" /></g><g style="fill: rgb(256.0 151.59215686274507 0.0);stroke: rgb(0.0 0.0 0.0); stroke-width: 0.1;fill-opacity: 1.0;" transform="matrix(70.38174710120728, 0.0, 0.0, 70.38174710120728, 209.38569762609754, 153.39682539682497)"><path d="M -0.12500000000000008 0.0721687836487052 L 0.12500000000000183 0.07216878364870284 L 0.0 -0.14433756729740743 L -0.12499999999999652 0.07216878364870517 Z" style="vector-effect: non-scaling-stroke;" /></g><g style="fill: rgb(256.0 151.59215686274507 0.0);stroke: rgb(0.0 0.0 0.0); stroke-width: 0.1;fill-opacity: 1.0;" transform="matrix(70.38174710120728, 0.0, 0.0, 70.38174710120728, 226.98113440139986, 153.39682539682497)"><path d="M -0.12500000000000008 0.0721687836487052 L 0.12500000000000183 0.07216878364870284 L 0.0 -0.14433756729740743 L -0.12499999999999652 0.07216878364870517 Z" style="vector-effect: non-scaling-stroke;" /></g><g style="fill: rgb(256.0 151.59215686274507 0.0);stroke: rgb(0.0 0.0 0.0); stroke-width: 0.1;fill-opacity: 1.0;" transform="matrix(70.38174710120728, 0.0, 0.0, 70.38174710120728, 200.58797923844637, 168.6349206349202)"><path d="M -0.12500000000000008 0.0721687836487052 L 0.12500000000000183 0.07216878364870284 L 0.0 -0.14433756729740743 L -0.12499999999999652 0.07216878364870517 Z" style="vector-effect: non-scaling-stroke;" /></g><g style="fill: rgb(256.0 151.59215686274507 0.0);stroke: rgb(0.0 0.0 0.0); stroke-width: 0.1;fill-opacity: 1.0;" transform="matrix(70.38174710120728, 0.0, 0.0, 70.38174710120728, 191.79026085079522, 183.87301587301545)"><path d="M -0.12500000000000008 0.0721687836487052 L 0.12500000000000183 0.07216878364870284 L 0.0 -0.14433756729740743 L -0.12499999999999652 0.07216878364870517 Z" style="vector-effect: non-scaling-stroke;" /></g><g style="fill: rgb(256.0 151.59215686274507 0.0);stroke: rgb(0.0 0.0 0.0); stroke-width: 0.1;fill-opacity: 1.0;" transform="matrix(70.38174710120728, 0.0, 0.0, 70.38174710120728, 209.38569762609754, 183.87301587301545)"><path d="M -0.12500000000000008 0.0721687836487052 L 0.12500000000000183 0.07216878364870284 L 0.0 -0.14433756729740743 L -0.12499999999999652 0.07216878364870517 Z" style="vector-effect: non-scaling-stroke;" /></g><g style="fill: rgb(256.0 151.59215686274507 0.0);stroke: rgb(0.0 0.0 0.0); stroke-width: 0.1;fill-opacity: 1.0;" transform="matrix(70.38174710120728, 0.0, 0.0, 70.38174710120728, 235.77885278905103, 168.6349206349202)"><path d="M -0.12500000000000008 0.0721687836487052 L 0.12500000000000183 0.07216878364870284 L 0.0 -0.14433756729740743 L -0.12499999999999652 0.07216878364870517 Z" style="vector-effect: non-scaling-stroke;" /></g><g style="fill: rgb(256.0 151.59215686274507 0.0);stroke: rgb(0.0 0.0 0.0); stroke-width: 0.1;fill-opacity: 1.0;" transform="matrix(70.38174710120728, 0.0, 0.0, 70.38174710120728, 226.98113440139986, 183.87301587301545)"><path d="M -0.12500000000000008 0.0721687836487052 L 0.12500000000000183 0.07216878364870284 L 0.0 -0.14433756729740743 L -0.12499999999999652 0.07216878364870517 Z" style="vector-effect: non-scaling-stroke;" /></g><g style="fill: rgb(256.0 151.59215686274507 0.0);stroke: rgb(0.0 0.0 0.0); stroke-width: 0.1;fill-opacity: 1.0;" transform="matrix(70.38174710120728, 0.0, 0.0, 70.38174710120728, 244.57657117670217, 183.87301587301545)"><path d="M -0.12500000000000008 0.0721687836487052 L 0.12500000000000183 0.07216878364870284 L 0.0 -0.14433756729740743 L -0.12499999999999652 0.07216878364870517 Z" style="vector-effect: non-scaling-stroke;" /></g><g style="fill: rgb(256.0 151.59215686274507 0.0);stroke: rgb(0.0 0.0 0.0); stroke-width: 0.1;fill-opacity: 1.0;" transform="matrix(70.38174710120728, 0.0, 0.0, 70.38174710120728, 182.99254246314405, 199.1111111111107)"><path d="M -0.12500000000000008 0.0721687836487052 L 0.12500000000000183 0.07216878364870284 L 0.0 -0.14433756729740743 L -0.12499999999999652 0.07216878364870517 Z" style="vector-effect: non-scaling-stroke;" /></g><g style="fill: rgb(256.0 151.59215686274507 0.0);stroke: rgb(0.0 0.0 0.0); stroke-width: 0.1;fill-opacity: 1.0;" transform="matrix(70.38174710120728, 0.0, 0.0, 70.38174710120728, 174.1948240754929, 214.34920634920593)"><path d="M -0.12500000000000008 0.0721687836487052 L 0.12500000000000183 0.07216878364870284 L 0.0 -0.14433756729740743 L -0.12499999999999652 0.07216878364870517 Z" style="vector-effect: non-scaling-stroke;" /></g><g style="fill: rgb(256.0 151.59215686274507 0.0);stroke: rgb(0.0 0.0 0.0); stroke-width: 0.1;fill-opacity: 1.0;" transform="matrix(70.38174710120728, 0.0, 0.0, 70.38174710120728, 191.79026085079522, 214.34920634920593)"><path d="M -0.12500000000000008 0.0721687836487052 L 0.12500000000000183 0.07216878364870284 L 0.0 -0.14433756729740743 L -0.12499999999999652 0.07216878364870517 Z" style="vector-effect: non-scaling-stroke;" /></g><g style="fill: rgb(256.0 151.59215686274507 0.0);stroke: rgb(0.0 0.0 0.0); stroke-width: 0.1;fill-opacity: 1.0;" transform="matrix(70.38174710120728, 0.0, 0.0, 70.38174710120728, 165.39710568784173, 229.58730158730117)"><path d="M -0.12500000000000008 0.0721687836487052 L 0.12500000000000183 0.07216878364870284 L 0.0 -0.14433756729740743 L -0.12499999999999652 0.07216878364870517 Z" style="vector-effect: non-scaling-stroke;" /></g><g style="fill: rgb(256.0 151.59215686274507 0.0);stroke: rgb(0.0 0.0 0.0); stroke-width: 0.1;fill-opacity: 1.0;" transform="matrix(70.38174710120728, 0.0, 0.0, 70.38174710120728, 156.59938730019059, 244.8253968253964)"><path d="M -0.12500000000000008 0.0721687836487052 L 0.12500000000000183 0.07216878364870284 L 0.0 -0.14433756729740743 L -0.12499999999999652 0.07216878364870517 Z" style="vector-effect: non-scaling-stroke;" /></g><g style="fill: rgb(256.0 151.59215686274507 0.0);stroke: rgb(0.0 0.0 0.0); stroke-width: 0.1;fill-opacity: 1.0;" transform="matrix(70.38174710120728, 0.0, 0.0, 70.38174710120728, 174.1948240754929, 244.8253968253964)"><path d="M -0.12500000000000008 0.0721687836487052 L 0.12500000000000183 0.07216878364870284 L 0.0 -0.14433756729740743 L -0.12499999999999652 0.07216878364870517 Z" style="vector-effect: non-scaling-stroke;" /></g><g style="fill: rgb(256.0 151.59215686274507 0.0);stroke: rgb(0.0 0.0 0.0); stroke-width: 0.1;fill-opacity: 1.0;" transform="matrix(70.38174710120728, 0.0, 0.0, 70.38174710120728, 200.58797923844637, 229.58730158730117)"><path d="M -0.12500000000000008 0.0721687836487052 L 0.12500000000000183 0.07216878364870284 L 0.0 -0.14433756729740743 L -0.12499999999999652 0.07216878364870517 Z" style="vector-effect: non-scaling-stroke;" /></g><g style="fill: rgb(256.0 151.59215686274507 0.0);stroke: rgb(0.0 0.0 0.0); stroke-width: 0.1;fill-opacity: 1.0;" transform="matrix(70.38174710120728, 0.0, 0.0, 70.38174710120728, 191.79026085079522, 244.8253968253964)"><path d="M -0.12500000000000008 0.0721687836487052 L 0.12500000000000183 0.07216878364870284 L 0.0 -0.14433756729740743 L -0.12499999999999652 0.07216878364870517 Z" style="vector-effect: non-scaling-stroke;" /></g><g style="fill: rgb(256.0 151.59215686274507 0.0);stroke: rgb(0.0 0.0 0.0); stroke-width: 0.1;fill-opacity: 1.0;" transform="matrix(70.38174710120728, 0.0, 0.0, 70.38174710120728, 209.38569762609754, 244.8253968253964)"><path d="M -0.12500000000000008 0.0721687836487052 L 0.12500000000000183 0.07216878364870284 L 0.0 -0.14433756729740743 L -0.12499999999999652 0.07216878364870517 Z" style="vector-effect: non-scaling-stroke;" /></g><g style="fill: rgb(256.0 151.59215686274507 0.0);stroke: rgb(0.0 0.0 0.0); stroke-width: 0.1;fill-opacity: 1.0;" transform="matrix(70.38174710120728, 0.0, 0.0, 70.38174710120728, 253.37428956435332, 199.1111111111107)"><path d="M -0.12500000000000008 0.0721687836487052 L 0.12500000000000183 0.07216878364870284 L 0.0 -0.14433756729740743 L -0.12499999999999652 0.07216878364870517 Z" style="vector-effect: non-scaling-stroke;" /></g><g style="fill: rgb(256.0 151.59215686274507 0.0);stroke: rgb(0.0 0.0 0.0); stroke-width: 0.1;fill-opacity: 1.0;" transform="matrix(70.38174710120728, 0.0, 0.0, 70.38174710120728, 244.57657117670217, 214.34920634920593)"><path d="M -0.12500000000000008 0.0721687836487052 L 0.12500000000000183 0.07216878364870284 L 0.0 -0.14433756729740743 L -0.12499999999999652 0.07216878364870517 Z" style="vector-effect: non-scaling-stroke;" /></g><g style="fill: rgb(256.0 151.59215686274507 0.0);stroke: rgb(0.0 0.0 0.0); stroke-width: 0.1;fill-opacity: 1.0;" transform="matrix(70.38174710120728, 0.0, 0.0, 70.38174710120728, 262.1720079520045, 214.34920634920593)"><path d="M -0.12500000000000008 0.0721687836487052 L 0.12500000000000183 0.07216878364870284 L 0.0 -0.14433756729740743 L -0.12499999999999652 0.07216878364870517 Z" style="vector-effect: non-scaling-stroke;" /></g><g style="fill: rgb(256.0 151.59215686274507 0.0);stroke: rgb(0.0 0.0 0.0); stroke-width: 0.1;fill-opacity: 1.0;" transform="matrix(70.38174710120728, 0.0, 0.0, 70.38174710120728, 235.77885278905103, 229.58730158730117)"><path d="M -0.12500000000000008 0.0721687836487052 L 0.12500000000000183 0.07216878364870284 L 0.0 -0.14433756729740743 L -0.12499999999999652 0.07216878364870517 Z" style="vector-effect: non-scaling-stroke;" /></g><g style="fill: rgb(256.0 151.59215686274507 0.0);stroke: rgb(0.0 0.0 0.0); stroke-width: 0.1;fill-opacity: 1.0;" transform="matrix(70.38174710120728, 0.0, 0.0, 70.38174710120728, 226.98113440139986, 244.8253968253964)"><path d="M -0.12500000000000008 0.0721687836487052 L 0.12500000000000183 0.07216878364870284 L 0.0 -0.14433756729740743 L -0.12499999999999652 0.07216878364870517 Z" style="vector-effect: non-scaling-stroke;" /></g><g style="fill: rgb(256.0 151.59215686274507 0.0);stroke: rgb(0.0 0.0 0.0); stroke-width: 0.1;fill-opacity: 1.0;" transform="matrix(70.38174710120728, 0.0, 0.0, 70.38174710120728, 244.57657117670217, 244.8253968253964)"><path d="M -0.12500000000000008 0.0721687836487052 L 0.12500000000000183 0.07216878364870284 L 0.0 -0.14433756729740743 L -0.12499999999999652 0.07216878364870517 Z" style="vector-effect: non-scaling-stroke;" /></g><g style="fill: rgb(256.0 151.59215686274507 0.0);stroke: rgb(0.0 0.0 0.0); stroke-width: 0.1;fill-opacity: 1.0;" transform="matrix(70.38174710120728, 0.0, 0.0, 70.38174710120728, 270.96972633965567, 229.58730158730117)"><path d="M -0.12500000000000008 0.0721687836487052 L 0.12500000000000183 0.07216878364870284 L 0.0 -0.14433756729740743 L -0.12499999999999652 0.07216878364870517 Z" style="vector-effect: non-scaling-stroke;" /></g><g style="fill: rgb(256.0 151.59215686274507 0.0);stroke: rgb(0.0 0.0 0.0); stroke-width: 0.1;fill-opacity: 1.0;" transform="matrix(70.38174710120728, 0.0, 0.0, 70.38174710120728, 262.1720079520045, 244.8253968253964)"><path d="M -0.12500000000000008 0.0721687836487052 L 0.12500000000000183 0.07216878364870284 L 0.0 -0.14433756729740743 L -0.12499999999999652 0.07216878364870517 Z" style="vector-effect: non-scaling-stroke;" /></g><g style="fill: rgb(256.0 151.59215686274507 0.0);stroke: rgb(0.0 0.0 0.0); stroke-width: 0.1;fill-opacity: 1.0;" transform="matrix(70.38174710120728, 0.0, 0.0, 70.38174710120728, 279.76744472730684, 244.8253968253964)"><path d="M -0.12500000000000008 0.0721687836487052 L 0.12500000000000183 0.07216878364870284 L 0.0 -0.14433756729740743 L -0.12499999999999652 0.07216878364870517 Z" style="vector-effect: non-scaling-stroke;" /></g></svg>