<?xml version="1.0" encoding="utf-8" ?>
<svg baseProfile="full" height="64" version="1.1" width="191" xmlns="http://www.w3.org/2000/svg" xmlns:ev="http://www.w3.org/2001/xml-events" xmlns:xlink="http://www.w3.org/1999/xlink"><defs><marker id="arrow" markerHeight="3.5" markerWidth="5" orient="auto" refX="5.0" refY="1.7"><polygon points="0,0 5,1.75 0,3.5" /></marker></defs><g style="fill:white;"><g transform="matrix(60.95238494873047, 0.0, 0.0, 60.95238494873047, 6.0952361333938825, 30.476192474365234)"><g><g style="fill: #005fdb;stroke: black;stroke-width: 0.573;" transform="matrix(0.1, 0.0, 0.0, 0.1, 0.09999999999999999, -1.1102230246251566e-17)"><path d="M 0.0 0.0 A 1.0 1.0 0.0 0 0 -0.9999999999999999 -1.0 A 1.0 1.0 -90.0 0 0 -2.0 -1.2246467991473532e-16 A 1.0 1.0 -180.0 0 0 -1.0000000000000002 1.0000000000000002 A 1.0 1.0 90.00000000000001 0 0 2.220446049250313e-16 2.4492935982947064e-16 Z" style="vector-effect: non-scaling-stroke;" /></g><g transform="matrix(1.0, 0.0, 0.0, 1.0, 0.30000001192092896, 0.0)"><g><g><g style="fill: #005fdb;stroke: black;stroke-width: 0.573;" transform="matrix(0.2, 0.0, 0.0, 0.2, 0.19999999999999998, -2.2204460492503132e-17)"><path d="M 0.0 0.0 A 1.0 1.0 0.0 0 0 -0.9999999999999999 -1.0 A 1.0 1.0 -90.0 0 0 -2.0 -1.2246467991473532e-16 A 1.0 1.0 -180.0 0 0 -1.0000000000000002 1.0000000000000002 A 1.0 1.0 90.00000000000001 0 0 2.220446049250313e-16 2.4492935982947064e-16 Z" style="vector-effect: non-scaling-stroke;" /></g><g style="fill: #005fdb;stroke: black;stroke-width: 0.573;" transform="matrix(0.30000000000000004, 0.0, 0.0, 0.30000000000000004, 0.8, -3.33066907387547e-17)"><path d="M 0.0 0.0 A 1.0 1.0 0.0 0 0 -0.9999999999999999 -1.0 A 1.0 1.0 -90.0 0 0 -2.0 -1.2246467991473532e-16 A 1.0 1.0 -180.0 0 0 -1.0000000000000002 1.0000000000000002 A 1.0 1.0 90.00000000000001 0 0 2.220446049250313e-16 2.4492935982947064e-16 Z" style="vector-effect: non-scaling-stroke;" /></g></g><g transform="matrix(1.0, 0.0, 0.0, 1.0, 1.2000000476837158, 0.0)"><g><g style="fill: #005fdb;stroke: black;stroke-width: 0.573;" transform="matrix(0.4, 0.0, 0.0, 0.4, 0.39999999999999997, -4.4408920985006264e-17)"><path d="M 0.0 0.0 A 1.0 1.0 0.0 0 0 -0.9999999999999999 -1.0 A 1.0 1.0 -90.0 0 0 -2.0 -1.2246467991473532e-16 A 1.0 1.0 -180.0 0 0 -1.0000000000000002 1.0000000000000002 A 1.0 1.0 90.00000000000001 0 0 2.220446049250313e-16 2.4492935982947064e-16 Z" style="vector-effect: non-scaling-stroke;" /></g><g style="fill: #005fdb;stroke: black;stroke-width: 0.573;" transform="matrix(0.5, 0.0, 0.0, 0.5, 1.4000000000000001, -5.551115123125783e-17)"><path d="M 0.0 0.0 A 1.0 1.0 0.0 0 0 -0.9999999999999999 -1.0 A 1.0 1.0 -90.0 0 0 -2.0 -1.2246467991473532e-16 A 1.0 1.0 -180.0 0 0 -1.0000000000000002 1.0000000000000002 A 1.0 1.0 90.00000000000001 0 0 2.220446049250313e-16 2.4492935982947064e-16 Z" style="vector-effect: non-scaling-stroke;" /></g></g></g></g></g></g></g></g></svg>