<?xml version="1.0" encoding="utf-8" ?>
<svg baseProfile="full" height="64" version="1.1" width="127" xmlns="http://www.w3.org/2000/svg" xmlns:ev="http://www.w3.org/2001/xml-events" xmlns:xlink="http://www.w3.org/1999/xlink"><defs><marker id="arrow" markerHeight="3.5" markerWidth="5" orient="auto" refX="5.0" refY="1.7"><polygon points="0,0 5,1.75 0,3.5" /></marker></defs><g style="fill:white;"><g transform="matrix(60.83072280883789, 0.0, 0.0, 60.83072280883789, 30.415360627379187, 30.4761905670166)"><g><g style="fill: #ff9700;stroke: black;stroke-width: 0.381;" transform="matrix(0.5, 0.0, 0.0, 0.5, 0.49999999999999994, -5.551115123125783e-17)"><path d="M 0.0 0.0 A 1.0 1.0 0.0 0 0 -0.9999999999999999 -1.0 A 1.0 1.0 -90.0 0 0 -2.0 -1.2246467991473532e-16 A 1.0 1.0 -180.0 0 0 -1.0000000000000002 1.0000000000000002 A 1.0 1.0 90.00000000000001 0 0 2.220446049250313e-16 2.4492935982947064e-16 Z" style="vector-effect: non-scaling-stroke;" /></g><g style="fill: #005fdb;stroke: black;stroke-width: 0.381;" transform="matrix(1.0, 0.0, 0.0, 1.0, 0.5009999999998769, -0.5)"><path d="M 0.0 0.0 A 125.00050000061125 125.00050000061125 -90.0 0 1 1.0000000000000075 -1.418023854522332e-14 A 125.00050000061125 125.00050000061125 0.0 0 1 1.0000000000000142 1.0000000000000075 A 125.00050000061125 125.00050000061125 90.00000000000001 0 1 -7.66053886991358e-15 1.0000000000000142 A 125.00050000061125 125.00050000061125 -180.0 0 1 0.0 -7.66053886991358e-15 Z" style="vector-effect: non-scaling-stroke;" /></g></g></g></g></svg>