<?xml version="1.0" encoding="utf-8" ?>
<svg baseProfile="full" height="256" version="1.1" width="295" xmlns="http://www.w3.org/2000/svg" xmlns:ev="http://www.w3.org/2001/xml-events" xmlns:xlink="http://www.w3.org/1999/xlink"><defs><marker id="arrow" markerHeight="3.5" markerWidth="5" orient="auto" refX="5.0" refY="1.7"><polygon points="0,0 5,1.75 0,3.5" /></marker></defs><g style="fill:white; stroke: black; stroke-width: 0.01;"><g><g transform="matrix(70.38174710121153, 0.0, 0.0, 70.38174710121153, 0.0, 0.0)"><g><g><g><g><g style="fill: #ff9700;" transform="matrix(1.0, 0.0, 0.0, 1.0, 0.0, 0.0)"><polyline points="-2.6514380968122673e-17,-0.14433756729740646 0.12500000000000008,0.07216878364870312 -0.12500000000000003,0.0721687836487032 -6.186688892561958e-17,-0.14433756729740646" /></g><g transform="matrix(1.0, 0.0, 0.0, 1.0, 0.0, 0.180421959121758)"><g transform="matrix(1.0, 0.0, 0.0, 1.0, -0.1250000000000001, 0.03608439182435163)"><g><g style="fill: #ff9700;" transform="matrix(1.0, 0.0, 0.0, 1.0, 0.0, 0.0)"><polyline points="-2.6514380968122673e-17,-0.14433756729740646 0.12500000000000008,0.07216878364870312 -0.12500000000000003,0.0721687836487032 -6.186688892561958e-17,-0.14433756729740646" /></g><g transform="matrix(1.0, 0.0, 0.0, 1.0, 0.2500000000000001, 0.0)"><g style="fill: #ff9700;" transform="matrix(1.0, 0.0, 0.0, 1.0, 0.0, 0.0)"><polyline points="-2.6514380968122673e-17,-0.14433756729740646 0.12500000000000008,0.07216878364870312 -0.12500000000000003,0.0721687836487032 -6.186688892561958e-17,-0.14433756729740646" /></g></g></g></g></g></g><g transform="matrix(1.0, 0.0, 0.0, 1.0, 0.0, 0.5051814855409225)"><g transform="matrix(1.0, 0.0, 0.0, 1.0, -0.2500000000000001, -0.0721687836487032)"><g><g><g style="fill: #ff9700;" transform="matrix(1.0, 0.0, 0.0, 1.0, 0.0, 0.0)"><polyline points="-2.6514380968122673e-17,-0.14433756729740646 0.12500000000000008,0.07216878364870312 -0.12500000000000003,0.0721687836487032 -6.186688892561958e-17,-0.14433756729740646" /></g><g transform="matrix(1.0, 0.0, 0.0, 1.0, 0.0, 0.180421959121758)"><g transform="matrix(1.0, 0.0, 0.0, 1.0, -0.1250000000000001, 0.03608439182435163)"><g><g style="fill: #ff9700;" transform="matrix(1.0, 0.0, 0.0, 1.0, 0.0, 0.0)"><polyline points="-2.6514380968122673e-17,-0.14433756729740646 0.12500000000000008,0.07216878364870312 -0.12500000000000003,0.0721687836487032 -6.186688892561958e-17,-0.14433756729740646" /></g><g transform="matrix(1.0, 0.0, 0.0, 1.0, 0.2500000000000001, 0.0)"><g style="fill: #ff9700;" transform="matrix(1.0, 0.0, 0.0, 1.0, 0.0, 0.0)"><polyline points="-2.6514380968122673e-17,-0.14433756729740646 0.12500000000000008,0.07216878364870312 -0.12500000000000003,0.0721687836487032 -6.186688892561958e-17,-0.14433756729740646" /></g></g></g></g></g></g><g transform="matrix(1.0, 0.0, 0.0, 1.0, 0.5000000000000002, 0.0)"><g><g style="fill: #ff9700;" transform="matrix(1.0, 0.0, 0.0, 1.0, 0.0, 0.0)"><polyline points="-2.6514380968122673e-17,-0.14433756729740646 0.12500000000000008,0.07216878364870312 -0.12500000000000003,0.0721687836487032 -6.186688892561958e-17,-0.14433756729740646" /></g><g transform="matrix(1.0, 0.0, 0.0, 1.0, 0.0, 0.180421959121758)"><g transform="matrix(1.0, 0.0, 0.0, 1.0, -0.1250000000000001, 0.03608439182435163)"><g><g style="fill: #ff9700;" transform="matrix(1.0, 0.0, 0.0, 1.0, 0.0, 0.0)"><polyline points="-2.6514380968122673e-17,-0.14433756729740646 0.12500000000000008,0.07216878364870312 -0.12500000000000003,0.0721687836487032 -6.186688892561958e-17,-0.14433756729740646" /></g><g transform="matrix(1.0, 0.0, 0.0, 1.0, 0.2500000000000001, 0.0)"><g style="fill: #ff9700;" transform="matrix(1.0, 0.0, 0.0, 1.0, 0.0, 0.0)"><polyline points="-2.6514380968122673e-17,-0.14433756729740646 0.12500000000000008,0.07216878364870312 -0.12500000000000003,0.0721687836487032 -6.186688892561958e-17,-0.14433756729740646" /></g></g></g></g></g></g></g></g></g></g></g><g transform="matrix(1.0, 0.0, 0.0, 1.0, 0.0, 1.1547005383792515)"><g transform="matrix(1.0, 0.0, 0.0, 1.0, -0.5000000000000002, -0.2886751345948128)"><g><g><g><g style="fill: #ff9700;" transform="matrix(1.0, 0.0, 0.0, 1.0, 0.0, 0.0)"><polyline points="-2.6514380968122673e-17,-0.14433756729740646 0.12500000000000008,0.07216878364870312 -0.12500000000000003,0.0721687836487032 -6.186688892561958e-17,-0.14433756729740646" /></g><g transform="matrix(1.0, 0.0, 0.0, 1.0, 0.0, 0.180421959121758)"><g transform="matrix(1.0, 0.0, 0.0, 1.0, -0.1250000000000001, 0.03608439182435163)"><g><g style="fill: #ff9700;" transform="matrix(1.0, 0.0, 0.0, 1.0, 0.0, 0.0)"><polyline points="-2.6514380968122673e-17,-0.14433756729740646 0.12500000000000008,0.07216878364870312 -0.12500000000000003,0.0721687836487032 -6.186688892561958e-17,-0.14433756729740646" /></g><g transform="matrix(1.0, 0.0, 0.0, 1.0, 0.2500000000000001, 0.0)"><g style="fill: #ff9700;" transform="matrix(1.0, 0.0, 0.0, 1.0, 0.0, 0.0)"><polyline points="-2.6514380968122673e-17,-0.14433756729740646 0.12500000000000008,0.07216878364870312 -0.12500000000000003,0.0721687836487032 -6.186688892561958e-17,-0.14433756729740646" /></g></g></g></g></g></g><g transform="matrix(1.0, 0.0, 0.0, 1.0, 0.0, 0.5051814855409225)"><g transform="matrix(1.0, 0.0, 0.0, 1.0, -0.2500000000000001, -0.0721687836487032)"><g><g><g style="fill: #ff9700;" transform="matrix(1.0, 0.0, 0.0, 1.0, 0.0, 0.0)"><polyline points="-2.6514380968122673e-17,-0.14433756729740646 0.12500000000000008,0.07216878364870312 -0.12500000000000003,0.0721687836487032 -6.186688892561958e-17,-0.14433756729740646" /></g><g transform="matrix(1.0, 0.0, 0.0, 1.0, 0.0, 0.180421959121758)"><g transform="matrix(1.0, 0.0, 0.0, 1.0, -0.1250000000000001, 0.03608439182435163)"><g><g style="fill: #ff9700;" transform="matrix(1.0, 0.0, 0.0, 1.0, 0.0, 0.0)"><polyline points="-2.6514380968122673e-17,-0.14433756729740646 0.12500000000000008,0.07216878364870312 -0.12500000000000003,0.0721687836487032 -6.186688892561958e-17,-0.14433756729740646" /></g><g transform="matrix(1.0, 0.0, 0.0, 1.0, 0.2500000000000001, 0.0)"><g style="fill: #ff9700;" transform="matrix(1.0, 0.0, 0.0, 1.0, 0.0, 0.0)"><polyline points="-2.6514380968122673e-17,-0.14433756729740646 0.12500000000000008,0.07216878364870312 -0.12500000000000003,0.0721687836487032 -6.186688892561958e-17,-0.14433756729740646" /></g></g></g></g></g></g><g transform="matrix(1.0, 0.0, 0.0, 1.0, 0.5000000000000002, 0.0)"><g><g style="fill: #ff9700;" transform="matrix(1.0, 0.0, 0.0, 1.0, 0.0, 0.0)"><polyline points="-2.6514380968122673e-17,-0.14433756729740646 0.12500000000000008,0.07216878364870312 -0.12500000000000003,0.0721687836487032 -6.186688892561958e-17,-0.14433756729740646" /></g><g transform="matrix(1.0, 0.0, 0.0, 1.0, 0.0, 0.180421959121758)"><g transform="matrix(1.0, 0.0, 0.0, 1.0, -0.1250000000000001, 0.03608439182435163)"><g><g style="fill: #ff9700;" transform="matrix(1.0, 0.0, 0.0, 1.0, 0.0, 0.0)"><polyline points="-2.6514380968122673e-17,-0.14433756729740646 0.12500000000000008,0.07216878364870312 -0.12500000000000003,0.0721687836487032 -6.186688892561958e-17,-0.14433756729740646" /></g><g transform="matrix(1.0, 0.0, 0.0, 1.0, 0.2500000000000001, 0.0)"><g style="fill: #ff9700;" transform="matrix(1.0, 0.0, 0.0, 1.0, 0.0, 0.0)"><polyline points="-2.6514380968122673e-17,-0.14433756729740646 0.12500000000000008,0.07216878364870312 -0.12500000000000003,0.0721687836487032 -6.186688892561958e-17,-0.14433756729740646" /></g></g></g></g></g></g></g></g></g></g></g><g transform="matrix(1.0, 0.0, 0.0, 1.0, 1.0000000000000004, 0.0)"><g><g><g style="fill: #ff9700;" transform="matrix(1.0, 0.0, 0.0, 1.0, 0.0, 0.0)"><polyline points="-2.6514380968122673e-17,-0.14433756729740646 0.12500000000000008,0.07216878364870312 -0.12500000000000003,0.0721687836487032 -6.186688892561958e-17,-0.14433756729740646" /></g><g transform="matrix(1.0, 0.0, 0.0, 1.0, 0.0, 0.180421959121758)"><g transform="matrix(1.0, 0.0, 0.0, 1.0, -0.1250000000000001, 0.03608439182435163)"><g><g style="fill: #ff9700;" transform="matrix(1.0, 0.0, 0.0, 1.0, 0.0, 0.0)"><polyline points="-2.6514380968122673e-17,-0.14433756729740646 0.12500000000000008,0.07216878364870312 -0.12500000000000003,0.0721687836487032 -6.186688892561958e-17,-0.14433756729740646" /></g><g transform="matrix(1.0, 0.0, 0.0, 1.0, 0.2500000000000001, 0.0)"><g style="fill: #ff9700;" transform="matrix(1.0, 0.0, 0.0, 1.0, 0.0, 0.0)"><polyline points="-2.6514380968122673e-17,-0.14433756729740646 0.12500000000000008,0.07216878364870312 -0.12500000000000003,0.0721687836487032 -6.186688892561958e-17,-0.14433756729740646" /></g></g></g></g></g></g><g transform="matrix(1.0, 0.0, 0.0, 1.0, 0.0, 0.5051814855409225)"><g transform="matrix(1.0, 0.0, 0.0, 1.0, -0.2500000000000001, -0.0721687836487032)"><g><g><g style="fill: #ff9700;" transform="matrix(1.0, 0.0, 0.0, 1.0, 0.0, 0.0)"><polyline points="-2.6514380968122673e-17,-0.14433756729740646 0.12500000000000008,0.07216878364870312 -0.12500000000000003,0.0721687836487032 -6.186688892561958e-17,-0.14433756729740646" /></g><g transform="matrix(1.0, 0.0, 0.0, 1.0, 0.0, 0.180421959121758)"><g transform="matrix(1.0, 0.0, 0.0, 1.0, -0.1250000000000001, 0.03608439182435163)"><g><g style="fill: #ff9700;" transform="matrix(1.0, 0.0, 0.0, 1.0, 0.0, 0.0)"><polyline points="-2.6514380968122673e-17,-0.14433756729740646 0.12500000000000008,0.07216878364870312 -0.12500000000000003,0.0721687836487032 -6.186688892561958e-17,-0.14433756729740646" /></g><g transform="matrix(1.0, 0.0, 0.0, 1.0, 0.2500000000000001, 0.0)"><g style="fill: #ff9700;" transform="matrix(1.0, 0.0, 0.0, 1.0, 0.0, 0.0)"><polyline points="-2.6514380968122673e-17,-0.14433756729740646 0.12500000000000008,0.07216878364870312 -0.12500000000000003,0.0721687836487032 -6.186688892561958e-17,-0.14433756729740646" /></g></g></g></g></g></g><g transform="matrix(1.0, 0.0, 0.0, 1.0, 0.5000000000000002, 0.0)"><g><g style="fill: #ff9700;" transform="matrix(1.0, 0.0, 0.0, 1.0, 0.0, 0.0)"><polyline points="-2.6514380968122673e-17,-0.14433756729740646 0.12500000000000008,0.07216878364870312 -0.12500000000000003,0.0721687836487032 -6.186688892561958e-17,-0.14433756729740646" /></g><g transform="matrix(1.0, 0.0, 0.0, 1.0, 0.0, 0.180421959121758)"><g transform="matrix(1.0, 0.0, 0.0, 1.0, -0.1250000000000001, 0.03608439182435163)"><g><g style="fill: #ff9700;" transform="matrix(1.0, 0.0, 0.0, 1.0, 0.0, 0.0)"><polyline points="-2.6514380968122673e-17,-0.14433756729740646 0.12500000000000008,0.07216878364870312 -0.12500000000000003,0.0721687836487032 -6.186688892561958e-17,-0.14433756729740646" /></g><g transform="matrix(1.0, 0.0, 0.0, 1.0, 0.2500000000000001, 0.0)"><g style="fill: #ff9700;" transform="matrix(1.0, 0.0, 0.0, 1.0, 0.0, 0.0)"><polyline points="-2.6514380968122673e-17,-0.14433756729740646 0.12500000000000008,0.07216878364870312 -0.12500000000000003,0.0721687836487032 -6.186688892561958e-17,-0.14433756729740646" /></g></g></g></g></g></g></g></g></g></g></g></g></g></g></g></g><g transform="matrix(1.0, 0.0, 0.0, 1.0, 0.0, 2.453738644055909)"><g transform="matrix(1.0, 0.0, 0.0, 1.0, -1.0000000000000004, -0.721687836487032)"><g><g><g><g><g style="fill: #ff9700;" transform="matrix(1.0, 0.0, 0.0, 1.0, 0.0, 0.0)"><polyline points="-2.6514380968122673e-17,-0.14433756729740646 0.12500000000000008,0.07216878364870312 -0.12500000000000003,0.0721687836487032 -6.186688892561958e-17,-0.14433756729740646" /></g><g transform="matrix(1.0, 0.0, 0.0, 1.0, 0.0, 0.180421959121758)"><g transform="matrix(1.0, 0.0, 0.0, 1.0, -0.1250000000000001, 0.03608439182435163)"><g><g style="fill: #ff9700;" transform="matrix(1.0, 0.0, 0.0, 1.0, 0.0, 0.0)"><polyline points="-2.6514380968122673e-17,-0.14433756729740646 0.12500000000000008,0.07216878364870312 -0.12500000000000003,0.0721687836487032 -6.186688892561958e-17,-0.14433756729740646" /></g><g transform="matrix(1.0, 0.0, 0.0, 1.0, 0.2500000000000001, 0.0)"><g style="fill: #ff9700;" transform="matrix(1.0, 0.0, 0.0, 1.0, 0.0, 0.0)"><polyline points="-2.6514380968122673e-17,-0.14433756729740646 0.12500000000000008,0.07216878364870312 -0.12500000000000003,0.0721687836487032 -6.186688892561958e-17,-0.14433756729740646" /></g></g></g></g></g></g><g transform="matrix(1.0, 0.0, 0.0, 1.0, 0.0, 0.5051814855409225)"><g transform="matrix(1.0, 0.0, 0.0, 1.0, -0.2500000000000001, -0.0721687836487032)"><g><g><g style="fill: #ff9700;" transform="matrix(1.0, 0.0, 0.0, 1.0, 0.0, 0.0)"><polyline points="-2.6514380968122673e-17,-0.14433756729740646 0.12500000000000008,0.07216878364870312 -0.12500000000000003,0.0721687836487032 -6.186688892561958e-17,-0.14433756729740646" /></g><g transform="matrix(1.0, 0.0, 0.0, 1.0, 0.0, 0.180421959121758)"><g transform="matrix(1.0, 0.0, 0.0, 1.0, -0.1250000000000001, 0.03608439182435163)"><g><g style="fill: #ff9700;" transform="matrix(1.0, 0.0, 0.0, 1.0, 0.0, 0.0)"><polyline points="-2.6514380968122673e-17,-0.14433756729740646 0.12500000000000008,0.07216878364870312 -0.12500000000000003,0.0721687836487032 -6.186688892561958e-17,-0.14433756729740646" /></g><g transform="matrix(1.0, 0.0, 0.0, 1.0, 0.2500000000000001, 0.0)"><g style="fill: #ff9700;" transform="matrix(1.0, 0.0, 0.0, 1.0, 0.0, 0.0)"><polyline points="-2.6514380968122673e-17,-0.14433756729740646 0.12500000000000008,0.07216878364870312 -0.12500000000000003,0.0721687836487032 -6.186688892561958e-17,-0.14433756729740646" /></g></g></g></g></g></g><g transform="matrix(1.0, 0.0, 0.0, 1.0, 0.5000000000000002, 0.0)"><g><g style="fill: #ff9700;" transform="matrix(1.0, 0.0, 0.0, 1.0, 0.0, 0.0)"><polyline points="-2.6514380968122673e-17,-0.14433756729740646 0.12500000000000008,0.07216878364870312 -0.12500000000000003,0.0721687836487032 -6.186688892561958e-17,-0.14433756729740646" /></g><g transform="matrix(1.0, 0.0, 0.0, 1.0, 0.0, 0.180421959121758)"><g transform="matrix(1.0, 0.0, 0.0, 1.0, -0.1250000000000001, 0.03608439182435163)"><g><g style="fill: #ff9700;" transform="matrix(1.0, 0.0, 0.0, 1.0, 0.0, 0.0)"><polyline points="-2.6514380968122673e-17,-0.14433756729740646 0.12500000000000008,0.07216878364870312 -0.12500000000000003,0.0721687836487032 -6.186688892561958e-17,-0.14433756729740646" /></g><g transform="matrix(1.0, 0.0, 0.0, 1.0, 0.2500000000000001, 0.0)"><g style="fill: #ff9700;" transform="matrix(1.0, 0.0, 0.0, 1.0, 0.0, 0.0)"><polyline points="-2.6514380968122673e-17,-0.14433756729740646 0.12500000000000008,0.07216878364870312 -0.12500000000000003,0.0721687836487032 -6.186688892561958e-17,-0.14433756729740646" /></g></g></g></g></g></g></g></g></g></g></g><g transform="matrix(1.0, 0.0, 0.0, 1.0, 0.0, 1.1547005383792515)"><g transform="matrix(1.0, 0.0, 0.0, 1.0, -0.5000000000000002, -0.2886751345948128)"><g><g><g><g style="fill: #ff9700;" transform="matrix(1.0, 0.0, 0.0, 1.0, 0.0, 0.0)"><polyline points="-2.6514380968122673e-17,-0.14433756729740646 0.12500000000000008,0.07216878364870312 -0.12500000000000003,0.0721687836487032 -6.186688892561958e-17,-0.14433756729740646" /></g><g transform="matrix(1.0, 0.0, 0.0, 1.0, 0.0, 0.180421959121758)"><g transform="matrix(1.0, 0.0, 0.0, 1.0, -0.1250000000000001, 0.03608439182435163)"><g><g style="fill: #ff9700;" transform="matrix(1.0, 0.0, 0.0, 1.0, 0.0, 0.0)"><polyline points="-2.6514380968122673e-17,-0.14433756729740646 0.12500000000000008,0.07216878364870312 -0.12500000000000003,0.0721687836487032 -6.186688892561958e-17,-0.14433756729740646" /></g><g transform="matrix(1.0, 0.0, 0.0, 1.0, 0.2500000000000001, 0.0)"><g style="fill: #ff9700;" transform="matrix(1.0, 0.0, 0.0, 1.0, 0.0, 0.0)"><polyline points="-2.6514380968122673e-17,-0.14433756729740646 0.12500000000000008,0.07216878364870312 -0.12500000000000003,0.0721687836487032 -6.186688892561958e-17,-0.14433756729740646" /></g></g></g></g></g></g><g transform="matrix(1.0, 0.0, 0.0, 1.0, 0.0, 0.5051814855409225)"><g transform="matrix(1.0, 0.0, 0.0, 1.0, -0.2500000000000001, -0.0721687836487032)"><g><g><g style="fill: #ff9700;" transform="matrix(1.0, 0.0, 0.0, 1.0, 0.0, 0.0)"><polyline points="-2.6514380968122673e-17,-0.14433756729740646 0.12500000000000008,0.07216878364870312 -0.12500000000000003,0.0721687836487032 -6.186688892561958e-17,-0.14433756729740646" /></g><g transform="matrix(1.0, 0.0, 0.0, 1.0, 0.0, 0.180421959121758)"><g transform="matrix(1.0, 0.0, 0.0, 1.0, -0.1250000000000001, 0.03608439182435163)"><g><g style="fill: #ff9700;" transform="matrix(1.0, 0.0, 0.0, 1.0, 0.0, 0.0)"><polyline points="-2.6514380968122673e-17,-0.14433756729740646 0.12500000000000008,0.07216878364870312 -0.12500000000000003,0.0721687836487032 -6.186688892561958e-17,-0.14433756729740646" /></g><g transform="matrix(1.0, 0.0, 0.0, 1.0, 0.2500000000000001, 0.0)"><g style="fill: #ff9700;" transform="matrix(1.0, 0.0, 0.0, 1.0, 0.0, 0.0)"><polyline points="-2.6514380968122673e-17,-0.14433756729740646 0.12500000000000008,0.07216878364870312 -0.12500000000000003,0.0721687836487032 -6.186688892561958e-17,-0.14433756729740646" /></g></g></g></g></g></g><g transform="matrix(1.0, 0.0, 0.0, 1.0, 0.5000000000000002, 0.0)"><g><g style="fill: #ff9700;" transform="matrix(1.0, 0.0, 0.0, 1.0, 0.0, 0.0)"><polyline points="-2.6514380968122673e-17,-0.14433756729740646 0.12500000000000008,0.07216878364870312 -0.12500000000000003,0.0721687836487032 -6.186688892561958e-17,-0.14433756729740646" /></g><g transform="matrix(1.0, 0.0, 0.0, 1.0, 0.0, 0.180421959121758)"><g transform="matrix(1.0, 0.0, 0.0, 1.0, -0.1250000000000001, 0.03608439182435163)"><g><g style="fill: #ff9700;" transform="matrix(1.0, 0.0, 0.0, 1.0, 0.0, 0.0)"><polyline points="-2.6514380968122673e-17,-0.14433756729740646 0.12500000000000008,0.07216878364870312 -0.12500000000000003,0.0721687836487032 -6.186688892561958e-17,-0.14433756729740646" /></g><g transform="matrix(1.0, 0.0, 0.0, 1.0, 0.2500000000000001, 0.0)"><g style="fill: #ff9700;" transform="matrix(1.0, 0.0, 0.0, 1.0, 0.0, 0.0)"><polyline points="-2.6514380968122673e-17,-0.14433756729740646 0.12500000000000008,0.07216878364870312 -0.12500000000000003,0.0721687836487032 -6.186688892561958e-17,-0.14433756729740646" /></g></g></g></g></g></g></g></g></g></g></g><g transform="matrix(1.0, 0.0, 0.0, 1.0, 1.0000000000000004, 0.0)"><g><g><g style="fill: #ff9700;" transform="matrix(1.0, 0.0, 0.0, 1.0, 0.0, 0.0)"><polyline points="-2.6514380968122673e-17,-0.14433756729740646 0.12500000000000008,0.07216878364870312 -0.12500000000000003,0.0721687836487032 -6.186688892561958e-17,-0.14433756729740646" /></g><g transform="matrix(1.0, 0.0, 0.0, 1.0, 0.0, 0.180421959121758)"><g transform="matrix(1.0, 0.0, 0.0, 1.0, -0.1250000000000001, 0.03608439182435163)"><g><g style="fill: #ff9700;" transform="matrix(1.0, 0.0, 0.0, 1.0, 0.0, 0.0)"><polyline points="-2.6514380968122673e-17,-0.14433756729740646 0.12500000000000008,0.07216878364870312 -0.12500000000000003,0.0721687836487032 -6.186688892561958e-17,-0.14433756729740646" /></g><g transform="matrix(1.0, 0.0, 0.0, 1.0, 0.2500000000000001, 0.0)"><g style="fill: #ff9700;" transform="matrix(1.0, 0.0, 0.0, 1.0, 0.0, 0.0)"><polyline points="-2.6514380968122673e-17,-0.14433756729740646 0.12500000000000008,0.07216878364870312 -0.12500000000000003,0.0721687836487032 -6.186688892561958e-17,-0.14433756729740646" /></g></g></g></g></g></g><g transform="matrix(1.0, 0.0, 0.0, 1.0, 0.0, 0.5051814855409225)"><g transform="matrix(1.0, 0.0, 0.0, 1.0, -0.2500000000000001, -0.0721687836487032)"><g><g><g style="fill: #ff9700;" transform="matrix(1.0, 0.0, 0.0, 1.0, 0.0, 0.0)"><polyline points="-2.6514380968122673e-17,-0.14433756729740646 0.12500000000000008,0.07216878364870312 -0.12500000000000003,0.0721687836487032 -6.186688892561958e-17,-0.14433756729740646" /></g><g transform="matrix(1.0, 0.0, 0.0, 1.0, 0.0, 0.180421959121758)"><g transform="matrix(1.0, 0.0, 0.0, 1.0, -0.1250000000000001, 0.03608439182435163)"><g><g style="fill: #ff9700;" transform="matrix(1.0, 0.0, 0.0, 1.0, 0.0, 0.0)"><polyline points="-2.6514380968122673e-17,-0.14433756729740646 0.12500000000000008,0.07216878364870312 -0.12500000000000003,0.0721687836487032 -6.186688892561958e-17,-0.14433756729740646" /></g><g transform="matrix(1.0, 0.0, 0.0, 1.0, 0.2500000000000001, 0.0)"><g style="fill: #ff9700;" transform="matrix(1.0, 0.0, 0.0, 1.0, 0.0, 0.0)"><polyline points="-2.6514380968122673e-17,-0.14433756729740646 0.12500000000000008,0.07216878364870312 -0.12500000000000003,0.0721687836487032 -6.186688892561958e-17,-0.14433756729740646" /></g></g></g></g></g></g><g transform="matrix(1.0, 0.0, 0.0, 1.0, 0.5000000000000002, 0.0)"><g><g style="fill: #ff9700;" transform="matrix(1.0, 0.0, 0.0, 1.0, 0.0, 0.0)"><polyline points="-2.6514380968122673e-17,-0.14433756729740646 0.12500000000000008,0.07216878364870312 -0.12500000000000003,0.0721687836487032 -6.186688892561958e-17,-0.14433756729740646" /></g><g transform="matrix(1.0, 0.0, 0.0, 1.0, 0.0, 0.180421959121758)"><g transform="matrix(1.0, 0.0, 0.0, 1.0, -0.1250000000000001, 0.03608439182435163)"><g><g style="fill: #ff9700;" transform="matrix(1.0, 0.0, 0.0, 1.0, 0.0, 0.0)"><polyline points="-2.6514380968122673e-17,-0.14433756729740646 0.12500000000000008,0.07216878364870312 -0.12500000000000003,0.0721687836487032 -6.186688892561958e-17,-0.14433756729740646" /></g><g transform="matrix(1.0, 0.0, 0.0, 1.0, 0.2500000000000001, 0.0)"><g style="fill: #ff9700;" transform="matrix(1.0, 0.0, 0.0, 1.0, 0.0, 0.0)"><polyline points="-2.6514380968122673e-17,-0.14433756729740646 0.12500000000000008,0.07216878364870312 -0.12500000000000003,0.0721687836487032 -6.186688892561958e-17,-0.14433756729740646" /></g></g></g></g></g></g></g></g></g></g></g></g></g></g></g></g><g transform="matrix(1.0, 0.0, 0.0, 1.0, 2.000000000000001, 0.0)"><g><g><g><g style="fill: #ff9700;" transform="matrix(1.0, 0.0, 0.0, 1.0, 0.0, 0.0)"><polyline points="-2.6514380968122673e-17,-0.14433756729740646 0.12500000000000008,0.07216878364870312 -0.12500000000000003,0.0721687836487032 -6.186688892561958e-17,-0.14433756729740646" /></g><g transform="matrix(1.0, 0.0, 0.0, 1.0, 0.0, 0.180421959121758)"><g transform="matrix(1.0, 0.0, 0.0, 1.0, -0.1250000000000001, 0.03608439182435163)"><g><g style="fill: #ff9700;" transform="matrix(1.0, 0.0, 0.0, 1.0, 0.0, 0.0)"><polyline points="-2.6514380968122673e-17,-0.14433756729740646 0.12500000000000008,0.07216878364870312 -0.12500000000000003,0.0721687836487032 -6.186688892561958e-17,-0.14433756729740646" /></g><g transform="matrix(1.0, 0.0, 0.0, 1.0, 0.2500000000000001, 0.0)"><g style="fill: #ff9700;" transform="matrix(1.0, 0.0, 0.0, 1.0, 0.0, 0.0)"><polyline points="-2.6514380968122673e-17,-0.14433756729740646 0.12500000000000008,0.07216878364870312 -0.12500000000000003,0.0721687836487032 -6.186688892561958e-17,-0.14433756729740646" /></g></g></g></g></g></g><g transform="matrix(1.0, 0.0, 0.0, 1.0, 0.0, 0.5051814855409225)"><g transform="matrix(1.0, 0.0, 0.0, 1.0, -0.2500000000000001, -0.0721687836487032)"><g><g><g style="fill: #ff9700;" transform="matrix(1.0, 0.0, 0.0, 1.0, 0.0, 0.0)"><polyline points="-2.6514380968122673e-17,-0.14433756729740646 0.12500000000000008,0.07216878364870312 -0.12500000000000003,0.0721687836487032 -6.186688892561958e-17,-0.14433756729740646" /></g><g transform="matrix(1.0, 0.0, 0.0, 1.0, 0.0, 0.180421959121758)"><g transform="matrix(1.0, 0.0, 0.0, 1.0, -0.1250000000000001, 0.03608439182435163)"><g><g style="fill: #ff9700;" transform="matrix(1.0, 0.0, 0.0, 1.0, 0.0, 0.0)"><polyline points="-2.6514380968122673e-17,-0.14433756729740646 0.12500000000000008,0.07216878364870312 -0.12500000000000003,0.0721687836487032 -6.186688892561958e-17,-0.14433756729740646" /></g><g transform="matrix(1.0, 0.0, 0.0, 1.0, 0.2500000000000001, 0.0)"><g style="fill: #ff9700;" transform="matrix(1.0, 0.0, 0.0, 1.0, 0.0, 0.0)"><polyline points="-2.6514380968122673e-17,-0.14433756729740646 0.12500000000000008,0.07216878364870312 -0.12500000000000003,0.0721687836487032 -6.186688892561958e-17,-0.14433756729740646" /></g></g></g></g></g></g><g transform="matrix(1.0, 0.0, 0.0, 1.0, 0.5000000000000002, 0.0)"><g><g style="fill: #ff9700;" transform="matrix(1.0, 0.0, 0.0, 1.0, 0.0, 0.0)"><polyline points="-2.6514380968122673e-17,-0.14433756729740646 0.12500000000000008,0.07216878364870312 -0.12500000000000003,0.0721687836487032 -6.186688892561958e-17,-0.14433756729740646" /></g><g transform="matrix(1.0, 0.0, 0.0, 1.0, 0.0, 0.180421959121758)"><g transform="matrix(1.0, 0.0, 0.0, 1.0, -0.1250000000000001, 0.03608439182435163)"><g><g style="fill: #ff9700;" transform="matrix(1.0, 0.0, 0.0, 1.0, 0.0, 0.0)"><polyline points="-2.6514380968122673e-17,-0.14433756729740646 0.12500000000000008,0.07216878364870312 -0.12500000000000003,0.0721687836487032 -6.186688892561958e-17,-0.14433756729740646" /></g><g transform="matrix(1.0, 0.0, 0.0, 1.0, 0.2500000000000001, 0.0)"><g style="fill: #ff9700;" transform="matrix(1.0, 0.0, 0.0, 1.0, 0.0, 0.0)"><polyline points="-2.6514380968122673e-17,-0.14433756729740646 0.12500000000000008,0.07216878364870312 -0.12500000000000003,0.0721687836487032 -6.186688892561958e-17,-0.14433756729740646" /></g></g></g></g></g></g></g></g></g></g></g><g transform="matrix(1.0, 0.0, 0.0, 1.0, 0.0, 1.1547005383792515)"><g transform="matrix(1.0, 0.0, 0.0, 1.0, -0.5000000000000002, -0.2886751345948128)"><g><g><g><g style="fill: #ff9700;" transform="matrix(1.0, 0.0, 0.0, 1.0, 0.0, 0.0)"><polyline points="-2.6514380968122673e-17,-0.14433756729740646 0.12500000000000008,0.07216878364870312 -0.12500000000000003,0.0721687836487032 -6.186688892561958e-17,-0.14433756729740646" /></g><g transform="matrix(1.0, 0.0, 0.0, 1.0, 0.0, 0.180421959121758)"><g transform="matrix(1.0, 0.0, 0.0, 1.0, -0.1250000000000001, 0.03608439182435163)"><g><g style="fill: #ff9700;" transform="matrix(1.0, 0.0, 0.0, 1.0, 0.0, 0.0)"><polyline points="-2.6514380968122673e-17,-0.14433756729740646 0.12500000000000008,0.07216878364870312 -0.12500000000000003,0.0721687836487032 -6.186688892561958e-17,-0.14433756729740646" /></g><g transform="matrix(1.0, 0.0, 0.0, 1.0, 0.2500000000000001, 0.0)"><g style="fill: #ff9700;" transform="matrix(1.0, 0.0, 0.0, 1.0, 0.0, 0.0)"><polyline points="-2.6514380968122673e-17,-0.14433756729740646 0.12500000000000008,0.07216878364870312 -0.12500000000000003,0.0721687836487032 -6.186688892561958e-17,-0.14433756729740646" /></g></g></g></g></g></g><g transform="matrix(1.0, 0.0, 0.0, 1.0, 0.0, 0.5051814855409225)"><g transform="matrix(1.0, 0.0, 0.0, 1.0, -0.2500000000000001, -0.0721687836487032)"><g><g><g style="fill: #ff9700;" transform="matrix(1.0, 0.0, 0.0, 1.0, 0.0, 0.0)"><polyline points="-2.6514380968122673e-17,-0.14433756729740646 0.12500000000000008,0.07216878364870312 -0.12500000000000003,0.0721687836487032 -6.186688892561958e-17,-0.14433756729740646" /></g><g transform="matrix(1.0, 0.0, 0.0, 1.0, 0.0, 0.180421959121758)"><g transform="matrix(1.0, 0.0, 0.0, 1.0, -0.1250000000000001, 0.03608439182435163)"><g><g style="fill: #ff9700;" transform="matrix(1.0, 0.0, 0.0, 1.0, 0.0, 0.0)"><polyline points="-2.6514380968122673e-17,-0.14433756729740646 0.12500000000000008,0.07216878364870312 -0.12500000000000003,0.0721687836487032 -6.186688892561958e-17,-0.14433756729740646" /></g><g transform="matrix(1.0, 0.0, 0.0, 1.0, 0.2500000000000001, 0.0)"><g style="fill: #ff9700;" transform="matrix(1.0, 0.0, 0.0, 1.0, 0.0, 0.0)"><polyline points="-2.6514380968122673e-17,-0.14433756729740646 0.12500000000000008,0.07216878364870312 -0.12500000000000003,0.0721687836487032 -6.186688892561958e-17,-0.14433756729740646" /></g></g></g></g></g></g><g transform="matrix(1.0, 0.0, 0.0, 1.0, 0.5000000000000002, 0.0)"><g><g style="fill: #ff9700;" transform="matrix(1.0, 0.0, 0.0, 1.0, 0.0, 0.0)"><polyline points="-2.6514380968122673e-17,-0.14433756729740646 0.12500000000000008,0.07216878364870312 -0.12500000000000003,0.0721687836487032 -6.186688892561958e-17,-0.14433756729740646" /></g><g transform="matrix(1.0, 0.0, 0.0, 1.0, 0.0, 0.180421959121758)"><g transform="matrix(1.0, 0.0, 0.0, 1.0, -0.1250000000000001, 0.03608439182435163)"><g><g style="fill: #ff9700;" transform="matrix(1.0, 0.0, 0.0, 1.0, 0.0, 0.0)"><polyline points="-2.6514380968122673e-17,-0.14433756729740646 0.12500000000000008,0.07216878364870312 -0.12500000000000003,0.0721687836487032 -6.186688892561958e-17,-0.14433756729740646" /></g><g transform="matrix(1.0, 0.0, 0.0, 1.0, 0.2500000000000001, 0.0)"><g style="fill: #ff9700;" transform="matrix(1.0, 0.0, 0.0, 1.0, 0.0, 0.0)"><polyline points="-2.6514380968122673e-17,-0.14433756729740646 0.12500000000000008,0.07216878364870312 -0.12500000000000003,0.0721687836487032 -6.186688892561958e-17,-0.14433756729740646" /></g></g></g></g></g></g></g></g></g></g></g><g transform="matrix(1.0, 0.0, 0.0, 1.0, 1.0000000000000004, 0.0)"><g><g><g style="fill: #ff9700;" transform="matrix(1.0, 0.0, 0.0, 1.0, 0.0, 0.0)"><polyline points="-2.6514380968122673e-17,-0.14433756729740646 0.12500000000000008,0.07216878364870312 -0.12500000000000003,0.0721687836487032 -6.186688892561958e-17,-0.14433756729740646" /></g><g transform="matrix(1.0, 0.0, 0.0, 1.0, 0.0, 0.180421959121758)"><g transform="matrix(1.0, 0.0, 0.0, 1.0, -0.1250000000000001, 0.03608439182435163)"><g><g style="fill: #ff9700;" transform="matrix(1.0, 0.0, 0.0, 1.0, 0.0, 0.0)"><polyline points="-2.6514380968122673e-17,-0.14433756729740646 0.12500000000000008,0.07216878364870312 -0.12500000000000003,0.0721687836487032 -6.186688892561958e-17,-0.14433756729740646" /></g><g transform="matrix(1.0, 0.0, 0.0, 1.0, 0.2500000000000001, 0.0)"><g style="fill: #ff9700;" transform="matrix(1.0, 0.0, 0.0, 1.0, 0.0, 0.0)"><polyline points="-2.6514380968122673e-17,-0.14433756729740646 0.12500000000000008,0.07216878364870312 -0.12500000000000003,0.0721687836487032 -6.186688892561958e-17,-0.14433756729740646" /></g></g></g></g></g></g><g transform="matrix(1.0, 0.0, 0.0, 1.0, 0.0, 0.5051814855409225)"><g transform="matrix(1.0, 0.0, 0.0, 1.0, -0.2500000000000001, -0.0721687836487032)"><g><g><g style="fill: #ff9700;" transform="matrix(1.0, 0.0, 0.0, 1.0, 0.0, 0.0)"><polyline points="-2.6514380968122673e-17,-0.14433756729740646 0.12500000000000008,0.07216878364870312 -0.12500000000000003,0.0721687836487032 -6.186688892561958e-17,-0.14433756729740646" /></g><g transform="matrix(1.0, 0.0, 0.0, 1.0, 0.0, 0.180421959121758)"><g transform="matrix(1.0, 0.0, 0.0, 1.0, -0.1250000000000001, 0.03608439182435163)"><g><g style="fill: #ff9700;" transform="matrix(1.0, 0.0, 0.0, 1.0, 0.0, 0.0)"><polyline points="-2.6514380968122673e-17,-0.14433756729740646 0.12500000000000008,0.07216878364870312 -0.12500000000000003,0.0721687836487032 -6.186688892561958e-17,-0.14433756729740646" /></g><g transform="matrix(1.0, 0.0, 0.0, 1.0, 0.2500000000000001, 0.0)"><g style="fill: #ff9700;" transform="matrix(1.0, 0.0, 0.0, 1.0, 0.0, 0.0)"><polyline points="-2.6514380968122673e-17,-0.14433756729740646 0.12500000000000008,0.07216878364870312 -0.12500000000000003,0.0721687836487032 -6.186688892561958e-17,-0.14433756729740646" /></g></g></g></g></g></g><g transform="matrix(1.0, 0.0, 0.0, 1.0, 0.5000000000000002, 0.0)"><g><g style="fill: #ff9700;" transform="matrix(1.0, 0.0, 0.0, 1.0, 0.0, 0.0)"><polyline points="-2.6514380968122673e-17,-0.14433756729740646 0.12500000000000008,0.07216878364870312 -0.12500000000000003,0.0721687836487032 -6.186688892561958e-17,-0.14433756729740646" /></g><g transform="matrix(1.0, 0.0, 0.0, 1.0, 0.0, 0.180421959121758)"><g transform="matrix(1.0, 0.0, 0.0, 1.0, -0.1250000000000001, 0.03608439182435163)"><g><g style="fill: #ff9700;" transform="matrix(1.0, 0.0, 0.0, 1.0, 0.0, 0.0)"><polyline points="-2.6514380968122673e-17,-0.14433756729740646 0.12500000000000008,0.07216878364870312 -0.12500000000000003,0.0721687836487032 -6.186688892561958e-17,-0.14433756729740646" /></g><g transform="matrix(1.0, 0.0, 0.0, 1.0, 0.2500000000000001, 0.0)"><g style="fill: #ff9700;" transform="matrix(1.0, 0.0, 0.0, 1.0, 0.0, 0.0)"><polyline points="-2.6514380968122673e-17,-0.14433756729740646 0.12500000000000008,0.07216878364870312 -0.12500000000000003,0.0721687836487032 -6.186688892561958e-17,-0.14433756729740646" /></g></g></g></g></g></g></g></g></g></g></g></g></g></g></g></g></g></g></g></g></g></g><g /></g></g></svg>