<?xml version="1.0" encoding="utf-8" ?>
<svg baseProfile="full" height="64" version="1.1" width="128" xmlns="http://www.w3.org/2000/svg" xmlns:ev="http://www.w3.org/2001/xml-events" xmlns:xlink="http://www.w3.org/1999/xlink"><defs><marker id="arrow" markerHeight="3.5" markerWidth="5" orient="auto" refX="5.0" refY="1.7"><polygon points="0,0 5,1.75 0,3.5" /></marker></defs><g style="fill:white;" /><g style="fill: rgb(256.0 151.59215686274507 0.0);stroke: rgb(0.0 0.0 0.0); stroke-width: 0.1;fill-opacity: 1.0;" transform="matrix(30.41535975668373, 0.0, 0.0, 30.41535975668373, 60.83071951336744, 30.476190476190457)"><path d="M 0.0 0.0 &#10;                A 1.0 1.0 0.0 0 0&#10;                  -0.9999999999999999 -1.0 &#10;                A 1.0 1.0 -90.0 0 0&#10;                  -2.0 -1.2246467991473532e-16 &#10;                A 1.0 1.0 -180.0 0 0&#10;                  -1.0000000000000002 0.9999999999999999 &#10;                A 1.0 1.0 90.00000000000001 0 0&#10;                  0.0 2.4492935982947064e-16 Z" style="vector-effect: non-scaling-stroke;" /></g><g style="fill: rgb(0.0 95.37254901960779 219.85882352941175);stroke: rgb(0.0 0.0 0.0); stroke-width: 0.1;fill-opacity: 1.0;" transform="matrix(60.83071951336746, 0.0, 0.0, 60.83071951336746, 60.89155023287332, 0.06083071950672547)"><path d="M 0.0 0.0 L 1.0000000000000075 -1.418023854522332e-14 L 1.0000000000000284 0.9999999999999934 L 1.4099832412739488e-14 1.0000000000000142 L 0.0 -1.1102230246251565e-16 Z" style="vector-effect: non-scaling-stroke;" /></g></svg>