<?xml version="1.0" encoding="utf-8" ?>
<svg baseProfile="full" height="512" version="1.1" width="443" xmlns="http://www.w3.org/2000/svg" xmlns:ev="http://www.w3.org/2001/xml-events" xmlns:xlink="http://www.w3.org/1999/xlink"><defs><marker id="arrow" markerHeight="3.5" markerWidth="5" orient="auto" refX="5.0" refY="1.7"><polygon points="0,0 5,1.75 0,3.5" /></marker></defs><g style="fill:white;"><g transform="matrix(1.0, 0.0, 0.0, 1.0, 221.5, 255.76616925100416)"><g transform="matrix(84.38095238095238, 0.0, 0.0, 84.38095238095238, 0.0, 0.0)"><g><g transform="matrix(1.0, 0.0, 0.0, 1.0, -2.5, -1.4433756729740639)"><g><g><g><g><g><g><g style="stroke: black;stroke-width: 0.1536;" transform="matrix(1.0, 0.0, 0.0, 1.0, 0.0, 0.0)"><path d="M 0.0 0.0 L 0.0 0.0 L 1.6666666666666665 0.0 L 2.5 -1.443375672974064 L 3.3333333333333335 0.0 L 5.0 0.0" style="vector-effect: non-scaling-stroke;" /></g><g transform="matrix(1.0, 0.0, 0.0, 1.0, 0.0, 0.0)"><g transform="matrix(0.0, -1.0, 1.0, 0.0, 0.0, 0.0)"><g /></g></g></g><g transform="matrix(1.0, 0.0, 0.0, 1.0, 0.0, 1.443375672974064)"><g style="stroke: black;stroke-width: 0.1536;" transform="matrix(1.0, 0.0, 0.0, 1.0, 0.0, 0.0)"><path d="M 0.0 0.0 L 0.0 0.0 L 0.5555555555555555 0.0 L 0.8333333333333333 -0.481125224324688 L 1.1111111111111112 0.0 L 1.6666666666666665 0.0 L 1.9444444444444442 -0.481125224324688 L 1.6666666666666665 -0.9622504486493761 L 2.222222222222222 -0.9622504486493761 L 2.4999999999999996 -1.443375672974064 L 2.7777777777777772 -0.9622504486493761 L 3.3333333333333326 -0.9622504486493761 L 3.055555555555555 -0.481125224324688 L 3.3333333333333326 0.0 L 3.888888888888888 0.0 L 4.166666666666666 -0.481125224324688 L 4.444444444444444 0.0 L 4.999999999999999 0.0" style="vector-effect: non-scaling-stroke;" /></g></g></g><g transform="matrix(1.0, 0.0, 0.0, 1.0, 0.0, 1.443375672974064)"><g transform="matrix(0.0, -1.0, 1.0, 0.0, 0.0, 0.0)"><g /></g></g></g><g transform="matrix(1.0, 0.0, 0.0, 1.0, 0.0, 2.886751345948128)"><g style="stroke: black;stroke-width: 0.1536;" transform="matrix(1.0, 0.0, 0.0, 1.0, 0.0, 0.0)"><path d="M 0.0 0.0 L 0.0 0.0 L 0.18518518518518515 0.0 L 0.27777777777777773 -0.160375074774896 L 0.37037037037037035 0.0 L 0.5555555555555555 0.0 L 0.648148148148148 -0.160375074774896 L 0.5555555555555555 -0.32075014954979203 L 0.7407407407407406 -0.32075014954979203 L 0.8333333333333331 -0.481125224324688 L 0.9259259259259257 -0.32075014954979203 L 1.111111111111111 -0.32075014954979203 L 1.0185185185185184 -0.160375074774896 L 1.111111111111111 0.0 L 1.296296296296296 0.0 L 1.3888888888888886 -0.160375074774896 L 1.4814814814814812 0.0 L 1.6666666666666663 0.0 L 1.7592592592592589 -0.16037507477489601 L 1.6666666666666663 -0.32075014954979203 L 1.8518518518518514 -0.32075014954979203 L 1.944444444444444 -0.48112522432468807 L 1.8518518518518514 -0.6415002990995841 L 1.6666666666666663 -0.6415002990995842 L 1.7592592592592589 -0.8018753738744802 L 1.6666666666666663 -0.9622504486493761 L 1.8518518518518514 -0.9622504486493761 L 1.944444444444444 -1.1226255234242721 L 2.0370370370370368 -0.9622504486493761 L 2.222222222222222 -0.9622504486493761 L 2.3148148148148144 -1.1226255234242721 L 2.222222222222222 -1.2830005981991681 L 2.407407407407407 -1.2830005981991681 L 2.4999999999999996 -1.443375672974064 L 2.592592592592592 -1.2830005981991681 L 2.7777777777777772 -1.2830005981991681 L 2.6851851851851847 -1.1226255234242721 L 2.7777777777777772 -0.9622504486493761 L 2.9629629629629624 -0.9622504486493761 L 3.055555555555555 -1.1226255234242721 L 3.1481481481481475 -0.9622504486493761 L 3.3333333333333326 -0.9622504486493761 L 3.24074074074074 -0.8018753738744802 L 3.3333333333333326 -0.6415002990995842 L 3.1481481481481475 -0.6415002990995841 L 3.055555555555555 -0.48112522432468807 L 3.1481481481481475 -0.3207501495497921 L 3.3333333333333326 -0.3207501495497921 L 3.24074074074074 -0.16037507477489607 L 3.3333333333333326 -5.551115123125783e-17 L 3.5185185185185177 -5.551115123125783e-17 L 3.6111111111111103 -0.16037507477489604 L 3.703703703703703 -5.551115123125783e-17 L 3.888888888888888 -5.551115123125783e-17 L 3.9814814814814805 -0.16037507477489604 L 3.888888888888888 -0.3207501495497921 L 4.0740740740740735 -0.3207501495497921 L 4.166666666666666 -0.48112522432468807 L 4.259259259259259 -0.3207501495497921 L 4.444444444444444 -0.3207501495497921 L 4.351851851851851 -0.16037507477489604 L 4.444444444444444 -5.551115123125783e-17 L 4.629629629629629 -5.551115123125783e-17 L 4.722222222222221 -0.16037507477489604 L 4.814814814814814 -5.551115123125783e-17 L 4.999999999999999 -5.551115123125783e-17" style="vector-effect: non-scaling-stroke;" /></g></g></g><g transform="matrix(1.0, 0.0, 0.0, 1.0, 0.0, 2.886751345948128)"><g transform="matrix(0.0, -1.0, 1.0, 0.0, 0.0, 0.0)"><g /></g></g></g><g transform="matrix(1.0, 0.0, 0.0, 1.0, 0.0, 4.330127018922192)"><g style="stroke: black;stroke-width: 0.1536;" transform="matrix(1.0, 0.0, 0.0, 1.0, 0.0, 0.0)"><path d="M 0.0 0.0 L 0.0 0.0 L 0.06172839506172838 0.0 L 0.09259259259259257 -0.05345835825829866 L 0.12345679012345677 0.0 L 0.18518518518518515 0.0 L 0.21604938271604934 -0.05345835825829866 L 0.18518518518518517 -0.10691671651659734 L 0.24691358024691357 -0.10691671651659734 L 0.2777777777777778 -0.160375074774896 L 0.308641975308642 -0.10691671651659733 L 0.3703703703703704 -0.10691671651659733 L 0.33950617283950624 -0.05345835825829865 L 0.37037037037037046 6.938893903907228e-18 L 0.43209876543209885 6.938893903907228e-18 L 0.462962962962963 -0.05345835825829865 L 0.49382716049382724 6.938893903907228e-18 L 0.5555555555555556 6.938893903907228e-18 L 0.5864197530864198 -0.053458358258298665 L 0.5555555555555556 -0.10691671651659734 L 0.6172839506172839 -0.10691671651659734 L 0.6481481481481481 -0.16037507477489601 L 0.6172839506172839 -0.2138334330331947 L 0.5555555555555556 -0.21383343303319471 L 0.5864197530864198 -0.2672917912914934 L 0.5555555555555556 -0.3207501495497921 L 0.6172839506172839 -0.3207501495497921 L 0.6481481481481481 -0.3742085078080908 L 0.6790123456790124 -0.32075014954979214 L 0.7407407407407407 -0.32075014954979214 L 0.7716049382716049 -0.3742085078080908 L 0.7407407407407407 -0.4276668660663895 L 0.802469135802469 -0.4276668660663895 L 0.8333333333333333 -0.4811252243246882 L 0.8641975308641975 -0.4276668660663895 L 0.9259259259259258 -0.4276668660663895 L 0.8950617283950616 -0.3742085078080908 L 0.9259259259259258 -0.3207501495497921 L 0.9876543209876542 -0.3207501495497921 L 1.0185185185185184 -0.37420850780809073 L 1.0493827160493825 -0.3207501495497921 L 1.111111111111111 -0.3207501495497921 L 1.0802469135802468 -0.2672917912914934 L 1.111111111111111 -0.21383343303319471 L 1.0493827160493825 -0.2138334330331947 L 1.0185185185185184 -0.16037507477489601 L 1.0493827160493825 -0.10691671651659734 L 1.111111111111111 -0.10691671651659734 L 1.0802469135802468 -0.05345835825829867 L 1.111111111111111 0.0 L 1.1728395061728394 0.0 L 1.2037037037037035 -0.05345835825829866 L 1.2345679012345676 0.0 L 1.296296296296296 0.0 L 1.3271604938271602 -0.05345835825829866 L 1.296296296296296 -0.10691671651659734 L 1.3580246913580245 -0.10691671651659734 L 1.3888888888888886 -0.160375074774896 L 1.4197530864197527 -0.10691671651659733 L 1.4814814814814812 -0.10691671651659733 L 1.450617283950617 -0.05345835825829865 L 1.4814814814814812 6.938893903907228e-18 L 1.5432098765432096 6.938893903907228e-18 L 1.5740740740740737 -0.05345835825829865 L 1.6049382716049378 6.938893903907228e-18 L 1.6666666666666663 6.938893903907228e-18 L 1.6975308641975304 -0.05345835825829866 L 1.6666666666666663 -0.10691671651659733 L 1.7283950617283947 -0.10691671651659733 L 1.7592592592592589 -0.160375074774896 L 1.7283950617283947 -0.21383343303319466 L 1.6666666666666663 -0.2138334330331947 L 1.6975308641975304 -0.26729179129149333 L 1.6666666666666663 -0.320750149549792 L 1.7283950617283947 -0.320750149549792 L 1.7592592592592589 -0.3742085078080906 L 1.790123456790123 -0.320750149549792 L 1.8518518518518514 -0.320750149549792 L 1.8827160493827155 -0.3742085078080906 L 1.8518518518518514 -0.42766686606638926 L 1.9135802469135799 -0.42766686606638926 L 1.944444444444444 -0.4811252243246879 L 1.9135802469135799 -0.5345835825829865 L 1.8518518518518514 -0.5345835825829865 L 1.8827160493827155 -0.5880419408412852 L 1.8518518518518514 -0.641500299099584 L 1.790123456790123 -0.641500299099584 L 1.7592592592592589 -0.5880419408412854 L 1.7283950617283947 -0.6415002990995841 L 1.6666666666666663 -0.6415002990995841 L 1.6975308641975304 -0.6949586573578828 L 1.6666666666666663 -0.7484170156161815 L 1.7283950617283947 -0.7484170156161815 L 1.7592592592592589 -0.8018753738744802 L 1.7283950617283947 -0.8553337321327789 L 1.6666666666666663 -0.8553337321327789 L 1.6975308641975304 -0.9087920903910776 L 1.6666666666666663 -0.9622504486493763 L 1.7283950617283947 -0.9622504486493763 L 1.7592592592592589 -1.015708806907675 L 1.790123456790123 -0.9622504486493763 L 1.8518518518518514 -0.9622504486493763 L 1.8827160493827155 -1.015708806907675 L 1.8518518518518514 -1.0691671651659735 L 1.9135802469135799 -1.0691671651659735 L 1.944444444444444 -1.1226255234242721 L 1.975308641975308 -1.0691671651659735 L 2.0370370370370363 -1.0691671651659735 L 2.006172839506172 -1.015708806907675 L 2.0370370370370363 -0.9622504486493763 L 2.0987654320987645 -0.9622504486493763 L 2.129629629629629 -1.015708806907675 L 2.160493827160493 -0.9622504486493763 L 2.2222222222222214 -0.9622504486493763 L 2.2530864197530858 -1.015708806907675 L 2.2222222222222214 -1.0691671651659735 L 2.2839506172839497 -1.0691671651659735 L 2.314814814814814 -1.1226255234242721 L 2.2839506172839497 -1.1760838816825707 L 2.2222222222222214 -1.1760838816825707 L 2.2530864197530858 -1.2295422399408693 L 2.2222222222222214 -1.283000598199168 L 2.2839506172839497 -1.283000598199168 L 2.314814814814814 -1.3364589564574665 L 2.3456790123456783 -1.283000598199168 L 2.4074074074074066 -1.283000598199168 L 2.438271604938271 -1.3364589564574665 L 2.4074074074074066 -1.389917314715765 L 2.4691358024691348 -1.389917314715765 L 2.499999999999999 -1.4433756729740637 L 2.5308641975308634 -1.389917314715765 L 2.5925925925925917 -1.389917314715765 L 2.5617283950617273 -1.3364589564574665 L 2.5925925925925917 -1.283000598199168 L 2.65432098765432 -1.283000598199168 L 2.6851851851851842 -1.3364589564574665 L 2.7160493827160486 -1.283000598199168 L 2.777777777777777 -1.283000598199168 L 2.7469135802469125 -1.2295422399408693 L 2.777777777777777 -1.1760838816825707 L 2.7160493827160486 -1.1760838816825707 L 2.6851851851851842 -1.1226255234242721 L 2.7160493827160486 -1.0691671651659735 L 2.777777777777777 -1.0691671651659735 L 2.7469135802469125 -1.015708806907675 L 2.777777777777777 -0.9622504486493763 L 2.839506172839505 -0.9622504486493763 L 2.8703703703703694 -1.015708806907675 L 2.9012345679012337 -0.9622504486493763 L 2.962962962962962 -0.9622504486493763 L 2.9938271604938262 -1.015708806907675 L 2.962962962962962 -1.0691671651659735 L 3.02469135802469 -1.0691671651659735 L 3.0555555555555545 -1.1226255234242721 L 3.086419753086419 -1.0691671651659735 L 3.148148148148147 -1.0691671651659735 L 3.1172839506172827 -1.015708806907675 L 3.148148148148147 -0.9622504486493763 L 3.2098765432098753 -0.9622504486493763 L 3.2407407407407396 -1.015708806907675 L 3.271604938271604 -0.9622504486493763 L 3.333333333333332 -0.9622504486493763 L 3.302469135802468 -0.9087920903910776 L 3.333333333333332 -0.8553337321327789 L 3.271604938271604 -0.8553337321327789 L 3.2407407407407396 -0.8018753738744802 L 3.271604938271604 -0.7484170156161815 L 3.333333333333332 -0.7484170156161815 L 3.302469135802468 -0.6949586573578828 L 3.333333333333332 -0.6415002990995841 L 3.271604938271604 -0.6415002990995841 L 3.2407407407407396 -0.5880419408412854 L 3.2098765432098753 -0.641500299099584 L 3.148148148148147 -0.641500299099584 L 3.1172839506172827 -0.5880419408412852 L 3.148148148148147 -0.5345835825829865 L 3.086419753086419 -0.5345835825829865 L 3.0555555555555545 -0.48112522432468785 L 3.086419753086419 -0.4276668660663892 L 3.148148148148147 -0.4276668660663892 L 3.1172839506172827 -0.37420850780809056 L 3.148148148148147 -0.3207501495497919 L 3.2098765432098753 -0.3207501495497919 L 3.2407407407407396 -0.37420850780809056 L 3.271604938271604 -0.3207501495497919 L 3.333333333333332 -0.3207501495497919 L 3.302469135802468 -0.2672917912914933 L 3.333333333333332 -0.2138334330331946 L 3.271604938271604 -0.21383343303319458 L 3.2407407407407396 -0.1603750747748959 L 3.271604938271604 -0.10691671651659723 L 3.333333333333332 -0.10691671651659723 L 3.302469135802468 -0.05345835825829856 L 3.333333333333332 1.0408340855860843e-16 L 3.3950617283950604 1.0408340855860843e-16 L 3.4259259259259247 -0.053458358258298554 L 3.456790123456789 1.0408340855860843e-16 L 3.5185185185185173 1.0408340855860843e-16 L 3.5493827160493816 -0.053458358258298554 L 3.5185185185185173 -0.10691671651659723 L 3.5802469135802455 -0.10691671651659723 L 3.61111111111111 -0.16037507477489588 L 3.641975308641974 -0.10691671651659722 L 3.7037037037037024 -0.10691671651659722 L 3.672839506172838 -0.05345835825829854 L 3.7037037037037024 1.1796119636642288e-16 L 3.7654320987654306 1.1796119636642288e-16 L 3.796296296296295 -0.05345835825829854 L 3.8271604938271593 1.1796119636642288e-16 L 3.8888888888888875 1.1796119636642288e-16 L 3.919753086419752 -0.053458358258298554 L 3.8888888888888875 -0.10691671651659723 L 3.9506172839506157 -0.10691671651659723 L 3.98148148148148 -0.1603750747748959 L 3.9506172839506157 -0.21383343303319458 L 3.8888888888888875 -0.2138334330331946 L 3.919753086419752 -0.2672917912914933 L 3.8888888888888875 -0.320750149549792 L 3.9506172839506157 -0.320750149549792 L 3.98148148148148 -0.3742085078080907 L 4.012345679012344 -0.32075014954979203 L 4.074074074074073 -0.32075014954979203 L 4.1049382716049365 -0.3742085078080907 L 4.074074074074073 -0.4276668660663894 L 4.135802469135801 -0.4276668660663894 L 4.166666666666665 -0.48112522432468807 L 4.197530864197529 -0.4276668660663894 L 4.259259259259258 -0.4276668660663894 L 4.228395061728394 -0.3742085078080907 L 4.259259259259258 -0.320750149549792 L 4.320987654320986 -0.320750149549792 L 4.35185185185185 -0.3742085078080906 L 4.382716049382714 -0.320750149549792 L 4.444444444444443 -0.320750149549792 L 4.413580246913579 -0.2672917912914933 L 4.444444444444443 -0.2138334330331946 L 4.382716049382714 -0.21383343303319458 L 4.35185185185185 -0.1603750747748959 L 4.382716049382714 -0.10691671651659723 L 4.444444444444443 -0.10691671651659723 L 4.413580246913579 -0.05345835825829856 L 4.444444444444443 1.1102230246251565e-16 L 4.5061728395061715 1.1102230246251565e-16 L 4.537037037037035 -0.05345835825829855 L 4.567901234567899 1.1102230246251565e-16 L 4.629629629629628 1.1102230246251565e-16 L 4.660493827160492 -0.05345835825829855 L 4.629629629629628 -0.10691671651659723 L 4.691358024691357 -0.10691671651659723 L 4.7222222222222205 -0.16037507477489588 L 4.753086419753084 -0.10691671651659722 L 4.814814814814813 -0.10691671651659722 L 4.783950617283949 -0.05345835825829854 L 4.814814814814813 1.1796119636642288e-16 L 4.876543209876542 1.1796119636642288e-16 L 4.907407407407406 -0.05345835825829854 L 4.9382716049382696 1.1796119636642288e-16 L 4.999999999999998 1.1796119636642288e-16" style="vector-effect: non-scaling-stroke;" /></g></g></g></g><g /></g></g></g></g></svg>