<?xml version="1.0" encoding="utf-8" ?>
<svg baseProfile="full" height="512" version="1.1" width="443" xmlns="http://www.w3.org/2000/svg" xmlns:ev="http://www.w3.org/2001/xml-events" xmlns:xlink="http://www.w3.org/1999/xlink"><defs><marker id="arrow" markerHeight="3.5" markerWidth="5" orient="auto" refX="5.0" refY="1.7"><polygon points="0,0 5,1.75 0,3.5" /></marker></defs><g style="fill:white;"><g transform="matrix(1.0, 0.0, 0.0, 1.0, 221.49998474121094, 255.7714080810547)"><g transform="matrix(84.38445281982422, 0.0, 0.0, 84.38445281982422, 0.0, 0.0)"><g><g transform="matrix(1.0, 0.0, 0.0, 1.0, -2.499790906906128, -1.4433622360229492)"><g><g style="stroke: black;stroke-width: 0.1536;" transform="matrix(1.0, 0.0, 0.0, 1.0, 0.0, 0.0)"><path d="M 0.0 0.0 A 482.7182312011719 2413.59130859375 -90.00000762939453 0 1 1.666561245918274 0.0 A 482.71826171875 2413.59130859375 -150.00001525878906 0 1 2.499847412109375 -1.4432830810546875 A 482.71826171875 2413.59130859375 -30.000009536743164 0 1 3.3331298828125 1.52587890625e-05 A 482.7182312011719 2413.59130859375 -90.00000762939453 0 1 4.999687194824219 0.0" style="vector-effect: non-scaling-stroke;fill:none;" /></g><g transform="matrix(1.0, 0.0, 0.0, 1.0, 0.0, 9.1552734375e-05)"><g transform="matrix(-4.371138828673793e-08, -1.0, 1.0, -4.371138828673793e-08, 0.0, 0.0)"><g /></g></g><g transform="matrix(1.0, 0.0, 0.0, 1.0, 0.0, 1.4433822631835938)"><g><g style="stroke: black;stroke-width: 0.1536;" transform="matrix(1.0, 0.0, 0.0, 1.0, 0.0, 0.0)"><path d="M 0.0 0.0 A 160.9060821533203 804.5304565429688 -90.00000762939453 0 1 0.5555204153060913 0.0 A 160.9060821533203 804.5304565429688 -150.00001525878906 0 1 0.833282470703125 -0.48108673095703125 A 160.90609741210938 804.5304565429688 -30.0000057220459 0 1 1.1110382080078125 1.52587890625e-05 A 160.9060821533203 804.5304565429688 -90.00000762939453 0 1 1.6665523052215576 1.52587890625e-05 A 160.9060821533203 804.5304565429688 -150.00001525878906 0 1 1.944305419921875 -0.4810791015625 A 160.9060821533203 804.5304565429688 149.99996948242188 0 1 1.6665496826171875 -0.9621658325195312 A 160.90609741210938 804.5304565429688 -90.00000762939453 0 1 2.2220797538757324 -0.9621734619140625 A 160.9060821533203 804.5304565429688 -150.00001525878906 0 1 2.4998321533203125 -1.4432601928710938 A 160.9060821533203 804.5304565429688 -30.000009536743164 0 1 2.777587890625 -0.9621658325195312 A 160.90609741210938 804.5304565429688 -90.00000762939453 0 1 3.3331034183502197 -0.9621734619140625 A 160.9060821533203 804.5304565429688 29.99999237060547 0 1 3.055328369140625 -0.48107147216796875 A 160.9060821533203 804.5304565429688 -30.000009536743164 0 1 3.3330841064453125 2.288818359375e-05 A 160.9060821533203 804.5304565429688 -90.00000762939453 0 1 3.88860821723938 3.0517578125e-05 A 160.9060821533203 804.5304565429688 -150.00001525878906 0 1 4.1663665771484375 -0.4810638427734375 A 160.90609741210938 804.5304565429688 -30.0000057220459 0 1 4.444122314453125 3.814697265625e-05 A 160.9060821533203 804.5304565429688 -90.00000762939453 0 1 4.999640464782715 3.0517578125e-05" style="vector-effect: non-scaling-stroke;fill:none;" /></g><g transform="matrix(1.0, 0.0, 0.0, 1.0, 0.0, 6.103515625e-05)"><g transform="matrix(-4.371138828673793e-08, -1.0, 1.0, -4.371138828673793e-08, 0.0, 0.0)"><g /></g></g><g style="stroke: black;stroke-width: 0.1536;" transform="matrix(1.0, 0.0, 0.0, 1.0, 0.0, 1.4433536529541016)"><path d="M 0.0 0.0 A 53.63536071777344 268.17681884765625 -90.00000762939453 0 1 0.18517348170280457 0.0 A 53.6353645324707 268.17681884765625 -150.00001525878906 0 1 0.2777557373046875 -0.16036224365234375 A 53.6353645324707 268.17681884765625 -30.0000057220459 0 1 0.3703422546386719 3.814697265625e-06 A 53.63536071777344 268.17681884765625 -90.00000762939453 0 1 0.5555161833763123 3.814697265625e-06 A 53.6353645324707 268.17681884765625 -150.00001525878906 0 1 0.6480979919433594 -0.16036224365234375 A 53.6353645324707 268.17681884765625 149.99996948242188 0 1 0.555511474609375 -0.3207225799560547 A 53.63536834716797 268.17681884765625 -90.00000762939453 0 1 0.740688145160675 -0.3207283020019531 A 53.6353645324707 268.17681884765625 -150.00001525878906 0 1 0.8332710266113281 -0.4810924530029297 A 53.63536071777344 268.17681884765625 -30.000009536743164 0 1 0.9258575439453125 -0.3207283020019531 A 53.63536834716797 268.17681884765625 -90.00000762939453 0 1 1.1110280752182007 -0.32073211669921875 A 53.6353645324707 268.17681884765625 29.99999237060547 0 1 1.0184402465820312 -0.1603679656982422 A 53.63536071777344 268.17681884765625 -30.000009536743164 0 1 1.1110267639160156 -3.814697265625e-06 A 53.63536071777344 268.17681884765625 -90.00000762939453 0 1 1.2962015867233276 -3.814697265625e-06 A 53.6353645324707 268.17681884765625 -150.00001525878906 0 1 1.3887825012207031 -0.16036605834960938 A 53.6353645324707 268.17681884765625 -30.0000057220459 0 1 1.4813690185546875 0.0 A 53.63536071777344 268.17681884765625 -90.00000762939453 0 1 1.6665441989898682 0.0 A 53.63536071777344 268.17681884765625 -150.00001525878906 0 1 1.7591323852539062 -0.16036415100097656 A 53.6353645324707 268.1768493652344 149.99996948242188 0 1 1.6665458679199219 -0.3207263946533203 A 53.63536834716797 268.1768493652344 -90.00000762939453 0 1 1.8517199754714966 -0.3207283020019531 A 53.63536071777344 268.17681884765625 -150.00001525878906 0 1 1.944305419921875 -0.4810943603515625 A 53.6353645324707 268.1768493652344 149.99996948242188 0 1 1.851715087890625 -0.6414585113525391 A 53.63536834716797 268.17681884765625 89.99996948242188 0 1 1.6665452718734741 -0.6414604187011719 A 53.63536834716797 268.17681884765625 -150.00001525878906 0 1 1.7591285705566406 -0.8018264770507812 A 53.6353645324707 268.1768493652344 149.99996948242188 0 1 1.6665382385253906 -0.9621906280517578 A 53.6353645324707 268.1768493652344 -90.00000762939453 0 1 1.8517118692398071 -0.962188720703125 A 53.63536834716797 268.17681884765625 -150.00001525878906 0 1 1.9442939758300781 -1.1225547790527344 A 53.6353645324707 268.17681884765625 -30.000009536743164 0 1 2.036876678466797 -0.962188720703125 A 53.6353645324707 268.1768493652344 -90.00000762939453 0 1 2.2220513820648193 -0.962188720703125 A 53.63536071777344 268.17681884765625 -150.00001525878906 0 1 2.31463623046875 -1.1225528717041016 A 53.6353645324707 268.1768493652344 149.99996948242188 0 1 2.2220497131347656 -1.2829151153564453 A 53.63536834716797 268.1768493652344 -90.00000762939453 0 1 2.407227039337158 -1.2829170227050781 A 53.63536071777344 268.17681884765625 -150.00001525878906 0 1 2.4998130798339844 -1.4432830810546875 A 53.63536071777344 268.17681884765625 -30.000009536743164 0 1 2.5923995971679688 -1.2829170227050781 A 53.6353645324707 268.1768493652344 -90.00000762939453 0 1 2.7775702476501465 -1.2829170227050781 A 53.63536834716797 268.1768493652344 29.999996185302734 0 1 2.6849822998046875 -1.1225471496582031 A 53.63536071777344 268.17681884765625 -30.000009536743164 0 1 2.777568817138672 -0.9621810913085938 A 53.6353645324707 268.1768493652344 -90.00000762939453 0 1 2.9627435207366943 -0.9621810913085938 A 53.63536834716797 268.17681884765625 -150.00001525878906 0 1 3.0553207397460938 -1.1225433349609375 A 53.63536834716797 268.17681884765625 -30.000009536743164 0 1 3.1479110717773438 -0.9621791839599609 A 53.6353645324707 268.1768493652344 -90.00000762939453 0 1 3.3330862522125244 -0.9621810913085938 A 53.63536071777344 268.1768493652344 29.99999237060547 0 1 3.2405014038085938 -0.8018150329589844 A 53.63536834716797 268.17681884765625 -30.000009536743164 0 1 3.3330841064453125 -0.6414546966552734 A 53.63536834716797 268.17681884765625 89.99999237060547 0 1 3.1479125022888184 -0.6414527893066406 A 53.63536071777344 268.1768493652344 29.99999237060547 0 1 3.0553245544433594 -0.4810905456542969 A 53.63536071777344 268.17681884765625 -30.000009536743164 0 1 3.1479110717773438 -0.3207244873046875 A 53.6353645324707 268.1768493652344 -90.00000762939453 0 1 3.333082675933838 -0.3207244873046875 A 53.63536834716797 268.1768493652344 29.999996185302734 0 1 3.240497589111328 -0.1603546142578125 A 53.63536071777344 268.17681884765625 -30.000009536743164 0 1 3.3330841064453125 1.1444091796875e-05 A 53.63536071777344 268.17681884765625 -90.00000762939453 0 1 3.518256187438965 1.1444091796875e-05 A 53.6353645324707 268.17681884765625 -150.00001525878906 0 1 3.61083984375 -0.16035079956054688 A 53.6353645324707 268.17681884765625 -30.0000057220459 0 1 3.7034263610839844 1.52587890625e-05 A 53.63536071777344 268.17681884765625 -90.00000762939453 0 1 3.888598918914795 1.52587890625e-05 A 53.6353645324707 268.17681884765625 -150.00001525878906 0 1 3.981182098388672 -0.16035079956054688 A 53.6353645324707 268.17681884765625 149.99996948242188 0 1 3.8885955810546875 -0.3207111358642578 A 53.63536834716797 268.17681884765625 -90.00000762939453 0 1 4.073770999908447 -0.3207130432128906 A 53.6353645324707 268.17681884765625 -150.00001525878906 0 1 4.166355133056641 -0.4810810089111328 A 53.63536071777344 268.17681884765625 -30.000009536743164 0 1 4.258941650390625 -0.32071685791015625 A 53.63536834716797 268.17681884765625 -90.00000762939453 0 1 4.444110870361328 -0.3207206726074219 A 53.6353645324707 268.17681884765625 29.99999237060547 0 1 4.351524353027344 -0.1603565216064453 A 53.63536071777344 268.17681884765625 -30.000009536743164 0 1 4.444110870361328 7.62939453125e-06 A 53.63536071777344 268.17681884765625 -90.00000762939453 0 1 4.629284381866455 7.62939453125e-06 A 53.6353645324707 268.17681884765625 -150.00001525878906 0 1 4.721866607666016 -0.1603546142578125 A 53.6353645324707 268.17681884765625 -30.0000057220459 0 1 4.814453125 1.1444091796875e-05 A 53.63536071777344 268.17681884765625 -90.00000762939453 0 1 4.999626636505127 1.1444091796875e-05" style="vector-effect: non-scaling-stroke;fill:none;" /></g><g transform="matrix(1.0, 0.0, 0.0, 1.0, 0.0, 1.4433765411376953)"><g transform="matrix(-4.371138828673793e-08, -1.0, 1.0, -4.371138828673793e-08, 0.0, 0.0)"><g /></g></g><g style="stroke: black;stroke-width: 0.1536;" transform="matrix(1.0, 0.0, 0.0, 1.0, 0.0, 2.8866472244262695)"><path d="M 0.0 0.0 A 17.878454208374023 89.39227294921875 -90.00000762939453 0 1 0.06172449141740799 0.0 A 17.878456115722656 89.39228057861328 -150.00001525878906 0 1 0.09258556365966797 -0.05345439910888672 A 17.878456115722656 89.39228057861328 -30.0000057220459 0 1 0.12344837188720703 1.9073486328125e-06 A 17.878454208374023 89.39227294921875 -90.00000762939453 0 1 0.1851726919412613 1.9073486328125e-06 A 17.878456115722656 89.39228057861328 -150.00001525878906 0 1 0.216033935546875 -0.05345344543457031 A 17.878456115722656 89.39227294921875 149.99996948242188 0 1 0.18517017364501953 -0.10690784454345703 A 17.878456115722656 89.39227294921875 -90.00000762939453 0 1 0.24689508974552155 -0.10690879821777344 A 17.878456115722656 89.39228057861328 -150.00001525878906 0 1 0.2777557373046875 -0.16036319732666016 A 17.878456115722656 89.39228057861328 -30.000009536743164 0 1 0.30861949920654297 -0.10690784454345703 A 17.878456115722656 89.39227294921875 -90.00000762939453 0 1 0.37034329771995544 -0.10690879821777344 A 17.878456115722656 89.39227294921875 29.999990463256836 0 1 0.3394813537597656 -0.05345344543457031 A 17.878456115722656 89.39228057861328 -30.000009536743164 0 1 0.3703451156616211 1.9073486328125e-06 A 17.878454208374023 89.39227294921875 -90.00000762939453 0 1 0.43206971883773804 1.9073486328125e-06 A 17.878456115722656 89.39228057861328 -150.00001525878906 0 1 0.46293067932128906 -0.053452491760253906 A 17.878456115722656 89.39228057861328 -30.0000057220459 0 1 0.4937934875488281 3.814697265625e-06 A 17.878454208374023 89.39227294921875 -90.00000762939453 0 1 0.5555179119110107 3.814697265625e-06 A 17.878456115722656 89.39227294921875 -150.00001525878906 0 1 0.5863790512084961 -0.0534515380859375 A 17.878456115722656 89.39228057861328 149.99996948242188 0 1 0.555516242980957 -0.10690689086914062 A 17.878456115722656 89.39228820800781 -90.00000762939453 0 1 0.6172412633895874 -0.10690689086914062 A 17.878456115722656 89.39227294921875 -150.00001525878906 0 1 0.6481027603149414 -0.16036224365234375 A 17.878456115722656 89.39228057861328 149.99996948242188 0 1 0.6172380447387695 -0.21381759643554688 A 17.878456115722656 89.39227294921875 89.99996948242188 0 1 0.5555148124694824 -0.2138195037841797 A 17.878456115722656 89.39227294921875 -150.00001525878906 0 1 0.5863771438598633 -0.2672758102416992 A 17.878456115722656 89.39228057861328 149.99996948242188 0 1 0.5555124282836914 -0.32073116302490234 A 17.878456115722656 89.39228820800781 -90.00000762939453 0 1 0.6172366738319397 -0.32073020935058594 A 17.878456115722656 89.39227294921875 -150.00001525878906 0 1 0.6480989456176758 -0.37418556213378906 A 17.878456115722656 89.39227294921875 -30.0000057220459 0 1 0.6789608001708984 -0.32072925567626953 A 17.878456115722656 89.39228820800781 -90.00000762939453 0 1 0.7406851053237915 -0.32073020935058594 A 17.878456115722656 89.39227294921875 -150.00001525878906 0 1 0.7715463638305664 -0.37418460845947266 A 17.878456115722656 89.39228057861328 149.99996948242188 0 1 0.7406835556030273 -0.4276399612426758 A 17.878456115722656 89.39228820800781 -90.00000762939453 0 1 0.8024084568023682 -0.4276409149169922 A 17.878456115722656 89.39227294921875 -150.00001525878906 0 1 0.8332700729370117 -0.4810953140258789 A 17.878456115722656 89.39227294921875 -30.000009536743164 0 1 0.8641338348388672 -0.4276390075683594 A 17.878456115722656 89.39228820800781 -90.00000762939453 0 1 0.925857424736023 -0.4276390075683594 A 17.878456115722656 89.39228057861328 29.999996185302734 0 1 0.8949956893920898 -0.37418174743652344 A 17.878456115722656 89.39227294921875 -30.000009536743164 0 1 0.9258594512939453 -0.3207254409790039 A 17.878456115722656 89.39228820800781 -90.00000762939453 0 1 0.9875837564468384 -0.3207263946533203 A 17.878456115722656 89.39227294921875 -150.00001525878906 0 1 1.0184431076049805 -0.3741798400878906 A 17.878456115722656 89.39227294921875 -30.000009536743164 0 1 1.0493078231811523 -0.3207244873046875 A 17.878456115722656 89.39228820800781 -90.00000762939453 0 1 1.1110321283340454 -0.3207244873046875 A 17.878454208374023 89.39228057861328 29.999996185302734 0 1 1.0801687240600586 -0.2672691345214844 A 17.878456115722656 89.39227294921875 -30.000009536743164 0 1 1.1110315322875977 -0.21381473541259766 A 17.878456115722656 89.39227294921875 89.99999237060547 0 1 1.0493074655532837 -0.21381568908691406 A 17.878454208374023 89.39228057861328 29.999996185302734 0 1 1.0184450149536133 -0.16036128997802734 A 17.878456115722656 89.39227294921875 -30.000009536743164 0 1 1.0493087768554688 -0.10690498352050781 A 17.878456115722656 89.39228820800781 -90.00000762939453 0 1 1.1110317707061768 -0.10690498352050781 A 17.878456115722656 89.39228057861328 29.999996185302734 0 1 1.080169677734375 -0.053447723388671875 A 17.878456115722656 89.39227294921875 -30.000009536743164 0 1 1.1110334396362305 8.58306884765625e-06 A 17.878454208374023 89.39227294921875 -90.00000762939453 0 1 1.1727582216262817 7.62939453125e-06 A 17.878456115722656 89.39228057861328 -150.00001525878906 0 1 1.2036190032958984 -0.05344581604003906 A 17.878456115722656 89.39228057861328 -30.0000057220459 0 1 1.2344818115234375 1.049041748046875e-05 A 17.878454208374023 89.39227294921875 -90.00000762939453 0 1 1.2962063550949097 1.1444091796875e-05 A 17.878456115722656 89.39228057861328 -150.00001525878906 0 1 1.327066421508789 -0.053444862365722656 A 17.878456115722656 89.39227294921875 149.99996948242188 0 1 1.2962026596069336 -0.10689926147460938 A 17.878456115722656 89.39227294921875 -90.00000762939453 0 1 1.35792875289917 -0.10689926147460938 A 17.878456115722656 89.39228057861328 -150.00001525878906 0 1 1.3887901306152344 -0.1603546142578125 A 17.878456115722656 89.39228057861328 -30.000009536743164 0 1 1.4196538925170898 -0.10689926147460938 A 17.878456115722656 89.39227294921875 -90.00000762939453 0 1 1.4813770055770874 -0.10689926147460938 A 17.878456115722656 89.39227294921875 29.999990463256836 0 1 1.450514793395996 -0.053444862365722656 A 17.878456115722656 89.39228057861328 -30.000009536743164 0 1 1.4813785552978516 1.049041748046875e-05 A 17.878454208374023 89.39227294921875 -90.00000762939453 0 1 1.5431034564971924 1.1444091796875e-05 A 17.878456115722656 89.39228057861328 -150.00001525878906 0 1 1.573965072631836 -0.05344390869140625 A 17.878456115722656 89.39228057861328 -30.0000057220459 0 1 1.6048269271850586 1.239776611328125e-05 A 17.878454208374023 89.39227294921875 -90.00000762939453 0 1 1.6665515899658203 1.1444091796875e-05 A 17.878456115722656 89.39227294921875 -150.00001525878906 0 1 1.697413444519043 -0.053442955017089844 A 17.878456115722656 89.39228057861328 149.99996948242188 0 1 1.666550636291504 -0.10689735412597656 A 17.878456115722656 89.39228057861328 -90.00000762939453 0 1 1.7282757759094238 -0.10689735412597656 A 17.878456115722656 89.39227294921875 -150.00001525878906 0 1 1.7591371536254883 -0.1603527069091797 A 17.878456115722656 89.39228057861328 149.99996948242188 0 1 1.7282743453979492 -0.2138071060180664 A 17.878456115722656 89.39228057861328 89.99996948242188 0 1 1.6665499210357666 -0.2138080596923828 A 17.878456115722656 89.39227294921875 -150.00001525878906 0 1 1.6974115371704102 -0.26726245880126953 A 17.878456115722656 89.39228057861328 149.99996948242188 0 1 1.666548728942871 -0.32071685791015625 A 17.878454208374023 89.39228057861328 -90.00000762939453 0 1 1.728272795677185 -0.32071685791015625 A 17.878456115722656 89.39227294921875 -150.00001525878906 0 1 1.7591333389282227 -0.37417125701904297 A 17.878456115722656 89.39227294921875 -30.000009536743164 0 1 1.7899961471557617 -0.32071685791015625 A 17.878454208374023 89.39228057861328 -90.00000762939453 0 1 1.8517212867736816 -0.32071685791015625 A 17.878456115722656 89.39227294921875 -150.00001525878906 0 1 1.882582664489746 -0.3741722106933594 A 17.878456115722656 89.39228057861328 149.99996948242188 0 1 1.851719856262207 -0.4276266098022461 A 17.878456115722656 89.39228057861328 -90.00000762939453 0 1 1.9134454727172852 -0.4276256561279297 A 17.878456115722656 89.39227294921875 -150.00001525878906 0 1 1.9443063735961914 -0.4810819625854492 A 17.878456115722656 89.39227294921875 149.99996948242188 0 1 1.9134445190429688 -0.5345363616943359 A 17.878456115722656 89.39228820800781 89.9999771118164 0 1 1.851719617843628 -0.5345363616943359 A 17.878456115722656 89.39228057861328 -150.0 0 1 1.8825817108154297 -0.5879926681518555 A 17.878456115722656 89.39227294921875 149.99996948242188 0 1 1.8517189025878906 -0.6414470672607422 A 17.878456115722656 89.39228820800781 89.9999771118164 0 1 1.7899943590164185 -0.6414451599121094 A 17.878456115722656 89.39227294921875 29.999971389770508 0 1 1.7591314315795898 -0.5879917144775391 A 17.878456115722656 89.39227294921875 149.99996948242188 0 1 1.7282676696777344 -0.6414480209350586 A 17.878456115722656 89.39228820800781 89.9999771118164 0 1 1.666542649269104 -0.6414470672607422 A 17.878456115722656 89.39228057861328 -150.00001525878906 0 1 1.697403907775879 -0.6949014663696289 A 17.878456115722656 89.39227294921875 149.99996948242188 0 1 1.6665420532226562 -0.748356819152832 A 17.878456115722656 89.39228057861328 -90.00000762939453 0 1 1.7282663583755493 -0.7483539581298828 A 17.878456115722656 89.39228057861328 -150.00001525878906 0 1 1.7591276168823242 -0.8018102645874023 A 17.878456115722656 89.39227294921875 149.99996948242188 0 1 1.7282657623291016 -0.8552646636962891 A 17.878456115722656 89.39228820800781 89.9999771118164 0 1 1.6665406227111816 -0.8552646636962891 A 17.878456115722656 89.39228057861328 -150.0 0 1 1.6974029541015625 -0.9087209701538086 A 17.878456115722656 89.39227294921875 149.99996948242188 0 1 1.6665401458740234 -0.9621753692626953 A 17.878454208374023 89.39228057861328 -90.00000762939453 0 1 1.7282662391662598 -0.9621753692626953 A 17.878456115722656 89.39228820800781 -150.00001525878906 0 1 1.7591276168823242 -1.015629768371582 A 17.87845802307129 89.39228820800781 -30.0000057220459 0 1 1.7899932861328125 -0.9621744155883789 A 17.878454208374023 89.39228057861328 -90.00000762939453 0 1 1.8517183065414429 -0.9621734619140625 A 17.878456115722656 89.39228820800781 -150.00001525878906 0 1 1.8825807571411133 -1.015629768371582 A 17.878456115722656 89.39227294921875 149.99996948242188 0 1 1.8517169952392578 -1.0690832138061523 A 17.87845802307129 89.39228057861328 -90.00000762939453 0 1 1.9134411811828613 -1.0690841674804688 A 17.878456115722656 89.39228820800781 -150.00001525878906 0 1 1.9443025588989258 -1.1225404739379883 A 17.878456115722656 89.39228820800781 -30.000003814697266 0 1 1.9751663208007812 -1.0690841674804688 A 17.87845802307129 89.39228057861328 -90.00000762939453 0 1 2.03688907623291 -1.0690841674804688 A 17.878456115722656 89.39227294921875 29.999996185302734 0 1 2.0060253143310547 -1.015629768371582 A 17.878456115722656 89.39228820800781 -30.000003814697266 0 1 2.0368881225585938 -0.9621734619140625 A 17.878454208374023 89.39228057861328 -90.00000762939453 0 1 2.098613739013672 -0.9621734619140625 A 17.878456115722656 89.39228820800781 -150.00001525878906 0 1 2.1294755935668945 -1.0156278610229492 A 17.87845802307129 89.39228820800781 -30.0000057220459 0 1 2.1603403091430664 -0.9621725082397461 A 17.878454208374023 89.39228057861328 -90.00000762939453 0 1 2.2220656871795654 -0.9621734619140625 A 17.878456115722656 89.39227294921875 -150.00001525878906 0 1 2.252926826477051 -1.0156278610229492 A 17.878456115722656 89.39228057861328 149.99996948242188 0 1 2.2220659255981445 -1.069082260131836 A 17.878456115722656 89.39228057861328 -90.00000762939453 0 1 2.283789873123169 -1.069082260131836 A 17.878456115722656 89.39227294921875 -150.00001525878906 0 1 2.314652442932129 -1.122537612915039 A 17.878456115722656 89.39228057861328 149.99996948242188 0 1 2.283787727355957 -1.1759920120239258 A 17.878456115722656 89.39228057861328 89.99996948242188 0 1 2.22206449508667 -1.1759929656982422 A 17.878456115722656 89.39227294921875 -150.00001525878906 0 1 2.252926826477051 -1.229447364807129 A 17.878456115722656 89.39228057861328 149.99996948242188 0 1 2.222062110900879 -1.2829017639160156 A 17.878454208374023 89.39228057861328 -90.00000762939453 0 1 2.2837870121002197 -1.2829017639160156 A 17.878456115722656 89.39227294921875 -150.00001525878906 0 1 2.3146486282348633 -1.3363561630249023 A 17.878456115722656 89.39227294921875 -30.000009536743164 0 1 2.345510482788086 -1.2829017639160156 A 17.878454208374023 89.39228057861328 -90.00000762939453 0 1 2.407235622406006 -1.2829017639160156 A 17.878456115722656 89.39227294921875 -150.00001525878906 0 1 2.4380979537963867 -1.3363571166992188 A 17.878456115722656 89.39228057861328 149.99996948242188 0 1 2.4072351455688477 -1.3898115158081055 A 17.878456115722656 89.39228057861328 -90.00000762939453 0 1 2.4689595699310303 -1.389810562133789 A 17.878456115722656 89.39227294921875 -150.00001525878906 0 1 2.499821662902832 -1.4432668685913086 A 17.878456115722656 89.39227294921875 -30.000009536743164 0 1 2.530684471130371 -1.3898115158081055 A 17.878456115722656 89.39228057861328 -90.00000762939453 0 1 2.592407703399658 -1.389810562133789 A 17.878456115722656 89.39228057861328 29.999990463256836 0 1 2.5615453720092773 -1.3363561630249023 A 17.878456115722656 89.39227294921875 -30.000009536743164 0 1 2.5924081802368164 -1.2829008102416992 A 17.878456115722656 89.39228057861328 -90.00000762939453 0 1 2.6541316509246826 -1.2829036712646484 A 17.878456115722656 89.39227294921875 -150.00001525878906 0 1 2.6849918365478516 -1.3363580703735352 A 17.878456115722656 89.39227294921875 -30.000009536743164 0 1 2.715855598449707 -1.282902717590332 A 17.878456115722656 89.39228057861328 -90.00000762939453 0 1 2.7775793075561523 -1.2829036712646484 A 17.878456115722656 89.39228057861328 29.999990463256836 0 1 2.7467174530029297 -1.2294492721557617 A 17.878456115722656 89.39227294921875 -30.000009536743164 0 1 2.7775802612304688 -1.175994873046875 A 17.878456115722656 89.39228057861328 89.99999237060547 0 1 2.7158565521240234 -1.175994873046875 A 17.878456115722656 89.39228057861328 29.999990463256836 0 1 2.684994697570801 -1.1225395202636719 A 17.878456115722656 89.39227294921875 -30.000009536743164 0 1 2.71585750579834 -1.0690841674804688 A 17.878456115722656 89.39228057861328 -90.00000762939453 0 1 2.777580738067627 -1.0690841674804688 A 17.878456115722656 89.39228057861328 29.999990463256836 0 1 2.746718406677246 -1.0156288146972656 A 17.878456115722656 89.39227294921875 -30.000009536743164 0 1 2.777581214904785 -0.9621734619140625 A 17.878456115722656 89.39228057861328 -90.00000762939453 0 1 2.8393051624298096 -0.9621753692626953 A 17.878456115722656 89.39228820800781 -150.00001525878906 0 1 2.8701658248901367 -1.0156316757202148 A 17.878456115722656 89.39228820800781 -30.0000057220459 0 1 2.901029586791992 -0.9621753692626953 A 17.878456115722656 89.39228057861328 -90.00000762939453 0 1 2.962754487991333 -0.9621772766113281 A 17.878456115722656 89.39228820800781 -150.00001525878906 0 1 2.99361515045166 -1.015634536743164 A 17.878456115722656 89.39227294921875 149.99996948242188 0 1 2.962754249572754 -1.0690898895263672 A 17.878456115722656 89.39228057861328 -90.00000762939453 0 1 3.024479866027832 -1.0690898895263672 A 17.878456115722656 89.39228820800781 -150.00001525878906 0 1 3.0553407669067383 -1.1225471496582031 A 17.878456115722656 89.39228820800781 -30.000009536743164 0 1 3.0862045288085938 -1.069091796875 A 17.878456115722656 89.39228057861328 -90.00000762939453 0 1 3.14792799949646 -1.0690898895263672 A 17.878456115722656 89.39227294921875 29.999990463256836 0 1 3.1170654296875 -1.0156354904174805 A 17.878456115722656 89.39228820800781 -30.000009536743164 0 1 3.1479291915893555 -0.9621801376342773 A 17.878456115722656 89.39228057861328 -90.00000762939453 0 1 3.209653377532959 -0.9621829986572266 A 17.878456115722656 89.39228820800781 -150.00001525878906 0 1 3.240513801574707 -1.0156383514404297 A 17.878456115722656 89.39228820800781 -30.0000057220459 0 1 3.271378517150879 -0.9621820449829102 A 17.878456115722656 89.39228057861328 -90.00000762939453 0 1 3.3331027030944824 -0.9621829986572266 A 17.878456115722656 89.39227294921875 29.999990463256836 0 1 3.3022403717041016 -0.9087276458740234 A 17.878456115722656 89.39228057861328 -30.000009536743164 0 1 3.333102226257324 -0.8552732467651367 A 17.87845802307129 89.39228820800781 90.0 0 1 3.271376609802246 -0.8552703857421875 A 17.878456115722656 89.39227294921875 29.999990463256836 0 1 3.240513801574707 -0.8018150329589844 A 17.878456115722656 89.39228057861328 -30.000009536743164 0 1 3.2713775634765625 -0.7483596801757812 A 17.878456115722656 89.39228057861328 -90.00000762939453 0 1 3.3331003189086914 -0.7483596801757812 A 17.87845802307129 89.39227294921875 29.99999237060547 0 1 3.3022384643554688 -0.6949033737182617 A 17.878456115722656 89.39228057861328 -30.000009536743164 0 1 3.333102226257324 -0.6414480209350586 A 17.878454208374023 89.39228820800781 90.0 0 1 3.2713770866394043 -0.641448974609375 A 17.87845802307129 89.39227294921875 29.999990463256836 0 1 3.2405166625976562 -0.5879955291748047 A 17.878456115722656 89.39227294921875 150.0 0 1 3.20965576171875 -0.6414518356323242 A 17.878454208374023 89.39228820800781 90.0 0 1 3.147930145263672 -0.6414527893066406 A 17.878456115722656 89.39227294921875 29.999990463256836 0 1 3.117067337036133 -0.5879974365234375 A 17.878456115722656 89.39228057861328 -30.000009536743164 0 1 3.147930145263672 -0.5345430374145508 A 17.87845802307129 89.39228820800781 90.0 0 1 3.0862042903900146 -0.5345420837402344 A 17.878456115722656 89.39227294921875 29.999990463256836 0 1 3.0553417205810547 -0.48108482360839844 A 17.878456115722656 89.39227294921875 -30.000009536743164 0 1 3.0862045288085938 -0.4276294708251953 A 17.878456115722656 89.39228057861328 -90.00000762939453 0 1 3.1479275226593018 -0.4276294708251953 A 17.878456115722656 89.39228057861328 29.999990463256836 0 1 3.1170644760131836 -0.3741741180419922 A 17.878456115722656 89.39227294921875 -30.000009536743164 0 1 3.1479272842407227 -0.32071876525878906 A 17.878456115722656 89.39228057861328 -90.00000762939453 0 1 3.209651470184326 -0.3207206726074219 A 17.878456115722656 89.39227294921875 -150.00001525878906 0 1 3.240510940551758 -0.374176025390625 A 17.878456115722656 89.39227294921875 -30.000009536743164 0 1 3.2713747024536133 -0.3207206726074219 A 17.878456115722656 89.39228057861328 -90.00000762939453 0 1 3.333099365234375 -0.3207225799560547 A 17.878456115722656 89.39228057861328 29.999990463256836 0 1 3.3022375106811523 -0.26726722717285156 A 17.878456115722656 89.39227294921875 -30.000009536743164 0 1 3.3331003189086914 -0.21381282806396484 A 17.878456115722656 89.39228057861328 89.99999237060547 0 1 3.271376609802246 -0.21381187438964844 A 17.878456115722656 89.39228057861328 29.999990463256836 0 1 3.2405147552490234 -0.16035747528076172 A 17.878456115722656 89.39227294921875 -30.000009536743164 0 1 3.2713775634765625 -0.1069021224975586 A 17.878456115722656 89.39228057861328 -90.00000762939453 0 1 3.3331007957458496 -0.10690116882324219 A 17.878456115722656 89.39228057861328 29.999990463256836 0 1 3.3022375106811523 -0.05344676971435547 A 17.878456115722656 89.39227294921875 -30.000009536743164 0 1 3.3331003189086914 8.58306884765625e-06 A 17.878454208374023 89.39227294921875 -90.00000762939453 0 1 3.3948252201080322 7.62939453125e-06 A 17.878456115722656 89.39228057861328 -150.00001525878906 0 1 3.4256858825683594 -0.05344581604003906 A 17.878456115722656 89.39228057861328 -30.0000057220459 0 1 3.4565486907958984 1.049041748046875e-05 A 17.878454208374023 89.39227294921875 -90.00000762939453 0 1 3.5182735919952393 1.1444091796875e-05 A 17.878456115722656 89.39228057861328 -150.00001525878906 0 1 3.549135208129883 -0.053444862365722656 A 17.878456115722656 89.39227294921875 149.99996948242188 0 1 3.5182714462280273 -0.10689926147460938 A 17.878456115722656 89.39227294921875 -90.00000762939453 0 1 3.579996109008789 -0.10689926147460938 A 17.878456115722656 89.39228057861328 -150.00001525878906 0 1 3.6108570098876953 -0.1603546142578125 A 17.878456115722656 89.39228057861328 -30.000009536743164 0 1 3.641720771789551 -0.10689926147460938 A 17.878456115722656 89.39227294921875 -90.00000762939453 0 1 3.703444242477417 -0.10689926147460938 A 17.878456115722656 89.39227294921875 29.999990463256836 0 1 3.672581672668457 -0.053444862365722656 A 17.878456115722656 89.39228057861328 -30.000009536743164 0 1 3.703446388244629 1.049041748046875e-05 A 17.878454208374023 89.39227294921875 -90.00000762939453 0 1 3.7651703357696533 1.1444091796875e-05 A 17.878456115722656 89.39228057861328 -150.00001525878906 0 1 3.796031951904297 -0.05344390869140625 A 17.878456115722656 89.39228057861328 -30.0000057220459 0 1 3.8268938064575195 1.239776611328125e-05 A 17.878454208374023 89.39227294921875 -90.00000762939453 0 1 3.8886187076568604 1.1444091796875e-05 A 17.878456115722656 89.39227294921875 -150.00001525878906 0 1 3.919480323791504 -0.053442955017089844 A 17.878456115722656 89.39228057861328 149.99996948242188 0 1 3.888617515563965 -0.10689830780029297 A 17.878456115722656 89.39228820800781 -90.00000762939453 0 1 3.9503419399261475 -0.10689735412597656 A 17.878456115722656 89.39227294921875 -150.00001525878906 0 1 3.981204032897949 -0.1603536605834961 A 17.878456115722656 89.39228057861328 149.99996948242188 0 1 3.9503393173217773 -0.21380901336669922 A 17.878456115722656 89.39227294921875 89.99996948242188 0 1 3.888615608215332 -0.21381187438964844 A 17.878456115722656 89.39227294921875 -150.00001525878906 0 1 3.919478416442871 -0.26726722717285156 A 17.878456115722656 89.39228057861328 149.99996948242188 0 1 3.8886117935180664 -0.3207225799560547 A 17.878456115722656 89.39228820800781 -90.00000762939453 0 1 3.9503376483917236 -0.3207225799560547 A 17.878456115722656 89.39227294921875 -150.00001525878906 0 1 3.9812002182006836 -0.3741769790649414 A 17.878456115722656 89.39227294921875 -30.0000057220459 0 1 4.01206111907959 -0.3207206726074219 A 17.878456115722656 89.39228820800781 -90.00000762939453 0 1 4.073785781860352 -0.3207206726074219 A 17.878456115722656 89.39227294921875 -150.00001525878906 0 1 4.104647636413574 -0.374176025390625 A 17.878456115722656 89.39228057861328 149.99996948242188 0 1 4.073784828186035 -0.4276313781738281 A 17.878456115722656 89.39228820800781 -90.00000762939453 0 1 4.135509014129639 -0.4276313781738281 A 17.878456115722656 89.39227294921875 -150.00001525878906 0 1 4.1663713455200195 -0.48108673095703125 A 17.878456115722656 89.39227294921875 -30.000009536743164 0 1 4.197235107421875 -0.4276304244995117 A 17.878456115722656 89.39228820800781 -90.00000762939453 0 1 4.258958339691162 -0.4276294708251953 A 17.878456115722656 89.39228057861328 29.999996185302734 0 1 4.228096961975098 -0.3741731643676758 A 17.878456115722656 89.39227294921875 -30.000009536743164 0 1 4.258959770202637 -0.32071685791015625 A 17.878456115722656 89.39228820800781 -90.00000762939453 0 1 4.320684432983398 -0.32071685791015625 A 17.878456115722656 89.39227294921875 -150.00001525878906 0 1 4.351544380187988 -0.37417125701904297 A 17.878456115722656 89.39227294921875 -30.000009536743164 0 1 4.38240909576416 -0.32071590423583984 A 17.878456115722656 89.39228820800781 -90.00000762939453 0 1 4.444132328033447 -0.32071495056152344 A 17.878454208374023 89.39228057861328 29.999996185302734 0 1 4.413269996643066 -0.2672605514526367 A 17.878456115722656 89.39227294921875 -30.000009536743164 0 1 4.4441328048706055 -0.21380615234375 A 17.878456115722656 89.39227294921875 89.99999237060547 0 1 4.382408618927002 -0.2138080596923828 A 17.878454208374023 89.39228057861328 29.999996185302734 0 1 4.351545333862305 -0.1603527069091797 A 17.878456115722656 89.39227294921875 -30.000009536743164 0 1 4.38240909576416 -0.10689640045166016 A 17.878456115722656 89.39228820800781 -90.00000762939453 0 1 4.444132328033447 -0.10689735412597656 A 17.878456115722656 89.39228057861328 29.999996185302734 0 1 4.413269996643066 -0.05343914031982422 A 17.878456115722656 89.39227294921875 -30.000009536743164 0 1 4.444134712219238 1.71661376953125e-05 A 17.878454208374023 89.39227294921875 -90.00000762939453 0 1 4.505859375 1.71661376953125e-05 A 17.878456115722656 89.39228057861328 -150.00001525878906 0 1 4.536720275878906 -0.053437232971191406 A 17.878456115722656 89.39228057861328 -30.0000057220459 0 1 4.567583084106445 1.9073486328125e-05 A 17.878454208374023 89.39227294921875 -90.00000762939453 0 1 4.629307270050049 1.9073486328125e-05 A 17.878456115722656 89.39228057861328 -150.00001525878906 0 1 4.660167694091797 -0.053436279296875 A 17.878456115722656 89.39227294921875 149.99996948242188 0 1 4.629303932189941 -0.10689067840576172 A 17.878456115722656 89.39227294921875 -90.00000762939453 0 1 4.691030025482178 -0.10688972473144531 A 17.878456115722656 89.39228057861328 -150.00001525878906 0 1 4.721889495849609 -0.16034603118896484 A 17.878456115722656 89.39228057861328 -30.000009536743164 0 1 4.752754211425781 -0.10689067840576172 A 17.878456115722656 89.39227294921875 -90.00000762939453 0 1 4.814477443695068 -0.10688972473144531 A 17.878456115722656 89.39227294921875 29.999990463256836 0 1 4.783616065979004 -0.053436279296875 A 17.878456115722656 89.39228057861328 -30.000009536743164 0 1 4.814479827880859 1.9073486328125e-05 A 17.878454208374023 89.39227294921875 -90.00000762939453 0 1 4.876204490661621 1.9073486328125e-05 A 17.878456115722656 89.39228057861328 -150.00001525878906 0 1 4.907066345214844 -0.053435325622558594 A 17.878456115722656 89.39228057861328 -30.0000057220459 0 1 4.937928199768066 2.09808349609375e-05 A 17.878454208374023 89.39227294921875 -90.00000762939453 0 1 4.99965238571167 2.09808349609375e-05" style="vector-effect: non-scaling-stroke;fill:none;" /></g></g></g></g></g><g /></g></g></g></g></svg>