<?xml version="1.0" encoding="utf-8" ?>
<svg xmlns:ns0="http://www.w3.org/2000/svg" xmlns:ns1="http://www.w3.org/1999/xlink" baseProfile="full" height="100" version="1.1" width="574" xmlns="http://www.w3.org/2000/svg" xmlns:ev="http://www.w3.org/2001/xml-events" xmlns:xlink="http://www.w3.org/1999/xlink"><defs><marker id="arrow" markerHeight="3.5" markerWidth="5" orient="auto" refX="5.0" refY="1.7"><polygon points="0,0 5,1.75 0,3.5" /></marker></defs><g style="fill:white; stroke: black; stroke-width: 0.01;" transform="scale(72.0) translate(0.633395 0.8554700000000002)"><g><g><g><g><g><g><g><g><g><g transform="translate(0 -0.5663333333333334)"><g><g style=";" transform="scale(0.5 0.5) scale(1)"><g transform="scale(0.05) translate(-24.129333333333335 -6.653333333333333)"><ns0:svg width="36.194pt" height="9.98pt" viewBox="0 0 36.194 9.98" version="1.1">
<ns0:defs>
<ns0:g>
<ns0:symbol overflow="visible" id="embed--2638918678980599867-glyph0-0">
<ns0:path style="stroke:none;" d="" />
</ns0:symbol>
<ns0:symbol overflow="visible" id="embed--2638918678980599867-glyph0-1">
<ns0:path style="stroke:none;" d="M 3.65625 -3.984375 L 4.515625 -3.984375 C 4.71875 -3.984375 4.8125 -3.984375 4.8125 -4.1875 C 4.8125 -4.296875 4.71875 -4.296875 4.546875 -4.296875 L 3.71875 -4.296875 L 3.921875 -5.4375 C 3.96875 -5.640625 4.109375 -6.34375 4.171875 -6.46875 C 4.25 -6.65625 4.421875 -6.8125 4.640625 -6.8125 C 4.671875 -6.8125 4.9375 -6.8125 5.125 -6.625 C 4.6875 -6.59375 4.578125 -6.234375 4.578125 -6.09375 C 4.578125 -5.859375 4.765625 -5.734375 4.953125 -5.734375 C 5.21875 -5.734375 5.5 -5.96875 5.5 -6.34375 C 5.5 -6.796875 5.046875 -7.03125 4.640625 -7.03125 C 4.296875 -7.03125 3.671875 -6.84375 3.375 -5.859375 C 3.3125 -5.65625 3.28125 -5.546875 3.046875 -4.296875 L 2.359375 -4.296875 C 2.15625 -4.296875 2.046875 -4.296875 2.046875 -4.109375 C 2.046875 -3.984375 2.140625 -3.984375 2.328125 -3.984375 L 2.984375 -3.984375 L 2.25 -0.046875 C 2.0625 0.921875 1.890625 1.828125 1.375 1.828125 C 1.328125 1.828125 1.09375 1.828125 0.890625 1.640625 C 1.359375 1.609375 1.453125 1.25 1.453125 1.109375 C 1.453125 0.875 1.265625 0.75 1.078125 0.75 C 0.8125 0.75 0.53125 0.984375 0.53125 1.359375 C 0.53125 1.796875 0.96875 2.046875 1.375 2.046875 C 1.921875 2.046875 2.328125 1.453125 2.5 1.078125 C 2.828125 0.453125 3.046875 -0.75 3.0625 -0.828125 Z M 3.65625 -3.984375 " />
</ns0:symbol>
<ns0:symbol overflow="visible" id="embed--2638918678980599867-glyph0-2">
<ns0:path style="stroke:none;" d="M 4.6875 -3.765625 C 4.703125 -3.8125 4.71875 -3.875 4.71875 -3.9375 C 4.71875 -4.109375 4.609375 -4.203125 4.4375 -4.203125 C 4.34375 -4.203125 4.0625 -4.140625 4.03125 -3.78125 C 3.84375 -4.140625 3.5 -4.40625 3.09375 -4.40625 C 1.96875 -4.40625 0.734375 -3.015625 0.734375 -1.578125 C 0.734375 -0.59375 1.328125 0 2.046875 0 C 2.640625 0 3.109375 -0.46875 3.203125 -0.578125 L 3.21875 -0.5625 C 3.015625 0.3125 2.890625 0.734375 2.890625 0.75 C 2.84375 0.84375 2.515625 1.828125 1.453125 1.828125 C 1.265625 1.828125 0.9375 1.8125 0.65625 1.71875 C 0.953125 1.640625 1.0625 1.375 1.0625 1.203125 C 1.0625 1.046875 0.953125 0.859375 0.6875 0.859375 C 0.46875 0.859375 0.15625 1.03125 0.15625 1.4375 C 0.15625 1.84375 0.515625 2.046875 1.46875 2.046875 C 2.71875 2.046875 3.4375 1.265625 3.59375 0.671875 Z M 3.40625 -1.28125 C 3.34375 -1.015625 3.109375 -0.765625 2.890625 -0.578125 C 2.6875 -0.40625 2.375 -0.21875 2.078125 -0.21875 C 1.578125 -0.21875 1.4375 -0.734375 1.4375 -1.140625 C 1.4375 -1.609375 1.71875 -2.796875 2 -3.296875 C 2.265625 -3.78125 2.6875 -4.1875 3.109375 -4.1875 C 3.765625 -4.1875 3.90625 -3.375 3.90625 -3.328125 C 3.90625 -3.28125 3.890625 -3.21875 3.875 -3.1875 Z M 3.40625 -1.28125 " />
</ns0:symbol>
<ns0:symbol overflow="visible" id="embed--2638918678980599867-glyph0-3">
<ns0:path style="stroke:none;" d="M 3.328125 -3.015625 C 3.390625 -3.265625 3.625 -4.1875 4.3125 -4.1875 C 4.359375 -4.1875 4.609375 -4.1875 4.8125 -4.0625 C 4.53125 -4 4.34375 -3.765625 4.34375 -3.515625 C 4.34375 -3.359375 4.453125 -3.171875 4.71875 -3.171875 C 4.9375 -3.171875 5.25 -3.34375 5.25 -3.75 C 5.25 -4.265625 4.671875 -4.40625 4.328125 -4.40625 C 3.75 -4.40625 3.40625 -3.875 3.28125 -3.65625 C 3.03125 -4.3125 2.5 -4.40625 2.203125 -4.40625 C 1.171875 -4.40625 0.59375 -3.125 0.59375 -2.875 C 0.59375 -2.765625 0.703125 -2.765625 0.71875 -2.765625 C 0.796875 -2.765625 0.828125 -2.796875 0.84375 -2.875 C 1.1875 -3.9375 1.84375 -4.1875 2.1875 -4.1875 C 2.375 -4.1875 2.71875 -4.09375 2.71875 -3.515625 C 2.71875 -3.203125 2.546875 -2.546875 2.1875 -1.140625 C 2.03125 -0.53125 1.671875 -0.109375 1.234375 -0.109375 C 1.171875 -0.109375 0.953125 -0.109375 0.734375 -0.234375 C 0.984375 -0.296875 1.203125 -0.5 1.203125 -0.78125 C 1.203125 -1.046875 0.984375 -1.125 0.84375 -1.125 C 0.53125 -1.125 0.296875 -0.875 0.296875 -0.546875 C 0.296875 -0.09375 0.78125 0.109375 1.21875 0.109375 C 1.890625 0.109375 2.25 -0.59375 2.265625 -0.640625 C 2.390625 -0.28125 2.75 0.109375 3.34375 0.109375 C 4.375 0.109375 4.9375 -1.171875 4.9375 -1.421875 C 4.9375 -1.53125 4.859375 -1.53125 4.828125 -1.53125 C 4.734375 -1.53125 4.71875 -1.484375 4.6875 -1.421875 C 4.359375 -0.34375 3.6875 -0.109375 3.375 -0.109375 C 2.984375 -0.109375 2.828125 -0.421875 2.828125 -0.765625 C 2.828125 -0.984375 2.875 -1.203125 2.984375 -1.640625 Z M 3.328125 -3.015625 " />
</ns0:symbol>
<ns0:symbol overflow="visible" id="embed--2638918678980599867-glyph1-0">
<ns0:path style="stroke:none;" d="" />
</ns0:symbol>
<ns0:symbol overflow="visible" id="embed--2638918678980599867-glyph1-1">
<ns0:path style="stroke:none;" d="M 2.015625 -3.296875 C 2.078125 -3.40625 2.078125 -3.46875 2.078125 -3.515625 C 2.078125 -3.734375 1.890625 -3.890625 1.671875 -3.890625 C 1.40625 -3.890625 1.328125 -3.671875 1.296875 -3.5625 L 0.375 -0.546875 C 0.359375 -0.53125 0.328125 -0.453125 0.328125 -0.4375 C 0.328125 -0.359375 0.546875 -0.28125 0.609375 -0.28125 C 0.65625 -0.28125 0.65625 -0.296875 0.703125 -0.40625 Z M 2.015625 -3.296875 " />
</ns0:symbol>
<ns0:symbol overflow="visible" id="embed--2638918678980599867-glyph2-0">
<ns0:path style="stroke:none;" d="" />
</ns0:symbol>
<ns0:symbol overflow="visible" id="embed--2638918678980599867-glyph2-1">
<ns0:path style="stroke:none;" d="M 1.734375 -0.734375 C 1.671875 -0.5 1.4375 -0.125 1.078125 -0.125 C 1.0625 -0.125 0.84375 -0.125 0.703125 -0.21875 C 0.984375 -0.3125 1.015625 -0.5625 1.015625 -0.609375 C 1.015625 -0.765625 0.890625 -0.859375 0.734375 -0.859375 C 0.53125 -0.859375 0.328125 -0.703125 0.328125 -0.4375 C 0.328125 -0.09375 0.71875 0.0625 1.0625 0.0625 C 1.390625 0.0625 1.671875 -0.125 1.84375 -0.421875 C 2.015625 -0.0625 2.390625 0.0625 2.671875 0.0625 C 3.484375 0.0625 3.90625 -0.796875 3.90625 -1 C 3.90625 -1.09375 3.8125 -1.09375 3.796875 -1.09375 C 3.6875 -1.09375 3.6875 -1.046875 3.65625 -0.96875 C 3.515625 -0.484375 3.09375 -0.125 2.703125 -0.125 C 2.421875 -0.125 2.28125 -0.3125 2.28125 -0.578125 C 2.28125 -0.765625 2.453125 -1.390625 2.640625 -2.171875 C 2.78125 -2.703125 3.09375 -2.875 3.328125 -2.875 C 3.34375 -2.875 3.546875 -2.875 3.703125 -2.78125 C 3.484375 -2.71875 3.390625 -2.515625 3.390625 -2.390625 C 3.390625 -2.25 3.515625 -2.140625 3.671875 -2.140625 C 3.828125 -2.140625 4.0625 -2.265625 4.0625 -2.5625 C 4.0625 -2.953125 3.609375 -3.078125 3.34375 -3.078125 C 2.984375 -3.078125 2.703125 -2.84375 2.5625 -2.578125 C 2.4375 -2.859375 2.109375 -3.078125 1.71875 -3.078125 C 0.9375 -3.078125 0.5 -2.21875 0.5 -2 C 0.5 -1.921875 0.59375 -1.921875 0.609375 -1.921875 C 0.703125 -1.921875 0.703125 -1.9375 0.75 -2.03125 C 0.921875 -2.578125 1.359375 -2.875 1.703125 -2.875 C 1.9375 -2.875 2.125 -2.75 2.125 -2.421875 C 2.125 -2.28125 2.03125 -1.9375 1.96875 -1.6875 Z M 1.734375 -0.734375 " />
</ns0:symbol>
<ns0:symbol overflow="visible" id="embed--2638918678980599867-glyph3-0">
<ns0:path style="stroke:none;" d="" />
</ns0:symbol>
<ns0:symbol overflow="visible" id="embed--2638918678980599867-glyph3-1">
<ns0:path style="stroke:none;" d="M 3.296875 2.390625 C 3.296875 2.359375 3.296875 2.34375 3.125 2.171875 C 1.890625 0.921875 1.5625 -0.96875 1.5625 -2.5 C 1.5625 -4.234375 1.9375 -5.96875 3.171875 -7.203125 C 3.296875 -7.328125 3.296875 -7.34375 3.296875 -7.375 C 3.296875 -7.453125 3.265625 -7.484375 3.203125 -7.484375 C 3.09375 -7.484375 2.203125 -6.796875 1.609375 -5.53125 C 1.109375 -4.4375 0.984375 -3.328125 0.984375 -2.5 C 0.984375 -1.71875 1.09375 -0.515625 1.640625 0.625 C 2.25 1.84375 3.09375 2.5 3.203125 2.5 C 3.265625 2.5 3.296875 2.46875 3.296875 2.390625 Z M 3.296875 2.390625 " />
</ns0:symbol>
<ns0:symbol overflow="visible" id="embed--2638918678980599867-glyph3-2">
<ns0:path style="stroke:none;" d="M 2.875 -2.5 C 2.875 -3.265625 2.765625 -4.46875 2.21875 -5.609375 C 1.625 -6.828125 0.765625 -7.484375 0.671875 -7.484375 C 0.609375 -7.484375 0.5625 -7.4375 0.5625 -7.375 C 0.5625 -7.34375 0.5625 -7.328125 0.75 -7.140625 C 1.734375 -6.15625 2.296875 -4.578125 2.296875 -2.5 C 2.296875 -0.78125 1.9375 0.96875 0.703125 2.21875 C 0.5625 2.34375 0.5625 2.359375 0.5625 2.390625 C 0.5625 2.453125 0.609375 2.5 0.671875 2.5 C 0.765625 2.5 1.671875 1.8125 2.25 0.546875 C 2.765625 -0.546875 2.875 -1.65625 2.875 -2.5 Z M 2.875 -2.5 " />
</ns0:symbol>
</ns0:g>
<ns0:clipPath id="embed--2638918678980599867-clip1">
  <ns0:path d="M 0 0 L 6 0 L 6 9.980469 L 0 9.980469 Z M 0 0 " />
</ns0:clipPath>
<ns0:clipPath id="embed--2638918678980599867-clip2">
  <ns0:path d="M 5 6 L 9 6 L 9 9.980469 L 5 9.980469 Z M 5 6 " />
</ns0:clipPath>
<ns0:clipPath id="embed--2638918678980599867-clip3">
  <ns0:path d="M 10 0 L 14 0 L 14 9.980469 L 10 9.980469 Z M 10 0 " />
</ns0:clipPath>
<ns0:clipPath id="embed--2638918678980599867-clip4">
  <ns0:path d="M 13 3 L 19 3 L 19 9.980469 L 13 9.980469 Z M 13 3 " />
</ns0:clipPath>
<ns0:clipPath id="embed--2638918678980599867-clip5">
  <ns0:path d="M 19 0 L 23 0 L 23 9.980469 L 19 9.980469 Z M 19 0 " />
</ns0:clipPath>
<ns0:clipPath id="embed--2638918678980599867-clip6">
  <ns0:path d="M 29 0 L 36 0 L 36 9.980469 L 29 9.980469 Z M 29 0 " />
</ns0:clipPath>
</ns0:defs>
<ns0:g id="embed--2638918678980599867-surface1">
<ns0:g clip-path="url(#embed--2638918678980599867-clip1)" clip-rule="nonzero">
<ns0:g style="fill:rgb(0%,0%,0%);fill-opacity:1;">
  <ns0:use ns1:href="#embed--2638918678980599867-glyph0-1" x="0" y="7.489" />
</ns0:g>
</ns0:g>
<ns0:g style="fill:rgb(0%,0%,0%);fill-opacity:1;">
  <ns0:use ns1:href="#embed--2638918678980599867-glyph1-1" x="5.95" y="3.874" />
</ns0:g>
<ns0:g clip-path="url(#embed--2638918678980599867-clip2)" clip-rule="nonzero">
<ns0:g style="fill:rgb(0%,0%,0%);fill-opacity:1;">
  <ns0:use ns1:href="#embed--2638918678980599867-glyph2-1" x="4.878" y="9.952" />
</ns0:g>
</ns0:g>
<ns0:g clip-path="url(#embed--2638918678980599867-clip3)" clip-rule="nonzero">
<ns0:g style="fill:rgb(0%,0%,0%);fill-opacity:1;">
  <ns0:use ns1:href="#embed--2638918678980599867-glyph3-1" x="9.893" y="7.489" />
</ns0:g>
</ns0:g>
<ns0:g clip-path="url(#embed--2638918678980599867-clip4)" clip-rule="nonzero">
<ns0:g style="fill:rgb(0%,0%,0%);fill-opacity:1;">
  <ns0:use ns1:href="#embed--2638918678980599867-glyph0-2" x="13.768" y="7.489" />
</ns0:g>
</ns0:g>
<ns0:g clip-path="url(#embed--2638918678980599867-clip5)" clip-rule="nonzero">
<ns0:g style="fill:rgb(0%,0%,0%);fill-opacity:1;">
  <ns0:use ns1:href="#embed--2638918678980599867-glyph3-1" x="18.877" y="7.489" />
</ns0:g>
</ns0:g>
<ns0:g style="fill:rgb(0%,0%,0%);fill-opacity:1;">
  <ns0:use ns1:href="#embed--2638918678980599867-glyph0-3" x="22.752" y="7.489" />
</ns0:g>
<ns0:g clip-path="url(#embed--2638918678980599867-clip6)" clip-rule="nonzero">
<ns0:g style="fill:rgb(0%,0%,0%);fill-opacity:1;">
  <ns0:use ns1:href="#embed--2638918678980599867-glyph3-2" x="28.445" y="7.489" />
  <ns0:use ns1:href="#embed--2638918678980599867-glyph3-2" x="32.319455" y="7.489" />
</ns0:g>
</ns0:g>
</ns0:g>
</ns0:svg></g></g><g /></g></g><g transform="translate(0.5 -0.0)"><g style="stroke-width: 0.03;" transform="scale(-1 1) scale(1)"><polyline marker-end="url(#arrow)" points="0,0 1,0" /></g></g></g><g transform="translate(0.7032333333333334 0)"><g style=";" transform="scale(1)"><g /></g></g></g><g transform="translate(1.5532333333333335 0)"><g><g style="fill: #ff9700;stroke-width: 0.05;" transform="scale(1)"><rect height="1" width="1.5" x="-0.75" y="-0.5" /></g><g style=";" transform="scale(0.7 0.7) scale(1)"><g transform="scale(0.05) translate(-3.966666666666667 -5.904)"><ns0:svg width="5.95pt" height="8.856pt" viewBox="0 0 5.95 8.856" version="1.1">
<ns0:defs>
<ns0:g>
<ns0:symbol overflow="visible" id="embed-498456634328323475-glyph0-0">
<ns0:path style="stroke:none;" d="" />
</ns0:symbol>
<ns0:symbol overflow="visible" id="embed-498456634328323475-glyph0-1">
<ns0:path style="stroke:none;" d="M 3.65625 -3.984375 L 4.515625 -3.984375 C 4.71875 -3.984375 4.8125 -3.984375 4.8125 -4.1875 C 4.8125 -4.296875 4.71875 -4.296875 4.546875 -4.296875 L 3.71875 -4.296875 L 3.921875 -5.4375 C 3.96875 -5.640625 4.109375 -6.34375 4.171875 -6.46875 C 4.25 -6.65625 4.421875 -6.8125 4.640625 -6.8125 C 4.671875 -6.8125 4.9375 -6.8125 5.125 -6.625 C 4.6875 -6.59375 4.578125 -6.234375 4.578125 -6.09375 C 4.578125 -5.859375 4.765625 -5.734375 4.953125 -5.734375 C 5.21875 -5.734375 5.5 -5.96875 5.5 -6.34375 C 5.5 -6.796875 5.046875 -7.03125 4.640625 -7.03125 C 4.296875 -7.03125 3.671875 -6.84375 3.375 -5.859375 C 3.3125 -5.65625 3.28125 -5.546875 3.046875 -4.296875 L 2.359375 -4.296875 C 2.15625 -4.296875 2.046875 -4.296875 2.046875 -4.109375 C 2.046875 -3.984375 2.140625 -3.984375 2.328125 -3.984375 L 2.984375 -3.984375 L 2.25 -0.046875 C 2.0625 0.921875 1.890625 1.828125 1.375 1.828125 C 1.328125 1.828125 1.09375 1.828125 0.890625 1.640625 C 1.359375 1.609375 1.453125 1.25 1.453125 1.109375 C 1.453125 0.875 1.265625 0.75 1.078125 0.75 C 0.8125 0.75 0.53125 0.984375 0.53125 1.359375 C 0.53125 1.796875 0.96875 2.046875 1.375 2.046875 C 1.921875 2.046875 2.328125 1.453125 2.5 1.078125 C 2.828125 0.453125 3.046875 -0.75 3.0625 -0.828125 Z M 3.65625 -3.984375 " />
</ns0:symbol>
</ns0:g>
<ns0:clipPath id="embed-498456634328323475-clip1">
  <ns0:path d="M 0 0 L 5.949219 0 L 5.949219 8.855469 L 0 8.855469 Z M 0 0 " />
</ns0:clipPath>
</ns0:defs>
<ns0:g id="embed-498456634328323475-surface1">
<ns0:g clip-path="url(#embed-498456634328323475-clip1)" clip-rule="nonzero">
<ns0:g style="fill:rgb(0%,0%,0%);fill-opacity:1;">
  <ns0:use ns1:href="#embed-498456634328323475-glyph0-1" x="0" y="6.919" />
</ns0:g>
</ns0:g>
</ns0:g>
</ns0:svg></g></g></g></g></g><g transform="translate(2.4032333333333336 0)"><g style=";" transform="scale(1)"><g /></g></g></g><g transform="translate(3.2792000000000003 0)"><g><g transform="translate(0 -0.6073666666666667)"><g><g style=";" transform="scale(0.5 0.5) scale(1)"><g transform="scale(0.05) translate(-31.038666666666668 -8.294666666666666)"><ns0:svg width="46.558pt" height="12.442pt" viewBox="0 0 46.558 12.442" version="1.1">
<ns0:defs>
<ns0:g>
<ns0:symbol overflow="visible" id="embed-4826825072142003771-glyph0-0">
<ns0:path style="stroke:none;" d="" />
</ns0:symbol>
<ns0:symbol overflow="visible" id="embed-4826825072142003771-glyph0-1">
<ns0:path style="stroke:none;" d="M 3.65625 -3.984375 L 4.515625 -3.984375 C 4.71875 -3.984375 4.8125 -3.984375 4.8125 -4.1875 C 4.8125 -4.296875 4.71875 -4.296875 4.546875 -4.296875 L 3.71875 -4.296875 L 3.921875 -5.4375 C 3.96875 -5.640625 4.109375 -6.34375 4.171875 -6.46875 C 4.25 -6.65625 4.421875 -6.8125 4.640625 -6.8125 C 4.671875 -6.8125 4.9375 -6.8125 5.125 -6.625 C 4.6875 -6.59375 4.578125 -6.234375 4.578125 -6.09375 C 4.578125 -5.859375 4.765625 -5.734375 4.953125 -5.734375 C 5.21875 -5.734375 5.5 -5.96875 5.5 -6.34375 C 5.5 -6.796875 5.046875 -7.03125 4.640625 -7.03125 C 4.296875 -7.03125 3.671875 -6.84375 3.375 -5.859375 C 3.3125 -5.65625 3.28125 -5.546875 3.046875 -4.296875 L 2.359375 -4.296875 C 2.15625 -4.296875 2.046875 -4.296875 2.046875 -4.109375 C 2.046875 -3.984375 2.140625 -3.984375 2.328125 -3.984375 L 2.984375 -3.984375 L 2.25 -0.046875 C 2.0625 0.921875 1.890625 1.828125 1.375 1.828125 C 1.328125 1.828125 1.09375 1.828125 0.890625 1.640625 C 1.359375 1.609375 1.453125 1.25 1.453125 1.109375 C 1.453125 0.875 1.265625 0.75 1.078125 0.75 C 0.8125 0.75 0.53125 0.984375 0.53125 1.359375 C 0.53125 1.796875 0.96875 2.046875 1.375 2.046875 C 1.921875 2.046875 2.328125 1.453125 2.5 1.078125 C 2.828125 0.453125 3.046875 -0.75 3.0625 -0.828125 Z M 3.65625 -3.984375 " />
</ns0:symbol>
<ns0:symbol overflow="visible" id="embed-4826825072142003771-glyph0-2">
<ns0:path style="stroke:none;" d="M 4.6875 -3.765625 C 4.703125 -3.8125 4.71875 -3.875 4.71875 -3.9375 C 4.71875 -4.109375 4.609375 -4.203125 4.4375 -4.203125 C 4.34375 -4.203125 4.0625 -4.140625 4.03125 -3.78125 C 3.84375 -4.140625 3.5 -4.40625 3.09375 -4.40625 C 1.96875 -4.40625 0.734375 -3.015625 0.734375 -1.578125 C 0.734375 -0.59375 1.328125 0 2.046875 0 C 2.640625 0 3.109375 -0.46875 3.203125 -0.578125 L 3.21875 -0.5625 C 3.015625 0.3125 2.890625 0.734375 2.890625 0.75 C 2.84375 0.84375 2.515625 1.828125 1.453125 1.828125 C 1.265625 1.828125 0.9375 1.8125 0.65625 1.71875 C 0.953125 1.640625 1.0625 1.375 1.0625 1.203125 C 1.0625 1.046875 0.953125 0.859375 0.6875 0.859375 C 0.46875 0.859375 0.15625 1.03125 0.15625 1.4375 C 0.15625 1.84375 0.515625 2.046875 1.46875 2.046875 C 2.71875 2.046875 3.4375 1.265625 3.59375 0.671875 Z M 3.40625 -1.28125 C 3.34375 -1.015625 3.109375 -0.765625 2.890625 -0.578125 C 2.6875 -0.40625 2.375 -0.21875 2.078125 -0.21875 C 1.578125 -0.21875 1.4375 -0.734375 1.4375 -1.140625 C 1.4375 -1.609375 1.71875 -2.796875 2 -3.296875 C 2.265625 -3.78125 2.6875 -4.1875 3.109375 -4.1875 C 3.765625 -4.1875 3.90625 -3.375 3.90625 -3.328125 C 3.90625 -3.28125 3.890625 -3.21875 3.875 -3.1875 Z M 3.40625 -1.28125 " />
</ns0:symbol>
<ns0:symbol overflow="visible" id="embed-4826825072142003771-glyph0-3">
<ns0:path style="stroke:none;" d="M 3.328125 -3.015625 C 3.390625 -3.265625 3.625 -4.1875 4.3125 -4.1875 C 4.359375 -4.1875 4.609375 -4.1875 4.8125 -4.0625 C 4.53125 -4 4.34375 -3.765625 4.34375 -3.515625 C 4.34375 -3.359375 4.453125 -3.171875 4.71875 -3.171875 C 4.9375 -3.171875 5.25 -3.34375 5.25 -3.75 C 5.25 -4.265625 4.671875 -4.40625 4.328125 -4.40625 C 3.75 -4.40625 3.40625 -3.875 3.28125 -3.65625 C 3.03125 -4.3125 2.5 -4.40625 2.203125 -4.40625 C 1.171875 -4.40625 0.59375 -3.125 0.59375 -2.875 C 0.59375 -2.765625 0.703125 -2.765625 0.71875 -2.765625 C 0.796875 -2.765625 0.828125 -2.796875 0.84375 -2.875 C 1.1875 -3.9375 1.84375 -4.1875 2.1875 -4.1875 C 2.375 -4.1875 2.71875 -4.09375 2.71875 -3.515625 C 2.71875 -3.203125 2.546875 -2.546875 2.1875 -1.140625 C 2.03125 -0.53125 1.671875 -0.109375 1.234375 -0.109375 C 1.171875 -0.109375 0.953125 -0.109375 0.734375 -0.234375 C 0.984375 -0.296875 1.203125 -0.5 1.203125 -0.78125 C 1.203125 -1.046875 0.984375 -1.125 0.84375 -1.125 C 0.53125 -1.125 0.296875 -0.875 0.296875 -0.546875 C 0.296875 -0.09375 0.78125 0.109375 1.21875 0.109375 C 1.890625 0.109375 2.25 -0.59375 2.265625 -0.640625 C 2.390625 -0.28125 2.75 0.109375 3.34375 0.109375 C 4.375 0.109375 4.9375 -1.171875 4.9375 -1.421875 C 4.9375 -1.53125 4.859375 -1.53125 4.828125 -1.53125 C 4.734375 -1.53125 4.71875 -1.484375 4.6875 -1.421875 C 4.359375 -0.34375 3.6875 -0.109375 3.375 -0.109375 C 2.984375 -0.109375 2.828125 -0.421875 2.828125 -0.765625 C 2.828125 -0.984375 2.875 -1.203125 2.984375 -1.640625 Z M 3.328125 -3.015625 " />
</ns0:symbol>
<ns0:symbol overflow="visible" id="embed-4826825072142003771-glyph1-0">
<ns0:path style="stroke:none;" d="" />
</ns0:symbol>
<ns0:symbol overflow="visible" id="embed-4826825072142003771-glyph1-1">
<ns0:path style="stroke:none;" d="M 2.015625 -3.296875 C 2.078125 -3.40625 2.078125 -3.46875 2.078125 -3.515625 C 2.078125 -3.734375 1.890625 -3.890625 1.671875 -3.890625 C 1.40625 -3.890625 1.328125 -3.671875 1.296875 -3.5625 L 0.375 -0.546875 C 0.359375 -0.53125 0.328125 -0.453125 0.328125 -0.4375 C 0.328125 -0.359375 0.546875 -0.28125 0.609375 -0.28125 C 0.65625 -0.28125 0.65625 -0.296875 0.703125 -0.40625 Z M 2.015625 -3.296875 " />
</ns0:symbol>
<ns0:symbol overflow="visible" id="embed-4826825072142003771-glyph2-0">
<ns0:path style="stroke:none;" d="" />
</ns0:symbol>
<ns0:symbol overflow="visible" id="embed-4826825072142003771-glyph2-1">
<ns0:path style="stroke:none;" d="M 3.703125 -2.578125 C 3.734375 -2.671875 3.734375 -2.703125 3.734375 -2.71875 C 3.734375 -2.875 3.609375 -2.9375 3.5 -2.9375 C 3.34375 -2.9375 3.203125 -2.8125 3.171875 -2.671875 C 3.0625 -2.859375 2.828125 -3.078125 2.453125 -3.078125 C 1.59375 -3.078125 0.671875 -2.140625 0.671875 -1.140625 C 0.671875 -0.421875 1.15625 0 1.734375 0 C 2.0625 0 2.359375 -0.15625 2.609375 -0.375 L 2.453125 0.25 C 2.375 0.546875 2.328125 0.734375 2.0625 0.96875 C 1.75 1.21875 1.453125 1.21875 1.28125 1.21875 C 0.96875 1.21875 0.875 1.203125 0.75 1.171875 C 0.921875 1.09375 0.96875 0.921875 0.96875 0.828125 C 0.96875 0.65625 0.84375 0.578125 0.703125 0.578125 C 0.5 0.578125 0.296875 0.734375 0.296875 1 C 0.296875 1.421875 0.90625 1.421875 1.296875 1.421875 C 2.390625 1.421875 2.84375 0.859375 2.953125 0.46875 Z M 2.75 -0.921875 C 2.71875 -0.828125 2.71875 -0.8125 2.59375 -0.671875 C 2.359375 -0.375 2.015625 -0.1875 1.75 -0.1875 C 1.40625 -0.1875 1.234375 -0.5 1.234375 -0.859375 C 1.234375 -1.15625 1.421875 -1.9375 1.609375 -2.25 C 1.890625 -2.734375 2.21875 -2.875 2.453125 -2.875 C 2.953125 -2.875 3.078125 -2.359375 3.078125 -2.28125 C 3.078125 -2.265625 3.078125 -2.265625 3.0625 -2.1875 Z M 2.75 -0.921875 " />
</ns0:symbol>
<ns0:symbol overflow="visible" id="embed-4826825072142003771-glyph2-2">
<ns0:path style="stroke:none;" d="M 1.734375 -0.734375 C 1.671875 -0.5 1.4375 -0.125 1.078125 -0.125 C 1.0625 -0.125 0.84375 -0.125 0.703125 -0.21875 C 0.984375 -0.3125 1.015625 -0.5625 1.015625 -0.609375 C 1.015625 -0.765625 0.890625 -0.859375 0.734375 -0.859375 C 0.53125 -0.859375 0.328125 -0.703125 0.328125 -0.4375 C 0.328125 -0.09375 0.71875 0.0625 1.0625 0.0625 C 1.390625 0.0625 1.671875 -0.125 1.84375 -0.421875 C 2.015625 -0.0625 2.390625 0.0625 2.671875 0.0625 C 3.484375 0.0625 3.90625 -0.796875 3.90625 -1 C 3.90625 -1.09375 3.8125 -1.09375 3.796875 -1.09375 C 3.6875 -1.09375 3.6875 -1.046875 3.65625 -0.96875 C 3.515625 -0.484375 3.09375 -0.125 2.703125 -0.125 C 2.421875 -0.125 2.28125 -0.3125 2.28125 -0.578125 C 2.28125 -0.765625 2.453125 -1.390625 2.640625 -2.171875 C 2.78125 -2.703125 3.09375 -2.875 3.328125 -2.875 C 3.34375 -2.875 3.546875 -2.875 3.703125 -2.78125 C 3.484375 -2.71875 3.390625 -2.515625 3.390625 -2.390625 C 3.390625 -2.25 3.515625 -2.140625 3.671875 -2.140625 C 3.828125 -2.140625 4.0625 -2.265625 4.0625 -2.5625 C 4.0625 -2.953125 3.609375 -3.078125 3.34375 -3.078125 C 2.984375 -3.078125 2.703125 -2.84375 2.5625 -2.578125 C 2.4375 -2.859375 2.109375 -3.078125 1.71875 -3.078125 C 0.9375 -3.078125 0.5 -2.21875 0.5 -2 C 0.5 -1.921875 0.59375 -1.921875 0.609375 -1.921875 C 0.703125 -1.921875 0.703125 -1.9375 0.75 -2.03125 C 0.921875 -2.578125 1.359375 -2.875 1.703125 -2.875 C 1.9375 -2.875 2.125 -2.75 2.125 -2.421875 C 2.125 -2.28125 2.03125 -1.9375 1.96875 -1.6875 Z M 1.734375 -0.734375 " />
</ns0:symbol>
<ns0:symbol overflow="visible" id="embed-4826825072142003771-glyph3-0">
<ns0:path style="stroke:none;" d="" />
</ns0:symbol>
<ns0:symbol overflow="visible" id="embed-4826825072142003771-glyph3-1">
<ns0:path style="stroke:none;" d="M 2.46875 -5.21875 C 1.15625 -4.296875 0.796875 -2.8125 0.796875 -1.75 C 0.796875 -0.765625 1.09375 0.765625 2.46875 1.734375 C 2.53125 1.734375 2.609375 1.734375 2.609375 1.65625 C 2.609375 1.609375 2.59375 1.59375 2.546875 1.546875 C 1.609375 0.703125 1.28125 -0.46875 1.28125 -1.734375 C 1.28125 -3.625 2 -4.546875 2.5625 -5.0625 C 2.59375 -5.09375 2.609375 -5.109375 2.609375 -5.140625 C 2.609375 -5.21875 2.53125 -5.21875 2.46875 -5.21875 Z M 2.46875 -5.21875 " />
</ns0:symbol>
<ns0:symbol overflow="visible" id="embed-4826825072142003771-glyph3-2">
<ns0:path style="stroke:none;" d="M 0.625 -5.21875 C 0.578125 -5.21875 0.5 -5.21875 0.5 -5.140625 C 0.5 -5.109375 0.515625 -5.09375 0.5625 -5.03125 C 1.15625 -4.484375 1.828125 -3.546875 1.828125 -1.75 C 1.828125 -0.296875 1.375 0.8125 0.625 1.484375 C 0.5 1.609375 0.5 1.609375 0.5 1.65625 C 0.5 1.6875 0.515625 1.734375 0.578125 1.734375 C 0.671875 1.734375 1.328125 1.28125 1.796875 0.40625 C 2.09375 -0.171875 2.296875 -0.921875 2.296875 -1.734375 C 2.296875 -2.71875 2 -4.25 0.625 -5.21875 Z M 0.625 -5.21875 " />
</ns0:symbol>
<ns0:symbol overflow="visible" id="embed-4826825072142003771-glyph4-0">
<ns0:path style="stroke:none;" d="" />
</ns0:symbol>
<ns0:symbol overflow="visible" id="embed-4826825072142003771-glyph4-1">
<ns0:path style="stroke:none;" d="M 3.296875 2.390625 C 3.296875 2.359375 3.296875 2.34375 3.125 2.171875 C 1.890625 0.921875 1.5625 -0.96875 1.5625 -2.5 C 1.5625 -4.234375 1.9375 -5.96875 3.171875 -7.203125 C 3.296875 -7.328125 3.296875 -7.34375 3.296875 -7.375 C 3.296875 -7.453125 3.265625 -7.484375 3.203125 -7.484375 C 3.09375 -7.484375 2.203125 -6.796875 1.609375 -5.53125 C 1.109375 -4.4375 0.984375 -3.328125 0.984375 -2.5 C 0.984375 -1.71875 1.09375 -0.515625 1.640625 0.625 C 2.25 1.84375 3.09375 2.5 3.203125 2.5 C 3.265625 2.5 3.296875 2.46875 3.296875 2.390625 Z M 3.296875 2.390625 " />
</ns0:symbol>
<ns0:symbol overflow="visible" id="embed-4826825072142003771-glyph4-2">
<ns0:path style="stroke:none;" d="M 2.875 -2.5 C 2.875 -3.265625 2.765625 -4.46875 2.21875 -5.609375 C 1.625 -6.828125 0.765625 -7.484375 0.671875 -7.484375 C 0.609375 -7.484375 0.5625 -7.4375 0.5625 -7.375 C 0.5625 -7.34375 0.5625 -7.328125 0.75 -7.140625 C 1.734375 -6.15625 2.296875 -4.578125 2.296875 -2.5 C 2.296875 -0.78125 1.9375 0.96875 0.703125 2.21875 C 0.5625 2.34375 0.5625 2.359375 0.5625 2.390625 C 0.5625 2.453125 0.609375 2.5 0.671875 2.5 C 0.765625 2.5 1.671875 1.8125 2.25 0.546875 C 2.765625 -0.546875 2.875 -1.65625 2.875 -2.5 Z M 2.875 -2.5 " />
</ns0:symbol>
</ns0:g>
<ns0:clipPath id="embed-4826825072142003771-clip1">
  <ns0:path d="M 5 7 L 9 7 L 9 12.441406 L 5 12.441406 Z M 5 7 " />
</ns0:clipPath>
<ns0:clipPath id="embed-4826825072142003771-clip2">
  <ns0:path d="M 9 5 L 12 5 L 12 12.441406 L 9 12.441406 Z M 9 5 " />
</ns0:clipPath>
<ns0:clipPath id="embed-4826825072142003771-clip3">
  <ns0:path d="M 17 5 L 19 5 L 19 12.441406 L 17 12.441406 Z M 17 5 " />
</ns0:clipPath>
</ns0:defs>
<ns0:g id="embed-4826825072142003771-surface1">
<ns0:g style="fill:rgb(0%,0%,0%);fill-opacity:1;">
  <ns0:use ns1:href="#embed-4826825072142003771-glyph0-1" x="0" y="7.49" />
</ns0:g>
<ns0:g style="fill:rgb(0%,0%,0%);fill-opacity:1;">
  <ns0:use ns1:href="#embed-4826825072142003771-glyph1-1" x="5.95" y="3.874" />
</ns0:g>
<ns0:g clip-path="url(#embed-4826825072142003771-clip1)" clip-rule="nonzero">
<ns0:g style="fill:rgb(0%,0%,0%);fill-opacity:1;">
  <ns0:use ns1:href="#embed-4826825072142003771-glyph2-1" x="4.878" y="10.699" />
</ns0:g>
</ns0:g>
<ns0:g clip-path="url(#embed-4826825072142003771-clip2)" clip-rule="nonzero">
<ns0:g style="fill:rgb(0%,0%,0%);fill-opacity:1;">
  <ns0:use ns1:href="#embed-4826825072142003771-glyph3-1" x="9.015" y="10.699" />
</ns0:g>
</ns0:g>
<ns0:g style="fill:rgb(0%,0%,0%);fill-opacity:1;">
  <ns0:use ns1:href="#embed-4826825072142003771-glyph2-2" x="12.128" y="10.699" />
</ns0:g>
<ns0:g clip-path="url(#embed-4826825072142003771-clip3)" clip-rule="nonzero">
<ns0:g style="fill:rgb(0%,0%,0%);fill-opacity:1;">
  <ns0:use ns1:href="#embed-4826825072142003771-glyph3-2" x="16.646" y="10.699" />
</ns0:g>
</ns0:g>
<ns0:g style="fill:rgb(0%,0%,0%);fill-opacity:1;">
  <ns0:use ns1:href="#embed-4826825072142003771-glyph4-1" x="20.257" y="7.49" />
</ns0:g>
<ns0:g style="fill:rgb(0%,0%,0%);fill-opacity:1;">
  <ns0:use ns1:href="#embed-4826825072142003771-glyph0-2" x="24.132" y="7.49" />
</ns0:g>
<ns0:g style="fill:rgb(0%,0%,0%);fill-opacity:1;">
  <ns0:use ns1:href="#embed-4826825072142003771-glyph4-1" x="29.241" y="7.49" />
</ns0:g>
<ns0:g style="fill:rgb(0%,0%,0%);fill-opacity:1;">
  <ns0:use ns1:href="#embed-4826825072142003771-glyph0-3" x="33.115" y="7.49" />
</ns0:g>
<ns0:g style="fill:rgb(0%,0%,0%);fill-opacity:1;">
  <ns0:use ns1:href="#embed-4826825072142003771-glyph4-2" x="38.809" y="7.49" />
  <ns0:use ns1:href="#embed-4826825072142003771-glyph4-2" x="42.683455" y="7.49" />
</ns0:g>
</ns0:g>
</ns0:svg></g></g><g /></g></g><g transform="translate(0.5 -0.0)"><g style="stroke-width: 0.03;" transform="scale(-1 1) scale(1)"><polyline marker-end="url(#arrow)" points="0,0 1,0" /></g></g></g></g></g><g transform="translate(4.155166666666666 0)"><g style=";" transform="scale(1)"><g /></g></g></g><g transform="translate(5.005166666666666 0)"><g><g style="fill: #ff9700;stroke-width: 0.05;" transform="scale(1)"><rect height="1" width="1.5" x="-0.75" y="-0.5" /></g><g style=";" transform="scale(0.7 0.7) scale(1)"><g transform="scale(0.05) translate(-3.406 -4.1513333333333335)"><ns0:svg width="5.109pt" height="6.227pt" viewBox="0 0 5.109 6.227" version="1.1">
<ns0:defs>
<ns0:g>
<ns0:symbol overflow="visible" id="embed--4967847602933010182-glyph0-0">
<ns0:path style="stroke:none;" d="" />
</ns0:symbol>
<ns0:symbol overflow="visible" id="embed--4967847602933010182-glyph0-1">
<ns0:path style="stroke:none;" d="M 4.6875 -3.765625 C 4.703125 -3.8125 4.71875 -3.875 4.71875 -3.9375 C 4.71875 -4.109375 4.609375 -4.203125 4.4375 -4.203125 C 4.34375 -4.203125 4.0625 -4.140625 4.03125 -3.78125 C 3.84375 -4.140625 3.5 -4.40625 3.09375 -4.40625 C 1.96875 -4.40625 0.734375 -3.015625 0.734375 -1.578125 C 0.734375 -0.59375 1.328125 0 2.046875 0 C 2.640625 0 3.109375 -0.46875 3.203125 -0.578125 L 3.21875 -0.5625 C 3.015625 0.3125 2.890625 0.734375 2.890625 0.75 C 2.84375 0.84375 2.515625 1.828125 1.453125 1.828125 C 1.265625 1.828125 0.9375 1.8125 0.65625 1.71875 C 0.953125 1.640625 1.0625 1.375 1.0625 1.203125 C 1.0625 1.046875 0.953125 0.859375 0.6875 0.859375 C 0.46875 0.859375 0.15625 1.03125 0.15625 1.4375 C 0.15625 1.84375 0.515625 2.046875 1.46875 2.046875 C 2.71875 2.046875 3.4375 1.265625 3.59375 0.671875 Z M 3.40625 -1.28125 C 3.34375 -1.015625 3.109375 -0.765625 2.890625 -0.578125 C 2.6875 -0.40625 2.375 -0.21875 2.078125 -0.21875 C 1.578125 -0.21875 1.4375 -0.734375 1.4375 -1.140625 C 1.4375 -1.609375 1.71875 -2.796875 2 -3.296875 C 2.265625 -3.78125 2.6875 -4.1875 3.109375 -4.1875 C 3.765625 -4.1875 3.90625 -3.375 3.90625 -3.328125 C 3.90625 -3.28125 3.890625 -3.21875 3.875 -3.1875 Z M 3.40625 -1.28125 " />
</ns0:symbol>
</ns0:g>
<ns0:clipPath id="embed--4967847602933010182-clip1">
  <ns0:path d="M 0 0 L 5 0 L 5 6.226562 L 0 6.226562 Z M 0 0 " />
</ns0:clipPath>
</ns0:defs>
<ns0:g id="embed--4967847602933010182-surface1">
<ns0:g clip-path="url(#embed--4967847602933010182-clip1)" clip-rule="nonzero">
<ns0:g style="fill:rgb(0%,0%,0%);fill-opacity:1;">
  <ns0:use ns1:href="#embed--4967847602933010182-glyph0-1" x="0" y="4.29" />
</ns0:g>
</ns0:g>
</ns0:g>
</ns0:svg></g></g></g></g></g><g transform="translate(5.8551666666666655 0)"><g style=";" transform="scale(1)"><g /></g></g></g><g transform="translate(6.455166666666665 0)"><g><g transform="translate(0 -0.507)"><g><g style=";" transform="scale(0.5 0.5) scale(1)"><g transform="scale(0.05) translate(-3.3206666666666664 -4.28)"><ns0:svg width="4.981pt" height="6.42pt" viewBox="0 0 4.981 6.42" version="1.1">
<ns0:defs>
<ns0:g>
<ns0:symbol overflow="visible" id="embed-1944201690766093611-glyph0-0">
<ns0:path style="stroke:none;" d="" />
</ns0:symbol>
<ns0:symbol overflow="visible" id="embed-1944201690766093611-glyph0-1">
<ns0:path style="stroke:none;" d="M 2.9375 -6.375 C 2.9375 -6.625 2.9375 -6.640625 2.703125 -6.640625 C 2.078125 -6 1.203125 -6 0.890625 -6 L 0.890625 -5.6875 C 1.09375 -5.6875 1.671875 -5.6875 2.1875 -5.953125 L 2.1875 -0.78125 C 2.1875 -0.421875 2.15625 -0.3125 1.265625 -0.3125 L 0.953125 -0.3125 L 0.953125 0 C 1.296875 -0.03125 2.15625 -0.03125 2.5625 -0.03125 C 2.953125 -0.03125 3.828125 -0.03125 4.171875 0 L 4.171875 -0.3125 L 3.859375 -0.3125 C 2.953125 -0.3125 2.9375 -0.421875 2.9375 -0.78125 Z M 2.9375 -6.375 " />
</ns0:symbol>
</ns0:g>
<ns0:clipPath id="embed-1944201690766093611-clip1">
  <ns0:path d="M 0 0 L 4.980469 0 L 4.980469 6.421875 L 0 6.421875 Z M 0 0 " />
</ns0:clipPath>
</ns0:defs>
<ns0:g id="embed-1944201690766093611-surface1">
<ns0:g clip-path="url(#embed-1944201690766093611-clip1)" clip-rule="nonzero">
<ns0:g style="fill:rgb(0%,0%,0%);fill-opacity:1;">
  <ns0:use ns1:href="#embed-1944201690766093611-glyph0-1" x="0" y="6.42" />
</ns0:g>
</ns0:g>
</ns0:g>
</ns0:svg></g></g><g /></g></g><g transform="translate(0.5 -0.0)"><g style="stroke-width: 0.03;" transform="scale(-1 1) scale(1)"><polyline marker-end="url(#arrow)" points="0,0 1,0" /></g></g></g></g></g></g></svg>