<?xml version="1.0" encoding="utf-8" ?>
<svg baseProfile="full" height="300" version="1.1" width="112" xmlns="http://www.w3.org/2000/svg" xmlns:ev="http://www.w3.org/2001/xml-events" xmlns:xlink="http://www.w3.org/1999/xlink"><defs><marker id="arrow" markerHeight="3.5" markerWidth="5" orient="auto" refX="5.0" refY="1.7"><polygon points="0,0 5,1.75 0,3.5" /></marker></defs><g style="fill:white;"><g transform="matrix(1.0, 0.0, 0.0, 1.0, 56.0, 149.1466667285892)"><g transform="matrix(16.289719903921515, 0.0, 0.0, 16.289719903921515, 0.0, 0.0)"><g><g transform="matrix(1.0, 0.0, 0.0, 1.0, -1.8472718241315025, -7.7198825603639225)"><g><g><g><g><g><g><g><g><g><g><g><g><g><g><g><g style="fill: #0000ff;stroke: black;stroke-width: 0.9;" transform="matrix(1.0, 0.0, 0.0, 1.0, 0.0, 0.0)"><path d="M 1.0 0.0 A 1.0 1.0 0.0 0 1 -1.0 0.0 A 1.0 1.0 0.0 0 1 1.0 0.0 Z" style="vector-effect: non-scaling-stroke;" /></g><g style="fill: #0000ff;stroke: #ff0000;stroke-width: 0.9;" transform="matrix(1.0, 0.0, 0.0, 1.0, 0.0, 0.0)"><path d="M 0.04 0.0 A 0.04 0.04 0.0 0 1 -0.04 0.0 A 0.04 0.04 0.0 0 1 0.04 0.0 Z" style="vector-effect: non-scaling-stroke;" /></g></g><g style="fill: #0000ff;stroke: black;stroke-width: 0.9;" transform="matrix(0.0, -1.0, 1.0, 0.0, 0.0, 1.5)"><g /></g></g><g transform="matrix(1.0, 0.0, 0.0, 1.0, 0.0, 3.0)"><g><g style="fill: #0000ff;stroke: black;stroke-width: 0.9;" transform="matrix(1.0, 0.0, 0.0, 1.0, 0.0, 0.0)"><path d="M -1.0 0.0 A 1.0 1.0 -90.0 0 1 1.0 0.0" style="vector-effect: non-scaling-stroke;" /></g><g style="fill: #0000ff;stroke: #ff0000;stroke-width: 0.9;" transform="matrix(1.0, 0.0, 0.0, 1.0, 0.0, 0.0)"><path d="M 0.02 0.0 A 0.02 0.02 0.0 0 1 -0.02 0.0 A 0.02 0.02 0.0 0 1 0.02 0.0 Z" style="vector-effect: non-scaling-stroke;" /></g></g></g></g><g style="fill: #0000ff;stroke: black;stroke-width: 0.9;" transform="matrix(0.0, -1.0, 1.0, 0.0, 0.0, 3.52)"><g /></g></g><g transform="matrix(1.0, 0.0, 0.0, 1.0, 0.0, 4.039999999999999)"><g><g style="fill: #0000ff;stroke: black;stroke-width: 0.9;" transform="matrix(1.0, 0.0, 0.0, 1.0, 0.0, 0.0)"><path d="M -1.0 0.0 A 1.0 1.0 90.0 0 0 1.0 0.0" style="vector-effect: non-scaling-stroke;" /></g><g style="fill: #0000ff;stroke: #ff0000;stroke-width: 0.9;" transform="matrix(1.0, 0.0, 0.0, 1.0, 0.0, 0.0)"><path d="M 0.02 0.0 A 0.02 0.02 0.0 0 1 -0.02 0.0 A 0.02 0.02 0.0 0 1 0.02 0.0 Z" style="vector-effect: non-scaling-stroke;" /></g></g></g></g><g style="fill: #0000ff;stroke: black;stroke-width: 0.9;" transform="matrix(0.0, -1.0, 1.0, 0.0, 0.0, 5.539999999999999)"><g /></g></g><g transform="matrix(1.0, 0.0, 0.0, 1.0, 0.0, 6.466776695296636)"><g><g style="fill: #0000ff;stroke: black;stroke-width: 0.9;" transform="matrix(1.0, 0.0, 0.0, 1.0, 0.0, 0.0)"><path d="M -1.0 1.1102230246251565e-16 A 0.7499999999999999 0.7499999999999999 -44.999999999999986 1 1 -1.6653345369377348e-16 1.0" style="vector-effect: non-scaling-stroke;" /></g><g style="fill: #0000ff;stroke: #ff0000;stroke-width: 0.9;" transform="matrix(1.0, 0.0, 0.0, 1.0, 0.0, 0.0)"><path d="M 0.02853553390593273 0.0 A 0.02853553390593273 0.02853553390593273 0.0 0 1 -0.02853553390593273 0.0 A 0.02853553390593273 0.02853553390593273 0.0 0 1 0.02853553390593273 0.0 Z" style="vector-effect: non-scaling-stroke;" /></g></g></g></g><g style="fill: #0000ff;stroke: black;stroke-width: 0.9;" transform="matrix(0.0, -1.0, 1.0, 0.0, 0.0, 7.966776695296636)"><g /></g></g><g transform="matrix(1.0, 0.0, 0.0, 1.0, 0.0, 8.495312229202568)"><g><g style="fill: #0000ff;stroke: black;stroke-width: 0.9;" transform="matrix(1.0, 0.0, 0.0, 1.0, 0.0, 0.0)"><path d="M -1.0 1.1102230246251565e-16 A 0.7499999999999999 0.7499999999999999 135.00000000000003 1 0 -2.220446049250313e-16 1.0" style="vector-effect: non-scaling-stroke;" /></g><g style="fill: #0000ff;stroke: #ff0000;stroke-width: 0.9;" transform="matrix(1.0, 0.0, 0.0, 1.0, 0.0, 0.0)"><path d="M 0.028535533905932733 0.0 A 0.028535533905932733 0.028535533905932733 0.0 0 1 -0.028535533905932733 0.0 A 0.028535533905932733 0.028535533905932733 0.0 0 1 0.028535533905932733 0.0 Z" style="vector-effect: non-scaling-stroke;" /></g></g></g></g><g style="fill: #0000ff;stroke: black;stroke-width: 0.9;" transform="matrix(0.0, -1.0, 1.0, 0.0, 0.0, 10.422088924499205)"><g /></g></g><g transform="matrix(1.0, 0.0, 0.0, 1.0, 0.0, 11.7126583395413)"><g><g style="fill: #0000ff;stroke: black;stroke-width: 0.9;" transform="matrix(1.0, 0.0, 0.0, 1.0, 0.0, 0.0)"><path d="M -0.7071067811865476 0.7071067811865475 A 0.5 1.0 -135.0 0 1 0.7071067811865476 -0.7071067811865475" style="vector-effect: non-scaling-stroke;" /></g><g style="fill: #0000ff;stroke: #ff0000;stroke-width: 0.9;" transform="matrix(1.0, 0.0, 0.0, 1.0, 0.0, 0.0)"><path d="M 0.029953523924572845 0.0 A 0.029953523924572845 0.029953523924572845 0.0 0 1 -0.029953523924572845 0.0 A 0.029953523924572845 0.029953523924572845 0.0 0 1 0.029953523924572845 0.0 Z" style="vector-effect: non-scaling-stroke;" /></g></g></g></g><g style="fill: #0000ff;stroke: black;stroke-width: 0.9;" transform="matrix(0.0, -1.0, 1.0, 0.0, 0.0, 12.919765120727847)"><g /></g></g><g transform="matrix(1.0, 0.0, 0.0, 1.0, 0.0, 13.919765120727847)"><g><g style="fill: #0000ff;stroke: black;stroke-width: 0.9;" transform="matrix(1.0, 0.0, 0.0, 1.0, -0.49999999999999994, -0.5)"><path d="M 0.0 0.4 L 0.0 0.8 A 0.22500000000000003 0.22500000000000003 135.00000000000003 0 0 0.19999999999999996 1.0 L 0.8 1.0 A 0.22499999999999998 0.22499999999999998 45.00000000000001 0 0 1.0 0.8 L 1.0 0.2 A 0.22500000000000003 0.22500000000000003 -44.99999999999999 0 0 0.7999999999999999 -2.7755575615628914e-17 L 0.2 0.0 A 0.2250000000000001 0.2250000000000001 -135.0 0 0 -8.326672684688674e-17 0.20000000000000007 L 0.0 0.4 Z" style="vector-effect: non-scaling-stroke;" /></g><g style="fill: #0000ff;stroke: #ff0000;stroke-width: 0.9;" transform="matrix(1.0, 0.0, 0.0, 1.0, 0.0, 0.0)"><path d="M 0.02 0.0 A 0.02 0.02 0.0 0 1 -0.02 0.0 A 0.02 0.02 0.0 0 1 0.02 0.0 Z" style="vector-effect: non-scaling-stroke;" /></g></g></g></g><g style="fill: #0000ff;stroke: black;stroke-width: 0.9;" transform="matrix(0.0, -1.0, 1.0, 0.0, 0.0, 14.919765120727847)"><g /></g></g><g transform="matrix(1.0, 0.0, 0.0, 1.0, 0.0, 16.419765120727845)"><g><g><g><g><g><g style="fill: #0000ff;stroke: black;stroke-width: 0.9;" transform="matrix(1.0, 0.0, 0.0, 1.0, 0.0, 0.0)"><path d="M -1.0 0.0 A 1.0 1.0 0.0 0 1 0.7071067811865474 -0.7071067811865477" style="vector-effect: non-scaling-stroke;" /></g><g style="fill: #0000ff;stroke: #ff0000;stroke-width: 0.9;" transform="matrix(1.0, 0.0, 0.0, 1.0, 0.0, 0.0)"><path d="M 0.02 0.0 A 0.02 0.02 0.0 0 1 -0.02 0.0 A 0.02 0.02 0.0 0 1 0.02 0.0 Z" style="vector-effect: non-scaling-stroke;" /></g></g><g style="fill: #0000ff;stroke: black;stroke-width: 0.9;" transform="matrix(1.0, 0.0, 0.0, 1.0, 0.9571067811865474, 0.0)"><g /></g></g><g transform="matrix(1.0, 0.0, 0.0, 1.0, 1.914213562373095, 0.0)"><g><g style="fill: #0000ff;stroke: black;stroke-width: 0.9;" transform="matrix(1.0, 0.0, 0.0, 1.0, 0.0, 0.0)"><path d="M 1.0 0.0 A 1.0 1.0 180.0 0 0 -0.7071067811865474 -0.7071067811865477" style="vector-effect: non-scaling-stroke;" /></g><g style="fill: #0000ff;stroke: #ff0000;stroke-width: 0.9;" transform="matrix(1.0, 0.0, 0.0, 1.0, 0.0, 0.0)"><path d="M 0.02 0.0 A 0.02 0.02 0.0 0 1 -0.02 0.0 A 0.02 0.02 0.0 0 1 0.02 0.0 Z" style="vector-effect: non-scaling-stroke;" /></g></g></g></g><g style="fill: #0000ff;stroke: black;stroke-width: 0.9;" transform="matrix(1.0, 0.0, 0.0, 1.0, 3.164213562373095, 0.0)"><g /></g></g><g transform="matrix(1.0, 0.0, 0.0, 1.0, 4.121320343559642, 0.0)"><g><g style="fill: #0000ff;stroke: black;stroke-width: 0.9;" transform="matrix(-1.0, 0.0, 0.0, 1.0, 0.0, 0.0)"><path d="M -1.0 0.0 A 1.0 1.0 0.0 0 1 0.7071067811865474 -0.7071067811865477" style="vector-effect: non-scaling-stroke;" /></g><g style="fill: #0000ff;stroke: #ff0000;stroke-width: 0.9;" transform="matrix(1.0, 0.0, 0.0, 1.0, 0.0, 0.0)"><path d="M 0.02 0.0 A 0.02 0.02 0.0 0 1 -0.02 0.0 A 0.02 0.02 0.0 0 1 0.02 0.0 Z" style="vector-effect: non-scaling-stroke;" /></g></g></g></g></g></g></g><g /></g></g></g></g></svg>