<?xml version="1.0" encoding="utf-8" ?>
<svg baseProfile="full" height="300" version="1.1" width="68" xmlns="http://www.w3.org/2000/svg" xmlns:ev="http://www.w3.org/2001/xml-events" xmlns:xlink="http://www.w3.org/1999/xlink"><defs><marker id="arrow" markerHeight="3.5" markerWidth="5" orient="auto" refX="5.0" refY="1.7"><polygon points="0,0 5,1.75 0,3.5" /></marker></defs><g style="fill:white;"><g transform="matrix(1.0, 0.0, 0.0, 1.0, 34.0, 148.3237982359182)"><g transform="matrix(7.2389431939496935, 0.0, 0.0, 7.2389431939496935, 0.0, 0.0)"><g><g transform="matrix(1.0, 0.0, 0.0, 1.0, -1.8481601717798215, -18.514003141059277)"><g><g style="fill: #0000ff;stroke: black;stroke-width: 0.9;" transform="matrix(1.0, 0.0, 0.0, 1.0, 1.0, 0.0)"><path d="M 0.0 0.0 A 1.0 1.0 0.0 0 0 -1.0 -1.0 A 1.0 1.0 -90.0 0 0 -2.0 0.0 A 1.0 1.0 180.0 0 0 -1.0 1.0 A 1.0 1.0 90.0 0 0 0.0 0.0 Z" style="vector-effect: non-scaling-stroke;" /></g><g style="fill: #0000ff;stroke: #ff0000;stroke-width: 0.9;" transform="matrix(0.1, 0.0, 0.0, 0.1, 0.1, 0.0)"><path d="M 0.0 0.0 A 1.0 1.0 0.0 0 0 -1.0 -1.0 A 1.0 1.0 -90.0 0 0 -2.0 0.0 A 1.0 1.0 180.0 0 0 -1.0 1.0 A 1.0 1.0 90.0 0 0 0.0 0.0 Z" style="vector-effect: non-scaling-stroke;" /></g><g style="fill: #0000ff;stroke: black;stroke-width: 0.9;" transform="matrix(0.0, -1.0, 1.0, 0.0, 0.0, 1.5)"><g /></g><g transform="matrix(1.0, 0.0, 0.0, 1.0, 0.0, 2.5)"><g><g style="fill: #0000ff;stroke: black;stroke-width: 0.9;" transform="matrix(1.0, 0.0, 0.0, 1.0, 0.0, 0.0)"><path d="M -0.5 -0.5 L 0.5 -0.5 L 0.5 0.5 L -0.5 0.5 L -0.5 -0.5 Z M -0.25 -0.25 L -0.25 0.25 L 0.25 0.25 L 0.25 -0.25 L -0.25 -0.25 Z" style="vector-effect: non-scaling-stroke;" /></g><g style="fill: #0000ff;stroke: black;stroke-width: 0.9;" transform="matrix(0.0, -1.0, 1.0, 0.0, 0.0, 1.0)"><g /></g><g style="fill: #0000ff;stroke: black;stroke-width: 0.9;" transform="matrix(1.0, 0.0, 0.0, 1.0, 0.0, 3.5)"><path d="M 2.0 -0.0 A 2.0 2.0 0.0 0 0 0.0 -2.0 A 2.0 2.0 -90.0 0 0 -2.0 0.0 A 2.0 2.0 180.0 0 0 0.0 2.0 A 2.0 2.0 90.0 0 0 2.0 0.0 Z M 1.0 -0.0 A 1.0 1.0 0.0 0 1 0.0 1.0 A 1.0 1.0 90.0 0 1 -1.0 0.0 A 1.0 1.0 180.0 0 1 0.0 -1.0 A 1.0 1.0 -90.0 0 1 1.0 0.0 Z" style="vector-effect: non-scaling-stroke;" /></g><g style="fill: #0000ff;stroke: black;stroke-width: 0.9;" transform="matrix(0.0, -1.0, 1.0, 0.0, 0.0, 6.0)"><g /></g><g transform="matrix(1.0, 0.0, 0.0, 1.0, 0.0, 7.5)"><g><g style="fill: #0000ff;stroke: black;stroke-width: 0.9;" transform="matrix(1.0, 0.0, 0.0, 1.0, 0.0, 0.0)"><path d="M 0.0 0.0 A 1.0 1.0 -90.0 0 1 2.0 0.0" style="vector-effect: non-scaling-stroke;fill:none;" /></g><g style="fill: #0000ff;stroke: #ff0000;stroke-width: 0.9;" transform="matrix(0.1, 0.0, 0.0, 0.1, 0.1, 0.0)"><path d="M 0.0 0.0 A 1.0 1.0 0.0 0 0 -1.0 -1.0 A 1.0 1.0 -90.0 0 0 -2.0 0.0 A 1.0 1.0 180.0 0 0 -1.0 1.0 A 1.0 1.0 90.0 0 0 0.0 0.0 Z" style="vector-effect: non-scaling-stroke;" /></g><g style="fill: #0000ff;stroke: black;stroke-width: 0.9;" transform="matrix(0.0, -1.0, 1.0, 0.0, 0.0, 0.6)"><g /></g><g transform="matrix(1.0, 0.0, 0.0, 1.0, 0.0, 1.2000000000000002)"><g><g style="fill: #0000ff;stroke: black;stroke-width: 0.9;" transform="matrix(1.0, 0.0, 0.0, 1.0, 0.0, 0.0)"><path d="M 0.0 0.0 A 1.0 1.0 90.0 0 0 2.0 0.0" style="vector-effect: non-scaling-stroke;fill:none;" /></g><g style="fill: #0000ff;stroke: #ff0000;stroke-width: 0.9;" transform="matrix(0.1, 0.0, 0.0, 0.1, 0.1, 0.0)"><path d="M 0.0 0.0 A 1.0 1.0 0.0 0 0 -1.0 -1.0 A 1.0 1.0 -90.0 0 0 -2.0 0.0 A 1.0 1.0 180.0 0 0 -1.0 1.0 A 1.0 1.0 90.0 0 0 0.0 0.0 Z" style="vector-effect: non-scaling-stroke;" /></g></g></g></g></g><g style="fill: #0000ff;stroke: black;stroke-width: 0.9;" transform="matrix(0.0, -1.0, 1.0, 0.0, 0.0, 10.2)"><g /></g><g transform="matrix(1.0, 0.0, 0.0, 1.0, 0.0, 11.126776695296636)"><g><g style="fill: #0000ff;stroke: black;stroke-width: 0.9;" transform="matrix(1.0, 0.0, 0.0, 1.0, 0.0, 0.0)"><path d="M 0.0 0.0 A 0.7499999999999999 0.7499999999999999 -44.999999999999986 1 1 0.9999999999999998 1.0" style="vector-effect: non-scaling-stroke;fill:none;" /></g><g style="fill: #0000ff;stroke: #ff0000;stroke-width: 0.9;" transform="matrix(0.1, 0.0, 0.0, 0.1, 0.1, 0.0)"><path d="M 0.0 0.0 A 1.0 1.0 0.0 0 0 -1.0 -1.0 A 1.0 1.0 -90.0 0 0 -2.0 0.0 A 1.0 1.0 180.0 0 0 -1.0 1.0 A 1.0 1.0 90.0 0 0 0.0 0.0 Z" style="vector-effect: non-scaling-stroke;" /></g><g style="fill: #0000ff;stroke: black;stroke-width: 0.9;" transform="matrix(0.0, -1.0, 1.0, 0.0, 0.0, 1.5)"><g /></g><g transform="matrix(1.0, 0.0, 0.0, 1.0, 0.0, 3.0)"><g><g style="fill: #0000ff;stroke: black;stroke-width: 0.9;" transform="matrix(1.0, 0.0, 0.0, 1.0, 0.0, 0.0)"><path d="M 0.0 0.0 A 0.7499999999999999 0.7499999999999999 135.00000000000003 1 1 -0.9999999999999998 -1.0" style="vector-effect: non-scaling-stroke;fill:none;" /></g><g style="fill: #0000ff;stroke: #ff0000;stroke-width: 0.9;" transform="matrix(0.1, 0.0, 0.0, 0.1, 0.1, 0.0)"><path d="M 0.0 0.0 A 1.0 1.0 0.0 0 0 -1.0 -1.0 A 1.0 1.0 -90.0 0 0 -2.0 0.0 A 1.0 1.0 180.0 0 0 -1.0 1.0 A 1.0 1.0 90.0 0 0 0.0 0.0 Z" style="vector-effect: non-scaling-stroke;" /></g></g></g><g style="fill: #0000ff;stroke: black;stroke-width: 0.9;" transform="matrix(0.0, -1.0, 1.0, 0.0, 0.0, 3.9267766952966365)"><g /></g><g transform="matrix(1.0, 0.0, 0.0, 1.0, 0.0, 4.526776695296636)"><g><g style="fill: #0000ff;stroke: black;stroke-width: 0.9;" transform="matrix(1.0, 0.0, 0.0, 1.0, 0.0, 0.0)"><path d="M 0.0 0.0 A 0.7499999999999999 0.7499999999999999 135.00000000000003 1 0 0.9999999999999998 1.0" style="vector-effect: non-scaling-stroke;fill:none;" /></g><g style="fill: #0000ff;stroke: #ff0000;stroke-width: 0.9;" transform="matrix(0.1, 0.0, 0.0, 0.1, 0.1, 0.0)"><path d="M 0.0 0.0 A 1.0 1.0 0.0 0 0 -1.0 -1.0 A 1.0 1.0 -90.0 0 0 -2.0 0.0 A 1.0 1.0 180.0 0 0 -1.0 1.0 A 1.0 1.0 90.0 0 0 0.0 0.0 Z" style="vector-effect: non-scaling-stroke;" /></g><g style="fill: #0000ff;stroke: black;stroke-width: 0.9;" transform="matrix(0.0, -1.0, 1.0, 0.0, 0.0, 1.9267766952966368)"><g /></g><g transform="matrix(1.0, 0.0, 0.0, 1.0, 0.0, 3.924452891525279)"><g><g style="fill: #0000ff;stroke: black;stroke-width: 0.9;" transform="matrix(1.0, 0.0, 0.0, 1.0, 0.0, 0.0)"><path d="M 0.0 0.0 A 0.5 1.0 -135.0 0 1 1.4142135623730951 -1.414213562373095" style="vector-effect: non-scaling-stroke;fill:none;" /></g><g style="fill: #0000ff;stroke: #ff0000;stroke-width: 0.9;" transform="matrix(0.1, 0.0, 0.0, 0.1, 0.1, 0.0)"><path d="M 0.0 0.0 A 1.0 1.0 0.0 0 0 -1.0 -1.0 A 1.0 1.0 -90.0 0 0 -2.0 0.0 A 1.0 1.0 180.0 0 0 -1.0 1.0 A 1.0 1.0 90.0 0 0 0.0 0.0 Z" style="vector-effect: non-scaling-stroke;" /></g></g></g></g></g></g></g><g style="fill: #0000ff;stroke: black;stroke-width: 0.9;" transform="matrix(0.0, -1.0, 1.0, 0.0, 0.0, 20.178006282118552)"><g /></g><g transform="matrix(1.0, 0.0, 0.0, 1.0, 0.0, 23.428006282118552)"><g><g style="fill: #0000ff;stroke: black;stroke-width: 0.9;" transform="matrix(1.0, 0.0, 0.0, 1.0, -0.7500000000000001, -2.25)"><path d="M 0.0 0.0 L 0.0 4.5 A 0.5000000000000001 0.5000000000000001 135.00000000000003 0 0 0.5 5.0 L 1.0 5.0 A 0.5000000000000001 0.5000000000000001 45.000000000000014 0 0 1.5000000000000002 4.5 L 1.5000000000000002 0.0 A 0.5000000000000001 0.5000000000000001 -44.999999999999986 0 0 1.0000000000000002 -0.5000000000000002 L 0.5000000000000002 -0.5000000000000002 A 0.5000000000000001 0.5000000000000001 -135.0 0 0 0.0 -2.220446049250313e-16 L 0.0 0.009999999999999778 Z" style="vector-effect: non-scaling-stroke;" /></g><g style="fill: #0000ff;stroke: black;stroke-width: 0.9;" transform="matrix(0.0, -1.0, 1.0, 0.0, 0.0, 3.25)"><g /></g><g style="fill: #0000ff;stroke: black;stroke-width: 0.9;" transform="matrix(1.0, 0.0, 0.0, 1.0, -2.625, 4.0)"><path d="M 0.0 0.0 L 0.0 0.75 A 0.25000000000000006 0.25000000000000006 135.00000000000003 0 0 0.25 1.0 L 5.0 1.0 A 0.25000000000000006 0.25000000000000006 45.000000000000014 0 0 5.25 0.75 L 5.25 0.0 A 0.25000000000000006 0.25000000000000006 -44.999999999999986 0 0 5.0 -0.2500000000000001 L 0.25 -0.2500000000000001 A 0.25000000000000006 0.25000000000000006 -135.0 0 0 -1.1102230246251565e-16 -1.1102230246251565e-16 L -1.1102230246251565e-16 0.00999999999999989 Z" style="vector-effect: non-scaling-stroke;" /></g><g style="fill: #0000ff;stroke: black;stroke-width: 0.9;" transform="matrix(0.0, -1.0, 1.0, 0.0, 0.0, 5.5)"><g /></g><g transform="matrix(1.0, 0.0, 0.0, 1.0, 0.0, 7.0)"><g><g style="fill: #0000ff;stroke: black;stroke-width: 0.9;" transform="matrix(1.0, 0.0, 0.0, 1.0, -1.0000000000000002, -2.220446049250313e-16)"><path d="M 0.0 0.0 L 0.0 0.0 A 1.0 1.0 135.00000000000003 0 0 1.0 1.0000000000000004 L 1.0 1.0000000000000004 A 1.0 1.0 45.000000000000014 0 0 2.0000000000000004 4.440892098500626e-16 L 2.0000000000000004 4.440892098500626e-16 A 1.0 1.0 -44.999999999999986 0 0 1.0000000000000004 -1.0 L 1.0000000000000004 -1.0 A 1.0 1.0 -135.0 0 0 0.0 0.0 L 0.0 0.01 Z" style="vector-effect: non-scaling-stroke;" /></g><g style="fill: #0000ff;stroke: black;stroke-width: 0.9;" transform="matrix(0.0, -1.0, 1.0, 0.0, 0.0, 1.5000000000000002)"><g /></g><g transform="matrix(1.0, 0.0, 0.0, 1.0, 0.0, 2.5)"><g><g style="fill: #0000ff;stroke: black;stroke-width: 0.9;" transform="matrix(1.0, 0.0, 0.0, 1.0, -0.5, -0.5)"><path d="M 0.0 0.0 L 1.0 0.0 L 1.0 1.0 L 0.0 1.0 L 0.0 0.0 Z" style="vector-effect: non-scaling-stroke;" /></g><g style="fill: #0000ff;stroke: #ff0000;stroke-width: 0.9;" transform="matrix(0.1, 0.0, 0.0, 0.1, 0.1, 0.0)"><path d="M 0.0 0.0 A 1.0 1.0 0.0 0 0 -1.0 -1.0 A 1.0 1.0 -90.0 0 0 -2.0 0.0 A 1.0 1.0 180.0 0 0 -1.0 1.0 A 1.0 1.0 90.0 0 0 0.0 0.0 Z" style="vector-effect: non-scaling-stroke;" /></g></g></g></g></g></g></g><g style="fill: #0000ff;stroke: black;stroke-width: 0.9;" transform="matrix(0.0, -1.0, 1.0, 0.0, 0.0, 33.92800628211855)"><g /></g><g transform="matrix(1.0, 0.0, 0.0, 1.0, 0.0, 35.42800628211855)"><g><g style="fill: #0000ff;stroke: black;stroke-width: 0.9;" transform="matrix(1.0, 0.0, 0.0, 1.0, 0.0, 0.0)"><path d="M 0.0 0.0 A 1.0 1.0 0.0 0 1 1.7071067811865475 -0.7071067811865477" style="vector-effect: non-scaling-stroke;fill:none;" /></g><g style="fill: #0000ff;stroke: #ff0000;stroke-width: 0.9;" transform="matrix(0.1, 0.0, 0.0, 0.1, 0.1, 0.0)"><path d="M 0.0 0.0 A 1.0 1.0 0.0 0 0 -1.0 -1.0 A 1.0 1.0 -90.0 0 0 -2.0 0.0 A 1.0 1.0 180.0 0 0 -1.0 1.0 A 1.0 1.0 90.0 0 0 0.0 0.0 Z" style="vector-effect: non-scaling-stroke;" /></g><g style="fill: #0000ff;stroke: black;stroke-width: 0.9;" transform="matrix(1.0, 0.0, 0.0, 1.0, 1.9571067811865475, 0.0)"><g /></g><g transform="matrix(1.0, 0.0, 0.0, 1.0, 3.914213562373095, 0.0)"><g><g style="fill: #0000ff;stroke: black;stroke-width: 0.9;" transform="matrix(1.0, 0.0, 0.0, 1.0, 0.0, 0.0)"><path d="M 0.0 0.0 A 1.0 1.0 180.0 0 0 -1.7071067811865475 -0.7071067811865477" style="vector-effect: non-scaling-stroke;fill:none;" /></g><g style="fill: #0000ff;stroke: #ff0000;stroke-width: 0.9;" transform="matrix(0.1, 0.0, 0.0, 0.1, 0.1, 0.0)"><path d="M 0.0 0.0 A 1.0 1.0 0.0 0 0 -1.0 -1.0 A 1.0 1.0 -90.0 0 0 -2.0 0.0 A 1.0 1.0 180.0 0 0 -1.0 1.0 A 1.0 1.0 90.0 0 0 0.0 0.0 Z" style="vector-effect: non-scaling-stroke;" /></g><g style="fill: #0000ff;stroke: black;stroke-width: 0.9;" transform="matrix(1.0, 0.0, 0.0, 1.0, 0.35, 0.0)"><g /></g><g transform="matrix(1.0, 0.0, 0.0, 1.0, 2.3071067811865476, 0.0)"><g><g style="fill: #0000ff;stroke: black;stroke-width: 0.9;" transform="matrix(-1.0, 0.0, 0.0, 1.0, 0.0, 0.0)"><path d="M 0.0 0.0 A 1.0 1.0 0.0 0 1 1.7071067811865475 -0.7071067811865477" style="vector-effect: non-scaling-stroke;fill:none;" /></g><g style="fill: #0000ff;stroke: #ff0000;stroke-width: 0.9;" transform="matrix(0.1, 0.0, 0.0, 0.1, 0.1, 0.0)"><path d="M 0.0 0.0 A 1.0 1.0 0.0 0 0 -1.0 -1.0 A 1.0 1.0 -90.0 0 0 -2.0 0.0 A 1.0 1.0 180.0 0 0 -1.0 1.0 A 1.0 1.0 90.0 0 0 0.0 0.0 Z" style="vector-effect: non-scaling-stroke;" /></g></g></g></g></g></g></g></g></g></g></g><g /></g></g></g></g></svg>