<?xml version="1.0" encoding="utf-8" ?>
<svg baseProfile="full" height="300" version="1.1" width="68" xmlns="http://www.w3.org/2000/svg" xmlns:ev="http://www.w3.org/2001/xml-events" xmlns:xlink="http://www.w3.org/1999/xlink"><defs><marker id="arrow" markerHeight="3.5" markerWidth="5" orient="auto" refX="5.0" refY="1.7"><polygon points="0,0 5,1.75 0,3.5" /></marker></defs><g style="fill:white;"><g transform="matrix(1.0, 0.0, 0.0, 1.0, 34.000003814697266, 148.32379150390625)"><g transform="matrix(7.238943099975586, 0.0, 0.0, 7.238943099975586, 0.0, 0.0)"><g><g transform="matrix(1.0, 0.0, 0.0, 1.0, -1.8481605052947998, -18.51400375366211)"><g><g style="fill: #0000ff;stroke: black;stroke-width: 0.9;" transform="matrix(1.0, 0.0, 0.0, 1.0, 0.9999999403953552, 0.0)"><path d="M 0.0 0.0 A 1.0 1.0 0.0 0 0 -1.0 -1.0 A 1.0 1.0 -90.0 0 0 -2.0 1.1920928955078125e-07 A 1.0 1.0 179.99998474121094 0 0 -0.9999998807907104 1.0 A 1.0 1.0 90.0 0 0 1.1920928955078125e-07 0.0 Z" style="vector-effect: non-scaling-stroke;" /></g><g style="fill: #0000ff;stroke: #ff0000;stroke-width: 0.9;" transform="matrix(0.10000000149011612, 0.0, 0.0, 0.10000000149011612, 0.09999999403953552, 0.0)"><path d="M 0.0 0.0 A 1.0 1.0 0.0 0 0 -1.0 -1.0 A 1.0 1.0 -90.0 0 0 -2.0 1.1920928955078125e-07 A 1.0 1.0 179.99998474121094 0 0 -0.9999998807907104 1.0 A 1.0 1.0 90.0 0 0 1.1920928955078125e-07 0.0 Z" style="vector-effect: non-scaling-stroke;" /></g><g style="fill: #0000ff;stroke: black;stroke-width: 0.9;" transform="matrix(-4.371138828673793e-08, -1.0, 1.0, -4.371138828673793e-08, 0.0, 1.5)"><g /></g><g transform="matrix(1.0, 0.0, 0.0, 1.0, 0.0, 2.5)"><g><g style="fill: #0000ff;stroke: black;stroke-width: 0.9;" transform="matrix(1.0, 0.0, 0.0, 1.0, 0.0, 0.0)"><path d="M -0.4999999701976776 -0.5 L 0.5 -0.5 L 0.5 0.5 L -0.5 0.5000000596046448 L -0.5000000596046448 -0.49999988079071045 Z M -0.2500000596046448 -0.25 L -0.2500000298023224 0.25 L 0.2499999701976776 0.24999995529651642 L 0.25 -0.2500000298023224 L -0.25 -0.2500000298023224 Z" style="vector-effect: non-scaling-stroke;" /></g><g style="fill: #0000ff;stroke: black;stroke-width: 0.9;" transform="matrix(-4.371138828673793e-08, -1.0, 1.0, -4.371138828673793e-08, 0.0, 1.0000001192092896)"><g /></g><g style="fill: #0000ff;stroke: black;stroke-width: 0.9;" transform="matrix(1.0, 0.0, 0.0, 1.0, 0.0, 3.5)"><path d="M 2.0 -5.960464477539063e-08 A 2.0 2.0 0.0 0 0 0.0 -2.0 A 2.0 2.0 -90.0 0 0 -1.9999998807907104 2.384185791015625e-07 A 2.0 2.0 179.99998474121094 0 0 2.384185791015625e-07 2.0 A 2.0 2.0 90.0 0 0 2.000000238418579 0.0 Z M 1.0 2.9802322387695312e-08 A 1.0 1.0 0.0 0 1 0.0 1.0 A 1.0 1.0 90.0 0 1 -0.9999999403953552 -1.1920928955078125e-07 A 1.0 1.0 -179.99998474121094 0 1 1.1920928955078125e-07 -1.0 A 1.0 1.0 -90.0 0 1 1.0000001192092896 0.0 Z" style="vector-effect: non-scaling-stroke;" /></g><g style="fill: #0000ff;stroke: black;stroke-width: 0.9;" transform="matrix(-4.371138828673793e-08, -1.0, 1.0, -4.371138828673793e-08, 0.0, 6.0)"><g /></g><g transform="matrix(1.0, 0.0, 0.0, 1.0, 0.0, 7.5)"><g><g style="fill: #0000ff;stroke: black;stroke-width: 0.9;" transform="matrix(1.0, 0.0, 0.0, 1.0, 0.0, 0.0)"><path d="M 0.0 0.0 A 1.0 1.0 -90.0 0 1 2.0 -8.742277657347586e-08" style="vector-effect: non-scaling-stroke;fill:none;" /></g><g style="fill: #0000ff;stroke: #ff0000;stroke-width: 0.9;" transform="matrix(0.10000000149011612, 0.0, 0.0, 0.10000000149011612, 0.09999999403953552, 0.0)"><path d="M 0.0 0.0 A 1.0 1.0 0.0 0 0 -1.0 -1.0 A 1.0 1.0 -90.0 0 0 -2.0 1.1920928955078125e-07 A 1.0 1.0 179.99998474121094 0 0 -0.9999998807907104 1.0 A 1.0 1.0 90.0 0 0 1.1920928955078125e-07 0.0 Z" style="vector-effect: non-scaling-stroke;" /></g><g style="fill: #0000ff;stroke: black;stroke-width: 0.9;" transform="matrix(-4.371138828673793e-08, -1.0, 1.0, -4.371138828673793e-08, 0.0, 0.6000000238418579)"><g /></g><g transform="matrix(1.0, 0.0, 0.0, 1.0, 0.0, 1.2000000476837158)"><g><g style="fill: #0000ff;stroke: black;stroke-width: 0.9;" transform="matrix(1.0, 0.0, 0.0, 1.0, 0.0, 0.0)"><path d="M 0.0 0.0 A 1.0 1.0 90.0 0 0 2.0 8.742277657347586e-08" style="vector-effect: non-scaling-stroke;fill:none;" /></g><g style="fill: #0000ff;stroke: #ff0000;stroke-width: 0.9;" transform="matrix(0.10000000149011612, 0.0, 0.0, 0.10000000149011612, 0.09999999403953552, 0.0)"><path d="M 0.0 0.0 A 1.0 1.0 0.0 0 0 -1.0 -1.0 A 1.0 1.0 -90.0 0 0 -2.0 1.1920928955078125e-07 A 1.0 1.0 179.99998474121094 0 0 -0.9999998807907104 1.0 A 1.0 1.0 90.0 0 0 1.1920928955078125e-07 0.0 Z" style="vector-effect: non-scaling-stroke;" /></g></g></g></g></g><g style="fill: #0000ff;stroke: black;stroke-width: 0.9;" transform="matrix(-4.371138828673793e-08, -1.0, 1.0, -4.371138828673793e-08, 0.0, 10.200000762939453)"><g /></g><g transform="matrix(1.0, 0.0, 0.0, 1.0, 0.0, 11.126777648925781)"><g><g style="fill: #0000ff;stroke: black;stroke-width: 0.9;" transform="matrix(1.0, 0.0, 0.0, 1.0, 0.0, 0.0)"><path d="M 0.0 0.0 A 0.7500000596046448 0.7500000596046448 -45.0 1 1 1.0 1.0" style="vector-effect: non-scaling-stroke;fill:none;" /></g><g style="fill: #0000ff;stroke: #ff0000;stroke-width: 0.9;" transform="matrix(0.10000000149011612, 0.0, 0.0, 0.10000000149011612, 0.09999999403953552, 0.0)"><path d="M 0.0 0.0 A 1.0 1.0 0.0 0 0 -1.0 -1.0 A 1.0 1.0 -90.0 0 0 -2.0 1.1920928955078125e-07 A 1.0 1.0 179.99998474121094 0 0 -0.9999998807907104 1.0 A 1.0 1.0 90.0 0 0 1.1920928955078125e-07 0.0 Z" style="vector-effect: non-scaling-stroke;" /></g><g style="fill: #0000ff;stroke: black;stroke-width: 0.9;" transform="matrix(-4.371138828673793e-08, -1.0, 1.0, -4.371138828673793e-08, 0.0, 1.5)"><g /></g><g transform="matrix(1.0, 0.0, 0.0, 1.0, 0.0, 3.0)"><g><g style="fill: #0000ff;stroke: black;stroke-width: 0.9;" transform="matrix(1.0, 0.0, 0.0, 1.0, 0.0, 0.0)"><path d="M 0.0 0.0 A 0.7500000596046448 0.7500000596046448 135.0 1 1 -1.0 -1.0" style="vector-effect: non-scaling-stroke;fill:none;" /></g><g style="fill: #0000ff;stroke: #ff0000;stroke-width: 0.9;" transform="matrix(0.10000000149011612, 0.0, 0.0, 0.10000000149011612, 0.09999999403953552, 0.0)"><path d="M 0.0 0.0 A 1.0 1.0 0.0 0 0 -1.0 -1.0 A 1.0 1.0 -90.0 0 0 -2.0 1.1920928955078125e-07 A 1.0 1.0 179.99998474121094 0 0 -0.9999998807907104 1.0 A 1.0 1.0 90.0 0 0 1.1920928955078125e-07 0.0 Z" style="vector-effect: non-scaling-stroke;" /></g></g></g><g style="fill: #0000ff;stroke: black;stroke-width: 0.9;" transform="matrix(-4.371138828673793e-08, -1.0, 1.0, -4.371138828673793e-08, 0.0, 3.926776885986328)"><g /></g><g transform="matrix(1.0, 0.0, 0.0, 1.0, 0.0, 4.5267767906188965)"><g><g style="fill: #0000ff;stroke: black;stroke-width: 0.9;" transform="matrix(1.0, 0.0, 0.0, 1.0, 0.0, 0.0)"><path d="M 0.0 0.0 A 0.7500000596046448 0.7500000596046448 135.0 1 0 1.0 1.0" style="vector-effect: non-scaling-stroke;fill:none;" /></g><g style="fill: #0000ff;stroke: #ff0000;stroke-width: 0.9;" transform="matrix(0.10000000149011612, 0.0, 0.0, 0.10000000149011612, 0.09999999403953552, 0.0)"><path d="M 0.0 0.0 A 1.0 1.0 0.0 0 0 -1.0 -1.0 A 1.0 1.0 -90.0 0 0 -2.0 1.1920928955078125e-07 A 1.0 1.0 179.99998474121094 0 0 -0.9999998807907104 1.0 A 1.0 1.0 90.0 0 0 1.1920928955078125e-07 0.0 Z" style="vector-effect: non-scaling-stroke;" /></g><g style="fill: #0000ff;stroke: black;stroke-width: 0.9;" transform="matrix(-4.371138828673793e-08, -1.0, 1.0, -4.371138828673793e-08, 0.0, 1.9267768859863281)"><g /></g><g transform="matrix(1.0, 0.0, 0.0, 1.0, 0.0, 3.924453020095825)"><g><g style="fill: #0000ff;stroke: black;stroke-width: 0.9;" transform="matrix(1.0, 0.0, 0.0, 1.0, 0.0, 0.0)"><path d="M 0.0 0.0 A 0.5 0.9999999403953552 -135.0 0 1 1.4142135381698608 -1.4142135381698608" style="vector-effect: non-scaling-stroke;fill:none;" /></g><g style="fill: #0000ff;stroke: #ff0000;stroke-width: 0.9;" transform="matrix(0.10000000149011612, 0.0, 0.0, 0.10000000149011612, 0.09999999403953552, 0.0)"><path d="M 0.0 0.0 A 1.0 1.0 0.0 0 0 -1.0 -1.0 A 1.0 1.0 -90.0 0 0 -2.0 1.1920928955078125e-07 A 1.0 1.0 179.99998474121094 0 0 -0.9999998807907104 1.0 A 1.0 1.0 90.0 0 0 1.1920928955078125e-07 0.0 Z" style="vector-effect: non-scaling-stroke;" /></g></g></g></g></g></g></g><g style="fill: #0000ff;stroke: black;stroke-width: 0.9;" transform="matrix(-4.371138828673793e-08, -1.0, 1.0, -4.371138828673793e-08, 0.0, 20.178007125854492)"><g /></g><g transform="matrix(1.0, 0.0, 0.0, 1.0, 0.0, 23.428007125854492)"><g><g style="fill: #0000ff;stroke: black;stroke-width: 0.9;" transform="matrix(1.0, 0.0, 0.0, 1.0, -0.7499998211860657, -2.25)"><path d="M 0.0 0.0 L 0.0 4.5 A 0.5 0.5 135.0 0 0 0.4999999403953552 5.0 L 0.9999999403953552 5.0 A 0.4999999701976776 0.4999999701976776 45.0 0 0 1.5 4.5 L 1.4999996423721313 0.0 A 0.4999999701976776 0.4999999701976776 -45.0 0 0 0.9999996423721313 -0.5 L 0.49999964237213135 -0.5 A 0.5 0.5 -135.0 0 0 -3.5762786865234375e-07 -5.960464477539063e-08 L -3.5762786865234375e-07 0.009999940171837807 Z" style="vector-effect: non-scaling-stroke;" /></g><g style="fill: #0000ff;stroke: black;stroke-width: 0.9;" transform="matrix(-4.371138828673793e-08, -1.0, 1.0, -4.371138828673793e-08, 0.0, 3.25)"><g /></g><g style="fill: #0000ff;stroke: black;stroke-width: 0.9;" transform="matrix(1.0, 0.0, 0.0, 1.0, -2.625, 4.0)"><path d="M 0.0 0.0 L 0.0 0.75 A 0.25 0.25 135.0 0 0 0.2499999701976776 1.0 L 5.0 0.9999998211860657 A 0.2499999850988388 0.2499999850988388 45.0 0 0 5.25 0.7499998211860657 L 5.25 -1.7881393432617188e-07 A 0.2499999850988388 0.2499999850988388 -45.0 0 0 5.0 -0.2500001788139343 L 0.25 -0.25000011920928955 A 0.25 0.25 -135.0 0 0 0.0 -1.4901161193847656e-07 L 0.0 0.009999850764870644 Z" style="vector-effect: non-scaling-stroke;" /></g><g style="fill: #0000ff;stroke: black;stroke-width: 0.9;" transform="matrix(-4.371138828673793e-08, -1.0, 1.0, -4.371138828673793e-08, 0.0, 5.5)"><g /></g><g transform="matrix(1.0, 0.0, 0.0, 1.0, 0.0, 7.0)"><g><g style="fill: #0000ff;stroke: black;stroke-width: 0.9;" transform="matrix(1.0, 0.0, 0.0, 1.0, -0.9999998807907104, 0.0)"><path d="M 0.0 0.0 L 0.0 0.0 A 1.0 1.0 135.0 0 0 0.9999998807907104 1.0 L 0.9999998807907104 1.0 A 0.9999999403953552 0.9999999403953552 45.0 0 0 1.9999998807907104 0.0 L 1.9999998807907104 0.0 A 0.9999999403953552 0.9999999403953552 -45.0 0 0 0.9999998807907104 -1.0 L 0.9999998807907104 -1.0 A 1.0 1.0 -135.0 0 0 -1.1920928955078125e-07 -1.1920928955078125e-07 L -1.1920928955078125e-07 0.009999880567193031 Z" style="vector-effect: non-scaling-stroke;" /></g><g style="fill: #0000ff;stroke: black;stroke-width: 0.9;" transform="matrix(-4.371138828673793e-08, -1.0, 1.0, -4.371138828673793e-08, 0.0, 1.5)"><g /></g><g transform="matrix(1.0, 0.0, 0.0, 1.0, 0.0, 2.5)"><g><g style="fill: #0000ff;stroke: black;stroke-width: 0.9;" transform="matrix(1.0, 0.0, 0.0, 1.0, -0.4999999701976776, -0.5000000596046448)"><path d="M 0.0 0.0 L 1.0 0.0 L 1.0 1.0 L 0.0 1.0000001192092896 L -8.742277657347586e-08 1.1920928955078125e-07 Z" style="vector-effect: non-scaling-stroke;" /></g><g style="fill: #0000ff;stroke: #ff0000;stroke-width: 0.9;" transform="matrix(0.10000000149011612, 0.0, 0.0, 0.10000000149011612, 0.09999999403953552, 0.0)"><path d="M 0.0 0.0 A 1.0 1.0 0.0 0 0 -1.0 -1.0 A 1.0 1.0 -90.0 0 0 -2.0 1.1920928955078125e-07 A 1.0 1.0 179.99998474121094 0 0 -0.9999998807907104 1.0 A 1.0 1.0 90.0 0 0 1.1920928955078125e-07 0.0 Z" style="vector-effect: non-scaling-stroke;" /></g></g></g></g></g></g></g><g style="fill: #0000ff;stroke: black;stroke-width: 0.9;" transform="matrix(-4.371138828673793e-08, -1.0, 1.0, -4.371138828673793e-08, 0.0, 33.928009033203125)"><g /></g><g transform="matrix(1.0, 0.0, 0.0, 1.0, 0.0, 35.428009033203125)"><g><g style="fill: #0000ff;stroke: black;stroke-width: 0.9;" transform="matrix(1.0, 0.0, 0.0, 1.0, 0.0, 0.0)"><path d="M 0.0 0.0 A 1.0 1.0 0.0 0 1 1.7071070671081543 -0.7071064710617065" style="vector-effect: non-scaling-stroke;fill:none;" /></g><g style="fill: #0000ff;stroke: #ff0000;stroke-width: 0.9;" transform="matrix(0.10000000149011612, 0.0, 0.0, 0.10000000149011612, 0.09999999403953552, 0.0)"><path d="M 0.0 0.0 A 1.0 1.0 0.0 0 0 -1.0 -1.0 A 1.0 1.0 -90.0 0 0 -2.0 1.1920928955078125e-07 A 1.0 1.0 179.99998474121094 0 0 -0.9999998807907104 1.0 A 1.0 1.0 90.0 0 0 1.1920928955078125e-07 0.0 Z" style="vector-effect: non-scaling-stroke;" /></g><g style="fill: #0000ff;stroke: black;stroke-width: 0.9;" transform="matrix(1.0, 0.0, 0.0, 1.0, 1.9571070671081543, 0.0)"><g /></g><g transform="matrix(1.0, 0.0, 0.0, 1.0, 3.9142141342163086, 0.0)"><g><g style="fill: #0000ff;stroke: black;stroke-width: 0.9;" transform="matrix(1.0, 0.0, 0.0, 1.0, 0.0, 0.0)"><path d="M 0.0 0.0 A 1.0 1.0 180.0 0 0 -1.7071070671081543 -0.7071064710617065" style="vector-effect: non-scaling-stroke;fill:none;" /></g><g style="fill: #0000ff;stroke: #ff0000;stroke-width: 0.9;" transform="matrix(0.10000000149011612, 0.0, 0.0, 0.10000000149011612, 0.09999999403953552, 0.0)"><path d="M 0.0 0.0 A 1.0 1.0 0.0 0 0 -1.0 -1.0 A 1.0 1.0 -90.0 0 0 -2.0 1.1920928955078125e-07 A 1.0 1.0 179.99998474121094 0 0 -0.9999998807907104 1.0 A 1.0 1.0 90.0 0 0 1.1920928955078125e-07 0.0 Z" style="vector-effect: non-scaling-stroke;" /></g><g style="fill: #0000ff;stroke: black;stroke-width: 0.9;" transform="matrix(1.0, 0.0, 0.0, 1.0, 0.3500000238418579, 0.0)"><g /></g><g transform="matrix(1.0, 0.0, 0.0, 1.0, 2.3071069717407227, 0.0)"><g><g style="fill: #0000ff;stroke: black;stroke-width: 0.9;" transform="matrix(-1.0, 0.0, 0.0, 1.0, 0.0, 0.0)"><path d="M 0.0 0.0 A 1.0 1.0 0.0 0 1 1.7071070671081543 -0.7071064710617065" style="vector-effect: non-scaling-stroke;fill:none;" /></g><g style="fill: #0000ff;stroke: #ff0000;stroke-width: 0.9;" transform="matrix(0.10000000149011612, 0.0, 0.0, 0.10000000149011612, 0.09999999403953552, 0.0)"><path d="M 0.0 0.0 A 1.0 1.0 0.0 0 0 -1.0 -1.0 A 1.0 1.0 -90.0 0 0 -2.0 1.1920928955078125e-07 A 1.0 1.0 179.99998474121094 0 0 -0.9999998807907104 1.0 A 1.0 1.0 90.0 0 0 1.1920928955078125e-07 0.0 Z" style="vector-effect: non-scaling-stroke;" /></g></g></g></g></g></g></g></g></g></g></g><g /></g></g></g></g></svg>