<?xml version="1.0" encoding="utf-8" ?>
<svg baseProfile="full" height="256" version="1.1" width="255" xmlns="http://www.w3.org/2000/svg" xmlns:ev="http://www.w3.org/2001/xml-events" xmlns:xlink="http://www.w3.org/1999/xlink"><defs><marker id="arrow" markerHeight="3.5" markerWidth="5" orient="auto" refX="5.0" refY="1.7"><polygon points="0,0 5,1.75 0,3.5" /></marker></defs><g style="fill:white; stroke: black; stroke-width: 0.01;" transform="scale(63.0) translate(0.44109080050475713 0.44126803601764647)"><g><g><g><g><g><g><g><g><g><g><g><g><g><g><g><g><g /><g transform="translate(0 0)"><g><g><g><g><g /><g transform="rotate(-3.9268129555608593)"><g style="stroke: #ff9700;stroke-width: 0.02;" transform="scale(1)"><rect height="0.75" width="0.75" x="-0.375" y="-0.375" /></g></g></g><g transform="rotate(-4.2131592168001895)"><g style="stroke: #ff9700;stroke-width: 0.02;" transform="scale(1)"><rect height="0.75" width="0.75" x="-0.375" y="-0.375" /></g></g></g><g transform="rotate(-2.832382437430095)"><g style="stroke: #ff9700;stroke-width: 0.02;" transform="scale(1)"><rect height="0.75" width="0.75" x="-0.375" y="-0.375" /></g></g></g><g transform="rotate(-6.711090874302855)"><g style="stroke: #ff9700;stroke-width: 0.02;" transform="scale(1)"><rect height="0.75" width="0.75" x="-0.375" y="-0.375" /></g></g></g></g></g><g transform="translate(0 1)"><g><g><g><g><g /><g transform="rotate(6.200678259986674)"><g style="stroke: #005fdb;stroke-width: 0.02;" transform="scale(1)"><rect height="0.75" width="0.75" x="-0.375" y="-0.375" /></g></g></g><g transform="rotate(6.366594712058802)"><g style="stroke: #ff9700;stroke-width: 0.02;" transform="scale(1)"><rect height="0.75" width="0.75" x="-0.375" y="-0.375" /></g></g></g><g transform="rotate(6.019663006886538)"><g style="stroke: #ff9700;stroke-width: 0.02;" transform="scale(1)"><rect height="0.75" width="0.75" x="-0.375" y="-0.375" /></g></g></g><g transform="rotate(-7.384321895689778)"><g style="stroke: #ff9700;stroke-width: 0.02;" transform="scale(1)"><rect height="0.75" width="0.75" x="-0.375" y="-0.375" /></g></g></g></g></g><g transform="translate(0 2)"><g><g><g><g><g /><g transform="rotate(0.5912256917025615)"><g style="stroke: #ff9700;stroke-width: 0.02;" transform="scale(1)"><rect height="0.75" width="0.75" x="-0.375" y="-0.375" /></g></g></g><g transform="rotate(-1.6898427651519587)"><g style="stroke: #ff9700;stroke-width: 0.02;" transform="scale(1)"><rect height="0.75" width="0.75" x="-0.375" y="-0.375" /></g></g></g><g transform="rotate(6.615513194001174)"><g style="stroke: #ff9700;stroke-width: 0.02;" transform="scale(1)"><rect height="0.75" width="0.75" x="-0.375" y="-0.375" /></g></g></g><g transform="rotate(-1.683100593320504)"><g style="stroke: #ff9700;stroke-width: 0.02;" transform="scale(1)"><rect height="0.75" width="0.75" x="-0.375" y="-0.375" /></g></g></g></g></g><g transform="translate(0 3)"><g><g><g><g><g /><g transform="rotate(3.674543271995497)"><g style="stroke: #ff9700;stroke-width: 0.02;" transform="scale(1)"><rect height="0.75" width="0.75" x="-0.375" y="-0.375" /></g></g></g><g transform="rotate(3.9557514710232016)"><g style="stroke: #005fdb;stroke-width: 0.02;" transform="scale(1)"><rect height="0.75" width="0.75" x="-0.375" y="-0.375" /></g></g></g><g transform="rotate(-2.7074737885334494)"><g style="stroke: #005fdb;stroke-width: 0.02;" transform="scale(1)"><rect height="0.75" width="0.75" x="-0.375" y="-0.375" /></g></g></g><g transform="rotate(-7.29156564273622)"><g style="stroke: #ff9700;stroke-width: 0.02;" transform="scale(1)"><rect height="0.75" width="0.75" x="-0.375" y="-0.375" /></g></g></g></g></g><g transform="translate(1 0)"><g><g><g><g><g /><g transform="rotate(7.414209934636969)"><g style="stroke: #ff9700;stroke-width: 0.02;" transform="scale(1)"><rect height="0.75" width="0.75" x="-0.375" y="-0.375" /></g></g></g><g transform="rotate(-2.4330576139615454)"><g style="stroke: #ff9700;stroke-width: 0.02;" transform="scale(1)"><rect height="0.75" width="0.75" x="-0.375" y="-0.375" /></g></g></g><g transform="rotate(5.585893358265553)"><g style="stroke: #ff9700;stroke-width: 0.02;" transform="scale(1)"><rect height="0.75" width="0.75" x="-0.375" y="-0.375" /></g></g></g><g transform="rotate(-6.466429436049204)"><g style="stroke: #ff9700;stroke-width: 0.02;" transform="scale(1)"><rect height="0.75" width="0.75" x="-0.375" y="-0.375" /></g></g></g></g></g><g transform="translate(1 1)"><g><g><g><g><g /><g transform="rotate(7.07222416621817)"><g style="stroke: #005fdb;stroke-width: 0.02;" transform="scale(1)"><rect height="0.75" width="0.75" x="-0.375" y="-0.375" /></g></g></g><g transform="rotate(-4.651370322662154)"><g style="stroke: #ff9700;stroke-width: 0.02;" transform="scale(1)"><rect height="0.75" width="0.75" x="-0.375" y="-0.375" /></g></g></g><g transform="rotate(5.484955022205792)"><g style="stroke: #ff9700;stroke-width: 0.02;" transform="scale(1)"><rect height="0.75" width="0.75" x="-0.375" y="-0.375" /></g></g></g><g transform="rotate(-2.398509635909619)"><g style="stroke: #ff9700;stroke-width: 0.02;" transform="scale(1)"><rect height="0.75" width="0.75" x="-0.375" y="-0.375" /></g></g></g></g></g><g transform="translate(1 2)"><g><g><g><g><g /><g transform="rotate(1.9057061188540283)"><g style="stroke: #ff9700;stroke-width: 0.02;" transform="scale(1)"><rect height="0.75" width="0.75" x="-0.375" y="-0.375" /></g></g></g><g transform="rotate(6.117399243767637)"><g style="stroke: #ff9700;stroke-width: 0.02;" transform="scale(1)"><rect height="0.75" width="0.75" x="-0.375" y="-0.375" /></g></g></g><g transform="rotate(-6.966401803689239)"><g style="stroke: #005fdb;stroke-width: 0.02;" transform="scale(1)"><rect height="0.75" width="0.75" x="-0.375" y="-0.375" /></g></g></g><g transform="rotate(-5.162697092424422)"><g style="stroke: #ff9700;stroke-width: 0.02;" transform="scale(1)"><rect height="0.75" width="0.75" x="-0.375" y="-0.375" /></g></g></g></g></g><g transform="translate(1 3)"><g><g><g><g><g /><g transform="rotate(3.676814905996154)"><g style="stroke: #005fdb;stroke-width: 0.02;" transform="scale(1)"><rect height="0.75" width="0.75" x="-0.375" y="-0.375" /></g></g></g><g transform="rotate(-7.033164638874993)"><g style="stroke: #ff9700;stroke-width: 0.02;" transform="scale(1)"><rect height="0.75" width="0.75" x="-0.375" y="-0.375" /></g></g></g><g transform="rotate(0.23631396587013703)"><g style="stroke: #005fdb;stroke-width: 0.02;" transform="scale(1)"><rect height="0.75" width="0.75" x="-0.375" y="-0.375" /></g></g></g><g transform="rotate(-6.939624592695006)"><g style="stroke: #005fdb;stroke-width: 0.02;" transform="scale(1)"><rect height="0.75" width="0.75" x="-0.375" y="-0.375" /></g></g></g></g></g><g transform="translate(2 0)"><g><g><g><g><g /><g transform="rotate(-1.1745379821363595)"><g style="stroke: #ff9700;stroke-width: 0.02;" transform="scale(1)"><rect height="0.75" width="0.75" x="-0.375" y="-0.375" /></g></g></g><g transform="rotate(3.6424282381051536)"><g style="stroke: #ff9700;stroke-width: 0.02;" transform="scale(1)"><rect height="0.75" width="0.75" x="-0.375" y="-0.375" /></g></g></g><g transform="rotate(-0.5903064430904631)"><g style="stroke: #005fdb;stroke-width: 0.02;" transform="scale(1)"><rect height="0.75" width="0.75" x="-0.375" y="-0.375" /></g></g></g><g transform="rotate(3.612034085427773)"><g style="stroke: #ff9700;stroke-width: 0.02;" transform="scale(1)"><rect height="0.75" width="0.75" x="-0.375" y="-0.375" /></g></g></g></g></g><g transform="translate(2 1)"><g><g><g><g><g /><g transform="rotate(-4.303816512040617)"><g style="stroke: #ff9700;stroke-width: 0.02;" transform="scale(1)"><rect height="0.75" width="0.75" x="-0.375" y="-0.375" /></g></g></g><g transform="rotate(6.661143085004781)"><g style="stroke: #ff9700;stroke-width: 0.02;" transform="scale(1)"><rect height="0.75" width="0.75" x="-0.375" y="-0.375" /></g></g></g><g transform="rotate(6.8890056277692855)"><g style="stroke: #ff9700;stroke-width: 0.02;" transform="scale(1)"><rect height="0.75" width="0.75" x="-0.375" y="-0.375" /></g></g></g><g transform="rotate(-3.421301536093715)"><g style="stroke: #ff9700;stroke-width: 0.02;" transform="scale(1)"><rect height="0.75" width="0.75" x="-0.375" y="-0.375" /></g></g></g></g></g><g transform="translate(2 2)"><g><g><g><g><g /><g transform="rotate(4.958693496148287)"><g style="stroke: #ff9700;stroke-width: 0.02;" transform="scale(1)"><rect height="0.75" width="0.75" x="-0.375" y="-0.375" /></g></g></g><g transform="rotate(2.3516294344694013)"><g style="stroke: #005fdb;stroke-width: 0.02;" transform="scale(1)"><rect height="0.75" width="0.75" x="-0.375" y="-0.375" /></g></g></g><g transform="rotate(-7.263891255738078)"><g style="stroke: #ff9700;stroke-width: 0.02;" transform="scale(1)"><rect height="0.75" width="0.75" x="-0.375" y="-0.375" /></g></g></g><g transform="rotate(3.8830367606290412)"><g style="stroke: #ff9700;stroke-width: 0.02;" transform="scale(1)"><rect height="0.75" width="0.75" x="-0.375" y="-0.375" /></g></g></g></g></g><g transform="translate(2 3)"><g><g><g><g><g /><g transform="rotate(-5.430838928757839)"><g style="stroke: #005fdb;stroke-width: 0.02;" transform="scale(1)"><rect height="0.75" width="0.75" x="-0.375" y="-0.375" /></g></g></g><g transform="rotate(7.414829635090531)"><g style="stroke: #005fdb;stroke-width: 0.02;" transform="scale(1)"><rect height="0.75" width="0.75" x="-0.375" y="-0.375" /></g></g></g><g transform="rotate(6.4001399124218965)"><g style="stroke: #005fdb;stroke-width: 0.02;" transform="scale(1)"><rect height="0.75" width="0.75" x="-0.375" y="-0.375" /></g></g></g><g transform="rotate(2.498922481008573)"><g style="stroke: #ff9700;stroke-width: 0.02;" transform="scale(1)"><rect height="0.75" width="0.75" x="-0.375" y="-0.375" /></g></g></g></g></g><g transform="translate(3 0)"><g><g><g><g><g /><g transform="rotate(-4.37836918611102)"><g style="stroke: #ff9700;stroke-width: 0.02;" transform="scale(1)"><rect height="0.75" width="0.75" x="-0.375" y="-0.375" /></g></g></g><g transform="rotate(-2.5152393494052396)"><g style="stroke: #005fdb;stroke-width: 0.02;" transform="scale(1)"><rect height="0.75" width="0.75" x="-0.375" y="-0.375" /></g></g></g><g transform="rotate(-5.8349496113046)"><g style="stroke: #ff9700;stroke-width: 0.02;" transform="scale(1)"><rect height="0.75" width="0.75" x="-0.375" y="-0.375" /></g></g></g><g transform="rotate(1.2500252585245526)"><g style="stroke: #ff9700;stroke-width: 0.02;" transform="scale(1)"><rect height="0.75" width="0.75" x="-0.375" y="-0.375" /></g></g></g></g></g><g transform="translate(3 1)"><g><g><g><g><g /><g transform="rotate(-1.567420298147491)"><g style="stroke: #005fdb;stroke-width: 0.02;" transform="scale(1)"><rect height="0.75" width="0.75" x="-0.375" y="-0.375" /></g></g></g><g transform="rotate(-7.442557679111606)"><g style="stroke: #ff9700;stroke-width: 0.02;" transform="scale(1)"><rect height="0.75" width="0.75" x="-0.375" y="-0.375" /></g></g></g><g transform="rotate(-4.10458224082623)"><g style="stroke: #ff9700;stroke-width: 0.02;" transform="scale(1)"><rect height="0.75" width="0.75" x="-0.375" y="-0.375" /></g></g></g><g transform="rotate(-5.577501799909999)"><g style="stroke: #ff9700;stroke-width: 0.02;" transform="scale(1)"><rect height="0.75" width="0.75" x="-0.375" y="-0.375" /></g></g></g></g></g><g transform="translate(3 2)"><g><g><g><g><g /><g transform="rotate(-6.426419187023579)"><g style="stroke: #ff9700;stroke-width: 0.02;" transform="scale(1)"><rect height="0.75" width="0.75" x="-0.375" y="-0.375" /></g></g></g><g transform="rotate(-0.4077495253411074)"><g style="stroke: #ff9700;stroke-width: 0.02;" transform="scale(1)"><rect height="0.75" width="0.75" x="-0.375" y="-0.375" /></g></g></g><g transform="rotate(0.7669675488815013)"><g style="stroke: #005fdb;stroke-width: 0.02;" transform="scale(1)"><rect height="0.75" width="0.75" x="-0.375" y="-0.375" /></g></g></g><g transform="rotate(-5.566245705805343)"><g style="stroke: #ff9700;stroke-width: 0.02;" transform="scale(1)"><rect height="0.75" width="0.75" x="-0.375" y="-0.375" /></g></g></g></g></g><g transform="translate(3 3)"><g><g><g><g><g /><g transform="rotate(-2.4571640877904257)"><g style="stroke: #ff9700;stroke-width: 0.02;" transform="scale(1)"><rect height="0.75" width="0.75" x="-0.375" y="-0.375" /></g></g></g><g transform="rotate(7.309468615649866)"><g style="stroke: #005fdb;stroke-width: 0.02;" transform="scale(1)"><rect height="0.75" width="0.75" x="-0.375" y="-0.375" /></g></g></g><g transform="rotate(-0.8995064253047954)"><g style="stroke: #ff9700;stroke-width: 0.02;" transform="scale(1)"><rect height="0.75" width="0.75" x="-0.375" y="-0.375" /></g></g></g><g transform="rotate(-6.564756305094255)"><g style="stroke: #ff9700;stroke-width: 0.02;" transform="scale(1)"><rect height="0.75" width="0.75" x="-0.375" y="-0.375" /></g></g></g></g></g></g></svg>