<?xml version="1.0" encoding="utf-8" ?>
<svg baseProfile="full" height="256" version="1.1" width="256" xmlns="http://www.w3.org/2000/svg" xmlns:ev="http://www.w3.org/2001/xml-events" xmlns:xlink="http://www.w3.org/1999/xlink"><defs><marker id="arrow" markerHeight="3.5" markerWidth="5" orient="auto" refX="5.0" refY="1.7"><polygon points="0,0 5,1.75 0,3.5" /></marker></defs><g style="fill:white;"><g transform="matrix(1.0, 0.0, 0.0, 1.0, 128.0, 127.93601989746094)"><g transform="matrix(63.50118637084961, 0.0, 0.0, 63.50118637084961, 0.0, 0.0)"><g><g transform="matrix(1.0, 0.0, 0.0, 1.0, -1.4990817308425903, -1.501878023147583)"><g><g transform="matrix(1.0, 0.0, 0.0, 1.0, 0.0, 0.0)"><g><g style="stroke: #ff9700;stroke-width: 0.1536;" transform="matrix(0.9942976236343384, 0.1066405400633812, -0.1066405400633812, 0.9942976236343384, -0.33287137746810913, -0.41285184025764465)"><path d="M 0.0 0.0 L 0.75 0.0 L 0.75 0.75 L 0.0 0.7500000596046448 L -6.556707887739321e-08 5.960464477539063e-08 Z" style="vector-effect: non-scaling-stroke;" /></g><g style="stroke: #005fdb;stroke-width: 0.1536;" transform="matrix(0.9983693957328796, -0.057083673775196075, 0.057083673775196075, 0.9983693957328796, -0.3957948684692383, -0.35298216342926025)"><path d="M 0.0 0.0 L 0.75 0.0 L 0.75 0.75 L 0.0 0.7500000596046448 L -6.556707887739321e-08 5.960464477539063e-08 Z" style="vector-effect: non-scaling-stroke;" /></g><g style="stroke: #ff9700;stroke-width: 0.1536;" transform="matrix(0.9995198845863342, 0.030983971431851387, -0.030983971431851387, 0.9995198845863342, -0.36320093274116516, -0.3864389657974243)"><path d="M 0.0 0.0 L 0.75 0.0 L 0.75 0.75 L 0.0 0.7500000596046448 L -6.556707887739321e-08 5.960464477539063e-08 Z" style="vector-effect: non-scaling-stroke;" /></g><g style="stroke: #005fdb;stroke-width: 0.1536;" transform="matrix(0.9942519664764404, 0.10706570744514465, -0.10706570744514465, 0.9942519664764404, -0.3326948285102844, -0.4129941463470459)"><path d="M 0.0 0.0 L 0.75 0.0 L 0.75 0.75 L 0.0 0.7500000596046448 L -6.556707887739321e-08 5.960464477539063e-08 Z" style="vector-effect: non-scaling-stroke;" /></g></g></g><g transform="matrix(1.0, 0.0, 0.0, 1.0, 0.0, 1.0)"><g><g style="stroke: #005fdb;stroke-width: 0.1536;" transform="matrix(0.9967039227485657, 0.08112543076276779, -0.08112543076276779, 0.9967039227485657, -0.3433419167995453, -0.40418604016304016)"><path d="M 0.0 0.0 L 0.75 0.0 L 0.75 0.75 L 0.0 0.7500000596046448 L -6.556707887739321e-08 5.960464477539063e-08 Z" style="vector-effect: non-scaling-stroke;" /></g><g style="stroke: #ff9700;stroke-width: 0.1536;" transform="matrix(0.9987650513648987, -0.04968278855085373, 0.04968278855085373, 0.9987650513648987, -0.3931679129600525, -0.3559058904647827)"><path d="M 0.0 0.0 L 0.75 0.0 L 0.75 0.75 L 0.0 0.7500000596046448 L -6.556707887739321e-08 5.960464477539063e-08 Z" style="vector-effect: non-scaling-stroke;" /></g><g style="stroke: #ff9700;stroke-width: 0.1536;" transform="matrix(0.9945536255836487, 0.10422598570585251, -0.10422598570585251, 0.9945536255836487, -0.33387282490730286, -0.41204237937927246)"><path d="M 0.0 0.0 L 0.75 0.0 L 0.75 0.75 L 0.0 0.7500000596046448 L -6.556707887739321e-08 5.960464477539063e-08 Z" style="vector-effect: non-scaling-stroke;" /></g><g style="stroke: #ff9700;stroke-width: 0.1536;" transform="matrix(0.9999734163284302, -0.007292955182492733, 0.007292955182492733, 0.9999734163284302, -0.37772488594055176, -0.37225520610809326)"><path d="M 0.0 0.0 L 0.75 0.0 L 0.75 0.75 L 0.0 0.7500000596046448 L -6.556707887739321e-08 5.960464477539063e-08 Z" style="vector-effect: non-scaling-stroke;" /></g></g></g><g transform="matrix(1.0, 0.0, 0.0, 1.0, 0.0, 2.0)"><g><g style="stroke: #ff9700;stroke-width: 0.1536;" transform="matrix(0.9998515248298645, -0.017232920974493027, 0.017232920974493027, 0.9998515248298645, -0.38140663504600525, -0.36848199367523193)"><path d="M 0.0 0.0 L 0.75 0.0 L 0.75 0.75 L 0.0 0.7500000596046448 L -6.556707887739321e-08 5.960464477539063e-08 Z" style="vector-effect: non-scaling-stroke;" /></g><g style="stroke: #005fdb;stroke-width: 0.1536;" transform="matrix(0.9941600561141968, 0.1079154759645462, -0.1079154759645462, 0.9941600561141968, -0.3323417007923126, -0.41327834129333496)"><path d="M 0.0 0.0 L 0.75 0.0 L 0.75 0.75 L 0.0 0.7500000596046448 L -6.556707887739321e-08 5.960464477539063e-08 Z" style="vector-effect: non-scaling-stroke;" /></g><g style="stroke: #005fdb;stroke-width: 0.1536;" transform="matrix(0.9999818801879883, -0.006018789950758219, 0.006018789950758219, 0.9999818801879883, -0.37725022435188293, -0.3727361857891083)"><path d="M 0.0 0.0 L 0.75 0.0 L 0.75 0.75 L 0.0 0.7500000596046448 L -6.556707887739321e-08 5.960464477539063e-08 Z" style="vector-effect: non-scaling-stroke;" /></g><g style="stroke: #005fdb;stroke-width: 0.1536;" transform="matrix(0.9980348348617554, -0.06266188621520996, 0.06266188621520996, 0.9980348348617554, -0.3977612555027008, -0.3507649004459381)"><path d="M 0.0 0.0 L 0.75 0.0 L 0.75 0.75 L 0.0 0.7500000596046448 L -6.556707887739321e-08 5.960464477539063e-08 Z" style="vector-effect: non-scaling-stroke;" /></g></g></g><g transform="matrix(1.0, 0.0, 0.0, 1.0, 0.0, 3.0)"><g><g style="stroke: #ff9700;stroke-width: 0.1536;" transform="matrix(0.9999186992645264, 0.012749101966619492, -0.012749101966619492, 0.9999186992645264, -0.37018856406211853, -0.37975046038627625)"><path d="M 0.0 0.0 L 0.75 0.0 L 0.75 0.75 L 0.0 0.7500000596046448 L -6.556707887739321e-08 5.960464477539063e-08 Z" style="vector-effect: non-scaling-stroke;" /></g><g style="stroke: #ff9700;stroke-width: 0.1536;" transform="matrix(0.9983462691307068, 0.057486843317747116, -0.057486843317747116, 0.9983462691307068, -0.3528222441673279, -0.395937442779541)"><path d="M 0.0 0.0 L 0.75 0.0 L 0.75 0.75 L 0.0 0.7500000596046448 L -6.556707887739321e-08 5.960464477539063e-08 Z" style="vector-effect: non-scaling-stroke;" /></g><g style="stroke: #ff9700;stroke-width: 0.1536;" transform="matrix(0.996385931968689, 0.08494173735380173, -0.08494173735380173, 0.996385931968689, -0.341791570186615, -0.4054979085922241)"><path d="M 0.0 0.0 L 0.75 0.0 L 0.75 0.75 L 0.0 0.7500000596046448 L -6.556707887739321e-08 5.960464477539063e-08 Z" style="vector-effect: non-scaling-stroke;" /></g><g style="stroke: #ff9700;stroke-width: 0.1536;" transform="matrix(0.9914838671684265, -0.13022954761981964, 0.13022954761981964, 0.9914838671684265, -0.4206424951553345, -0.3229703903198242)"><path d="M 0.0 0.0 L 0.75 0.0 L 0.75 0.75 L 0.0 0.7500000596046448 L -6.556707887739321e-08 5.960464477539063e-08 Z" style="vector-effect: non-scaling-stroke;" /></g></g></g><g transform="matrix(1.0, 0.0, 0.0, 1.0, 1.0, 0.0)"><g><g style="stroke: #ff9700;stroke-width: 0.1536;" transform="matrix(0.9953726530075073, 0.0960896909236908, -0.0960896909236908, 0.9953726530075073, -0.3372310996055603, -0.4092983901500702)"><path d="M 0.0 0.0 L 0.75 0.0 L 0.75 0.75 L 0.0 0.7500000596046448 L -6.556707887739321e-08 5.960464477539063e-08 Z" style="vector-effect: non-scaling-stroke;" /></g><g style="stroke: #005fdb;stroke-width: 0.1536;" transform="matrix(0.998953104019165, -0.04574542120099068, 0.04574542120099068, 0.998953104019165, -0.3917619287967682, -0.3574528992176056)"><path d="M 0.0 0.0 L 0.75 0.0 L 0.75 0.75 L 0.0 0.7500000596046448 L -6.556707887739321e-08 5.960464477539063e-08 Z" style="vector-effect: non-scaling-stroke;" /></g><g style="stroke: #ff9700;stroke-width: 0.1536;" transform="matrix(0.9967311024665833, -0.08079029619693756, 0.08079029619693756, 0.9967311024665833, -0.40407049655914307, -0.34347784519195557)"><path d="M 0.0 0.0 L 0.75 0.0 L 0.75 0.75 L 0.0 0.7500000596046448 L -6.556707887739321e-08 5.960464477539063e-08 Z" style="vector-effect: non-scaling-stroke;" /></g><g style="stroke: #005fdb;stroke-width: 0.1536;" transform="matrix(0.9976595640182495, -0.0683768019080162, 0.0683768019080162, 0.9976595640182495, -0.3997636139392853, -0.34848105907440186)"><path d="M 0.0 0.0 L 0.75 0.0 L 0.75 0.75 L 0.0 0.7500000596046448 L -6.556707887739321e-08 5.960464477539063e-08 Z" style="vector-effect: non-scaling-stroke;" /></g></g></g><g transform="matrix(1.0, 0.0, 0.0, 1.0, 1.0, 1.0)"><g><g style="stroke: #ff9700;stroke-width: 0.1536;" transform="matrix(0.9968516826629639, 0.07928888499736786, -0.07928888499736786, 0.9968516826629639, -0.34408602118492126, -0.40355274081230164)"><path d="M 0.0 0.0 L 0.75 0.0 L 0.75 0.75 L 0.0 0.7500000596046448 L -6.556707887739321e-08 5.960464477539063e-08 Z" style="vector-effect: non-scaling-stroke;" /></g><g style="stroke: #ff9700;stroke-width: 0.1536;" transform="matrix(0.9939737319946289, -0.10961829870939255, 0.10961829870939255, 0.9939737319946289, -0.4138469994068146, -0.3316333293914795)"><path d="M 0.0 0.0 L 0.75 0.0 L 0.75 0.75 L 0.0 0.7500000596046448 L -6.556707887739321e-08 5.960464477539063e-08 Z" style="vector-effect: non-scaling-stroke;" /></g><g style="stroke: #005fdb;stroke-width: 0.1536;" transform="matrix(0.9999978542327881, 0.002078854013234377, -0.002078854013234377, 0.9999978542327881, -0.3742195963859558, -0.37577879428863525)"><path d="M 0.0 0.0 L 0.75 0.0 L 0.75 0.75 L 0.0 0.7500000596046448 L -6.556707887739321e-08 5.960464477539063e-08 Z" style="vector-effect: non-scaling-stroke;" /></g><g style="stroke: #ff9700;stroke-width: 0.1536;" transform="matrix(0.9947669506072998, -0.10216982662677765, 0.10216982662677765, 0.9947669506072998, -0.4113512635231018, -0.33472394943237305)"><path d="M 0.0 0.0 L 0.75 0.0 L 0.75 0.75 L 0.0 0.7500000596046448 L -6.556707887739321e-08 5.960464477539063e-08 Z" style="vector-effect: non-scaling-stroke;" /></g></g></g><g transform="matrix(1.0, 0.0, 0.0, 1.0, 1.0, 2.0)"><g><g style="stroke: #ff9700;stroke-width: 0.1536;" transform="matrix(0.9985381364822388, 0.05405129864811897, -0.05405129864811897, 0.9985381364822388, -0.35418254137039185, -0.39472106099128723)"><path d="M 0.0 0.0 L 0.75 0.0 L 0.75 0.75 L 0.0 0.7500000596046448 L -6.556707887739321e-08 5.960464477539063e-08 Z" style="vector-effect: non-scaling-stroke;" /></g><g style="stroke: #ff9700;stroke-width: 0.1536;" transform="matrix(0.9966130256652832, 0.08223426342010498, -0.08223426342010498, 0.9966130256652832, -0.34289199113845825, -0.40456774830818176)"><path d="M 0.0 0.0 L 0.75 0.0 L 0.75 0.75 L 0.0 0.7500000596046448 L -6.556707887739321e-08 5.960464477539063e-08 Z" style="vector-effect: non-scaling-stroke;" /></g><g style="stroke: #ff9700;stroke-width: 0.1536;" transform="matrix(0.9926360845565796, 0.1211344301700592, -0.1211344301700592, 0.9926360845565796, -0.32681310176849365, -0.41766396164894104)"><path d="M 0.0 0.0 L 0.75 0.0 L 0.75 0.75 L 0.0 0.7500000596046448 L -6.556707887739321e-08 5.960464477539063e-08 Z" style="vector-effect: non-scaling-stroke;" /></g><g style="stroke: #ff9700;stroke-width: 0.1536;" transform="matrix(0.9997369050979614, 0.022936081513762474, -0.022936081513762474, 0.9997369050979614, -0.3663002848625183, -0.38350239396095276)"><path d="M 0.0 0.0 L 0.75 0.0 L 0.75 0.75 L 0.0 0.7500000596046448 L -6.556707887739321e-08 5.960464477539063e-08 Z" style="vector-effect: non-scaling-stroke;" /></g></g></g><g transform="matrix(1.0, 0.0, 0.0, 1.0, 1.0, 3.0)"><g><g style="stroke: #ff9700;stroke-width: 0.1536;" transform="matrix(0.9996823072433472, 0.02520517259836197, -0.02520517259836197, 0.9996823072433472, -0.3654289245605469, -0.3843328356742859)"><path d="M 0.0 0.0 L 0.75 0.0 L 0.75 0.75 L 0.0 0.7500000596046448 L -6.556707887739321e-08 5.960464477539063e-08 Z" style="vector-effect: non-scaling-stroke;" /></g><g style="stroke: #ff9700;stroke-width: 0.1536;" transform="matrix(0.999803900718689, 0.01980409398674965, -0.01980409398674965, 0.999803900718689, -0.3674999177455902, -0.3823530375957489)"><path d="M 0.0 0.0 L 0.75 0.0 L 0.75 0.75 L 0.0 0.7500000596046448 L -6.556707887739321e-08 5.960464477539063e-08 Z" style="vector-effect: non-scaling-stroke;" /></g><g style="stroke: #ff9700;stroke-width: 0.1536;" transform="matrix(0.9966955780982971, -0.08122757077217102, 0.08122757077217102, 0.9966955780982971, -0.40422114729881287, -0.3433005213737488)"><path d="M 0.0 0.0 L 0.75 0.0 L 0.75 0.75 L 0.0 0.7500000596046448 L -6.556707887739321e-08 5.960464477539063e-08 Z" style="vector-effect: non-scaling-stroke;" /></g><g style="stroke: #ff9700;stroke-width: 0.1536;" transform="matrix(0.9995641708374023, 0.029519660398364067, -0.029519660398364067, 0.9995641708374023, -0.3637666702270508, -0.385906457901001)"><path d="M 0.0 0.0 L 0.75 0.0 L 0.75 0.75 L 0.0 0.7500000596046448 L -6.556707887739321e-08 5.960464477539063e-08 Z" style="vector-effect: non-scaling-stroke;" /></g></g></g><g transform="matrix(1.0, 0.0, 0.0, 1.0, 2.0, 0.0)"><g><g style="stroke: #ff9700;stroke-width: 0.1536;" transform="matrix(0.9999811053276062, -0.006144133396446705, 0.006144133396446705, 0.9999811053276062, -0.37729692459106445, -0.372688889503479)"><path d="M 0.0 0.0 L 0.75 0.0 L 0.75 0.75 L 0.0 0.7500000596046448 L -6.556707887739321e-08 5.960464477539063e-08 Z" style="vector-effect: non-scaling-stroke;" /></g><g style="stroke: #005fdb;stroke-width: 0.1536;" transform="matrix(0.9977267384529114, 0.06738943606615067, -0.06738943606615067, 0.9977267384529114, -0.3488764762878418, -0.39941859245300293)"><path d="M 0.0 0.0 L 0.75 0.0 L 0.75 0.75 L 0.0 0.7500000596046448 L -6.556707887739321e-08 5.960464477539063e-08 Z" style="vector-effect: non-scaling-stroke;" /></g><g style="stroke: #005fdb;stroke-width: 0.1536;" transform="matrix(0.9938634634017944, 0.11061407625675201, -0.11061407625675201, 0.9938634634017944, -0.33121851086616516, -0.41417911648750305)"><path d="M 0.0 0.0 L 0.75 0.0 L 0.75 0.75 L 0.0 0.7500000596046448 L -6.556707887739321e-08 5.960464477539063e-08 Z" style="vector-effect: non-scaling-stroke;" /></g><g style="stroke: #005fdb;stroke-width: 0.1536;" transform="matrix(0.9945717453956604, 0.10405279695987701, -0.10405279695987701, 0.9945717453956604, -0.3339445888996124, -0.41198423504829407)"><path d="M 0.0 0.0 L 0.75 0.0 L 0.75 0.75 L 0.0 0.7500000596046448 L -6.556707887739321e-08 5.960464477539063e-08 Z" style="vector-effect: non-scaling-stroke;" /></g></g></g><g transform="matrix(1.0, 0.0, 0.0, 1.0, 2.0, 1.0)"><g><g style="stroke: #ff9700;stroke-width: 0.1536;" transform="matrix(0.9999434947967529, 0.010628835298120975, -0.010628835298120975, 0.9999434947967529, -0.3709929585456848, -0.3789646625518799)"><path d="M 0.0 0.0 L 0.75 0.0 L 0.75 0.75 L 0.0 0.7500000596046448 L -6.556707887739321e-08 5.960464477539063e-08 Z" style="vector-effect: non-scaling-stroke;" /></g><g style="stroke: #ff9700;stroke-width: 0.1536;" transform="matrix(0.9985561966896057, 0.053717199712991714, -0.053717199712991714, 0.9985561966896057, -0.3543145954608917, -0.39460253715515137)"><path d="M 0.0 0.0 L 0.75 0.0 L 0.75 0.75 L 0.0 0.7500000596046448 L -6.556707887739321e-08 5.960464477539063e-08 Z" style="vector-effect: non-scaling-stroke;" /></g><g style="stroke: #005fdb;stroke-width: 0.1536;" transform="matrix(0.9966738820075989, 0.08149373531341553, -0.08149373531341553, 0.9966738820075989, -0.34319251775741577, -0.4043128788471222)"><path d="M 0.0 0.0 L 0.75 0.0 L 0.75 0.75 L 0.0 0.7500000596046448 L -6.556707887739321e-08 5.960464477539063e-08 Z" style="vector-effect: non-scaling-stroke;" /></g><g style="stroke: #ff9700;stroke-width: 0.1536;" transform="matrix(0.9946568012237549, 0.10323669016361237, -0.10323669016361237, 0.9946568012237549, -0.3342825174331665, -0.41171008348464966)"><path d="M 0.0 0.0 L 0.75 0.0 L 0.75 0.75 L 0.0 0.7500000596046448 L -6.556707887739321e-08 5.960464477539063e-08 Z" style="vector-effect: non-scaling-stroke;" /></g></g></g><g transform="matrix(1.0, 0.0, 0.0, 1.0, 2.0, 2.0)"><g><g style="stroke: #ff9700;stroke-width: 0.1536;" transform="matrix(0.9930756688117981, 0.11747626960277557, -0.11747626960277557, 0.9930756688117981, -0.3283497393131256, -0.41645699739456177)"><path d="M 0.0 0.0 L 0.75 0.0 L 0.75 0.75 L 0.0 0.7500000596046448 L -6.556707887739321e-08 5.960464477539063e-08 Z" style="vector-effect: non-scaling-stroke;" /></g><g style="stroke: #ff9700;stroke-width: 0.1536;" transform="matrix(0.9999162554740906, -0.012942187488079071, 0.012942187488079071, 0.9999162554740906, -0.37982186675071716, -0.3701153099536896)"><path d="M 0.0 0.0 L 0.75 0.0 L 0.75 0.75 L 0.0 0.7500000596046448 L -6.556707887739321e-08 5.960464477539063e-08 Z" style="vector-effect: non-scaling-stroke;" /></g><g style="stroke: #005fdb;stroke-width: 0.1536;" transform="matrix(0.9915722608566284, 0.12955482304096222, -0.12955482304096222, 0.9915722608566284, -0.3232565224170685, -0.42042267322540283)"><path d="M 0.0 0.0 L 0.75 0.0 L 0.75 0.75 L 0.0 0.7500000596046448 L -6.556707887739321e-08 5.960464477539063e-08 Z" style="vector-effect: non-scaling-stroke;" /></g><g style="stroke: #ff9700;stroke-width: 0.1536;" transform="matrix(0.9970529079437256, 0.07671687752008438, -0.07671687752008438, 0.9970529079437256, -0.3451259732246399, -0.4026637077331543)"><path d="M 0.0 0.0 L 0.75 0.0 L 0.75 0.75 L 0.0 0.7500000596046448 L -6.556707887739321e-08 5.960464477539063e-08 Z" style="vector-effect: non-scaling-stroke;" /></g></g></g><g transform="matrix(1.0, 0.0, 0.0, 1.0, 2.0, 3.0)"><g><g style="stroke: #ff9700;stroke-width: 0.1536;" transform="matrix(0.9995641112327576, 0.029522258788347244, -0.029522258788347244, 0.9995641112327576, -0.3637656569480896, -0.3859074115753174)"><path d="M 0.0 0.0 L 0.75 0.0 L 0.75 0.75 L 0.0 0.7500000596046448 L -6.556707887739321e-08 5.960464477539063e-08 Z" style="vector-effect: non-scaling-stroke;" /></g><g style="stroke: #005fdb;stroke-width: 0.1536;" transform="matrix(0.9994195699691772, 0.03406589850783348, -0.03406589850783348, 0.9994195699691772, -0.36200761795043945, -0.38755708932876587)"><path d="M 0.0 0.0 L 0.75 0.0 L 0.75 0.75 L 0.0 0.7500000596046448 L -6.556707887739321e-08 5.960464477539063e-08 Z" style="vector-effect: non-scaling-stroke;" /></g><g style="stroke: #ff9700;stroke-width: 0.1536;" transform="matrix(0.9977380037307739, -0.06722238659858704, 0.06722238659858704, 0.9977380037307739, -0.39936012029647827, -0.3489433825016022)"><path d="M 0.0 0.0 L 0.75 0.0 L 0.75 0.75 L 0.0 0.7500000596046448 L -6.556707887739321e-08 5.960464477539063e-08 Z" style="vector-effect: non-scaling-stroke;" /></g><g style="stroke: #ff9700;stroke-width: 0.1536;" transform="matrix(0.9949807524681091, -0.10006625205278397, 0.10006625205278397, 0.9949807524681091, -0.4106425940990448, -0.33559295535087585)"><path d="M 0.0 0.0 L 0.75 0.0 L 0.75 0.75 L 0.0 0.7500000596046448 L -6.556707887739321e-08 5.960464477539063e-08 Z" style="vector-effect: non-scaling-stroke;" /></g></g></g><g transform="matrix(1.0, 0.0, 0.0, 1.0, 3.0, 0.0)"><g><g style="stroke: #ff9700;stroke-width: 0.1536;" transform="matrix(0.997027575969696, 0.07704521715641022, -0.07704521715641022, 0.997027575969696, -0.34499335289001465, -0.4027773141860962)"><path d="M 0.0 0.0 L 0.75 0.0 L 0.75 0.75 L 0.0 0.7500000596046448 L -6.556707887739321e-08 5.960464477539063e-08 Z" style="vector-effect: non-scaling-stroke;" /></g><g style="stroke: #ff9700;stroke-width: 0.1536;" transform="matrix(0.9965817928314209, 0.08261159807443619, -0.08261159807443619, 0.9965817928314209, -0.3427387773990631, -0.4046975374221802)"><path d="M 0.0 0.0 L 0.75 0.0 L 0.75 0.75 L 0.0 0.7500000596046448 L -6.556707887739321e-08 5.960464477539063e-08 Z" style="vector-effect: non-scaling-stroke;" /></g><g style="stroke: #ff9700;stroke-width: 0.1536;" transform="matrix(0.9957172274589539, -0.09245092421770096, 0.09245092421770096, 0.9957172274589539, -0.40806302428245544, -0.33872488141059875)"><path d="M 0.0 0.0 L 0.75 0.0 L 0.75 0.75 L 0.0 0.7500000596046448 L -6.556707887739321e-08 5.960464477539063e-08 Z" style="vector-effect: non-scaling-stroke;" /></g><g style="stroke: #ff9700;stroke-width: 0.1536;" transform="matrix(0.9929210543632507, -0.11877637356519699, 0.11877637356519699, 0.9929210543632507, -0.41688650846481323, -0.327804297208786)"><path d="M 0.0 0.0 L 0.75 0.0 L 0.75 0.75 L 0.0 0.7500000596046448 L -6.556707887739321e-08 5.960464477539063e-08 Z" style="vector-effect: non-scaling-stroke;" /></g></g></g><g transform="matrix(1.0, 0.0, 0.0, 1.0, 3.0, 1.0)"><g><g style="stroke: #ff9700;stroke-width: 0.1536;" transform="matrix(0.994244396686554, 0.10713592916727066, -0.10713592916727066, 0.994244396686554, -0.33266565203666687, -0.4130176603794098)"><path d="M 0.0 0.0 L 0.75 0.0 L 0.75 0.75 L 0.0 0.7500000596046448 L -6.556707887739321e-08 5.960464477539063e-08 Z" style="vector-effect: non-scaling-stroke;" /></g><g style="stroke: #ff9700;stroke-width: 0.1536;" transform="matrix(0.9988825917243958, 0.04726051539182663, -0.04726051539182663, 0.9988825917243958, -0.3568582534790039, -0.3923037052154541)"><path d="M 0.0 0.0 L 0.75 0.0 L 0.75 0.75 L 0.0 0.7500000596046448 L -6.556707887739321e-08 5.960464477539063e-08 Z" style="vector-effect: non-scaling-stroke;" /></g><g style="stroke: #ff9700;stroke-width: 0.1536;" transform="matrix(0.9993755221366882, 0.03533553704619408, -0.03533553704619408, 0.9993755221366882, -0.36151495575904846, -0.3880166709423065)"><path d="M 0.0 0.0 L 0.75 0.0 L 0.75 0.75 L 0.0 0.7500000596046448 L -6.556707887739321e-08 5.960464477539063e-08 Z" style="vector-effect: non-scaling-stroke;" /></g><g style="stroke: #ff9700;stroke-width: 0.1536;" transform="matrix(0.99980229139328, 0.01988312602043152, -0.01988312602043152, 0.99980229139328, -0.3674696385860443, -0.3823820650577545)"><path d="M 0.0 0.0 L 0.75 0.0 L 0.75 0.75 L 0.0 0.7500000596046448 L -6.556707887739321e-08 5.960464477539063e-08 Z" style="vector-effect: non-scaling-stroke;" /></g></g></g><g transform="matrix(1.0, 0.0, 0.0, 1.0, 3.0, 2.0)"><g><g style="stroke: #005fdb;stroke-width: 0.1536;" transform="matrix(0.9994221329689026, -0.033990733325481415, 0.033990733325481415, 0.9994221329689026, -0.38752979040145874, -0.362036794424057)"><path d="M 0.0 0.0 L 0.75 0.0 L 0.75 0.75 L 0.0 0.7500000596046448 L -6.556707887739321e-08 5.960464477539063e-08 Z" style="vector-effect: non-scaling-stroke;" /></g><g style="stroke: #ff9700;stroke-width: 0.1536;" transform="matrix(0.992643415927887, -0.12107450515031815, 0.12107450515031815, 0.992643415927887, -0.417644202709198, -0.3268383741378784)"><path d="M 0.0 0.0 L 0.75 0.0 L 0.75 0.75 L 0.0 0.7500000596046448 L -6.556707887739321e-08 5.960464477539063e-08 Z" style="vector-effect: non-scaling-stroke;" /></g><g style="stroke: #ff9700;stroke-width: 0.1536;" transform="matrix(0.9927248954772949, 0.12040486931800842, -0.12040486931800842, 0.9927248954772949, -0.32711997628211975, -0.41742369532585144)"><path d="M 0.0 0.0 L 0.75 0.0 L 0.75 0.75 L 0.0 0.7500000596046448 L -6.556707887739321e-08 5.960464477539063e-08 Z" style="vector-effect: non-scaling-stroke;" /></g><g style="stroke: #ff9700;stroke-width: 0.1536;" transform="matrix(0.9951563477516174, -0.09830498695373535, 0.09830498695373535, 0.9951563477516174, -0.4100479781627655, -0.33631929755210876)"><path d="M 0.0 0.0 L 0.75 0.0 L 0.75 0.75 L 0.0 0.7500000596046448 L -6.556707887739321e-08 5.960464477539063e-08 Z" style="vector-effect: non-scaling-stroke;" /></g></g></g><g transform="matrix(1.0, 0.0, 0.0, 1.0, 3.0, 3.0)"><g><g style="stroke: #005fdb;stroke-width: 0.1536;" transform="matrix(0.9969019889831543, 0.07865394651889801, -0.07865394651889801, 0.9969019889831543, -0.344342976808548, -0.40333351492881775)"><path d="M 0.0 0.0 L 0.75 0.0 L 0.75 0.75 L 0.0 0.7500000596046448 L -6.556707887739321e-08 5.960464477539063e-08 Z" style="vector-effect: non-scaling-stroke;" /></g><g style="stroke: #ff9700;stroke-width: 0.1536;" transform="matrix(0.9922057390213013, -0.12461046874523163, 0.12461046874523163, 0.9922057390213013, -0.4188060760498047, -0.32534825801849365)"><path d="M 0.0 0.0 L 0.75 0.0 L 0.75 0.75 L 0.0 0.7500000596046448 L -6.556707887739321e-08 5.960464477539063e-08 Z" style="vector-effect: non-scaling-stroke;" /></g><g style="stroke: #ff9700;stroke-width: 0.1536;" transform="matrix(0.9945628643035889, -0.1041378527879715, 0.1041378527879715, 0.9945628643035889, -0.4120127558708191, -0.33390942215919495)"><path d="M 0.0 0.0 L 0.75 0.0 L 0.75 0.75 L 0.0 0.7500000596046448 L -6.556707887739321e-08 5.960464477539063e-08 Z" style="vector-effect: non-scaling-stroke;" /></g><g style="stroke: #ff9700;stroke-width: 0.1536;" transform="matrix(0.997330367565155, -0.07302167266607285, 0.07302167266607285, 0.997330367565155, -0.4013819694519043, -0.3466157913208008)"><path d="M 0.0 0.0 L 0.75 0.0 L 0.75 0.75 L 0.0 0.7500000596046448 L -6.556707887739321e-08 5.960464477539063e-08 Z" style="vector-effect: non-scaling-stroke;" /></g></g></g></g></g><g /></g></g></g></g></svg>