<?xml version="1.0" encoding="utf-8" ?>
<svg baseProfile="full" height="256" version="1.1" width="256" xmlns="http://www.w3.org/2000/svg" xmlns:ev="http://www.w3.org/2001/xml-events" xmlns:xlink="http://www.w3.org/1999/xlink"><defs><marker id="arrow" markerHeight="3.5" markerWidth="5" orient="auto" refX="5.0" refY="1.7"><polygon points="0,0 5,1.75 0,3.5" /></marker></defs><g style="fill:white; stroke: black; stroke-width: 0.01;"><g transform="matrix(1.0, 0.0, 0.0, 1.0, 128.0, 127.93600577588002)"><g transform="matrix(63.50118165368875, 0.0, 0.0, 63.50118165368875, 0.0, 0.0)"><g><g transform="matrix(1.0, 0.0, 0.0, 1.0, -1.4990817717685663, -1.5018780037588664)"><g><g><g><g><g><g><g><g><g><g><g><g><g><g><g><g><g /><g transform="matrix(1.0, 0.0, 0.0, 1.0, 0.0, 0.0)"><g><g><g><g><g /><g transform="matrix(0.9942976392540266, 0.10664053907342022, -0.10664053907342022, 0.9942976392540266, 0.0, 0.0)"><g style="stroke: #ff9700;stroke-width: 0.02;" transform="matrix(1.0, 0.0, 0.0, 1.0, 0.0, 0.0)"><rect height="0.75" width="0.75" x="-0.375" y="-0.375" /></g></g></g><g transform="matrix(0.9983693977862284, -0.057083671605492055, 0.057083671605492055, 0.9983693977862284, 0.0, 0.0)"><g style="stroke: #005fdb;stroke-width: 0.02;" transform="matrix(1.0, 0.0, 0.0, 1.0, 0.0, 0.0)"><rect height="0.75" width="0.75" x="-0.375" y="-0.375" /></g></g></g><g transform="matrix(0.999519881505834, 0.030983971252300804, -0.030983971252300804, 0.999519881505834, 0.0, 0.0)"><g style="stroke: #ff9700;stroke-width: 0.02;" transform="matrix(1.0, 0.0, 0.0, 1.0, 0.0, 0.0)"><rect height="0.75" width="0.75" x="-0.375" y="-0.375" /></g></g></g><g transform="matrix(0.99425194720521, 0.10706570636131965, -0.10706570636131965, 0.99425194720521, 0.0, 0.0)"><g style="stroke: #005fdb;stroke-width: 0.02;" transform="matrix(1.0, 0.0, 0.0, 1.0, 0.0, 0.0)"><rect height="0.75" width="0.75" x="-0.375" y="-0.375" /></g></g></g></g></g><g transform="matrix(1.0, 0.0, 0.0, 1.0, 0.0, 1.0)"><g><g><g><g><g /><g transform="matrix(0.9967038999815454, 0.0811254322735942, -0.0811254322735942, 0.9967038999815454, 0.0, 0.0)"><g style="stroke: #005fdb;stroke-width: 0.02;" transform="matrix(1.0, 0.0, 0.0, 1.0, 0.0, 0.0)"><rect height="0.75" width="0.75" x="-0.375" y="-0.375" /></g></g></g><g transform="matrix(0.9987650477317956, -0.049682788058884826, 0.049682788058884826, 0.9987650477317956, 0.0, 0.0)"><g style="stroke: #ff9700;stroke-width: 0.02;" transform="matrix(1.0, 0.0, 0.0, 1.0, 0.0, 0.0)"><rect height="0.75" width="0.75" x="-0.375" y="-0.375" /></g></g></g><g transform="matrix(0.9945536401882532, 0.10422598902526492, -0.10422598902526492, 0.9945536401882532, 0.0, 0.0)"><g style="stroke: #ff9700;stroke-width: 0.02;" transform="matrix(1.0, 0.0, 0.0, 1.0, 0.0, 0.0)"><rect height="0.75" width="0.75" x="-0.375" y="-0.375" /></g></g></g><g transform="matrix(0.9999734060472203, -0.007292955390035795, 0.007292955390035795, 0.9999734060472203, 0.0, 0.0)"><g style="stroke: #ff9700;stroke-width: 0.02;" transform="matrix(1.0, 0.0, 0.0, 1.0, 0.0, 0.0)"><rect height="0.75" width="0.75" x="-0.375" y="-0.375" /></g></g></g></g></g><g transform="matrix(1.0, 0.0, 0.0, 1.0, 0.0, 2.0)"><g><g><g><g><g /><g transform="matrix(0.9998515022064335, -0.017232920110598647, 0.017232920110598647, 0.9998515022064335, 0.0, 0.0)"><g style="stroke: #ff9700;stroke-width: 0.02;" transform="matrix(1.0, 0.0, 0.0, 1.0, 0.0, 0.0)"><rect height="0.75" width="0.75" x="-0.375" y="-0.375" /></g></g></g><g transform="matrix(0.9941600726344058, 0.10791547608917434, -0.10791547608917434, 0.9941600726344058, 0.0, 0.0)"><g style="stroke: #005fdb;stroke-width: 0.02;" transform="matrix(1.0, 0.0, 0.0, 1.0, 0.0, 0.0)"><rect height="0.75" width="0.75" x="-0.375" y="-0.375" /></g></g></g><g transform="matrix(0.9999818869189205, -0.006018790083989667, 0.006018790083989667, 0.9999818869189205, 0.0, 0.0)"><g style="stroke: #005fdb;stroke-width: 0.02;" transform="matrix(1.0, 0.0, 0.0, 1.0, 0.0, 0.0)"><rect height="0.75" width="0.75" x="-0.375" y="-0.375" /></g></g></g><g transform="matrix(0.9980348129927803, -0.06266188677710002, 0.06266188677710002, 0.9980348129927803, 0.0, 0.0)"><g style="stroke: #005fdb;stroke-width: 0.02;" transform="matrix(1.0, 0.0, 0.0, 1.0, 0.0, 0.0)"><rect height="0.75" width="0.75" x="-0.375" y="-0.375" /></g></g></g></g></g><g transform="matrix(1.0, 0.0, 0.0, 1.0, 0.0, 3.0)"><g><g><g><g><g /><g transform="matrix(0.9999187268896452, 0.012749102532767726, -0.012749102532767726, 0.9999187268896452, 0.0, 0.0)"><g style="stroke: #ff9700;stroke-width: 0.02;" transform="matrix(1.0, 0.0, 0.0, 1.0, 0.0, 0.0)"><rect height="0.75" width="0.75" x="-0.375" y="-0.375" /></g></g></g><g transform="matrix(0.9983462640732697, 0.057486842067949476, -0.057486842067949476, 0.9983462640732697, 0.0, 0.0)"><g style="stroke: #ff9700;stroke-width: 0.02;" transform="matrix(1.0, 0.0, 0.0, 1.0, 0.0, 0.0)"><rect height="0.75" width="0.75" x="-0.375" y="-0.375" /></g></g></g><g transform="matrix(0.9963859196798612, 0.08494173923176435, -0.08494173923176435, 0.9963859196798612, 0.0, 0.0)"><g style="stroke: #ff9700;stroke-width: 0.02;" transform="matrix(1.0, 0.0, 0.0, 1.0, 0.0, 0.0)"><rect height="0.75" width="0.75" x="-0.375" y="-0.375" /></g></g></g><g transform="matrix(0.9914838690517119, -0.1302295565923798, 0.1302295565923798, 0.9914838690517119, 0.0, 0.0)"><g style="stroke: #ff9700;stroke-width: 0.02;" transform="matrix(1.0, 0.0, 0.0, 1.0, 0.0, 0.0)"><rect height="0.75" width="0.75" x="-0.375" y="-0.375" /></g></g></g></g></g><g transform="matrix(1.0, 0.0, 0.0, 1.0, 1.0, 0.0)"><g><g><g><g><g /><g transform="matrix(0.9953726792963097, 0.0960896940909163, -0.0960896940909163, 0.9953726792963097, 0.0, 0.0)"><g style="stroke: #ff9700;stroke-width: 0.02;" transform="matrix(1.0, 0.0, 0.0, 1.0, 0.0, 0.0)"><rect height="0.75" width="0.75" x="-0.375" y="-0.375" /></g></g></g><g transform="matrix(0.998953130262036, -0.04574542096953144, 0.04574542096953144, 0.998953130262036, 0.0, 0.0)"><g style="stroke: #005fdb;stroke-width: 0.02;" transform="matrix(1.0, 0.0, 0.0, 1.0, 0.0, 0.0)"><rect height="0.75" width="0.75" x="-0.375" y="-0.375" /></g></g></g><g transform="matrix(0.996731120943232, -0.08079029980912415, 0.08079029980912415, 0.996731120943232, 0.0, 0.0)"><g style="stroke: #ff9700;stroke-width: 0.02;" transform="matrix(1.0, 0.0, 0.0, 1.0, 0.0, 0.0)"><rect height="0.75" width="0.75" x="-0.375" y="-0.375" /></g></g></g><g transform="matrix(0.997659568064395, -0.06837679613410305, 0.06837679613410305, 0.997659568064395, 0.0, 0.0)"><g style="stroke: #005fdb;stroke-width: 0.02;" transform="matrix(1.0, 0.0, 0.0, 1.0, 0.0, 0.0)"><rect height="0.75" width="0.75" x="-0.375" y="-0.375" /></g></g></g></g></g><g transform="matrix(1.0, 0.0, 0.0, 1.0, 1.0, 1.0)"><g><g><g><g><g /><g transform="matrix(0.9968516803516104, 0.07928888560303156, -0.07928888560303156, 0.9968516803516104, 0.0, 0.0)"><g style="stroke: #ff9700;stroke-width: 0.02;" transform="matrix(1.0, 0.0, 0.0, 1.0, 0.0, 0.0)"><rect height="0.75" width="0.75" x="-0.375" y="-0.375" /></g></g></g><g transform="matrix(0.9939737563278515, -0.10961830016699303, 0.10961830016699303, 0.9939737563278515, 0.0, 0.0)"><g style="stroke: #ff9700;stroke-width: 0.02;" transform="matrix(1.0, 0.0, 0.0, 1.0, 0.0, 0.0)"><rect height="0.75" width="0.75" x="-0.375" y="-0.375" /></g></g></g><g transform="matrix(0.9999978391809938, 0.0020788538532745364, -0.0020788538532745364, 0.9999978391809938, 0.0, 0.0)"><g style="stroke: #005fdb;stroke-width: 0.02;" transform="matrix(1.0, 0.0, 0.0, 1.0, 0.0, 0.0)"><rect height="0.75" width="0.75" x="-0.375" y="-0.375" /></g></g></g><g transform="matrix(0.9947669712877898, -0.1021698235043874, 0.1021698235043874, 0.9947669712877898, 0.0, 0.0)"><g style="stroke: #ff9700;stroke-width: 0.02;" transform="matrix(1.0, 0.0, 0.0, 1.0, 0.0, 0.0)"><rect height="0.75" width="0.75" x="-0.375" y="-0.375" /></g></g></g></g></g><g transform="matrix(1.0, 0.0, 0.0, 1.0, 1.0, 2.0)"><g><g><g><g><g /><g transform="matrix(0.9985381601518298, 0.05405129712225831, -0.05405129712225831, 0.9985381601518298, 0.0, 0.0)"><g style="stroke: #ff9700;stroke-width: 0.02;" transform="matrix(1.0, 0.0, 0.0, 1.0, 0.0, 0.0)"><rect height="0.75" width="0.75" x="-0.375" y="-0.375" /></g></g></g><g transform="matrix(0.9966130270711657, 0.08223426458629027, -0.08223426458629027, 0.9966130270711657, 0.0, 0.0)"><g style="stroke: #ff9700;stroke-width: 0.02;" transform="matrix(1.0, 0.0, 0.0, 1.0, 0.0, 0.0)"><rect height="0.75" width="0.75" x="-0.375" y="-0.375" /></g></g></g><g transform="matrix(0.9926361116741617, 0.12113442863365168, -0.12113442863365168, 0.9926361116741617, 0.0, 0.0)"><g style="stroke: #ff9700;stroke-width: 0.02;" transform="matrix(1.0, 0.0, 0.0, 1.0, 0.0, 0.0)"><rect height="0.75" width="0.75" x="-0.375" y="-0.375" /></g></g></g><g transform="matrix(0.9997369334620951, 0.022936082311639384, -0.022936082311639384, 0.9997369334620951, 0.0, 0.0)"><g style="stroke: #ff9700;stroke-width: 0.02;" transform="matrix(1.0, 0.0, 0.0, 1.0, 0.0, 0.0)"><rect height="0.75" width="0.75" x="-0.375" y="-0.375" /></g></g></g></g></g><g transform="matrix(1.0, 0.0, 0.0, 1.0, 1.0, 3.0)"><g><g><g><g><g /><g transform="matrix(0.9996822991893102, 0.025205171841796034, -0.025205171841796034, 0.9996822991893102, 0.0, 0.0)"><g style="stroke: #ff9700;stroke-width: 0.02;" transform="matrix(1.0, 0.0, 0.0, 1.0, 0.0, 0.0)"><rect height="0.75" width="0.75" x="-0.375" y="-0.375" /></g></g></g><g transform="matrix(0.9998038796902868, 0.019804094431469098, -0.019804094431469098, 0.9998038796902868, 0.0, 0.0)"><g style="stroke: #ff9700;stroke-width: 0.02;" transform="matrix(1.0, 0.0, 0.0, 1.0, 0.0, 0.0)"><rect height="0.75" width="0.75" x="-0.375" y="-0.375" /></g></g></g><g transform="matrix(0.9966955812116135, -0.0812275716320749, 0.0812275716320749, 0.9966955812116135, 0.0, 0.0)"><g style="stroke: #ff9700;stroke-width: 0.02;" transform="matrix(1.0, 0.0, 0.0, 1.0, 0.0, 0.0)"><rect height="0.75" width="0.75" x="-0.375" y="-0.375" /></g></g></g><g transform="matrix(0.9995641998617497, 0.029519660478062336, -0.029519660478062336, 0.9995641998617497, 0.0, 0.0)"><g style="stroke: #ff9700;stroke-width: 0.02;" transform="matrix(1.0, 0.0, 0.0, 1.0, 0.0, 0.0)"><rect height="0.75" width="0.75" x="-0.375" y="-0.375" /></g></g></g></g></g><g transform="matrix(1.0, 0.0, 0.0, 1.0, 2.0, 0.0)"><g><g><g><g><g /><g transform="matrix(0.9999811246350632, -0.00614413326631997, 0.00614413326631997, 0.9999811246350632, 0.0, 0.0)"><g style="stroke: #ff9700;stroke-width: 0.02;" transform="matrix(1.0, 0.0, 0.0, 1.0, 0.0, 0.0)"><rect height="0.75" width="0.75" x="-0.375" y="-0.375" /></g></g></g><g transform="matrix(0.9977267479724935, 0.0673894381949602, -0.0673894381949602, 0.9977267479724935, 0.0, 0.0)"><g style="stroke: #005fdb;stroke-width: 0.02;" transform="matrix(1.0, 0.0, 0.0, 1.0, 0.0, 0.0)"><rect height="0.75" width="0.75" x="-0.375" y="-0.375" /></g></g></g><g transform="matrix(0.9938634349946825, 0.11061407044571872, -0.11061407044571872, 0.9938634349946825, 0.0, 0.0)"><g style="stroke: #005fdb;stroke-width: 0.02;" transform="matrix(1.0, 0.0, 0.0, 1.0, 0.0, 0.0)"><rect height="0.75" width="0.75" x="-0.375" y="-0.375" /></g></g></g><g transform="matrix(0.9945717750440879, 0.10405279566475951, -0.10405279566475951, 0.9945717750440879, 0.0, 0.0)"><g style="stroke: #005fdb;stroke-width: 0.02;" transform="matrix(1.0, 0.0, 0.0, 1.0, 0.0, 0.0)"><rect height="0.75" width="0.75" x="-0.375" y="-0.375" /></g></g></g></g></g><g transform="matrix(1.0, 0.0, 0.0, 1.0, 2.0, 1.0)"><g><g><g><g><g /><g transform="matrix(0.9999435123340288, 0.010628835358869472, -0.010628835358869472, 0.9999435123340288, 0.0, 0.0)"><g style="stroke: #ff9700;stroke-width: 0.02;" transform="matrix(1.0, 0.0, 0.0, 1.0, 0.0, 0.0)"><rect height="0.75" width="0.75" x="-0.375" y="-0.375" /></g></g></g><g transform="matrix(0.9985561888646837, 0.05371720096987797, -0.05371720096987797, 0.9985561888646837, 0.0, 0.0)"><g style="stroke: #ff9700;stroke-width: 0.02;" transform="matrix(1.0, 0.0, 0.0, 1.0, 0.0, 0.0)"><rect height="0.75" width="0.75" x="-0.375" y="-0.375" /></g></g></g><g transform="matrix(0.9966738542499219, 0.08149373138226841, -0.08149373138226841, 0.9966738542499219, 0.0, 0.0)"><g style="stroke: #005fdb;stroke-width: 0.02;" transform="matrix(1.0, 0.0, 0.0, 1.0, 0.0, 0.0)"><rect height="0.75" width="0.75" x="-0.375" y="-0.375" /></g></g></g><g transform="matrix(0.9946568175918626, 0.10323669511384093, -0.10323669511384093, 0.9946568175918626, 0.0, 0.0)"><g style="stroke: #ff9700;stroke-width: 0.02;" transform="matrix(1.0, 0.0, 0.0, 1.0, 0.0, 0.0)"><rect height="0.75" width="0.75" x="-0.375" y="-0.375" /></g></g></g></g></g><g transform="matrix(1.0, 0.0, 0.0, 1.0, 2.0, 2.0)"><g><g><g><g><g /><g transform="matrix(0.993075690210677, 0.11747626786967487, -0.11747626786967487, 0.993075690210677, 0.0, 0.0)"><g style="stroke: #ff9700;stroke-width: 0.02;" transform="matrix(1.0, 0.0, 0.0, 1.0, 0.0, 0.0)"><rect height="0.75" width="0.75" x="-0.375" y="-0.375" /></g></g></g><g transform="matrix(0.9999162463893527, -0.012942187088250852, 0.012942187088250852, 0.9999162463893527, 0.0, 0.0)"><g style="stroke: #ff9700;stroke-width: 0.02;" transform="matrix(1.0, 0.0, 0.0, 1.0, 0.0, 0.0)"><rect height="0.75" width="0.75" x="-0.375" y="-0.375" /></g></g></g><g transform="matrix(0.9915722614632073, 0.12955481579910802, -0.12955481579910802, 0.9915722614632073, 0.0, 0.0)"><g style="stroke: #005fdb;stroke-width: 0.02;" transform="matrix(1.0, 0.0, 0.0, 1.0, 0.0, 0.0)"><rect height="0.75" width="0.75" x="-0.375" y="-0.375" /></g></g></g><g transform="matrix(0.997052917909795, 0.07671687485529928, -0.07671687485529928, 0.997052917909795, 0.0, 0.0)"><g style="stroke: #ff9700;stroke-width: 0.02;" transform="matrix(1.0, 0.0, 0.0, 1.0, 0.0, 0.0)"><rect height="0.75" width="0.75" x="-0.375" y="-0.375" /></g></g></g></g></g><g transform="matrix(1.0, 0.0, 0.0, 1.0, 2.0, 3.0)"><g><g><g><g><g /><g transform="matrix(0.999564123154372, 0.029522257749558904, -0.029522257749558904, 0.999564123154372, 0.0, 0.0)"><g style="stroke: #ff9700;stroke-width: 0.02;" transform="matrix(1.0, 0.0, 0.0, 1.0, 0.0, 0.0)"><rect height="0.75" width="0.75" x="-0.375" y="-0.375" /></g></g></g><g transform="matrix(0.9994195887297297, 0.03406590176845399, -0.03406590176845399, 0.9994195887297297, 0.0, 0.0)"><g style="stroke: #005fdb;stroke-width: 0.02;" transform="matrix(1.0, 0.0, 0.0, 1.0, 0.0, 0.0)"><rect height="0.75" width="0.75" x="-0.375" y="-0.375" /></g></g></g><g transform="matrix(0.9977380171517855, -0.06722238563174837, 0.06722238563174837, 0.9977380171517855, 0.0, 0.0)"><g style="stroke: #ff9700;stroke-width: 0.02;" transform="matrix(1.0, 0.0, 0.0, 1.0, 0.0, 0.0)"><rect height="0.75" width="0.75" x="-0.375" y="-0.375" /></g></g></g><g transform="matrix(0.9949807762522831, -0.10006625249505503, 0.10006625249505503, 0.9949807762522831, 0.0, 0.0)"><g style="stroke: #ff9700;stroke-width: 0.02;" transform="matrix(1.0, 0.0, 0.0, 1.0, 0.0, 0.0)"><rect height="0.75" width="0.75" x="-0.375" y="-0.375" /></g></g></g></g></g><g transform="matrix(1.0, 0.0, 0.0, 1.0, 3.0, 0.0)"><g><g><g><g><g /><g transform="matrix(0.9970275998899828, 0.07704521437195477, -0.07704521437195477, 0.9970275998899828, 0.0, 0.0)"><g style="stroke: #ff9700;stroke-width: 0.02;" transform="matrix(1.0, 0.0, 0.0, 1.0, 0.0, 0.0)"><rect height="0.75" width="0.75" x="-0.375" y="-0.375" /></g></g></g><g transform="matrix(0.9965818198548948, 0.08261159927459365, -0.08261159927459365, 0.9965818198548948, 0.0, 0.0)"><g style="stroke: #ff9700;stroke-width: 0.02;" transform="matrix(1.0, 0.0, 0.0, 1.0, 0.0, 0.0)"><rect height="0.75" width="0.75" x="-0.375" y="-0.375" /></g></g></g><g transform="matrix(0.9957172424157782, -0.09245092295871572, 0.09245092295871572, 0.9957172424157782, 0.0, 0.0)"><g style="stroke: #ff9700;stroke-width: 0.02;" transform="matrix(1.0, 0.0, 0.0, 1.0, 0.0, 0.0)"><rect height="0.75" width="0.75" x="-0.375" y="-0.375" /></g></g></g><g transform="matrix(0.9929210304483388, -0.11877637514846538, 0.11877637514846538, 0.9929210304483388, 0.0, 0.0)"><g style="stroke: #ff9700;stroke-width: 0.02;" transform="matrix(1.0, 0.0, 0.0, 1.0, 0.0, 0.0)"><rect height="0.75" width="0.75" x="-0.375" y="-0.375" /></g></g></g></g></g><g transform="matrix(1.0, 0.0, 0.0, 1.0, 3.0, 1.0)"><g><g><g><g><g /><g transform="matrix(0.9942443834596595, 0.10713592282200071, -0.10713592282200071, 0.9942443834596595, 0.0, 0.0)"><g style="stroke: #ff9700;stroke-width: 0.02;" transform="matrix(1.0, 0.0, 0.0, 1.0, 0.0, 0.0)"><rect height="0.75" width="0.75" x="-0.375" y="-0.375" /></g></g></g><g transform="matrix(0.9988825976391047, 0.0472605134732429, -0.0472605134732429, 0.9988825976391047, 0.0, 0.0)"><g style="stroke: #ff9700;stroke-width: 0.02;" transform="matrix(1.0, 0.0, 0.0, 1.0, 0.0, 0.0)"><rect height="0.75" width="0.75" x="-0.375" y="-0.375" /></g></g></g><g transform="matrix(0.9993755049399003, 0.03533553630722491, -0.03533553630722491, 0.9993755049399003, 0.0, 0.0)"><g style="stroke: #ff9700;stroke-width: 0.02;" transform="matrix(1.0, 0.0, 0.0, 1.0, 0.0, 0.0)"><rect height="0.75" width="0.75" x="-0.375" y="-0.375" /></g></g></g><g transform="matrix(0.9998023111303006, 0.019883124968415457, -0.019883124968415457, 0.9998023111303006, 0.0, 0.0)"><g style="stroke: #ff9700;stroke-width: 0.02;" transform="matrix(1.0, 0.0, 0.0, 1.0, 0.0, 0.0)"><rect height="0.75" width="0.75" x="-0.375" y="-0.375" /></g></g></g></g></g><g transform="matrix(1.0, 0.0, 0.0, 1.0, 3.0, 2.0)"><g><g><g><g><g /><g transform="matrix(0.9994221479969719, -0.033990735401262705, 0.033990735401262705, 0.9994221479969719, 0.0, 0.0)"><g style="stroke: #005fdb;stroke-width: 0.02;" transform="matrix(1.0, 0.0, 0.0, 1.0, 0.0, 0.0)"><rect height="0.75" width="0.75" x="-0.375" y="-0.375" /></g></g></g><g transform="matrix(0.9926434223441314, -0.12107450630471489, 0.12107450630471489, 0.9926434223441314, 0.0, 0.0)"><g style="stroke: #ff9700;stroke-width: 0.02;" transform="matrix(1.0, 0.0, 0.0, 1.0, 0.0, 0.0)"><rect height="0.75" width="0.75" x="-0.375" y="-0.375" /></g></g></g><g transform="matrix(0.9927248701777456, 0.12040486755350972, -0.12040486755350972, 0.9927248701777456, 0.0, 0.0)"><g style="stroke: #ff9700;stroke-width: 0.02;" transform="matrix(1.0, 0.0, 0.0, 1.0, 0.0, 0.0)"><rect height="0.75" width="0.75" x="-0.375" y="-0.375" /></g></g></g><g transform="matrix(0.995156334047672, -0.09830498870758411, 0.09830498870758411, 0.995156334047672, 0.0, 0.0)"><g style="stroke: #ff9700;stroke-width: 0.02;" transform="matrix(1.0, 0.0, 0.0, 1.0, 0.0, 0.0)"><rect height="0.75" width="0.75" x="-0.375" y="-0.375" /></g></g></g></g></g><g transform="matrix(1.0, 0.0, 0.0, 1.0, 3.0, 3.0)"><g><g><g><g><g /><g transform="matrix(0.9969019793189662, 0.07865394859717846, -0.07865394859717846, 0.9969019793189662, 0.0, 0.0)"><g style="stroke: #005fdb;stroke-width: 0.02;" transform="matrix(1.0, 0.0, 0.0, 1.0, 0.0, 0.0)"><rect height="0.75" width="0.75" x="-0.375" y="-0.375" /></g></g></g><g transform="matrix(0.9922057403882848, -0.12461046802149285, 0.12461046802149285, 0.9922057403882848, 0.0, 0.0)"><g style="stroke: #ff9700;stroke-width: 0.02;" transform="matrix(1.0, 0.0, 0.0, 1.0, 0.0, 0.0)"><rect height="0.75" width="0.75" x="-0.375" y="-0.375" /></g></g></g><g transform="matrix(0.994562872895717, -0.10413785026309122, 0.10413785026309122, 0.994562872895717, 0.0, 0.0)"><g style="stroke: #ff9700;stroke-width: 0.02;" transform="matrix(1.0, 0.0, 0.0, 1.0, 0.0, 0.0)"><rect height="0.75" width="0.75" x="-0.375" y="-0.375" /></g></g></g><g transform="matrix(0.9973303539328453, -0.07302167571471849, 0.07302167571471849, 0.9973303539328453, 0.0, 0.0)"><g style="stroke: #ff9700;stroke-width: 0.02;" transform="matrix(1.0, 0.0, 0.0, 1.0, 0.0, 0.0)"><rect height="0.75" width="0.75" x="-0.375" y="-0.375" /></g></g></g></g></g></g><g /></g></g></g></g></svg>