<?xml version="1.0" encoding="utf-8" ?>
<svg baseProfile="full" height="256" version="1.1" width="256" xmlns="http://www.w3.org/2000/svg" xmlns:ev="http://www.w3.org/2001/xml-events" xmlns:xlink="http://www.w3.org/1999/xlink"><defs><marker id="arrow" markerHeight="3.5" markerWidth="5" orient="auto" refX="5.0" refY="1.7"><polygon points="0,0 5,1.75 0,3.5" /></marker></defs><g style="fill:white;"><g transform="matrix(1.0, 0.0, 0.0, 1.0, 128.0, 127.93600577588002)"><g transform="matrix(63.50118165368875, 0.0, 0.0, 63.50118165368875, 0.0, 0.0)"><g><g transform="matrix(1.0, 0.0, 0.0, 1.0, -1.4990817717685658, -1.5018780037588666)"><g><g><g><g><g><g><g><g><g><g><g><g><g><g><g><g><g /><g transform="matrix(1.0, 0.0, 0.0, 1.0, 0.0, 0.0)"><g><g><g><g><g /><g transform="matrix(0.9942976392540266, 0.10664053907342046, -0.10664053907342046, 0.9942976392540266, 0.0, 0.0)"><g style="stroke: #ff9700;stroke-width: 0.1536;" transform="matrix(1.0, 0.0, 0.0, 1.0, 0.0, 0.0)"><rect height="0.75" style="vector-effect: non-scaling-stroke;" width="0.75" x="-0.375" y="-0.375" /></g></g></g><g transform="matrix(0.9983693977862285, -0.05708367160549173, 0.05708367160549173, 0.9983693977862285, 0.0, 0.0)"><g style="stroke: #005fdb;stroke-width: 0.1536;" transform="matrix(1.0, 0.0, 0.0, 1.0, 0.0, 0.0)"><rect height="0.75" style="vector-effect: non-scaling-stroke;" width="0.75" x="-0.375" y="-0.375" /></g></g></g><g transform="matrix(0.999519881505834, 0.030983971252300464, -0.030983971252300464, 0.999519881505834, 0.0, 0.0)"><g style="stroke: #ff9700;stroke-width: 0.1536;" transform="matrix(1.0, 0.0, 0.0, 1.0, 0.0, 0.0)"><rect height="0.75" style="vector-effect: non-scaling-stroke;" width="0.75" x="-0.375" y="-0.375" /></g></g></g><g transform="matrix(0.9942519472052099, 0.10706570636131987, -0.10706570636131987, 0.9942519472052099, 0.0, 0.0)"><g style="stroke: #005fdb;stroke-width: 0.1536;" transform="matrix(1.0, 0.0, 0.0, 1.0, 0.0, 0.0)"><rect height="0.75" style="vector-effect: non-scaling-stroke;" width="0.75" x="-0.375" y="-0.375" /></g></g></g></g></g><g transform="matrix(1.0, 0.0, 0.0, 1.0, 0.0, 1.0)"><g><g><g><g><g /><g transform="matrix(0.9967038999815454, 0.08112543227359452, -0.08112543227359452, 0.9967038999815454, 0.0, 0.0)"><g style="stroke: #005fdb;stroke-width: 0.1536;" transform="matrix(1.0, 0.0, 0.0, 1.0, 0.0, 0.0)"><rect height="0.75" style="vector-effect: non-scaling-stroke;" width="0.75" x="-0.375" y="-0.375" /></g></g></g><g transform="matrix(0.9987650477317956, -0.04968278805888471, 0.04968278805888471, 0.9987650477317956, 0.0, 0.0)"><g style="stroke: #ff9700;stroke-width: 0.1536;" transform="matrix(1.0, 0.0, 0.0, 1.0, 0.0, 0.0)"><rect height="0.75" style="vector-effect: non-scaling-stroke;" width="0.75" x="-0.375" y="-0.375" /></g></g></g><g transform="matrix(0.9945536401882531, 0.10422598902526568, -0.10422598902526568, 0.9945536401882531, 0.0, 0.0)"><g style="stroke: #ff9700;stroke-width: 0.1536;" transform="matrix(1.0, 0.0, 0.0, 1.0, 0.0, 0.0)"><rect height="0.75" style="vector-effect: non-scaling-stroke;" width="0.75" x="-0.375" y="-0.375" /></g></g></g><g transform="matrix(0.9999734060472203, -0.007292955390034869, 0.007292955390034869, 0.9999734060472203, 0.0, 0.0)"><g style="stroke: #ff9700;stroke-width: 0.1536;" transform="matrix(1.0, 0.0, 0.0, 1.0, 0.0, 0.0)"><rect height="0.75" style="vector-effect: non-scaling-stroke;" width="0.75" x="-0.375" y="-0.375" /></g></g></g></g></g><g transform="matrix(1.0, 0.0, 0.0, 1.0, 0.0, 2.0)"><g><g><g><g><g /><g transform="matrix(0.9998515022064335, -0.01723292011059839, 0.01723292011059839, 0.9998515022064335, 0.0, 0.0)"><g style="stroke: #ff9700;stroke-width: 0.1536;" transform="matrix(1.0, 0.0, 0.0, 1.0, 0.0, 0.0)"><rect height="0.75" style="vector-effect: non-scaling-stroke;" width="0.75" x="-0.375" y="-0.375" /></g></g></g><g transform="matrix(0.9941600726344056, 0.10791547608917491, -0.10791547608917491, 0.9941600726344056, 0.0, 0.0)"><g style="stroke: #005fdb;stroke-width: 0.1536;" transform="matrix(1.0, 0.0, 0.0, 1.0, 0.0, 0.0)"><rect height="0.75" style="vector-effect: non-scaling-stroke;" width="0.75" x="-0.375" y="-0.375" /></g></g></g><g transform="matrix(0.9999818869189205, -0.006018790083990103, 0.006018790083990103, 0.9999818869189205, 0.0, 0.0)"><g style="stroke: #005fdb;stroke-width: 0.1536;" transform="matrix(1.0, 0.0, 0.0, 1.0, 0.0, 0.0)"><rect height="0.75" style="vector-effect: non-scaling-stroke;" width="0.75" x="-0.375" y="-0.375" /></g></g></g><g transform="matrix(0.9980348129927802, -0.0626618867771006, 0.0626618867771006, 0.9980348129927802, 0.0, 0.0)"><g style="stroke: #005fdb;stroke-width: 0.1536;" transform="matrix(1.0, 0.0, 0.0, 1.0, 0.0, 0.0)"><rect height="0.75" style="vector-effect: non-scaling-stroke;" width="0.75" x="-0.375" y="-0.375" /></g></g></g></g></g><g transform="matrix(1.0, 0.0, 0.0, 1.0, 0.0, 3.0)"><g><g><g><g><g /><g transform="matrix(0.9999187268896452, 0.01274910253276747, -0.01274910253276747, 0.9999187268896452, 0.0, 0.0)"><g style="stroke: #ff9700;stroke-width: 0.1536;" transform="matrix(1.0, 0.0, 0.0, 1.0, 0.0, 0.0)"><rect height="0.75" style="vector-effect: non-scaling-stroke;" width="0.75" x="-0.375" y="-0.375" /></g></g></g><g transform="matrix(0.9983462640732695, 0.057486842067950385, -0.057486842067950385, 0.9983462640732695, 0.0, 0.0)"><g style="stroke: #ff9700;stroke-width: 0.1536;" transform="matrix(1.0, 0.0, 0.0, 1.0, 0.0, 0.0)"><rect height="0.75" style="vector-effect: non-scaling-stroke;" width="0.75" x="-0.375" y="-0.375" /></g></g></g><g transform="matrix(0.9963859196798612, 0.08494173923176467, -0.08494173923176467, 0.9963859196798612, 0.0, 0.0)"><g style="stroke: #ff9700;stroke-width: 0.1536;" transform="matrix(1.0, 0.0, 0.0, 1.0, 0.0, 0.0)"><rect height="0.75" style="vector-effect: non-scaling-stroke;" width="0.75" x="-0.375" y="-0.375" /></g></g></g><g transform="matrix(0.9914838690517118, -0.13022955659238045, 0.13022955659238045, 0.9914838690517118, 0.0, 0.0)"><g style="stroke: #ff9700;stroke-width: 0.1536;" transform="matrix(1.0, 0.0, 0.0, 1.0, 0.0, 0.0)"><rect height="0.75" style="vector-effect: non-scaling-stroke;" width="0.75" x="-0.375" y="-0.375" /></g></g></g></g></g><g transform="matrix(1.0, 0.0, 0.0, 1.0, 1.0, 0.0)"><g><g><g><g><g /><g transform="matrix(0.9953726792963097, 0.09608969409091649, -0.09608969409091649, 0.9953726792963097, 0.0, 0.0)"><g style="stroke: #ff9700;stroke-width: 0.1536;" transform="matrix(1.0, 0.0, 0.0, 1.0, 0.0, 0.0)"><rect height="0.75" style="vector-effect: non-scaling-stroke;" width="0.75" x="-0.375" y="-0.375" /></g></g></g><g transform="matrix(0.998953130262036, -0.04574542096953186, 0.04574542096953186, 0.998953130262036, 0.0, 0.0)"><g style="stroke: #005fdb;stroke-width: 0.1536;" transform="matrix(1.0, 0.0, 0.0, 1.0, 0.0, 0.0)"><rect height="0.75" style="vector-effect: non-scaling-stroke;" width="0.75" x="-0.375" y="-0.375" /></g></g></g><g transform="matrix(0.996731120943232, -0.0807902998091245, 0.0807902998091245, 0.996731120943232, 0.0, 0.0)"><g style="stroke: #ff9700;stroke-width: 0.1536;" transform="matrix(1.0, 0.0, 0.0, 1.0, 0.0, 0.0)"><rect height="0.75" style="vector-effect: non-scaling-stroke;" width="0.75" x="-0.375" y="-0.375" /></g></g></g><g transform="matrix(0.997659568064395, -0.06837679613410348, 0.06837679613410348, 0.997659568064395, 0.0, 0.0)"><g style="stroke: #005fdb;stroke-width: 0.1536;" transform="matrix(1.0, 0.0, 0.0, 1.0, 0.0, 0.0)"><rect height="0.75" style="vector-effect: non-scaling-stroke;" width="0.75" x="-0.375" y="-0.375" /></g></g></g></g></g><g transform="matrix(1.0, 0.0, 0.0, 1.0, 1.0, 1.0)"><g><g><g><g><g /><g transform="matrix(0.9968516803516104, 0.07928888560303227, -0.07928888560303227, 0.9968516803516104, 0.0, 0.0)"><g style="stroke: #ff9700;stroke-width: 0.1536;" transform="matrix(1.0, 0.0, 0.0, 1.0, 0.0, 0.0)"><rect height="0.75" style="vector-effect: non-scaling-stroke;" width="0.75" x="-0.375" y="-0.375" /></g></g></g><g transform="matrix(0.9939737563278515, -0.10961830016699294, 0.10961830016699294, 0.9939737563278515, 0.0, 0.0)"><g style="stroke: #ff9700;stroke-width: 0.1536;" transform="matrix(1.0, 0.0, 0.0, 1.0, 0.0, 0.0)"><rect height="0.75" style="vector-effect: non-scaling-stroke;" width="0.75" x="-0.375" y="-0.375" /></g></g></g><g transform="matrix(0.9999978391809938, 0.002078853853274559, -0.002078853853274559, 0.9999978391809938, 0.0, 0.0)"><g style="stroke: #005fdb;stroke-width: 0.1536;" transform="matrix(1.0, 0.0, 0.0, 1.0, 0.0, 0.0)"><rect height="0.75" style="vector-effect: non-scaling-stroke;" width="0.75" x="-0.375" y="-0.375" /></g></g></g><g transform="matrix(0.9947669712877898, -0.1021698235043869, 0.1021698235043869, 0.9947669712877898, 0.0, 0.0)"><g style="stroke: #ff9700;stroke-width: 0.1536;" transform="matrix(1.0, 0.0, 0.0, 1.0, 0.0, 0.0)"><rect height="0.75" style="vector-effect: non-scaling-stroke;" width="0.75" x="-0.375" y="-0.375" /></g></g></g></g></g><g transform="matrix(1.0, 0.0, 0.0, 1.0, 1.0, 2.0)"><g><g><g><g><g /><g transform="matrix(0.9985381601518298, 0.05405129712225817, -0.05405129712225817, 0.9985381601518298, 0.0, 0.0)"><g style="stroke: #ff9700;stroke-width: 0.1536;" transform="matrix(1.0, 0.0, 0.0, 1.0, 0.0, 0.0)"><rect height="0.75" style="vector-effect: non-scaling-stroke;" width="0.75" x="-0.375" y="-0.375" /></g></g></g><g transform="matrix(0.9966130270711656, 0.08223426458629055, -0.08223426458629055, 0.9966130270711656, 0.0, 0.0)"><g style="stroke: #ff9700;stroke-width: 0.1536;" transform="matrix(1.0, 0.0, 0.0, 1.0, 0.0, 0.0)"><rect height="0.75" style="vector-effect: non-scaling-stroke;" width="0.75" x="-0.375" y="-0.375" /></g></g></g><g transform="matrix(0.9926361116741617, 0.12113442863365216, -0.12113442863365216, 0.9926361116741617, 0.0, 0.0)"><g style="stroke: #ff9700;stroke-width: 0.1536;" transform="matrix(1.0, 0.0, 0.0, 1.0, 0.0, 0.0)"><rect height="0.75" style="vector-effect: non-scaling-stroke;" width="0.75" x="-0.375" y="-0.375" /></g></g></g><g transform="matrix(0.9997369334620951, 0.022936082311639547, -0.022936082311639547, 0.9997369334620951, 0.0, 0.0)"><g style="stroke: #ff9700;stroke-width: 0.1536;" transform="matrix(1.0, 0.0, 0.0, 1.0, 0.0, 0.0)"><rect height="0.75" style="vector-effect: non-scaling-stroke;" width="0.75" x="-0.375" y="-0.375" /></g></g></g></g></g><g transform="matrix(1.0, 0.0, 0.0, 1.0, 1.0, 3.0)"><g><g><g><g><g /><g transform="matrix(0.9996822991893102, 0.02520517184179617, -0.02520517184179617, 0.9996822991893102, 0.0, 0.0)"><g style="stroke: #ff9700;stroke-width: 0.1536;" transform="matrix(1.0, 0.0, 0.0, 1.0, 0.0, 0.0)"><rect height="0.75" style="vector-effect: non-scaling-stroke;" width="0.75" x="-0.375" y="-0.375" /></g></g></g><g transform="matrix(0.9998038796902868, 0.019804094431469483, -0.019804094431469483, 0.9998038796902868, 0.0, 0.0)"><g style="stroke: #ff9700;stroke-width: 0.1536;" transform="matrix(1.0, 0.0, 0.0, 1.0, 0.0, 0.0)"><rect height="0.75" style="vector-effect: non-scaling-stroke;" width="0.75" x="-0.375" y="-0.375" /></g></g></g><g transform="matrix(0.9966955812116136, -0.0812275716320748, 0.0812275716320748, 0.9966955812116136, 0.0, 0.0)"><g style="stroke: #ff9700;stroke-width: 0.1536;" transform="matrix(1.0, 0.0, 0.0, 1.0, 0.0, 0.0)"><rect height="0.75" style="vector-effect: non-scaling-stroke;" width="0.75" x="-0.375" y="-0.375" /></g></g></g><g transform="matrix(0.9995641998617497, 0.029519660478062332, -0.029519660478062332, 0.9995641998617497, 0.0, 0.0)"><g style="stroke: #ff9700;stroke-width: 0.1536;" transform="matrix(1.0, 0.0, 0.0, 1.0, 0.0, 0.0)"><rect height="0.75" style="vector-effect: non-scaling-stroke;" width="0.75" x="-0.375" y="-0.375" /></g></g></g></g></g><g transform="matrix(1.0, 0.0, 0.0, 1.0, 2.0, 0.0)"><g><g><g><g><g /><g transform="matrix(0.9999811246350632, -0.006144133266319712, 0.006144133266319712, 0.9999811246350632, 0.0, 0.0)"><g style="stroke: #ff9700;stroke-width: 0.1536;" transform="matrix(1.0, 0.0, 0.0, 1.0, 0.0, 0.0)"><rect height="0.75" style="vector-effect: non-scaling-stroke;" width="0.75" x="-0.375" y="-0.375" /></g></g></g><g transform="matrix(0.9977267479724935, 0.0673894381949609, -0.0673894381949609, 0.9977267479724935, 0.0, 0.0)"><g style="stroke: #005fdb;stroke-width: 0.1536;" transform="matrix(1.0, 0.0, 0.0, 1.0, 0.0, 0.0)"><rect height="0.75" style="vector-effect: non-scaling-stroke;" width="0.75" x="-0.375" y="-0.375" /></g></g></g><g transform="matrix(0.9938634349946825, 0.1106140704457182, -0.1106140704457182, 0.9938634349946825, 0.0, 0.0)"><g style="stroke: #005fdb;stroke-width: 0.1536;" transform="matrix(1.0, 0.0, 0.0, 1.0, 0.0, 0.0)"><rect height="0.75" style="vector-effect: non-scaling-stroke;" width="0.75" x="-0.375" y="-0.375" /></g></g></g><g transform="matrix(0.9945717750440878, 0.10405279566476047, -0.10405279566476047, 0.9945717750440878, 0.0, 0.0)"><g style="stroke: #005fdb;stroke-width: 0.1536;" transform="matrix(1.0, 0.0, 0.0, 1.0, 0.0, 0.0)"><rect height="0.75" style="vector-effect: non-scaling-stroke;" width="0.75" x="-0.375" y="-0.375" /></g></g></g></g></g><g transform="matrix(1.0, 0.0, 0.0, 1.0, 2.0, 1.0)"><g><g><g><g><g /><g transform="matrix(0.9999435123340288, 0.010628835358869718, -0.010628835358869718, 0.9999435123340288, 0.0, 0.0)"><g style="stroke: #ff9700;stroke-width: 0.1536;" transform="matrix(1.0, 0.0, 0.0, 1.0, 0.0, 0.0)"><rect height="0.75" style="vector-effect: non-scaling-stroke;" width="0.75" x="-0.375" y="-0.375" /></g></g></g><g transform="matrix(0.9985561888646837, 0.053717200969878, -0.053717200969878, 0.9985561888646837, 0.0, 0.0)"><g style="stroke: #ff9700;stroke-width: 0.1536;" transform="matrix(1.0, 0.0, 0.0, 1.0, 0.0, 0.0)"><rect height="0.75" style="vector-effect: non-scaling-stroke;" width="0.75" x="-0.375" y="-0.375" /></g></g></g><g transform="matrix(0.9966738542499219, 0.0814937313822685, -0.0814937313822685, 0.9966738542499219, 0.0, 0.0)"><g style="stroke: #005fdb;stroke-width: 0.1536;" transform="matrix(1.0, 0.0, 0.0, 1.0, 0.0, 0.0)"><rect height="0.75" style="vector-effect: non-scaling-stroke;" width="0.75" x="-0.375" y="-0.375" /></g></g></g><g transform="matrix(0.9946568175918625, 0.1032366951138415, -0.1032366951138415, 0.9946568175918625, 0.0, 0.0)"><g style="stroke: #ff9700;stroke-width: 0.1536;" transform="matrix(1.0, 0.0, 0.0, 1.0, 0.0, 0.0)"><rect height="0.75" style="vector-effect: non-scaling-stroke;" width="0.75" x="-0.375" y="-0.375" /></g></g></g></g></g><g transform="matrix(1.0, 0.0, 0.0, 1.0, 2.0, 2.0)"><g><g><g><g><g /><g transform="matrix(0.9930756902106769, 0.11747626786967569, -0.11747626786967569, 0.9930756902106769, 0.0, 0.0)"><g style="stroke: #ff9700;stroke-width: 0.1536;" transform="matrix(1.0, 0.0, 0.0, 1.0, 0.0, 0.0)"><rect height="0.75" style="vector-effect: non-scaling-stroke;" width="0.75" x="-0.375" y="-0.375" /></g></g></g><g transform="matrix(0.9999162463893527, -0.012942187088250843, 0.012942187088250843, 0.9999162463893527, 0.0, 0.0)"><g style="stroke: #ff9700;stroke-width: 0.1536;" transform="matrix(1.0, 0.0, 0.0, 1.0, 0.0, 0.0)"><rect height="0.75" style="vector-effect: non-scaling-stroke;" width="0.75" x="-0.375" y="-0.375" /></g></g></g><g transform="matrix(0.9915722614632073, 0.1295548157991078, -0.1295548157991078, 0.9915722614632073, 0.0, 0.0)"><g style="stroke: #005fdb;stroke-width: 0.1536;" transform="matrix(1.0, 0.0, 0.0, 1.0, 0.0, 0.0)"><rect height="0.75" style="vector-effect: non-scaling-stroke;" width="0.75" x="-0.375" y="-0.375" /></g></g></g><g transform="matrix(0.997052917909795, 0.07671687485529899, -0.07671687485529899, 0.997052917909795, 0.0, 0.0)"><g style="stroke: #ff9700;stroke-width: 0.1536;" transform="matrix(1.0, 0.0, 0.0, 1.0, 0.0, 0.0)"><rect height="0.75" style="vector-effect: non-scaling-stroke;" width="0.75" x="-0.375" y="-0.375" /></g></g></g></g></g><g transform="matrix(1.0, 0.0, 0.0, 1.0, 2.0, 3.0)"><g><g><g><g><g /><g transform="matrix(0.999564123154372, 0.02952225774955962, -0.02952225774955962, 0.999564123154372, 0.0, 0.0)"><g style="stroke: #ff9700;stroke-width: 0.1536;" transform="matrix(1.0, 0.0, 0.0, 1.0, 0.0, 0.0)"><rect height="0.75" style="vector-effect: non-scaling-stroke;" width="0.75" x="-0.375" y="-0.375" /></g></g></g><g transform="matrix(0.9994195887297297, 0.03406590176845476, -0.03406590176845476, 0.9994195887297297, 0.0, 0.0)"><g style="stroke: #005fdb;stroke-width: 0.1536;" transform="matrix(1.0, 0.0, 0.0, 1.0, 0.0, 0.0)"><rect height="0.75" style="vector-effect: non-scaling-stroke;" width="0.75" x="-0.375" y="-0.375" /></g></g></g><g transform="matrix(0.9977380171517855, -0.06722238563174815, 0.06722238563174815, 0.9977380171517855, 0.0, 0.0)"><g style="stroke: #ff9700;stroke-width: 0.1536;" transform="matrix(1.0, 0.0, 0.0, 1.0, 0.0, 0.0)"><rect height="0.75" style="vector-effect: non-scaling-stroke;" width="0.75" x="-0.375" y="-0.375" /></g></g></g><g transform="matrix(0.9949807762522832, -0.10006625249505427, 0.10006625249505427, 0.9949807762522832, 0.0, 0.0)"><g style="stroke: #ff9700;stroke-width: 0.1536;" transform="matrix(1.0, 0.0, 0.0, 1.0, 0.0, 0.0)"><rect height="0.75" style="vector-effect: non-scaling-stroke;" width="0.75" x="-0.375" y="-0.375" /></g></g></g></g></g><g transform="matrix(1.0, 0.0, 0.0, 1.0, 3.0, 0.0)"><g><g><g><g><g /><g transform="matrix(0.9970275998899828, 0.07704521437195466, -0.07704521437195466, 0.9970275998899828, 0.0, 0.0)"><g style="stroke: #ff9700;stroke-width: 0.1536;" transform="matrix(1.0, 0.0, 0.0, 1.0, 0.0, 0.0)"><rect height="0.75" style="vector-effect: non-scaling-stroke;" width="0.75" x="-0.375" y="-0.375" /></g></g></g><g transform="matrix(0.9965818198548948, 0.08261159927459379, -0.08261159927459379, 0.9965818198548948, 0.0, 0.0)"><g style="stroke: #ff9700;stroke-width: 0.1536;" transform="matrix(1.0, 0.0, 0.0, 1.0, 0.0, 0.0)"><rect height="0.75" style="vector-effect: non-scaling-stroke;" width="0.75" x="-0.375" y="-0.375" /></g></g></g><g transform="matrix(0.9957172424157782, -0.09245092295871622, 0.09245092295871622, 0.9957172424157782, 0.0, 0.0)"><g style="stroke: #ff9700;stroke-width: 0.1536;" transform="matrix(1.0, 0.0, 0.0, 1.0, 0.0, 0.0)"><rect height="0.75" style="vector-effect: non-scaling-stroke;" width="0.75" x="-0.375" y="-0.375" /></g></g></g><g transform="matrix(0.9929210304483389, -0.11877637514846517, 0.11877637514846517, 0.9929210304483389, 0.0, 0.0)"><g style="stroke: #ff9700;stroke-width: 0.1536;" transform="matrix(1.0, 0.0, 0.0, 1.0, 0.0, 0.0)"><rect height="0.75" style="vector-effect: non-scaling-stroke;" width="0.75" x="-0.375" y="-0.375" /></g></g></g></g></g><g transform="matrix(1.0, 0.0, 0.0, 1.0, 3.0, 1.0)"><g><g><g><g><g /><g transform="matrix(0.9942443834596594, 0.10713592282200145, -0.10713592282200145, 0.9942443834596594, 0.0, 0.0)"><g style="stroke: #ff9700;stroke-width: 0.1536;" transform="matrix(1.0, 0.0, 0.0, 1.0, 0.0, 0.0)"><rect height="0.75" style="vector-effect: non-scaling-stroke;" width="0.75" x="-0.375" y="-0.375" /></g></g></g><g transform="matrix(0.9988825976391046, 0.04726051347324347, -0.04726051347324347, 0.9988825976391046, 0.0, 0.0)"><g style="stroke: #ff9700;stroke-width: 0.1536;" transform="matrix(1.0, 0.0, 0.0, 1.0, 0.0, 0.0)"><rect height="0.75" style="vector-effect: non-scaling-stroke;" width="0.75" x="-0.375" y="-0.375" /></g></g></g><g transform="matrix(0.9993755049399003, 0.035335536307225295, -0.035335536307225295, 0.9993755049399003, 0.0, 0.0)"><g style="stroke: #ff9700;stroke-width: 0.1536;" transform="matrix(1.0, 0.0, 0.0, 1.0, 0.0, 0.0)"><rect height="0.75" style="vector-effect: non-scaling-stroke;" width="0.75" x="-0.375" y="-0.375" /></g></g></g><g transform="matrix(0.9998023111303006, 0.019883124968415284, -0.019883124968415284, 0.9998023111303006, 0.0, 0.0)"><g style="stroke: #ff9700;stroke-width: 0.1536;" transform="matrix(1.0, 0.0, 0.0, 1.0, 0.0, 0.0)"><rect height="0.75" style="vector-effect: non-scaling-stroke;" width="0.75" x="-0.375" y="-0.375" /></g></g></g></g></g><g transform="matrix(1.0, 0.0, 0.0, 1.0, 3.0, 2.0)"><g><g><g><g><g /><g transform="matrix(0.9994221479969719, -0.033990735401262545, 0.033990735401262545, 0.9994221479969719, 0.0, 0.0)"><g style="stroke: #005fdb;stroke-width: 0.1536;" transform="matrix(1.0, 0.0, 0.0, 1.0, 0.0, 0.0)"><rect height="0.75" style="vector-effect: non-scaling-stroke;" width="0.75" x="-0.375" y="-0.375" /></g></g></g><g transform="matrix(0.9926434223441314, -0.12107450630471495, 0.12107450630471495, 0.9926434223441314, 0.0, 0.0)"><g style="stroke: #ff9700;stroke-width: 0.1536;" transform="matrix(1.0, 0.0, 0.0, 1.0, 0.0, 0.0)"><rect height="0.75" style="vector-effect: non-scaling-stroke;" width="0.75" x="-0.375" y="-0.375" /></g></g></g><g transform="matrix(0.9927248701777455, 0.1204048675535101, -0.1204048675535101, 0.9927248701777455, 0.0, 0.0)"><g style="stroke: #ff9700;stroke-width: 0.1536;" transform="matrix(1.0, 0.0, 0.0, 1.0, 0.0, 0.0)"><rect height="0.75" style="vector-effect: non-scaling-stroke;" width="0.75" x="-0.375" y="-0.375" /></g></g></g><g transform="matrix(0.995156334047672, -0.09830498870758468, 0.09830498870758468, 0.995156334047672, 0.0, 0.0)"><g style="stroke: #ff9700;stroke-width: 0.1536;" transform="matrix(1.0, 0.0, 0.0, 1.0, 0.0, 0.0)"><rect height="0.75" style="vector-effect: non-scaling-stroke;" width="0.75" x="-0.375" y="-0.375" /></g></g></g></g></g><g transform="matrix(1.0, 0.0, 0.0, 1.0, 3.0, 3.0)"><g><g><g><g><g /><g transform="matrix(0.9969019793189662, 0.0786539485971786, -0.0786539485971786, 0.9969019793189662, 0.0, 0.0)"><g style="stroke: #005fdb;stroke-width: 0.1536;" transform="matrix(1.0, 0.0, 0.0, 1.0, 0.0, 0.0)"><rect height="0.75" style="vector-effect: non-scaling-stroke;" width="0.75" x="-0.375" y="-0.375" /></g></g></g><g transform="matrix(0.9922057403882849, -0.12461046802149203, 0.12461046802149203, 0.9922057403882849, 0.0, 0.0)"><g style="stroke: #ff9700;stroke-width: 0.1536;" transform="matrix(1.0, 0.0, 0.0, 1.0, 0.0, 0.0)"><rect height="0.75" style="vector-effect: non-scaling-stroke;" width="0.75" x="-0.375" y="-0.375" /></g></g></g><g transform="matrix(0.9945628728957169, -0.10413785026309168, 0.10413785026309168, 0.9945628728957169, 0.0, 0.0)"><g style="stroke: #ff9700;stroke-width: 0.1536;" transform="matrix(1.0, 0.0, 0.0, 1.0, 0.0, 0.0)"><rect height="0.75" style="vector-effect: non-scaling-stroke;" width="0.75" x="-0.375" y="-0.375" /></g></g></g><g transform="matrix(0.9973303539328453, -0.07302167571471872, 0.07302167571471872, 0.9973303539328453, 0.0, 0.0)"><g style="stroke: #ff9700;stroke-width: 0.1536;" transform="matrix(1.0, 0.0, 0.0, 1.0, 0.0, 0.0)"><rect height="0.75" style="vector-effect: non-scaling-stroke;" width="0.75" x="-0.375" y="-0.375" /></g></g></g></g></g></g><g /></g></g></g></g></svg>