<?xml version="1.0" encoding="utf-8" ?>
<svg baseProfile="full" height="256" version="1.1" width="256" xmlns="http://www.w3.org/2000/svg" xmlns:ev="http://www.w3.org/2001/xml-events" xmlns:xlink="http://www.w3.org/1999/xlink"><defs><marker id="arrow" markerHeight="3.5" markerWidth="5" orient="auto" refX="5.0" refY="1.7"><polygon points="0,0 5,1.75 0,3.5" /></marker></defs><g style="fill:white; stroke: black; stroke-width: 0.01;" transform="scale(63.0) translate(0.44167466134736133 0.43773085345374163)"><g><g><g><g><g><g><g><g><g><g><g><g><g><g><g><g><g /><g transform="translate(0 0)"><g><g><g><g><g /><g transform="rotate(6.121693277930027)"><g style="stroke: #ff9700;stroke-width: 0.02;" transform="scale(1)"><rect height="0.75" width="0.75" x="-0.375" y="-0.375" /></g></g></g><g transform="rotate(-3.2724323340044426)"><g style="stroke: #005fdb;stroke-width: 0.02;" transform="scale(1)"><rect height="0.75" width="0.75" x="-0.375" y="-0.375" /></g></g></g><g transform="rotate(1.7755349501299742)"><g style="stroke: #ff9700;stroke-width: 0.02;" transform="scale(1)"><rect height="0.75" width="0.75" x="-0.375" y="-0.375" /></g></g></g><g transform="rotate(6.146193839523602)"><g style="stroke: #005fdb;stroke-width: 0.02;" transform="scale(1)"><rect height="0.75" width="0.75" x="-0.375" y="-0.375" /></g></g></g></g></g><g transform="translate(0 1)"><g><g><g><g><g /><g transform="rotate(4.653258539948843)"><g style="stroke: #005fdb;stroke-width: 0.02;" transform="scale(1)"><rect height="0.75" width="0.75" x="-0.375" y="-0.375" /></g></g></g><g transform="rotate(-2.8477864602100103)"><g style="stroke: #ff9700;stroke-width: 0.02;" transform="scale(1)"><rect height="0.75" width="0.75" x="-0.375" y="-0.375" /></g></g></g><g transform="rotate(5.982574319519902)"><g style="stroke: #ff9700;stroke-width: 0.02;" transform="scale(1)"><rect height="0.75" width="0.75" x="-0.375" y="-0.375" /></g></g></g><g transform="rotate(-0.4178592682092996)"><g style="stroke: #ff9700;stroke-width: 0.02;" transform="scale(1)"><rect height="0.75" width="0.75" x="-0.375" y="-0.375" /></g></g></g></g></g><g transform="translate(0 2)"><g><g><g><g><g /><g transform="rotate(-0.9874224681932449)"><g style="stroke: #ff9700;stroke-width: 0.02;" transform="scale(1)"><rect height="0.75" width="0.75" x="-0.375" y="-0.375" /></g></g></g><g transform="rotate(6.195165798568473)"><g style="stroke: #005fdb;stroke-width: 0.02;" transform="scale(1)"><rect height="0.75" width="0.75" x="-0.375" y="-0.375" /></g></g></g><g transform="rotate(-0.3448533517092441)"><g style="stroke: #005fdb;stroke-width: 0.02;" transform="scale(1)"><rect height="0.75" width="0.75" x="-0.375" y="-0.375" /></g></g></g><g transform="rotate(-3.5926153441206083)"><g style="stroke: #005fdb;stroke-width: 0.02;" transform="scale(1)"><rect height="0.75" width="0.75" x="-0.375" y="-0.375" /></g></g></g></g></g><g transform="translate(0 3)"><g><g><g><g><g /><g transform="rotate(0.73048955753384)"><g style="stroke: #ff9700;stroke-width: 0.02;" transform="scale(1)"><rect height="0.75" width="0.75" x="-0.375" y="-0.375" /></g></g></g><g transform="rotate(3.2955702960593123)"><g style="stroke: #ff9700;stroke-width: 0.02;" transform="scale(1)"><rect height="0.75" width="0.75" x="-0.375" y="-0.375" /></g></g></g><g transform="rotate(4.872674657223495)"><g style="stroke: #ff9700;stroke-width: 0.02;" transform="scale(1)"><rect height="0.75" width="0.75" x="-0.375" y="-0.375" /></g></g></g><g transform="rotate(-7.482857710283575)"><g style="stroke: #ff9700;stroke-width: 0.02;" transform="scale(1)"><rect height="0.75" width="0.75" x="-0.375" y="-0.375" /></g></g></g></g></g><g transform="translate(1 0)"><g><g><g><g><g /><g transform="rotate(5.514041632391713)"><g style="stroke: #ff9700;stroke-width: 0.02;" transform="scale(1)"><rect height="0.75" width="0.75" x="-0.375" y="-0.375" /></g></g></g><g transform="rotate(-2.621934558789149)"><g style="stroke: #005fdb;stroke-width: 0.02;" transform="scale(1)"><rect height="0.75" width="0.75" x="-0.375" y="-0.375" /></g></g></g><g transform="rotate(-4.633993627464141)"><g style="stroke: #ff9700;stroke-width: 0.02;" transform="scale(1)"><rect height="0.75" width="0.75" x="-0.375" y="-0.375" /></g></g></g><g transform="rotate(-3.9207610707716976)"><g style="stroke: #005fdb;stroke-width: 0.02;" transform="scale(1)"><rect height="0.75" width="0.75" x="-0.375" y="-0.375" /></g></g></g></g></g><g transform="translate(1 1)"><g><g><g><g><g /><g transform="rotate(4.547692039198051)"><g style="stroke: #ff9700;stroke-width: 0.02;" transform="scale(1)"><rect height="0.75" width="0.75" x="-0.375" y="-0.375" /></g></g></g><g transform="rotate(-6.293312721711968)"><g style="stroke: #ff9700;stroke-width: 0.02;" transform="scale(1)"><rect height="0.75" width="0.75" x="-0.375" y="-0.375" /></g></g></g><g transform="rotate(0.11910963780860817)"><g style="stroke: #005fdb;stroke-width: 0.02;" transform="scale(1)"><rect height="0.75" width="0.75" x="-0.375" y="-0.375" /></g></g></g><g transform="rotate(-5.864132311033444)"><g style="stroke: #ff9700;stroke-width: 0.02;" transform="scale(1)"><rect height="0.75" width="0.75" x="-0.375" y="-0.375" /></g></g></g></g></g><g transform="translate(1 2)"><g><g><g><g><g /><g transform="rotate(3.0984211480033443)"><g style="stroke: #ff9700;stroke-width: 0.02;" transform="scale(1)"><rect height="0.75" width="0.75" x="-0.375" y="-0.375" /></g></g></g><g transform="rotate(4.717002949370039)"><g style="stroke: #ff9700;stroke-width: 0.02;" transform="scale(1)"><rect height="0.75" width="0.75" x="-0.375" y="-0.375" /></g></g></g><g transform="rotate(6.957578189607013)"><g style="stroke: #ff9700;stroke-width: 0.02;" transform="scale(1)"><rect height="0.75" width="0.75" x="-0.375" y="-0.375" /></g></g></g><g transform="rotate(1.3142559626315449)"><g style="stroke: #ff9700;stroke-width: 0.02;" transform="scale(1)"><rect height="0.75" width="0.75" x="-0.375" y="-0.375" /></g></g></g></g></g><g transform="translate(1 3)"><g><g><g><g><g /><g transform="rotate(1.4443029237465934)"><g style="stroke: #ff9700;stroke-width: 0.02;" transform="scale(1)"><rect height="0.75" width="0.75" x="-0.375" y="-0.375" /></g></g></g><g transform="rotate(1.134765212473327)"><g style="stroke: #ff9700;stroke-width: 0.02;" transform="scale(1)"><rect height="0.75" width="0.75" x="-0.375" y="-0.375" /></g></g></g><g transform="rotate(-4.6591300716846575)"><g style="stroke: #ff9700;stroke-width: 0.02;" transform="scale(1)"><rect height="0.75" width="0.75" x="-0.375" y="-0.375" /></g></g></g><g transform="rotate(1.6915976980290994)"><g style="stroke: #ff9700;stroke-width: 0.02;" transform="scale(1)"><rect height="0.75" width="0.75" x="-0.375" y="-0.375" /></g></g></g></g></g><g transform="translate(2 0)"><g><g><g><g><g /><g transform="rotate(-0.35203511985928837)"><g style="stroke: #ff9700;stroke-width: 0.02;" transform="scale(1)"><rect height="0.75" width="0.75" x="-0.375" y="-0.375" /></g></g></g><g transform="rotate(3.8640588294965514)"><g style="stroke: #005fdb;stroke-width: 0.02;" transform="scale(1)"><rect height="0.75" width="0.75" x="-0.375" y="-0.375" /></g></g></g><g transform="rotate(6.3507152391942086)"><g style="stroke: #005fdb;stroke-width: 0.02;" transform="scale(1)"><rect height="0.75" width="0.75" x="-0.375" y="-0.375" /></g></g></g><g transform="rotate(5.972596820368183)"><g style="stroke: #005fdb;stroke-width: 0.02;" transform="scale(1)"><rect height="0.75" width="0.75" x="-0.375" y="-0.375" /></g></g></g></g></g><g transform="translate(2 1)"><g><g><g><g><g /><g transform="rotate(0.6089988742208166)"><g style="stroke: #ff9700;stroke-width: 0.02;" transform="scale(1)"><rect height="0.75" width="0.75" x="-0.375" y="-0.375" /></g></g></g><g transform="rotate(3.079250997816093)"><g style="stroke: #ff9700;stroke-width: 0.02;" transform="scale(1)"><rect height="0.75" width="0.75" x="-0.375" y="-0.375" /></g></g></g><g transform="rotate(4.674430627618178)"><g style="stroke: #005fdb;stroke-width: 0.02;" transform="scale(1)"><rect height="0.75" width="0.75" x="-0.375" y="-0.375" /></g></g></g><g transform="rotate(5.925584511400128)"><g style="stroke: #ff9700;stroke-width: 0.02;" transform="scale(1)"><rect height="0.75" width="0.75" x="-0.375" y="-0.375" /></g></g></g></g></g><g transform="translate(2 2)"><g><g><g><g><g /><g transform="rotate(6.7464730984818075)"><g style="stroke: #ff9700;stroke-width: 0.02;" transform="scale(1)"><rect height="0.75" width="0.75" x="-0.375" y="-0.375" /></g></g></g><g transform="rotate(-0.741553400532672)"><g style="stroke: #ff9700;stroke-width: 0.02;" transform="scale(1)"><rect height="0.75" width="0.75" x="-0.375" y="-0.375" /></g></g></g><g transform="rotate(7.44386759030359)"><g style="stroke: #005fdb;stroke-width: 0.02;" transform="scale(1)"><rect height="0.75" width="0.75" x="-0.375" y="-0.375" /></g></g></g><g transform="rotate(4.399876261953363)"><g style="stroke: #ff9700;stroke-width: 0.02;" transform="scale(1)"><rect height="0.75" width="0.75" x="-0.375" y="-0.375" /></g></g></g></g></g><g transform="translate(2 3)"><g><g><g><g><g /><g transform="rotate(1.6917465756106829)"><g style="stroke: #ff9700;stroke-width: 0.02;" transform="scale(1)"><rect height="0.75" width="0.75" x="-0.375" y="-0.375" /></g></g></g><g transform="rotate(1.9522101061720925)"><g style="stroke: #005fdb;stroke-width: 0.02;" transform="scale(1)"><rect height="0.75" width="0.75" x="-0.375" y="-0.375" /></g></g></g><g transform="rotate(-3.854465669072156)"><g style="stroke: #ff9700;stroke-width: 0.02;" transform="scale(1)"><rect height="0.75" width="0.75" x="-0.375" y="-0.375" /></g></g></g><g transform="rotate(-5.74298560187223)"><g style="stroke: #ff9700;stroke-width: 0.02;" transform="scale(1)"><rect height="0.75" width="0.75" x="-0.375" y="-0.375" /></g></g></g></g></g><g transform="translate(3 0)"><g><g><g><g><g /><g transform="rotate(4.418744575658637)"><g style="stroke: #ff9700;stroke-width: 0.02;" transform="scale(1)"><rect height="0.75" width="0.75" x="-0.375" y="-0.375" /></g></g></g><g transform="rotate(4.738696448004893)"><g style="stroke: #ff9700;stroke-width: 0.02;" transform="scale(1)"><rect height="0.75" width="0.75" x="-0.375" y="-0.375" /></g></g></g><g transform="rotate(-5.304622666315442)"><g style="stroke: #ff9700;stroke-width: 0.02;" transform="scale(1)"><rect height="0.75" width="0.75" x="-0.375" y="-0.375" /></g></g></g><g transform="rotate(-6.821488982015815)"><g style="stroke: #ff9700;stroke-width: 0.02;" transform="scale(1)"><rect height="0.75" width="0.75" x="-0.375" y="-0.375" /></g></g></g></g></g><g transform="translate(3 1)"><g><g><g><g><g /><g transform="rotate(6.150240220485595)"><g style="stroke: #ff9700;stroke-width: 0.02;" transform="scale(1)"><rect height="0.75" width="0.75" x="-0.375" y="-0.375" /></g></g></g><g transform="rotate(2.708836988433847)"><g style="stroke: #ff9700;stroke-width: 0.02;" transform="scale(1)"><rect height="0.75" width="0.75" x="-0.375" y="-0.375" /></g></g></g><g transform="rotate(2.0249986486718736)"><g style="stroke: #ff9700;stroke-width: 0.02;" transform="scale(1)"><rect height="0.75" width="0.75" x="-0.375" y="-0.375" /></g></g></g><g transform="rotate(1.1392942204731102)"><g style="stroke: #ff9700;stroke-width: 0.02;" transform="scale(1)"><rect height="0.75" width="0.75" x="-0.375" y="-0.375" /></g></g></g></g></g><g transform="translate(3 2)"><g><g><g><g><g /><g transform="rotate(-1.9479008949721874)"><g style="stroke: #005fdb;stroke-width: 0.02;" transform="scale(1)"><rect height="0.75" width="0.75" x="-0.375" y="-0.375" /></g></g></g><g transform="rotate(-6.954119435827713)"><g style="stroke: #ff9700;stroke-width: 0.02;" transform="scale(1)"><rect height="0.75" width="0.75" x="-0.375" y="-0.375" /></g></g></g><g transform="rotate(6.915469203594167)"><g style="stroke: #ff9700;stroke-width: 0.02;" transform="scale(1)"><rect height="0.75" width="0.75" x="-0.375" y="-0.375" /></g></g></g><g transform="rotate(-5.641572533633524)"><g style="stroke: #ff9700;stroke-width: 0.02;" transform="scale(1)"><rect height="0.75" width="0.75" x="-0.375" y="-0.375" /></g></g></g></g></g><g transform="translate(3 3)"><g><g><g><g><g /><g transform="rotate(4.511198855312713)"><g style="stroke: #005fdb;stroke-width: 0.02;" transform="scale(1)"><rect height="0.75" width="0.75" x="-0.375" y="-0.375" /></g></g></g><g transform="rotate(-7.158261364970124)"><g style="stroke: #ff9700;stroke-width: 0.02;" transform="scale(1)"><rect height="0.75" width="0.75" x="-0.375" y="-0.375" /></g></g></g><g transform="rotate(-5.977496709387452)"><g style="stroke: #ff9700;stroke-width: 0.02;" transform="scale(1)"><rect height="0.75" width="0.75" x="-0.375" y="-0.375" /></g></g></g><g transform="rotate(-4.18756093025524)"><g style="stroke: #ff9700;stroke-width: 0.02;" transform="scale(1)"><rect height="0.75" width="0.75" x="-0.375" y="-0.375" /></g></g></g></g></g></g></svg>