<?xml version="1.0" encoding="utf-8" ?>
<svg baseProfile="full" height="100%" version="1.1" width="100%" xmlns="http://www.w3.org/2000/svg" xmlns:ev="http://www.w3.org/2001/xml-events" xmlns:xlink="http://www.w3.org/1999/xlink"><defs><marker id="arrow" markerHeight="3.5" markerWidth="5" orient="auto" refX="5.0" refY="1.7"><polygon points="0,0 5,1.75 0,3.5" /></marker></defs><g style="fill:white; stroke: black; stroke-width: 0.01;" transform="scale(63.0 63.0) translate(0.4402925792567058 0.43594728492704343)"><g style="stroke-width: 0.02;"><g><g><g><g><g><g><g><g><g><g><g><g><g><g><g><g><g /><g transform="translate(0 0)"><g><g><g><g><g /><g transform="rotate(2.6279662179097705)"><g style="stroke: #ff9700;"><g style=";" transform="scale(1)"><rect height="0.75" width="0.75" x="-0.375" y="-0.375" /></g></g></g></g><g transform="rotate(3.013913180949935)"><g style="stroke: #005fdb;"><g style=";" transform="scale(1)"><rect height="0.75" width="0.75" x="-0.375" y="-0.375" /></g></g></g></g><g transform="rotate(3.6970865107139375)"><g style="stroke: #ff9700;"><g style=";" transform="scale(1)"><rect height="0.75" width="0.75" x="-0.375" y="-0.375" /></g></g></g></g><g transform="rotate(-0.9055599395577486)"><g style="stroke: #ff9700;"><g style=";" transform="scale(1)"><rect height="0.75" width="0.75" x="-0.375" y="-0.375" /></g></g></g></g></g></g><g transform="translate(0 1)"><g><g><g><g><g /><g transform="rotate(-3.0868712809474457)"><g style="stroke: #ff9700;"><g style=";" transform="scale(1)"><rect height="0.75" width="0.75" x="-0.375" y="-0.375" /></g></g></g></g><g transform="rotate(-2.1087685232710247)"><g style="stroke: #ff9700;"><g style=";" transform="scale(1)"><rect height="0.75" width="0.75" x="-0.375" y="-0.375" /></g></g></g></g><g transform="rotate(4.2573806459421855)"><g style="stroke: #ff9700;"><g style=";" transform="scale(1)"><rect height="0.75" width="0.75" x="-0.375" y="-0.375" /></g></g></g></g><g transform="rotate(-7.232743258709851)"><g style="stroke: #ff9700;"><g style=";" transform="scale(1)"><rect height="0.75" width="0.75" x="-0.375" y="-0.375" /></g></g></g></g></g></g><g transform="translate(0 2)"><g><g><g><g><g /><g transform="rotate(7.249964071249513)"><g style="stroke: #ff9700;"><g style=";" transform="scale(1)"><rect height="0.75" width="0.75" x="-0.375" y="-0.375" /></g></g></g></g><g transform="rotate(-0.1917118889103768)"><g style="stroke: #ff9700;"><g style=";" transform="scale(1)"><rect height="0.75" width="0.75" x="-0.375" y="-0.375" /></g></g></g></g><g transform="rotate(4.264853372420962)"><g style="stroke: #ff9700;"><g style=";" transform="scale(1)"><rect height="0.75" width="0.75" x="-0.375" y="-0.375" /></g></g></g></g><g transform="rotate(-1.8541694396301405)"><g style="stroke: #ff9700;"><g style=";" transform="scale(1)"><rect height="0.75" width="0.75" x="-0.375" y="-0.375" /></g></g></g></g></g></g><g transform="translate(0 3)"><g><g><g><g><g /><g transform="rotate(6.546757501004095)"><g style="stroke: #ff9700;"><g style=";" transform="scale(1)"><rect height="0.75" width="0.75" x="-0.375" y="-0.375" /></g></g></g></g><g transform="rotate(5.381704211986899)"><g style="stroke: #ff9700;"><g style=";" transform="scale(1)"><rect height="0.75" width="0.75" x="-0.375" y="-0.375" /></g></g></g></g><g transform="rotate(-6.001716757378366)"><g style="stroke: #ff9700;"><g style=";" transform="scale(1)"><rect height="0.75" width="0.75" x="-0.375" y="-0.375" /></g></g></g></g><g transform="rotate(-6.0903339699032175)"><g style="stroke: #005fdb;"><g style=";" transform="scale(1)"><rect height="0.75" width="0.75" x="-0.375" y="-0.375" /></g></g></g></g></g></g><g transform="translate(1 0)"><g><g><g><g><g /><g transform="rotate(5.7753558439115675)"><g style="stroke: #ff9700;"><g style=";" transform="scale(1)"><rect height="0.75" width="0.75" x="-0.375" y="-0.375" /></g></g></g></g><g transform="rotate(6.210856453243816)"><g style="stroke: #ff9700;"><g style=";" transform="scale(1)"><rect height="0.75" width="0.75" x="-0.375" y="-0.375" /></g></g></g></g><g transform="rotate(3.288998959312626)"><g style="stroke: #ff9700;"><g style=";" transform="scale(1)"><rect height="0.75" width="0.75" x="-0.375" y="-0.375" /></g></g></g></g><g transform="rotate(-6.525560688843817)"><g style="stroke: #005fdb;"><g style=";" transform="scale(1)"><rect height="0.75" width="0.75" x="-0.375" y="-0.375" /></g></g></g></g></g></g><g transform="translate(1 1)"><g><g><g><g><g /><g transform="rotate(2.5118884132888626)"><g style="stroke: #005fdb;"><g style=";" transform="scale(1)"><rect height="0.75" width="0.75" x="-0.375" y="-0.375" /></g></g></g></g><g transform="rotate(-7.291105382736965)"><g style="stroke: #005fdb;"><g style=";" transform="scale(1)"><rect height="0.75" width="0.75" x="-0.375" y="-0.375" /></g></g></g></g><g transform="rotate(3.522305250690273)"><g style="stroke: #005fdb;"><g style=";" transform="scale(1)"><rect height="0.75" width="0.75" x="-0.375" y="-0.375" /></g></g></g></g><g transform="rotate(6.940796346437187)"><g style="stroke: #005fdb;"><g style=";" transform="scale(1)"><rect height="0.75" width="0.75" x="-0.375" y="-0.375" /></g></g></g></g></g></g><g transform="translate(1 2)"><g><g><g><g><g /><g transform="rotate(2.880566764043662)"><g style="stroke: #ff9700;"><g style=";" transform="scale(1)"><rect height="0.75" width="0.75" x="-0.375" y="-0.375" /></g></g></g></g><g transform="rotate(1.8291235715434113)"><g style="stroke: #005fdb;"><g style=";" transform="scale(1)"><rect height="0.75" width="0.75" x="-0.375" y="-0.375" /></g></g></g></g><g transform="rotate(6.207094767244957)"><g style="stroke: #005fdb;"><g style=";" transform="scale(1)"><rect height="0.75" width="0.75" x="-0.375" y="-0.375" /></g></g></g></g><g transform="rotate(5.701277446906731)"><g style="stroke: #ff9700;"><g style=";" transform="scale(1)"><rect height="0.75" width="0.75" x="-0.375" y="-0.375" /></g></g></g></g></g></g><g transform="translate(1 3)"><g><g><g><g><g /><g transform="rotate(5.256329310686665)"><g style="stroke: #ff9700;"><g style=";" transform="scale(1)"><rect height="0.75" width="0.75" x="-0.375" y="-0.375" /></g></g></g></g><g transform="rotate(2.818286387637675)"><g style="stroke: #ff9700;"><g style=";" transform="scale(1)"><rect height="0.75" width="0.75" x="-0.375" y="-0.375" /></g></g></g></g><g transform="rotate(4.213676036797894)"><g style="stroke: #005fdb;"><g style=";" transform="scale(1)"><rect height="0.75" width="0.75" x="-0.375" y="-0.375" /></g></g></g></g><g transform="rotate(-7.053922896215321)"><g style="stroke: #ff9700;"><g style=";" transform="scale(1)"><rect height="0.75" width="0.75" x="-0.375" y="-0.375" /></g></g></g></g></g></g><g transform="translate(2 0)"><g><g><g><g><g /><g transform="rotate(-1.2678536216067604)"><g style="stroke: #ff9700;"><g style=";" transform="scale(1)"><rect height="0.75" width="0.75" x="-0.375" y="-0.375" /></g></g></g></g><g transform="rotate(-2.152832219587416)"><g style="stroke: #005fdb;"><g style=";" transform="scale(1)"><rect height="0.75" width="0.75" x="-0.375" y="-0.375" /></g></g></g></g><g transform="rotate(-3.2224580771966966)"><g style="stroke: #ff9700;"><g style=";" transform="scale(1)"><rect height="0.75" width="0.75" x="-0.375" y="-0.375" /></g></g></g></g><g transform="rotate(1.9359026465843105)"><g style="stroke: #ff9700;"><g style=";" transform="scale(1)"><rect height="0.75" width="0.75" x="-0.375" y="-0.375" /></g></g></g></g></g></g><g transform="translate(2 1)"><g><g><g><g><g /><g transform="rotate(-6.8198057015068265)"><g style="stroke: #ff9700;"><g style=";" transform="scale(1)"><rect height="0.75" width="0.75" x="-0.375" y="-0.375" /></g></g></g></g><g transform="rotate(1.3111436914270427)"><g style="stroke: #ff9700;"><g style=";" transform="scale(1)"><rect height="0.75" width="0.75" x="-0.375" y="-0.375" /></g></g></g></g><g transform="rotate(-2.6621541797831054)"><g style="stroke: #ff9700;"><g style=";" transform="scale(1)"><rect height="0.75" width="0.75" x="-0.375" y="-0.375" /></g></g></g></g><g transform="rotate(-6.2715581020038105)"><g style="stroke: #005fdb;"><g style=";" transform="scale(1)"><rect height="0.75" width="0.75" x="-0.375" y="-0.375" /></g></g></g></g></g></g><g transform="translate(2 2)"><g><g><g><g><g /><g transform="rotate(-3.4664659954175194)"><g style="stroke: #ff9700;"><g style=";" transform="scale(1)"><rect height="0.75" width="0.75" x="-0.375" y="-0.375" /></g></g></g></g><g transform="rotate(1.4757880333864137)"><g style="stroke: #ff9700;"><g style=";" transform="scale(1)"><rect height="0.75" width="0.75" x="-0.375" y="-0.375" /></g></g></g></g><g transform="rotate(-3.8305938220525895)"><g style="stroke: #005fdb;"><g style=";" transform="scale(1)"><rect height="0.75" width="0.75" x="-0.375" y="-0.375" /></g></g></g></g><g transform="rotate(-6.904516516404091)"><g style="stroke: #ff9700;"><g style=";" transform="scale(1)"><rect height="0.75" width="0.75" x="-0.375" y="-0.375" /></g></g></g></g></g></g><g transform="translate(2 3)"><g><g><g><g><g /><g transform="rotate(-1.733781599639552)"><g style="stroke: #005fdb;"><g style=";" transform="scale(1)"><rect height="0.75" width="0.75" x="-0.375" y="-0.375" /></g></g></g></g><g transform="rotate(-7.155848570492944)"><g style="stroke: #ff9700;"><g style=";" transform="scale(1)"><rect height="0.75" width="0.75" x="-0.375" y="-0.375" /></g></g></g></g><g transform="rotate(5.071422066660189)"><g style="stroke: #ff9700;"><g style=";" transform="scale(1)"><rect height="0.75" width="0.75" x="-0.375" y="-0.375" /></g></g></g></g><g transform="rotate(-7.464390937717919)"><g style="stroke: #ff9700;"><g style=";" transform="scale(1)"><rect height="0.75" width="0.75" x="-0.375" y="-0.375" /></g></g></g></g></g></g><g transform="translate(3 0)"><g><g><g><g><g /><g transform="rotate(1.8808018813182008)"><g style="stroke: #ff9700;"><g style=";" transform="scale(1)"><rect height="0.75" width="0.75" x="-0.375" y="-0.375" /></g></g></g></g><g transform="rotate(-6.323252319883466)"><g style="stroke: #ff9700;"><g style=";" transform="scale(1)"><rect height="0.75" width="0.75" x="-0.375" y="-0.375" /></g></g></g></g><g transform="rotate(-5.862056385404927)"><g style="stroke: #ff9700;"><g style=";" transform="scale(1)"><rect height="0.75" width="0.75" x="-0.375" y="-0.375" /></g></g></g></g><g transform="rotate(2.3057021483904694)"><g style="stroke: #005fdb;"><g style=";" transform="scale(1)"><rect height="0.75" width="0.75" x="-0.375" y="-0.375" /></g></g></g></g></g></g><g transform="translate(3 1)"><g><g><g><g><g /><g transform="rotate(-1.5041886261877684)"><g style="stroke: #ff9700;"><g style=";" transform="scale(1)"><rect height="0.75" width="0.75" x="-0.375" y="-0.375" /></g></g></g></g><g transform="rotate(4.84080547537781)"><g style="stroke: #ff9700;"><g style=";" transform="scale(1)"><rect height="0.75" width="0.75" x="-0.375" y="-0.375" /></g></g></g></g><g transform="rotate(-1.6531880837261062)"><g style="stroke: #ff9700;"><g style=";" transform="scale(1)"><rect height="0.75" width="0.75" x="-0.375" y="-0.375" /></g></g></g></g><g transform="rotate(6.780180569890615)"><g style="stroke: #ff9700;"><g style=";" transform="scale(1)"><rect height="0.75" width="0.75" x="-0.375" y="-0.375" /></g></g></g></g></g></g><g transform="translate(3 2)"><g><g><g><g><g /><g transform="rotate(7.035421452120391)"><g style="stroke: #ff9700;"><g style=";" transform="scale(1)"><rect height="0.75" width="0.75" x="-0.375" y="-0.375" /></g></g></g></g><g transform="rotate(-7.397573024859621)"><g style="stroke: #005fdb;"><g style=";" transform="scale(1)"><rect height="0.75" width="0.75" x="-0.375" y="-0.375" /></g></g></g></g><g transform="rotate(6.877101553790045)"><g style="stroke: #005fdb;"><g style=";" transform="scale(1)"><rect height="0.75" width="0.75" x="-0.375" y="-0.375" /></g></g></g></g><g transform="rotate(4.458307491886103)"><g style="stroke: #ff9700;"><g style=";" transform="scale(1)"><rect height="0.75" width="0.75" x="-0.375" y="-0.375" /></g></g></g></g></g></g><g transform="translate(3 3)"><g><g><g><g><g /><g transform="rotate(-0.9857469839464528)"><g style="stroke: #ff9700;"><g style=";" transform="scale(1)"><rect height="0.75" width="0.75" x="-0.375" y="-0.375" /></g></g></g></g><g transform="rotate(2.837902431752919)"><g style="stroke: #ff9700;"><g style=";" transform="scale(1)"><rect height="0.75" width="0.75" x="-0.375" y="-0.375" /></g></g></g></g><g transform="rotate(7.255995255581469)"><g style="stroke: #ff9700;"><g style=";" transform="scale(1)"><rect height="0.75" width="0.75" x="-0.375" y="-0.375" /></g></g></g></g><g transform="rotate(-6.627888362890589)"><g style="stroke: #005fdb;"><g style=";" transform="scale(1)"><rect height="0.75" width="0.75" x="-0.375" y="-0.375" /></g></g></g></g></g></g></g></g></svg>