<?xml version="1.0" encoding="utf-8" ?>
<svg baseProfile="full" height="256" version="1.1" width="256" xmlns="http://www.w3.org/2000/svg" xmlns:ev="http://www.w3.org/2001/xml-events" xmlns:xlink="http://www.w3.org/1999/xlink"><defs><marker id="arrow" markerHeight="3.5" markerWidth="5" orient="auto" refX="5.0" refY="1.7"><polygon points="0,0 5,1.75 0,3.5" /></marker></defs><g style="fill:white;"><g transform="matrix(1.0, 0.0, 0.0, 1.0, 128.0, 127.99869027217777)"><g transform="matrix(64.9869215957152, 0.0, 0.0, 64.9869215957152, 0.0, 0.0)"><g><g transform="matrix(1.0, 0.0, 0.0, 1.0, -1.49998150181978, -1.500037692193416)"><g><g><g><g><g><g><g><g><g><g><g><g><g><g><g><g><g /><g transform="matrix(1.0, 0.0, 0.0, 1.0, 0.0, 0.0)"><g><g><g><g><g /><g style="stroke: #ff9700;stroke-width: 0.1536;" transform="matrix(0.9999982613087018, -0.0018647733302928776, 0.0018647733302928776, 0.9999982613087018, -0.375698637989623, -0.37430005799190336)"><path d="M 0.0 0.0 L 0.75 0.0 L 0.75 0.75 L 0.0 0.75 L 0.0 0.0 Z" style="vector-effect: non-scaling-stroke;" /></g></g><g style="stroke: #005fdb;stroke-width: 0.1536;" transform="matrix(0.999999503155154, 0.0009968397289196551, -0.0009968397289196551, 0.999999503155154, -0.3746259987848379, -0.3753736285815276)"><path d="M 0.0 0.0 L 0.75 0.0 L 0.75 0.75 L 0.0 0.75 L 0.0 0.0 Z" style="vector-effect: non-scaling-stroke;" /></g></g><g style="stroke: #ff9700;stroke-width: 0.1536;" transform="matrix(0.9999998537358421, -0.0005408588488802921, 0.0005408588488802921, 0.9999998537358421, -0.3752027672192709, -0.3747971230826107)"><path d="M 0.0 0.0 L 0.75 0.0 L 0.75 0.75 L 0.0 0.75 L 0.0 0.0 Z" style="vector-effect: non-scaling-stroke;" /></g></g><g style="stroke: #005fdb;stroke-width: 0.1536;" transform="matrix(0.9999982473634926, -0.0018722366151204624, 0.0018722366151204624, 0.9999982473634926, -0.37570143149197993, -0.37429725403063957)"><path d="M 0.0 0.0 L 0.75 0.0 L 0.75 0.75 L 0.0 0.75 L 0.0 0.0 Z" style="vector-effect: non-scaling-stroke;" /></g></g></g></g><g transform="matrix(1.0, 0.0, 0.0, 1.0, 0.0, 1.0)"><g><g><g><g><g /><g style="stroke: #005fdb;stroke-width: 0.1536;" transform="matrix(0.9999989953986254, -0.0014174631353776881, 0.0014174631353776881, 0.9999989953986254, -0.37553117195025115, -0.37446807459871784)"><path d="M 0.0 0.0 L 0.75 0.0 L 0.75 0.75 L 0.0 0.75 L 0.0 0.0 Z" style="vector-effect: non-scaling-stroke;" /></g></g><g style="stroke: #ff9700;stroke-width: 0.1536;" transform="matrix(0.9999996237345956, 0.0008674852548105846, -0.0008674852548105846, 0.9999996237345956, -0.3746745519299194, -0.3753251658710274)"><path d="M 0.0 0.0 L 0.75 0.0 L 0.75 0.75 L 0.0 0.75 L 0.0 0.0 Z" style="vector-effect: non-scaling-stroke;" /></g></g><g style="stroke: #ff9700;stroke-width: 0.1536;" transform="matrix(0.9999983394362261, -0.0018223953441591431, 0.0018223953441591431, 0.9999983394362261, -0.37568277554264445, -0.3743159790345251)"><path d="M 0.0 0.0 L 0.75 0.0 L 0.75 0.75 L 0.0 0.75 L 0.0 0.0 Z" style="vector-effect: non-scaling-stroke;" /></g></g><g style="stroke: #ff9700;stroke-width: 0.1536;" transform="matrix(0.9999999918989828, 0.00012728721177193857, -0.00012728721177193857, 0.9999999918989828, -0.37495226425770406, -0.37504772966653305)"><path d="M 0.0 0.0 L 0.75 0.0 L 0.75 0.75 L 0.0 0.75 L 0.0 0.0 Z" style="vector-effect: non-scaling-stroke;" /></g></g></g></g><g transform="matrix(1.0, 0.0, 0.0, 1.0, 0.0, 2.0)"><g><g><g><g><g /><g style="stroke: #ff9700;stroke-width: 0.1536;" transform="matrix(0.999999954763866, 0.00030078607996468276, -0.00030078607996468276, 0.999999954763866, -0.374887188256463, -0.37511277781643654)"><path d="M 0.0 0.0 L 0.75 0.0 L 0.75 0.75 L 0.0 0.75 L 0.0 0.0 Z" style="vector-effect: non-scaling-stroke;" /></g></g><g style="stroke: #005fdb;stroke-width: 0.1536;" transform="matrix(0.9999982193227375, -0.0018871543005724097, 0.0018871543005724097, 0.9999982193227375, -0.3757070151087412, -0.3742916493833119)"><path d="M 0.0 0.0 L 0.75 0.0 L 0.75 0.75 L 0.0 0.75 L 0.0 0.0 Z" style="vector-effect: non-scaling-stroke;" /></g></g><g style="stroke: #005fdb;stroke-width: 0.1536;" transform="matrix(0.9999999944824233, 0.00010504833800939234, -0.00010504833800939234, 0.9999999944824233, -0.3749606048041552, -0.3750393910576622)"><path d="M 0.0 0.0 L 0.75 0.0 L 0.75 0.75 L 0.0 0.75 L 0.0 0.0 Z" style="vector-effect: non-scaling-stroke;" /></g></g><g style="stroke: #005fdb;stroke-width: 0.1536;" transform="matrix(0.9999994011736913, 0.001094372997965449, -0.001094372997965449, 0.9999994011736913, -0.3745893855658972, -0.37541016531437127)"><path d="M 0.0 0.0 L 0.75 0.0 L 0.75 0.75 L 0.0 0.75 L 0.0 0.0 Z" style="vector-effect: non-scaling-stroke;" /></g></g></g></g><g transform="matrix(1.0, 0.0, 0.0, 1.0, 0.0, 3.0)"><g><g><g><g><g /><g style="stroke: #ff9700;stroke-width: 0.1536;" transform="matrix(0.9999999752424595, -0.00022251984236074476, 0.00022251984236074476, 0.9999999752424595, -0.37508343565680763, -0.374916545775037)"><path d="M 0.0 0.0 L 0.75 0.0 L 0.75 0.75 L 0.0 0.75 L 0.0 0.0 Z" style="vector-effect: non-scaling-stroke;" /></g></g><g style="stroke: #ff9700;stroke-width: 0.1536;" transform="matrix(0.9999994961043632, -0.0010038879516930201, 0.0010038879516930201, 0.9999994961043632, -0.3753762690210211, -0.3746233530572513)"><path d="M 0.0 0.0 L 0.75 0.0 L 0.75 0.75 L 0.0 0.75 L 0.0 0.0 Z" style="vector-effect: non-scaling-stroke;" /></g></g><g style="stroke: #ff9700;stroke-width: 0.1536;" transform="matrix(0.9999988984246098, -0.0014843010365201011, 0.0014843010365201011, 0.9999988984246098, -0.37555619979792365, -0.3744429740205336)"><path d="M 0.0 0.0 L 0.75 0.0 L 0.75 0.75 L 0.0 0.75 L 0.0 0.0 Z" style="vector-effect: non-scaling-stroke;" /></g></g><g style="stroke: #ff9700;stroke-width: 0.1536;" transform="matrix(0.999997402148867, 0.0022794068344829752, -0.0022794068344829752, 0.999997402148867, -0.374144248242894, -0.37585380336875623)"><path d="M 0.0 0.0 L 0.75 0.0 L 0.75 0.75 L 0.0 0.75 L 0.0 0.0 Z" style="vector-effect: non-scaling-stroke;" /></g></g></g></g><g transform="matrix(1.0, 0.0, 0.0, 1.0, 1.0, 0.0)"><g><g><g><g><g /><g style="stroke: #ff9700;stroke-width: 0.1536;" transform="matrix(0.999998589349412, -0.0016796723448449483, 0.0016796723448449483, 0.999998589349412, -0.3756293481353463, -0.37436959387671265)"><path d="M 0.0 0.0 L 0.75 0.0 L 0.75 0.75 L 0.0 0.75 L 0.0 0.0 Z" style="vector-effect: non-scaling-stroke;" /></g></g><g style="stroke: #005fdb;stroke-width: 0.1536;" transform="matrix(0.9999996810496028, 0.0007986868552343566, -0.0007986868552343566, 0.9999996810496028, -0.37470037282288815, -0.37529938796431395)"><path d="M 0.0 0.0 L 0.75 0.0 L 0.75 0.75 L 0.0 0.75 L 0.0 0.0 Z" style="vector-effect: non-scaling-stroke;" /></g></g><g style="stroke: #ff9700;stroke-width: 0.1536;" transform="matrix(0.9999990036996864, 0.001411594713315624, -0.001411594713315624, 0.9999990036996864, -0.374470278369889, -0.37552897440487576)"><path d="M 0.0 0.0 L 0.75 0.0 L 0.75 0.75 L 0.0 0.75 L 0.0 0.0 Z" style="vector-effect: non-scaling-stroke;" /></g></g><g style="stroke: #005fdb;stroke-width: 0.1536;" transform="matrix(0.9999992867854772, 0.0011943318370405299, -0.0011943318370405299, 0.9999992867854772, -0.37455185810566377, -0.3754476069834442)"><path d="M 0.0 0.0 L 0.75 0.0 L 0.75 0.75 L 0.0 0.75 L 0.0 0.0 Z" style="vector-effect: non-scaling-stroke;" /></g></g></g></g><g transform="matrix(1.0, 0.0, 0.0, 1.0, 1.0, 1.0)"><g><g><g><g><g /><g style="stroke: #ff9700;stroke-width: 0.1536;" transform="matrix(0.9999990404634989, -0.0013853057718810774, 0.0013853057718810774, 0.9999990404634989, -0.37551912983826746, -0.3744801505093566)"><path d="M 0.0 0.0 L 0.75 0.0 L 0.75 0.75 L 0.0 0.75 L 0.0 0.0 Z" style="vector-effect: non-scaling-stroke;" /></g></g><g style="stroke: #ff9700;stroke-width: 0.1536;" transform="matrix(0.9999981624550677, 0.0019170515089754812, -0.0019170515089754812, 0.9999981624550677, -0.37428041660478456, -0.37571820523651617)"><path d="M 0.0 0.0 L 0.75 0.0 L 0.75 0.75 L 0.0 0.75 L 0.0 0.0 Z" style="vector-effect: non-scaling-stroke;" /></g></g><g style="stroke: #005fdb;stroke-width: 0.1536;" transform="matrix(0.9999999993417766, -3.628287053302687e-05, 3.628287053302687e-05, 0.9999999993417766, -0.3750136058296161, -0.3749863936767163)"><path d="M 0.0 0.0 L 0.75 0.0 L 0.75 0.75 L 0.0 0.75 L 0.0 0.0 Z" style="vector-effect: non-scaling-stroke;" /></g></g><g style="stroke: #ff9700;stroke-width: 0.1536;" transform="matrix(0.999998404536473, 0.0017863159038737733, -0.0017863159038737733, 0.999998404536473, -0.37432953323722473, -0.3756692701651301)"><path d="M 0.0 0.0 L 0.75 0.0 L 0.75 0.75 L 0.0 0.75 L 0.0 0.0 Z" style="vector-effect: non-scaling-stroke;" /></g></g></g></g><g transform="matrix(1.0, 0.0, 0.0, 1.0, 1.0, 2.0)"><g><g><g><g><g /><g style="stroke: #ff9700;stroke-width: 0.1536;" transform="matrix(0.9999995545896148, -0.0009438329153863312, 0.0009438329153863312, 0.9999995545896148, -0.3753537703143754, -0.3746458956278356)"><path d="M 0.0 0.0 L 0.75 0.0 L 0.75 0.75 L 0.0 0.75 L 0.0 0.0 Z" style="vector-effect: non-scaling-stroke;" /></g></g><g style="stroke: #ff9700;stroke-width: 0.1536;" transform="matrix(0.999998967686289, -0.0014368807731259506, 0.0014368807731259506, 0.999998967686289, -0.37553844317228063, -0.37446078259243615)"><path d="M 0.0 0.0 L 0.75 0.0 L 0.75 0.75 L 0.0 0.75 L 0.0 0.0 Z" style="vector-effect: non-scaling-stroke;" /></g></g><g style="stroke: #ff9700;stroke-width: 0.1536;" transform="matrix(0.9999977540736863, -0.0021193979294104157, 0.0021193979294104157, 0.9999977540736863, -0.3757939320011613, -0.37420438355410346)"><path d="M 0.0 0.0 L 0.75 0.0 L 0.75 0.75 L 0.0 0.75 L 0.0 0.0 Z" style="vector-effect: non-scaling-stroke;" /></g></g><g style="stroke: #ff9700;stroke-width: 0.1536;" transform="matrix(0.9999999198618373, -0.00040034524958180686, 0.00040034524958180686, 0.9999999198618373, -0.3751500994167822, -0.37484984047959585)"><path d="M 0.0 0.0 L 0.75 0.0 L 0.75 0.75 L 0.0 0.75 L 0.0 0.0 Z" style="vector-effect: non-scaling-stroke;" /></g></g></g></g><g transform="matrix(1.0, 0.0, 0.0, 1.0, 1.0, 3.0)"><g><g><g><g><g /><g style="stroke: #ff9700;stroke-width: 0.1536;" transform="matrix(0.9999999032176755, -0.00043995981582864153, 0.00043995981582864153, 0.9999999032176755, -0.37516494863756406, -0.37483497877569255)"><path d="M 0.0 0.0 L 0.75 0.0 L 0.75 0.75 L 0.0 0.75 L 0.0 0.0 Z" style="vector-effect: non-scaling-stroke;" /></g></g><g style="stroke: #ff9700;stroke-width: 0.1536;" transform="matrix(0.9999999402563851, -0.00034566924420349743, 0.00034566924420349743, 0.9999999402563851, -0.3751296035627207, -0.3748703516295681)"><path d="M 0.0 0.0 L 0.75 0.0 L 0.75 0.75 L 0.0 0.75 L 0.0 0.0 Z" style="vector-effect: non-scaling-stroke;" /></g></g><g style="stroke: #ff9700;stroke-width: 0.1536;" transform="matrix(0.9999989928617926, 0.0014192517044263012, -0.0014192517044263012, 0.9999989928617926, -0.37446740293401237, -0.3755318417123321)"><path d="M 0.0 0.0 L 0.75 0.0 L 0.75 0.75 L 0.0 0.75 L 0.0 0.0 Z" style="vector-effect: non-scaling-stroke;" /></g></g><g style="stroke: #ff9700;stroke-width: 0.1536;" transform="matrix(0.9999998672380459, -0.0005152901032871185, 0.0005152901032871185, 0.9999998672380459, -0.3751931840029999, -0.3748067164255346)"><path d="M 0.0 0.0 L 0.75 0.0 L 0.75 0.75 L 0.0 0.75 L 0.0 0.0 Z" style="vector-effect: non-scaling-stroke;" /></g></g></g></g><g transform="matrix(1.0, 0.0, 0.0, 1.0, 2.0, 0.0)"><g><g><g><g><g /><g style="stroke: #ff9700;stroke-width: 0.1536;" transform="matrix(0.9999999942502169, 0.00010723602967998845, -0.00010723602967998845, 0.9999999942502169, -0.37495978433270133, -0.3750402113549613)"><path d="M 0.0 0.0 L 0.75 0.0 L 0.75 0.75 L 0.0 0.75 L 0.0 0.0 Z" style="vector-effect: non-scaling-stroke;" /></g></g><g style="stroke: #005fdb;stroke-width: 0.1536;" transform="matrix(0.9999993072653931, -0.0011770593587486294, 0.0011770593587486294, 0.9999993072653931, -0.37544113748405317, -0.3745583429649917)"><path d="M 0.0 0.0 L 0.75 0.0 L 0.75 0.75 L 0.0 0.75 L 0.0 0.0 Z" style="vector-effect: non-scaling-stroke;" /></g></g><g style="stroke: #005fdb;stroke-width: 0.1536;" transform="matrix(0.999998128780999, -0.0019345372833149256, 0.0019345372833149256, 0.999998128780999, -0.37572474977411774, -0.37427384681163156)"><path d="M 0.0 0.0 L 0.75 0.0 L 0.75 0.75 L 0.0 0.75 L 0.0 0.0 Z" style="vector-effect: non-scaling-stroke;" /></g></g><g style="stroke: #005fdb;stroke-width: 0.1536;" transform="matrix(0.99999834497045, -0.0018193560291501947, 0.0018193560291501947, 0.99999834497045, -0.3756816378748501, -0.3743171208529874)"><path d="M 0.0 0.0 L 0.75 0.0 L 0.75 0.75 L 0.0 0.75 L 0.0 0.0 Z" style="vector-effect: non-scaling-stroke;" /></g></g></g></g><g transform="matrix(1.0, 0.0, 0.0, 1.0, 2.0, 1.0)"><g><g><g><g><g /><g style="stroke: #ff9700;stroke-width: 0.1536;" transform="matrix(0.999999982792711, -0.00018551166465410448, 0.00018551166465410448, 0.999999982792711, -0.3750695604215119, -0.3749304266730213)"><path d="M 0.0 0.0 L 0.75 0.0 L 0.75 0.75 L 0.0 0.75 L 0.0 0.0 Z" style="vector-effect: non-scaling-stroke;" /></g></g><g style="stroke: #ff9700;stroke-width: 0.1536;" transform="matrix(0.999999560084135, -0.000937993356284309, 0.000937993356284309, 0.999999560084135, -0.37535158254015727, -0.37464808752294404)"><path d="M 0.0 0.0 L 0.75 0.0 L 0.75 0.75 L 0.0 0.75 L 0.0 0.0 Z" style="vector-effect: non-scaling-stroke;" /></g></g><g style="stroke: #005fdb;stroke-width: 0.1536;" transform="matrix(0.9999989862360601, -0.0014239125155864317, 0.0014239125155864317, 0.9999989862360601, -0.37553358703186746, -0.3744656526451776)"><path d="M 0.0 0.0 L 0.75 0.0 L 0.75 0.75 L 0.0 0.75 L 0.0 0.0 Z" style="vector-effect: non-scaling-stroke;" /></g></g><g style="stroke: #ff9700;stroke-width: 0.1536;" transform="matrix(0.9999983709224841, -0.0018050352844093537, 0.0018050352844093537, 0.9999983709224841, -0.3756762773275851, -0.37432250086427804)"><path d="M 0.0 0.0 L 0.75 0.0 L 0.75 0.75 L 0.0 0.75 L 0.0 0.0 Z" style="vector-effect: non-scaling-stroke;" /></g></g></g></g><g transform="matrix(1.0, 0.0, 0.0, 1.0, 2.0, 2.0)"><g><g><g><g><g /><g style="stroke: #ff9700;stroke-width: 0.1536;" transform="matrix(0.9999978882966555, -0.0020550917813373514, 0.0020550917813373514, 0.9999978882966555, -0.37576986752924735, -0.3742285486932443)"><path d="M 0.0 0.0 L 0.75 0.0 L 0.75 0.75 L 0.0 0.75 L 0.0 0.0 Z" style="vector-effect: non-scaling-stroke;" /></g></g><g style="stroke: #ff9700;stroke-width: 0.1536;" transform="matrix(0.9999999744868352, 0.00022589008158334234, -0.00022589008158334234, 0.9999999744868352, -0.37491528165196947, -0.37508469921315696)"><path d="M 0.0 0.0 L 0.75 0.0 L 0.75 0.75 L 0.0 0.75 L 0.0 0.0 Z" style="vector-effect: non-scaling-stroke;" /></g></g><g style="stroke: #005fdb;stroke-width: 0.1536;" transform="matrix(0.9999974291510088, -0.0022675297954312897, 0.0022675297954312897, 0.9999974291510088, -0.37584935960491506, -0.37414871225834156)"><path d="M 0.0 0.0 L 0.75 0.0 L 0.75 0.75 L 0.0 0.75 L 0.0 0.0 Z" style="vector-effect: non-scaling-stroke;" /></g></g><g style="stroke: #ff9700;stroke-width: 0.1536;" transform="matrix(0.9999991018262968, -0.001340278553029227, 0.001340278553029227, 0.9999991018262968, -0.3755022676422473, -0.37449705872747535)"><path d="M 0.0 0.0 L 0.75 0.0 L 0.75 0.75 L 0.0 0.75 L 0.0 0.0 Z" style="vector-effect: non-scaling-stroke;" /></g></g></g></g><g transform="matrix(1.0, 0.0, 0.0, 1.0, 2.0, 3.0)"><g><g><g><g><g /><g style="stroke: #ff9700;stroke-width: 0.1536;" transform="matrix(0.9999998672146762, -0.0005153354539858632, 0.0005153354539858632, 0.9999998672146762, -0.37519320100074827, -0.3748066994102589)"><path d="M 0.0 0.0 L 0.75 0.0 L 0.75 0.75 L 0.0 0.75 L 0.0 0.0 Z" style="vector-effect: non-scaling-stroke;" /></g></g><g style="stroke: #005fdb;stroke-width: 0.1536;" transform="matrix(0.9999998231795159, -0.0005946771703733083, 0.0005946771703733083, 0.9999998231795159, -0.3752229376312084, -0.37477692975342847)"><path d="M 0.0 0.0 L 0.75 0.0 L 0.75 0.75 L 0.0 0.75 L 0.0 0.0 Z" style="vector-effect: non-scaling-stroke;" /></g></g><g style="stroke: #ff9700;stroke-width: 0.1536;" transform="matrix(0.9999993107007776, 0.0011741371169922063, -0.0011741371169922063, 0.9999993107007776, -0.3745594400939195, -0.37544004293166366)"><path d="M 0.0 0.0 L 0.75 0.0 L 0.75 0.75 L 0.0 0.75 L 0.0 0.0 Z" style="vector-effect: non-scaling-stroke;" /></g></g><g style="stroke: #ff9700;stroke-width: 0.1536;" transform="matrix(0.9999984697766704, 0.0017494125635841204, -0.0017494125635841204, 0.9999984697766704, -0.37434339645490733, -0.3756554558775954)"><path d="M 0.0 0.0 L 0.75 0.0 L 0.75 0.75 L 0.0 0.75 L 0.0 0.0 Z" style="vector-effect: non-scaling-stroke;" /></g></g></g></g><g transform="matrix(1.0, 0.0, 0.0, 1.0, 3.0, 0.0)"><g><g><g><g><g /><g style="stroke: #ff9700;stroke-width: 0.1536;" transform="matrix(0.9999990941063714, -0.001346026164881326, 0.001346026164881326, 0.9999990941063714, -0.3755044201017198, -0.3744949004780588)"><path d="M 0.0 0.0 L 0.75 0.0 L 0.75 0.75 L 0.0 0.75 L 0.0 0.0 Z" style="vector-effect: non-scaling-stroke;" /></g></g><g style="stroke: #ff9700;stroke-width: 0.1536;" transform="matrix(0.999998958169234, -0.0014434889838530712, 0.0014434889838530712, 0.999998958169234, -0.37554091768240766, -0.3744583009445179)"><path d="M 0.0 0.0 L 0.75 0.0 L 0.75 0.75 L 0.0 0.75 L 0.0 0.0 Z" style="vector-effect: non-scaling-stroke;" /></g></g><g style="stroke: #ff9700;stroke-width: 0.1536;" transform="matrix(0.9999986944654381, 0.0016158797663594366, -0.0016158797663594366, 0.9999986944654381, -0.3743935555121545, -0.37560546533692407)"><path d="M 0.0 0.0 L 0.75 0.0 L 0.75 0.75 L 0.0 0.75 L 0.0 0.0 Z" style="vector-effect: non-scaling-stroke;" /></g></g><g style="stroke: #ff9700;stroke-width: 0.1536;" transform="matrix(0.9999978410743686, 0.0020779428774289703, -0.0020779428774289703, 0.9999978410743686, -0.37421996182385237, -0.37577841898192405)"><path d="M 0.0 0.0 L 0.75 0.0 L 0.75 0.75 L 0.0 0.75 L 0.0 0.0 Z" style="vector-effect: non-scaling-stroke;" /></g></g></g></g><g transform="matrix(1.0, 0.0, 0.0, 1.0, 3.0, 1.0)"><g><g><g><g><g /><g style="stroke: #ff9700;stroke-width: 0.1536;" transform="matrix(0.9999982450550177, -0.00187346921108686, 0.00187346921108686, 0.9999982450550177, -0.37570189284978917, -0.37429679094147406)"><path d="M 0.0 0.0 L 0.75 0.0 L 0.75 0.75 L 0.0 0.75 L 0.0 0.0 Z" style="vector-effect: non-scaling-stroke;" /></g></g><g style="stroke: #ff9700;stroke-width: 0.1536;" transform="matrix(0.9999996595563861, -0.0008251588403994846, 0.0008251588403994846, 0.9999996595563861, -0.3753093068987946, -0.374690437768495)"><path d="M 0.0 0.0 L 0.75 0.0 L 0.75 0.75 L 0.0 0.75 L 0.0 0.0 Z" style="vector-effect: non-scaling-stroke;" /></g></g><g style="stroke: #ff9700;stroke-width: 0.1536;" transform="matrix(0.9999998097481291, -0.0006168498243110503, 0.0006168498243110503, 0.9999998097481291, -0.37523124733966506, -0.3747686099714318)"><path d="M 0.0 0.0 L 0.75 0.0 L 0.75 0.75 L 0.0 0.75 L 0.0 0.0 Z" style="vector-effect: non-scaling-stroke;" /></g></g><g style="stroke: #ff9700;stroke-width: 0.1536;" transform="matrix(0.999999939778543, -0.0003470488588518322, 0.0003470488588518322, 0.999999939778543, -0.3751301207390231, -0.37486983409488417)"><path d="M 0.0 0.0 L 0.75 0.0 L 0.75 0.75 L 0.0 0.75 L 0.0 0.0 Z" style="vector-effect: non-scaling-stroke;" /></g></g></g></g><g transform="matrix(1.0, 0.0, 0.0, 1.0, 3.0, 2.0)"><g><g><g><g><g /><g style="stroke: #005fdb;stroke-width: 0.1536;" transform="matrix(0.9999998239592638, 0.0005933645098082406, -0.0005933645098082406, 0.9999998239592638, -0.3747774222935458, -0.375222445675902)"><path d="M 0.0 0.0 L 0.75 0.0 L 0.75 0.75 L 0.0 0.75 L 0.0 0.0 Z" style="vector-effect: non-scaling-stroke;" /></g></g><g style="stroke: #ff9700;stroke-width: 0.1536;" transform="matrix(0.9999977563061219, 0.0021183443351236934, -0.0021183443351236934, 0.9999977563061219, -0.37420477948912434, -0.3757935377404671)"><path d="M 0.0 0.0 L 0.75 0.0 L 0.75 0.75 L 0.0 0.75 L 0.0 0.0 Z" style="vector-effect: non-scaling-stroke;" /></g></g><g style="stroke: #ff9700;stroke-width: 0.1536;" transform="matrix(0.999997781177213, -0.002106570827376132, 0.002106570827376132, 0.999997781177213, -0.3757891320017209, -0.37420920388118883)"><path d="M 0.0 0.0 L 0.75 0.0 L 0.75 0.75 L 0.0 0.75 L 0.0 0.0 Z" style="vector-effect: non-scaling-stroke;" /></g></g><g style="stroke: #ff9700;stroke-width: 0.1536;" transform="matrix(0.9999985233426879, 0.0017185204228463361, -0.0017185204228463361, 0.9999985233426879, -0.3743550010949406, -0.3756438914120753)"><path d="M 0.0 0.0 L 0.75 0.0 L 0.75 0.75 L 0.0 0.75 L 0.0 0.0 Z" style="vector-effect: non-scaling-stroke;" /></g></g></g></g><g transform="matrix(1.0, 0.0, 0.0, 1.0, 3.0, 3.0)"><g><g><g><g><g /><g style="stroke: #005fdb;stroke-width: 0.1536;" transform="matrix(0.9999990558014066, -0.001374189322947407, 0.001374189322947407, 0.9999990558014066, -0.3755149669216328, -0.3744843249294222)"><path d="M 0.0 0.0 L 0.75 0.0 L 0.75 0.75 L 0.0 0.75 L 0.0 0.0 Z" style="vector-effect: non-scaling-stroke;" /></g></g><g style="stroke: #ff9700;stroke-width: 0.1536;" transform="matrix(0.9999976226429873, 0.002180529379188657, -0.002180529379188657, 0.9999976226429873, -0.37418140997392446, -0.375816807008316)"><path d="M 0.0 0.0 L 0.75 0.0 L 0.75 0.75 L 0.0 0.75 L 0.0 0.0 Z" style="vector-effect: non-scaling-stroke;" /></g></g><g style="stroke: #ff9700;stroke-width: 0.1536;" transform="matrix(0.9999983422537807, 0.0018208486182282654, -0.0018208486182282654, 0.9999983422537807, -0.3743165601133322, -0.37568219657700336)"><path d="M 0.0 0.0 L 0.75 0.0 L 0.75 0.75 L 0.0 0.75 L 0.0 0.0 Z" style="vector-effect: non-scaling-stroke;" /></g></g><g style="stroke: #ff9700;stroke-width: 0.1536;" transform="matrix(0.9999991864173206, 0.0012756036598377627, -0.0012756036598377627, 0.9999991864173206, -0.37452134353405603, -0.3754780462789344)"><path d="M 0.0 0.0 L 0.75 0.0 L 0.75 0.75 L 0.0 0.75 L 0.0 0.0 Z" style="vector-effect: non-scaling-stroke;" /></g></g></g></g></g><g /></g></g></g></g></svg>