<?xml version="1.0" encoding="utf-8" ?>
<svg baseProfile="full" height="100%" version="1.1" width="100%" xmlns="http://www.w3.org/2000/svg" xmlns:ev="http://www.w3.org/2001/xml-events" xmlns:xlink="http://www.w3.org/1999/xlink"><defs><marker id="arrow" markerHeight="3.5" markerWidth="5" orient="auto" refX="5.0" refY="1.7"><polygon points="0,0 5,1.75 0,3.5" /></marker></defs><g style="fill:white; stroke: black; stroke-width: 0.01;" transform="scale(63.0 63.0) translate(0.43963460844683844 0.4415809531216645)"><g style="stroke-width: 0.02;"><g><g><g><g><g><g><g><g><g><g><g><g><g><g><g><g><g /><g transform="translate(0 0)"><g><g><g><g><g /><g transform="rotate(3.0937547284977107)"><g style="stroke: #005fdb;"><g style=";" transform="scale(1)"><rect height="0.75" width="0.75" x="-0.375" y="-0.375" /></g></g></g></g><g transform="rotate(-5.936789901757801)"><g style="stroke: #005fdb;"><g style=";" transform="scale(1)"><rect height="0.75" width="0.75" x="-0.375" y="-0.375" /></g></g></g></g><g transform="rotate(-0.7688158489627059)"><g style="stroke: #005fdb;"><g style=";" transform="scale(1)"><rect height="0.75" width="0.75" x="-0.375" y="-0.375" /></g></g></g></g><g transform="rotate(-3.199390014892018)"><g style="stroke: #ff9700;"><g style=";" transform="scale(1)"><rect height="0.75" width="0.75" x="-0.375" y="-0.375" /></g></g></g></g></g></g><g transform="translate(0 1)"><g><g><g><g><g /><g transform="rotate(2.3389538571067074)"><g style="stroke: #005fdb;"><g style=";" transform="scale(1)"><rect height="0.75" width="0.75" x="-0.375" y="-0.375" /></g></g></g></g><g transform="rotate(1.9965285058224609)"><g style="stroke: #005fdb;"><g style=";" transform="scale(1)"><rect height="0.75" width="0.75" x="-0.375" y="-0.375" /></g></g></g></g><g transform="rotate(7.000008916294117)"><g style="stroke: #ff9700;"><g style=";" transform="scale(1)"><rect height="0.75" width="0.75" x="-0.375" y="-0.375" /></g></g></g></g><g transform="rotate(6.055451177116287)"><g style="stroke: #ff9700;"><g style=";" transform="scale(1)"><rect height="0.75" width="0.75" x="-0.375" y="-0.375" /></g></g></g></g></g></g><g transform="translate(0 2)"><g><g><g><g><g /><g transform="rotate(2.8586205662989013)"><g style="stroke: #005fdb;"><g style=";" transform="scale(1)"><rect height="0.75" width="0.75" x="-0.375" y="-0.375" /></g></g></g></g><g transform="rotate(-0.6804584451572534)"><g style="stroke: #ff9700;"><g style=";" transform="scale(1)"><rect height="0.75" width="0.75" x="-0.375" y="-0.375" /></g></g></g></g><g transform="rotate(1.4969451979185238)"><g style="stroke: #005fdb;"><g style=";" transform="scale(1)"><rect height="0.75" width="0.75" x="-0.375" y="-0.375" /></g></g></g></g><g transform="rotate(7.139518638681682)"><g style="stroke: #ff9700;"><g style=";" transform="scale(1)"><rect height="0.75" width="0.75" x="-0.375" y="-0.375" /></g></g></g></g></g></g><g transform="translate(0 3)"><g><g><g><g><g /><g transform="rotate(-3.9556102650665714)"><g style="stroke: #ff9700;"><g style=";" transform="scale(1)"><rect height="0.75" width="0.75" x="-0.375" y="-0.375" /></g></g></g></g><g transform="rotate(-3.897220653236899)"><g style="stroke: #ff9700;"><g style=";" transform="scale(1)"><rect height="0.75" width="0.75" x="-0.375" y="-0.375" /></g></g></g></g><g transform="rotate(-6.894686054538921)"><g style="stroke: #ff9700;"><g style=";" transform="scale(1)"><rect height="0.75" width="0.75" x="-0.375" y="-0.375" /></g></g></g></g><g transform="rotate(7.119187978908447)"><g style="stroke: #ff9700;"><g style=";" transform="scale(1)"><rect height="0.75" width="0.75" x="-0.375" y="-0.375" /></g></g></g></g></g></g><g transform="translate(1 0)"><g><g><g><g><g /><g transform="rotate(1.6942395095648421)"><g style="stroke: #005fdb;"><g style=";" transform="scale(1)"><rect height="0.75" width="0.75" x="-0.375" y="-0.375" /></g></g></g></g><g transform="rotate(1.178224577374372)"><g style="stroke: #ff9700;"><g style=";" transform="scale(1)"><rect height="0.75" width="0.75" x="-0.375" y="-0.375" /></g></g></g></g><g transform="rotate(-5.734580705859769)"><g style="stroke: #ff9700;"><g style=";" transform="scale(1)"><rect height="0.75" width="0.75" x="-0.375" y="-0.375" /></g></g></g></g><g transform="rotate(1.6454938721949681)"><g style="stroke: #005fdb;"><g style=";" transform="scale(1)"><rect height="0.75" width="0.75" x="-0.375" y="-0.375" /></g></g></g></g></g></g><g transform="translate(1 1)"><g><g><g><g><g /><g transform="rotate(3.084277399791224)"><g style="stroke: #ff9700;"><g style=";" transform="scale(1)"><rect height="0.75" width="0.75" x="-0.375" y="-0.375" /></g></g></g></g><g transform="rotate(-0.37149653994689513)"><g style="stroke: #ff9700;"><g style=";" transform="scale(1)"><rect height="0.75" width="0.75" x="-0.375" y="-0.375" /></g></g></g></g><g transform="rotate(1.786187902758607)"><g style="stroke: #ff9700;"><g style=";" transform="scale(1)"><rect height="0.75" width="0.75" x="-0.375" y="-0.375" /></g></g></g></g><g transform="rotate(7.279296396863872)"><g style="stroke: #ff9700;"><g style=";" transform="scale(1)"><rect height="0.75" width="0.75" x="-0.375" y="-0.375" /></g></g></g></g></g></g><g transform="translate(1 2)"><g><g><g><g><g /><g transform="rotate(-5.795957434481365)"><g style="stroke: #ff9700;"><g style=";" transform="scale(1)"><rect height="0.75" width="0.75" x="-0.375" y="-0.375" /></g></g></g></g><g transform="rotate(-5.4623938783125014)"><g style="stroke: #ff9700;"><g style=";" transform="scale(1)"><rect height="0.75" width="0.75" x="-0.375" y="-0.375" /></g></g></g></g><g transform="rotate(0.2109574190768745)"><g style="stroke: #ff9700;"><g style=";" transform="scale(1)"><rect height="0.75" width="0.75" x="-0.375" y="-0.375" /></g></g></g></g><g transform="rotate(0.8645091415007474)"><g style="stroke: #ff9700;"><g style=";" transform="scale(1)"><rect height="0.75" width="0.75" x="-0.375" y="-0.375" /></g></g></g></g></g></g><g transform="translate(1 3)"><g><g><g><g><g /><g transform="rotate(-4.786665028226039)"><g style="stroke: #005fdb;"><g style=";" transform="scale(1)"><rect height="0.75" width="0.75" x="-0.375" y="-0.375" /></g></g></g></g><g transform="rotate(-2.732708747425774)"><g style="stroke: #005fdb;"><g style=";" transform="scale(1)"><rect height="0.75" width="0.75" x="-0.375" y="-0.375" /></g></g></g></g><g transform="rotate(0.8807384474868266)"><g style="stroke: #ff9700;"><g style=";" transform="scale(1)"><rect height="0.75" width="0.75" x="-0.375" y="-0.375" /></g></g></g></g><g transform="rotate(-5.789112853114585)"><g style="stroke: #ff9700;"><g style=";" transform="scale(1)"><rect height="0.75" width="0.75" x="-0.375" y="-0.375" /></g></g></g></g></g></g><g transform="translate(2 0)"><g><g><g><g><g /><g transform="rotate(4.60731796301693)"><g style="stroke: #ff9700;"><g style=";" transform="scale(1)"><rect height="0.75" width="0.75" x="-0.375" y="-0.375" /></g></g></g></g><g transform="rotate(4.215167643844145)"><g style="stroke: #ff9700;"><g style=";" transform="scale(1)"><rect height="0.75" width="0.75" x="-0.375" y="-0.375" /></g></g></g></g><g transform="rotate(-3.759643060145552)"><g style="stroke: #ff9700;"><g style=";" transform="scale(1)"><rect height="0.75" width="0.75" x="-0.375" y="-0.375" /></g></g></g></g><g transform="rotate(-4.86560216767396)"><g style="stroke: #005fdb;"><g style=";" transform="scale(1)"><rect height="0.75" width="0.75" x="-0.375" y="-0.375" /></g></g></g></g></g></g><g transform="translate(2 1)"><g><g><g><g><g /><g transform="rotate(-4.8053561409895895)"><g style="stroke: #ff9700;"><g style=";" transform="scale(1)"><rect height="0.75" width="0.75" x="-0.375" y="-0.375" /></g></g></g></g><g transform="rotate(0.9251911052016977)"><g style="stroke: #ff9700;"><g style=";" transform="scale(1)"><rect height="0.75" width="0.75" x="-0.375" y="-0.375" /></g></g></g></g><g transform="rotate(3.7818722514656953)"><g style="stroke: #ff9700;"><g style=";" transform="scale(1)"><rect height="0.75" width="0.75" x="-0.375" y="-0.375" /></g></g></g></g><g transform="rotate(-6.973052176790087)"><g style="stroke: #ff9700;"><g style=";" transform="scale(1)"><rect height="0.75" width="0.75" x="-0.375" y="-0.375" /></g></g></g></g></g></g><g transform="translate(2 2)"><g><g><g><g><g /><g transform="rotate(6.957527088455307)"><g style="stroke: #005fdb;"><g style=";" transform="scale(1)"><rect height="0.75" width="0.75" x="-0.375" y="-0.375" /></g></g></g></g><g transform="rotate(3.7159929004140304)"><g style="stroke: #005fdb;"><g style=";" transform="scale(1)"><rect height="0.75" width="0.75" x="-0.375" y="-0.375" /></g></g></g></g><g transform="rotate(0.4771575841089205)"><g style="stroke: #005fdb;"><g style=";" transform="scale(1)"><rect height="0.75" width="0.75" x="-0.375" y="-0.375" /></g></g></g></g><g transform="rotate(3.5047430465670306)"><g style="stroke: #ff9700;"><g style=";" transform="scale(1)"><rect height="0.75" width="0.75" x="-0.375" y="-0.375" /></g></g></g></g></g></g><g transform="translate(2 3)"><g><g><g><g><g /><g transform="rotate(-7.36747769434231)"><g style="stroke: #ff9700;"><g style=";" transform="scale(1)"><rect height="0.75" width="0.75" x="-0.375" y="-0.375" /></g></g></g></g><g transform="rotate(-4.640896459768521)"><g style="stroke: #ff9700;"><g style=";" transform="scale(1)"><rect height="0.75" width="0.75" x="-0.375" y="-0.375" /></g></g></g></g><g transform="rotate(-2.3167771602053824)"><g style="stroke: #ff9700;"><g style=";" transform="scale(1)"><rect height="0.75" width="0.75" x="-0.375" y="-0.375" /></g></g></g></g><g transform="rotate(1.9636729120996859)"><g style="stroke: #ff9700;"><g style=";" transform="scale(1)"><rect height="0.75" width="0.75" x="-0.375" y="-0.375" /></g></g></g></g></g></g><g transform="translate(3 0)"><g><g><g><g><g /><g transform="rotate(-7.467028099110562)"><g style="stroke: #ff9700;"><g style=";" transform="scale(1)"><rect height="0.75" width="0.75" x="-0.375" y="-0.375" /></g></g></g></g><g transform="rotate(1.04901397383935)"><g style="stroke: #005fdb;"><g style=";" transform="scale(1)"><rect height="0.75" width="0.75" x="-0.375" y="-0.375" /></g></g></g></g><g transform="rotate(2.4400303479610472)"><g style="stroke: #ff9700;"><g style=";" transform="scale(1)"><rect height="0.75" width="0.75" x="-0.375" y="-0.375" /></g></g></g></g><g transform="rotate(1.2818507764825062)"><g style="stroke: #ff9700;"><g style=";" transform="scale(1)"><rect height="0.75" width="0.75" x="-0.375" y="-0.375" /></g></g></g></g></g></g><g transform="translate(3 1)"><g><g><g><g><g /><g transform="rotate(6.790420348741254)"><g style="stroke: #ff9700;"><g style=";" transform="scale(1)"><rect height="0.75" width="0.75" x="-0.375" y="-0.375" /></g></g></g></g><g transform="rotate(-3.982910552448358)"><g style="stroke: #ff9700;"><g style=";" transform="scale(1)"><rect height="0.75" width="0.75" x="-0.375" y="-0.375" /></g></g></g></g><g transform="rotate(2.8293421882732224)"><g style="stroke: #ff9700;"><g style=";" transform="scale(1)"><rect height="0.75" width="0.75" x="-0.375" y="-0.375" /></g></g></g></g><g transform="rotate(5.634569429343242)"><g style="stroke: #005fdb;"><g style=";" transform="scale(1)"><rect height="0.75" width="0.75" x="-0.375" y="-0.375" /></g></g></g></g></g></g><g transform="translate(3 2)"><g><g><g><g><g /><g transform="rotate(-2.280351534459039)"><g style="stroke: #ff9700;"><g style=";" transform="scale(1)"><rect height="0.75" width="0.75" x="-0.375" y="-0.375" /></g></g></g></g><g transform="rotate(-0.8097459774521394)"><g style="stroke: #ff9700;"><g style=";" transform="scale(1)"><rect height="0.75" width="0.75" x="-0.375" y="-0.375" /></g></g></g></g><g transform="rotate(-6.94493966895535)"><g style="stroke: #ff9700;"><g style=";" transform="scale(1)"><rect height="0.75" width="0.75" x="-0.375" y="-0.375" /></g></g></g></g><g transform="rotate(-0.2683713128110502)"><g style="stroke: #ff9700;"><g style=";" transform="scale(1)"><rect height="0.75" width="0.75" x="-0.375" y="-0.375" /></g></g></g></g></g></g><g transform="translate(3 3)"><g><g><g><g><g /><g transform="rotate(-4.5903139850481995)"><g style="stroke: #005fdb;"><g style=";" transform="scale(1)"><rect height="0.75" width="0.75" x="-0.375" y="-0.375" /></g></g></g></g><g transform="rotate(6.390834266655533)"><g style="stroke: #ff9700;"><g style=";" transform="scale(1)"><rect height="0.75" width="0.75" x="-0.375" y="-0.375" /></g></g></g></g><g transform="rotate(1.6615017571689639)"><g style="stroke: #005fdb;"><g style=";" transform="scale(1)"><rect height="0.75" width="0.75" x="-0.375" y="-0.375" /></g></g></g></g><g transform="rotate(1.14034826963942)"><g style="stroke: #ff9700;"><g style=";" transform="scale(1)"><rect height="0.75" width="0.75" x="-0.375" y="-0.375" /></g></g></g></g></g></g></g></g></svg>