<?xml version="1.0" encoding="utf-8" ?>
<svg baseProfile="full" height="256" version="1.1" width="255" xmlns="http://www.w3.org/2000/svg" xmlns:ev="http://www.w3.org/2001/xml-events" xmlns:xlink="http://www.w3.org/1999/xlink"><defs><marker id="arrow" markerHeight="3.5" markerWidth="5" orient="auto" refX="5.0" refY="1.7"><polygon points="0,0 5,1.75 0,3.5" /></marker></defs><g style="fill:white; stroke: black; stroke-width: 0.01;" transform="scale(63.0) translate(0.4416932106852615 0.4409689566208414)"><g><g><g><g><g><g><g><g><g><g><g><g><g><g><g><g><g /><g transform="translate(0 0)"><g><g><g><g><g /><g transform="rotate(-2.266482131687049)"><g style="stroke: #ff9700;stroke-width: 0.02;" transform="scale(1)"><rect height="0.75" width="0.75" x="-0.375" y="-0.375" /></g></g></g><g transform="rotate(5.671332349555749)"><g style="stroke: #005fdb;stroke-width: 0.02;" transform="scale(1)"><rect height="0.75" width="0.75" x="-0.375" y="-0.375" /></g></g></g><g transform="rotate(-3.223145701194983)"><g style="stroke: #005fdb;stroke-width: 0.02;" transform="scale(1)"><rect height="0.75" width="0.75" x="-0.375" y="-0.375" /></g></g></g><g transform="rotate(-0.20755131988764686)"><g style="stroke: #ff9700;stroke-width: 0.02;" transform="scale(1)"><rect height="0.75" width="0.75" x="-0.375" y="-0.375" /></g></g></g></g></g><g transform="translate(0 1)"><g><g><g><g><g /><g transform="rotate(6.576610392729895)"><g style="stroke: #ff9700;stroke-width: 0.02;" transform="scale(1)"><rect height="0.75" width="0.75" x="-0.375" y="-0.375" /></g></g></g><g transform="rotate(-0.051541072031724304)"><g style="stroke: #ff9700;stroke-width: 0.02;" transform="scale(1)"><rect height="0.75" width="0.75" x="-0.375" y="-0.375" /></g></g></g><g transform="rotate(0.30224404179717135)"><g style="stroke: #ff9700;stroke-width: 0.02;" transform="scale(1)"><rect height="0.75" width="0.75" x="-0.375" y="-0.375" /></g></g></g><g transform="rotate(4.602753497586582)"><g style="stroke: #ff9700;stroke-width: 0.02;" transform="scale(1)"><rect height="0.75" width="0.75" x="-0.375" y="-0.375" /></g></g></g></g></g><g transform="translate(0 2)"><g><g><g><g><g /><g transform="rotate(0.8832903817588181)"><g style="stroke: #ff9700;stroke-width: 0.02;" transform="scale(1)"><rect height="0.75" width="0.75" x="-0.375" y="-0.375" /></g></g></g><g transform="rotate(7.485991822478957)"><g style="stroke: #ff9700;stroke-width: 0.02;" transform="scale(1)"><rect height="0.75" width="0.75" x="-0.375" y="-0.375" /></g></g></g><g transform="rotate(4.940253052412599)"><g style="stroke: #005fdb;stroke-width: 0.02;" transform="scale(1)"><rect height="0.75" width="0.75" x="-0.375" y="-0.375" /></g></g></g><g transform="rotate(2.7032701295070622)"><g style="stroke: #005fdb;stroke-width: 0.02;" transform="scale(1)"><rect height="0.75" width="0.75" x="-0.375" y="-0.375" /></g></g></g></g></g><g transform="translate(0 3)"><g><g><g><g><g /><g transform="rotate(6.178508804120059)"><g style="stroke: #005fdb;stroke-width: 0.02;" transform="scale(1)"><rect height="0.75" width="0.75" x="-0.375" y="-0.375" /></g></g></g><g transform="rotate(-2.0496626348343154)"><g style="stroke: #ff9700;stroke-width: 0.02;" transform="scale(1)"><rect height="0.75" width="0.75" x="-0.375" y="-0.375" /></g></g></g><g transform="rotate(-0.0011888831443652246)"><g style="stroke: #ff9700;stroke-width: 0.02;" transform="scale(1)"><rect height="0.75" width="0.75" x="-0.375" y="-0.375" /></g></g></g><g transform="rotate(2.5529592398246486)"><g style="stroke: #ff9700;stroke-width: 0.02;" transform="scale(1)"><rect height="0.75" width="0.75" x="-0.375" y="-0.375" /></g></g></g></g></g><g transform="translate(1 0)"><g><g><g><g><g /><g transform="rotate(7.363786533126282)"><g style="stroke: #ff9700;stroke-width: 0.02;" transform="scale(1)"><rect height="0.75" width="0.75" x="-0.375" y="-0.375" /></g></g></g><g transform="rotate(5.236082976421477)"><g style="stroke: #ff9700;stroke-width: 0.02;" transform="scale(1)"><rect height="0.75" width="0.75" x="-0.375" y="-0.375" /></g></g></g><g transform="rotate(-1.7974849423481065)"><g style="stroke: #ff9700;stroke-width: 0.02;" transform="scale(1)"><rect height="0.75" width="0.75" x="-0.375" y="-0.375" /></g></g></g><g transform="rotate(6.37129358785166)"><g style="stroke: #ff9700;stroke-width: 0.02;" transform="scale(1)"><rect height="0.75" width="0.75" x="-0.375" y="-0.375" /></g></g></g></g></g><g transform="translate(1 1)"><g><g><g><g><g /><g transform="rotate(3.8943424821763513)"><g style="stroke: #ff9700;stroke-width: 0.02;" transform="scale(1)"><rect height="0.75" width="0.75" x="-0.375" y="-0.375" /></g></g></g><g transform="rotate(3.9615273900587207)"><g style="stroke: #ff9700;stroke-width: 0.02;" transform="scale(1)"><rect height="0.75" width="0.75" x="-0.375" y="-0.375" /></g></g></g><g transform="rotate(3.1138162864174497)"><g style="stroke: #ff9700;stroke-width: 0.02;" transform="scale(1)"><rect height="0.75" width="0.75" x="-0.375" y="-0.375" /></g></g></g><g transform="rotate(-5.744880553013741)"><g style="stroke: #ff9700;stroke-width: 0.02;" transform="scale(1)"><rect height="0.75" width="0.75" x="-0.375" y="-0.375" /></g></g></g></g></g><g transform="translate(1 2)"><g><g><g><g><g /><g transform="rotate(6.13544540687644)"><g style="stroke: #ff9700;stroke-width: 0.02;" transform="scale(1)"><rect height="0.75" width="0.75" x="-0.375" y="-0.375" /></g></g></g><g transform="rotate(-6.100217661757089)"><g style="stroke: #ff9700;stroke-width: 0.02;" transform="scale(1)"><rect height="0.75" width="0.75" x="-0.375" y="-0.375" /></g></g></g><g transform="rotate(0.0539862053103288)"><g style="stroke: #ff9700;stroke-width: 0.02;" transform="scale(1)"><rect height="0.75" width="0.75" x="-0.375" y="-0.375" /></g></g></g><g transform="rotate(-0.2626399277310657)"><g style="stroke: #005fdb;stroke-width: 0.02;" transform="scale(1)"><rect height="0.75" width="0.75" x="-0.375" y="-0.375" /></g></g></g></g></g><g transform="translate(1 3)"><g><g><g><g><g /><g transform="rotate(5.968273632436359)"><g style="stroke: #ff9700;stroke-width: 0.02;" transform="scale(1)"><rect height="0.75" width="0.75" x="-0.375" y="-0.375" /></g></g></g><g transform="rotate(-7.087615858405956)"><g style="stroke: #ff9700;stroke-width: 0.02;" transform="scale(1)"><rect height="0.75" width="0.75" x="-0.375" y="-0.375" /></g></g></g><g transform="rotate(-5.158556557864859)"><g style="stroke: #005fdb;stroke-width: 0.02;" transform="scale(1)"><rect height="0.75" width="0.75" x="-0.375" y="-0.375" /></g></g></g><g transform="rotate(5.434454159353225)"><g style="stroke: #ff9700;stroke-width: 0.02;" transform="scale(1)"><rect height="0.75" width="0.75" x="-0.375" y="-0.375" /></g></g></g></g></g><g transform="translate(2 0)"><g><g><g><g><g /><g transform="rotate(-1.951653107800826)"><g style="stroke: #005fdb;stroke-width: 0.02;" transform="scale(1)"><rect height="0.75" width="0.75" x="-0.375" y="-0.375" /></g></g></g><g transform="rotate(-1.0021142407276775)"><g style="stroke: #005fdb;stroke-width: 0.02;" transform="scale(1)"><rect height="0.75" width="0.75" x="-0.375" y="-0.375" /></g></g></g><g transform="rotate(3.157956911440799)"><g style="stroke: #ff9700;stroke-width: 0.02;" transform="scale(1)"><rect height="0.75" width="0.75" x="-0.375" y="-0.375" /></g></g></g><g transform="rotate(0.8289795700176598)"><g style="stroke: #005fdb;stroke-width: 0.02;" transform="scale(1)"><rect height="0.75" width="0.75" x="-0.375" y="-0.375" /></g></g></g></g></g><g transform="translate(2 1)"><g><g><g><g><g /><g transform="rotate(-1.7254623907485367)"><g style="stroke: #ff9700;stroke-width: 0.02;" transform="scale(1)"><rect height="0.75" width="0.75" x="-0.375" y="-0.375" /></g></g></g><g transform="rotate(2.966677764652196)"><g style="stroke: #005fdb;stroke-width: 0.02;" transform="scale(1)"><rect height="0.75" width="0.75" x="-0.375" y="-0.375" /></g></g></g><g transform="rotate(3.0179333162032966)"><g style="stroke: #ff9700;stroke-width: 0.02;" transform="scale(1)"><rect height="0.75" width="0.75" x="-0.375" y="-0.375" /></g></g></g><g transform="rotate(4.729047472834429)"><g style="stroke: #005fdb;stroke-width: 0.02;" transform="scale(1)"><rect height="0.75" width="0.75" x="-0.375" y="-0.375" /></g></g></g></g></g><g transform="translate(2 2)"><g><g><g><g><g /><g transform="rotate(-6.095835095079602)"><g style="stroke: #ff9700;stroke-width: 0.02;" transform="scale(1)"><rect height="0.75" width="0.75" x="-0.375" y="-0.375" /></g></g></g><g transform="rotate(-4.570715852897346)"><g style="stroke: #005fdb;stroke-width: 0.02;" transform="scale(1)"><rect height="0.75" width="0.75" x="-0.375" y="-0.375" /></g></g></g><g transform="rotate(-5.336534563186679)"><g style="stroke: #ff9700;stroke-width: 0.02;" transform="scale(1)"><rect height="0.75" width="0.75" x="-0.375" y="-0.375" /></g></g></g><g transform="rotate(7.010976206264123)"><g style="stroke: #ff9700;stroke-width: 0.02;" transform="scale(1)"><rect height="0.75" width="0.75" x="-0.375" y="-0.375" /></g></g></g></g></g><g transform="translate(2 3)"><g><g><g><g><g /><g transform="rotate(-0.14567160662258366)"><g style="stroke: #ff9700;stroke-width: 0.02;" transform="scale(1)"><rect height="0.75" width="0.75" x="-0.375" y="-0.375" /></g></g></g><g transform="rotate(0.8877621420107706)"><g style="stroke: #ff9700;stroke-width: 0.02;" transform="scale(1)"><rect height="0.75" width="0.75" x="-0.375" y="-0.375" /></g></g></g><g transform="rotate(0.7139467511074966)"><g style="stroke: #005fdb;stroke-width: 0.02;" transform="scale(1)"><rect height="0.75" width="0.75" x="-0.375" y="-0.375" /></g></g></g><g transform="rotate(-1.3514501274051454)"><g style="stroke: #ff9700;stroke-width: 0.02;" transform="scale(1)"><rect height="0.75" width="0.75" x="-0.375" y="-0.375" /></g></g></g></g></g><g transform="translate(3 0)"><g><g><g><g><g /><g transform="rotate(6.31981388053443)"><g style="stroke: #ff9700;stroke-width: 0.02;" transform="scale(1)"><rect height="0.75" width="0.75" x="-0.375" y="-0.375" /></g></g></g><g transform="rotate(2.1671422754650247)"><g style="stroke: #005fdb;stroke-width: 0.02;" transform="scale(1)"><rect height="0.75" width="0.75" x="-0.375" y="-0.375" /></g></g></g><g transform="rotate(-5.053223675684202)"><g style="stroke: #ff9700;stroke-width: 0.02;" transform="scale(1)"><rect height="0.75" width="0.75" x="-0.375" y="-0.375" /></g></g></g><g transform="rotate(2.3581819106649085)"><g style="stroke: #ff9700;stroke-width: 0.02;" transform="scale(1)"><rect height="0.75" width="0.75" x="-0.375" y="-0.375" /></g></g></g></g></g><g transform="translate(3 1)"><g><g><g><g><g /><g transform="rotate(-3.9800147413571323)"><g style="stroke: #005fdb;stroke-width: 0.02;" transform="scale(1)"><rect height="0.75" width="0.75" x="-0.375" y="-0.375" /></g></g></g><g transform="rotate(-0.1421703629081686)"><g style="stroke: #ff9700;stroke-width: 0.02;" transform="scale(1)"><rect height="0.75" width="0.75" x="-0.375" y="-0.375" /></g></g></g><g transform="rotate(1.4956949222697746)"><g style="stroke: #005fdb;stroke-width: 0.02;" transform="scale(1)"><rect height="0.75" width="0.75" x="-0.375" y="-0.375" /></g></g></g><g transform="rotate(5.976697819815935)"><g style="stroke: #ff9700;stroke-width: 0.02;" transform="scale(1)"><rect height="0.75" width="0.75" x="-0.375" y="-0.375" /></g></g></g></g></g><g transform="translate(3 2)"><g><g><g><g><g /><g transform="rotate(-3.390032744601606)"><g style="stroke: #ff9700;stroke-width: 0.02;" transform="scale(1)"><rect height="0.75" width="0.75" x="-0.375" y="-0.375" /></g></g></g><g transform="rotate(4.106246775049917)"><g style="stroke: #ff9700;stroke-width: 0.02;" transform="scale(1)"><rect height="0.75" width="0.75" x="-0.375" y="-0.375" /></g></g></g><g transform="rotate(-0.10563997504566561)"><g style="stroke: #005fdb;stroke-width: 0.02;" transform="scale(1)"><rect height="0.75" width="0.75" x="-0.375" y="-0.375" /></g></g></g><g transform="rotate(4.450583757692969)"><g style="stroke: #ff9700;stroke-width: 0.02;" transform="scale(1)"><rect height="0.75" width="0.75" x="-0.375" y="-0.375" /></g></g></g></g></g><g transform="translate(3 3)"><g><g><g><g><g /><g transform="rotate(0.688380293355489)"><g style="stroke: #ff9700;stroke-width: 0.02;" transform="scale(1)"><rect height="0.75" width="0.75" x="-0.375" y="-0.375" /></g></g></g><g transform="rotate(-1.3468035936834013)"><g style="stroke: #005fdb;stroke-width: 0.02;" transform="scale(1)"><rect height="0.75" width="0.75" x="-0.375" y="-0.375" /></g></g></g><g transform="rotate(-6.001771648079352)"><g style="stroke: #005fdb;stroke-width: 0.02;" transform="scale(1)"><rect height="0.75" width="0.75" x="-0.375" y="-0.375" /></g></g></g><g transform="rotate(0.41501688454570135)"><g style="stroke: #005fdb;stroke-width: 0.02;" transform="scale(1)"><rect height="0.75" width="0.75" x="-0.375" y="-0.375" /></g></g></g></g></g></g></svg>