<?xml version="1.0" encoding="utf-8" ?>
<svg baseProfile="full" height="256" version="1.1" width="256" xmlns="http://www.w3.org/2000/svg" xmlns:ev="http://www.w3.org/2001/xml-events" xmlns:xlink="http://www.w3.org/1999/xlink"><defs><marker id="arrow" markerHeight="3.5" markerWidth="5" orient="auto" refX="5.0" refY="1.7"><polygon points="0,0 5,1.75 0,3.5" /></marker></defs><g style="fill:white; stroke: black; stroke-width: 1.00;"><g transform="matrix(1.0, 0.0, 0.0, 1.0, 128.0, 127.99869027217777)"><g transform="matrix(64.9869215957152, 0.0, 0.0, 64.9869215957152, 0.0, 0.0)"><g><g transform="matrix(1.0, 0.0, 0.0, 1.0, -1.49998150181978, -1.500037692193416)"><g><g><g><g><g><g><g><g><g><g><g><g><g><g><g><g><g /><g transform="matrix(1.0, 0.0, 0.0, 1.0, 0.0, 0.0)"><g><g><g><g><g /><g transform="matrix(0.9999982613087018, -0.0018647733302928776, 0.0018647733302928776, 0.9999982613087018, 0.0, 0.0)"><g style="stroke: #ff9700;stroke-width: 0.1536;" transform="matrix(1.0, 0.0, 0.0, 1.0, 0.0, 0.0)"><rect height="0.75" style="vector-effect: non-scaling-stroke;" width="0.75" x="-0.375" y="-0.375" /></g></g></g><g transform="matrix(0.999999503155154, 0.0009968397289196551, -0.0009968397289196551, 0.999999503155154, 0.0, 0.0)"><g style="stroke: #005fdb;stroke-width: 0.1536;" transform="matrix(1.0, 0.0, 0.0, 1.0, 0.0, 0.0)"><rect height="0.75" style="vector-effect: non-scaling-stroke;" width="0.75" x="-0.375" y="-0.375" /></g></g></g><g transform="matrix(0.9999998537358421, -0.0005408588488802921, 0.0005408588488802921, 0.9999998537358421, 0.0, 0.0)"><g style="stroke: #ff9700;stroke-width: 0.1536;" transform="matrix(1.0, 0.0, 0.0, 1.0, 0.0, 0.0)"><rect height="0.75" style="vector-effect: non-scaling-stroke;" width="0.75" x="-0.375" y="-0.375" /></g></g></g><g transform="matrix(0.9999982473634926, -0.0018722366151204624, 0.0018722366151204624, 0.9999982473634926, 0.0, 0.0)"><g style="stroke: #005fdb;stroke-width: 0.1536;" transform="matrix(1.0, 0.0, 0.0, 1.0, 0.0, 0.0)"><rect height="0.75" style="vector-effect: non-scaling-stroke;" width="0.75" x="-0.375" y="-0.375" /></g></g></g></g></g><g transform="matrix(1.0, 0.0, 0.0, 1.0, 0.0, 1.0)"><g><g><g><g><g /><g transform="matrix(0.9999989953986254, -0.0014174631353776881, 0.0014174631353776881, 0.9999989953986254, 0.0, 0.0)"><g style="stroke: #005fdb;stroke-width: 0.1536;" transform="matrix(1.0, 0.0, 0.0, 1.0, 0.0, 0.0)"><rect height="0.75" style="vector-effect: non-scaling-stroke;" width="0.75" x="-0.375" y="-0.375" /></g></g></g><g transform="matrix(0.9999996237345956, 0.0008674852548105846, -0.0008674852548105846, 0.9999996237345956, 0.0, 0.0)"><g style="stroke: #ff9700;stroke-width: 0.1536;" transform="matrix(1.0, 0.0, 0.0, 1.0, 0.0, 0.0)"><rect height="0.75" style="vector-effect: non-scaling-stroke;" width="0.75" x="-0.375" y="-0.375" /></g></g></g><g transform="matrix(0.9999983394362261, -0.0018223953441591431, 0.0018223953441591431, 0.9999983394362261, 0.0, 0.0)"><g style="stroke: #ff9700;stroke-width: 0.1536;" transform="matrix(1.0, 0.0, 0.0, 1.0, 0.0, 0.0)"><rect height="0.75" style="vector-effect: non-scaling-stroke;" width="0.75" x="-0.375" y="-0.375" /></g></g></g><g transform="matrix(0.9999999918989828, 0.00012728721177193857, -0.00012728721177193857, 0.9999999918989828, 0.0, 0.0)"><g style="stroke: #ff9700;stroke-width: 0.1536;" transform="matrix(1.0, 0.0, 0.0, 1.0, 0.0, 0.0)"><rect height="0.75" style="vector-effect: non-scaling-stroke;" width="0.75" x="-0.375" y="-0.375" /></g></g></g></g></g><g transform="matrix(1.0, 0.0, 0.0, 1.0, 0.0, 2.0)"><g><g><g><g><g /><g transform="matrix(0.999999954763866, 0.00030078607996468276, -0.00030078607996468276, 0.999999954763866, 0.0, 0.0)"><g style="stroke: #ff9700;stroke-width: 0.1536;" transform="matrix(1.0, 0.0, 0.0, 1.0, 0.0, 0.0)"><rect height="0.75" style="vector-effect: non-scaling-stroke;" width="0.75" x="-0.375" y="-0.375" /></g></g></g><g transform="matrix(0.9999982193227375, -0.0018871543005724097, 0.0018871543005724097, 0.9999982193227375, 0.0, 0.0)"><g style="stroke: #005fdb;stroke-width: 0.1536;" transform="matrix(1.0, 0.0, 0.0, 1.0, 0.0, 0.0)"><rect height="0.75" style="vector-effect: non-scaling-stroke;" width="0.75" x="-0.375" y="-0.375" /></g></g></g><g transform="matrix(0.9999999944824233, 0.00010504833800939233, -0.00010504833800939233, 0.9999999944824233, 0.0, 0.0)"><g style="stroke: #005fdb;stroke-width: 0.1536;" transform="matrix(1.0, 0.0, 0.0, 1.0, 0.0, 0.0)"><rect height="0.75" style="vector-effect: non-scaling-stroke;" width="0.75" x="-0.375" y="-0.375" /></g></g></g><g transform="matrix(0.9999994011736913, 0.0010943729979654487, -0.0010943729979654487, 0.9999994011736913, 0.0, 0.0)"><g style="stroke: #005fdb;stroke-width: 0.1536;" transform="matrix(1.0, 0.0, 0.0, 1.0, 0.0, 0.0)"><rect height="0.75" style="vector-effect: non-scaling-stroke;" width="0.75" x="-0.375" y="-0.375" /></g></g></g></g></g><g transform="matrix(1.0, 0.0, 0.0, 1.0, 0.0, 3.0)"><g><g><g><g><g /><g transform="matrix(0.9999999752424595, -0.00022251984236074476, 0.00022251984236074476, 0.9999999752424595, 0.0, 0.0)"><g style="stroke: #ff9700;stroke-width: 0.1536;" transform="matrix(1.0, 0.0, 0.0, 1.0, 0.0, 0.0)"><rect height="0.75" style="vector-effect: non-scaling-stroke;" width="0.75" x="-0.375" y="-0.375" /></g></g></g><g transform="matrix(0.9999994961043632, -0.0010038879516930201, 0.0010038879516930201, 0.9999994961043632, 0.0, 0.0)"><g style="stroke: #ff9700;stroke-width: 0.1536;" transform="matrix(1.0, 0.0, 0.0, 1.0, 0.0, 0.0)"><rect height="0.75" style="vector-effect: non-scaling-stroke;" width="0.75" x="-0.375" y="-0.375" /></g></g></g><g transform="matrix(0.9999988984246098, -0.0014843010365201011, 0.0014843010365201011, 0.9999988984246098, 0.0, 0.0)"><g style="stroke: #ff9700;stroke-width: 0.1536;" transform="matrix(1.0, 0.0, 0.0, 1.0, 0.0, 0.0)"><rect height="0.75" style="vector-effect: non-scaling-stroke;" width="0.75" x="-0.375" y="-0.375" /></g></g></g><g transform="matrix(0.999997402148867, 0.0022794068344829752, -0.0022794068344829752, 0.999997402148867, 0.0, 0.0)"><g style="stroke: #ff9700;stroke-width: 0.1536;" transform="matrix(1.0, 0.0, 0.0, 1.0, 0.0, 0.0)"><rect height="0.75" style="vector-effect: non-scaling-stroke;" width="0.75" x="-0.375" y="-0.375" /></g></g></g></g></g><g transform="matrix(1.0, 0.0, 0.0, 1.0, 1.0, 0.0)"><g><g><g><g><g /><g transform="matrix(0.999998589349412, -0.0016796723448449483, 0.0016796723448449483, 0.999998589349412, 0.0, 0.0)"><g style="stroke: #ff9700;stroke-width: 0.1536;" transform="matrix(1.0, 0.0, 0.0, 1.0, 0.0, 0.0)"><rect height="0.75" style="vector-effect: non-scaling-stroke;" width="0.75" x="-0.375" y="-0.375" /></g></g></g><g transform="matrix(0.9999996810496028, 0.0007986868552343566, -0.0007986868552343566, 0.9999996810496028, 0.0, 0.0)"><g style="stroke: #005fdb;stroke-width: 0.1536;" transform="matrix(1.0, 0.0, 0.0, 1.0, 0.0, 0.0)"><rect height="0.75" style="vector-effect: non-scaling-stroke;" width="0.75" x="-0.375" y="-0.375" /></g></g></g><g transform="matrix(0.9999990036996864, 0.001411594713315624, -0.001411594713315624, 0.9999990036996864, 0.0, 0.0)"><g style="stroke: #ff9700;stroke-width: 0.1536;" transform="matrix(1.0, 0.0, 0.0, 1.0, 0.0, 0.0)"><rect height="0.75" style="vector-effect: non-scaling-stroke;" width="0.75" x="-0.375" y="-0.375" /></g></g></g><g transform="matrix(0.9999992867854772, 0.0011943318370405296, -0.0011943318370405296, 0.9999992867854772, 0.0, 0.0)"><g style="stroke: #005fdb;stroke-width: 0.1536;" transform="matrix(1.0, 0.0, 0.0, 1.0, 0.0, 0.0)"><rect height="0.75" style="vector-effect: non-scaling-stroke;" width="0.75" x="-0.375" y="-0.375" /></g></g></g></g></g><g transform="matrix(1.0, 0.0, 0.0, 1.0, 1.0, 1.0)"><g><g><g><g><g /><g transform="matrix(0.9999990404634989, -0.0013853057718810774, 0.0013853057718810774, 0.9999990404634989, 0.0, 0.0)"><g style="stroke: #ff9700;stroke-width: 0.1536;" transform="matrix(1.0, 0.0, 0.0, 1.0, 0.0, 0.0)"><rect height="0.75" style="vector-effect: non-scaling-stroke;" width="0.75" x="-0.375" y="-0.375" /></g></g></g><g transform="matrix(0.9999981624550677, 0.001917051508975481, -0.001917051508975481, 0.9999981624550677, 0.0, 0.0)"><g style="stroke: #ff9700;stroke-width: 0.1536;" transform="matrix(1.0, 0.0, 0.0, 1.0, 0.0, 0.0)"><rect height="0.75" style="vector-effect: non-scaling-stroke;" width="0.75" x="-0.375" y="-0.375" /></g></g></g><g transform="matrix(0.9999999993417766, -3.628287053302687e-05, 3.628287053302687e-05, 0.9999999993417766, 0.0, 0.0)"><g style="stroke: #005fdb;stroke-width: 0.1536;" transform="matrix(1.0, 0.0, 0.0, 1.0, 0.0, 0.0)"><rect height="0.75" style="vector-effect: non-scaling-stroke;" width="0.75" x="-0.375" y="-0.375" /></g></g></g><g transform="matrix(0.999998404536473, 0.0017863159038737733, -0.0017863159038737733, 0.999998404536473, 0.0, 0.0)"><g style="stroke: #ff9700;stroke-width: 0.1536;" transform="matrix(1.0, 0.0, 0.0, 1.0, 0.0, 0.0)"><rect height="0.75" style="vector-effect: non-scaling-stroke;" width="0.75" x="-0.375" y="-0.375" /></g></g></g></g></g><g transform="matrix(1.0, 0.0, 0.0, 1.0, 1.0, 2.0)"><g><g><g><g><g /><g transform="matrix(0.9999995545896148, -0.0009438329153863312, 0.0009438329153863312, 0.9999995545896148, 0.0, 0.0)"><g style="stroke: #ff9700;stroke-width: 0.1536;" transform="matrix(1.0, 0.0, 0.0, 1.0, 0.0, 0.0)"><rect height="0.75" style="vector-effect: non-scaling-stroke;" width="0.75" x="-0.375" y="-0.375" /></g></g></g><g transform="matrix(0.999998967686289, -0.0014368807731259506, 0.0014368807731259506, 0.999998967686289, 0.0, 0.0)"><g style="stroke: #ff9700;stroke-width: 0.1536;" transform="matrix(1.0, 0.0, 0.0, 1.0, 0.0, 0.0)"><rect height="0.75" style="vector-effect: non-scaling-stroke;" width="0.75" x="-0.375" y="-0.375" /></g></g></g><g transform="matrix(0.9999977540736863, -0.0021193979294104157, 0.0021193979294104157, 0.9999977540736863, 0.0, 0.0)"><g style="stroke: #ff9700;stroke-width: 0.1536;" transform="matrix(1.0, 0.0, 0.0, 1.0, 0.0, 0.0)"><rect height="0.75" style="vector-effect: non-scaling-stroke;" width="0.75" x="-0.375" y="-0.375" /></g></g></g><g transform="matrix(0.9999999198618373, -0.00040034524958180686, 0.00040034524958180686, 0.9999999198618373, 0.0, 0.0)"><g style="stroke: #ff9700;stroke-width: 0.1536;" transform="matrix(1.0, 0.0, 0.0, 1.0, 0.0, 0.0)"><rect height="0.75" style="vector-effect: non-scaling-stroke;" width="0.75" x="-0.375" y="-0.375" /></g></g></g></g></g><g transform="matrix(1.0, 0.0, 0.0, 1.0, 1.0, 3.0)"><g><g><g><g><g /><g transform="matrix(0.9999999032176755, -0.00043995981582864153, 0.00043995981582864153, 0.9999999032176755, 0.0, 0.0)"><g style="stroke: #ff9700;stroke-width: 0.1536;" transform="matrix(1.0, 0.0, 0.0, 1.0, 0.0, 0.0)"><rect height="0.75" style="vector-effect: non-scaling-stroke;" width="0.75" x="-0.375" y="-0.375" /></g></g></g><g transform="matrix(0.9999999402563851, -0.00034566924420349743, 0.00034566924420349743, 0.9999999402563851, 0.0, 0.0)"><g style="stroke: #ff9700;stroke-width: 0.1536;" transform="matrix(1.0, 0.0, 0.0, 1.0, 0.0, 0.0)"><rect height="0.75" style="vector-effect: non-scaling-stroke;" width="0.75" x="-0.375" y="-0.375" /></g></g></g><g transform="matrix(0.9999989928617926, 0.001419251704426301, -0.001419251704426301, 0.9999989928617926, 0.0, 0.0)"><g style="stroke: #ff9700;stroke-width: 0.1536;" transform="matrix(1.0, 0.0, 0.0, 1.0, 0.0, 0.0)"><rect height="0.75" style="vector-effect: non-scaling-stroke;" width="0.75" x="-0.375" y="-0.375" /></g></g></g><g transform="matrix(0.9999998672380459, -0.0005152901032871185, 0.0005152901032871185, 0.9999998672380459, 0.0, 0.0)"><g style="stroke: #ff9700;stroke-width: 0.1536;" transform="matrix(1.0, 0.0, 0.0, 1.0, 0.0, 0.0)"><rect height="0.75" style="vector-effect: non-scaling-stroke;" width="0.75" x="-0.375" y="-0.375" /></g></g></g></g></g><g transform="matrix(1.0, 0.0, 0.0, 1.0, 2.0, 0.0)"><g><g><g><g><g /><g transform="matrix(0.9999999942502169, 0.00010723602967998844, -0.00010723602967998844, 0.9999999942502169, 0.0, 0.0)"><g style="stroke: #ff9700;stroke-width: 0.1536;" transform="matrix(1.0, 0.0, 0.0, 1.0, 0.0, 0.0)"><rect height="0.75" style="vector-effect: non-scaling-stroke;" width="0.75" x="-0.375" y="-0.375" /></g></g></g><g transform="matrix(0.9999993072653931, -0.0011770593587486294, 0.0011770593587486294, 0.9999993072653931, 0.0, 0.0)"><g style="stroke: #005fdb;stroke-width: 0.1536;" transform="matrix(1.0, 0.0, 0.0, 1.0, 0.0, 0.0)"><rect height="0.75" style="vector-effect: non-scaling-stroke;" width="0.75" x="-0.375" y="-0.375" /></g></g></g><g transform="matrix(0.999998128780999, -0.0019345372833149256, 0.0019345372833149256, 0.999998128780999, 0.0, 0.0)"><g style="stroke: #005fdb;stroke-width: 0.1536;" transform="matrix(1.0, 0.0, 0.0, 1.0, 0.0, 0.0)"><rect height="0.75" style="vector-effect: non-scaling-stroke;" width="0.75" x="-0.375" y="-0.375" /></g></g></g><g transform="matrix(0.99999834497045, -0.0018193560291501947, 0.0018193560291501947, 0.99999834497045, 0.0, 0.0)"><g style="stroke: #005fdb;stroke-width: 0.1536;" transform="matrix(1.0, 0.0, 0.0, 1.0, 0.0, 0.0)"><rect height="0.75" style="vector-effect: non-scaling-stroke;" width="0.75" x="-0.375" y="-0.375" /></g></g></g></g></g><g transform="matrix(1.0, 0.0, 0.0, 1.0, 2.0, 1.0)"><g><g><g><g><g /><g transform="matrix(0.999999982792711, -0.00018551166465410448, 0.00018551166465410448, 0.999999982792711, 0.0, 0.0)"><g style="stroke: #ff9700;stroke-width: 0.1536;" transform="matrix(1.0, 0.0, 0.0, 1.0, 0.0, 0.0)"><rect height="0.75" style="vector-effect: non-scaling-stroke;" width="0.75" x="-0.375" y="-0.375" /></g></g></g><g transform="matrix(0.999999560084135, -0.000937993356284309, 0.000937993356284309, 0.999999560084135, 0.0, 0.0)"><g style="stroke: #ff9700;stroke-width: 0.1536;" transform="matrix(1.0, 0.0, 0.0, 1.0, 0.0, 0.0)"><rect height="0.75" style="vector-effect: non-scaling-stroke;" width="0.75" x="-0.375" y="-0.375" /></g></g></g><g transform="matrix(0.9999989862360601, -0.0014239125155864317, 0.0014239125155864317, 0.9999989862360601, 0.0, 0.0)"><g style="stroke: #005fdb;stroke-width: 0.1536;" transform="matrix(1.0, 0.0, 0.0, 1.0, 0.0, 0.0)"><rect height="0.75" style="vector-effect: non-scaling-stroke;" width="0.75" x="-0.375" y="-0.375" /></g></g></g><g transform="matrix(0.9999983709224841, -0.0018050352844093537, 0.0018050352844093537, 0.9999983709224841, 0.0, 0.0)"><g style="stroke: #ff9700;stroke-width: 0.1536;" transform="matrix(1.0, 0.0, 0.0, 1.0, 0.0, 0.0)"><rect height="0.75" style="vector-effect: non-scaling-stroke;" width="0.75" x="-0.375" y="-0.375" /></g></g></g></g></g><g transform="matrix(1.0, 0.0, 0.0, 1.0, 2.0, 2.0)"><g><g><g><g><g /><g transform="matrix(0.9999978882966555, -0.0020550917813373514, 0.0020550917813373514, 0.9999978882966555, 0.0, 0.0)"><g style="stroke: #ff9700;stroke-width: 0.1536;" transform="matrix(1.0, 0.0, 0.0, 1.0, 0.0, 0.0)"><rect height="0.75" style="vector-effect: non-scaling-stroke;" width="0.75" x="-0.375" y="-0.375" /></g></g></g><g transform="matrix(0.9999999744868352, 0.00022589008158334234, -0.00022589008158334234, 0.9999999744868352, 0.0, 0.0)"><g style="stroke: #ff9700;stroke-width: 0.1536;" transform="matrix(1.0, 0.0, 0.0, 1.0, 0.0, 0.0)"><rect height="0.75" style="vector-effect: non-scaling-stroke;" width="0.75" x="-0.375" y="-0.375" /></g></g></g><g transform="matrix(0.9999974291510088, -0.0022675297954312897, 0.0022675297954312897, 0.9999974291510088, 0.0, 0.0)"><g style="stroke: #005fdb;stroke-width: 0.1536;" transform="matrix(1.0, 0.0, 0.0, 1.0, 0.0, 0.0)"><rect height="0.75" style="vector-effect: non-scaling-stroke;" width="0.75" x="-0.375" y="-0.375" /></g></g></g><g transform="matrix(0.9999991018262968, -0.001340278553029227, 0.001340278553029227, 0.9999991018262968, 0.0, 0.0)"><g style="stroke: #ff9700;stroke-width: 0.1536;" transform="matrix(1.0, 0.0, 0.0, 1.0, 0.0, 0.0)"><rect height="0.75" style="vector-effect: non-scaling-stroke;" width="0.75" x="-0.375" y="-0.375" /></g></g></g></g></g><g transform="matrix(1.0, 0.0, 0.0, 1.0, 2.0, 3.0)"><g><g><g><g><g /><g transform="matrix(0.9999998672146762, -0.0005153354539858632, 0.0005153354539858632, 0.9999998672146762, 0.0, 0.0)"><g style="stroke: #ff9700;stroke-width: 0.1536;" transform="matrix(1.0, 0.0, 0.0, 1.0, 0.0, 0.0)"><rect height="0.75" style="vector-effect: non-scaling-stroke;" width="0.75" x="-0.375" y="-0.375" /></g></g></g><g transform="matrix(0.9999998231795159, -0.0005946771703733083, 0.0005946771703733083, 0.9999998231795159, 0.0, 0.0)"><g style="stroke: #005fdb;stroke-width: 0.1536;" transform="matrix(1.0, 0.0, 0.0, 1.0, 0.0, 0.0)"><rect height="0.75" style="vector-effect: non-scaling-stroke;" width="0.75" x="-0.375" y="-0.375" /></g></g></g><g transform="matrix(0.9999993107007776, 0.001174137116992206, -0.001174137116992206, 0.9999993107007776, 0.0, 0.0)"><g style="stroke: #ff9700;stroke-width: 0.1536;" transform="matrix(1.0, 0.0, 0.0, 1.0, 0.0, 0.0)"><rect height="0.75" style="vector-effect: non-scaling-stroke;" width="0.75" x="-0.375" y="-0.375" /></g></g></g><g transform="matrix(0.9999984697766704, 0.0017494125635841204, -0.0017494125635841204, 0.9999984697766704, 0.0, 0.0)"><g style="stroke: #ff9700;stroke-width: 0.1536;" transform="matrix(1.0, 0.0, 0.0, 1.0, 0.0, 0.0)"><rect height="0.75" style="vector-effect: non-scaling-stroke;" width="0.75" x="-0.375" y="-0.375" /></g></g></g></g></g><g transform="matrix(1.0, 0.0, 0.0, 1.0, 3.0, 0.0)"><g><g><g><g><g /><g transform="matrix(0.9999990941063714, -0.001346026164881326, 0.001346026164881326, 0.9999990941063714, 0.0, 0.0)"><g style="stroke: #ff9700;stroke-width: 0.1536;" transform="matrix(1.0, 0.0, 0.0, 1.0, 0.0, 0.0)"><rect height="0.75" style="vector-effect: non-scaling-stroke;" width="0.75" x="-0.375" y="-0.375" /></g></g></g><g transform="matrix(0.999998958169234, -0.0014434889838530712, 0.0014434889838530712, 0.999998958169234, 0.0, 0.0)"><g style="stroke: #ff9700;stroke-width: 0.1536;" transform="matrix(1.0, 0.0, 0.0, 1.0, 0.0, 0.0)"><rect height="0.75" style="vector-effect: non-scaling-stroke;" width="0.75" x="-0.375" y="-0.375" /></g></g></g><g transform="matrix(0.9999986944654381, 0.0016158797663594366, -0.0016158797663594366, 0.9999986944654381, 0.0, 0.0)"><g style="stroke: #ff9700;stroke-width: 0.1536;" transform="matrix(1.0, 0.0, 0.0, 1.0, 0.0, 0.0)"><rect height="0.75" style="vector-effect: non-scaling-stroke;" width="0.75" x="-0.375" y="-0.375" /></g></g></g><g transform="matrix(0.9999978410743686, 0.0020779428774289703, -0.0020779428774289703, 0.9999978410743686, 0.0, 0.0)"><g style="stroke: #ff9700;stroke-width: 0.1536;" transform="matrix(1.0, 0.0, 0.0, 1.0, 0.0, 0.0)"><rect height="0.75" style="vector-effect: non-scaling-stroke;" width="0.75" x="-0.375" y="-0.375" /></g></g></g></g></g><g transform="matrix(1.0, 0.0, 0.0, 1.0, 3.0, 1.0)"><g><g><g><g><g /><g transform="matrix(0.9999982450550177, -0.00187346921108686, 0.00187346921108686, 0.9999982450550177, 0.0, 0.0)"><g style="stroke: #ff9700;stroke-width: 0.1536;" transform="matrix(1.0, 0.0, 0.0, 1.0, 0.0, 0.0)"><rect height="0.75" style="vector-effect: non-scaling-stroke;" width="0.75" x="-0.375" y="-0.375" /></g></g></g><g transform="matrix(0.9999996595563861, -0.0008251588403994846, 0.0008251588403994846, 0.9999996595563861, 0.0, 0.0)"><g style="stroke: #ff9700;stroke-width: 0.1536;" transform="matrix(1.0, 0.0, 0.0, 1.0, 0.0, 0.0)"><rect height="0.75" style="vector-effect: non-scaling-stroke;" width="0.75" x="-0.375" y="-0.375" /></g></g></g><g transform="matrix(0.9999998097481291, -0.0006168498243110503, 0.0006168498243110503, 0.9999998097481291, 0.0, 0.0)"><g style="stroke: #ff9700;stroke-width: 0.1536;" transform="matrix(1.0, 0.0, 0.0, 1.0, 0.0, 0.0)"><rect height="0.75" style="vector-effect: non-scaling-stroke;" width="0.75" x="-0.375" y="-0.375" /></g></g></g><g transform="matrix(0.999999939778543, -0.0003470488588518322, 0.0003470488588518322, 0.999999939778543, 0.0, 0.0)"><g style="stroke: #ff9700;stroke-width: 0.1536;" transform="matrix(1.0, 0.0, 0.0, 1.0, 0.0, 0.0)"><rect height="0.75" style="vector-effect: non-scaling-stroke;" width="0.75" x="-0.375" y="-0.375" /></g></g></g></g></g><g transform="matrix(1.0, 0.0, 0.0, 1.0, 3.0, 2.0)"><g><g><g><g><g /><g transform="matrix(0.9999998239592638, 0.0005933645098082406, -0.0005933645098082406, 0.9999998239592638, 0.0, 0.0)"><g style="stroke: #005fdb;stroke-width: 0.1536;" transform="matrix(1.0, 0.0, 0.0, 1.0, 0.0, 0.0)"><rect height="0.75" style="vector-effect: non-scaling-stroke;" width="0.75" x="-0.375" y="-0.375" /></g></g></g><g transform="matrix(0.9999977563061219, 0.002118344335123693, -0.002118344335123693, 0.9999977563061219, 0.0, 0.0)"><g style="stroke: #ff9700;stroke-width: 0.1536;" transform="matrix(1.0, 0.0, 0.0, 1.0, 0.0, 0.0)"><rect height="0.75" style="vector-effect: non-scaling-stroke;" width="0.75" x="-0.375" y="-0.375" /></g></g></g><g transform="matrix(0.999997781177213, -0.002106570827376132, 0.002106570827376132, 0.999997781177213, 0.0, 0.0)"><g style="stroke: #ff9700;stroke-width: 0.1536;" transform="matrix(1.0, 0.0, 0.0, 1.0, 0.0, 0.0)"><rect height="0.75" style="vector-effect: non-scaling-stroke;" width="0.75" x="-0.375" y="-0.375" /></g></g></g><g transform="matrix(0.9999985233426879, 0.0017185204228463361, -0.0017185204228463361, 0.9999985233426879, 0.0, 0.0)"><g style="stroke: #ff9700;stroke-width: 0.1536;" transform="matrix(1.0, 0.0, 0.0, 1.0, 0.0, 0.0)"><rect height="0.75" style="vector-effect: non-scaling-stroke;" width="0.75" x="-0.375" y="-0.375" /></g></g></g></g></g><g transform="matrix(1.0, 0.0, 0.0, 1.0, 3.0, 3.0)"><g><g><g><g><g /><g transform="matrix(0.9999990558014066, -0.001374189322947407, 0.001374189322947407, 0.9999990558014066, 0.0, 0.0)"><g style="stroke: #005fdb;stroke-width: 0.1536;" transform="matrix(1.0, 0.0, 0.0, 1.0, 0.0, 0.0)"><rect height="0.75" style="vector-effect: non-scaling-stroke;" width="0.75" x="-0.375" y="-0.375" /></g></g></g><g transform="matrix(0.9999976226429873, 0.0021805293791886567, -0.0021805293791886567, 0.9999976226429873, 0.0, 0.0)"><g style="stroke: #ff9700;stroke-width: 0.1536;" transform="matrix(1.0, 0.0, 0.0, 1.0, 0.0, 0.0)"><rect height="0.75" style="vector-effect: non-scaling-stroke;" width="0.75" x="-0.375" y="-0.375" /></g></g></g><g transform="matrix(0.9999983422537807, 0.0018208486182282654, -0.0018208486182282654, 0.9999983422537807, 0.0, 0.0)"><g style="stroke: #ff9700;stroke-width: 0.1536;" transform="matrix(1.0, 0.0, 0.0, 1.0, 0.0, 0.0)"><rect height="0.75" style="vector-effect: non-scaling-stroke;" width="0.75" x="-0.375" y="-0.375" /></g></g></g><g transform="matrix(0.9999991864173206, 0.0012756036598377627, -0.0012756036598377627, 0.9999991864173206, 0.0, 0.0)"><g style="stroke: #ff9700;stroke-width: 0.1536;" transform="matrix(1.0, 0.0, 0.0, 1.0, 0.0, 0.0)"><rect height="0.75" style="vector-effect: non-scaling-stroke;" width="0.75" x="-0.375" y="-0.375" /></g></g></g></g></g></g><g /></g></g></g></g></svg>