<?xml version="1.0" encoding="utf-8" ?>
<svg baseProfile="full" height="256" version="1.1" width="255" xmlns="http://www.w3.org/2000/svg" xmlns:ev="http://www.w3.org/2001/xml-events" xmlns:xlink="http://www.w3.org/1999/xlink"><defs><marker id="arrow" markerHeight="3.5" markerWidth="5" orient="auto" refX="5.0" refY="1.7"><polygon points="0,0 5,1.75 0,3.5" /></marker></defs><g style="fill:white; stroke: black; stroke-width: 0.01;" transform="scale(63.0) translate(0.43530445092042946 0.43952201177314976)"><g style="stroke-width: 0.02;"><g><g><g><g><g><g><g><g><g><g><g><g><g><g><g><g><g /><g transform="translate(0 0)"><g><g><g><g><g /><g transform="rotate(5.194430988261768)"><g style="stroke: #ff9700;"><g style=";" transform="scale(1)"><rect height="0.75" width="0.75" x="-0.375" y="-0.375" /></g></g></g></g><g transform="rotate(5.607298971371329)"><g style="stroke: #ff9700;"><g style=";" transform="scale(1)"><rect height="0.75" width="0.75" x="-0.375" y="-0.375" /></g></g></g></g><g transform="rotate(5.225005696227805)"><g style="stroke: #005fdb;"><g style=";" transform="scale(1)"><rect height="0.75" width="0.75" x="-0.375" y="-0.375" /></g></g></g></g><g transform="rotate(-0.2707850608786349)"><g style="stroke: #ff9700;"><g style=";" transform="scale(1)"><rect height="0.75" width="0.75" x="-0.375" y="-0.375" /></g></g></g></g></g></g><g transform="translate(0 1)"><g><g><g><g><g /><g transform="rotate(2.4464165123594945)"><g style="stroke: #ff9700;"><g style=";" transform="scale(1)"><rect height="0.75" width="0.75" x="-0.375" y="-0.375" /></g></g></g></g><g transform="rotate(-2.000700467152214)"><g style="stroke: #ff9700;"><g style=";" transform="scale(1)"><rect height="0.75" width="0.75" x="-0.375" y="-0.375" /></g></g></g></g><g transform="rotate(6.361317596650488)"><g style="stroke: #ff9700;"><g style=";" transform="scale(1)"><rect height="0.75" width="0.75" x="-0.375" y="-0.375" /></g></g></g></g><g transform="rotate(-2.983991242450797)"><g style="stroke: #ff9700;"><g style=";" transform="scale(1)"><rect height="0.75" width="0.75" x="-0.375" y="-0.375" /></g></g></g></g></g></g><g transform="translate(0 2)"><g><g><g><g><g /><g transform="rotate(-2.7620270874071573)"><g style="stroke: #005fdb;"><g style=";" transform="scale(1)"><rect height="0.75" width="0.75" x="-0.375" y="-0.375" /></g></g></g></g><g transform="rotate(-2.520840967996303)"><g style="stroke: #ff9700;"><g style=";" transform="scale(1)"><rect height="0.75" width="0.75" x="-0.375" y="-0.375" /></g></g></g></g><g transform="rotate(-6.419373000482915)"><g style="stroke: #ff9700;"><g style=";" transform="scale(1)"><rect height="0.75" width="0.75" x="-0.375" y="-0.375" /></g></g></g></g><g transform="rotate(1.1203933132403712)"><g style="stroke: #ff9700;"><g style=";" transform="scale(1)"><rect height="0.75" width="0.75" x="-0.375" y="-0.375" /></g></g></g></g></g></g><g transform="translate(0 3)"><g><g><g><g><g /><g transform="rotate(5.538848327358275)"><g style="stroke: #ff9700;"><g style=";" transform="scale(1)"><rect height="0.75" width="0.75" x="-0.375" y="-0.375" /></g></g></g></g><g transform="rotate(-5.587423990755198)"><g style="stroke: #ff9700;"><g style=";" transform="scale(1)"><rect height="0.75" width="0.75" x="-0.375" y="-0.375" /></g></g></g></g><g transform="rotate(-0.9948996147906001)"><g style="stroke: #ff9700;"><g style=";" transform="scale(1)"><rect height="0.75" width="0.75" x="-0.375" y="-0.375" /></g></g></g></g><g transform="rotate(4.2090817388195445)"><g style="stroke: #ff9700;"><g style=";" transform="scale(1)"><rect height="0.75" width="0.75" x="-0.375" y="-0.375" /></g></g></g></g></g></g><g transform="translate(1 0)"><g><g><g><g><g /><g transform="rotate(2.6242667166369484)"><g style="stroke: #005fdb;"><g style=";" transform="scale(1)"><rect height="0.75" width="0.75" x="-0.375" y="-0.375" /></g></g></g></g><g transform="rotate(1.4104096052228534)"><g style="stroke: #ff9700;"><g style=";" transform="scale(1)"><rect height="0.75" width="0.75" x="-0.375" y="-0.375" /></g></g></g></g><g transform="rotate(4.522568186753421)"><g style="stroke: #005fdb;"><g style=";" transform="scale(1)"><rect height="0.75" width="0.75" x="-0.375" y="-0.375" /></g></g></g></g><g transform="rotate(2.191680476345435)"><g style="stroke: #ff9700;"><g style=";" transform="scale(1)"><rect height="0.75" width="0.75" x="-0.375" y="-0.375" /></g></g></g></g></g></g><g transform="translate(1 1)"><g><g><g><g><g /><g transform="rotate(4.430391726843977)"><g style="stroke: #ff9700;"><g style=";" transform="scale(1)"><rect height="0.75" width="0.75" x="-0.375" y="-0.375" /></g></g></g></g><g transform="rotate(0.3455517047263059)"><g style="stroke: #ff9700;"><g style=";" transform="scale(1)"><rect height="0.75" width="0.75" x="-0.375" y="-0.375" /></g></g></g></g><g transform="rotate(7.280354589803903)"><g style="stroke: #ff9700;"><g style=";" transform="scale(1)"><rect height="0.75" width="0.75" x="-0.375" y="-0.375" /></g></g></g></g><g transform="rotate(0.7649255098283988)"><g style="stroke: #ff9700;"><g style=";" transform="scale(1)"><rect height="0.75" width="0.75" x="-0.375" y="-0.375" /></g></g></g></g></g></g><g transform="translate(1 2)"><g><g><g><g><g /><g transform="rotate(-6.824645312342216)"><g style="stroke: #005fdb;"><g style=";" transform="scale(1)"><rect height="0.75" width="0.75" x="-0.375" y="-0.375" /></g></g></g></g><g transform="rotate(-1.1672175929233304)"><g style="stroke: #005fdb;"><g style=";" transform="scale(1)"><rect height="0.75" width="0.75" x="-0.375" y="-0.375" /></g></g></g></g><g transform="rotate(-3.253540846598613)"><g style="stroke: #005fdb;"><g style=";" transform="scale(1)"><rect height="0.75" width="0.75" x="-0.375" y="-0.375" /></g></g></g></g><g transform="rotate(7.299602402062556)"><g style="stroke: #ff9700;"><g style=";" transform="scale(1)"><rect height="0.75" width="0.75" x="-0.375" y="-0.375" /></g></g></g></g></g></g><g transform="translate(1 3)"><g><g><g><g><g /><g transform="rotate(-4.641509831504088)"><g style="stroke: #ff9700;"><g style=";" transform="scale(1)"><rect height="0.75" width="0.75" x="-0.375" y="-0.375" /></g></g></g></g><g transform="rotate(-4.069618042873388)"><g style="stroke: #ff9700;"><g style=";" transform="scale(1)"><rect height="0.75" width="0.75" x="-0.375" y="-0.375" /></g></g></g></g><g transform="rotate(7.2864243705130605)"><g style="stroke: #ff9700;"><g style=";" transform="scale(1)"><rect height="0.75" width="0.75" x="-0.375" y="-0.375" /></g></g></g></g><g transform="rotate(2.835825371636769)"><g style="stroke: #ff9700;"><g style=";" transform="scale(1)"><rect height="0.75" width="0.75" x="-0.375" y="-0.375" /></g></g></g></g></g></g><g transform="translate(2 0)"><g><g><g><g><g /><g transform="rotate(6.2833310896845305)"><g style="stroke: #ff9700;"><g style=";" transform="scale(1)"><rect height="0.75" width="0.75" x="-0.375" y="-0.375" /></g></g></g></g><g transform="rotate(2.655892194899399)"><g style="stroke: #005fdb;"><g style=";" transform="scale(1)"><rect height="0.75" width="0.75" x="-0.375" y="-0.375" /></g></g></g></g><g transform="rotate(6.125861694024113)"><g style="stroke: #ff9700;"><g style=";" transform="scale(1)"><rect height="0.75" width="0.75" x="-0.375" y="-0.375" /></g></g></g></g><g transform="rotate(2.17819759915921)"><g style="stroke: #ff9700;"><g style=";" transform="scale(1)"><rect height="0.75" width="0.75" x="-0.375" y="-0.375" /></g></g></g></g></g></g><g transform="translate(2 1)"><g><g><g><g><g /><g transform="rotate(-5.565064217204962)"><g style="stroke: #ff9700;"><g style=";" transform="scale(1)"><rect height="0.75" width="0.75" x="-0.375" y="-0.375" /></g></g></g></g><g transform="rotate(-2.0973316933571495)"><g style="stroke: #ff9700;"><g style=";" transform="scale(1)"><rect height="0.75" width="0.75" x="-0.375" y="-0.375" /></g></g></g></g><g transform="rotate(5.090210852452403)"><g style="stroke: #ff9700;"><g style=";" transform="scale(1)"><rect height="0.75" width="0.75" x="-0.375" y="-0.375" /></g></g></g></g><g transform="rotate(-6.111956909259005)"><g style="stroke: #005fdb;"><g style=";" transform="scale(1)"><rect height="0.75" width="0.75" x="-0.375" y="-0.375" /></g></g></g></g></g></g><g transform="translate(2 2)"><g><g><g><g><g /><g transform="rotate(2.6166420397752908)"><g style="stroke: #005fdb;"><g style=";" transform="scale(1)"><rect height="0.75" width="0.75" x="-0.375" y="-0.375" /></g></g></g></g><g transform="rotate(6.233419582280968)"><g style="stroke: #005fdb;"><g style=";" transform="scale(1)"><rect height="0.75" width="0.75" x="-0.375" y="-0.375" /></g></g></g></g><g transform="rotate(-7.356505179212464)"><g style="stroke: #ff9700;"><g style=";" transform="scale(1)"><rect height="0.75" width="0.75" x="-0.375" y="-0.375" /></g></g></g></g><g transform="rotate(-0.13352930213805828)"><g style="stroke: #ff9700;"><g style=";" transform="scale(1)"><rect height="0.75" width="0.75" x="-0.375" y="-0.375" /></g></g></g></g></g></g><g transform="translate(2 3)"><g><g><g><g><g /><g transform="rotate(-0.007357303618749405)"><g style="stroke: #ff9700;"><g style=";" transform="scale(1)"><rect height="0.75" width="0.75" x="-0.375" y="-0.375" /></g></g></g></g><g transform="rotate(-6.828053689744814)"><g style="stroke: #ff9700;"><g style=";" transform="scale(1)"><rect height="0.75" width="0.75" x="-0.375" y="-0.375" /></g></g></g></g><g transform="rotate(2.1478647639574047)"><g style="stroke: #ff9700;"><g style=";" transform="scale(1)"><rect height="0.75" width="0.75" x="-0.375" y="-0.375" /></g></g></g></g><g transform="rotate(-2.459337181103054)"><g style="stroke: #ff9700;"><g style=";" transform="scale(1)"><rect height="0.75" width="0.75" x="-0.375" y="-0.375" /></g></g></g></g></g></g><g transform="translate(3 0)"><g><g><g><g><g /><g transform="rotate(-2.19592830263669)"><g style="stroke: #005fdb;"><g style=";" transform="scale(1)"><rect height="0.75" width="0.75" x="-0.375" y="-0.375" /></g></g></g></g><g transform="rotate(5.32796196305836)"><g style="stroke: #ff9700;"><g style=";" transform="scale(1)"><rect height="0.75" width="0.75" x="-0.375" y="-0.375" /></g></g></g></g><g transform="rotate(7.1206458689424625)"><g style="stroke: #ff9700;"><g style=";" transform="scale(1)"><rect height="0.75" width="0.75" x="-0.375" y="-0.375" /></g></g></g></g><g transform="rotate(-1.8375345268273944)"><g style="stroke: #ff9700;"><g style=";" transform="scale(1)"><rect height="0.75" width="0.75" x="-0.375" y="-0.375" /></g></g></g></g></g></g><g transform="translate(3 1)"><g><g><g><g><g /><g transform="rotate(-3.586269790690382)"><g style="stroke: #ff9700;"><g style=";" transform="scale(1)"><rect height="0.75" width="0.75" x="-0.375" y="-0.375" /></g></g></g></g><g transform="rotate(7.38456358304353)"><g style="stroke: #005fdb;"><g style=";" transform="scale(1)"><rect height="0.75" width="0.75" x="-0.375" y="-0.375" /></g></g></g></g><g transform="rotate(3.2302982159152824)"><g style="stroke: #005fdb;"><g style=";" transform="scale(1)"><rect height="0.75" width="0.75" x="-0.375" y="-0.375" /></g></g></g></g><g transform="rotate(-0.6003060044994534)"><g style="stroke: #ff9700;"><g style=";" transform="scale(1)"><rect height="0.75" width="0.75" x="-0.375" y="-0.375" /></g></g></g></g></g></g><g transform="translate(3 2)"><g><g><g><g><g /><g transform="rotate(1.6335473729390408)"><g style="stroke: #ff9700;"><g style=";" transform="scale(1)"><rect height="0.75" width="0.75" x="-0.375" y="-0.375" /></g></g></g></g><g transform="rotate(1.7295252179102563)"><g style="stroke: #ff9700;"><g style=";" transform="scale(1)"><rect height="0.75" width="0.75" x="-0.375" y="-0.375" /></g></g></g></g><g transform="rotate(3.0060051615262116)"><g style="stroke: #005fdb;"><g style=";" transform="scale(1)"><rect height="0.75" width="0.75" x="-0.375" y="-0.375" /></g></g></g></g><g transform="rotate(1.418041778294422)"><g style="stroke: #ff9700;"><g style=";" transform="scale(1)"><rect height="0.75" width="0.75" x="-0.375" y="-0.375" /></g></g></g></g></g></g><g transform="translate(3 3)"><g><g><g><g><g /><g transform="rotate(5.200334590233878)"><g style="stroke: #005fdb;"><g style=";" transform="scale(1)"><rect height="0.75" width="0.75" x="-0.375" y="-0.375" /></g></g></g></g><g transform="rotate(-7.072214524239429)"><g style="stroke: #ff9700;"><g style=";" transform="scale(1)"><rect height="0.75" width="0.75" x="-0.375" y="-0.375" /></g></g></g></g><g transform="rotate(-5.370237419257927)"><g style="stroke: #005fdb;"><g style=";" transform="scale(1)"><rect height="0.75" width="0.75" x="-0.375" y="-0.375" /></g></g></g></g><g transform="rotate(2.976113077255802)"><g style="stroke: #ff9700;"><g style=";" transform="scale(1)"><rect height="0.75" width="0.75" x="-0.375" y="-0.375" /></g></g></g></g></g></g></g></g></svg>