<?xml version="1.0" encoding="utf-8" ?>
<svg baseProfile="full" height="256" version="1.1" width="256" xmlns="http://www.w3.org/2000/svg" xmlns:ev="http://www.w3.org/2001/xml-events" xmlns:xlink="http://www.w3.org/1999/xlink"><defs><marker id="arrow" markerHeight="3.5" markerWidth="5" orient="auto" refX="5.0" refY="1.7"><polygon points="0,0 5,1.75 0,3.5" /></marker></defs><g style="fill:white;"><g transform="matrix(63.50118165369231, 0.0, 0.0, 63.50118165369231, 26.71129800194913, 26.472787086272533)"><g><g transform="matrix(1.0, 0.0, 0.0, 1.0, 0.0, 0.0)"><g><g style="stroke: #ff9700;stroke-width: 0.1536;" transform="matrix(0.9942976392540266, 0.10664053907342023, -0.10664053907342023, 0.9942976392540266, -0.33287141256777786, -0.4128518168728551)"><path d="M 0.0 0.0 L 0.7500000000000574 2.2962127484012874e-17 L 0.7500000000001137 0.7500000000000574 L 0.0 0.7500000000001136 L 0.0 -5.551115123125783e-17 Z" style="vector-effect: non-scaling-stroke;" /></g><g style="stroke: #005fdb;stroke-width: 0.1536;" transform="matrix(0.9983693977862285, -0.05708367160549172, 0.05708367160549172, 0.9983693977862285, -0.3957949010219551, -0.3529821473178298)"><path d="M 0.0 0.0 L 0.7500000000000574 2.2962127484012874e-17 L 0.7500000000001137 0.7500000000000574 L 0.0 0.7500000000001136 L 0.0 -5.551115123125783e-17 Z" style="vector-effect: non-scaling-stroke;" /></g><g style="stroke: #ff9700;stroke-width: 0.1536;" transform="matrix(0.999519881505834, 0.0309839712523008, -0.0309839712523008, 0.999519881505834, -0.36320096634513, -0.38643894478435914)"><path d="M 0.0 0.0 L 0.7500000000000574 2.2962127484012874e-17 L 0.7500000000001137 0.7500000000000574 L 0.0 0.7500000000001136 L 0.0 -5.551115123125783e-17 Z" style="vector-effect: non-scaling-stroke;" /></g><g style="stroke: #005fdb;stroke-width: 0.1536;" transform="matrix(0.99425194720521, 0.10706570636131965, -0.10706570636131965, 0.99425194720521, -0.3326948403165093, -0.41299412008751124)"><path d="M 0.0 0.0 L 0.7500000000000574 2.2962127484012874e-17 L 0.7500000000001137 0.7500000000000574 L 0.0 0.7500000000001136 L 0.0 -5.551115123125783e-17 Z" style="vector-effect: non-scaling-stroke;" /></g></g></g><g transform="matrix(1.0, 0.0, 0.0, 1.0, 0.0, 1.0)"><g><g style="stroke: #005fdb;stroke-width: 0.1536;" transform="matrix(0.9967038999815454, 0.0811254322735942, -0.0811254322735942, 0.9967038999815454, -0.34334192539053376, -0.40418599959573864)"><path d="M 0.0 0.0 L 0.7500000000000574 2.2962127484012874e-17 L 0.7500000000001137 0.7500000000000574 L 0.0 0.7500000000001136 L 0.0 -5.551115123125783e-17 Z" style="vector-effect: non-scaling-stroke;" /></g><g style="stroke: #ff9700;stroke-width: 0.1536;" transform="matrix(0.9987650477317956, -0.04968278805888471, 0.04968278805888471, 0.9987650477317956, -0.3931679384215647, -0.3559058473773955)"><path d="M 0.0 0.0 L 0.7500000000000574 2.2962127484012874e-17 L 0.7500000000001137 0.7500000000000574 L 0.0 0.7500000000001136 L 0.0 -5.551115123125783e-17 Z" style="vector-effect: non-scaling-stroke;" /></g><g style="stroke: #ff9700;stroke-width: 0.1536;" transform="matrix(0.9945536401882532, 0.10422598902526492, -0.10422598902526492, 0.9945536401882532, -0.3338728691861712, -0.4120423609551318)"><path d="M 0.0 0.0 L 0.7500000000000574 2.2962127484012874e-17 L 0.7500000000001137 0.7500000000000574 L 0.0 0.7500000000001136 L 0.0 -5.551115123125783e-17 Z" style="vector-effect: non-scaling-stroke;" /></g><g style="stroke: #ff9700;stroke-width: 0.1536;" transform="matrix(0.9999734060472203, -0.007292955390034869, 0.007292955390034869, 0.9999734060472203, -0.37772488553902794, -0.3722551689965009)"><path d="M 0.0 0.0 L 0.7500000000000574 2.2962127484012874e-17 L 0.7500000000001137 0.7500000000000574 L 0.0 0.7500000000001136 L 0.0 -5.551115123125783e-17 Z" style="vector-effect: non-scaling-stroke;" /></g></g></g><g transform="matrix(1.0, 0.0, 0.0, 1.0, 0.0, 2.0)"><g><g style="stroke: #ff9700;stroke-width: 0.1536;" transform="matrix(0.9998515022064335, -0.01723292011059839, 0.01723292011059839, 0.9998515022064335, -0.3814066583689448, -0.36848196828599405)"><path d="M 0.0 0.0 L 0.7500000000000574 2.2962127484012874e-17 L 0.7500000000001137 0.7500000000000574 L 0.0 0.7500000000001136 L 0.0 -5.551115123125783e-17 Z" style="vector-effect: non-scaling-stroke;" /></g><g style="stroke: #005fdb;stroke-width: 0.1536;" transform="matrix(0.9941600726344058, 0.10791547608917433, -0.10791547608917433, 0.9941600726344058, -0.3323417237045122, -0.4132783307714052)"><path d="M 0.0 0.0 L 0.7500000000000574 2.2962127484012874e-17 L 0.7500000000001137 0.7500000000000574 L 0.0 0.7500000000001136 L 0.0 -5.551115123125783e-17 Z" style="vector-effect: non-scaling-stroke;" /></g><g style="stroke: #005fdb;stroke-width: 0.1536;" transform="matrix(0.9999818869189205, -0.006018790083990102, 0.006018790083990102, 0.9999818869189205, -0.3772502538761487, -0.3727361613131554)"><path d="M 0.0 0.0 L 0.7500000000000574 2.2962127484012874e-17 L 0.7500000000001137 0.7500000000000574 L 0.0 0.7500000000001136 L 0.0 -5.551115123125783e-17 Z" style="vector-effect: non-scaling-stroke;" /></g><g style="stroke: #005fdb;stroke-width: 0.1536;" transform="matrix(0.9980348129927802, -0.0626618867771006, 0.0626618867771006, 0.9980348129927802, -0.3977612624137656, -0.350764847330933)"><path d="M 0.0 0.0 L 0.7500000000000574 2.2962127484012874e-17 L 0.7500000000001137 0.7500000000000574 L 0.0 0.7500000000001136 L 0.0 -5.551115123125783e-17 Z" style="vector-effect: non-scaling-stroke;" /></g></g></g><g transform="matrix(1.0, 0.0, 0.0, 1.0, 0.0, 3.0)"><g><g style="stroke: #ff9700;stroke-width: 0.1536;" transform="matrix(0.9999187268896452, 0.012749102532767726, -0.012749102532767726, 0.9999187268896452, -0.3701886091338851, -0.3797504360334624)"><path d="M 0.0 0.0 L 0.7500000000000574 2.2962127484012874e-17 L 0.7500000000001137 0.7500000000000574 L 0.0 0.7500000000001136 L 0.0 -5.551115123125783e-17 Z" style="vector-effect: non-scaling-stroke;" /></g><g style="stroke: #ff9700;stroke-width: 0.1536;" transform="matrix(0.9983462640732697, 0.057486842067949476, -0.057486842067949476, 0.9983462640732697, -0.3528222832520485, -0.3959374148030172)"><path d="M 0.0 0.0 L 0.7500000000000574 2.2962127484012874e-17 L 0.7500000000001137 0.7500000000000574 L 0.0 0.7500000000001136 L 0.0 -5.551115123125783e-17 Z" style="vector-effect: non-scaling-stroke;" /></g><g style="stroke: #ff9700;stroke-width: 0.1536;" transform="matrix(0.9963859196798612, 0.08494173923176435, -0.08494173923176435, 0.9963859196798612, -0.3417915676680881, -0.40549787209192106)"><path d="M 0.0 0.0 L 0.7500000000000574 2.2962127484012874e-17 L 0.7500000000001137 0.7500000000000574 L 0.0 0.7500000000001136 L 0.0 -5.551115123125783e-17 Z" style="vector-effect: non-scaling-stroke;" /></g><g style="stroke: #ff9700;stroke-width: 0.1536;" transform="matrix(0.9914838690517118, -0.13022955659238045, 0.13022955659238045, 0.9914838690517118, -0.4206425346165984, -0.3229703671722982)"><path d="M 0.0 0.0 L 0.7500000000000574 2.2962127484012874e-17 L 0.7500000000001137 0.7500000000000574 L 0.0 0.7500000000001136 L 0.0 -5.551115123125783e-17 Z" style="vector-effect: non-scaling-stroke;" /></g></g></g><g transform="matrix(1.0, 0.0, 0.0, 1.0, 1.0, 0.0)"><g><g style="stroke: #ff9700;stroke-width: 0.1536;" transform="matrix(0.9953726792963097, 0.0960896940909163, -0.0960896940909163, 0.9953726792963097, -0.3372311194520736, -0.4092983900202718)"><path d="M 0.0 0.0 L 0.7500000000000574 2.2962127484012874e-17 L 0.7500000000001137 0.7500000000000574 L 0.0 0.7500000000001136 L 0.0 -5.551115123125783e-17 Z" style="vector-effect: non-scaling-stroke;" /></g><g style="stroke: #005fdb;stroke-width: 0.1536;" transform="matrix(0.998953130262036, -0.04574542096953186, 0.04574542096953186, 0.998953130262036, -0.39176195671189734, -0.35745289098474325)"><path d="M 0.0 0.0 L 0.7500000000000574 2.2962127484012874e-17 L 0.7500000000001137 0.7500000000000574 L 0.0 0.7500000000001136 L 0.0 -5.551115123125783e-17 Z" style="vector-effect: non-scaling-stroke;" /></g><g style="stroke: #ff9700;stroke-width: 0.1536;" transform="matrix(0.996731120943232, -0.08079029980912451, 0.08079029980912451, 0.996731120943232, -0.4040705327821949, -0.3434778079253424)"><path d="M 0.0 0.0 L 0.7500000000000574 2.2962127484012874e-17 L 0.7500000000001137 0.7500000000000574 L 0.0 0.7500000000001136 L 0.0 -5.551115123125783e-17 Z" style="vector-effect: non-scaling-stroke;" /></g><g style="stroke: #005fdb;stroke-width: 0.1536;" transform="matrix(0.997659568064395, -0.06837679613410347, 0.06837679613410347, 0.997659568064395, -0.39976363657449754, -0.3484810394739122)"><path d="M 0.0 0.0 L 0.7500000000000574 2.2962127484012874e-17 L 0.7500000000001137 0.7500000000000574 L 0.0 0.7500000000001136 L 0.0 -5.551115123125783e-17 Z" style="vector-effect: non-scaling-stroke;" /></g></g></g><g transform="matrix(1.0, 0.0, 0.0, 1.0, 1.0, 1.0)"><g><g style="stroke: #ff9700;stroke-width: 0.1536;" transform="matrix(0.9968516803516104, 0.07928888560303156, -0.07928888560303156, 0.9968516803516104, -0.34408604803076925, -0.4035527122330519)"><path d="M 0.0 0.0 L 0.7500000000000574 2.2962127484012874e-17 L 0.7500000000001137 0.7500000000000574 L 0.0 0.7500000000001136 L 0.0 -5.551115123125783e-17 Z" style="vector-effect: non-scaling-stroke;" /></g><g style="stroke: #ff9700;stroke-width: 0.1536;" transform="matrix(0.9939737563278515, -0.10961830016699294, 0.10961830016699294, 0.9939737563278515, -0.4138470211856294, -0.33163329606037223)"><path d="M 0.0 0.0 L 0.7500000000000574 2.2962127484012874e-17 L 0.7500000000001137 0.7500000000000574 L 0.0 0.7500000000001136 L 0.0 -5.551115123125783e-17 Z" style="vector-effect: non-scaling-stroke;" /></g><g style="stroke: #005fdb;stroke-width: 0.1536;" transform="matrix(0.9999978391809938, 0.0020788538532745364, -0.0020788538532745364, 0.9999978391809938, -0.3742196194979514, -0.3757787598879076)"><path d="M 0.0 0.0 L 0.7500000000000574 2.2962127484012874e-17 L 0.7500000000001137 0.7500000000000574 L 0.0 0.7500000000001136 L 0.0 -5.551115123125783e-17 Z" style="vector-effect: non-scaling-stroke;" /></g><g style="stroke: #ff9700;stroke-width: 0.1536;" transform="matrix(0.9947669712877898, -0.1021698235043869, 0.1021698235043869, 0.9947669712877898, -0.4113512980471286, -0.3347239304188268)"><path d="M 0.0 0.0 L 0.7500000000000574 2.2962127484012874e-17 L 0.7500000000001137 0.7500000000000574 L 0.0 0.7500000000001136 L 0.0 -5.551115123125783e-17 Z" style="vector-effect: non-scaling-stroke;" /></g></g></g><g transform="matrix(1.0, 0.0, 0.0, 1.0, 1.0, 2.0)"><g><g style="stroke: #ff9700;stroke-width: 0.1536;" transform="matrix(0.9985381601518298, 0.05405129712225831, -0.05405129712225831, 0.9985381601518298, -0.354182573636143, -0.3947210464778429)"><path d="M 0.0 0.0 L 0.7500000000000574 2.2962127484012874e-17 L 0.7500000000001137 0.7500000000000574 L 0.0 0.7500000000001136 L 0.0 -5.551115123125783e-17 Z" style="vector-effect: non-scaling-stroke;" /></g><g style="stroke: #ff9700;stroke-width: 0.1536;" transform="matrix(0.9966130270711657, 0.08223426458629027, -0.08223426458629027, 0.9966130270711657, -0.3428920359318803, -0.40456773437160737)"><path d="M 0.0 0.0 L 0.7500000000000574 2.2962127484012874e-17 L 0.7500000000001137 0.7500000000000574 L 0.0 0.7500000000001136 L 0.0 -5.551115123125783e-17 Z" style="vector-effect: non-scaling-stroke;" /></g><g style="stroke: #ff9700;stroke-width: 0.1536;" transform="matrix(0.9926361116741617, 0.12113442863365168, -0.12113442863365168, 0.9926361116741617, -0.3268131311402408, -0.4176639526154933)"><path d="M 0.0 0.0 L 0.7500000000000574 2.2962127484012874e-17 L 0.7500000000001137 0.7500000000000574 L 0.0 0.7500000000001136 L 0.0 -5.551115123125783e-17 Z" style="vector-effect: non-scaling-stroke;" /></g><g style="stroke: #ff9700;stroke-width: 0.1536;" transform="matrix(0.9997369334620951, 0.022936082311639384, -0.022936082311639384, 0.9997369334620951, -0.36630031918147643, -0.3835023809152086)"><path d="M 0.0 0.0 L 0.7500000000000574 2.2962127484012874e-17 L 0.7500000000001137 0.7500000000000574 L 0.0 0.7500000000001136 L 0.0 -5.551115123125783e-17 Z" style="vector-effect: non-scaling-stroke;" /></g></g></g><g transform="matrix(1.0, 0.0, 0.0, 1.0, 1.0, 3.0)"><g><g style="stroke: #ff9700;stroke-width: 0.1536;" transform="matrix(0.9996822991893102, 0.025205171841796034, -0.025205171841796034, 0.9996822991893102, -0.3654289227553732, -0.3843328016367231)"><path d="M 0.0 0.0 L 0.7500000000000574 2.2962127484012874e-17 L 0.7500000000001137 0.7500000000000574 L 0.0 0.7500000000001136 L 0.0 -5.551115123125783e-17 Z" style="vector-effect: non-scaling-stroke;" /></g><g style="stroke: #ff9700;stroke-width: 0.1536;" transform="matrix(0.9998038796902868, 0.019804094431469098, -0.019804094431469098, 0.9998038796902868, -0.36749991947211236, -0.38235299029571646)"><path d="M 0.0 0.0 L 0.7500000000000574 2.2962127484012874e-17 L 0.7500000000001137 0.7500000000000574 L 0.0 0.7500000000001136 L 0.0 -5.551115123125783e-17 Z" style="vector-effect: non-scaling-stroke;" /></g><g style="stroke: #ff9700;stroke-width: 0.1536;" transform="matrix(0.9966955812116136, -0.0812275716320748, 0.0812275716320748, 0.9966955812116136, -0.40422118231644444, -0.34330050359237907)"><path d="M 0.0 0.0 L 0.7500000000000574 2.2962127484012874e-17 L 0.7500000000001137 0.7500000000000574 L 0.0 0.7500000000001136 L 0.0 -5.551115123125783e-17 Z" style="vector-effect: non-scaling-stroke;" /></g><g style="stroke: #ff9700;stroke-width: 0.1536;" transform="matrix(0.9995641998617497, 0.02951966047806234, -0.02951966047806234, 0.9995641998617497, -0.3637667022689379, -0.38590644762748805)"><path d="M 0.0 0.0 L 0.7500000000000574 2.2962127484012874e-17 L 0.7500000000001137 0.7500000000000574 L 0.0 0.7500000000001136 L 0.0 -5.551115123125783e-17 Z" style="vector-effect: non-scaling-stroke;" /></g></g></g><g transform="matrix(1.0, 0.0, 0.0, 1.0, 2.0, 0.0)"><g><g style="stroke: #ff9700;stroke-width: 0.1536;" transform="matrix(0.9999811246350632, -0.0061441332663197115, 0.0061441332663197115, 0.9999811246350632, -0.37729697171307575, -0.3726888717633353)"><path d="M 0.0 0.0 L 0.7500000000000574 2.2962127484012874e-17 L 0.7500000000001137 0.7500000000000574 L 0.0 0.7500000000001136 L 0.0 -5.551115123125783e-17 Z" style="vector-effect: non-scaling-stroke;" /></g><g style="stroke: #005fdb;stroke-width: 0.1536;" transform="matrix(0.9977267479724935, 0.0673894381949602, -0.0673894381949602, 0.9977267479724935, -0.34887649116662783, -0.3994185698128557)"><path d="M 0.0 0.0 L 0.7500000000000574 2.2962127484012874e-17 L 0.7500000000001137 0.7500000000000574 L 0.0 0.7500000000001136 L 0.0 -5.551115123125783e-17 Z" style="vector-effect: non-scaling-stroke;" /></g><g style="stroke: #005fdb;stroke-width: 0.1536;" transform="matrix(0.9938634349946825, 0.11061407044571872, -0.11061407044571872, 0.9938634349946825, -0.33121851170591166, -0.41417906454021325)"><path d="M 0.0 0.0 L 0.7500000000000574 2.2962127484012874e-17 L 0.7500000000001137 0.7500000000000574 L 0.0 0.7500000000001136 L 0.0 -5.551115123125783e-17 Z" style="vector-effect: non-scaling-stroke;" /></g><g style="stroke: #005fdb;stroke-width: 0.1536;" transform="matrix(0.9945717750440879, 0.10405279566475951, -0.10405279566475951, 0.9945717750440879, -0.33394461726729874, -0.41198421401588026)"><path d="M 0.0 0.0 L 0.7500000000000574 2.2962127484012874e-17 L 0.7500000000001137 0.7500000000000574 L 0.0 0.7500000000001136 L 0.0 -5.551115123125783e-17 Z" style="vector-effect: non-scaling-stroke;" /></g></g></g><g transform="matrix(1.0, 0.0, 0.0, 1.0, 2.0, 1.0)"><g><g style="stroke: #ff9700;stroke-width: 0.1536;" transform="matrix(0.9999435123340288, 0.010628835358869472, -0.010628835358869472, 0.9999435123340288, -0.37099300386574097, -0.37896463038489425)"><path d="M 0.0 0.0 L 0.7500000000000574 2.2962127484012874e-17 L 0.7500000000001137 0.7500000000000574 L 0.0 0.7500000000001136 L 0.0 -5.551115123125783e-17 Z" style="vector-effect: non-scaling-stroke;" /></g><g style="stroke: #ff9700;stroke-width: 0.1536;" transform="matrix(0.9985561888646837, 0.053717200969877976, -0.053717200969877976, 0.9985561888646837, -0.35431462046060586, -0.39460252118802047)"><path d="M 0.0 0.0 L 0.7500000000000574 2.2962127484012874e-17 L 0.7500000000001137 0.7500000000000574 L 0.0 0.7500000000001136 L 0.0 -5.551115123125783e-17 Z" style="vector-effect: non-scaling-stroke;" /></g><g style="stroke: #005fdb;stroke-width: 0.1536;" transform="matrix(0.9966738542499219, 0.08149373138226841, -0.08149373138226841, 0.9966738542499219, -0.3431925460754221, -0.4043128446121326)"><path d="M 0.0 0.0 L 0.7500000000000574 2.2962127484012874e-17 L 0.7500000000001137 0.7500000000000574 L 0.0 0.7500000000001136 L 0.0 -5.551115123125783e-17 Z" style="vector-effect: non-scaling-stroke;" /></g><g style="stroke: #ff9700;stroke-width: 0.1536;" transform="matrix(0.9946568175918626, 0.10323669511384093, -0.10323669511384093, 0.9946568175918626, -0.33428254592930884, -0.4117100672647013)"><path d="M 0.0 0.0 L 0.7500000000000574 2.2962127484012874e-17 L 0.7500000000001137 0.7500000000000574 L 0.0 0.7500000000001136 L 0.0 -5.551115123125783e-17 Z" style="vector-effect: non-scaling-stroke;" /></g></g></g><g transform="matrix(1.0, 0.0, 0.0, 1.0, 2.0, 2.0)"><g><g style="stroke: #ff9700;stroke-width: 0.1536;" transform="matrix(0.993075690210677, 0.11747626786967486, -0.11747626786967486, 0.993075690210677, -0.32834978337792553, -0.41645698428019506)"><path d="M 0.0 0.0 L 0.7500000000000574 2.2962127484012874e-17 L 0.7500000000001137 0.7500000000000574 L 0.0 0.7500000000001136 L 0.0 -5.551115123125783e-17 Z" style="vector-effect: non-scaling-stroke;" /></g><g style="stroke: #ff9700;stroke-width: 0.1536;" transform="matrix(0.9999162463893527, -0.012942187088250843, 0.012942187088250843, 0.9999162463893527, -0.3798219125541589, -0.3701152722379693)"><path d="M 0.0 0.0 L 0.7500000000000574 2.2962127484012874e-17 L 0.7500000000001137 0.7500000000000574 L 0.0 0.7500000000001136 L 0.0 -5.551115123125783e-17 Z" style="vector-effect: non-scaling-stroke;" /></g><g style="stroke: #005fdb;stroke-width: 0.1536;" transform="matrix(0.9915722614632073, 0.12955481579910802, -0.12955481579910802, 0.9915722614632073, -0.3232565421240862, -0.420422653973432)"><path d="M 0.0 0.0 L 0.7500000000000574 2.2962127484012874e-17 L 0.7500000000001137 0.7500000000000574 L 0.0 0.7500000000001136 L 0.0 -5.551115123125783e-17 Z" style="vector-effect: non-scaling-stroke;" /></g><g style="stroke: #ff9700;stroke-width: 0.1536;" transform="matrix(0.997052917909795, 0.07671687485529928, -0.07671687485529928, 0.997052917909795, -0.3451260161454882, -0.4026636722869714)"><path d="M 0.0 0.0 L 0.7500000000000574 2.2962127484012874e-17 L 0.7500000000001137 0.7500000000000574 L 0.0 0.7500000000001136 L 0.0 -5.551115123125783e-17 Z" style="vector-effect: non-scaling-stroke;" /></g></g></g><g transform="matrix(1.0, 0.0, 0.0, 1.0, 2.0, 3.0)"><g><g style="stroke: #ff9700;stroke-width: 0.1536;" transform="matrix(0.999564123154372, 0.029522257749558904, -0.029522257749558904, 0.999564123154372, -0.36376569952686005, -0.3859073928390326)"><path d="M 0.0 0.0 L 0.7500000000000574 2.2962127484012874e-17 L 0.7500000000001137 0.7500000000000574 L 0.0 0.7500000000001136 L 0.0 -5.551115123125783e-17 Z" style="vector-effect: non-scaling-stroke;" /></g><g style="stroke: #005fdb;stroke-width: 0.1536;" transform="matrix(0.9994195887297297, 0.03406590176845399, -0.03406590176845399, 0.9994195887297297, -0.36200763261053326, -0.38755705893687764)"><path d="M 0.0 0.0 L 0.7500000000000574 2.2962127484012874e-17 L 0.7500000000001137 0.7500000000000574 L 0.0 0.7500000000001136 L 0.0 -5.551115123125783e-17 Z" style="vector-effect: non-scaling-stroke;" /></g><g style="stroke: #ff9700;stroke-width: 0.1536;" transform="matrix(0.9977380171517855, -0.06722238563174815, 0.06722238563174815, 0.9977380171517855, -0.3993601510438856, -0.34894336182006686)"><path d="M 0.0 0.0 L 0.7500000000000574 2.2962127484012874e-17 L 0.7500000000001137 0.7500000000000574 L 0.0 0.7500000000001136 L 0.0 -5.551115123125783e-17 Z" style="vector-effect: non-scaling-stroke;" /></g><g style="stroke: #ff9700;stroke-width: 0.1536;" transform="matrix(0.9949807762522832, -0.10006625249505426, 0.10006625249505426, 0.9949807762522832, -0.4106426357803138, -0.3355929464090117)"><path d="M 0.0 0.0 L 0.7500000000000574 2.2962127484012874e-17 L 0.7500000000001137 0.7500000000000574 L 0.0 0.7500000000001136 L 0.0 -5.551115123125783e-17 Z" style="vector-effect: non-scaling-stroke;" /></g></g></g><g transform="matrix(1.0, 0.0, 0.0, 1.0, 3.0, 0.0)"><g><g style="stroke: #ff9700;stroke-width: 0.1536;" transform="matrix(0.9970275998899828, 0.07704521437195479, -0.07704521437195479, 0.9970275998899828, -0.34499339456931283, -0.40277730534828765)"><path d="M 0.0 0.0 L 0.7500000000000574 2.2962127484012874e-17 L 0.7500000000001137 0.7500000000000574 L 0.0 0.7500000000001136 L 0.0 -5.551115123125783e-17 Z" style="vector-effect: non-scaling-stroke;" /></g><g style="stroke: #ff9700;stroke-width: 0.1536;" transform="matrix(0.9965818198548948, 0.08261159927459365, -0.08261159927459365, 0.9965818198548948, -0.34273883271766487, -0.40469753217361953)"><path d="M 0.0 0.0 L 0.7500000000000574 2.2962127484012874e-17 L 0.7500000000001137 0.7500000000000574 L 0.0 0.7500000000001136 L 0.0 -5.551115123125783e-17 Z" style="vector-effect: non-scaling-stroke;" /></g><g style="stroke: #ff9700;stroke-width: 0.1536;" transform="matrix(0.9957172424157782, -0.09245092295871622, 0.09245092295871622, 0.9957172424157782, -0.40806306201549725, -0.33872486979644956)"><path d="M 0.0 0.0 L 0.7500000000000574 2.2962127484012874e-17 L 0.7500000000001137 0.7500000000000574 L 0.0 0.7500000000001136 L 0.0 -5.551115123125783e-17 Z" style="vector-effect: non-scaling-stroke;" /></g><g style="stroke: #ff9700;stroke-width: 0.1536;" transform="matrix(0.9929210304483389, -0.11877637514846516, 0.11877637514846516, 0.9929210304483389, -0.41688652709886476, -0.32780424573750233)"><path d="M 0.0 0.0 L 0.7500000000000574 2.2962127484012874e-17 L 0.7500000000001137 0.7500000000000574 L 0.0 0.7500000000001136 L 0.0 -5.551115123125783e-17 Z" style="vector-effect: non-scaling-stroke;" /></g></g></g><g transform="matrix(1.0, 0.0, 0.0, 1.0, 3.0, 1.0)"><g><g style="stroke: #ff9700;stroke-width: 0.1536;" transform="matrix(0.9942443834596595, 0.10713592282200071, -0.10713592282200071, 0.9942443834596595, -0.33266567273917247, -0.4130176148556852)"><path d="M 0.0 0.0 L 0.7500000000000574 2.2962127484012874e-17 L 0.7500000000001137 0.7500000000000574 L 0.0 0.7500000000001136 L 0.0 -5.551115123125783e-17 Z" style="vector-effect: non-scaling-stroke;" /></g><g style="stroke: #ff9700;stroke-width: 0.1536;" transform="matrix(0.9988825976391047, 0.04726051347324289, -0.04726051347324289, 0.9988825976391047, -0.35685828156225224, -0.3923036666671898)"><path d="M 0.0 0.0 L 0.7500000000000574 2.2962127484012874e-17 L 0.7500000000001137 0.7500000000000574 L 0.0 0.7500000000001136 L 0.0 -5.551115123125783e-17 Z" style="vector-effect: non-scaling-stroke;" /></g><g style="stroke: #ff9700;stroke-width: 0.1536;" transform="matrix(0.9993755049399003, 0.03533553630722491, -0.03533553630722491, 0.9993755049399003, -0.3615149882373081, -0.38801664046773077)"><path d="M 0.0 0.0 L 0.7500000000000574 2.2962127484012874e-17 L 0.7500000000001137 0.7500000000000574 L 0.0 0.7500000000001136 L 0.0 -5.551115123125783e-17 Z" style="vector-effect: non-scaling-stroke;" /></g><g style="stroke: #ff9700;stroke-width: 0.1536;" transform="matrix(0.9998023111303006, 0.019883124968415454, -0.019883124968415454, 0.9998023111303006, -0.36746969481076264, -0.38238203853707653)"><path d="M 0.0 0.0 L 0.7500000000000574 2.2962127484012874e-17 L 0.7500000000001137 0.7500000000000574 L 0.0 0.7500000000001136 L 0.0 -5.551115123125783e-17 Z" style="vector-effect: non-scaling-stroke;" /></g></g></g><g transform="matrix(1.0, 0.0, 0.0, 1.0, 3.0, 2.0)"><g><g style="stroke: #005fdb;stroke-width: 0.1536;" transform="matrix(0.9994221479969719, -0.033990735401262545, 0.033990735401262545, 0.9994221479969719, -0.38752983127439666, -0.36203677972344595)"><path d="M 0.0 0.0 L 0.7500000000000574 2.2962127484012874e-17 L 0.7500000000001137 0.7500000000000574 L 0.0 0.7500000000001136 L 0.0 -5.551115123125783e-17 Z" style="vector-effect: non-scaling-stroke;" /></g><g style="stroke: #ff9700;stroke-width: 0.1536;" transform="matrix(0.9926434223441314, -0.12107450630471495, 0.12107450630471495, 0.9926434223441314, -0.4176442232433807, -0.32683834351483065)"><path d="M 0.0 0.0 L 0.7500000000000574 2.2962127484012874e-17 L 0.7500000000001137 0.7500000000000574 L 0.0 0.7500000000001136 L 0.0 -5.551115123125783e-17 Z" style="vector-effect: non-scaling-stroke;" /></g><g style="stroke: #ff9700;stroke-width: 0.1536;" transform="matrix(0.9927248701777456, 0.12040486755350971, -0.12040486755350971, 0.9927248701777456, -0.327120000984138, -0.417423651649284)"><path d="M 0.0 0.0 L 0.7500000000000574 2.2962127484012874e-17 L 0.7500000000001137 0.7500000000000574 L 0.0 0.7500000000001136 L 0.0 -5.551115123125783e-17 Z" style="vector-effect: non-scaling-stroke;" /></g><g style="stroke: #ff9700;stroke-width: 0.1536;" transform="matrix(0.995156334047672, -0.09830498870758468, 0.09830498870758468, 0.995156334047672, -0.41004799603328346, -0.3363192545025837)"><path d="M 0.0 0.0 L 0.7500000000000574 2.2962127484012874e-17 L 0.7500000000001137 0.7500000000000574 L 0.0 0.7500000000001136 L 0.0 -5.551115123125783e-17 Z" style="vector-effect: non-scaling-stroke;" /></g></g></g><g transform="matrix(1.0, 0.0, 0.0, 1.0, 3.0, 3.0)"><g><g style="stroke: #005fdb;stroke-width: 0.1536;" transform="matrix(0.9969019793189662, 0.07865394859717847, -0.07865394859717847, 0.9969019793189662, -0.3443430115207226, -0.4033334729686154)"><path d="M 0.0 0.0 L 0.7500000000000574 2.2962127484012874e-17 L 0.7500000000001137 0.7500000000000574 L 0.0 0.7500000000001136 L 0.0 -5.551115123125783e-17 Z" style="vector-effect: non-scaling-stroke;" /></g><g style="stroke: #ff9700;stroke-width: 0.1536;" transform="matrix(0.9922057403882849, -0.12461046802149203, 0.12461046802149203, 0.9922057403882849, -0.41880607815372983, -0.3253482271375967)"><path d="M 0.0 0.0 L 0.7500000000000574 2.2962127484012874e-17 L 0.7500000000001137 0.7500000000000574 L 0.0 0.7500000000001136 L 0.0 -5.551115123125783e-17 Z" style="vector-effect: non-scaling-stroke;" /></g><g style="stroke: #ff9700;stroke-width: 0.1536;" transform="matrix(0.9945628728957169, -0.10413785026309169, 0.10413785026309169, 0.9945628728957169, -0.41201277118461566, -0.33390938348728505)"><path d="M 0.0 0.0 L 0.7500000000000574 2.2962127484012874e-17 L 0.7500000000001137 0.7500000000000574 L 0.0 0.7500000000001136 L 0.0 -5.551115123125783e-17 Z" style="vector-effect: non-scaling-stroke;" /></g><g style="stroke: #ff9700;stroke-width: 0.1536;" transform="matrix(0.9973303539328453, -0.07302167571471871, 0.07302167571471871, 0.9973303539328453, -0.40138201111789734, -0.34661575433185005)"><path d="M 0.0 0.0 L 0.7500000000000574 2.2962127484012874e-17 L 0.7500000000001137 0.7500000000000574 L 0.0 0.7500000000001136 L 0.0 -5.551115123125783e-17 Z" style="vector-effect: non-scaling-stroke;" /></g></g></g></g></g></g></svg>