<?xml version="1.0" encoding="utf-8" ?>
<svg baseProfile="full" height="256" version="1.1" width="256" xmlns="http://www.w3.org/2000/svg" xmlns:ev="http://www.w3.org/2001/xml-events" xmlns:xlink="http://www.w3.org/1999/xlink"><defs><marker id="arrow" markerHeight="3.5" markerWidth="5" orient="auto" refX="5.0" refY="1.7"><polygon points="0,0 5,1.75 0,3.5" /></marker></defs><g style="fill:white;"><g transform="matrix(1.0, 0.0, 0.0, 1.0, 128.0, 127.93600577588005)"><g transform="matrix(63.50118165368875, 0.0, 0.0, 63.50118165368875, 0.0, 0.0)"><g><g transform="matrix(1.0, 0.0, 0.0, 1.0, -1.499081771768566, -1.5018780037588666)"><g><g><g><g><g><g><g><g><g><g><g><g><g><g><g><g><g /><g transform="matrix(1.0, 0.0, 0.0, 1.0, 0.0, 0.0)"><g><g><g><g><g /><g style="stroke: #ff9700;stroke-width: 0.1536;" transform="matrix(0.9942976392540266, 0.10664053907342046, -0.10664053907342046, 0.9942976392540266, -0.3328714125677273, -0.41285181687279265)"><path d="M 0.0 0.0 L 0.75 0.0 L 0.75 0.75 L 0.0 0.75 L 0.0 0.0 Z" style="vector-effect: non-scaling-stroke;" /></g></g><g style="stroke: #005fdb;stroke-width: 0.1536;" transform="matrix(0.9983693977862285, -0.05708367160549173, 0.05708367160549173, 0.9983693977862285, -0.3957949010218951, -0.35298214731777633)"><path d="M 0.0 0.0 L 0.75 0.0 L 0.75 0.75 L 0.0 0.75 L 0.0 0.0 Z" style="vector-effect: non-scaling-stroke;" /></g></g><g style="stroke: #ff9700;stroke-width: 0.1536;" transform="matrix(0.999519881505834, 0.030983971252300464, -0.030983971252300464, 0.999519881505834, -0.3632009663450751, -0.38643894478430046)"><path d="M 0.0 0.0 L 0.75 0.0 L 0.75 0.75 L 0.0 0.75 L 0.0 0.0 Z" style="vector-effect: non-scaling-stroke;" /></g></g><g style="stroke: #005fdb;stroke-width: 0.1536;" transform="matrix(0.9942519472052099, 0.10706570636131987, -0.10706570636131987, 0.9942519472052099, -0.33269484031645874, -0.4129941200874487)"><path d="M 0.0 0.0 L 0.75 0.0 L 0.75 0.75 L 0.0 0.75 L 0.0 0.0 Z" style="vector-effect: non-scaling-stroke;" /></g></g></g></g><g transform="matrix(1.0, 0.0, 0.0, 1.0, 0.0, 1.0)"><g><g><g><g><g /><g style="stroke: #005fdb;stroke-width: 0.1536;" transform="matrix(0.9967038999815454, 0.08112543227359452, -0.08112543227359452, 0.9967038999815454, -0.3433419253904816, -0.40418599959567747)"><path d="M 0.0 0.0 L 0.75 0.0 L 0.75 0.75 L 0.0 0.75 L 0.0 0.0 Z" style="vector-effect: non-scaling-stroke;" /></g></g><g style="stroke: #ff9700;stroke-width: 0.1536;" transform="matrix(0.9987650477317956, -0.04968278805888471, 0.04968278805888471, 0.9987650477317956, -0.39316793842150516, -0.3559058473773416)"><path d="M 0.0 0.0 L 0.75 0.0 L 0.75 0.75 L 0.0 0.75 L 0.0 0.0 Z" style="vector-effect: non-scaling-stroke;" /></g></g><g style="stroke: #ff9700;stroke-width: 0.1536;" transform="matrix(0.9945536401882531, 0.10422598902526568, -0.10422598902526568, 0.9945536401882531, -0.33387286918612025, -0.4120423609550695)"><path d="M 0.0 0.0 L 0.75 0.0 L 0.75 0.75 L 0.0 0.75 L 0.0 0.0 Z" style="vector-effect: non-scaling-stroke;" /></g></g><g style="stroke: #ff9700;stroke-width: 0.1536;" transform="matrix(0.9999734060472203, -0.007292955390034869, 0.007292955390034869, 0.9999734060472203, -0.37772488553897066, -0.3722551689964445)"><path d="M 0.0 0.0 L 0.75 0.0 L 0.75 0.75 L 0.0 0.75 L 0.0 0.0 Z" style="vector-effect: non-scaling-stroke;" /></g></g></g></g><g transform="matrix(1.0, 0.0, 0.0, 1.0, 0.0, 2.0)"><g><g><g><g><g /><g style="stroke: #ff9700;stroke-width: 0.1536;" transform="matrix(0.9998515022064335, -0.01723292011059839, 0.01723292011059839, 0.9998515022064335, -0.381406658368887, -0.36848196828593816)"><path d="M 0.0 0.0 L 0.75 0.0 L 0.75 0.75 L 0.0 0.75 L 0.0 0.0 Z" style="vector-effect: non-scaling-stroke;" /></g></g><g style="stroke: #005fdb;stroke-width: 0.1536;" transform="matrix(0.9941600726344056, 0.10791547608917491, -0.10791547608917491, 0.9941600726344056, -0.3323417237044615, -0.41327833077134274)"><path d="M 0.0 0.0 L 0.75 0.0 L 0.75 0.75 L 0.0 0.75 L 0.0 0.0 Z" style="vector-effect: non-scaling-stroke;" /></g></g><g style="stroke: #005fdb;stroke-width: 0.1536;" transform="matrix(0.9999818869189205, -0.006018790083990103, 0.006018790083990103, 0.9999818869189205, -0.3772502538760915, -0.3727361613130989)"><path d="M 0.0 0.0 L 0.75 0.0 L 0.75 0.75 L 0.0 0.75 L 0.0 0.0 Z" style="vector-effect: non-scaling-stroke;" /></g></g><g style="stroke: #005fdb;stroke-width: 0.1536;" transform="matrix(0.9980348129927802, -0.0626618867771006, 0.0626618867771006, 0.9980348129927802, -0.3977612624137053, -0.3507648473308798)"><path d="M 0.0 0.0 L 0.75 0.0 L 0.75 0.75 L 0.0 0.75 L 0.0 0.0 Z" style="vector-effect: non-scaling-stroke;" /></g></g></g></g><g transform="matrix(1.0, 0.0, 0.0, 1.0, 0.0, 3.0)"><g><g><g><g><g /><g style="stroke: #ff9700;stroke-width: 0.1536;" transform="matrix(0.9999187268896452, 0.01274910253276747, -0.01274910253276747, 0.9999187268896452, -0.3701886091338291, -0.37975043603340475)"><path d="M 0.0 0.0 L 0.75 0.0 L 0.75 0.75 L 0.0 0.75 L 0.0 0.0 Z" style="vector-effect: non-scaling-stroke;" /></g></g><g style="stroke: #ff9700;stroke-width: 0.1536;" transform="matrix(0.9983462640732695, 0.057486842067950385, -0.057486842067950385, 0.9983462640732695, -0.35282228325199466, -0.39593741480295747)"><path d="M 0.0 0.0 L 0.75 0.0 L 0.75 0.75 L 0.0 0.75 L 0.0 0.0 Z" style="vector-effect: non-scaling-stroke;" /></g></g><g style="stroke: #ff9700;stroke-width: 0.1536;" transform="matrix(0.9963859196798612, 0.08494173923176467, -0.08494173923176467, 0.9963859196798612, -0.3417915676680362, -0.4054978720918597)"><path d="M 0.0 0.0 L 0.75 0.0 L 0.75 0.75 L 0.0 0.75 L 0.0 0.0 Z" style="vector-effect: non-scaling-stroke;" /></g></g><g style="stroke: #ff9700;stroke-width: 0.1536;" transform="matrix(0.9914838690517118, -0.13022955659238045, 0.13022955659238045, 0.9914838690517118, -0.42064253461653456, -0.32297036717224925)"><path d="M 0.0 0.0 L 0.75 0.0 L 0.75 0.75 L 0.0 0.75 L 0.0 0.0 Z" style="vector-effect: non-scaling-stroke;" /></g></g></g></g><g transform="matrix(1.0, 0.0, 0.0, 1.0, 1.0, 0.0)"><g><g><g><g><g /><g style="stroke: #ff9700;stroke-width: 0.1536;" transform="matrix(0.9953726792963097, 0.09608969409091649, -0.09608969409091649, 0.9953726792963097, -0.33723111945202244, -0.40929839002020985)"><path d="M 0.0 0.0 L 0.75 0.0 L 0.75 0.75 L 0.0 0.75 L 0.0 0.0 Z" style="vector-effect: non-scaling-stroke;" /></g></g><g style="stroke: #005fdb;stroke-width: 0.1536;" transform="matrix(0.998953130262036, -0.04574542096953186, 0.04574542096953186, 0.998953130262036, -0.39176195671183794, -0.3574528909846891)"><path d="M 0.0 0.0 L 0.75 0.0 L 0.75 0.75 L 0.0 0.75 L 0.0 0.0 Z" style="vector-effect: non-scaling-stroke;" /></g></g><g style="stroke: #ff9700;stroke-width: 0.1536;" transform="matrix(0.996731120943232, -0.0807902998091245, 0.0807902998091245, 0.996731120943232, -0.40407053278213373, -0.3434778079252903)"><path d="M 0.0 0.0 L 0.75 0.0 L 0.75 0.75 L 0.0 0.75 L 0.0 0.0 Z" style="vector-effect: non-scaling-stroke;" /></g></g><g style="stroke: #005fdb;stroke-width: 0.1536;" transform="matrix(0.997659568064395, -0.06837679613410348, 0.06837679613410348, 0.997659568064395, -0.3997636365744369, -0.34848103947385933)"><path d="M 0.0 0.0 L 0.75 0.0 L 0.75 0.75 L 0.0 0.75 L 0.0 0.0 Z" style="vector-effect: non-scaling-stroke;" /></g></g></g></g><g transform="matrix(1.0, 0.0, 0.0, 1.0, 1.0, 1.0)"><g><g><g><g><g /><g style="stroke: #ff9700;stroke-width: 0.1536;" transform="matrix(0.9968516803516104, 0.07928888560303227, -0.07928888560303227, 0.9968516803516104, -0.3440860480307168, -0.403552712232991)"><path d="M 0.0 0.0 L 0.75 0.0 L 0.75 0.75 L 0.0 0.75 L 0.0 0.0 Z" style="vector-effect: non-scaling-stroke;" /></g></g><g style="stroke: #ff9700;stroke-width: 0.1536;" transform="matrix(0.9939737563278515, -0.10961830016699294, 0.10961830016699294, 0.9939737563278515, -0.41384702118556665, -0.33163329606032194)"><path d="M 0.0 0.0 L 0.75 0.0 L 0.75 0.75 L 0.0 0.75 L 0.0 0.0 Z" style="vector-effect: non-scaling-stroke;" /></g></g><g style="stroke: #005fdb;stroke-width: 0.1536;" transform="matrix(0.9999978391809938, 0.002078853853274559, -0.002078853853274559, 0.9999978391809938, -0.37421961949789473, -0.3757787598878507)"><path d="M 0.0 0.0 L 0.75 0.0 L 0.75 0.75 L 0.0 0.75 L 0.0 0.0 Z" style="vector-effect: non-scaling-stroke;" /></g></g><g style="stroke: #ff9700;stroke-width: 0.1536;" transform="matrix(0.9947669712877898, -0.1021698235043869, 0.1021698235043869, 0.9947669712877898, -0.4113512980470662, -0.33472393041877607)"><path d="M 0.0 0.0 L 0.75 0.0 L 0.75 0.75 L 0.0 0.75 L 0.0 0.0 Z" style="vector-effect: non-scaling-stroke;" /></g></g></g></g><g transform="matrix(1.0, 0.0, 0.0, 1.0, 1.0, 2.0)"><g><g><g><g><g /><g style="stroke: #ff9700;stroke-width: 0.1536;" transform="matrix(0.9985381601518298, 0.05405129712225817, -0.05405129712225817, 0.9985381601518298, -0.35418257363608935, -0.394721046477783)"><path d="M 0.0 0.0 L 0.75 0.0 L 0.75 0.75 L 0.0 0.75 L 0.0 0.0 Z" style="vector-effect: non-scaling-stroke;" /></g></g><g style="stroke: #ff9700;stroke-width: 0.1536;" transform="matrix(0.9966130270711656, 0.08223426458629055, -0.08223426458629055, 0.9966130270711656, -0.34289203593182815, -0.40456773437154603)"><path d="M 0.0 0.0 L 0.75 0.0 L 0.75 0.75 L 0.0 0.75 L 0.0 0.0 Z" style="vector-effect: non-scaling-stroke;" /></g></g><g style="stroke: #ff9700;stroke-width: 0.1536;" transform="matrix(0.9926361116741617, 0.12113442863365216, -0.12113442863365216, 0.9926361116741617, -0.32681313114019106, -0.4176639526154302)"><path d="M 0.0 0.0 L 0.75 0.0 L 0.75 0.75 L 0.0 0.75 L 0.0 0.0 Z" style="vector-effect: non-scaling-stroke;" /></g></g><g style="stroke: #ff9700;stroke-width: 0.1536;" transform="matrix(0.9997369334620951, 0.022936082311639547, -0.022936082311639547, 0.9997369334620951, -0.36630031918142086, -0.3835023809151505)"><path d="M 0.0 0.0 L 0.75 0.0 L 0.75 0.75 L 0.0 0.75 L 0.0 0.0 Z" style="vector-effect: non-scaling-stroke;" /></g></g></g></g><g transform="matrix(1.0, 0.0, 0.0, 1.0, 1.0, 3.0)"><g><g><g><g><g /><g style="stroke: #ff9700;stroke-width: 0.1536;" transform="matrix(0.9996822991893102, 0.02520517184179617, -0.02520517184179617, 0.9996822991893102, -0.36542892275531774, -0.3843328016366649)"><path d="M 0.0 0.0 L 0.75 0.0 L 0.75 0.75 L 0.0 0.75 L 0.0 0.0 Z" style="vector-effect: non-scaling-stroke;" /></g></g><g style="stroke: #ff9700;stroke-width: 0.1536;" transform="matrix(0.9998038796902868, 0.019804094431469483, -0.019804094431469483, 0.9998038796902868, -0.3674999194720565, -0.3823529902956586)"><path d="M 0.0 0.0 L 0.75 0.0 L 0.75 0.75 L 0.0 0.75 L 0.0 0.0 Z" style="vector-effect: non-scaling-stroke;" /></g></g><g style="stroke: #ff9700;stroke-width: 0.1536;" transform="matrix(0.9966955812116136, -0.0812275716320748, 0.0812275716320748, 0.9966955812116136, -0.40422118231638315, -0.343300503592327)"><path d="M 0.0 0.0 L 0.75 0.0 L 0.75 0.75 L 0.0 0.75 L 0.0 0.0 Z" style="vector-effect: non-scaling-stroke;" /></g></g><g style="stroke: #ff9700;stroke-width: 0.1536;" transform="matrix(0.9995641998617497, 0.029519660478062332, -0.029519660478062332, 0.9995641998617497, -0.36376670226888275, -0.38590644762742954)"><path d="M 0.0 0.0 L 0.75 0.0 L 0.75 0.75 L 0.0 0.75 L 0.0 0.0 Z" style="vector-effect: non-scaling-stroke;" /></g></g></g></g><g transform="matrix(1.0, 0.0, 0.0, 1.0, 2.0, 0.0)"><g><g><g><g><g /><g style="stroke: #ff9700;stroke-width: 0.1536;" transform="matrix(0.9999811246350632, -0.006144133266319712, 0.006144133266319712, 0.9999811246350632, -0.37729697171301857, -0.3726888717632788)"><path d="M 0.0 0.0 L 0.75 0.0 L 0.75 0.75 L 0.0 0.75 L 0.0 0.0 Z" style="vector-effect: non-scaling-stroke;" /></g></g><g style="stroke: #005fdb;stroke-width: 0.1536;" transform="matrix(0.9977267479724935, 0.0673894381949609, -0.0673894381949609, 0.9977267479724935, -0.3488764911665747, -0.39941856981279544)"><path d="M 0.0 0.0 L 0.75 0.0 L 0.75 0.75 L 0.0 0.75 L 0.0 0.0 Z" style="vector-effect: non-scaling-stroke;" /></g></g><g style="stroke: #005fdb;stroke-width: 0.1536;" transform="matrix(0.9938634349946825, 0.1106140704457182, -0.1106140704457182, 0.9938634349946825, -0.33121851170586164, -0.41417906454015024)"><path d="M 0.0 0.0 L 0.75 0.0 L 0.75 0.75 L 0.0 0.75 L 0.0 0.0 Z" style="vector-effect: non-scaling-stroke;" /></g></g><g style="stroke: #005fdb;stroke-width: 0.1536;" transform="matrix(0.9945717750440878, 0.10405279566476047, -0.10405279566476047, 0.9945717750440878, -0.3339446172672478, -0.4119842140158181)"><path d="M 0.0 0.0 L 0.75 0.0 L 0.75 0.75 L 0.0 0.75 L 0.0 0.0 Z" style="vector-effect: non-scaling-stroke;" /></g></g></g></g><g transform="matrix(1.0, 0.0, 0.0, 1.0, 2.0, 1.0)"><g><g><g><g><g /><g style="stroke: #ff9700;stroke-width: 0.1536;" transform="matrix(0.9999435123340288, 0.010628835358869718, -0.010628835358869718, 0.9999435123340288, -0.3709930038656847, -0.37896463038483696)"><path d="M 0.0 0.0 L 0.75 0.0 L 0.75 0.75 L 0.0 0.75 L 0.0 0.0 Z" style="vector-effect: non-scaling-stroke;" /></g></g><g style="stroke: #ff9700;stroke-width: 0.1536;" transform="matrix(0.9985561888646837, 0.053717200969878, -0.053717200969878, 0.9985561888646837, -0.3543146204605521, -0.39460252118796063)"><path d="M 0.0 0.0 L 0.75 0.0 L 0.75 0.75 L 0.0 0.75 L 0.0 0.0 Z" style="vector-effect: non-scaling-stroke;" /></g></g><g style="stroke: #005fdb;stroke-width: 0.1536;" transform="matrix(0.9966738542499219, 0.0814937313822685, -0.0814937313822685, 0.9966738542499219, -0.3431925460753701, -0.4043128446120714)"><path d="M 0.0 0.0 L 0.75 0.0 L 0.75 0.75 L 0.0 0.75 L 0.0 0.0 Z" style="vector-effect: non-scaling-stroke;" /></g></g><g style="stroke: #ff9700;stroke-width: 0.1536;" transform="matrix(0.9946568175918625, 0.1032366951138415, -0.1032366951138415, 0.9946568175918625, -0.3342825459292579, -0.411710067264639)"><path d="M 0.0 0.0 L 0.75 0.0 L 0.75 0.75 L 0.0 0.75 L 0.0 0.0 Z" style="vector-effect: non-scaling-stroke;" /></g></g></g></g><g transform="matrix(1.0, 0.0, 0.0, 1.0, 2.0, 2.0)"><g><g><g><g><g /><g style="stroke: #ff9700;stroke-width: 0.1536;" transform="matrix(0.9930756902106769, 0.11747626786967569, -0.11747626786967569, 0.9930756902106769, -0.32834978337787546, -0.4164569842801322)"><path d="M 0.0 0.0 L 0.75 0.0 L 0.75 0.75 L 0.0 0.75 L 0.0 0.0 Z" style="vector-effect: non-scaling-stroke;" /></g></g><g style="stroke: #ff9700;stroke-width: 0.1536;" transform="matrix(0.9999162463893527, -0.012942187088250843, 0.012942187088250843, 0.9999162463893527, -0.37982191255410136, -0.3701152722379132)"><path d="M 0.0 0.0 L 0.75 0.0 L 0.75 0.75 L 0.0 0.75 L 0.0 0.0 Z" style="vector-effect: non-scaling-stroke;" /></g></g><g style="stroke: #005fdb;stroke-width: 0.1536;" transform="matrix(0.9915722614632073, 0.1295548157991078, -0.1295548157991078, 0.9915722614632073, -0.3232565421240373, -0.4204226539733682)"><path d="M 0.0 0.0 L 0.75 0.0 L 0.75 0.75 L 0.0 0.75 L 0.0 0.0 Z" style="vector-effect: non-scaling-stroke;" /></g></g><g style="stroke: #ff9700;stroke-width: 0.1536;" transform="matrix(0.997052917909795, 0.07671687485529899, -0.07671687485529899, 0.997052917909795, -0.34512601614543603, -0.40266367228691025)"><path d="M 0.0 0.0 L 0.75 0.0 L 0.75 0.75 L 0.0 0.75 L 0.0 0.0 Z" style="vector-effect: non-scaling-stroke;" /></g></g></g></g><g transform="matrix(1.0, 0.0, 0.0, 1.0, 2.0, 3.0)"><g><g><g><g><g /><g style="stroke: #ff9700;stroke-width: 0.1536;" transform="matrix(0.999564123154372, 0.02952225774955962, -0.02952225774955962, 0.999564123154372, -0.36376569952680465, -0.3859073928389744)"><path d="M 0.0 0.0 L 0.75 0.0 L 0.75 0.75 L 0.0 0.75 L 0.0 0.0 Z" style="vector-effect: non-scaling-stroke;" /></g></g><g style="stroke: #005fdb;stroke-width: 0.1536;" transform="matrix(0.9994195887297297, 0.03406590176845476, -0.03406590176845476, 0.9994195887297297, -0.36200763261047814, -0.3875570589368192)"><path d="M 0.0 0.0 L 0.75 0.0 L 0.75 0.75 L 0.0 0.75 L 0.0 0.0 Z" style="vector-effect: non-scaling-stroke;" /></g></g><g style="stroke: #ff9700;stroke-width: 0.1536;" transform="matrix(0.9977380171517855, -0.06722238563174815, 0.06722238563174815, 0.9977380171517855, -0.3993601510438251, -0.348943361820014)"><path d="M 0.0 0.0 L 0.75 0.0 L 0.75 0.75 L 0.0 0.75 L 0.0 0.0 Z" style="vector-effect: non-scaling-stroke;" /></g></g><g style="stroke: #ff9700;stroke-width: 0.1536;" transform="matrix(0.9949807762522832, -0.10006625249505427, 0.10006625249505427, 0.9949807762522832, -0.4106426357802515, -0.33559294640896087)"><path d="M 0.0 0.0 L 0.75 0.0 L 0.75 0.75 L 0.0 0.75 L 0.0 0.0 Z" style="vector-effect: non-scaling-stroke;" /></g></g></g></g><g transform="matrix(1.0, 0.0, 0.0, 1.0, 3.0, 0.0)"><g><g><g><g><g /><g style="stroke: #ff9700;stroke-width: 0.1536;" transform="matrix(0.9970275998899828, 0.07704521437195466, -0.07704521437195466, 0.9970275998899828, -0.3449933945692606, -0.40277730534822653)"><path d="M 0.0 0.0 L 0.75 0.0 L 0.75 0.75 L 0.0 0.75 L 0.0 0.0 Z" style="vector-effect: non-scaling-stroke;" /></g></g><g style="stroke: #ff9700;stroke-width: 0.1536;" transform="matrix(0.9965818198548948, 0.08261159927459379, -0.08261159927459379, 0.9965818198548948, -0.34273883271761285, -0.4046975321735582)"><path d="M 0.0 0.0 L 0.75 0.0 L 0.75 0.75 L 0.0 0.75 L 0.0 0.0 Z" style="vector-effect: non-scaling-stroke;" /></g></g><g style="stroke: #ff9700;stroke-width: 0.1536;" transform="matrix(0.9957172424157782, -0.09245092295871622, 0.09245092295871622, 0.9957172424157782, -0.4080630620154354, -0.33872486979639826)"><path d="M 0.0 0.0 L 0.75 0.0 L 0.75 0.75 L 0.0 0.75 L 0.0 0.0 Z" style="vector-effect: non-scaling-stroke;" /></g></g><g style="stroke: #ff9700;stroke-width: 0.1536;" transform="matrix(0.9929210304483389, -0.11877637514846517, 0.11877637514846517, 0.9929210304483389, -0.41688652709880153, -0.32780424573745265)"><path d="M 0.0 0.0 L 0.75 0.0 L 0.75 0.75 L 0.0 0.75 L 0.0 0.0 Z" style="vector-effect: non-scaling-stroke;" /></g></g></g></g><g transform="matrix(1.0, 0.0, 0.0, 1.0, 3.0, 1.0)"><g><g><g><g><g /><g style="stroke: #ff9700;stroke-width: 0.1536;" transform="matrix(0.9942443834596594, 0.10713592282200145, -0.10713592282200145, 0.9942443834596594, -0.33266567273912173, -0.4130176148556228)"><path d="M 0.0 0.0 L 0.75 0.0 L 0.75 0.75 L 0.0 0.75 L 0.0 0.0 Z" style="vector-effect: non-scaling-stroke;" /></g></g><g style="stroke: #ff9700;stroke-width: 0.1536;" transform="matrix(0.9988825976391046, 0.04726051347324347, -0.04726051347324347, 0.9988825976391046, -0.35685828156219795, -0.3923036666671305)"><path d="M 0.0 0.0 L 0.75 0.0 L 0.75 0.75 L 0.0 0.75 L 0.0 0.0 Z" style="vector-effect: non-scaling-stroke;" /></g></g><g style="stroke: #ff9700;stroke-width: 0.1536;" transform="matrix(0.9993755049399003, 0.035335536307225295, -0.035335536307225295, 0.9993755049399003, -0.36151498823725314, -0.38801664046767215)"><path d="M 0.0 0.0 L 0.75 0.0 L 0.75 0.75 L 0.0 0.75 L 0.0 0.0 Z" style="vector-effect: non-scaling-stroke;" /></g></g><g style="stroke: #ff9700;stroke-width: 0.1536;" transform="matrix(0.9998023111303006, 0.019883124968415284, -0.019883124968415284, 0.9998023111303006, -0.367469694810707, -0.38238203853701846)"><path d="M 0.0 0.0 L 0.75 0.0 L 0.75 0.75 L 0.0 0.75 L 0.0 0.0 Z" style="vector-effect: non-scaling-stroke;" /></g></g></g></g><g transform="matrix(1.0, 0.0, 0.0, 1.0, 3.0, 2.0)"><g><g><g><g><g /><g style="stroke: #005fdb;stroke-width: 0.1536;" transform="matrix(0.9994221479969719, -0.033990735401262545, 0.033990735401262545, 0.9994221479969719, -0.38752983127433793, -0.362036779723391)"><path d="M 0.0 0.0 L 0.75 0.0 L 0.75 0.75 L 0.0 0.75 L 0.0 0.0 Z" style="vector-effect: non-scaling-stroke;" /></g></g><g style="stroke: #ff9700;stroke-width: 0.1536;" transform="matrix(0.9926434223441314, -0.12107450630471495, 0.12107450630471495, 0.9926434223441314, -0.4176442232433174, -0.32683834351478114)"><path d="M 0.0 0.0 L 0.75 0.0 L 0.75 0.75 L 0.0 0.75 L 0.0 0.0 Z" style="vector-effect: non-scaling-stroke;" /></g></g><g style="stroke: #ff9700;stroke-width: 0.1536;" transform="matrix(0.9927248701777455, 0.1204048675535101, -0.1204048675535101, 0.9927248701777455, -0.3271200009840883, -0.41742365164922085)"><path d="M 0.0 0.0 L 0.75 0.0 L 0.75 0.75 L 0.0 0.75 L 0.0 0.0 Z" style="vector-effect: non-scaling-stroke;" /></g></g><g style="stroke: #ff9700;stroke-width: 0.1536;" transform="matrix(0.995156334047672, -0.09830498870758468, 0.09830498870758468, 0.995156334047672, -0.4100479960332213, -0.33631925450253275)"><path d="M 0.0 0.0 L 0.75 0.0 L 0.75 0.75 L 0.0 0.75 L 0.0 0.0 Z" style="vector-effect: non-scaling-stroke;" /></g></g></g></g><g transform="matrix(1.0, 0.0, 0.0, 1.0, 3.0, 3.0)"><g><g><g><g><g /><g style="stroke: #005fdb;stroke-width: 0.1536;" transform="matrix(0.9969019793189662, 0.0786539485971786, -0.0786539485971786, 0.9969019793189662, -0.3443430115206704, -0.40333347296855426)"><path d="M 0.0 0.0 L 0.75 0.0 L 0.75 0.75 L 0.0 0.75 L 0.0 0.0 Z" style="vector-effect: non-scaling-stroke;" /></g></g><g style="stroke: #ff9700;stroke-width: 0.1536;" transform="matrix(0.9922057403882849, -0.12461046802149203, 0.12461046802149203, 0.9922057403882849, -0.41880607815366633, -0.3253482271375473)"><path d="M 0.0 0.0 L 0.75 0.0 L 0.75 0.75 L 0.0 0.75 L 0.0 0.0 Z" style="vector-effect: non-scaling-stroke;" /></g></g><g style="stroke: #ff9700;stroke-width: 0.1536;" transform="matrix(0.9945628728957169, -0.10413785026309168, 0.10413785026309168, 0.9945628728957169, -0.4120127711845532, -0.3339093834872345)"><path d="M 0.0 0.0 L 0.75 0.0 L 0.75 0.75 L 0.0 0.75 L 0.0 0.0 Z" style="vector-effect: non-scaling-stroke;" /></g></g><g style="stroke: #ff9700;stroke-width: 0.1536;" transform="matrix(0.9973303539328453, -0.07302167571471872, 0.07302167571471872, 0.9973303539328453, -0.4013820111178365, -0.3466157543317974)"><path d="M 0.0 0.0 L 0.75 0.0 L 0.75 0.75 L 0.0 0.75 L 0.0 0.0 Z" style="vector-effect: non-scaling-stroke;" /></g></g></g></g></g><g /></g></g></g></g></svg>