<?xml version="1.0" encoding="utf-8" ?>
<svg baseProfile="full" height="128" version="1.1" width="144" xmlns="http://www.w3.org/2000/svg" xmlns:ev="http://www.w3.org/2001/xml-events" xmlns:xlink="http://www.w3.org/1999/xlink"><defs><marker id="arrow" markerHeight="3.5" markerWidth="5" orient="auto" refX="5.0" refY="1.7"><polygon points="0,0 5,1.75 0,3.5" /></marker></defs><g style="fill:white;"><g transform="matrix(1.0, 0.0, 0.0, 1.0, 72.04331128259844, 63.999999999999986)"><g transform="matrix(57.177231176665416, 0.0, 0.0, 57.177231176665416, 0.0, 0.0)"><g><g transform="matrix(1.0, 0.0, 0.0, 1.0, -0.4999999999999999, 0.8660254037844387)"><g><g><g><g><g><g><g><g><g><g><g><g><g><g><g><g><g><g><g><g><g><g /><g transform="matrix(1.0, 0.0, 0.0, 1.0, 0.0, 0.0)"><g><g><g style="fill: #008000;stroke: black;stroke-width: 0.43200000000000005;" transform="matrix(0.2, 0.0, 0.0, 0.2, 0.2, 0.0)"><path d="M 0.0 0.0 A 1.0 1.0 0.0 0 0 -1.0 -1.0 A 1.0 1.0 -90.0 0 0 -2.0 0.0 A 1.0 1.0 180.0 0 0 -1.0 1.0 A 1.0 1.0 90.0 0 0 0.0 0.0 Z" style="vector-effect: non-scaling-stroke;" /></g><g style="fill: #ffffff;stroke: #ffffff;stroke-width: 0.0;" transform="matrix(1.0, 0.0, 0.0, 1.0, 0.0, 0.0)"><text style="text-align:center; text-anchor:middle; dominant-baseline:middle;&#10;                      font-family:sans-serif; font-weight: bold;&#10;                      font-size:0.2px;&#10;                      vector-effect: non-scaling-stroke;" transform="translate(-5e-05, 0)">0</text></g></g></g></g></g><g transform="matrix(1.0, 0.0, 0.0, 1.0, 1.0, 0.0)"><g><g><g style="fill: #008000;stroke: black;stroke-width: 0.43200000000000005;" transform="matrix(0.2, 0.0, 0.0, 0.2, 0.2, 0.0)"><path d="M 0.0 0.0 A 1.0 1.0 0.0 0 0 -1.0 -1.0 A 1.0 1.0 -90.0 0 0 -2.0 0.0 A 1.0 1.0 180.0 0 0 -1.0 1.0 A 1.0 1.0 90.0 0 0 0.0 0.0 Z" style="vector-effect: non-scaling-stroke;" /></g><g style="fill: #ffffff;stroke: #ffffff;stroke-width: 0.0;" transform="matrix(1.0, 0.0, 0.0, 1.0, 0.0, 0.0)"><text style="text-align:center; text-anchor:middle; dominant-baseline:middle;&#10;                      font-family:sans-serif; font-weight: bold;&#10;                      font-size:0.2px;&#10;                      vector-effect: non-scaling-stroke;" transform="translate(-5e-05, 0)">1</text></g></g></g></g></g><g transform="matrix(1.0, 0.0, 0.0, 1.0, 1.5, -0.8660254037844386)"><g><g><g style="fill: #008000;stroke: black;stroke-width: 0.43200000000000005;" transform="matrix(0.2, 0.0, 0.0, 0.2, 0.2, 0.0)"><path d="M 0.0 0.0 A 1.0 1.0 0.0 0 0 -1.0 -1.0 A 1.0 1.0 -90.0 0 0 -2.0 0.0 A 1.0 1.0 180.0 0 0 -1.0 1.0 A 1.0 1.0 90.0 0 0 0.0 0.0 Z" style="vector-effect: non-scaling-stroke;" /></g><g style="fill: #ffffff;stroke: #ffffff;stroke-width: 0.0;" transform="matrix(1.0, 0.0, 0.0, 1.0, 0.0, 0.0)"><text style="text-align:center; text-anchor:middle; dominant-baseline:middle;&#10;                      font-family:sans-serif; font-weight: bold;&#10;                      font-size:0.2px;&#10;                      vector-effect: non-scaling-stroke;" transform="translate(-5e-05, 0)">2</text></g></g></g></g></g><g transform="matrix(1.0, 0.0, 0.0, 1.0, 1.0000000000000002, -1.7320508075688774)"><g><g><g style="fill: #008000;stroke: black;stroke-width: 0.43200000000000005;" transform="matrix(0.2, 0.0, 0.0, 0.2, 0.2, 0.0)"><path d="M 0.0 0.0 A 1.0 1.0 0.0 0 0 -1.0 -1.0 A 1.0 1.0 -90.0 0 0 -2.0 0.0 A 1.0 1.0 180.0 0 0 -1.0 1.0 A 1.0 1.0 90.0 0 0 0.0 0.0 Z" style="vector-effect: non-scaling-stroke;" /></g><g style="fill: #ffffff;stroke: #ffffff;stroke-width: 0.0;" transform="matrix(1.0, 0.0, 0.0, 1.0, 0.0, 0.0)"><text style="text-align:center; text-anchor:middle; dominant-baseline:middle;&#10;                      font-family:sans-serif; font-weight: bold;&#10;                      font-size:0.2px;&#10;                      vector-effect: non-scaling-stroke;" transform="translate(-5e-05, 0)">3</text></g></g></g></g></g><g transform="matrix(1.0, 0.0, 0.0, 1.0, 2.220446049250313e-16, -1.7320508075688774)"><g><g><g style="fill: #008000;stroke: black;stroke-width: 0.43200000000000005;" transform="matrix(0.2, 0.0, 0.0, 0.2, 0.2, 0.0)"><path d="M 0.0 0.0 A 1.0 1.0 0.0 0 0 -1.0 -1.0 A 1.0 1.0 -90.0 0 0 -2.0 0.0 A 1.0 1.0 180.0 0 0 -1.0 1.0 A 1.0 1.0 90.0 0 0 0.0 0.0 Z" style="vector-effect: non-scaling-stroke;" /></g><g style="fill: #ffffff;stroke: #ffffff;stroke-width: 0.0;" transform="matrix(1.0, 0.0, 0.0, 1.0, 0.0, 0.0)"><text style="text-align:center; text-anchor:middle; dominant-baseline:middle;&#10;                      font-family:sans-serif; font-weight: bold;&#10;                      font-size:0.2px;&#10;                      vector-effect: non-scaling-stroke;" transform="translate(-5e-05, 0)">4</text></g></g></g></g></g><g transform="matrix(1.0, 0.0, 0.0, 1.0, -0.5000000000000002, -0.866025403784439)"><g><g><g style="fill: #008000;stroke: black;stroke-width: 0.43200000000000005;" transform="matrix(0.2, 0.0, 0.0, 0.2, 0.2, 0.0)"><path d="M 0.0 0.0 A 1.0 1.0 0.0 0 0 -1.0 -1.0 A 1.0 1.0 -90.0 0 0 -2.0 0.0 A 1.0 1.0 180.0 0 0 -1.0 1.0 A 1.0 1.0 90.0 0 0 0.0 0.0 Z" style="vector-effect: non-scaling-stroke;" /></g><g style="fill: #ffffff;stroke: #ffffff;stroke-width: 0.0;" transform="matrix(1.0, 0.0, 0.0, 1.0, 0.0, 0.0)"><text style="text-align:center; text-anchor:middle; dominant-baseline:middle;&#10;                      font-family:sans-serif; font-weight: bold;&#10;                      font-size:0.2px;&#10;                      vector-effect: non-scaling-stroke;" transform="translate(-5e-05, 0)">5</text></g></g></g></g></g><g transform="matrix(1.0, 0.0, 0.0, 1.0, 0.2, 0.0)"><g transform="matrix(1.0, -0.0, 0.0, 1.0, 0.0, 0.0)"><g><g style="stroke: black;stroke-width: 0.43200000000000005;" transform="matrix(1.0, 0.0, 0.0, 1.0, 0.1, 0.0)"><path d="M 0.0 0.0 L 0.40000000000000013 0.0" style="vector-effect: non-scaling-stroke;fill:none;" /></g><g style="stroke: black;stroke-width: 0.43200000000000005;" transform="matrix(1.0, 0.0, 0.0, 1.0, 0.5000000000000001, 0.0)"><g style="fill: #000000;stroke: black;stroke-width: 0.0;" transform="matrix(0.0, 0.043199999999999995, -0.043199999999999995, 0.0, -0.05183999999999999, 0.0)"><path d="M 0.0 -0.2 L 1.0 0.2 L 0.0 -1.2 L -1.0 0.19999999999999996 L 0.0 -0.2 Z" style="vector-effect: non-scaling-stroke;" /></g></g></g></g></g></g><g transform="matrix(1.0, 0.0, 0.0, 1.0, 0.17320508075688756, -0.09999999999999992)"><g transform="matrix(0.8660254037844386, -0.5, 0.5, 0.8660254037844386, 0.0, 0.0)"><g><g style="stroke: black;stroke-width: 0.43200000000000005;" transform="matrix(1.0, 0.0, 0.0, 1.0, 0.1, 0.0)"><path d="M 0.0 0.0 L 1.1320508075688773 0.0" style="vector-effect: non-scaling-stroke;fill:none;" /></g><g style="stroke: black;stroke-width: 0.43200000000000005;" transform="matrix(1.0, 0.0, 0.0, 1.0, 1.2320508075688774, 0.0)"><g style="fill: #000000;stroke: black;stroke-width: 0.0;" transform="matrix(0.0, 0.043199999999999995, -0.043199999999999995, 0.0, -0.05183999999999999, 0.0)"><path d="M 0.0 -0.2 L 1.0 0.2 L 0.0 -1.2 L -1.0 0.19999999999999996 L 0.0 -0.2 Z" style="vector-effect: non-scaling-stroke;" /></g></g></g></g></g></g><g transform="matrix(1.0, 0.0, 0.0, 1.0, 0.09999999999999981, -0.17320508075688745)"><g transform="matrix(0.5000000000000001, -0.8660254037844386, 0.8660254037844386, 0.5000000000000001, 0.0, 0.0)"><g><g style="stroke: black;stroke-width: 0.43200000000000005;" transform="matrix(1.0, 0.0, 0.0, 1.0, 0.1, 0.0)"><path d="M 0.0 0.0 L 1.4000000000000006 0.0" style="vector-effect: non-scaling-stroke;fill:none;" /></g><g style="stroke: black;stroke-width: 0.43200000000000005;" transform="matrix(1.0, 0.0, 0.0, 1.0, 1.5000000000000007, 0.0)"><g style="fill: #000000;stroke: black;stroke-width: 0.0;" transform="matrix(0.0, 0.043199999999999995, -0.043199999999999995, 0.0, -0.05183999999999999, 0.0)"><path d="M 0.0 -0.2 L 1.0 0.2 L 0.0 -1.2 L -1.0 0.19999999999999996 L 0.0 -0.2 Z" style="vector-effect: non-scaling-stroke;" /></g></g></g></g></g></g><g transform="matrix(1.0, 0.0, 0.0, 1.0, 2.5639502485114182e-17, -0.19999999999999996)"><g transform="matrix(2.83276944882399e-16, -1.0, 1.0, 2.83276944882399e-16, 0.0, 0.0)"><g><g style="stroke: black;stroke-width: 0.43200000000000005;" transform="matrix(1.0, 0.0, 0.0, 1.0, 0.1, 0.0)"><path d="M 0.0 0.0 L 1.1320508075688773 0.0" style="vector-effect: non-scaling-stroke;fill:none;" /></g><g style="stroke: black;stroke-width: 0.43200000000000005;" transform="matrix(1.0, 0.0, 0.0, 1.0, 1.2320508075688774, 0.0)"><g style="fill: #000000;stroke: black;stroke-width: 0.0;" transform="matrix(0.0, 0.043199999999999995, -0.043199999999999995, 0.0, -0.05183999999999999, 0.0)"><path d="M 0.0 -0.2 L 1.0 0.2 L 0.0 -1.2 L -1.0 0.19999999999999996 L 0.0 -0.2 Z" style="vector-effect: non-scaling-stroke;" /></g></g></g></g></g></g><g transform="matrix(1.0, 0.0, 0.0, 1.0, -0.10000000000000003, -0.17320508075688779)"><g transform="matrix(-0.4999999999999998, -0.8660254037844388, 0.8660254037844388, -0.4999999999999998, 0.0, 0.0)"><g><g style="stroke: black;stroke-width: 0.43200000000000005;" transform="matrix(1.0, 0.0, 0.0, 1.0, 0.1, 0.0)"><path d="M 0.0 0.0 L 0.40000000000000036 0.0" style="vector-effect: non-scaling-stroke;fill:none;" /></g><g style="stroke: black;stroke-width: 0.43200000000000005;" transform="matrix(1.0, 0.0, 0.0, 1.0, 0.5000000000000003, 0.0)"><g style="fill: #000000;stroke: black;stroke-width: 0.0;" transform="matrix(0.0, 0.043199999999999995, -0.043199999999999995, 0.0, -0.05183999999999999, 0.0)"><path d="M 0.0 -0.2 L 1.0 0.2 L 0.0 -1.2 L -1.0 0.19999999999999996 L 0.0 -0.2 Z" style="vector-effect: non-scaling-stroke;" /></g></g></g></g></g></g><g transform="matrix(1.0, 0.0, 0.0, 1.0, 1.1, -0.17320508075688784)"><g transform="matrix(0.5000000000000001, -0.8660254037844386, 0.8660254037844386, 0.5000000000000001, 0.0, 0.0)"><g><g style="stroke: black;stroke-width: 0.43200000000000005;" transform="matrix(1.0, 0.0, 0.0, 1.0, 0.1, 0.0)"><path d="M 0.0 0.0 L 0.3999999999999996 0.0" style="vector-effect: non-scaling-stroke;fill:none;" /></g><g style="stroke: black;stroke-width: 0.43200000000000005;" transform="matrix(1.0, 0.0, 0.0, 1.0, 0.49999999999999956, 0.0)"><g style="fill: #000000;stroke: black;stroke-width: 0.0;" transform="matrix(0.0, 0.043199999999999995, -0.043199999999999995, 0.0, -0.05183999999999999, 0.0)"><path d="M 0.0 -0.2 L 1.0 0.2 L 0.0 -1.2 L -1.0 0.19999999999999996 L 0.0 -0.2 Z" style="vector-effect: non-scaling-stroke;" /></g></g></g></g></g></g><g transform="matrix(1.0, 0.0, 0.0, 1.0, 0.9999999999999999, -0.19999999999999996)"><g transform="matrix(0.0, -1.0, 1.0, 0.0, 0.0, 0.0)"><g><g style="stroke: black;stroke-width: 0.43200000000000005;" transform="matrix(1.0, 0.0, 0.0, 1.0, 0.1, 0.0)"><path d="M 0.0 0.0 L 1.1320508075688773 0.0" style="vector-effect: non-scaling-stroke;fill:none;" /></g><g style="stroke: black;stroke-width: 0.43200000000000005;" transform="matrix(1.0, 0.0, 0.0, 1.0, 1.2320508075688774, 0.0)"><g style="fill: #000000;stroke: black;stroke-width: 0.0;" transform="matrix(0.0, 0.043199999999999995, -0.043199999999999995, 0.0, -0.05183999999999999, 0.0)"><path d="M 0.0 -0.2 L 1.0 0.2 L 0.0 -1.2 L -1.0 0.19999999999999996 L 0.0 -0.2 Z" style="vector-effect: non-scaling-stroke;" /></g></g></g></g></g></g><g transform="matrix(1.0, 0.0, 0.0, 1.0, 0.9, -0.17320508075688767)"><g transform="matrix(-0.4999999999999998, -0.8660254037844388, 0.8660254037844388, -0.4999999999999998, 0.0, 0.0)"><g><g style="stroke: black;stroke-width: 0.43200000000000005;" transform="matrix(1.0, 0.0, 0.0, 1.0, 0.1, 0.0)"><path d="M 0.0 0.0 L 1.4 0.0" style="vector-effect: non-scaling-stroke;fill:none;" /></g><g style="stroke: black;stroke-width: 0.43200000000000005;" transform="matrix(1.0, 0.0, 0.0, 1.0, 1.5, 0.0)"><g style="fill: #000000;stroke: black;stroke-width: 0.0;" transform="matrix(0.0, 0.043199999999999995, -0.043199999999999995, 0.0, -0.05183999999999999, 0.0)"><path d="M 0.0 -0.2 L 1.0 0.2 L 0.0 -1.2 L -1.0 0.19999999999999996 L 0.0 -0.2 Z" style="vector-effect: non-scaling-stroke;" /></g></g></g></g></g></g><g transform="matrix(1.0, 0.0, 0.0, 1.0, 0.8267949192431122, -0.10000000000000009)"><g transform="matrix(-0.8660254037844387, -0.49999999999999994, 0.49999999999999994, -0.8660254037844387, 0.0, 0.0)"><g><g style="stroke: black;stroke-width: 0.43200000000000005;" transform="matrix(1.0, 0.0, 0.0, 1.0, 0.1, 0.0)"><path d="M 0.0 0.0 L 1.132050807568877 0.0" style="vector-effect: non-scaling-stroke;fill:none;" /></g><g style="stroke: black;stroke-width: 0.43200000000000005;" transform="matrix(1.0, 0.0, 0.0, 1.0, 1.2320508075688772, 0.0)"><g style="fill: #000000;stroke: black;stroke-width: 0.0;" transform="matrix(0.0, 0.043199999999999995, -0.043199999999999995, 0.0, -0.05183999999999999, 0.0)"><path d="M 0.0 -0.2 L 1.0 0.2 L 0.0 -1.2 L -1.0 0.19999999999999996 L 0.0 -0.2 Z" style="vector-effect: non-scaling-stroke;" /></g></g></g></g></g></g><g transform="matrix(1.0, 0.0, 0.0, 1.0, 1.4, -1.0392304845413263)"><g transform="matrix(-0.4999999999999998, -0.8660254037844388, 0.8660254037844388, -0.4999999999999998, 0.0, 0.0)"><g><g style="stroke: black;stroke-width: 0.43200000000000005;" transform="matrix(1.0, 0.0, 0.0, 1.0, 0.1, 0.0)"><path d="M 0.0 0.0 L 0.4 0.0" style="vector-effect: non-scaling-stroke;fill:none;" /></g><g style="stroke: black;stroke-width: 0.43200000000000005;" transform="matrix(1.0, 0.0, 0.0, 1.0, 0.5, 0.0)"><g style="fill: #000000;stroke: black;stroke-width: 0.0;" transform="matrix(0.0, 0.043199999999999995, -0.043199999999999995, 0.0, -0.05183999999999999, 0.0)"><path d="M 0.0 -0.2 L 1.0 0.2 L 0.0 -1.2 L -1.0 0.19999999999999996 L 0.0 -0.2 Z" style="vector-effect: non-scaling-stroke;" /></g></g></g></g></g></g><g transform="matrix(1.0, 0.0, 0.0, 1.0, 1.3267949192431123, -0.9660254037844386)"><g transform="matrix(-0.8660254037844385, -0.5000000000000003, 0.5000000000000003, -0.8660254037844385, 0.0, 0.0)"><g><g style="stroke: black;stroke-width: 0.43200000000000005;" transform="matrix(1.0, 0.0, 0.0, 1.0, 0.1, 0.0)"><path d="M 0.0 0.0 L 1.1320508075688769 0.0" style="vector-effect: non-scaling-stroke;fill:none;" /></g><g style="stroke: black;stroke-width: 0.43200000000000005;" transform="matrix(1.0, 0.0, 0.0, 1.0, 1.232050807568877, 0.0)"><g style="fill: #000000;stroke: black;stroke-width: 0.0;" transform="matrix(0.0, 0.043199999999999995, -0.043199999999999995, 0.0, -0.05183999999999999, 0.0)"><path d="M 0.0 -0.2 L 1.0 0.2 L 0.0 -1.2 L -1.0 0.19999999999999996 L 0.0 -0.2 Z" style="vector-effect: non-scaling-stroke;" /></g></g></g></g></g></g><g transform="matrix(1.0, 0.0, 0.0, 1.0, 1.3, -0.8660254037844386)"><g transform="matrix(-1.0, -5.66553889764798e-16, 5.66553889764798e-16, -1.0, 0.0, 0.0)"><g><g style="stroke: black;stroke-width: 0.43200000000000005;" transform="matrix(1.0, 0.0, 0.0, 1.0, 0.1, 0.0)"><path d="M 0.0 0.0 L 1.4 0.0" style="vector-effect: non-scaling-stroke;fill:none;" /></g><g style="stroke: black;stroke-width: 0.43200000000000005;" transform="matrix(1.0, 0.0, 0.0, 1.0, 1.5, 0.0)"><g style="fill: #000000;stroke: black;stroke-width: 0.0;" transform="matrix(0.0, 0.043199999999999995, -0.043199999999999995, 0.0, -0.05183999999999999, 0.0)"><path d="M 0.0 -0.2 L 1.0 0.2 L 0.0 -1.2 L -1.0 0.19999999999999996 L 0.0 -0.2 Z" style="vector-effect: non-scaling-stroke;" /></g></g></g></g></g></g><g transform="matrix(1.0, 0.0, 0.0, 1.0, 0.8000000000000003, -1.7320508075688774)"><g transform="matrix(-1.0, 0, 0, -1.0, 0.0, 0.0)"><g><g style="stroke: black;stroke-width: 0.43200000000000005;" transform="matrix(1.0, 0.0, 0.0, 1.0, 0.1, 0.0)"><path d="M 0.0 0.0 L 0.40000000000000013 0.0" style="vector-effect: non-scaling-stroke;fill:none;" /></g><g style="stroke: black;stroke-width: 0.43200000000000005;" transform="matrix(1.0, 0.0, 0.0, 1.0, 0.5000000000000001, 0.0)"><g style="fill: #000000;stroke: black;stroke-width: 0.0;" transform="matrix(0.0, 0.043199999999999995, -0.043199999999999995, 0.0, -0.05183999999999999, 0.0)"><path d="M 0.0 -0.2 L 1.0 0.2 L 0.0 -1.2 L -1.0 0.19999999999999996 L 0.0 -0.2 Z" style="vector-effect: non-scaling-stroke;" /></g></g></g></g></g></g><g transform="matrix(1.0, 0.0, 0.0, 1.0, 0.8267949192431127, -1.6320508075688775)"><g transform="matrix(-0.866025403784439, 0.4999999999999994, -0.4999999999999994, -0.866025403784439, 0.0, 0.0)"><g><g style="stroke: black;stroke-width: 0.43200000000000005;" transform="matrix(1.0, 0.0, 0.0, 1.0, 0.1, 0.0)"><path d="M 0.0 0.0 L 1.1320508075688778 0.0" style="vector-effect: non-scaling-stroke;fill:none;" /></g><g style="stroke: black;stroke-width: 0.43200000000000005;" transform="matrix(1.0, 0.0, 0.0, 1.0, 1.2320508075688779, 0.0)"><g style="fill: #000000;stroke: black;stroke-width: 0.0;" transform="matrix(0.0, 0.043199999999999995, -0.043199999999999995, 0.0, -0.05183999999999999, 0.0)"><path d="M 0.0 -0.2 L 1.0 0.2 L 0.0 -1.2 L -1.0 0.19999999999999996 L 0.0 -0.2 Z" style="vector-effect: non-scaling-stroke;" /></g></g></g></g></g></g><g transform="matrix(1.0, 0.0, 0.0, 1.0, -0.09999999999999987, -1.5588457268119897)"><g transform="matrix(-0.5000000000000012, 0.8660254037844379, -0.8660254037844379, -0.5000000000000012, 0.0, 0.0)"><g><g style="stroke: black;stroke-width: 0.43200000000000005;" transform="matrix(1.0, 0.0, 0.0, 1.0, 0.1, 0.0)"><path d="M 0.0 0.0 L 0.4 0.0" style="vector-effect: non-scaling-stroke;fill:none;" /></g><g style="stroke: black;stroke-width: 0.43200000000000005;" transform="matrix(1.0, 0.0, 0.0, 1.0, 0.5, 0.0)"><g style="fill: #000000;stroke: black;stroke-width: 0.0;" transform="matrix(0.0, 0.043199999999999995, -0.043199999999999995, 0.0, -0.05183999999999999, 0.0)"><path d="M 0.0 -0.2 L 1.0 0.2 L 0.0 -1.2 L -1.0 0.19999999999999996 L 0.0 -0.2 Z" style="vector-effect: non-scaling-stroke;" /></g></g></g></g></g></g></g><g /></g></g></g></g></svg>