<?xml version="1.0" encoding="utf-8" ?>
<svg baseProfile="full" height="128" version="1.1" width="144" xmlns="http://www.w3.org/2000/svg" xmlns:ev="http://www.w3.org/2001/xml-events" xmlns:xlink="http://www.w3.org/1999/xlink"><defs><marker id="arrow" markerHeight="3.5" markerWidth="5" orient="auto" refX="5.0" refY="1.7"><polygon points="0,0 5,1.75 0,3.5" /></marker></defs><g style="fill:white;"><g transform="matrix(1.0, 0.0, 0.0, 1.0, 72.04331128259842, 64.0)"><g transform="matrix(57.17723117666541, 0.0, 0.0, 57.17723117666541, 0.0, 0.0)"><g><g transform="matrix(1.0, 0.0, 0.0, 1.0, -0.0, 4.440892098500626e-16)"><g><g><g><g><g><g><g><g><g><g><g><g><g><g><g><g><g><g><g><g><g><g /><g transform="matrix(1.0, 0.0, 0.0, 1.0, -1.0000000000000002, 3.6739403974420604e-16)"><g><g><g style="fill: #008000;stroke: black;stroke-width: 0.43200000000000005;" transform="matrix(1.0, 0.0, 0.0, 1.0, 0.0, 0.0)"><circle cx="0.0" cy="0.0" r="0.2" style="vector-effect: non-scaling-stroke" /></g><g style="fill: #ffffff;stroke: #ffffff;stroke-width: 0.0;" transform="matrix(1.0, 0.0, 0.0, 1.0, 0.0, 0.0)"><text style="text-align:center; text-anchor:middle; dominant-baseline:middle;&#10;                      font-family:sans-serif; font-weight: bold;&#10;                      font-size:0.2px;&#10;                      vector-effect: non-scaling-stroke;" transform="translate(-5e-05, 0)">0</text></g></g></g></g></g><g transform="matrix(1.0, 0.0, 0.0, 1.0, -0.49999999999999994, -0.8660254037844389)"><g><g><g style="fill: #008000;stroke: black;stroke-width: 0.43200000000000005;" transform="matrix(1.0, 0.0, 0.0, 1.0, 0.0, 0.0)"><circle cx="0.0" cy="0.0" r="0.2" style="vector-effect: non-scaling-stroke" /></g><g style="fill: #ffffff;stroke: #ffffff;stroke-width: 0.0;" transform="matrix(1.0, 0.0, 0.0, 1.0, 0.0, 0.0)"><text style="text-align:center; text-anchor:middle; dominant-baseline:middle;&#10;                      font-family:sans-serif; font-weight: bold;&#10;                      font-size:0.2px;&#10;                      vector-effect: non-scaling-stroke;" transform="translate(-5e-05, 0)">1</text></g></g></g></g></g><g transform="matrix(1.0, 0.0, 0.0, 1.0, 0.4999999999999992, -0.8660254037844394)"><g><g><g style="fill: #008000;stroke: black;stroke-width: 0.43200000000000005;" transform="matrix(1.0, 0.0, 0.0, 1.0, 0.0, 0.0)"><circle cx="0.0" cy="0.0" r="0.2" style="vector-effect: non-scaling-stroke" /></g><g style="fill: #ffffff;stroke: #ffffff;stroke-width: 0.0;" transform="matrix(1.0, 0.0, 0.0, 1.0, 0.0, 0.0)"><text style="text-align:center; text-anchor:middle; dominant-baseline:middle;&#10;                      font-family:sans-serif; font-weight: bold;&#10;                      font-size:0.2px;&#10;                      vector-effect: non-scaling-stroke;" transform="translate(-5e-05, 0)">2</text></g></g></g></g></g><g transform="matrix(1.0, 0.0, 0.0, 1.0, 1.0000000000000002, -4.898587196589414e-16)"><g><g><g style="fill: #008000;stroke: black;stroke-width: 0.43200000000000005;" transform="matrix(1.0, 0.0, 0.0, 1.0, 0.0, 0.0)"><circle cx="0.0" cy="0.0" r="0.2" style="vector-effect: non-scaling-stroke" /></g><g style="fill: #ffffff;stroke: #ffffff;stroke-width: 0.0;" transform="matrix(1.0, 0.0, 0.0, 1.0, 0.0, 0.0)"><text style="text-align:center; text-anchor:middle; dominant-baseline:middle;&#10;                      font-family:sans-serif; font-weight: bold;&#10;                      font-size:0.2px;&#10;                      vector-effect: non-scaling-stroke;" transform="translate(-5e-05, 0)">3</text></g></g></g></g></g><g transform="matrix(1.0, 0.0, 0.0, 1.0, 0.5000000000000016, 0.866025403784438)"><g><g><g style="fill: #008000;stroke: black;stroke-width: 0.43200000000000005;" transform="matrix(1.0, 0.0, 0.0, 1.0, 0.0, 0.0)"><circle cx="0.0" cy="0.0" r="0.2" style="vector-effect: non-scaling-stroke" /></g><g style="fill: #ffffff;stroke: #ffffff;stroke-width: 0.0;" transform="matrix(1.0, 0.0, 0.0, 1.0, 0.0, 0.0)"><text style="text-align:center; text-anchor:middle; dominant-baseline:middle;&#10;                      font-family:sans-serif; font-weight: bold;&#10;                      font-size:0.2px;&#10;                      vector-effect: non-scaling-stroke;" transform="translate(-5e-05, 0)">4</text></g></g></g></g></g><g transform="matrix(1.0, 0.0, 0.0, 1.0, -0.5000000000000007, 0.8660254037844386)"><g><g><g style="fill: #008000;stroke: black;stroke-width: 0.43200000000000005;" transform="matrix(1.0, 0.0, 0.0, 1.0, 0.0, 0.0)"><circle cx="0.0" cy="0.0" r="0.2" style="vector-effect: non-scaling-stroke" /></g><g style="fill: #ffffff;stroke: #ffffff;stroke-width: 0.0;" transform="matrix(1.0, 0.0, 0.0, 1.0, 0.0, 0.0)"><text style="text-align:center; text-anchor:middle; dominant-baseline:middle;&#10;                      font-family:sans-serif; font-weight: bold;&#10;                      font-size:0.2px;&#10;                      vector-effect: non-scaling-stroke;" transform="translate(-5e-05, 0)">5</text></g></g></g></g></g><g transform="matrix(1.0, 0.0, 0.0, 1.0, -0.9000000000000001, -0.17320508075688745)"><g transform="matrix(0.4999999999999997, -0.8660254037844388, 0.8660254037844388, 0.4999999999999997, 0.0, 0.0)"><g><g style="stroke: black;stroke-width: 0.43200000000000005;" transform="matrix(1.0, 0.0, 0.0, 1.0, 0.1, 0.0)"><path d="M 0.0 0.0 L 0.0 0.0 L 0.40000000000000047 0.0" style="vector-effect: non-scaling-stroke;" /></g><g style="stroke: black;stroke-width: 0.43200000000000005;" transform="matrix(1.0, 0.0, 0.0, 1.0, 0.5000000000000004, 0.0)"><g style="fill: #000000;stroke: black;stroke-width: 0.0;" transform="matrix(0.0, 0.043199999999999995, -0.043199999999999995, 0.0, -0.05183999999999999, 0.0)"><path d="M 0.0 -0.2 L 0.0 -0.2 L 1.0 0.2 L 0.0 -1.2 L -1.0 0.2 L 0.0 -0.2 Z" style="vector-effect: non-scaling-stroke;" /></g></g></g></g></g></g><g transform="matrix(1.0, 0.0, 0.0, 1.0, -0.8267949192431127, -0.09999999999999987)"><g transform="matrix(0.8660254037844384, -0.5000000000000006, 0.5000000000000006, 0.8660254037844384, 0.0, 0.0)"><g><g style="stroke: black;stroke-width: 0.43200000000000005;" transform="matrix(1.0, 0.0, 0.0, 1.0, 0.1, 0.0)"><path d="M 0.0 0.0 L 0.0 0.0 L 1.132050807568877 0.0" style="vector-effect: non-scaling-stroke;" /></g><g style="stroke: black;stroke-width: 0.43200000000000005;" transform="matrix(1.0, 0.0, 0.0, 1.0, 1.2320508075688772, 0.0)"><g style="fill: #000000;stroke: black;stroke-width: 0.0;" transform="matrix(0.0, 0.043199999999999995, -0.043199999999999995, 0.0, -0.05183999999999999, 0.0)"><path d="M 0.0 -0.2 L 0.0 -0.2 L 1.0 0.2 L 0.0 -1.2 L -1.0 0.2 L 0.0 -0.2 Z" style="vector-effect: non-scaling-stroke;" /></g></g></g></g></g></g><g transform="matrix(1.0, 0.0, 0.0, 1.0, -0.8, 2.747801985947262e-16)"><g transform="matrix(1.0, -4.302114220422481e-16, 4.302114220422481e-16, 1.0, 0.0, 0.0)"><g><g style="stroke: black;stroke-width: 0.43200000000000005;" transform="matrix(1.0, 0.0, 0.0, 1.0, 0.1, 0.0)"><path d="M 0.0 0.0 L 0.0 0.0 L 1.4 0.0" style="vector-effect: non-scaling-stroke;" /></g><g style="stroke: black;stroke-width: 0.43200000000000005;" transform="matrix(1.0, 0.0, 0.0, 1.0, 1.5, 0.0)"><g style="fill: #000000;stroke: black;stroke-width: 0.0;" transform="matrix(0.0, 0.043199999999999995, -0.043199999999999995, 0.0, -0.05183999999999999, 0.0)"><path d="M 0.0 -0.2 L 0.0 -0.2 L 1.0 0.2 L 0.0 -1.2 L -1.0 0.2 L 0.0 -0.2 Z" style="vector-effect: non-scaling-stroke;" /></g></g></g></g></g></g><g transform="matrix(1.0, 0.0, 0.0, 1.0, -0.8267949192431121, 0.1000000000000002)"><g transform="matrix(0.8660254037844393, 0.4999999999999989, -0.4999999999999989, 0.8660254037844393, 0.0, 0.0)"><g><g style="stroke: black;stroke-width: 0.43200000000000005;" transform="matrix(1.0, 0.0, 0.0, 1.0, 0.1, 0.0)"><path d="M 0.0 0.0 L 0.0 0.0 L 1.1320508075688775 0.0" style="vector-effect: non-scaling-stroke;" /></g><g style="stroke: black;stroke-width: 0.43200000000000005;" transform="matrix(1.0, 0.0, 0.0, 1.0, 1.2320508075688776, 0.0)"><g style="fill: #000000;stroke: black;stroke-width: 0.0;" transform="matrix(0.0, 0.043199999999999995, -0.043199999999999995, 0.0, -0.05183999999999999, 0.0)"><path d="M 0.0 -0.2 L 0.0 -0.2 L 1.0 0.2 L 0.0 -1.2 L -1.0 0.2 L 0.0 -0.2 Z" style="vector-effect: non-scaling-stroke;" /></g></g></g></g></g></g><g transform="matrix(1.0, 0.0, 0.0, 1.0, -0.9, 0.17320508075688845)"><g transform="matrix(0.5000000000000001, 0.8660254037844386, -0.8660254037844386, 0.5000000000000001, 0.0, 0.0)"><g><g style="stroke: black;stroke-width: 0.43200000000000005;" transform="matrix(1.0, 0.0, 0.0, 1.0, 0.1, 0.0)"><path d="M 0.0 0.0 L 0.0 0.0 L 0.3999999999999987 0.0" style="vector-effect: non-scaling-stroke;" /></g><g style="stroke: black;stroke-width: 0.43200000000000005;" transform="matrix(1.0, 0.0, 0.0, 1.0, 0.49999999999999867, 0.0)"><g style="fill: #000000;stroke: black;stroke-width: 0.0;" transform="matrix(0.0, 0.043199999999999995, -0.043199999999999995, 0.0, -0.05183999999999999, 0.0)"><path d="M 0.0 -0.2 L 0.0 -0.2 L 1.0 0.2 L 0.0 -1.2 L -1.0 0.2 L 0.0 -0.2 Z" style="vector-effect: non-scaling-stroke;" /></g></g></g></g></g></g><g transform="matrix(1.0, 0.0, 0.0, 1.0, -0.2999999999999998, -0.866025403784439)"><g transform="matrix(1.0, -3.7007434154171945e-16, 3.7007434154171945e-16, 1.0, 0.0, 0.0)"><g><g style="stroke: black;stroke-width: 0.43200000000000005;" transform="matrix(1.0, 0.0, 0.0, 1.0, 0.1, 0.0)"><path d="M 0.0 0.0 L 0.0 0.0 L 0.399999999999999 0.0" style="vector-effect: non-scaling-stroke;" /></g><g style="stroke: black;stroke-width: 0.43200000000000005;" transform="matrix(1.0, 0.0, 0.0, 1.0, 0.499999999999999, 0.0)"><g style="fill: #000000;stroke: black;stroke-width: 0.0;" transform="matrix(0.0, 0.043199999999999995, -0.043199999999999995, 0.0, -0.05183999999999999, 0.0)"><path d="M 0.0 -0.2 L 0.0 -0.2 L 1.0 0.2 L 0.0 -1.2 L -1.0 0.2 L 0.0 -0.2 Z" style="vector-effect: non-scaling-stroke;" /></g></g></g></g></g></g><g transform="matrix(1.0, 0.0, 0.0, 1.0, -0.3267949192431139, -0.7660254037844398)"><g transform="matrix(0.8660254037844384, 0.5000000000000004, -0.5000000000000004, 0.8660254037844384, 0.0, 0.0)"><g><g style="stroke: black;stroke-width: 0.43200000000000005;" transform="matrix(1.0, 0.0, 0.0, 1.0, 0.1, 0.0)"><path d="M 0.0 0.0 L 0.0 0.0 L 1.1320508075688809 0.0" style="vector-effect: non-scaling-stroke;" /></g><g style="stroke: black;stroke-width: 0.43200000000000005;" transform="matrix(1.0, 0.0, 0.0, 1.0, 1.232050807568881, 0.0)"><g style="fill: #000000;stroke: black;stroke-width: 0.0;" transform="matrix(0.0, 0.043199999999999995, -0.043199999999999995, 0.0, -0.05183999999999999, 0.0)"><path d="M 0.0 -0.2 L 0.0 -0.2 L 1.0 0.2 L 0.0 -1.2 L -1.0 0.2 L 0.0 -0.2 Z" style="vector-effect: non-scaling-stroke;" /></g></g></g></g></g></g><g transform="matrix(1.0, 0.0, 0.0, 1.0, -0.3999999999999998, -0.692820323027551)"><g transform="matrix(0.5000000000000009, 0.8660254037844382, -0.8660254037844382, 0.5000000000000009, 0.0, 0.0)"><g><g style="stroke: black;stroke-width: 0.43200000000000005;" transform="matrix(1.0, 0.0, 0.0, 1.0, 0.1, 0.0)"><path d="M 0.0 0.0 L 0.0 0.0 L 1.4 0.0" style="vector-effect: non-scaling-stroke;" /></g><g style="stroke: black;stroke-width: 0.43200000000000005;" transform="matrix(1.0, 0.0, 0.0, 1.0, 1.5, 0.0)"><g style="fill: #000000;stroke: black;stroke-width: 0.0;" transform="matrix(0.0, 0.043199999999999995, -0.043199999999999995, 0.0, -0.05183999999999999, 0.0)"><path d="M 0.0 -0.2 L 0.0 -0.2 L 1.0 0.2 L 0.0 -1.2 L -1.0 0.2 L 0.0 -0.2 Z" style="vector-effect: non-scaling-stroke;" /></g></g></g></g></g></g><g transform="matrix(1.0, 0.0, 0.0, 1.0, -0.5, -0.6660254037844389)"><g transform="matrix(0, 1.0, -1.0, 0, 0.0, 0.0)"><g><g style="stroke: black;stroke-width: 0.43200000000000005;" transform="matrix(1.0, 0.0, 0.0, 1.0, 0.1, 0.0)"><path d="M 0.0 0.0 L 0.0 0.0 L 1.132050807568877 0.0" style="vector-effect: non-scaling-stroke;" /></g><g style="stroke: black;stroke-width: 0.43200000000000005;" transform="matrix(1.0, 0.0, 0.0, 1.0, 1.2320508075688772, 0.0)"><g style="fill: #000000;stroke: black;stroke-width: 0.0;" transform="matrix(0.0, 0.043199999999999995, -0.043199999999999995, 0.0, -0.05183999999999999, 0.0)"><path d="M 0.0 -0.2 L 0.0 -0.2 L 1.0 0.2 L 0.0 -1.2 L -1.0 0.2 L 0.0 -0.2 Z" style="vector-effect: non-scaling-stroke;" /></g></g></g></g></g></g><g transform="matrix(1.0, 0.0, 0.0, 1.0, 0.5999999999999994, -0.6928203230275516)"><g transform="matrix(0.5000000000000009, 0.8660254037844382, -0.8660254037844382, 0.5000000000000009, 0.0, 0.0)"><g><g style="stroke: black;stroke-width: 0.43200000000000005;" transform="matrix(1.0, 0.0, 0.0, 1.0, 0.1, 0.0)"><path d="M 0.0 0.0 L 0.0 0.0 L 0.4000000000000006 0.0" style="vector-effect: non-scaling-stroke;" /></g><g style="stroke: black;stroke-width: 0.43200000000000005;" transform="matrix(1.0, 0.0, 0.0, 1.0, 0.5000000000000006, 0.0)"><g style="fill: #000000;stroke: black;stroke-width: 0.0;" transform="matrix(0.0, 0.043199999999999995, -0.043199999999999995, 0.0, -0.05183999999999999, 0.0)"><path d="M 0.0 -0.2 L 0.0 -0.2 L 1.0 0.2 L 0.0 -1.2 L -1.0 0.2 L 0.0 -0.2 Z" style="vector-effect: non-scaling-stroke;" /></g></g></g></g></g></g><g transform="matrix(1.0, 0.0, 0.0, 1.0, 0.4999999999999995, -0.6660254037844392)"><g transform="matrix(7.044813998280222e-16, 1.0, -1.0, 7.044813998280222e-16, 0.0, 0.0)"><g><g style="stroke: black;stroke-width: 0.43200000000000005;" transform="matrix(1.0, 0.0, 0.0, 1.0, 0.1, 0.0)"><path d="M 0.0 0.0 L 0.0 0.0 L 1.1320508075688769 0.0" style="vector-effect: non-scaling-stroke;" /></g><g style="stroke: black;stroke-width: 0.43200000000000005;" transform="matrix(1.0, 0.0, 0.0, 1.0, 1.232050807568877, 0.0)"><g style="fill: #000000;stroke: black;stroke-width: 0.0;" transform="matrix(0.0, 0.043199999999999995, -0.043199999999999995, 0.0, -0.05183999999999999, 0.0)"><path d="M 0.0 -0.2 L 0.0 -0.2 L 1.0 0.2 L 0.0 -1.2 L -1.0 0.2 L 0.0 -0.2 Z" style="vector-effect: non-scaling-stroke;" /></g></g></g></g></g></g><g transform="matrix(1.0, 0.0, 0.0, 1.0, 0.39999999999999825, -0.69282032302755)"><g transform="matrix(-0.5000000000000004, 0.8660254037844384, -0.8660254037844384, -0.5000000000000004, 0.0, 0.0)"><g><g style="stroke: black;stroke-width: 0.43200000000000005;" transform="matrix(1.0, 0.0, 0.0, 1.0, 0.1, 0.0)"><path d="M 0.0 0.0 L 0.0 0.0 L 1.3999999999999966 0.0" style="vector-effect: non-scaling-stroke;" /></g><g style="stroke: black;stroke-width: 0.43200000000000005;" transform="matrix(1.0, 0.0, 0.0, 1.0, 1.4999999999999967, 0.0)"><g style="fill: #000000;stroke: black;stroke-width: 0.0;" transform="matrix(0.0, 0.043199999999999995, -0.043199999999999995, 0.0, -0.05183999999999999, 0.0)"><path d="M 0.0 -0.2 L 0.0 -0.2 L 1.0 0.2 L 0.0 -1.2 L -1.0 0.2 L 0.0 -0.2 Z" style="vector-effect: non-scaling-stroke;" /></g></g></g></g></g></g><g transform="matrix(1.0, 0.0, 0.0, 1.0, 0.9000000000000004, 0.17320508075688734)"><g transform="matrix(-0.49999999999999883, 0.8660254037844393, -0.8660254037844393, -0.49999999999999883, 0.0, 0.0)"><g><g style="stroke: black;stroke-width: 0.43200000000000005;" transform="matrix(1.0, 0.0, 0.0, 1.0, 0.1, 0.0)"><path d="M 0.0 0.0 L 0.0 0.0 L 0.3999999999999988 0.0" style="vector-effect: non-scaling-stroke;" /></g><g style="stroke: black;stroke-width: 0.43200000000000005;" transform="matrix(1.0, 0.0, 0.0, 1.0, 0.4999999999999988, 0.0)"><g style="fill: #000000;stroke: black;stroke-width: 0.0;" transform="matrix(0.0, 0.043199999999999995, -0.043199999999999995, 0.0, -0.05183999999999999, 0.0)"><path d="M 0.0 -0.2 L 0.0 -0.2 L 1.0 0.2 L 0.0 -1.2 L -1.0 0.2 L 0.0 -0.2 Z" style="vector-effect: non-scaling-stroke;" /></g></g></g></g></g></g><g transform="matrix(1.0, 0.0, 0.0, 1.0, 0.8267949192431125, 0.09999999999999964)"><g transform="matrix(-0.8660254037844386, 0.5000000000000001, -0.5000000000000001, -0.8660254037844386, 0.0, 0.0)"><g><g style="stroke: black;stroke-width: 0.43200000000000005;" transform="matrix(1.0, 0.0, 0.0, 1.0, 0.1, 0.0)"><path d="M 0.0 0.0 L 0.0 0.0 L 1.132050807568878 0.0" style="vector-effect: non-scaling-stroke;" /></g><g style="stroke: black;stroke-width: 0.43200000000000005;" transform="matrix(1.0, 0.0, 0.0, 1.0, 1.232050807568878, 0.0)"><g style="fill: #000000;stroke: black;stroke-width: 0.0;" transform="matrix(0.0, 0.043199999999999995, -0.043199999999999995, 0.0, -0.05183999999999999, 0.0)"><path d="M 0.0 -0.2 L 0.0 -0.2 L 1.0 0.2 L 0.0 -1.2 L -1.0 0.2 L 0.0 -0.2 Z" style="vector-effect: non-scaling-stroke;" /></g></g></g></g></g></g><g transform="matrix(1.0, 0.0, 0.0, 1.0, 0.3000000000000015, 0.8660254037844382)"><g transform="matrix(-1.0, 3.216245299353273e-16, -3.216245299353273e-16, -1.0, 0.0, 0.0)"><g><g style="stroke: black;stroke-width: 0.43200000000000005;" transform="matrix(1.0, 0.0, 0.0, 1.0, 0.1, 0.0)"><path d="M 0.0 0.0 L 0.0 0.0 L 0.40000000000000213 0.0" style="vector-effect: non-scaling-stroke;" /></g><g style="stroke: black;stroke-width: 0.43200000000000005;" transform="matrix(1.0, 0.0, 0.0, 1.0, 0.5000000000000021, 0.0)"><g style="fill: #000000;stroke: black;stroke-width: 0.0;" transform="matrix(0.0, 0.043199999999999995, -0.043199999999999995, 0.0, -0.05183999999999999, 0.0)"><path d="M 0.0 -0.2 L 0.0 -0.2 L 1.0 0.2 L 0.0 -1.2 L -1.0 0.2 L 0.0 -0.2 Z" style="vector-effect: non-scaling-stroke;" /></g></g></g></g></g></g></g><g /></g></g></g></g></svg>