<?xml version="1.0" encoding="utf-8" ?>
<svg baseProfile="full" height="128" version="1.1" width="112" xmlns="http://www.w3.org/2000/svg" xmlns:ev="http://www.w3.org/2001/xml-events" xmlns:xlink="http://www.w3.org/1999/xlink"><defs><marker id="arrow" markerHeight="3.5" markerWidth="5" orient="auto" refX="5.0" refY="1.7"><polygon points="0,0 5,1.75 0,3.5" /></marker></defs><g style="fill:white; stroke: black; stroke-width: 0.01;" transform="scale(44.0) translate(1.2600000000000002 1.4358658908349344)"><g><g><g><g><g><g><g><g /><g transform="matrix(1.0, 0.0, 0.0, 1.0, -1.0000000000000002, 3.6739403974420604e-16)"><g><g style="fill: #008000;" transform="matrix(1.0, 0.0, 0.0, 1.0, 0.0, 0.0)"><circle cx="0.0" cy="0.0" r="0.2" /></g><g style="fill: #ffffff;stroke: #ffffff;" transform="matrix(1.0, 0.0, 0.0, 1.0, 0.0, 0.0)"><text style="text-align:center; dominant-baseline:middle;&#10;                      font-family:sans-serif; font-weight: bold;&#10;                      font-size:0.2px" transform="translate(-0.063623046875, 0)">0</text></g></g></g></g><g transform="matrix(1.0, 0.0, 0.0, 1.0, -0.49999999999999994, -0.8660254037844389)"><g><g style="fill: #008000;" transform="matrix(1.0, 0.0, 0.0, 1.0, 0.0, 0.0)"><circle cx="0.0" cy="0.0" r="0.2" /></g><g style="fill: #ffffff;stroke: #ffffff;" transform="matrix(1.0, 0.0, 0.0, 1.0, 0.0, 0.0)"><text style="text-align:center; dominant-baseline:middle;&#10;                      font-family:sans-serif; font-weight: bold;&#10;                      font-size:0.2px" transform="translate(-0.063623046875, 0)">1</text></g></g></g></g><g transform="matrix(1.0, 0.0, 0.0, 1.0, 0.4999999999999992, -0.8660254037844394)"><g><g style="fill: #008000;" transform="matrix(1.0, 0.0, 0.0, 1.0, 0.0, 0.0)"><circle cx="0.0" cy="0.0" r="0.2" /></g><g style="fill: #ffffff;stroke: #ffffff;" transform="matrix(1.0, 0.0, 0.0, 1.0, 0.0, 0.0)"><text style="text-align:center; dominant-baseline:middle;&#10;                      font-family:sans-serif; font-weight: bold;&#10;                      font-size:0.2px" transform="translate(-0.063623046875, 0)">2</text></g></g></g></g><g transform="matrix(1.0, 0.0, 0.0, 1.0, 1.0000000000000002, -4.898587196589414e-16)"><g><g style="fill: #008000;" transform="matrix(1.0, 0.0, 0.0, 1.0, 0.0, 0.0)"><circle cx="0.0" cy="0.0" r="0.2" /></g><g style="fill: #ffffff;stroke: #ffffff;" transform="matrix(1.0, 0.0, 0.0, 1.0, 0.0, 0.0)"><text style="text-align:center; dominant-baseline:middle;&#10;                      font-family:sans-serif; font-weight: bold;&#10;                      font-size:0.2px" transform="translate(-0.063623046875, 0)">3</text></g></g></g></g><g transform="matrix(1.0, 0.0, 0.0, 1.0, 0.5000000000000016, 0.866025403784438)"><g><g style="fill: #008000;" transform="matrix(1.0, 0.0, 0.0, 1.0, 0.0, 0.0)"><circle cx="0.0" cy="0.0" r="0.2" /></g><g style="fill: #ffffff;stroke: #ffffff;" transform="matrix(1.0, 0.0, 0.0, 1.0, 0.0, 0.0)"><text style="text-align:center; dominant-baseline:middle;&#10;                      font-family:sans-serif; font-weight: bold;&#10;                      font-size:0.2px" transform="translate(-0.063623046875, 0)">4</text></g></g></g></g><g transform="matrix(1.0, 0.0, 0.0, 1.0, -0.5000000000000007, 0.8660254037844386)"><g><g style="fill: #008000;" transform="matrix(1.0, 0.0, 0.0, 1.0, 0.0, 0.0)"><circle cx="0.0" cy="0.0" r="0.2" /></g><g style="fill: #ffffff;stroke: #ffffff;" transform="matrix(1.0, 0.0, 0.0, 1.0, 0.0, 0.0)"><text style="text-align:center; dominant-baseline:middle;&#10;                      font-family:sans-serif; font-weight: bold;&#10;                      font-size:0.2px" transform="translate(-0.063623046875, 0)">5</text></g></g></g></g><g><g><g><g><g><g><g><g><g><g><g><g><g><g><g><g /><g style=";" transform="matrix(1.0, 0.0, 0.0, 1.0, 0.0, 0.0)"><polyline marker-end="url(#arrow)" points="-0.3552392578124996,-1.116758364194569 -0.7213696289062501,-0.4826019592661456" /></g></g><g style=";" transform="matrix(1.0, 0.0, 0.0, 1.0, 0.0, 0.0)"><polyline marker-end="url(#arrow)" points="0.20540293119295655,-0.6959397068062183 -0.16410888671875065,-0.4826019592661458" /></g></g><g style=";" transform="matrix(1.0, 0.0, 0.0, 1.0, 0.0, 0.0)"><polyline marker-end="url(#arrow)" points="0.36000000000000015,-2.242650509742816e-16 -0.36000000000000015,8.548717289613706e-17" /></g></g><g style=";" transform="matrix(1.0, 0.0, 0.0, 1.0, 0.0, 0.0)"><polyline marker-end="url(#arrow)" points="-0.0304029311929557,0.5597971286812183 -0.33589111328124927,0.383423444518293" /></g></g><g style=";" transform="matrix(1.0, 0.0, 0.0, 1.0, 0.0, 0.0)"><polyline marker-end="url(#arrow)" points="-0.4697607421875012,0.918401334698862 -0.7786303710937503,0.3834234445182933" /></g></g><g style=";" transform="matrix(1.0, 0.0, 0.0, 1.0, 0.0, 0.0)"><polyline marker-end="url(#arrow)" points="0.30076030827246936,-0.8660254037844393 -0.1478696124754485,-0.866025403784439" /></g></g><g style=";" transform="matrix(1.0, 0.0, 0.0, 1.0, 0.0, 0.0)"><polyline marker-end="url(#arrow)" points="0.3358911132812499,-0.38342344451829363 0.030402931192957727,-0.5597971286812184" /></g></g><g style=";" transform="matrix(1.0, 0.0, 0.0, 1.0, 0.0, 0.0)"><polyline marker-end="url(#arrow)" points="0.18000000000000113,0.3117691453623974 -0.17999999999999947,-0.3117691453623983" /></g></g><g style=";" transform="matrix(1.0, 0.0, 0.0, 1.0, 0.0, 0.0)"><polyline marker-end="url(#arrow)" points="-0.5000000000000008,0.9707772656132861 -0.4999999999999998,-1.3674913246046994" /></g></g><g style=";" transform="matrix(1.0, 0.0, 0.0, 1.0, 0.0, 0.0)"><polyline marker-end="url(#arrow)" points="0.7786303710937498,-0.3834234445182938 0.4697607421874984,-0.9184013346988649" /></g></g><g style=";" transform="matrix(1.0, 0.0, 0.0, 1.0, 0.0, 0.0)"><polyline marker-end="url(#arrow)" points="0.5000000000000023,1.3674913246046925 0.4999999999999991,-0.9707772656132905" /></g></g><g style=";" transform="matrix(1.0, 0.0, 0.0, 1.0, 0.0, 0.0)"><polyline marker-end="url(#arrow)" points="-0.18000000000000071,0.31176914536239775 0.17999999999999924,-0.31176914536239836" /></g></g><g style=";" transform="matrix(1.0, 0.0, 0.0, 1.0, 0.0, 0.0)"><polyline marker-end="url(#arrow)" points="0.3552392578125035,1.1167583641945649 0.7213696289062511,0.48260195926614496" /></g></g><g style=";" transform="matrix(1.0, 0.0, 0.0, 1.0, 0.0, 0.0)"><polyline marker-end="url(#arrow)" points="-0.2054029311929585,0.6959397068062181 0.16410888671874999,0.48260195926614524" /></g></g><g style=";" transform="matrix(1.0, 0.0, 0.0, 1.0, 0.0, 0.0)"><polyline marker-end="url(#arrow)" points="-0.30076030827247163,0.8660254037844386 0.14776812512344437,0.8660254037844383" /></g></g></g></g></svg>