<?xml version="1.0" encoding="utf-8" ?>
<svg baseProfile="full" height="128" version="1.1" width="144" xmlns="http://www.w3.org/2000/svg" xmlns:ev="http://www.w3.org/2001/xml-events" xmlns:xlink="http://www.w3.org/1999/xlink"><defs><marker id="arrow" markerHeight="3.5" markerWidth="5" orient="auto" refX="5.0" refY="1.7"><polygon points="0,0 5,1.75 0,3.5" /></marker></defs><g style="fill:white; stroke: black; stroke-width: 0.01;" transform="scale(57.0) translate(1.2600000000000002 1.1193266739736614)"><g><g><g><g><g><g><g><g><g /><g><g transform="matrix(1.0, 0.0, 0.0, 1.0, -1.0000000000000002, 3.6739403974420604e-16)"><g><g style="fill: #008000;" transform="matrix(1.0, 0.0, 0.0, 1.0, 0.0, 0.0)"><circle cx="0.0" cy="0.0" r="0.2" /></g><g style="fill: #ffffff;stroke: #ffffff;" transform="matrix(1.0, 0.0, 0.0, 1.0, 0.0, 0.0)"><text style="text-align:center; dominant-baseline:middle;&#10;                      font-family:sans-serif; font-weight: bold;&#10;                      font-size:0.2px" transform="translate(-0.063623046875, 0)">0</text></g></g></g><g style="stroke: #ff0000;fill-opacity: 0;" transform="matrix(1.0, 0.0, 0.0, 1.0, -1.0000000000000002, 3.608224830031759e-16)"><rect height="0.4" width="0.3999999999999999" x="-0.19999999999999996" y="-0.2" /></g></g></g><g><g transform="matrix(1.0, 0.0, 0.0, 1.0, -0.49999999999999994, -0.8660254037844389)"><g><g style="fill: #008000;" transform="matrix(1.0, 0.0, 0.0, 1.0, 0.0, 0.0)"><circle cx="0.0" cy="0.0" r="0.2" /></g><g style="fill: #ffffff;stroke: #ffffff;" transform="matrix(1.0, 0.0, 0.0, 1.0, 0.0, 0.0)"><text style="text-align:center; dominant-baseline:middle;&#10;                      font-family:sans-serif; font-weight: bold;&#10;                      font-size:0.2px" transform="translate(-0.063623046875, 0)">1</text></g></g></g><g style="stroke: #ff0000;fill-opacity: 0;" transform="matrix(1.0, 0.0, 0.0, 1.0, -0.49999999999999994, -0.8660254037844389)"><rect height="0.40000000000000013" width="0.4" x="-0.2" y="-0.20000000000000007" /></g></g></g><g><g transform="matrix(1.0, 0.0, 0.0, 1.0, 0.4999999999999992, -0.8660254037844394)"><g><g style="fill: #008000;" transform="matrix(1.0, 0.0, 0.0, 1.0, 0.0, 0.0)"><circle cx="0.0" cy="0.0" r="0.2" /></g><g style="fill: #ffffff;stroke: #ffffff;" transform="matrix(1.0, 0.0, 0.0, 1.0, 0.0, 0.0)"><text style="text-align:center; dominant-baseline:middle;&#10;                      font-family:sans-serif; font-weight: bold;&#10;                      font-size:0.2px" transform="translate(-0.063623046875, 0)">2</text></g></g></g><g style="stroke: #ff0000;fill-opacity: 0;" transform="matrix(1.0, 0.0, 0.0, 1.0, 0.4999999999999992, -0.8660254037844394)"><rect height="0.40000000000000013" width="0.4000000000000001" x="-0.20000000000000004" y="-0.20000000000000007" /></g></g></g><g><g transform="matrix(1.0, 0.0, 0.0, 1.0, 1.0000000000000002, -4.898587196589414e-16)"><g><g style="fill: #008000;" transform="matrix(1.0, 0.0, 0.0, 1.0, 0.0, 0.0)"><circle cx="0.0" cy="0.0" r="0.2" /></g><g style="fill: #ffffff;stroke: #ffffff;" transform="matrix(1.0, 0.0, 0.0, 1.0, 0.0, 0.0)"><text style="text-align:center; dominant-baseline:middle;&#10;                      font-family:sans-serif; font-weight: bold;&#10;                      font-size:0.2px" transform="translate(-0.063623046875, 0)">3</text></g></g></g><g style="stroke: #ff0000;fill-opacity: 0;" transform="matrix(1.0, 0.0, 0.0, 1.0, 1.0000000000000002, -4.996003610813204e-16)"><rect height="0.4" width="0.3999999999999999" x="-0.19999999999999996" y="-0.2" /></g></g></g><g><g transform="matrix(1.0, 0.0, 0.0, 1.0, 0.5000000000000016, 0.866025403784438)"><g><g style="fill: #008000;" transform="matrix(1.0, 0.0, 0.0, 1.0, 0.0, 0.0)"><circle cx="0.0" cy="0.0" r="0.2" /></g><g style="fill: #ffffff;stroke: #ffffff;" transform="matrix(1.0, 0.0, 0.0, 1.0, 0.0, 0.0)"><text style="text-align:center; dominant-baseline:middle;&#10;                      font-family:sans-serif; font-weight: bold;&#10;                      font-size:0.2px" transform="translate(-0.063623046875, 0)">4</text></g></g></g><g style="stroke: #ff0000;fill-opacity: 0;" transform="matrix(1.0, 0.0, 0.0, 1.0, 0.5000000000000016, 0.866025403784438)"><rect height="0.40000000000000013" width="0.39999999999999997" x="-0.19999999999999998" y="-0.20000000000000007" /></g></g></g><g><g transform="matrix(1.0, 0.0, 0.0, 1.0, -0.5000000000000007, 0.8660254037844386)"><g><g style="fill: #008000;" transform="matrix(1.0, 0.0, 0.0, 1.0, 0.0, 0.0)"><circle cx="0.0" cy="0.0" r="0.2" /></g><g style="fill: #ffffff;stroke: #ffffff;" transform="matrix(1.0, 0.0, 0.0, 1.0, 0.0, 0.0)"><text style="text-align:center; dominant-baseline:middle;&#10;                      font-family:sans-serif; font-weight: bold;&#10;                      font-size:0.2px" transform="translate(-0.063623046875, 0)">5</text></g></g></g><g style="stroke: #ff0000;fill-opacity: 0;" transform="matrix(1.0, 0.0, 0.0, 1.0, -0.5000000000000007, 0.8660254037844386)"><rect height="0.3999999999999999" width="0.39999999999999997" x="-0.19999999999999998" y="-0.19999999999999996" /></g></g></g><g style="stroke: #ff0000;fill-opacity: 0;" transform="matrix(1.0, 0.0, 0.0, 1.0, 0.0, -4.440892098500626e-16)"><rect height="2.132050807568878" width="2.4000000000000004" x="-1.2000000000000002" y="-1.066025403784439" /></g></g><g><g><g><g><g><g><g><g><g><g><g><g><g><g><g><g /><g style=";" transform="matrix(1.0, 0.0, 0.0, 1.0, 0.0, 0.0)"><polyline marker-end="url(#arrow)" points="-0.8710769515458676,-0.22330127018922163 -0.6289230484541326,-0.642724133595217" /></g></g><g style=";" transform="matrix(1.0, 0.0, 0.0, 1.0, 0.0, 0.0)"><polyline marker-end="url(#arrow)" points="-0.6132308546376029,-0.22330127018922166 0.11323085463760185,-0.6427241335952173" /></g></g><g style=";" transform="matrix(1.0, 0.0, 0.0, 1.0, 0.0, 0.0)"><polyline marker-end="url(#arrow)" points="-0.7200000000000002,2.403632848313464e-16 0.7200000000000002,-3.7914116290949096e-16" /></g></g><g style=";" transform="matrix(1.0, 0.0, 0.0, 1.0, 0.0, 0.0)"><polyline marker-end="url(#arrow)" points="-0.7450000000000001,0.1472243186433546 0.2450000000000015,0.7188010851410838" /></g></g><g style=";" transform="matrix(1.0, 0.0, 0.0, 1.0, 0.0, 0.0)"><polyline marker-end="url(#arrow)" points="-0.7950000000000003,0.3550704155516203 -0.7050000000000006,0.5109549882328187" /></g></g><g style=";" transform="matrix(1.0, 0.0, 0.0, 1.0, 0.0, 0.0)"><polyline marker-end="url(#arrow)" points="-0.26999999999999996,-0.866025403784439 0.26999999999999924,-0.8660254037844393" /></g></g><g style=";" transform="matrix(1.0, 0.0, 0.0, 1.0, 0.0, 0.0)"><polyline marker-end="url(#arrow)" points="-0.24499999999999988,-0.7188010851410844 0.7450000000000002,-0.1472243186433551" /></g></g><g style=";" transform="matrix(1.0, 0.0, 0.0, 1.0, 0.0, 0.0)"><polyline marker-end="url(#arrow)" points="-0.26999999999999985,-0.4676537180435977 0.27000000000000146,0.4676537180435967" /></g></g><g style=";" transform="matrix(1.0, 0.0, 0.0, 1.0, 0.0, 0.0)"><polyline marker-end="url(#arrow)" points="-0.5000000000000001,-0.599422863405995 -0.5000000000000006,0.5994228634059947" /></g></g><g style=";" transform="matrix(1.0, 0.0, 0.0, 1.0, 0.0, 0.0)"><polyline marker-end="url(#arrow)" points="0.7049999999999993,-0.5109549882328202 0.7950000000000003,-0.3550704155516199" /></g></g><g style=";" transform="matrix(1.0, 0.0, 0.0, 1.0, 0.0, 0.0)"><polyline marker-end="url(#arrow)" points="0.4999999999999996,-0.5994228634059955 0.5000000000000012,0.5994228634059942" /></g></g><g style=";" transform="matrix(1.0, 0.0, 0.0, 1.0, 0.0, 0.0)"><polyline marker-end="url(#arrow)" points="0.34607695154586665,-0.5994228634059954 -0.3460769515458681,0.5994228634059947" /></g></g><g style=";" transform="matrix(1.0, 0.0, 0.0, 1.0, 0.0, 0.0)"><polyline marker-end="url(#arrow)" points="0.871076951545868,0.22330127018922136 0.6289230484541339,0.6427241335952161" /></g></g><g style=";" transform="matrix(1.0, 0.0, 0.0, 1.0, 0.0, 0.0)"><polyline marker-end="url(#arrow)" points="0.6132308546376022,0.2233012701892215 -0.1132308546376028,0.6427241335952166" /></g></g><g style=";" transform="matrix(1.0, 0.0, 0.0, 1.0, 0.0, 0.0)"><polyline marker-end="url(#arrow)" points="0.27000000000000146,0.8660254037844383 -0.2700000000000006,0.8660254037844385" /></g></g></g></g></svg>