<?xml version="1.0" encoding="utf-8" ?>
<svg baseProfile="full" height="128" version="1.1" width="144" xmlns="http://www.w3.org/2000/svg" xmlns:ev="http://www.w3.org/2001/xml-events" xmlns:xlink="http://www.w3.org/1999/xlink"><defs><marker id="arrow" markerHeight="3.5" markerWidth="5" orient="auto" refX="5.0" refY="1.7"><polygon points="0,0 5,1.75 0,3.5" /></marker></defs><g style="fill:white;"><g transform="matrix(1.0, 0.0, 0.0, 1.0, 72.04331128259842, 64.0)"><g transform="matrix(57.17723117666541, 0.0, 0.0, 57.17723117666541, 0.0, 0.0)"><g><g transform="matrix(1.0, 0.0, 0.0, 1.0, -0.0, 4.440892098500626e-16)"><g><g><g><g><g><g><g><g><g><g><g><g><g><g><g><g><g><g><g><g><g><g /><g transform="matrix(1.0, 0.0, 0.0, 1.0, -1.0000000000000002, 3.6739403974420604e-16)"><g><g><g style="fill: #008000;stroke: black;stroke-width: 0.43200000000000005;" transform="matrix(1.0, 0.0, 0.0, 1.0, 0.0, 0.0)"><path d="M 0.2 0.0 A 0.2 0.2 0.0 1 1 0.19999999999999696 -3.4906585049257354e-08 Z" style="vector-effect: non-scaling-stroke;" /></g><g style="fill: #ffffff;stroke: #ffffff;stroke-width: 0.0;" transform="matrix(1.0, 0.0, 0.0, 1.0, 0.0, 0.0)"><text style="text-align:center; text-anchor:middle; dominant-baseline:middle;&#10;                      font-family:sans-serif; font-weight: bold;&#10;                      font-size:0.2px;&#10;                      vector-effect: non-scaling-stroke;" transform="translate(-5e-05, 0)">0</text></g></g></g></g></g><g transform="matrix(1.0, 0.0, 0.0, 1.0, -0.49999999999999994, -0.8660254037844389)"><g><g><g style="fill: #008000;stroke: black;stroke-width: 0.43200000000000005;" transform="matrix(1.0, 0.0, 0.0, 1.0, 0.0, 0.0)"><path d="M 0.2 0.0 A 0.2 0.2 0.0 1 1 0.19999999999999696 -3.4906585049257354e-08 Z" style="vector-effect: non-scaling-stroke;" /></g><g style="fill: #ffffff;stroke: #ffffff;stroke-width: 0.0;" transform="matrix(1.0, 0.0, 0.0, 1.0, 0.0, 0.0)"><text style="text-align:center; text-anchor:middle; dominant-baseline:middle;&#10;                      font-family:sans-serif; font-weight: bold;&#10;                      font-size:0.2px;&#10;                      vector-effect: non-scaling-stroke;" transform="translate(-5e-05, 0)">1</text></g></g></g></g></g><g transform="matrix(1.0, 0.0, 0.0, 1.0, 0.4999999999999992, -0.8660254037844394)"><g><g><g style="fill: #008000;stroke: black;stroke-width: 0.43200000000000005;" transform="matrix(1.0, 0.0, 0.0, 1.0, 0.0, 0.0)"><path d="M 0.2 0.0 A 0.2 0.2 0.0 1 1 0.19999999999999696 -3.4906585049257354e-08 Z" style="vector-effect: non-scaling-stroke;" /></g><g style="fill: #ffffff;stroke: #ffffff;stroke-width: 0.0;" transform="matrix(1.0, 0.0, 0.0, 1.0, 0.0, 0.0)"><text style="text-align:center; text-anchor:middle; dominant-baseline:middle;&#10;                      font-family:sans-serif; font-weight: bold;&#10;                      font-size:0.2px;&#10;                      vector-effect: non-scaling-stroke;" transform="translate(-5e-05, 0)">2</text></g></g></g></g></g><g transform="matrix(1.0, 0.0, 0.0, 1.0, 1.0000000000000002, -4.898587196589414e-16)"><g><g><g style="fill: #008000;stroke: black;stroke-width: 0.43200000000000005;" transform="matrix(1.0, 0.0, 0.0, 1.0, 0.0, 0.0)"><path d="M 0.2 0.0 A 0.2 0.2 0.0 1 1 0.19999999999999696 -3.4906585049257354e-08 Z" style="vector-effect: non-scaling-stroke;" /></g><g style="fill: #ffffff;stroke: #ffffff;stroke-width: 0.0;" transform="matrix(1.0, 0.0, 0.0, 1.0, 0.0, 0.0)"><text style="text-align:center; text-anchor:middle; dominant-baseline:middle;&#10;                      font-family:sans-serif; font-weight: bold;&#10;                      font-size:0.2px;&#10;                      vector-effect: non-scaling-stroke;" transform="translate(-5e-05, 0)">3</text></g></g></g></g></g><g transform="matrix(1.0, 0.0, 0.0, 1.0, 0.5000000000000016, 0.866025403784438)"><g><g><g style="fill: #008000;stroke: black;stroke-width: 0.43200000000000005;" transform="matrix(1.0, 0.0, 0.0, 1.0, 0.0, 0.0)"><path d="M 0.2 0.0 A 0.2 0.2 0.0 1 1 0.19999999999999696 -3.4906585049257354e-08 Z" style="vector-effect: non-scaling-stroke;" /></g><g style="fill: #ffffff;stroke: #ffffff;stroke-width: 0.0;" transform="matrix(1.0, 0.0, 0.0, 1.0, 0.0, 0.0)"><text style="text-align:center; text-anchor:middle; dominant-baseline:middle;&#10;                      font-family:sans-serif; font-weight: bold;&#10;                      font-size:0.2px;&#10;                      vector-effect: non-scaling-stroke;" transform="translate(-5e-05, 0)">4</text></g></g></g></g></g><g transform="matrix(1.0, 0.0, 0.0, 1.0, -0.5000000000000007, 0.8660254037844386)"><g><g><g style="fill: #008000;stroke: black;stroke-width: 0.43200000000000005;" transform="matrix(1.0, 0.0, 0.0, 1.0, 0.0, 0.0)"><path d="M 0.2 0.0 A 0.2 0.2 0.0 1 1 0.19999999999999696 -3.4906585049257354e-08 Z" style="vector-effect: non-scaling-stroke;" /></g><g style="fill: #ffffff;stroke: #ffffff;stroke-width: 0.0;" transform="matrix(1.0, 0.0, 0.0, 1.0, 0.0, 0.0)"><text style="text-align:center; text-anchor:middle; dominant-baseline:middle;&#10;                      font-family:sans-serif; font-weight: bold;&#10;                      font-size:0.2px;&#10;                      vector-effect: non-scaling-stroke;" transform="translate(-5e-05, 0)">5</text></g></g></g></g></g><g transform="matrix(1.0, 0.0, 0.0, 1.0, -0.9000000000000004, -0.1732050807568873)"><g transform="matrix(0.4999999999999999, -0.8660254037844387, 0.8660254037844387, 0.4999999999999999, 0.0, 0.0)"><g><g style="stroke: black;stroke-width: 0.43200000000000005;" transform="matrix(1.0, 0.0, 0.0, 1.0, 0.1, 0.0)"><path d="M 0.0 0.0 L 0.4000000000000009 0.0" style="vector-effect: non-scaling-stroke;" /></g><g style="stroke: black;stroke-width: 0.43200000000000005;" transform="matrix(1.0, 0.0, 0.0, 1.0, 0.5000000000000009, 0.0)"><g style="fill: #000000;stroke: black;stroke-width: 0.0;" transform="matrix(0.0, 0.043199999999999995, -0.043199999999999995, 0.0, -0.05183999999999999, 0.0)"><path d="M 0.0 -0.2 L 1.0 0.2 L 0.0 -1.2 L -1.0 0.2 L 0.0 -0.2 Z" style="vector-effect: non-scaling-stroke;" /></g></g></g></g></g></g><g transform="matrix(1.0, 0.0, 0.0, 1.0, -0.8267949192431124, -0.09999999999999987)"><g transform="matrix(0.8660254037844383, -0.5000000000000007, 0.5000000000000007, 0.8660254037844383, 0.0, 0.0)"><g><g style="stroke: black;stroke-width: 0.43200000000000005;" transform="matrix(1.0, 0.0, 0.0, 1.0, 0.1, 0.0)"><path d="M 0.0 0.0 L 1.1320508075688773 0.0" style="vector-effect: non-scaling-stroke;" /></g><g style="stroke: black;stroke-width: 0.43200000000000005;" transform="matrix(1.0, 0.0, 0.0, 1.0, 1.2320508075688774, 0.0)"><g style="fill: #000000;stroke: black;stroke-width: 0.0;" transform="matrix(0.0, 0.043199999999999995, -0.043199999999999995, 0.0, -0.05183999999999999, 0.0)"><path d="M 0.0 -0.2 L 1.0 0.2 L 0.0 -1.2 L -1.0 0.2 L 0.0 -0.2 Z" style="vector-effect: non-scaling-stroke;" /></g></g></g></g></g></g><g transform="matrix(1.0, 0.0, 0.0, 1.0, -0.8000000000000002, 2.7478019859472625e-16)"><g transform="matrix(1.0, -4.302114220422481e-16, 4.302114220422481e-16, 1.0, 0.0, 0.0)"><g><g style="stroke: black;stroke-width: 0.43200000000000005;" transform="matrix(1.0, 0.0, 0.0, 1.0, 0.1, 0.0)"><path d="M 0.0 0.0 L 1.5999500000000002 0.0" style="vector-effect: non-scaling-stroke;" /></g><g style="stroke: black;stroke-width: 0.43200000000000005;" transform="matrix(1.0, 0.0, 0.0, 1.0, 1.6999500000000003, 0.0)"><g style="fill: #000000;stroke: black;stroke-width: 0.0;" transform="matrix(0.0, 0.043199999999999995, -0.043199999999999995, 0.0, -0.05183999999999999, 0.0)"><path d="M 0.0 -0.2 L 1.0 0.2 L 0.0 -1.2 L -1.0 0.2 L 0.0 -0.2 Z" style="vector-effect: non-scaling-stroke;" /></g></g></g></g></g></g><g transform="matrix(1.0, 0.0, 0.0, 1.0, -0.8267949192431127, 0.10000000000000003)"><g transform="matrix(0.8660254037844393, 0.4999999999999989, -0.4999999999999989, 0.8660254037844393, 0.0, 0.0)"><g><g style="stroke: black;stroke-width: 0.43200000000000005;" transform="matrix(1.0, 0.0, 0.0, 1.0, 0.1, 0.0)"><path d="M 0.0 0.0 L 1.1320508075688787 0.0" style="vector-effect: non-scaling-stroke;" /></g><g style="stroke: black;stroke-width: 0.43200000000000005;" transform="matrix(1.0, 0.0, 0.0, 1.0, 1.2320508075688787, 0.0)"><g style="fill: #000000;stroke: black;stroke-width: 0.0;" transform="matrix(0.0, 0.043199999999999995, -0.043199999999999995, 0.0, -0.05183999999999999, 0.0)"><path d="M 0.0 -0.2 L 1.0 0.2 L 0.0 -1.2 L -1.0 0.2 L 0.0 -0.2 Z" style="vector-effect: non-scaling-stroke;" /></g></g></g></g></g></g><g transform="matrix(1.0, 0.0, 0.0, 1.0, -0.9000000000000004, 0.17320508075688806)"><g transform="matrix(0.5000000000000001, 0.8660254037844386, -0.8660254037844386, 0.5000000000000001, 0.0, 0.0)"><g><g style="stroke: black;stroke-width: 0.43200000000000005;" transform="matrix(1.0, 0.0, 0.0, 1.0, 0.1, 0.0)"><path d="M 0.0 0.0 L 0.3999999999999996 0.0" style="vector-effect: non-scaling-stroke;" /></g><g style="stroke: black;stroke-width: 0.43200000000000005;" transform="matrix(1.0, 0.0, 0.0, 1.0, 0.49999999999999956, 0.0)"><g style="fill: #000000;stroke: black;stroke-width: 0.0;" transform="matrix(0.0, 0.043199999999999995, -0.043199999999999995, 0.0, -0.05183999999999999, 0.0)"><path d="M 0.0 -0.2 L 1.0 0.2 L 0.0 -1.2 L -1.0 0.2 L 0.0 -0.2 Z" style="vector-effect: non-scaling-stroke;" /></g></g></g></g></g></g><g transform="matrix(1.0, 0.0, 0.0, 1.0, -0.30000000000000004, -0.866025403784439)"><g transform="matrix(1.0, -4.1635965671297866e-16, 4.1635965671297866e-16, 1.0, 0.0, 0.0)"><g><g style="stroke: black;stroke-width: 0.43200000000000005;" transform="matrix(1.0, 0.0, 0.0, 1.0, 0.1, 0.0)"><path d="M 0.0 0.0 L 0.5999499999999993 0.0" style="vector-effect: non-scaling-stroke;" /></g><g style="stroke: black;stroke-width: 0.43200000000000005;" transform="matrix(1.0, 0.0, 0.0, 1.0, 0.6999499999999993, 0.0)"><g style="fill: #000000;stroke: black;stroke-width: 0.0;" transform="matrix(0.0, 0.043199999999999995, -0.043199999999999995, 0.0, -0.05183999999999999, 0.0)"><path d="M 0.0 -0.2 L 1.0 0.2 L 0.0 -1.2 L -1.0 0.2 L 0.0 -0.2 Z" style="vector-effect: non-scaling-stroke;" /></g></g></g></g></g></g><g transform="matrix(1.0, 0.0, 0.0, 1.0, -0.3267949192431124, -0.7660254037844391)"><g transform="matrix(0.8660254037844384, 0.5000000000000004, -0.5000000000000004, 0.8660254037844384, 0.0, 0.0)"><g><g style="stroke: black;stroke-width: 0.43200000000000005;" transform="matrix(1.0, 0.0, 0.0, 1.0, 0.1, 0.0)"><path d="M 0.0 0.0 L 1.1320508075688775 0.0" style="vector-effect: non-scaling-stroke;" /></g><g style="stroke: black;stroke-width: 0.43200000000000005;" transform="matrix(1.0, 0.0, 0.0, 1.0, 1.2320508075688776, 0.0)"><g style="fill: #000000;stroke: black;stroke-width: 0.0;" transform="matrix(0.0, 0.043199999999999995, -0.043199999999999995, 0.0, -0.05183999999999999, 0.0)"><path d="M 0.0 -0.2 L 1.0 0.2 L 0.0 -1.2 L -1.0 0.2 L 0.0 -0.2 Z" style="vector-effect: non-scaling-stroke;" /></g></g></g></g></g></g><g transform="matrix(1.0, 0.0, 0.0, 1.0, -0.4000000000000002, -0.6928203230275518)"><g transform="matrix(0.5000000000000009, 0.8660254037844382, -0.8660254037844382, 0.5000000000000009, 0.0, 0.0)"><g><g style="stroke: black;stroke-width: 0.43200000000000005;" transform="matrix(1.0, 0.0, 0.0, 1.0, 0.1, 0.0)"><path d="M 0.0 0.0 L 1.400000000000001 0.0" style="vector-effect: non-scaling-stroke;" /></g><g style="stroke: black;stroke-width: 0.43200000000000005;" transform="matrix(1.0, 0.0, 0.0, 1.0, 1.500000000000001, 0.0)"><g style="fill: #000000;stroke: black;stroke-width: 0.0;" transform="matrix(0.0, 0.043199999999999995, -0.043199999999999995, 0.0, -0.05183999999999999, 0.0)"><path d="M 0.0 -0.2 L 1.0 0.2 L 0.0 -1.2 L -1.0 0.2 L 0.0 -0.2 Z" style="vector-effect: non-scaling-stroke;" /></g></g></g></g></g></g><g transform="matrix(1.0, 0.0, 0.0, 1.0, -0.5000000000000001, -0.666025403784439)"><g transform="matrix(0, 1.0, -1.0, 0, 0.0, 0.0)"><g><g style="stroke: black;stroke-width: 0.43200000000000005;" transform="matrix(1.0, 0.0, 0.0, 1.0, 0.1, 0.0)"><path d="M 0.0 0.0 L 1.1320508075688775 0.0" style="vector-effect: non-scaling-stroke;" /></g><g style="stroke: black;stroke-width: 0.43200000000000005;" transform="matrix(1.0, 0.0, 0.0, 1.0, 1.2320508075688776, 0.0)"><g style="fill: #000000;stroke: black;stroke-width: 0.0;" transform="matrix(0.0, 0.043199999999999995, -0.043199999999999995, 0.0, -0.05183999999999999, 0.0)"><path d="M 0.0 -0.2 L 1.0 0.2 L 0.0 -1.2 L -1.0 0.2 L 0.0 -0.2 Z" style="vector-effect: non-scaling-stroke;" /></g></g></g></g></g></g><g transform="matrix(1.0, 0.0, 0.0, 1.0, 0.5999999999999994, -0.6928203230275518)"><g transform="matrix(0.5000000000000009, 0.8660254037844382, -0.8660254037844382, 0.5000000000000009, 0.0, 0.0)"><g><g style="stroke: black;stroke-width: 0.43200000000000005;" transform="matrix(1.0, 0.0, 0.0, 1.0, 0.1, 0.0)"><path d="M 0.0 0.0 L 0.4000000000000007 0.0" style="vector-effect: non-scaling-stroke;" /></g><g style="stroke: black;stroke-width: 0.43200000000000005;" transform="matrix(1.0, 0.0, 0.0, 1.0, 0.5000000000000007, 0.0)"><g style="fill: #000000;stroke: black;stroke-width: 0.0;" transform="matrix(0.0, 0.043199999999999995, -0.043199999999999995, 0.0, -0.05183999999999999, 0.0)"><path d="M 0.0 -0.2 L 1.0 0.2 L 0.0 -1.2 L -1.0 0.2 L 0.0 -0.2 Z" style="vector-effect: non-scaling-stroke;" /></g></g></g></g></g></g><g transform="matrix(1.0, 0.0, 0.0, 1.0, 0.49999999999999956, -0.6660254037844394)"><g transform="matrix(7.044813998280222e-16, 1.0, -1.0, 7.044813998280222e-16, 0.0, 0.0)"><g><g style="stroke: black;stroke-width: 0.43200000000000005;" transform="matrix(1.0, 0.0, 0.0, 1.0, 0.1, 0.0)"><path d="M 0.0 0.0 L 1.1320508075688773 0.0" style="vector-effect: non-scaling-stroke;" /></g><g style="stroke: black;stroke-width: 0.43200000000000005;" transform="matrix(1.0, 0.0, 0.0, 1.0, 1.2320508075688774, 0.0)"><g style="fill: #000000;stroke: black;stroke-width: 0.0;" transform="matrix(0.0, 0.043199999999999995, -0.043199999999999995, 0.0, -0.05183999999999999, 0.0)"><path d="M 0.0 -0.2 L 1.0 0.2 L 0.0 -1.2 L -1.0 0.2 L 0.0 -0.2 Z" style="vector-effect: non-scaling-stroke;" /></g></g></g></g></g></g><g transform="matrix(1.0, 0.0, 0.0, 1.0, 0.3999999999999991, -0.6928203230275513)"><g transform="matrix(-0.5000000000000004, 0.8660254037844384, -0.8660254037844384, -0.5000000000000004, 0.0, 0.0)"><g><g style="stroke: black;stroke-width: 0.43200000000000005;" transform="matrix(1.0, 0.0, 0.0, 1.0, 0.1, 0.0)"><path d="M 0.0 0.0 L 1.4000000000000006 0.0" style="vector-effect: non-scaling-stroke;" /></g><g style="stroke: black;stroke-width: 0.43200000000000005;" transform="matrix(1.0, 0.0, 0.0, 1.0, 1.5000000000000007, 0.0)"><g style="fill: #000000;stroke: black;stroke-width: 0.0;" transform="matrix(0.0, 0.043199999999999995, -0.043199999999999995, 0.0, -0.05183999999999999, 0.0)"><path d="M 0.0 -0.2 L 1.0 0.2 L 0.0 -1.2 L -1.0 0.2 L 0.0 -0.2 Z" style="vector-effect: non-scaling-stroke;" /></g></g></g></g></g></g><g transform="matrix(1.0, 0.0, 0.0, 1.0, 0.9000000000000005, 0.17320508075688723)"><g transform="matrix(-0.49999999999999883, 0.8660254037844393, -0.8660254037844393, -0.49999999999999883, 0.0, 0.0)"><g><g style="stroke: black;stroke-width: 0.43200000000000005;" transform="matrix(1.0, 0.0, 0.0, 1.0, 0.1, 0.0)"><path d="M 0.0 0.0 L 0.3999999999999996 0.0" style="vector-effect: non-scaling-stroke;" /></g><g style="stroke: black;stroke-width: 0.43200000000000005;" transform="matrix(1.0, 0.0, 0.0, 1.0, 0.49999999999999956, 0.0)"><g style="fill: #000000;stroke: black;stroke-width: 0.0;" transform="matrix(0.0, 0.043199999999999995, -0.043199999999999995, 0.0, -0.05183999999999999, 0.0)"><path d="M 0.0 -0.2 L 1.0 0.2 L 0.0 -1.2 L -1.0 0.2 L 0.0 -0.2 Z" style="vector-effect: non-scaling-stroke;" /></g></g></g></g></g></g><g transform="matrix(1.0, 0.0, 0.0, 1.0, 0.826794919243112, 0.09999999999999976)"><g transform="matrix(-0.8660254037844386, 0.5000000000000001, -0.5000000000000001, -0.8660254037844386, 0.0, 0.0)"><g><g style="stroke: black;stroke-width: 0.43200000000000005;" transform="matrix(1.0, 0.0, 0.0, 1.0, 0.1, 0.0)"><path d="M 0.0 0.0 L 1.132050807568877 0.0" style="vector-effect: non-scaling-stroke;" /></g><g style="stroke: black;stroke-width: 0.43200000000000005;" transform="matrix(1.0, 0.0, 0.0, 1.0, 1.2320508075688772, 0.0)"><g style="fill: #000000;stroke: black;stroke-width: 0.0;" transform="matrix(0.0, 0.043199999999999995, -0.043199999999999995, 0.0, -0.05183999999999999, 0.0)"><path d="M 0.0 -0.2 L 1.0 0.2 L 0.0 -1.2 L -1.0 0.2 L 0.0 -0.2 Z" style="vector-effect: non-scaling-stroke;" /></g></g></g></g></g></g><g transform="matrix(1.0, 0.0, 0.0, 1.0, 0.49995000000000156, 0.8660254037844382)"><g transform="matrix(-1.0, 3.216245299353273e-16, -3.216245299353273e-16, -1.0, 0.0, 0.0)"><g><g style="stroke: black;stroke-width: 0.43200000000000005;" transform="matrix(1.0, 0.0, 0.0, 1.0, 0.1, 0.0)"><path d="M 0.0 0.0 L 0.5999500000000022 0.0" style="vector-effect: non-scaling-stroke;" /></g><g style="stroke: black;stroke-width: 0.43200000000000005;" transform="matrix(1.0, 0.0, 0.0, 1.0, 0.6999500000000022, 0.0)"><g style="fill: #000000;stroke: black;stroke-width: 0.0;" transform="matrix(0.0, 0.043199999999999995, -0.043199999999999995, 0.0, -0.05183999999999999, 0.0)"><path d="M 0.0 -0.2 L 1.0 0.2 L 0.0 -1.2 L -1.0 0.2 L 0.0 -0.2 Z" style="vector-effect: non-scaling-stroke;" /></g></g></g></g></g></g></g><g /></g></g></g></g></svg>