<?xml version="1.0" encoding="utf-8" ?>
<svg baseProfile="full" height="128" version="1.1" width="144" xmlns="http://www.w3.org/2000/svg" xmlns:ev="http://www.w3.org/2001/xml-events" xmlns:xlink="http://www.w3.org/1999/xlink"><defs><marker id="arrow" markerHeight="3.5" markerWidth="5" orient="auto" refX="5.0" refY="1.7"><polygon points="0,0 5,1.75 0,3.5" /></marker></defs><g style="fill:white; stroke: black; stroke-width: 0.01;" transform="scale(57.0) translate(1.2600000000000002 1.1193266739736614)"><g><g><g><g><g><g><g><g /><g transform="matrix(1.0, 0.0, 0.0, 1.0, -1.0000000000000002, 3.6739403974420604e-16)"><g><g style="fill: #008000;" transform="matrix(1.0, 0.0, 0.0, 1.0, 0.0, 0.0)"><circle cx="0.0" cy="0.0" r="0.2" /></g><g style="fill: #ffffff;stroke: #ffffff;" transform="matrix(1.0, 0.0, 0.0, 1.0, 0.0, 0.0)"><text style="text-align:center; dominant-baseline:middle;&#10;                      font-family:sans-serif; font-weight: bold;&#10;                      font-size:0.2px" transform="translate(-0.063623046875, 0)">0</text></g></g></g></g><g transform="matrix(1.0, 0.0, 0.0, 1.0, -0.49999999999999994, -0.8660254037844389)"><g><g style="fill: #008000;" transform="matrix(1.0, 0.0, 0.0, 1.0, 0.0, 0.0)"><circle cx="0.0" cy="0.0" r="0.2" /></g><g style="fill: #ffffff;stroke: #ffffff;" transform="matrix(1.0, 0.0, 0.0, 1.0, 0.0, 0.0)"><text style="text-align:center; dominant-baseline:middle;&#10;                      font-family:sans-serif; font-weight: bold;&#10;                      font-size:0.2px" transform="translate(-0.063623046875, 0)">1</text></g></g></g></g><g transform="matrix(1.0, 0.0, 0.0, 1.0, 0.4999999999999992, -0.8660254037844394)"><g><g style="fill: #008000;" transform="matrix(1.0, 0.0, 0.0, 1.0, 0.0, 0.0)"><circle cx="0.0" cy="0.0" r="0.2" /></g><g style="fill: #ffffff;stroke: #ffffff;" transform="matrix(1.0, 0.0, 0.0, 1.0, 0.0, 0.0)"><text style="text-align:center; dominant-baseline:middle;&#10;                      font-family:sans-serif; font-weight: bold;&#10;                      font-size:0.2px" transform="translate(-0.063623046875, 0)">2</text></g></g></g></g><g transform="matrix(1.0, 0.0, 0.0, 1.0, 1.0000000000000002, -4.898587196589414e-16)"><g><g style="fill: #008000;" transform="matrix(1.0, 0.0, 0.0, 1.0, 0.0, 0.0)"><circle cx="0.0" cy="0.0" r="0.2" /></g><g style="fill: #ffffff;stroke: #ffffff;" transform="matrix(1.0, 0.0, 0.0, 1.0, 0.0, 0.0)"><text style="text-align:center; dominant-baseline:middle;&#10;                      font-family:sans-serif; font-weight: bold;&#10;                      font-size:0.2px" transform="translate(-0.063623046875, 0)">3</text></g></g></g></g><g transform="matrix(1.0, 0.0, 0.0, 1.0, 0.5000000000000016, 0.866025403784438)"><g><g style="fill: #008000;" transform="matrix(1.0, 0.0, 0.0, 1.0, 0.0, 0.0)"><circle cx="0.0" cy="0.0" r="0.2" /></g><g style="fill: #ffffff;stroke: #ffffff;" transform="matrix(1.0, 0.0, 0.0, 1.0, 0.0, 0.0)"><text style="text-align:center; dominant-baseline:middle;&#10;                      font-family:sans-serif; font-weight: bold;&#10;                      font-size:0.2px" transform="translate(-0.063623046875, 0)">4</text></g></g></g></g><g transform="matrix(1.0, 0.0, 0.0, 1.0, -0.5000000000000007, 0.8660254037844386)"><g><g style="fill: #008000;" transform="matrix(1.0, 0.0, 0.0, 1.0, 0.0, 0.0)"><circle cx="0.0" cy="0.0" r="0.2" /></g><g style="fill: #ffffff;stroke: #ffffff;" transform="matrix(1.0, 0.0, 0.0, 1.0, 0.0, 0.0)"><text style="text-align:center; dominant-baseline:middle;&#10;                      font-family:sans-serif; font-weight: bold;&#10;                      font-size:0.2px" transform="translate(-0.063623046875, 0)">5</text></g></g></g></g><g><g><g><g><g><g><g><g><g><g><g><g><g><g><g><g /><g style=";" transform="matrix(1.0, 0.0, 0.0, 1.0, 0.0, 0.0)"><polyline marker-end="url(#arrow)" points="-0.8850000000000002,-0.19918584287042057 -0.615,-0.6668395609140181" /></g></g><g style=";" transform="matrix(1.0, 0.0, 0.0, 1.0, 0.0, 0.0)"><polyline marker-end="url(#arrow)" points="-0.7691154273188011,-0.1333012701892219 0.26911542731880056,-0.7327241335952173" /></g></g><g style=";" transform="matrix(1.0, 0.0, 0.0, 1.0, 0.0, 0.0)"><polyline marker-end="url(#arrow)" points="-0.7200000000000002,2.403632848313464e-16 0.7200000000000002,-3.7914116290949096e-16" /></g></g><g style=";" transform="matrix(1.0, 0.0, 0.0, 1.0, 0.0, 0.0)"><polyline marker-end="url(#arrow)" points="-0.769115427318801,0.1333012701892221 0.26911542731880234,0.7327241335952163" /></g></g><g style=";" transform="matrix(1.0, 0.0, 0.0, 1.0, 0.0, 0.0)"><polyline marker-end="url(#arrow)" points="-0.8850000000000002,0.19918584287042126 -0.6150000000000005,0.6668395609140179" /></g></g><g style=";" transform="matrix(1.0, 0.0, 0.0, 1.0, 0.0, 0.0)"><polyline marker-end="url(#arrow)" points="-0.26999999999999996,-0.866025403784439 0.26999999999999924,-0.8660254037844393" /></g></g><g style=";" transform="matrix(1.0, 0.0, 0.0, 1.0, 0.0, 0.0)"><polyline marker-end="url(#arrow)" points="-0.2691154273188013,-0.7327241335952173 0.7691154273188012,-0.1333012701892225" /></g></g><g style=";" transform="matrix(1.0, 0.0, 0.0, 1.0, 0.0, 0.0)"><polyline marker-end="url(#arrow)" points="-0.35999999999999976,-0.623538290724796 0.36000000000000143,0.6235382907247952" /></g></g><g style=";" transform="matrix(1.0, 0.0, 0.0, 1.0, 0.0, 0.0)"><polyline marker-end="url(#arrow)" points="-0.5000000000000001,-0.599422863405995 -0.5000000000000006,0.5994228634059947" /></g></g><g style=";" transform="matrix(1.0, 0.0, 0.0, 1.0, 0.0, 0.0)"><polyline marker-end="url(#arrow)" points="0.6149999999999994,-0.6668395609140185 0.8850000000000001,-0.1991858428704214" /></g></g><g style=";" transform="matrix(1.0, 0.0, 0.0, 1.0, 0.0, 0.0)"><polyline marker-end="url(#arrow)" points="0.4999999999999996,-0.5994228634059955 0.5000000000000012,0.5994228634059942" /></g></g><g style=";" transform="matrix(1.0, 0.0, 0.0, 1.0, 0.0, 0.0)"><polyline marker-end="url(#arrow)" points="0.35999999999999927,-0.6235382907247964 -0.36000000000000043,0.6235382907247953" /></g></g><g style=";" transform="matrix(1.0, 0.0, 0.0, 1.0, 0.0, 0.0)"><polyline marker-end="url(#arrow)" points="0.8850000000000005,0.19918584287042054 0.6150000000000013,0.6668395609140171" /></g></g><g style=";" transform="matrix(1.0, 0.0, 0.0, 1.0, 0.0, 0.0)"><polyline marker-end="url(#arrow)" points="0.7691154273188012,0.1333012701892215 -0.2691154273188012,0.7327241335952164" /></g></g><g style=";" transform="matrix(1.0, 0.0, 0.0, 1.0, 0.0, 0.0)"><polyline marker-end="url(#arrow)" points="0.27000000000000146,0.8660254037844383 -0.2700000000000006,0.8660254037844385" /></g></g></g></g></svg>